G04 Layer: TopLayer*
G04 EasyEDA v6.5.40, 2024-08-11 13:34:47*
G04 cb6e2e9fbd21486d88ae5690d2d3dc00,10*
G04 Gerber Generator version 0.2*
G04 Scale: 100 percent, Rotated: No, Reflected: No *
G04 Dimensions in millimeters *
G04 leading zeros omitted , absolute positions ,4 integer and 5 decimal *
%FSLAX45Y45*%
%MOMM*%

%AMMACRO1*21,1,$1,$2,0,0,$3*%
%ADD10C,0.2540*%
%ADD11O,1.7420082X0.36400740000000004*%
%ADD12R,0.8000X0.9000*%
%ADD13R,0.9000X0.8000*%
%ADD14R,1.0000X0.7500*%
%ADD15R,1.1000X0.6000*%
%ADD16MACRO1,1.5X2.7X90.0000*%
%ADD17R,1.0000X2.0000*%
%ADD18R,0.4500X2.0000*%
%ADD19R,1.9000X2.1000*%
%ADD20MACRO1,0.864X0.8065X0.0000*%
%ADD21R,0.8640X0.8065*%

%LPD*%
D10*
X974826Y-1458468D02*
G01*
X480644Y-964285D01*
X480644Y-661314D01*
X670153Y-471804D01*
X974826Y-1586382D02*
G01*
X974826Y-1458468D01*
X670153Y-406400D02*
G01*
X670153Y-471804D01*
X1915515Y108204D02*
G01*
X1957120Y149809D01*
X2646603Y149809D01*
X1752600Y108204D02*
G01*
X1915515Y108204D01*
X2247900Y-941578D02*
G01*
X1981733Y-941578D01*
X1507515Y-467360D01*
X1507515Y26035D01*
X1589684Y108204D01*
X2247900Y-1009497D02*
G01*
X2247900Y-941578D01*
X1752600Y108204D02*
G01*
X1589684Y108204D01*
X1686128Y-425195D02*
G01*
X1692732Y-431800D01*
X2127097Y-431800D01*
X1603222Y-425195D02*
G01*
X1686128Y-425195D01*
X1426108Y-235204D02*
G01*
X1434134Y-243230D01*
X1434134Y-417169D01*
X1426108Y-425195D01*
X1343202Y-425195D02*
G01*
X1426108Y-425195D01*
X1384655Y-235204D02*
G01*
X1426108Y-235204D01*
X1384655Y-235204D02*
G01*
X1343202Y-235204D01*
X1343202Y-235204D02*
G01*
X1010462Y-235204D01*
X904671Y-340995D01*
X904671Y-373684D02*
G01*
X904671Y-340995D01*
X904671Y-373684D02*
G01*
X904671Y-406400D01*
X1187297Y-901700D02*
G01*
X1119378Y-901700D01*
X904671Y-406400D02*
G01*
X904671Y-471804D01*
X603097Y-889000D02*
G01*
X671017Y-889000D01*
X904671Y-471804D02*
G01*
X904671Y-794105D01*
X1119378Y-901700D02*
G01*
X1011783Y-794105D01*
X904671Y-794105D01*
X904671Y-794105D02*
G01*
X697992Y-794105D01*
X671017Y-821080D01*
X671017Y-889000D01*
X1915515Y298195D02*
G01*
X1998903Y214807D01*
X2646603Y214807D01*
X1752600Y298195D02*
G01*
X1915515Y298195D01*
X1739900Y-1149502D02*
G01*
X736422Y-1149502D01*
X535000Y-948080D01*
X535000Y-825906D01*
X791463Y-569442D01*
X791463Y-391871D01*
X1481531Y298195D01*
X1752600Y298195D01*
X983919Y-1894916D02*
G01*
X1106830Y-1894916D01*
X1106830Y-1894916D02*
G01*
X1108811Y-1896897D01*
X1235887Y-1896897D01*
X1235887Y-1896897D02*
G01*
X1378483Y-1896897D01*
X1381988Y-1893392D01*
X1504899Y-1893392D02*
G01*
X1381988Y-1893392D01*
X704900Y-1893392D02*
G01*
X859485Y-1893392D01*
X861009Y-1894916D01*
X983919Y-1894916D02*
G01*
X861009Y-1894916D01*
X2171166Y-318744D02*
G01*
X2574721Y84810D01*
X2646603Y84810D01*
X2171166Y-318744D02*
G01*
X2087600Y-235204D01*
X1603222Y-235204D01*
X2171166Y-318744D02*
G01*
X2199004Y-346608D01*
X2199004Y-489305D01*
X2503601Y-793902D01*
X2641600Y-793902D01*
X3733800Y-591286D02*
G01*
X3802049Y-591286D01*
X3813352Y-579983D01*
X3813352Y-162204D01*
X3312159Y338988D01*
X3016554Y338988D01*
X2762377Y84810D01*
X2646603Y84810D01*
X3733800Y-659536D02*
G01*
X3733800Y-625398D01*
X3733800Y-625398D02*
G01*
X3733800Y-591286D01*
X3733800Y-625398D02*
G01*
X3500323Y-625398D01*
X3312922Y-812800D01*
X3245002Y-812800D02*
G01*
X3312922Y-812800D01*
X2342997Y-1854200D02*
G01*
X2275077Y-1854200D01*
X1234922Y-1586382D02*
G01*
X1234922Y-1458468D01*
X2275077Y-1854200D02*
G01*
X2006854Y-1585976D01*
X2006854Y-1458468D01*
X1234922Y-1458468D02*
G01*
X2006854Y-1458468D01*
X2006854Y-1458468D02*
G01*
X2247900Y-1217421D01*
X2967304Y-1081176D02*
G01*
X2375814Y-1081176D01*
X2247900Y-1209090D01*
X2247900Y-1209090D02*
G01*
X2247900Y-1217421D01*
X1260297Y-330200D02*
G01*
X1260119Y-330377D01*
X1260119Y-761593D01*
X1327302Y-828776D01*
X1343202Y-330200D02*
G01*
X1260297Y-330200D01*
X1327302Y-901700D02*
G01*
X1327302Y-865225D01*
X1327302Y-865225D02*
G01*
X1327302Y-828776D01*
X1327302Y-865225D02*
G01*
X1663547Y-865225D01*
X1739900Y-941578D01*
X1739900Y-1009497D02*
G01*
X1739900Y-941578D01*
X811021Y-889000D02*
G01*
X896823Y-974801D01*
X1254201Y-974801D01*
X1259382Y-969619D01*
X1259382Y-901700D01*
X743102Y-889000D02*
G01*
X811021Y-889000D01*
X1327302Y-901700D02*
G01*
X1259382Y-901700D01*
X2247900Y-1149502D02*
G01*
X2247900Y-1179296D01*
X2247900Y-1179296D02*
G01*
X2247900Y-1209090D01*
X2247900Y-1179296D02*
G01*
X2078100Y-1009497D01*
X1739900Y-1009497D01*
X2967304Y-1209090D02*
G01*
X2967304Y-1145133D01*
X2967304Y-1145133D02*
G01*
X2967304Y-1081176D01*
X2641600Y-619937D02*
G01*
X2641600Y-607339D01*
X2641600Y-653897D02*
G01*
X2641600Y-619937D01*
X2641600Y-607339D02*
G01*
X2641600Y-585978D01*
X2487422Y-431800D02*
G01*
X2487422Y-60172D01*
X2567381Y19786D01*
X2646603Y19786D01*
X2267102Y-431800D02*
G01*
X2487422Y-431800D01*
X2487422Y-431800D02*
G01*
X2641600Y-585978D01*
X3220796Y214807D02*
G01*
X2955747Y214807D01*
X2760725Y19786D01*
X2646603Y19786D01*
X3104997Y-812800D02*
G01*
X3056356Y-861440D01*
X2967304Y-1145133D02*
G01*
X3056356Y-1056081D01*
X3056356Y-861466D01*
X3056356Y-861440D01*
X3056356Y-861440D02*
G01*
X2848787Y-653897D01*
X2641600Y-653897D01*
X3357321Y-2169083D02*
G01*
X3357321Y-2041169D01*
X3733800Y-508863D02*
G01*
X3240100Y-508863D01*
X3175000Y-443763D01*
X3175000Y-443763D02*
G01*
X2776448Y-45212D01*
X2646603Y-45212D01*
X3175000Y-443763D02*
G01*
X3175000Y-1849551D01*
X3170351Y-1854200D01*
X2483002Y-1854200D02*
G01*
X3170351Y-1854200D01*
X3170351Y-1854200D02*
G01*
X3357321Y-2041169D01*
D11*
G01*
X2646603Y279806D03*
G01*
X2646603Y214807D03*
G01*
X2646603Y149809D03*
G01*
X2646603Y84810D03*
G01*
X2646603Y19786D03*
G01*
X2646603Y-45212D03*
G01*
X2646603Y-110210D03*
G01*
X2646603Y-175209D03*
G01*
X2646603Y-240207D03*
G01*
X2646603Y-305206D03*
G01*
X3220796Y279806D03*
G01*
X3220796Y214807D03*
G01*
X3220796Y149809D03*
G01*
X3220796Y84810D03*
G01*
X3220796Y19786D03*
G01*
X3220796Y-45212D03*
G01*
X3220796Y-110210D03*
G01*
X3220796Y-175209D03*
G01*
X3220796Y-240207D03*
G01*
X3220796Y-305206D03*
D12*
G01*
X3245002Y-812800D03*
G01*
X3104997Y-812800D03*
D13*
G01*
X2641600Y-793902D03*
G01*
X2641600Y-653897D03*
G01*
X1739900Y-1149502D03*
G01*
X1739900Y-1009497D03*
G01*
X2247900Y-1009497D03*
G01*
X2247900Y-1149502D03*
D12*
G01*
X603097Y-889000D03*
G01*
X743102Y-889000D03*
G01*
X1187297Y-901700D03*
G01*
X1327302Y-901700D03*
G01*
X2127097Y-431800D03*
G01*
X2267102Y-431800D03*
D14*
G01*
X670140Y-406400D03*
G01*
X904659Y-406400D03*
D15*
G01*
X1603209Y-235204D03*
G01*
X1603209Y-425195D03*
G01*
X1343190Y-425195D03*
G01*
X1343190Y-330200D03*
G01*
X1343190Y-235204D03*
D16*
G01*
X1752600Y108200D03*
G01*
X1752600Y298199D03*
D17*
G01*
X2967291Y-2169096D03*
G01*
X2967291Y-1209103D03*
G01*
X3357308Y-2169096D03*
G01*
X3357308Y-1209103D03*
D18*
G01*
X1234922Y-1586395D03*
G01*
X1169898Y-1586395D03*
G01*
X1104874Y-1586395D03*
G01*
X1039850Y-1586395D03*
G01*
X974826Y-1586395D03*
D19*
G01*
X1504899Y-1893404D03*
G01*
X704900Y-1893404D03*
G01*
X983919Y-1894928D03*
G01*
X1235887Y-1896910D03*
D12*
G01*
X2483002Y-1854200D03*
G01*
X2342997Y-1854200D03*
D20*
G01*
X3733800Y-659524D03*
D21*
G01*
X3733800Y-508863D03*
M02*
