M48
METRIC,LZ,000.000
;FILE_FORMAT=3:3
;TYPE=PLATED
;Layer: PTH_Through_Via
;EasyEDA v6.5.40, 2024-07-25 19:00:12
;cb6e2e9fbd21486d88ae5690d2d3dc00,10
;Gerber Generator version 0.2
;Holesize 1 = 0.501 mm
T01C0.501
%
G05
G90
T01
X277106Y-008566
X280581Y014726
X183170Y-008945
X090026Y047859
X094041Y-008984
X056170Y-008982
X030637Y-008965
X119670Y-008972
X132370Y010453
X145070Y-008975
X157770Y-008952
X195870Y010435
X208570Y-008971
X221270Y-008949
X234023Y010456
X246216Y-008970
X259563Y010456
X272227Y030382
X272070Y-008966
X170470Y010435
X068870Y-008951
X204031Y047765
X200611Y-018311
X204094Y001495
X170301Y061819
X177536Y040003
X106881Y010447
X165718Y058824
M30
