M48
METRIC,LZ,000.000
;FILE_FORMAT=3:3
;TYPE=PLATED
;Layer: PTH_Through
;EasyEDA v6.5.40, 2024-07-25 19:00:12
;cb6e2e9fbd21486d88ae5690d2d3dc00,10
;Gerber Generator version 0.2
;Holesize 1 = 0.501 mm
T01C0.501
;Holesize 2 = 0.701 mm
T02C0.701
;Holesize 3 = 0.800 mm
T03C0.800
;Holesize 4 = 0.889 mm
T04C0.889
;Holesize 5 = 1.000 mm
T05C1.000
%
G05
G90
T01
X277106Y-008566
X280581Y014726
X183170Y-008945
X090026Y047859
X094041Y-008984
X056170Y-008982
X030637Y-008965
X119670Y-008972
X132370Y010453
X145070Y-008975
X157770Y-008952
X195870Y010435
X208570Y-008971
X221270Y-008949
X234023Y010456
X246216Y-008970
X259563Y010456
X272227Y030382
X272070Y-008966
X170470Y010435
X068870Y-008951
X204031Y047765
X200611Y-018311
X204094Y001495
X170301Y061819
X177536Y040003
X106881Y010447
X165718Y058824
T02
X106680Y031920
X106680Y021420
X119380Y031920
X119380Y021420
X132080Y031920
X132080Y021420
X144780Y031920
X144780Y021420
X157480Y031920
X157480Y021420
X170180Y031920
X170180Y021420
X182880Y031920
X182880Y021420
X198755Y031793
X198755Y021293
X208280Y031920
X208280Y021420
X220980Y031920
X220980Y021420
X233680Y031920
X233680Y021420
X246380Y031920
X246380Y021420
X256159Y031539
X256159Y021039
X294259Y031539
X294259Y021039
X281559Y031539
X281559Y021039
X268859Y031539
X268859Y021039
X081280Y021420
X081280Y031920
X068580Y021420
X068580Y031920
X055880Y021420
X055880Y031920
X043180Y021420
X043180Y031920
X030353Y021420
X030353Y031920
X017780Y021420
X017780Y031920
X005080Y021420
X005080Y031920
X093853Y021420
X093853Y031920
T03
X059817Y043220
X059817Y048220
X139150Y043093
X139150Y048093
X234823Y042331
X234823Y047331
T04
X151511Y066294
X148971Y066294
X146431Y066294
X143891Y066294
X141351Y066294
X138811Y066294
T05
X069850Y049530
X072390Y049530
X074930Y049530
X077470Y049530
X080010Y049530
X082550Y049530
X085090Y049530
X087630Y049530
X087630Y041910
X085090Y041910
X082550Y041910
X080010Y041910
X077470Y041910
X074930Y041910
X072390Y041910
X069850Y041910
X152146Y049657
X154686Y049657
X157226Y049657
X159766Y049657
X162306Y049657
X164846Y049657
X167386Y049657
X169926Y049657
X169926Y042037
X167386Y042037
X164846Y042037
X162306Y042037
X159766Y042037
X157226Y042037
X154686Y042037
X152146Y042037
X242951Y048260
X245491Y048260
X248031Y048260
X250571Y048260
X253111Y048260
X255651Y048260
X258191Y048260
X260731Y048260
X260731Y040640
X258191Y040640
X255651Y040640
X253111Y040640
X250571Y040640
X248031Y040640
X245491Y040640
X242951Y040640
M30
