G04 Layer: BottomLayer*
G04 EasyEDA v6.5.40, 2024-07-25 19:00:12*
G04 cb6e2e9fbd21486d88ae5690d2d3dc00,10*
G04 Gerber Generator version 0.2*
G04 Scale: 100 percent, Rotated: No, Reflected: No *
G04 Dimensions in millimeters *
G04 leading zeros omitted , absolute positions ,4 integer and 5 decimal *
%FSLAX45Y45*%
%MOMM*%

%ADD10C,0.2540*%
%ADD11C,1.6000*%
%ADD12C,1.5748*%
%ADD13R,1.5748X1.5748*%
%ADD14R,1.6000X1.6000*%
%ADD15C,1.4000*%
%ADD16C,0.7000*%
%ADD17C,0.0182*%

%LPD*%
D10*
X7747000Y4953000D02*
G01*
X9537801Y6743801D01*
X14528698Y6743801D01*
X14643100Y6629400D01*
X14643100Y6629400D02*
G01*
X14763699Y6749999D01*
X14943607Y6749999D01*
X15024100Y6669506D01*
X15024100Y6592544D01*
X15976600Y5640044D01*
X15976600Y4965700D01*
X15722600Y4965700D02*
G01*
X15595625Y4838725D01*
X14625472Y4838725D01*
X14394179Y5070017D01*
X8118017Y5070017D01*
X8001000Y4953000D01*
X7493000Y4191000D02*
G01*
X5969000Y2667000D01*
X1075207Y2667000D01*
X550214Y2142007D01*
X508000Y2142007D01*
X7493000Y4953000D02*
G01*
X9335566Y6795566D01*
X14984933Y6795566D01*
X15151100Y6629400D01*
X1778000Y2142007D02*
G01*
X2122957Y2486964D01*
X5907709Y2486964D01*
X7382687Y3961942D01*
X7517942Y3961942D01*
X7747000Y4191000D01*
X8128000Y2142007D02*
G01*
X8883904Y2897911D01*
X8883904Y4832095D01*
X8763000Y4953000D01*
X5588000Y3191992D02*
G01*
X5588000Y4428312D01*
X5981700Y4822012D01*
X10668000Y2142007D02*
G01*
X9618014Y3191992D01*
X9385300Y3191992D01*
X24549100Y4826000D02*
G01*
X23956213Y4233113D01*
X23482300Y4233113D01*
X7239000Y4953000D02*
G01*
X7108012Y4822012D01*
X5981700Y4822012D01*
X24549100Y4826000D02*
G01*
X24667108Y4944008D01*
X25446990Y4944008D01*
X25565100Y4826000D01*
X25565100Y4826000D02*
G01*
X25692100Y4699000D01*
X25692100Y3379343D01*
X25505663Y3192830D01*
X25505663Y2214219D01*
X25615900Y2103907D01*
X15468600Y4965700D02*
G01*
X15468600Y5094884D01*
X15468600Y5094884D02*
G01*
X15468600Y6057900D01*
X14897100Y6629400D01*
X17018000Y2142007D02*
G01*
X16852671Y2307336D01*
X16852671Y4250334D01*
X16484600Y4618405D01*
X16484600Y4845761D01*
X16484600Y4845761D02*
G01*
X15927146Y4845761D01*
X15849600Y4923307D01*
X13914958Y4309313D02*
G01*
X14299082Y4693437D01*
X15619729Y4693437D01*
X15849600Y4923307D01*
X15849600Y4923307D02*
G01*
X15849600Y5013452D01*
X15768167Y5094884D01*
X15468600Y5094884D01*
X16484600Y4845761D02*
G01*
X16484600Y4965700D01*
X16484600Y4965700D02*
G01*
X16484600Y5795162D01*
X16571823Y5882386D01*
X8255000Y4191000D02*
G01*
X6326504Y2262504D01*
X4438497Y2262504D01*
X4318000Y2142007D01*
X10779861Y3080130D02*
G01*
X11836069Y4136339D01*
X14491919Y4136339D01*
X14672995Y4317415D01*
X15608884Y4317415D01*
X15722600Y4203700D01*
X10688065Y1044651D02*
G01*
X10779861Y1136446D01*
X10779861Y3080130D01*
X10779861Y3080130D02*
G01*
X10668000Y3191992D01*
X17753584Y4000296D02*
G01*
X17753584Y5458485D01*
X17030141Y6181928D01*
X15214600Y4965700D02*
G01*
X15214600Y5184419D01*
X13881100Y6517919D01*
X13881100Y6629400D02*
G01*
X13881100Y6517919D01*
X6985000Y4953000D02*
G01*
X7110806Y5078806D01*
X7288326Y5078806D01*
X7366000Y5001132D01*
X7366000Y4896865D01*
X6791147Y4322013D01*
X5981700Y4322013D01*
X20061097Y-1831111D02*
G01*
X20061097Y-198805D01*
X20409357Y149453D01*
X20409357Y149453D02*
G01*
X20403108Y155702D01*
X20403108Y4776520D01*
X20403083Y4776520D01*
X6887006Y2142007D02*
G01*
X6887006Y-895146D01*
X8763000Y4191000D02*
G01*
X8763000Y4018000D01*
X6887006Y2142007D01*
X6887006Y2142007D02*
G01*
X6858000Y2142007D01*
X16992600Y4203700D02*
G01*
X16992600Y3217392D01*
X17018000Y3191992D01*
X17018000Y3191992D02*
G01*
X17124400Y3085592D01*
X17124400Y1120927D01*
X17047006Y1043533D01*
X27206956Y3037306D02*
G01*
X27206956Y-896594D01*
X26073100Y4064000D02*
G01*
X26073100Y3798188D01*
X26834084Y3037306D01*
X27206956Y3037306D01*
X27206956Y3037306D02*
G01*
X27221688Y3037306D01*
X27222704Y3038246D01*
X25615900Y3153892D02*
G01*
X25819100Y3357092D01*
X25819100Y4064000D01*
X25615900Y3153892D02*
G01*
X25956259Y2813659D01*
X25956259Y1045641D01*
X25565100Y4064000D02*
G01*
X25509981Y4064000D01*
X24638000Y3191992D01*
X24638000Y3191992D02*
G01*
X24533402Y3087395D01*
X24533402Y-808812D01*
X24621616Y-897026D01*
X23486872Y3191992D02*
G01*
X23486872Y1130172D01*
X23402290Y1045590D01*
X23368000Y3191992D02*
G01*
X23486872Y3191992D01*
X23486872Y3191992D02*
G01*
X24439092Y3191992D01*
X25311100Y4064000D01*
X25057100Y4064000D02*
G01*
X24845619Y3852519D01*
X22758527Y3852519D01*
X22098000Y3191992D01*
X22098000Y3191992D02*
G01*
X21995129Y3089122D01*
X21995129Y-763041D01*
X22127006Y-894918D01*
X24803100Y4064000D02*
G01*
X24647626Y3908526D01*
X21544534Y3908526D01*
X20828000Y3191992D01*
X20828000Y3191992D02*
G01*
X20723377Y3087370D01*
X20723377Y-763498D01*
X20857006Y-897128D01*
X19587006Y3179292D02*
G01*
X19587006Y1043533D01*
X19875500Y3179292D02*
G01*
X19587006Y3179292D01*
X16738600Y4965700D02*
G01*
X16738600Y4919370D01*
X18478677Y3179292D01*
X19587006Y3179292D01*
X16738600Y4203700D02*
G01*
X16738600Y4182592D01*
X15748000Y3191992D01*
X15748000Y3191992D02*
G01*
X15630550Y3074543D01*
X15630550Y-748741D01*
X15777006Y-895197D01*
X14478000Y3191992D02*
G01*
X15472892Y3191992D01*
X16484600Y4203700D01*
X14478000Y3191992D02*
G01*
X14374799Y3088792D01*
X14374799Y-765276D01*
X14507006Y-897483D01*
X13314095Y3191992D02*
G01*
X13314095Y1122400D01*
X13237006Y1045311D01*
X13208000Y3191992D02*
G01*
X13314095Y3191992D01*
X13314095Y3191992D02*
G01*
X13754277Y3632174D01*
X15659074Y3632174D01*
X16230600Y4203700D01*
X15976600Y4203700D02*
G01*
X15821126Y4048226D01*
X12794234Y4048226D01*
X11938000Y3191992D01*
X11938000Y3191992D02*
G01*
X11830405Y3084398D01*
X11830405Y-760603D01*
X11967006Y-897204D01*
X3063671Y2035733D02*
G01*
X3063671Y-896518D01*
X3035300Y2142007D02*
G01*
X3035300Y2064105D01*
X3063671Y2035733D01*
X3063671Y2035733D02*
G01*
X3501009Y2035733D01*
X3804335Y2339060D01*
X6184239Y2339060D01*
X8001000Y4155820D01*
X8001000Y4191000D01*
X5617006Y2142007D02*
G01*
X5617006Y-898245D01*
X8509000Y4191000D02*
G01*
X6460007Y2142007D01*
X5617006Y2142007D01*
X5617006Y2142007D02*
G01*
X5588000Y2142007D01*
X9404121Y-898372D02*
G01*
X9385300Y-879551D01*
X9385300Y2142007D01*
X9385300Y2142007D02*
G01*
X9002572Y2524734D01*
X9002572Y4785918D01*
X18183606Y3191992D02*
G01*
X18183606Y-761111D01*
X18317006Y-894511D01*
X16992600Y4965700D02*
G01*
X16868546Y5089753D01*
X16687596Y5089753D01*
X16625163Y5027320D01*
X16625163Y4750435D01*
X18183606Y3191992D01*
X18183606Y3191992D02*
G01*
X18288000Y3191992D01*
X28044648Y3153892D02*
G01*
X28044648Y1486027D01*
X28058109Y1472564D01*
X28155900Y3153892D02*
G01*
X28044648Y3153892D01*
X28044648Y3153892D02*
G01*
X27745182Y3153892D01*
X26073100Y4826000D01*
X25819100Y4826000D02*
G01*
X26885900Y3759200D01*
X26885900Y3153892D01*
X27710638Y-856614D02*
G01*
X27710638Y2659557D01*
X27216100Y3153892D01*
X26885900Y3153892D01*
D11*
G01*
X5981700Y4322013D03*
G01*
X5981700Y4822012D03*
G01*
X13914958Y4309313D03*
G01*
X13914958Y4809312D03*
D12*
G01*
X15151100Y6629400D03*
G01*
X14897100Y6629400D03*
G01*
X14643100Y6629400D03*
G01*
X14389100Y6629400D03*
G01*
X14135100Y6629400D03*
D13*
G01*
X13881100Y6629400D03*
D11*
G01*
X23482300Y4233113D03*
G01*
X23482300Y4733112D03*
G01*
X6985000Y4953000D03*
G01*
X7239000Y4953000D03*
G01*
X7493000Y4953000D03*
G01*
X7747000Y4953000D03*
G01*
X8001000Y4953000D03*
G01*
X8255000Y4953000D03*
G01*
X8509000Y4953000D03*
G01*
X8763000Y4953000D03*
G01*
X8763000Y4191000D03*
G01*
X8509000Y4191000D03*
G01*
X8255000Y4191000D03*
G01*
X8001000Y4191000D03*
G01*
X7747000Y4191000D03*
G01*
X7493000Y4191000D03*
G01*
X7239000Y4191000D03*
D14*
G01*
X6985000Y4191000D03*
D11*
G01*
X15214600Y4965700D03*
G01*
X15468600Y4965700D03*
G01*
X15722600Y4965700D03*
G01*
X15976600Y4965700D03*
G01*
X16230600Y4965700D03*
G01*
X16484600Y4965700D03*
G01*
X16738600Y4965700D03*
G01*
X16992600Y4965700D03*
G01*
X16992600Y4203700D03*
G01*
X16738600Y4203700D03*
G01*
X16484600Y4203700D03*
G01*
X16230600Y4203700D03*
G01*
X15976600Y4203700D03*
G01*
X15722600Y4203700D03*
G01*
X15468600Y4203700D03*
D14*
G01*
X15214600Y4203700D03*
D11*
G01*
X24295100Y4826000D03*
G01*
X24549100Y4826000D03*
G01*
X24803100Y4826000D03*
G01*
X25057100Y4826000D03*
G01*
X25311100Y4826000D03*
G01*
X25565100Y4826000D03*
G01*
X25819100Y4826000D03*
G01*
X26073100Y4826000D03*
G01*
X26073100Y4064000D03*
G01*
X25819100Y4064000D03*
G01*
X25565100Y4064000D03*
G01*
X25311100Y4064000D03*
G01*
X25057100Y4064000D03*
G01*
X24803100Y4064000D03*
G01*
X24549100Y4064000D03*
D14*
G01*
X24295100Y4064000D03*
D15*
G01*
X10668000Y3191997D03*
G01*
X10668000Y2142012D03*
G01*
X11938000Y3191997D03*
G01*
X11938000Y2142012D03*
G01*
X13208000Y3191997D03*
G01*
X13208000Y2142012D03*
G01*
X14478000Y3191997D03*
G01*
X14478000Y2142012D03*
G01*
X15748000Y3191997D03*
G01*
X15748000Y2142012D03*
G01*
X17018000Y3191997D03*
G01*
X17018000Y2142012D03*
G01*
X18288000Y3191997D03*
G01*
X18288000Y2142012D03*
G01*
X19875500Y3179297D03*
G01*
X19875500Y2129312D03*
G01*
X20828000Y3191992D03*
G01*
X20828000Y2142007D03*
G01*
X22098000Y3191992D03*
G01*
X22098000Y2142007D03*
G01*
X23368000Y3191992D03*
G01*
X23368000Y2142007D03*
G01*
X24638000Y3191992D03*
G01*
X24638000Y2142007D03*
G01*
X25615900Y3153892D03*
G01*
X25615900Y2103907D03*
G01*
X29425900Y3153892D03*
G01*
X29425900Y2103907D03*
G01*
X28155900Y3153892D03*
G01*
X28155900Y2103907D03*
G01*
X26885900Y3153892D03*
G01*
X26885900Y2103907D03*
G01*
X8128000Y2142007D03*
G01*
X8128000Y3191992D03*
G01*
X6858000Y2142007D03*
G01*
X6858000Y3191992D03*
G01*
X5588000Y2142007D03*
G01*
X5588000Y3191992D03*
G01*
X4318000Y2142007D03*
G01*
X4318000Y3191992D03*
G01*
X3035300Y2142007D03*
G01*
X3035300Y3191992D03*
G01*
X1778000Y2142007D03*
G01*
X1778000Y3191992D03*
G01*
X508000Y2142007D03*
G01*
X508000Y3191992D03*
G01*
X9385300Y2142007D03*
G01*
X9385300Y3191992D03*
D16*
G01*
X27710638Y-856614D03*
G01*
X28058109Y1472564D03*
G01*
X18317006Y-894511D03*
G01*
X9002572Y4785918D03*
G01*
X9404121Y-898372D03*
G01*
X5617006Y-898245D03*
G01*
X3063671Y-896518D03*
G01*
X11967006Y-897204D03*
G01*
X13237006Y1045311D03*
G01*
X14507006Y-897483D03*
G01*
X15777006Y-895197D03*
G01*
X19587006Y1043533D03*
G01*
X20857006Y-897128D03*
G01*
X22127006Y-894918D03*
G01*
X23402290Y1045590D03*
G01*
X24621616Y-897026D03*
G01*
X25956259Y1045641D03*
G01*
X27222704Y3038246D03*
G01*
X27206956Y-896594D03*
G01*
X17047006Y1043533D03*
G01*
X6887006Y-895146D03*
G01*
X20403083Y4776520D03*
G01*
X20061097Y-1831111D03*
G01*
X20409357Y149453D03*
G01*
X17030141Y6181928D03*
G01*
X17753584Y4000296D03*
G01*
X10688065Y1044651D03*
G01*
X16571823Y5882386D03*
M02*
