G04 Layer: TopPasteMaskLayer*
G04 EasyEDA v6.5.40, 2024-07-25 19:00:12*
G04 cb6e2e9fbd21486d88ae5690d2d3dc00,10*
G04 Gerber Generator version 0.2*
G04 Scale: 100 percent, Rotated: No, Reflected: No *
G04 Dimensions in millimeters *
G04 leading zeros omitted , absolute positions ,4 integer and 5 decimal *
%FSLAX45Y45*%
%MOMM*%

%ADD10R,0.4900X1.1570*%
%ADD11R,0.4900X1.1750*%
%ADD12R,1.5000X2.3000*%

%LPD*%
D10*
G01*
X16757904Y5917133D03*
G01*
X16852900Y5917133D03*
G01*
X16947895Y5917133D03*
D11*
G01*
X16947895Y6147866D03*
G01*
X16757904Y6147866D03*
D10*
G01*
X11754104Y5866333D03*
G01*
X11849100Y5866333D03*
G01*
X11944095Y5866333D03*
D11*
G01*
X11944095Y6097066D03*
G01*
X11754104Y6097066D03*
D12*
G01*
X9877018Y-1069009D03*
G01*
X9876993Y-1978990D03*
G01*
X9427006Y-1069009D03*
G01*
X9427006Y-1978990D03*
G01*
X11147018Y1216990D03*
G01*
X11146993Y307009D03*
G01*
X10697006Y1216990D03*
G01*
X10697006Y307009D03*
G01*
X12417018Y-1069009D03*
G01*
X12416993Y-1978990D03*
G01*
X11967006Y-1069009D03*
G01*
X11967006Y-1978990D03*
G01*
X13687018Y1216990D03*
G01*
X13686993Y307009D03*
G01*
X13237006Y1216990D03*
G01*
X13237006Y307009D03*
G01*
X14957018Y-1069009D03*
G01*
X14956993Y-1978990D03*
G01*
X14507006Y-1069009D03*
G01*
X14507006Y-1978990D03*
G01*
X16227018Y-1069009D03*
G01*
X16226993Y-1978990D03*
G01*
X15777006Y-1069009D03*
G01*
X15777006Y-1978990D03*
G01*
X17497018Y1216990D03*
G01*
X17496993Y307009D03*
G01*
X17047006Y1216990D03*
G01*
X17047006Y307009D03*
G01*
X18767018Y-1069009D03*
G01*
X18766993Y-1978990D03*
G01*
X18317006Y-1069009D03*
G01*
X18317006Y-1978990D03*
G01*
X20037018Y1216990D03*
G01*
X20036993Y307009D03*
G01*
X19587006Y1216990D03*
G01*
X19587006Y307009D03*
G01*
X21307018Y-1069009D03*
G01*
X21306993Y-1978990D03*
G01*
X20857006Y-1069009D03*
G01*
X20857006Y-1978990D03*
G01*
X22577018Y-1069009D03*
G01*
X22576993Y-1978990D03*
G01*
X22127006Y-1069009D03*
G01*
X22127006Y-1978990D03*
G01*
X23847018Y1216990D03*
G01*
X23846993Y307009D03*
G01*
X23397006Y1216990D03*
G01*
X23397006Y307009D03*
G01*
X25117018Y-1069009D03*
G01*
X25116993Y-1978990D03*
G01*
X24667006Y-1069009D03*
G01*
X24667006Y-1978990D03*
G01*
X26387018Y1216990D03*
G01*
X26386993Y307009D03*
G01*
X25937006Y1216990D03*
G01*
X25937006Y307009D03*
G01*
X27657018Y-1069009D03*
G01*
X27656993Y-1978990D03*
G01*
X27207006Y-1069009D03*
G01*
X27207006Y-1978990D03*
G01*
X28927018Y1216990D03*
G01*
X28926993Y307009D03*
G01*
X28477006Y1216990D03*
G01*
X28477006Y307009D03*
G01*
X30197018Y-1069009D03*
G01*
X30196993Y-1978990D03*
G01*
X29747006Y-1069009D03*
G01*
X29747006Y-1978990D03*
G01*
X987018Y-1069009D03*
G01*
X986993Y-1978990D03*
G01*
X537006Y-1069009D03*
G01*
X537006Y-1978990D03*
G01*
X2257018Y1216990D03*
G01*
X2256993Y307009D03*
G01*
X1807006Y1216990D03*
G01*
X1807006Y307009D03*
G01*
X3527018Y-1069009D03*
G01*
X3526993Y-1978990D03*
G01*
X3076981Y-1069009D03*
G01*
X3076981Y-1978990D03*
G01*
X4797018Y1216990D03*
G01*
X4796993Y307009D03*
G01*
X4346981Y1216990D03*
G01*
X4346981Y307009D03*
G01*
X6067018Y-1069009D03*
G01*
X6066993Y-1978990D03*
G01*
X5617006Y-1069009D03*
G01*
X5617006Y-1978990D03*
G01*
X7337018Y-1069009D03*
G01*
X7336993Y-1978990D03*
G01*
X6887006Y-1069009D03*
G01*
X6887006Y-1978990D03*
G01*
X8607018Y1216990D03*
G01*
X8606993Y307009D03*
G01*
X8157006Y1216990D03*
G01*
X8157006Y307009D03*
M02*
