G04 Layer: TopSilkscreenLayer*
G04 EasyEDA v6.5.40, 2024-07-25 19:00:12*
G04 cb6e2e9fbd21486d88ae5690d2d3dc00,10*
G04 Gerber Generator version 0.2*
G04 Scale: 100 percent, Rotated: No, Reflected: No *
G04 Dimensions in millimeters *
G04 leading zeros omitted , absolute positions ,4 integer and 5 decimal *
%FSLAX45Y45*%
%MOMM*%

%ADD10C,0.1524*%
%ADD11C,0.2540*%
%ADD12C,0.2032*%
%ADD13C,0.2030*%
%ADD14C,0.3000*%
%ADD15C,0.0134*%

%LPD*%
D10*
X5739937Y4624532D02*
G01*
X5729546Y4619335D01*
X5719155Y4608944D01*
X5713961Y4598555D01*
X5713961Y4577773D01*
X5719155Y4567382D01*
X5729546Y4556991D01*
X5739937Y4551794D01*
X5755525Y4546600D01*
X5781502Y4546600D01*
X5797087Y4551794D01*
X5807478Y4556991D01*
X5817870Y4567382D01*
X5823064Y4577773D01*
X5823064Y4598555D01*
X5817870Y4608944D01*
X5807478Y4619335D01*
X5797087Y4624532D01*
X5734743Y4658822D02*
G01*
X5729546Y4669213D01*
X5713961Y4684798D01*
X5823064Y4684798D01*
X13673206Y4611832D02*
G01*
X13662814Y4606635D01*
X13652423Y4596244D01*
X13647229Y4585855D01*
X13647229Y4565073D01*
X13652423Y4554682D01*
X13662814Y4544291D01*
X13673206Y4539094D01*
X13688794Y4533900D01*
X13714770Y4533900D01*
X13730356Y4539094D01*
X13740747Y4544291D01*
X13751138Y4554682D01*
X13756332Y4565073D01*
X13756332Y4585855D01*
X13751138Y4596244D01*
X13740747Y4606635D01*
X13730356Y4611832D01*
X13673206Y4651316D02*
G01*
X13668011Y4651316D01*
X13657620Y4656513D01*
X13652423Y4661707D01*
X13647229Y4672098D01*
X13647229Y4692881D01*
X13652423Y4703272D01*
X13657620Y4708466D01*
X13668011Y4713663D01*
X13678402Y4713663D01*
X13688794Y4708466D01*
X13704379Y4698075D01*
X13756332Y4646122D01*
X13756332Y4718857D01*
X16827500Y6351015D02*
G01*
X16827500Y6242050D01*
X16827500Y6351015D02*
G01*
X16874236Y6351015D01*
X16889729Y6345936D01*
X16895063Y6340602D01*
X16900143Y6330187D01*
X16900143Y6319773D01*
X16895063Y6309360D01*
X16889729Y6304279D01*
X16874236Y6299200D01*
X16827500Y6299200D02*
G01*
X16874236Y6299200D01*
X16889729Y6293865D01*
X16895063Y6288786D01*
X16900143Y6278371D01*
X16900143Y6262623D01*
X16895063Y6252210D01*
X16889729Y6247129D01*
X16874236Y6242050D01*
X16827500Y6242050D01*
X16934434Y6330187D02*
G01*
X16944848Y6335521D01*
X16960595Y6351015D01*
X16960595Y6242050D01*
X16994886Y6205473D02*
G01*
X17088358Y6205473D01*
X17200625Y6325107D02*
G01*
X17195291Y6335521D01*
X17184877Y6345936D01*
X17174463Y6351015D01*
X17153890Y6351015D01*
X17143475Y6345936D01*
X17133061Y6335521D01*
X17127727Y6325107D01*
X17122648Y6309360D01*
X17122648Y6283452D01*
X17127727Y6267957D01*
X17133061Y6257544D01*
X17143475Y6247129D01*
X17153890Y6242050D01*
X17174463Y6242050D01*
X17184877Y6247129D01*
X17195291Y6257544D01*
X17200625Y6267957D01*
X17234916Y6351015D02*
G01*
X17234916Y6242050D01*
X17234916Y6242050D02*
G01*
X17297145Y6242050D01*
X17331436Y6351015D02*
G01*
X17331436Y6242050D01*
X17404079Y6351015D02*
G01*
X17331436Y6278371D01*
X17357343Y6304279D02*
G01*
X17404079Y6242050D01*
X11823700Y6300215D02*
G01*
X11823700Y6191250D01*
X11823700Y6300215D02*
G01*
X11870436Y6300215D01*
X11885929Y6295136D01*
X11891263Y6289802D01*
X11896343Y6279387D01*
X11896343Y6268973D01*
X11891263Y6258560D01*
X11885929Y6253479D01*
X11870436Y6248400D01*
X11823700Y6248400D02*
G01*
X11870436Y6248400D01*
X11885929Y6243065D01*
X11891263Y6237986D01*
X11896343Y6227571D01*
X11896343Y6211823D01*
X11891263Y6201410D01*
X11885929Y6196329D01*
X11870436Y6191250D01*
X11823700Y6191250D01*
X11935968Y6274307D02*
G01*
X11935968Y6279387D01*
X11941047Y6289802D01*
X11946381Y6295136D01*
X11956795Y6300215D01*
X11977370Y6300215D01*
X11987784Y6295136D01*
X11993118Y6289802D01*
X11998197Y6279387D01*
X11998197Y6268973D01*
X11993118Y6258560D01*
X11982704Y6243065D01*
X11930634Y6191250D01*
X12003531Y6191250D01*
X12037822Y6154673D02*
G01*
X12131293Y6154673D01*
X12238227Y6284721D02*
G01*
X12227813Y6295136D01*
X12212320Y6300215D01*
X12191491Y6300215D01*
X12175997Y6295136D01*
X12165584Y6284721D01*
X12165584Y6274307D01*
X12170663Y6263894D01*
X12175997Y6258560D01*
X12186411Y6253479D01*
X12217400Y6243065D01*
X12227813Y6237986D01*
X12233147Y6232652D01*
X12238227Y6222237D01*
X12238227Y6206744D01*
X12227813Y6196329D01*
X12212320Y6191250D01*
X12191491Y6191250D01*
X12175997Y6196329D01*
X12165584Y6206744D01*
X12272518Y6300215D02*
G01*
X12272518Y6191250D01*
X12345415Y6300215D02*
G01*
X12345415Y6191250D01*
X12272518Y6248400D02*
G01*
X12345415Y6248400D01*
X14490700Y6897115D02*
G01*
X14490700Y6788150D01*
X14563343Y6897115D02*
G01*
X14563343Y6788150D01*
X14490700Y6845300D02*
G01*
X14563343Y6845300D01*
X14597634Y6876287D02*
G01*
X14608047Y6881621D01*
X14623795Y6897115D01*
X14623795Y6788150D01*
X10082009Y-1596644D02*
G01*
X10092423Y-1586229D01*
X10097503Y-1570736D01*
X10097503Y-1549907D01*
X10092423Y-1534413D01*
X10082009Y-1524000D01*
X10071595Y-1524000D01*
X10061181Y-1529079D01*
X10055847Y-1534413D01*
X10050767Y-1544828D01*
X10040353Y-1576070D01*
X10035273Y-1586229D01*
X10029939Y-1591563D01*
X10019525Y-1596644D01*
X10004031Y-1596644D01*
X9993617Y-1586229D01*
X9988537Y-1570736D01*
X9988537Y-1549907D01*
X9993617Y-1534413D01*
X10004031Y-1524000D01*
X10097503Y-1630934D02*
G01*
X9988537Y-1657095D01*
X10097503Y-1683004D02*
G01*
X9988537Y-1657095D01*
X10097503Y-1683004D02*
G01*
X9988537Y-1708912D01*
X10097503Y-1734820D02*
G01*
X9988537Y-1708912D01*
X10097503Y-1795271D02*
G01*
X10092423Y-1779523D01*
X10082009Y-1774444D01*
X10071595Y-1774444D01*
X10061181Y-1779523D01*
X10055847Y-1789937D01*
X10050767Y-1810765D01*
X10045687Y-1826260D01*
X10035273Y-1836673D01*
X10024859Y-1842007D01*
X10009111Y-1842007D01*
X9998697Y-1836673D01*
X9993617Y-1831594D01*
X9988537Y-1816100D01*
X9988537Y-1795271D01*
X9993617Y-1779523D01*
X9998697Y-1774444D01*
X10009111Y-1769110D01*
X10024859Y-1769110D01*
X10035273Y-1774444D01*
X10045687Y-1784857D01*
X10050767Y-1800352D01*
X10055847Y-1821179D01*
X10061181Y-1831594D01*
X10071595Y-1836673D01*
X10082009Y-1836673D01*
X10092423Y-1831594D01*
X10097503Y-1816100D01*
X10097503Y-1795271D01*
X11352009Y689355D02*
G01*
X11362423Y699770D01*
X11367503Y715263D01*
X11367503Y736092D01*
X11362423Y751586D01*
X11352009Y762000D01*
X11341595Y762000D01*
X11331181Y756920D01*
X11325847Y751586D01*
X11320767Y741171D01*
X11310353Y709929D01*
X11305273Y699770D01*
X11299939Y694436D01*
X11289525Y689355D01*
X11274031Y689355D01*
X11263617Y699770D01*
X11258537Y715263D01*
X11258537Y736092D01*
X11263617Y751586D01*
X11274031Y762000D01*
X11367503Y655065D02*
G01*
X11258537Y628904D01*
X11367503Y602995D02*
G01*
X11258537Y628904D01*
X11367503Y602995D02*
G01*
X11258537Y577087D01*
X11367503Y551179D02*
G01*
X11258537Y577087D01*
X11331181Y449326D02*
G01*
X11315687Y454405D01*
X11305273Y464820D01*
X11299939Y480313D01*
X11299939Y485647D01*
X11305273Y501142D01*
X11315687Y511555D01*
X11331181Y516889D01*
X11336261Y516889D01*
X11352009Y511555D01*
X11362423Y501142D01*
X11367503Y485647D01*
X11367503Y480313D01*
X11362423Y464820D01*
X11352009Y454405D01*
X11331181Y449326D01*
X11305273Y449326D01*
X11279111Y454405D01*
X11263617Y464820D01*
X11258537Y480313D01*
X11258537Y490728D01*
X11263617Y506476D01*
X11274031Y511555D01*
X12622009Y-1596644D02*
G01*
X12632423Y-1586229D01*
X12637503Y-1570736D01*
X12637503Y-1549907D01*
X12632423Y-1534413D01*
X12622009Y-1524000D01*
X12611595Y-1524000D01*
X12601181Y-1529079D01*
X12595847Y-1534413D01*
X12590767Y-1544828D01*
X12580353Y-1576070D01*
X12575273Y-1586229D01*
X12569939Y-1591563D01*
X12559525Y-1596644D01*
X12544031Y-1596644D01*
X12533617Y-1586229D01*
X12528537Y-1570736D01*
X12528537Y-1549907D01*
X12533617Y-1534413D01*
X12544031Y-1524000D01*
X12637503Y-1630934D02*
G01*
X12528537Y-1657095D01*
X12637503Y-1683004D02*
G01*
X12528537Y-1657095D01*
X12637503Y-1683004D02*
G01*
X12528537Y-1708912D01*
X12637503Y-1734820D02*
G01*
X12528537Y-1708912D01*
X12616675Y-1769110D02*
G01*
X12622009Y-1779523D01*
X12637503Y-1795271D01*
X12528537Y-1795271D01*
X12637503Y-1860550D02*
G01*
X12632423Y-1845055D01*
X12616675Y-1834642D01*
X12590767Y-1829562D01*
X12575273Y-1829562D01*
X12549111Y-1834642D01*
X12533617Y-1845055D01*
X12528537Y-1860550D01*
X12528537Y-1870963D01*
X12533617Y-1886712D01*
X12549111Y-1897126D01*
X12575273Y-1902205D01*
X12590767Y-1902205D01*
X12616675Y-1897126D01*
X12632423Y-1886712D01*
X12637503Y-1870963D01*
X12637503Y-1860550D01*
X13892009Y689355D02*
G01*
X13902423Y699770D01*
X13907503Y715263D01*
X13907503Y736092D01*
X13902423Y751586D01*
X13892009Y762000D01*
X13881595Y762000D01*
X13871181Y756920D01*
X13865847Y751586D01*
X13860767Y741171D01*
X13850353Y709929D01*
X13845273Y699770D01*
X13839939Y694436D01*
X13829525Y689355D01*
X13814031Y689355D01*
X13803617Y699770D01*
X13798537Y715263D01*
X13798537Y736092D01*
X13803617Y751586D01*
X13814031Y762000D01*
X13907503Y655065D02*
G01*
X13798537Y628904D01*
X13907503Y602995D02*
G01*
X13798537Y628904D01*
X13907503Y602995D02*
G01*
X13798537Y577087D01*
X13907503Y551179D02*
G01*
X13798537Y577087D01*
X13886675Y516889D02*
G01*
X13892009Y506476D01*
X13907503Y490728D01*
X13798537Y490728D01*
X13886675Y456437D02*
G01*
X13892009Y446023D01*
X13907503Y430529D01*
X13798537Y430529D01*
X15162009Y-1596644D02*
G01*
X15172423Y-1586229D01*
X15177503Y-1570736D01*
X15177503Y-1549907D01*
X15172423Y-1534413D01*
X15162009Y-1524000D01*
X15151595Y-1524000D01*
X15141181Y-1529079D01*
X15135847Y-1534413D01*
X15130767Y-1544828D01*
X15120353Y-1576070D01*
X15115273Y-1586229D01*
X15109939Y-1591563D01*
X15099525Y-1596644D01*
X15084031Y-1596644D01*
X15073617Y-1586229D01*
X15068537Y-1570736D01*
X15068537Y-1549907D01*
X15073617Y-1534413D01*
X15084031Y-1524000D01*
X15177503Y-1630934D02*
G01*
X15068537Y-1657095D01*
X15177503Y-1683004D02*
G01*
X15068537Y-1657095D01*
X15177503Y-1683004D02*
G01*
X15068537Y-1708912D01*
X15177503Y-1734820D02*
G01*
X15068537Y-1708912D01*
X15156675Y-1769110D02*
G01*
X15162009Y-1779523D01*
X15177503Y-1795271D01*
X15068537Y-1795271D01*
X15151595Y-1834642D02*
G01*
X15156675Y-1834642D01*
X15167089Y-1839976D01*
X15172423Y-1845055D01*
X15177503Y-1855470D01*
X15177503Y-1876297D01*
X15172423Y-1886712D01*
X15167089Y-1891792D01*
X15156675Y-1897126D01*
X15146261Y-1897126D01*
X15135847Y-1891792D01*
X15120353Y-1881378D01*
X15068537Y-1829562D01*
X15068537Y-1902205D01*
X16432009Y-1596644D02*
G01*
X16442423Y-1586229D01*
X16447503Y-1570736D01*
X16447503Y-1549907D01*
X16442423Y-1534413D01*
X16432009Y-1524000D01*
X16421595Y-1524000D01*
X16411181Y-1529079D01*
X16405847Y-1534413D01*
X16400767Y-1544828D01*
X16390353Y-1576070D01*
X16385273Y-1586229D01*
X16379939Y-1591563D01*
X16369525Y-1596644D01*
X16354031Y-1596644D01*
X16343617Y-1586229D01*
X16338537Y-1570736D01*
X16338537Y-1549907D01*
X16343617Y-1534413D01*
X16354031Y-1524000D01*
X16447503Y-1630934D02*
G01*
X16338537Y-1657095D01*
X16447503Y-1683004D02*
G01*
X16338537Y-1657095D01*
X16447503Y-1683004D02*
G01*
X16338537Y-1708912D01*
X16447503Y-1734820D02*
G01*
X16338537Y-1708912D01*
X16426675Y-1769110D02*
G01*
X16432009Y-1779523D01*
X16447503Y-1795271D01*
X16338537Y-1795271D01*
X16447503Y-1839976D02*
G01*
X16447503Y-1897126D01*
X16405847Y-1865884D01*
X16405847Y-1881378D01*
X16400767Y-1891792D01*
X16395687Y-1897126D01*
X16379939Y-1902205D01*
X16369525Y-1902205D01*
X16354031Y-1897126D01*
X16343617Y-1886712D01*
X16338537Y-1870963D01*
X16338537Y-1855470D01*
X16343617Y-1839976D01*
X16348697Y-1834642D01*
X16359111Y-1829562D01*
X17702009Y689355D02*
G01*
X17712423Y699770D01*
X17717503Y715263D01*
X17717503Y736092D01*
X17712423Y751586D01*
X17702009Y762000D01*
X17691595Y762000D01*
X17681181Y756920D01*
X17675847Y751586D01*
X17670767Y741171D01*
X17660353Y709929D01*
X17655273Y699770D01*
X17649939Y694436D01*
X17639525Y689355D01*
X17624031Y689355D01*
X17613617Y699770D01*
X17608537Y715263D01*
X17608537Y736092D01*
X17613617Y751586D01*
X17624031Y762000D01*
X17717503Y655065D02*
G01*
X17608537Y628904D01*
X17717503Y602995D02*
G01*
X17608537Y628904D01*
X17717503Y602995D02*
G01*
X17608537Y577087D01*
X17717503Y551179D02*
G01*
X17608537Y577087D01*
X17696675Y516889D02*
G01*
X17702009Y506476D01*
X17717503Y490728D01*
X17608537Y490728D01*
X17717503Y404621D02*
G01*
X17644859Y456437D01*
X17644859Y378460D01*
X17717503Y404621D02*
G01*
X17608537Y404621D01*
X18972009Y-1596644D02*
G01*
X18982423Y-1586229D01*
X18987503Y-1570736D01*
X18987503Y-1549907D01*
X18982423Y-1534413D01*
X18972009Y-1524000D01*
X18961595Y-1524000D01*
X18951181Y-1529079D01*
X18945847Y-1534413D01*
X18940767Y-1544828D01*
X18930353Y-1576070D01*
X18925273Y-1586229D01*
X18919939Y-1591563D01*
X18909525Y-1596644D01*
X18894031Y-1596644D01*
X18883617Y-1586229D01*
X18878537Y-1570736D01*
X18878537Y-1549907D01*
X18883617Y-1534413D01*
X18894031Y-1524000D01*
X18987503Y-1630934D02*
G01*
X18878537Y-1657095D01*
X18987503Y-1683004D02*
G01*
X18878537Y-1657095D01*
X18987503Y-1683004D02*
G01*
X18878537Y-1708912D01*
X18987503Y-1734820D02*
G01*
X18878537Y-1708912D01*
X18966675Y-1769110D02*
G01*
X18972009Y-1779523D01*
X18987503Y-1795271D01*
X18878537Y-1795271D01*
X18987503Y-1891792D02*
G01*
X18987503Y-1839976D01*
X18940767Y-1834642D01*
X18945847Y-1839976D01*
X18951181Y-1855470D01*
X18951181Y-1870963D01*
X18945847Y-1886712D01*
X18935687Y-1897126D01*
X18919939Y-1902205D01*
X18909525Y-1902205D01*
X18894031Y-1897126D01*
X18883617Y-1886712D01*
X18878537Y-1870963D01*
X18878537Y-1855470D01*
X18883617Y-1839976D01*
X18888697Y-1834642D01*
X18899111Y-1829562D01*
X20242009Y689355D02*
G01*
X20252423Y699770D01*
X20257503Y715263D01*
X20257503Y736092D01*
X20252423Y751586D01*
X20242009Y762000D01*
X20231595Y762000D01*
X20221181Y756920D01*
X20215847Y751586D01*
X20210767Y741171D01*
X20200353Y709929D01*
X20195273Y699770D01*
X20189939Y694436D01*
X20179525Y689355D01*
X20164031Y689355D01*
X20153617Y699770D01*
X20148537Y715263D01*
X20148537Y736092D01*
X20153617Y751586D01*
X20164031Y762000D01*
X20257503Y655065D02*
G01*
X20148537Y628904D01*
X20257503Y602995D02*
G01*
X20148537Y628904D01*
X20257503Y602995D02*
G01*
X20148537Y577087D01*
X20257503Y551179D02*
G01*
X20148537Y577087D01*
X20236675Y516889D02*
G01*
X20242009Y506476D01*
X20257503Y490728D01*
X20148537Y490728D01*
X20242009Y394207D02*
G01*
X20252423Y399287D01*
X20257503Y415036D01*
X20257503Y425450D01*
X20252423Y440944D01*
X20236675Y451357D01*
X20210767Y456437D01*
X20184859Y456437D01*
X20164031Y451357D01*
X20153617Y440944D01*
X20148537Y425450D01*
X20148537Y420115D01*
X20153617Y404621D01*
X20164031Y394207D01*
X20179525Y388873D01*
X20184859Y388873D01*
X20200353Y394207D01*
X20210767Y404621D01*
X20215847Y420115D01*
X20215847Y425450D01*
X20210767Y440944D01*
X20200353Y451357D01*
X20184859Y456437D01*
X21512009Y-1596644D02*
G01*
X21522423Y-1586229D01*
X21527503Y-1570736D01*
X21527503Y-1549907D01*
X21522423Y-1534413D01*
X21512009Y-1524000D01*
X21501595Y-1524000D01*
X21491181Y-1529079D01*
X21485847Y-1534413D01*
X21480767Y-1544828D01*
X21470353Y-1576070D01*
X21465273Y-1586229D01*
X21459939Y-1591563D01*
X21449525Y-1596644D01*
X21434031Y-1596644D01*
X21423617Y-1586229D01*
X21418537Y-1570736D01*
X21418537Y-1549907D01*
X21423617Y-1534413D01*
X21434031Y-1524000D01*
X21527503Y-1630934D02*
G01*
X21418537Y-1657095D01*
X21527503Y-1683004D02*
G01*
X21418537Y-1657095D01*
X21527503Y-1683004D02*
G01*
X21418537Y-1708912D01*
X21527503Y-1734820D02*
G01*
X21418537Y-1708912D01*
X21506675Y-1769110D02*
G01*
X21512009Y-1779523D01*
X21527503Y-1795271D01*
X21418537Y-1795271D01*
X21527503Y-1902205D02*
G01*
X21418537Y-1850389D01*
X21527503Y-1829562D02*
G01*
X21527503Y-1902205D01*
X22782009Y-1596644D02*
G01*
X22792423Y-1586229D01*
X22797503Y-1570736D01*
X22797503Y-1549907D01*
X22792423Y-1534413D01*
X22782009Y-1524000D01*
X22771595Y-1524000D01*
X22761181Y-1529079D01*
X22755847Y-1534413D01*
X22750767Y-1544828D01*
X22740353Y-1576070D01*
X22735273Y-1586229D01*
X22729939Y-1591563D01*
X22719525Y-1596644D01*
X22704031Y-1596644D01*
X22693617Y-1586229D01*
X22688537Y-1570736D01*
X22688537Y-1549907D01*
X22693617Y-1534413D01*
X22704031Y-1524000D01*
X22797503Y-1630934D02*
G01*
X22688537Y-1657095D01*
X22797503Y-1683004D02*
G01*
X22688537Y-1657095D01*
X22797503Y-1683004D02*
G01*
X22688537Y-1708912D01*
X22797503Y-1734820D02*
G01*
X22688537Y-1708912D01*
X22776675Y-1769110D02*
G01*
X22782009Y-1779523D01*
X22797503Y-1795271D01*
X22688537Y-1795271D01*
X22797503Y-1855470D02*
G01*
X22792423Y-1839976D01*
X22782009Y-1834642D01*
X22771595Y-1834642D01*
X22761181Y-1839976D01*
X22755847Y-1850389D01*
X22750767Y-1870963D01*
X22745687Y-1886712D01*
X22735273Y-1897126D01*
X22724859Y-1902205D01*
X22709111Y-1902205D01*
X22698697Y-1897126D01*
X22693617Y-1891792D01*
X22688537Y-1876297D01*
X22688537Y-1855470D01*
X22693617Y-1839976D01*
X22698697Y-1834642D01*
X22709111Y-1829562D01*
X22724859Y-1829562D01*
X22735273Y-1834642D01*
X22745687Y-1845055D01*
X22750767Y-1860550D01*
X22755847Y-1881378D01*
X22761181Y-1891792D01*
X22771595Y-1897126D01*
X22782009Y-1897126D01*
X22792423Y-1891792D01*
X22797503Y-1876297D01*
X22797503Y-1855470D01*
X24052009Y689355D02*
G01*
X24062423Y699770D01*
X24067503Y715263D01*
X24067503Y736092D01*
X24062423Y751586D01*
X24052009Y762000D01*
X24041595Y762000D01*
X24031181Y756920D01*
X24025847Y751586D01*
X24020767Y741171D01*
X24010353Y709929D01*
X24005273Y699770D01*
X23999939Y694436D01*
X23989525Y689355D01*
X23974031Y689355D01*
X23963617Y699770D01*
X23958537Y715263D01*
X23958537Y736092D01*
X23963617Y751586D01*
X23974031Y762000D01*
X24067503Y655065D02*
G01*
X23958537Y628904D01*
X24067503Y602995D02*
G01*
X23958537Y628904D01*
X24067503Y602995D02*
G01*
X23958537Y577087D01*
X24067503Y551179D02*
G01*
X23958537Y577087D01*
X24046675Y516889D02*
G01*
X24052009Y506476D01*
X24067503Y490728D01*
X23958537Y490728D01*
X24031181Y388873D02*
G01*
X24015687Y394207D01*
X24005273Y404621D01*
X23999939Y420115D01*
X23999939Y425450D01*
X24005273Y440944D01*
X24015687Y451357D01*
X24031181Y456437D01*
X24036261Y456437D01*
X24052009Y451357D01*
X24062423Y440944D01*
X24067503Y425450D01*
X24067503Y420115D01*
X24062423Y404621D01*
X24052009Y394207D01*
X24031181Y388873D01*
X24005273Y388873D01*
X23979111Y394207D01*
X23963617Y404621D01*
X23958537Y420115D01*
X23958537Y430529D01*
X23963617Y446023D01*
X23974031Y451357D01*
X25322009Y-1596644D02*
G01*
X25332423Y-1586229D01*
X25337503Y-1570736D01*
X25337503Y-1549907D01*
X25332423Y-1534413D01*
X25322009Y-1524000D01*
X25311595Y-1524000D01*
X25301181Y-1529079D01*
X25295847Y-1534413D01*
X25290767Y-1544828D01*
X25280353Y-1576070D01*
X25275273Y-1586229D01*
X25269939Y-1591563D01*
X25259525Y-1596644D01*
X25244031Y-1596644D01*
X25233617Y-1586229D01*
X25228537Y-1570736D01*
X25228537Y-1549907D01*
X25233617Y-1534413D01*
X25244031Y-1524000D01*
X25337503Y-1630934D02*
G01*
X25228537Y-1657095D01*
X25337503Y-1683004D02*
G01*
X25228537Y-1657095D01*
X25337503Y-1683004D02*
G01*
X25228537Y-1708912D01*
X25337503Y-1734820D02*
G01*
X25228537Y-1708912D01*
X25311595Y-1774444D02*
G01*
X25316675Y-1774444D01*
X25327089Y-1779523D01*
X25332423Y-1784857D01*
X25337503Y-1795271D01*
X25337503Y-1816100D01*
X25332423Y-1826260D01*
X25327089Y-1831594D01*
X25316675Y-1836673D01*
X25306261Y-1836673D01*
X25295847Y-1831594D01*
X25280353Y-1821179D01*
X25228537Y-1769110D01*
X25228537Y-1842007D01*
X25337503Y-1907539D02*
G01*
X25332423Y-1891792D01*
X25316675Y-1881378D01*
X25290767Y-1876297D01*
X25275273Y-1876297D01*
X25249111Y-1881378D01*
X25233617Y-1891792D01*
X25228537Y-1907539D01*
X25228537Y-1917700D01*
X25233617Y-1933447D01*
X25249111Y-1943862D01*
X25275273Y-1948942D01*
X25290767Y-1948942D01*
X25316675Y-1943862D01*
X25332423Y-1933447D01*
X25337503Y-1917700D01*
X25337503Y-1907539D01*
X26592009Y689355D02*
G01*
X26602423Y699770D01*
X26607503Y715263D01*
X26607503Y736092D01*
X26602423Y751586D01*
X26592009Y762000D01*
X26581595Y762000D01*
X26571181Y756920D01*
X26565847Y751586D01*
X26560767Y741171D01*
X26550353Y709929D01*
X26545273Y699770D01*
X26539939Y694436D01*
X26529525Y689355D01*
X26514031Y689355D01*
X26503617Y699770D01*
X26498537Y715263D01*
X26498537Y736092D01*
X26503617Y751586D01*
X26514031Y762000D01*
X26607503Y655065D02*
G01*
X26498537Y628904D01*
X26607503Y602995D02*
G01*
X26498537Y628904D01*
X26607503Y602995D02*
G01*
X26498537Y577087D01*
X26607503Y551179D02*
G01*
X26498537Y577087D01*
X26581595Y511555D02*
G01*
X26586675Y511555D01*
X26597089Y506476D01*
X26602423Y501142D01*
X26607503Y490728D01*
X26607503Y469900D01*
X26602423Y459739D01*
X26597089Y454405D01*
X26586675Y449326D01*
X26576261Y449326D01*
X26565847Y454405D01*
X26550353Y464820D01*
X26498537Y516889D01*
X26498537Y443992D01*
X26586675Y409702D02*
G01*
X26592009Y399287D01*
X26607503Y383794D01*
X26498537Y383794D01*
X27862009Y-1596644D02*
G01*
X27872423Y-1586229D01*
X27877503Y-1570736D01*
X27877503Y-1549907D01*
X27872423Y-1534413D01*
X27862009Y-1524000D01*
X27851595Y-1524000D01*
X27841181Y-1529079D01*
X27835847Y-1534413D01*
X27830767Y-1544828D01*
X27820353Y-1576070D01*
X27815273Y-1586229D01*
X27809939Y-1591563D01*
X27799525Y-1596644D01*
X27784031Y-1596644D01*
X27773617Y-1586229D01*
X27768537Y-1570736D01*
X27768537Y-1549907D01*
X27773617Y-1534413D01*
X27784031Y-1524000D01*
X27877503Y-1630934D02*
G01*
X27768537Y-1657095D01*
X27877503Y-1683004D02*
G01*
X27768537Y-1657095D01*
X27877503Y-1683004D02*
G01*
X27768537Y-1708912D01*
X27877503Y-1734820D02*
G01*
X27768537Y-1708912D01*
X27851595Y-1774444D02*
G01*
X27856675Y-1774444D01*
X27867089Y-1779523D01*
X27872423Y-1784857D01*
X27877503Y-1795271D01*
X27877503Y-1816100D01*
X27872423Y-1826260D01*
X27867089Y-1831594D01*
X27856675Y-1836673D01*
X27846261Y-1836673D01*
X27835847Y-1831594D01*
X27820353Y-1821179D01*
X27768537Y-1769110D01*
X27768537Y-1842007D01*
X27851595Y-1881378D02*
G01*
X27856675Y-1881378D01*
X27867089Y-1886712D01*
X27872423Y-1891792D01*
X27877503Y-1902205D01*
X27877503Y-1923034D01*
X27872423Y-1933447D01*
X27867089Y-1938528D01*
X27856675Y-1943862D01*
X27846261Y-1943862D01*
X27835847Y-1938528D01*
X27820353Y-1928113D01*
X27768537Y-1876297D01*
X27768537Y-1948942D01*
X29132009Y689355D02*
G01*
X29142423Y699770D01*
X29147503Y715263D01*
X29147503Y736092D01*
X29142423Y751586D01*
X29132009Y762000D01*
X29121595Y762000D01*
X29111181Y756920D01*
X29105847Y751586D01*
X29100767Y741171D01*
X29090353Y709929D01*
X29085273Y699770D01*
X29079939Y694436D01*
X29069525Y689355D01*
X29054031Y689355D01*
X29043617Y699770D01*
X29038537Y715263D01*
X29038537Y736092D01*
X29043617Y751586D01*
X29054031Y762000D01*
X29147503Y655065D02*
G01*
X29038537Y628904D01*
X29147503Y602995D02*
G01*
X29038537Y628904D01*
X29147503Y602995D02*
G01*
X29038537Y577087D01*
X29147503Y551179D02*
G01*
X29038537Y577087D01*
X29121595Y511555D02*
G01*
X29126675Y511555D01*
X29137089Y506476D01*
X29142423Y501142D01*
X29147503Y490728D01*
X29147503Y469900D01*
X29142423Y459739D01*
X29137089Y454405D01*
X29126675Y449326D01*
X29116261Y449326D01*
X29105847Y454405D01*
X29090353Y464820D01*
X29038537Y516889D01*
X29038537Y443992D01*
X29147503Y399287D02*
G01*
X29147503Y342137D01*
X29105847Y373379D01*
X29105847Y357886D01*
X29100767Y347471D01*
X29095687Y342137D01*
X29079939Y337057D01*
X29069525Y337057D01*
X29054031Y342137D01*
X29043617Y352552D01*
X29038537Y368300D01*
X29038537Y383794D01*
X29043617Y399287D01*
X29048697Y404621D01*
X29059111Y409702D01*
X30402009Y-1596644D02*
G01*
X30412423Y-1586229D01*
X30417503Y-1570736D01*
X30417503Y-1549907D01*
X30412423Y-1534413D01*
X30402009Y-1524000D01*
X30391595Y-1524000D01*
X30381181Y-1529079D01*
X30375847Y-1534413D01*
X30370767Y-1544828D01*
X30360353Y-1576070D01*
X30355273Y-1586229D01*
X30349939Y-1591563D01*
X30339525Y-1596644D01*
X30324031Y-1596644D01*
X30313617Y-1586229D01*
X30308537Y-1570736D01*
X30308537Y-1549907D01*
X30313617Y-1534413D01*
X30324031Y-1524000D01*
X30417503Y-1630934D02*
G01*
X30308537Y-1657095D01*
X30417503Y-1683004D02*
G01*
X30308537Y-1657095D01*
X30417503Y-1683004D02*
G01*
X30308537Y-1708912D01*
X30417503Y-1734820D02*
G01*
X30308537Y-1708912D01*
X30391595Y-1774444D02*
G01*
X30396675Y-1774444D01*
X30407089Y-1779523D01*
X30412423Y-1784857D01*
X30417503Y-1795271D01*
X30417503Y-1816100D01*
X30412423Y-1826260D01*
X30407089Y-1831594D01*
X30396675Y-1836673D01*
X30386261Y-1836673D01*
X30375847Y-1831594D01*
X30360353Y-1821179D01*
X30308537Y-1769110D01*
X30308537Y-1842007D01*
X30417503Y-1928113D02*
G01*
X30344859Y-1876297D01*
X30344859Y-1954276D01*
X30417503Y-1928113D02*
G01*
X30308537Y-1928113D01*
X1192009Y-1596669D02*
G01*
X1202423Y-1586255D01*
X1207503Y-1570761D01*
X1207503Y-1549933D01*
X1202423Y-1534439D01*
X1192009Y-1524025D01*
X1181595Y-1524025D01*
X1171181Y-1529105D01*
X1165847Y-1534439D01*
X1160767Y-1544853D01*
X1150353Y-1575841D01*
X1145273Y-1586255D01*
X1139939Y-1591589D01*
X1129525Y-1596669D01*
X1114031Y-1596669D01*
X1103617Y-1586255D01*
X1098537Y-1570761D01*
X1098537Y-1549933D01*
X1103617Y-1534439D01*
X1114031Y-1524025D01*
X1207503Y-1630959D02*
G01*
X1098537Y-1657121D01*
X1207503Y-1683029D02*
G01*
X1098537Y-1657121D01*
X1207503Y-1683029D02*
G01*
X1098537Y-1708937D01*
X1207503Y-1734845D02*
G01*
X1098537Y-1708937D01*
X1186675Y-1769135D02*
G01*
X1192009Y-1779549D01*
X1207503Y-1795297D01*
X1098537Y-1795297D01*
X2462009Y689355D02*
G01*
X2472423Y699770D01*
X2477503Y715263D01*
X2477503Y736092D01*
X2472423Y751586D01*
X2462009Y762000D01*
X2451595Y762000D01*
X2441181Y756920D01*
X2435847Y751586D01*
X2430767Y741171D01*
X2420353Y709929D01*
X2415273Y699770D01*
X2409939Y694436D01*
X2399525Y689355D01*
X2384031Y689355D01*
X2373617Y699770D01*
X2368283Y715263D01*
X2368283Y736092D01*
X2373617Y751586D01*
X2384031Y762000D01*
X2477503Y655065D02*
G01*
X2368283Y628904D01*
X2477503Y602995D02*
G01*
X2368283Y628904D01*
X2477503Y602995D02*
G01*
X2368283Y577087D01*
X2477503Y551179D02*
G01*
X2368283Y577087D01*
X2451595Y511555D02*
G01*
X2456675Y511555D01*
X2467089Y506476D01*
X2472423Y501142D01*
X2477503Y490728D01*
X2477503Y469900D01*
X2472423Y459739D01*
X2467089Y454405D01*
X2456675Y449326D01*
X2446261Y449326D01*
X2435847Y454405D01*
X2420353Y464820D01*
X2368283Y516889D01*
X2368283Y443992D01*
X3732009Y-1596644D02*
G01*
X3742423Y-1586229D01*
X3747503Y-1570736D01*
X3747503Y-1549907D01*
X3742423Y-1534413D01*
X3732009Y-1524000D01*
X3721595Y-1524000D01*
X3711181Y-1529079D01*
X3705847Y-1534413D01*
X3700767Y-1544828D01*
X3690353Y-1576070D01*
X3685273Y-1586229D01*
X3679939Y-1591563D01*
X3669525Y-1596644D01*
X3654031Y-1596644D01*
X3643617Y-1586229D01*
X3638283Y-1570736D01*
X3638283Y-1549907D01*
X3643617Y-1534413D01*
X3654031Y-1524000D01*
X3747503Y-1630934D02*
G01*
X3638283Y-1657095D01*
X3747503Y-1683004D02*
G01*
X3638283Y-1657095D01*
X3747503Y-1683004D02*
G01*
X3638283Y-1708912D01*
X3747503Y-1734820D02*
G01*
X3638283Y-1708912D01*
X3747503Y-1779523D02*
G01*
X3747503Y-1836673D01*
X3705847Y-1805686D01*
X3705847Y-1821179D01*
X3700767Y-1831594D01*
X3695433Y-1836673D01*
X3679939Y-1842007D01*
X3669525Y-1842007D01*
X3654031Y-1836673D01*
X3643617Y-1826260D01*
X3638283Y-1810765D01*
X3638283Y-1795271D01*
X3643617Y-1779523D01*
X3648697Y-1774444D01*
X3659111Y-1769110D01*
X5002009Y689355D02*
G01*
X5012423Y699770D01*
X5017503Y715263D01*
X5017503Y736092D01*
X5012423Y751586D01*
X5002009Y762000D01*
X4991595Y762000D01*
X4981181Y756920D01*
X4975847Y751586D01*
X4970767Y741171D01*
X4960353Y709929D01*
X4955273Y699770D01*
X4949939Y694436D01*
X4939525Y689355D01*
X4924031Y689355D01*
X4913617Y699770D01*
X4908283Y715263D01*
X4908283Y736092D01*
X4913617Y751586D01*
X4924031Y762000D01*
X5017503Y655065D02*
G01*
X4908283Y628904D01*
X5017503Y602995D02*
G01*
X4908283Y628904D01*
X5017503Y602995D02*
G01*
X4908283Y577087D01*
X5017503Y551179D02*
G01*
X4908283Y577087D01*
X5017503Y464820D02*
G01*
X4944859Y516889D01*
X4944859Y438912D01*
X5017503Y464820D02*
G01*
X4908283Y464820D01*
X6272009Y-1596644D02*
G01*
X6282423Y-1586229D01*
X6287503Y-1570736D01*
X6287503Y-1549907D01*
X6282423Y-1534413D01*
X6272009Y-1524000D01*
X6261595Y-1524000D01*
X6251181Y-1529079D01*
X6245847Y-1534413D01*
X6240767Y-1544828D01*
X6230353Y-1576070D01*
X6225273Y-1586229D01*
X6219939Y-1591563D01*
X6209525Y-1596644D01*
X6194031Y-1596644D01*
X6183617Y-1586229D01*
X6178283Y-1570736D01*
X6178283Y-1549907D01*
X6183617Y-1534413D01*
X6194031Y-1524000D01*
X6287503Y-1630934D02*
G01*
X6178283Y-1657095D01*
X6287503Y-1683004D02*
G01*
X6178283Y-1657095D01*
X6287503Y-1683004D02*
G01*
X6178283Y-1708912D01*
X6287503Y-1734820D02*
G01*
X6178283Y-1708912D01*
X6287503Y-1831594D02*
G01*
X6287503Y-1779523D01*
X6240767Y-1774444D01*
X6245847Y-1779523D01*
X6251181Y-1795271D01*
X6251181Y-1810765D01*
X6245847Y-1826260D01*
X6235433Y-1836673D01*
X6219939Y-1842007D01*
X6209525Y-1842007D01*
X6194031Y-1836673D01*
X6183617Y-1826260D01*
X6178283Y-1810765D01*
X6178283Y-1795271D01*
X6183617Y-1779523D01*
X6188697Y-1774444D01*
X6199111Y-1769110D01*
X7542009Y-1596644D02*
G01*
X7552423Y-1586229D01*
X7557503Y-1570736D01*
X7557503Y-1549907D01*
X7552423Y-1534413D01*
X7542009Y-1524000D01*
X7531595Y-1524000D01*
X7521181Y-1529079D01*
X7515847Y-1534413D01*
X7510767Y-1544828D01*
X7500353Y-1576070D01*
X7495273Y-1586229D01*
X7489939Y-1591563D01*
X7479525Y-1596644D01*
X7464031Y-1596644D01*
X7453617Y-1586229D01*
X7448283Y-1570736D01*
X7448283Y-1549907D01*
X7453617Y-1534413D01*
X7464031Y-1524000D01*
X7557503Y-1630934D02*
G01*
X7448283Y-1657095D01*
X7557503Y-1683004D02*
G01*
X7448283Y-1657095D01*
X7557503Y-1683004D02*
G01*
X7448283Y-1708912D01*
X7557503Y-1734820D02*
G01*
X7448283Y-1708912D01*
X7542009Y-1831594D02*
G01*
X7552423Y-1826260D01*
X7557503Y-1810765D01*
X7557503Y-1800352D01*
X7552423Y-1784857D01*
X7536675Y-1774444D01*
X7510767Y-1769110D01*
X7484859Y-1769110D01*
X7464031Y-1774444D01*
X7453617Y-1784857D01*
X7448283Y-1800352D01*
X7448283Y-1805686D01*
X7453617Y-1821179D01*
X7464031Y-1831594D01*
X7479525Y-1836673D01*
X7484859Y-1836673D01*
X7500353Y-1831594D01*
X7510767Y-1821179D01*
X7515847Y-1805686D01*
X7515847Y-1800352D01*
X7510767Y-1784857D01*
X7500353Y-1774444D01*
X7484859Y-1769110D01*
X8812009Y689355D02*
G01*
X8822423Y699770D01*
X8827503Y715263D01*
X8827503Y736092D01*
X8822423Y751586D01*
X8812009Y762000D01*
X8801595Y762000D01*
X8791181Y756920D01*
X8785847Y751586D01*
X8780767Y741171D01*
X8770353Y709929D01*
X8765273Y699770D01*
X8759939Y694436D01*
X8749525Y689355D01*
X8734031Y689355D01*
X8723617Y699770D01*
X8718283Y715263D01*
X8718283Y736092D01*
X8723617Y751586D01*
X8734031Y762000D01*
X8827503Y655065D02*
G01*
X8718283Y628904D01*
X8827503Y602995D02*
G01*
X8718283Y628904D01*
X8827503Y602995D02*
G01*
X8718283Y577087D01*
X8827503Y551179D02*
G01*
X8718283Y577087D01*
X8827503Y443992D02*
G01*
X8718283Y496062D01*
X8827503Y516889D02*
G01*
X8827503Y443992D01*
X23240491Y4535678D02*
G01*
X23230077Y4530344D01*
X23219663Y4519929D01*
X23214584Y4509770D01*
X23214584Y4488942D01*
X23219663Y4478528D01*
X23230077Y4468113D01*
X23240491Y4462779D01*
X23256240Y4457700D01*
X23282148Y4457700D01*
X23297641Y4462779D01*
X23308056Y4468113D01*
X23318470Y4478528D01*
X23323550Y4488942D01*
X23323550Y4509770D01*
X23318470Y4519929D01*
X23308056Y4530344D01*
X23297641Y4535678D01*
X23230077Y4632197D02*
G01*
X23219663Y4627118D01*
X23214584Y4611370D01*
X23214584Y4601210D01*
X23219663Y4585462D01*
X23235411Y4575047D01*
X23261320Y4569968D01*
X23287227Y4569968D01*
X23308056Y4575047D01*
X23318470Y4585462D01*
X23323550Y4601210D01*
X23323550Y4606289D01*
X23318470Y4621784D01*
X23308056Y4632197D01*
X23292561Y4637531D01*
X23287227Y4637531D01*
X23271734Y4632197D01*
X23261320Y4621784D01*
X23256240Y4606289D01*
X23256240Y4601210D01*
X23261320Y4585462D01*
X23271734Y4575047D01*
X23287227Y4569968D01*
X7862163Y5191937D02*
G01*
X7862163Y5113959D01*
X7867243Y5098465D01*
X7877657Y5088051D01*
X7893405Y5082971D01*
X7903819Y5082971D01*
X7919313Y5088051D01*
X7929727Y5098465D01*
X7934807Y5113959D01*
X7934807Y5191937D01*
X7969097Y5171109D02*
G01*
X7979511Y5176443D01*
X7995259Y5191937D01*
X7995259Y5082971D01*
X16091763Y5204637D02*
G01*
X16091763Y5126659D01*
X16096843Y5111165D01*
X16107257Y5100751D01*
X16123005Y5095671D01*
X16133419Y5095671D01*
X16148913Y5100751D01*
X16159327Y5111165D01*
X16164407Y5126659D01*
X16164407Y5204637D01*
X16204031Y5178729D02*
G01*
X16204031Y5183809D01*
X16209111Y5194223D01*
X16214445Y5199557D01*
X16224859Y5204637D01*
X16245433Y5204637D01*
X16255847Y5199557D01*
X16261181Y5194223D01*
X16266261Y5183809D01*
X16266261Y5173395D01*
X16261181Y5162981D01*
X16250767Y5147487D01*
X16198697Y5095671D01*
X16271595Y5095671D01*
X25172263Y5064937D02*
G01*
X25172263Y4986959D01*
X25177343Y4971465D01*
X25187757Y4961051D01*
X25203505Y4955971D01*
X25213919Y4955971D01*
X25229413Y4961051D01*
X25239827Y4971465D01*
X25244907Y4986959D01*
X25244907Y5064937D01*
X25289611Y5064937D02*
G01*
X25346761Y5064937D01*
X25315773Y5023281D01*
X25331267Y5023281D01*
X25341681Y5018201D01*
X25346761Y5013121D01*
X25352095Y4997373D01*
X25352095Y4986959D01*
X25346761Y4971465D01*
X25336347Y4961051D01*
X25320853Y4955971D01*
X25305359Y4955971D01*
X25289611Y4961051D01*
X25284531Y4966131D01*
X25279197Y4976545D01*
D11*
X5856706Y4212005D02*
G01*
X6106693Y4212005D01*
X5856706Y4212005D02*
G01*
X5856706Y4931994D01*
X6106693Y4931994D02*
G01*
X5856706Y4931994D01*
X6106693Y4931994D02*
G01*
X6106693Y4212005D01*
X13789974Y4199305D02*
G01*
X14039961Y4199305D01*
X13789974Y4199305D02*
G01*
X13789974Y4919294D01*
X14039961Y4919294D02*
G01*
X13789974Y4919294D01*
X14039961Y4919294D02*
G01*
X14039961Y4199305D01*
D10*
X16700279Y5947379D02*
G01*
X16700279Y6117620D01*
X17005520Y5947379D02*
G01*
X17005520Y6117620D01*
X16900540Y6117620D02*
G01*
X16805259Y6117620D01*
X11696479Y5896579D02*
G01*
X11696479Y6066820D01*
X12001720Y5896579D02*
G01*
X12001720Y6066820D01*
X11896740Y6066820D02*
G01*
X11801459Y6066820D01*
D12*
X13944600Y6756400D02*
G01*
X13754100Y6756400D01*
X13754100Y6502400D01*
X15278100Y6502400D01*
X15278100Y6756400D01*
D13*
X15278100Y6756400D02*
G01*
X13944600Y6756400D01*
D11*
X9951986Y-1224000D02*
G01*
X9951986Y-1823999D01*
X9351987Y-1823999D01*
X9351987Y-1224000D01*
X9951986Y-1224000D01*
X11221986Y1061999D02*
G01*
X11221986Y462000D01*
X10621987Y462000D01*
X10621987Y1061999D01*
X11221986Y1061999D01*
X12491986Y-1224000D02*
G01*
X12491986Y-1823999D01*
X11891987Y-1823999D01*
X11891987Y-1224000D01*
X12491986Y-1224000D01*
X13761986Y1061999D02*
G01*
X13761986Y462000D01*
X13161987Y462000D01*
X13161987Y1061999D01*
X13761986Y1061999D01*
X15031986Y-1224000D02*
G01*
X15031986Y-1823999D01*
X14431987Y-1823999D01*
X14431987Y-1224000D01*
X15031986Y-1224000D01*
X16301986Y-1224000D02*
G01*
X16301986Y-1823999D01*
X15701987Y-1823999D01*
X15701987Y-1224000D01*
X16301986Y-1224000D01*
X17571986Y1061999D02*
G01*
X17571986Y462000D01*
X16971987Y462000D01*
X16971987Y1061999D01*
X17571986Y1061999D01*
X18841986Y-1224000D02*
G01*
X18841986Y-1823999D01*
X18241987Y-1823999D01*
X18241987Y-1224000D01*
X18841986Y-1224000D01*
X20111986Y1061999D02*
G01*
X20111986Y462000D01*
X19511987Y462000D01*
X19511987Y1061999D01*
X20111986Y1061999D01*
X21381986Y-1224000D02*
G01*
X21381986Y-1823999D01*
X20781987Y-1823999D01*
X20781987Y-1224000D01*
X21381986Y-1224000D01*
X22651986Y-1224000D02*
G01*
X22651986Y-1823999D01*
X22051987Y-1823999D01*
X22051987Y-1224000D01*
X22651986Y-1224000D01*
X23921986Y1061999D02*
G01*
X23921986Y462000D01*
X23321987Y462000D01*
X23321987Y1061999D01*
X23921986Y1061999D01*
X25191986Y-1224000D02*
G01*
X25191986Y-1823999D01*
X24591987Y-1823999D01*
X24591987Y-1224000D01*
X25191986Y-1224000D01*
X26461986Y1061999D02*
G01*
X26461986Y462000D01*
X25861987Y462000D01*
X25861987Y1061999D01*
X26461986Y1061999D01*
X27731986Y-1224000D02*
G01*
X27731986Y-1823999D01*
X27131987Y-1823999D01*
X27131987Y-1224000D01*
X27731986Y-1224000D01*
X29001986Y1061999D02*
G01*
X29001986Y462000D01*
X28401987Y462000D01*
X28401987Y1061999D01*
X29001986Y1061999D01*
X30271986Y-1224000D02*
G01*
X30271986Y-1823999D01*
X29671987Y-1823999D01*
X29671987Y-1224000D01*
X30271986Y-1224000D01*
X1061986Y-1224000D02*
G01*
X1061986Y-1823999D01*
X461987Y-1823999D01*
X461987Y-1224000D01*
X1061986Y-1224000D01*
X2331986Y1061999D02*
G01*
X2331986Y462000D01*
X1731987Y462000D01*
X1731987Y1061999D01*
X2331986Y1061999D01*
X3601986Y-1224000D02*
G01*
X3601986Y-1823999D01*
X3001987Y-1823999D01*
X3001987Y-1224000D01*
X3601986Y-1224000D01*
X4871986Y1061999D02*
G01*
X4871986Y462000D01*
X4271987Y462000D01*
X4271987Y1061999D01*
X4871986Y1061999D01*
X6141986Y-1224000D02*
G01*
X6141986Y-1823999D01*
X5541987Y-1823999D01*
X5541987Y-1224000D01*
X6141986Y-1224000D01*
X7411986Y-1224000D02*
G01*
X7411986Y-1823999D01*
X6811987Y-1823999D01*
X6811987Y-1224000D01*
X7411986Y-1224000D01*
X8681986Y1061999D02*
G01*
X8681986Y462000D01*
X8081987Y462000D01*
X8081987Y1061999D01*
X8681986Y1061999D01*
X23357306Y4123105D02*
G01*
X23607293Y4123105D01*
X23357306Y4123105D02*
G01*
X23357306Y4843094D01*
X23607293Y4843094D02*
G01*
X23357306Y4843094D01*
X23607293Y4843094D02*
G01*
X23607293Y4123105D01*
X6873994Y4671821D02*
G01*
X6873994Y4891811D01*
X6873994Y4252013D02*
G01*
X6873994Y4472002D01*
X8873987Y4891989D02*
G01*
X6873994Y4891989D01*
X8873987Y4252013D02*
G01*
X6873994Y4252013D01*
X8873987Y4252013D02*
G01*
X8873987Y4891989D01*
X15103594Y4684521D02*
G01*
X15103594Y4904511D01*
X15103594Y4264713D02*
G01*
X15103594Y4484702D01*
X17103587Y4904689D02*
G01*
X15103594Y4904689D01*
X17103587Y4264713D02*
G01*
X15103594Y4264713D01*
X17103587Y4264713D02*
G01*
X17103587Y4904689D01*
X24184094Y4544821D02*
G01*
X24184094Y4764811D01*
X24184094Y4125013D02*
G01*
X24184094Y4345002D01*
X26184087Y4764989D02*
G01*
X24184094Y4764989D01*
X26184087Y4125013D02*
G01*
X24184094Y4125013D01*
X26184087Y4125013D02*
G01*
X26184087Y4764989D01*
G75*
G01*
X6873994Y4672000D02*
G02*
X6878996Y4472003I2501J-99999D01*
G75*
G01*
X15103594Y4684700D02*
G02*
X15108596Y4484703I2501J-99999D01*
G75*
G01*
X24184094Y4545000D02*
G02*
X24189096Y4345003I2501J-99999D01*
D14*
G75*
G01
X16702811Y5918200D02*
G03X16702811Y5918200I-15011J0D01*
G75*
G01
X11699011Y5867400D02*
G03X11699011Y5867400I-15011J0D01*
D11*
G75*
G01
X9804933Y-1524000D02*
G03X9804933Y-1524000I-152933J0D01*
G75*
G01
X9499600Y-1727200D02*
G03X9499600Y-1727200I-50800J0D01*
G75*
G01
X9499600Y-1320800D02*
G03X9499600Y-1320800I-50800J0D01*
G75*
G01
X9906000Y-1727200D02*
G03X9906000Y-1727200I-50800J0D01*
G75*
G01
X9905848Y-1321003D02*
G03X9905848Y-1321003I-50800J0D01*
G75*
G01
X11074933Y762000D02*
G03X11074933Y762000I-152933J0D01*
G75*
G01
X10769600Y558800D02*
G03X10769600Y558800I-50800J0D01*
G75*
G01
X10769600Y965200D02*
G03X10769600Y965200I-50800J0D01*
G75*
G01
X11176000Y558800D02*
G03X11176000Y558800I-50800J0D01*
G75*
G01
X11175848Y964997D02*
G03X11175848Y964997I-50800J0D01*
G75*
G01
X12344933Y-1524000D02*
G03X12344933Y-1524000I-152933J0D01*
G75*
G01
X12039600Y-1727200D02*
G03X12039600Y-1727200I-50800J0D01*
G75*
G01
X12039600Y-1320800D02*
G03X12039600Y-1320800I-50800J0D01*
G75*
G01
X12446000Y-1727200D02*
G03X12446000Y-1727200I-50800J0D01*
G75*
G01
X12445848Y-1321003D02*
G03X12445848Y-1321003I-50800J0D01*
G75*
G01
X13614933Y762000D02*
G03X13614933Y762000I-152933J0D01*
G75*
G01
X13309600Y558800D02*
G03X13309600Y558800I-50800J0D01*
G75*
G01
X13309600Y965200D02*
G03X13309600Y965200I-50800J0D01*
G75*
G01
X13716000Y558800D02*
G03X13716000Y558800I-50800J0D01*
G75*
G01
X13715848Y964997D02*
G03X13715848Y964997I-50800J0D01*
G75*
G01
X14884933Y-1524000D02*
G03X14884933Y-1524000I-152933J0D01*
G75*
G01
X14579600Y-1727200D02*
G03X14579600Y-1727200I-50800J0D01*
G75*
G01
X14579600Y-1320800D02*
G03X14579600Y-1320800I-50800J0D01*
G75*
G01
X14986000Y-1727200D02*
G03X14986000Y-1727200I-50800J0D01*
G75*
G01
X14985848Y-1321003D02*
G03X14985848Y-1321003I-50800J0D01*
G75*
G01
X16154933Y-1524000D02*
G03X16154933Y-1524000I-152933J0D01*
G75*
G01
X15849600Y-1727200D02*
G03X15849600Y-1727200I-50800J0D01*
G75*
G01
X15849600Y-1320800D02*
G03X15849600Y-1320800I-50800J0D01*
G75*
G01
X16256000Y-1727200D02*
G03X16256000Y-1727200I-50800J0D01*
G75*
G01
X16255848Y-1321003D02*
G03X16255848Y-1321003I-50800J0D01*
G75*
G01
X17424933Y762000D02*
G03X17424933Y762000I-152933J0D01*
G75*
G01
X17119600Y558800D02*
G03X17119600Y558800I-50800J0D01*
G75*
G01
X17119600Y965200D02*
G03X17119600Y965200I-50800J0D01*
G75*
G01
X17526000Y558800D02*
G03X17526000Y558800I-50800J0D01*
G75*
G01
X17525848Y964997D02*
G03X17525848Y964997I-50800J0D01*
G75*
G01
X18694933Y-1524000D02*
G03X18694933Y-1524000I-152933J0D01*
G75*
G01
X18389600Y-1727200D02*
G03X18389600Y-1727200I-50800J0D01*
G75*
G01
X18389600Y-1320800D02*
G03X18389600Y-1320800I-50800J0D01*
G75*
G01
X18796000Y-1727200D02*
G03X18796000Y-1727200I-50800J0D01*
G75*
G01
X18795848Y-1321003D02*
G03X18795848Y-1321003I-50800J0D01*
G75*
G01
X19964933Y762000D02*
G03X19964933Y762000I-152933J0D01*
G75*
G01
X19659600Y558800D02*
G03X19659600Y558800I-50800J0D01*
G75*
G01
X19659600Y965200D02*
G03X19659600Y965200I-50800J0D01*
G75*
G01
X20066000Y558800D02*
G03X20066000Y558800I-50800J0D01*
G75*
G01
X20065848Y964997D02*
G03X20065848Y964997I-50800J0D01*
G75*
G01
X21234933Y-1524000D02*
G03X21234933Y-1524000I-152933J0D01*
G75*
G01
X20929600Y-1727200D02*
G03X20929600Y-1727200I-50800J0D01*
G75*
G01
X20929600Y-1320800D02*
G03X20929600Y-1320800I-50800J0D01*
G75*
G01
X21336000Y-1727200D02*
G03X21336000Y-1727200I-50800J0D01*
G75*
G01
X21335848Y-1321003D02*
G03X21335848Y-1321003I-50800J0D01*
G75*
G01
X22504933Y-1524000D02*
G03X22504933Y-1524000I-152933J0D01*
G75*
G01
X22199600Y-1727200D02*
G03X22199600Y-1727200I-50800J0D01*
G75*
G01
X22199600Y-1320800D02*
G03X22199600Y-1320800I-50800J0D01*
G75*
G01
X22606000Y-1727200D02*
G03X22606000Y-1727200I-50800J0D01*
G75*
G01
X22605848Y-1321003D02*
G03X22605848Y-1321003I-50800J0D01*
G75*
G01
X23774933Y762000D02*
G03X23774933Y762000I-152933J0D01*
G75*
G01
X23469600Y558800D02*
G03X23469600Y558800I-50800J0D01*
G75*
G01
X23469600Y965200D02*
G03X23469600Y965200I-50800J0D01*
G75*
G01
X23876000Y558800D02*
G03X23876000Y558800I-50800J0D01*
G75*
G01
X23875848Y964997D02*
G03X23875848Y964997I-50800J0D01*
G75*
G01
X25044933Y-1524000D02*
G03X25044933Y-1524000I-152933J0D01*
G75*
G01
X24739600Y-1727200D02*
G03X24739600Y-1727200I-50800J0D01*
G75*
G01
X24739600Y-1320800D02*
G03X24739600Y-1320800I-50800J0D01*
G75*
G01
X25146000Y-1727200D02*
G03X25146000Y-1727200I-50800J0D01*
G75*
G01
X25145848Y-1321003D02*
G03X25145848Y-1321003I-50800J0D01*
G75*
G01
X26314933Y762000D02*
G03X26314933Y762000I-152933J0D01*
G75*
G01
X26009600Y558800D02*
G03X26009600Y558800I-50800J0D01*
G75*
G01
X26009600Y965200D02*
G03X26009600Y965200I-50800J0D01*
G75*
G01
X26416000Y558800D02*
G03X26416000Y558800I-50800J0D01*
G75*
G01
X26415848Y964997D02*
G03X26415848Y964997I-50800J0D01*
G75*
G01
X27584933Y-1524000D02*
G03X27584933Y-1524000I-152933J0D01*
G75*
G01
X27279600Y-1727200D02*
G03X27279600Y-1727200I-50800J0D01*
G75*
G01
X27279600Y-1320800D02*
G03X27279600Y-1320800I-50800J0D01*
G75*
G01
X27686000Y-1727200D02*
G03X27686000Y-1727200I-50800J0D01*
G75*
G01
X27685848Y-1321003D02*
G03X27685848Y-1321003I-50800J0D01*
G75*
G01
X28854933Y762000D02*
G03X28854933Y762000I-152933J0D01*
G75*
G01
X28549600Y558800D02*
G03X28549600Y558800I-50800J0D01*
G75*
G01
X28549600Y965200D02*
G03X28549600Y965200I-50800J0D01*
G75*
G01
X28956000Y558800D02*
G03X28956000Y558800I-50800J0D01*
G75*
G01
X28955848Y964997D02*
G03X28955848Y964997I-50800J0D01*
G75*
G01
X30124933Y-1524000D02*
G03X30124933Y-1524000I-152933J0D01*
G75*
G01
X29819600Y-1727200D02*
G03X29819600Y-1727200I-50800J0D01*
G75*
G01
X29819600Y-1320800D02*
G03X29819600Y-1320800I-50800J0D01*
G75*
G01
X30226000Y-1727200D02*
G03X30226000Y-1727200I-50800J0D01*
G75*
G01
X30225848Y-1321003D02*
G03X30225848Y-1321003I-50800J0D01*
G75*
G01
X914933Y-1524000D02*
G03X914933Y-1524000I-152933J0D01*
G75*
G01
X609600Y-1727200D02*
G03X609600Y-1727200I-50800J0D01*
G75*
G01
X609600Y-1320800D02*
G03X609600Y-1320800I-50800J0D01*
G75*
G01
X1016000Y-1727200D02*
G03X1016000Y-1727200I-50800J0D01*
G75*
G01
X1015848Y-1321003D02*
G03X1015848Y-1321003I-50800J0D01*
G75*
G01
X2184933Y762000D02*
G03X2184933Y762000I-152933J0D01*
G75*
G01
X1879600Y558800D02*
G03X1879600Y558800I-50800J0D01*
G75*
G01
X1879600Y965200D02*
G03X1879600Y965200I-50800J0D01*
G75*
G01
X2286000Y558800D02*
G03X2286000Y558800I-50800J0D01*
G75*
G01
X2285822Y964997D02*
G03X2285822Y964997I-50800J0D01*
G75*
G01
X3454933Y-1524000D02*
G03X3454933Y-1524000I-152933J0D01*
G75*
G01
X3149600Y-1727200D02*
G03X3149600Y-1727200I-50800J0D01*
G75*
G01
X3149600Y-1320800D02*
G03X3149600Y-1320800I-50800J0D01*
G75*
G01
X3556000Y-1727200D02*
G03X3556000Y-1727200I-50800J0D01*
G75*
G01
X3555822Y-1321003D02*
G03X3555822Y-1321003I-50800J0D01*
G75*
G01
X4724933Y762000D02*
G03X4724933Y762000I-152933J0D01*
G75*
G01
X4419600Y558800D02*
G03X4419600Y558800I-50800J0D01*
G75*
G01
X4419600Y965200D02*
G03X4419600Y965200I-50800J0D01*
G75*
G01
X4826000Y558800D02*
G03X4826000Y558800I-50800J0D01*
G75*
G01
X4825848Y964997D02*
G03X4825848Y964997I-50800J0D01*
G75*
G01
X5994933Y-1524000D02*
G03X5994933Y-1524000I-152933J0D01*
G75*
G01
X5689600Y-1727200D02*
G03X5689600Y-1727200I-50800J0D01*
G75*
G01
X5689600Y-1320800D02*
G03X5689600Y-1320800I-50800J0D01*
G75*
G01
X6096000Y-1727200D02*
G03X6096000Y-1727200I-50800J0D01*
G75*
G01
X6095848Y-1321003D02*
G03X6095848Y-1321003I-50800J0D01*
G75*
G01
X7264933Y-1524000D02*
G03X7264933Y-1524000I-152933J0D01*
G75*
G01
X6959600Y-1727200D02*
G03X6959600Y-1727200I-50800J0D01*
G75*
G01
X6959600Y-1320800D02*
G03X6959600Y-1320800I-50800J0D01*
G75*
G01
X7366000Y-1727200D02*
G03X7366000Y-1727200I-50800J0D01*
G75*
G01
X7365848Y-1321003D02*
G03X7365848Y-1321003I-50800J0D01*
G75*
G01
X8534933Y762000D02*
G03X8534933Y762000I-152933J0D01*
G75*
G01
X8229600Y558800D02*
G03X8229600Y558800I-50800J0D01*
G75*
G01
X8229600Y965200D02*
G03X8229600Y965200I-50800J0D01*
G75*
G01
X8636000Y558800D02*
G03X8636000Y558800I-50800J0D01*
G75*
G01
X8635848Y964997D02*
G03X8635848Y964997I-50800J0D01*
M02*
