G04 Layer: BottomSolderMaskLayer*
G04 EasyEDA v6.5.40, 2024-07-25 19:00:12*
G04 cb6e2e9fbd21486d88ae5690d2d3dc00,10*
G04 Gerber Generator version 0.2*
G04 Scale: 100 percent, Rotated: No, Reflected: No *
G04 Dimensions in millimeters *
G04 leading zeros omitted , absolute positions ,4 integer and 5 decimal *
%FSLAX45Y45*%
%MOMM*%

%AMMACRO1*1,1,$1,$2,$3*1,1,$1,$4,$5*1,1,$1,0-$2,0-$3*1,1,$1,0-$4,0-$5*20,1,$1,$2,$3,$4,$5,0*20,1,$1,$4,$5,0-$2,0-$3,0*20,1,$1,0-$2,0-$3,0-$4,0-$5,0*20,1,$1,0-$4,0-$5,$2,$3,0*4,1,4,$2,$3,$4,$5,0-$2,0-$3,0-$4,0-$5,$2,$3,0*%
%ADD10C,1.7000*%
%ADD11C,1.6764*%
%ADD12MACRO1,0.1016X-0.7874X0.7874X0.7874X0.7874*%
%ADD13C,1.7016*%
%ADD14R,1.7016X1.7016*%
%ADD15C,1.5016*%

%LPD*%
D10*
G01*
X5981700Y4322013D03*
G01*
X5981700Y4822012D03*
G01*
X13914958Y4309313D03*
G01*
X13914958Y4809312D03*
D11*
G01*
X15151100Y6629400D03*
G01*
X14897100Y6629400D03*
G01*
X14643100Y6629400D03*
G01*
X14389100Y6629400D03*
G01*
X14135100Y6629400D03*
D12*
G01*
X13881100Y6629400D03*
D10*
G01*
X23482300Y4233113D03*
G01*
X23482300Y4733112D03*
D13*
G01*
X6985000Y4953000D03*
G01*
X7239000Y4953000D03*
G01*
X7493000Y4953000D03*
G01*
X7747000Y4953000D03*
G01*
X8001000Y4953000D03*
G01*
X8255000Y4953000D03*
G01*
X8509000Y4953000D03*
G01*
X8763000Y4953000D03*
G01*
X8763000Y4191000D03*
G01*
X8509000Y4191000D03*
G01*
X8255000Y4191000D03*
G01*
X8001000Y4191000D03*
G01*
X7747000Y4191000D03*
G01*
X7493000Y4191000D03*
G01*
X7239000Y4191000D03*
D14*
G01*
X6985000Y4191000D03*
D13*
G01*
X15214600Y4965700D03*
G01*
X15468600Y4965700D03*
G01*
X15722600Y4965700D03*
G01*
X15976600Y4965700D03*
G01*
X16230600Y4965700D03*
G01*
X16484600Y4965700D03*
G01*
X16738600Y4965700D03*
G01*
X16992600Y4965700D03*
G01*
X16992600Y4203700D03*
G01*
X16738600Y4203700D03*
G01*
X16484600Y4203700D03*
G01*
X16230600Y4203700D03*
G01*
X15976600Y4203700D03*
G01*
X15722600Y4203700D03*
G01*
X15468600Y4203700D03*
D14*
G01*
X15214600Y4203700D03*
D13*
G01*
X24295100Y4826000D03*
G01*
X24549100Y4826000D03*
G01*
X24803100Y4826000D03*
G01*
X25057100Y4826000D03*
G01*
X25311100Y4826000D03*
G01*
X25565100Y4826000D03*
G01*
X25819100Y4826000D03*
G01*
X26073100Y4826000D03*
G01*
X26073100Y4064000D03*
G01*
X25819100Y4064000D03*
G01*
X25565100Y4064000D03*
G01*
X25311100Y4064000D03*
G01*
X25057100Y4064000D03*
G01*
X24803100Y4064000D03*
G01*
X24549100Y4064000D03*
D14*
G01*
X24295100Y4064000D03*
D15*
G01*
X10668000Y3191997D03*
G01*
X10668000Y2142012D03*
G01*
X11938000Y3191997D03*
G01*
X11938000Y2142012D03*
G01*
X13208000Y3191997D03*
G01*
X13208000Y2142012D03*
G01*
X14478000Y3191997D03*
G01*
X14478000Y2142012D03*
G01*
X15748000Y3191997D03*
G01*
X15748000Y2142012D03*
G01*
X17018000Y3191997D03*
G01*
X17018000Y2142012D03*
G01*
X18288000Y3191997D03*
G01*
X18288000Y2142012D03*
G01*
X19875500Y3179297D03*
G01*
X19875500Y2129312D03*
G01*
X20828000Y3191992D03*
G01*
X20828000Y2142007D03*
G01*
X22098000Y3191992D03*
G01*
X22098000Y2142007D03*
G01*
X23368000Y3191992D03*
G01*
X23368000Y2142007D03*
G01*
X24638000Y3191992D03*
G01*
X24638000Y2142007D03*
G01*
X25615900Y3153892D03*
G01*
X25615900Y2103907D03*
G01*
X29425900Y3153892D03*
G01*
X29425900Y2103907D03*
G01*
X28155900Y3153892D03*
G01*
X28155900Y2103907D03*
G01*
X26885900Y3153892D03*
G01*
X26885900Y2103907D03*
G01*
X8128000Y2142007D03*
G01*
X8128000Y3191992D03*
G01*
X6858000Y2142007D03*
G01*
X6858000Y3191992D03*
G01*
X5588000Y2142007D03*
G01*
X5588000Y3191992D03*
G01*
X4318000Y2142007D03*
G01*
X4318000Y3191992D03*
G01*
X3035300Y2142007D03*
G01*
X3035300Y3191992D03*
G01*
X1778000Y2142007D03*
G01*
X1778000Y3191992D03*
G01*
X508000Y2142007D03*
G01*
X508000Y3191992D03*
G01*
X9385300Y2142007D03*
G01*
X9385300Y3191992D03*
M02*
