M48
INCH,LZ
;FILE_FORMAT=2:4
;TYPE=NON_PLATED
;Layer: NPTH_Through
;EasyEDA v6.5.43, 2024-07-17 01:33:45
;cb6e2e9fbd21486d88ae5690d2d3dc00,10
;Gerber Generator version 0.2
;Holesize 1 = 0.0390 inch
T01C0.0390
%
G05
G90
T01
X002000Y002153
X002000Y003847
X005000Y002153
X005000Y003847
X008000Y002153
X008000Y003847
X011000Y002153
X011000Y003847
X014000Y002153
X014000Y003847
X017000Y002153
X017000Y003847
X020000Y002153
X020000Y003847
X023000Y002153
X023000Y003847
X026000Y002153
X026000Y003847
X029000Y002153
X029000Y003847
X032000Y002153
X032000Y003847
X035000Y002153
X035000Y003847
X038000Y002153
X038000Y003847
X041000Y002153
X041000Y003847
X044000Y002153
X044000Y003847
X047000Y002153
X047000Y003847
X050000Y002153
X050000Y003847
X053000Y002153
X053000Y003847
X056000Y002153
X056000Y003847
X059000Y002153
X059000Y003847
X062000Y002153
X062000Y003847
X065000Y002153
X065000Y003847
X068000Y002153
X068000Y003847
X071000Y002153
X071000Y003847
X074000Y002153
X074000Y003847
X077000Y002153
X077000Y003847
X080000Y002153
X080000Y003847
X083000Y002153
X083000Y003847
X086000Y002153
X086000Y003847
X089000Y002153
X089000Y003847
X092000Y002153
X092000Y003847
X095000Y002153
X095000Y003847
X098000Y002153
X098000Y003847
X101000Y002153
X101000Y003847
X104000Y002153
X104000Y003847
X107000Y002153
X107000Y003847
M30
