M48
INCH,LZ
;FILE_FORMAT=2:4
;TYPE=PLATED
;Layer: PTH_Through
;EasyEDA v6.5.43, 2024-07-17 01:33:45
;cb6e2e9fbd21486d88ae5690d2d3dc00,10
;Gerber Generator version 0.2
;Holesize 1 = 0.0120 inch
T01C0.0120
;Holesize 2 = 0.0280 inch
T02C0.0280
;Holesize 3 = 0.0320 inch
T03C0.0320
;Holesize 4 = 0.0350 inch
T04C0.0350
;Holesize 5 = 0.0390 inch
T05C0.0390
%
G05
G90
T01
X087381Y023796
X024351Y023112
X087794Y001386
X086735Y023193
X021669Y022717
X089300Y021780
X055396Y016500
X021125Y023796
X082927Y015851
X088338Y016005
X088097Y015754
X060888Y013821
X059300Y014270
X063779Y015869
X009619Y014464
T02
X002000Y006933
X002000Y011067
X005000Y006933
X005000Y011067
X008000Y006933
X008000Y011067
X011000Y006933
X011000Y011067
X014000Y006933
X014000Y011067
X017000Y006933
X017000Y011067
X020000Y006933
X020000Y011067
X023000Y006933
X023000Y011067
X026000Y006933
X026000Y011067
X029000Y006933
X029000Y011067
X032000Y006933
X032000Y011067
X035000Y006933
X035000Y011067
X038000Y006933
X038000Y011067
X041000Y006933
X041000Y011067
X044000Y006933
X044000Y011067
X047000Y006933
X047000Y011067
X050000Y006933
X050000Y011067
X053000Y006933
X053000Y011067
X056000Y006933
X056000Y011067
X059000Y006933
X059000Y011067
X062000Y006933
X062000Y011067
X065000Y006933
X065000Y011067
X068000Y006933
X068000Y011067
X071000Y006933
X071000Y011067
X074000Y006933
X074000Y011067
X077000Y006933
X077000Y011067
X080000Y006933
X080000Y011067
X083000Y006933
X083000Y011067
X086000Y006933
X086000Y011067
X089000Y006933
X089000Y011067
X092000Y006933
X092000Y011067
X095000Y006933
X095000Y011067
X098000Y006933
X098000Y011067
X101000Y006933
X101000Y011067
X104000Y006933
X104000Y011067
X107000Y006933
X107000Y011067
T03
X006000Y014016
X006000Y015984
X030000Y014016
X030000Y015984
X054000Y014016
X054000Y015984
X078000Y014016
X078000Y015984
X095000Y014016
X095000Y015984
T04
X057000Y025500
X056000Y025500
X055000Y025500
X054000Y025500
X053000Y025500
X052000Y025500
T05
X015500Y013500
X014500Y013500
X013500Y013500
X012500Y013500
X011500Y013500
X010500Y013500
X009500Y013500
X008500Y013500
X008500Y016500
X009500Y016500
X010500Y016500
X011500Y016500
X012500Y016500
X013500Y016500
X014500Y016500
X015500Y016500
X039500Y013500
X038500Y013500
X037500Y013500
X036500Y013500
X035500Y013500
X034500Y013500
X033500Y013500
X032500Y013500
X032500Y016500
X033500Y016500
X034500Y016500
X035500Y016500
X036500Y016500
X037500Y016500
X038500Y016500
X039500Y016500
X063500Y013500
X062500Y013500
X061500Y013500
X060500Y013500
X059500Y013500
X058500Y013500
X057500Y013500
X056500Y013500
X056500Y016500
X057500Y016500
X058500Y016500
X059500Y016500
X060500Y016500
X061500Y016500
X062500Y016500
X063500Y016500
X087500Y013500
X086500Y013500
X085500Y013500
X084500Y013500
X083500Y013500
X082500Y013500
X081500Y013500
X080500Y013500
X080500Y016500
X081500Y016500
X082500Y016500
X083500Y016500
X084500Y016500
X085500Y016500
X086500Y016500
X087500Y016500
X104500Y013500
X103500Y013500
X102500Y013500
X101500Y013500
X100500Y013500
X099500Y013500
X098500Y013500
X097500Y013500
X097500Y016500
X098500Y016500
X099500Y016500
X100500Y016500
X101500Y016500
X102500Y016500
X103500Y016500
X104500Y016500
M30
