G04 Layer: TopLayer*
G04 EasyEDA v6.5.43, 2024-07-17 01:33:45*
G04 cb6e2e9fbd21486d88ae5690d2d3dc00,10*
G04 Gerber Generator version 0.2*
G04 Scale: 100 percent, Rotated: No, Reflected: No *
G04 Dimensions in inches *
G04 leading zeros omitted , absolute positions ,3 integer and 6 decimal *
%FSLAX36Y36*%
%MOIN*%

%ADD10C,0.0100*%
%ADD11R,0.0669X0.0748*%
%ADD12R,0.0193X0.0456*%
%ADD13R,0.0193X0.0463*%
%ADD14C,0.0630*%
%ADD15C,0.0551*%
%ADD16R,0.0630X0.0630*%
%ADD17C,0.0620*%
%ADD18R,0.0620X0.0620*%
%ADD19C,0.0240*%
%ADD20C,0.0113*%

%LPD*%
D10*
X600000Y1401579D02*
G01*
X1498419Y1401579D01*
X1550000Y1350000D01*
X3000000Y1401579D02*
G01*
X1601580Y1401579D01*
X1550000Y1350000D01*
X8750000Y1393049D02*
G01*
X8750000Y1350000D01*
X9500000Y1401579D02*
G01*
X8758530Y1401579D01*
X8750000Y1393049D01*
X8750000Y1393049D02*
G01*
X8225590Y1393049D01*
X8200000Y1367460D01*
X8200000Y1337429D01*
X8168350Y1305779D01*
X7895799Y1305779D01*
X7800000Y1401579D01*
X8762600Y2379560D02*
G01*
X8738059Y2379560D01*
X8762600Y2345419D02*
G01*
X8762600Y2379560D01*
X2062600Y2345419D02*
G01*
X2062600Y2311280D01*
X2062600Y2311280D02*
G01*
X2062669Y2311210D01*
X2435060Y2311210D01*
X5400000Y1401579D02*
G01*
X4001580Y1401579D01*
X3950000Y1350000D01*
X7800000Y1401579D02*
G01*
X6401580Y1401579D01*
X6350000Y1350000D01*
X8779440Y138580D02*
G01*
X8900000Y138580D01*
X8600000Y138580D02*
G01*
X8779440Y138580D01*
X500000Y138580D02*
G01*
X200000Y138580D01*
X800000Y138580D02*
G01*
X500000Y138580D01*
X1100000Y138580D02*
G01*
X800000Y138580D01*
X1400000Y138580D02*
G01*
X1100000Y138580D01*
X1700000Y138580D02*
G01*
X1400000Y138580D01*
X2000000Y138580D02*
G01*
X1700000Y138580D01*
X2300000Y138580D02*
G01*
X2000000Y138580D01*
X2600000Y138580D02*
G01*
X2300000Y138580D01*
X2900000Y138580D02*
G01*
X2600000Y138580D01*
X3200000Y138580D02*
G01*
X2900000Y138580D01*
X3500000Y138580D02*
G01*
X3200000Y138580D01*
X3800000Y138580D02*
G01*
X3500000Y138580D01*
X4100000Y138580D02*
G01*
X3800000Y138580D01*
X4400000Y138580D02*
G01*
X4100000Y138580D01*
X4700000Y138580D02*
G01*
X4400000Y138580D01*
X5000000Y138580D02*
G01*
X4700000Y138580D01*
X5300000Y138580D02*
G01*
X5000000Y138580D01*
X5600000Y138580D02*
G01*
X5300000Y138580D01*
X5900000Y138580D02*
G01*
X5600000Y138580D01*
X6200000Y138580D02*
G01*
X5900000Y138580D01*
X6500000Y138580D02*
G01*
X6200000Y138580D01*
X6800000Y138580D02*
G01*
X6500000Y138580D01*
X7100000Y138580D02*
G01*
X6800000Y138580D01*
X7400000Y138580D02*
G01*
X7100000Y138580D01*
X7700000Y138580D02*
G01*
X7400000Y138580D01*
X8000000Y138580D02*
G01*
X7700000Y138580D01*
X8300000Y138580D02*
G01*
X8000000Y138580D01*
X8600000Y138580D02*
G01*
X8300000Y138580D01*
X9200000Y138580D02*
G01*
X8900000Y138580D01*
X9500000Y138580D02*
G01*
X9200000Y138580D01*
X9800000Y138580D02*
G01*
X9500000Y138580D01*
X10100000Y138580D02*
G01*
X9800000Y138580D01*
X10400000Y138580D02*
G01*
X10100000Y138580D01*
X10700000Y138580D02*
G01*
X10400000Y138580D01*
X3850000Y1693939D02*
G01*
X6206059Y1693939D01*
X6250000Y1650000D01*
X1450000Y1650000D02*
G01*
X1493940Y1693939D01*
X3850000Y1693939D01*
X3850000Y1650000D02*
G01*
X3850000Y1693939D01*
X8837399Y2345419D02*
G01*
X8837399Y2311280D01*
X8837399Y2311280D02*
G01*
X8837330Y2311210D01*
X8681599Y2311210D01*
X8673469Y2319340D01*
X2166890Y2271669D02*
G01*
X2137399Y2271669D01*
X2137399Y2271669D02*
G01*
X2137399Y2288370D01*
X2137399Y2254580D02*
G01*
X2137399Y2271669D01*
X8930000Y2178000D02*
G01*
X8880190Y2178000D01*
X8837399Y2220790D01*
X500000Y1106689D02*
G01*
X200000Y1106689D01*
X800000Y1106689D02*
G01*
X500000Y1106689D01*
X1100000Y1106689D02*
G01*
X800000Y1106689D01*
X1400000Y1106689D02*
G01*
X1100000Y1106689D01*
X2000000Y1106689D02*
G01*
X1700000Y1106689D01*
X2600000Y1106689D02*
G01*
X2300000Y1106689D01*
X2900000Y1106689D02*
G01*
X2600000Y1106689D01*
X3200000Y1106689D02*
G01*
X2900000Y1106689D01*
X3500000Y1106689D02*
G01*
X3200000Y1106689D01*
X3800000Y1106689D02*
G01*
X3500000Y1106689D01*
X4400000Y1106689D02*
G01*
X4100000Y1106689D01*
X4700000Y1106689D02*
G01*
X4400000Y1106689D01*
X5000000Y1106689D02*
G01*
X4700000Y1106689D01*
X5300000Y1106689D02*
G01*
X5000000Y1106689D01*
X5600000Y1106689D02*
G01*
X5300000Y1106689D01*
X5900000Y1106689D02*
G01*
X5600000Y1106689D01*
X6200000Y1106689D02*
G01*
X5900000Y1106689D01*
X6800000Y1106689D02*
G01*
X6500000Y1106689D01*
X7100000Y1106689D02*
G01*
X6800000Y1106689D01*
X7400000Y1106689D02*
G01*
X7100000Y1106689D01*
X7700000Y1106689D02*
G01*
X7400000Y1106689D01*
X8000000Y1106689D02*
G01*
X7700000Y1106689D01*
X8300000Y1106689D02*
G01*
X8000000Y1106689D01*
X8600000Y1106689D02*
G01*
X8300000Y1106689D01*
X8900000Y1106689D02*
G01*
X8600000Y1106689D01*
X9200000Y1106689D02*
G01*
X8900000Y1106689D01*
X9500000Y1106689D02*
G01*
X9200000Y1106689D01*
X9800000Y1106689D02*
G01*
X9500000Y1106689D01*
X10100000Y1106689D02*
G01*
X9800000Y1106689D01*
X10400000Y1106689D02*
G01*
X10100000Y1106689D01*
X10700000Y1106689D02*
G01*
X10400000Y1106689D01*
X10050000Y1650000D02*
G01*
X9950000Y1650000D01*
X10150000Y1650000D02*
G01*
X10050000Y1650000D01*
X10250000Y1650000D02*
G01*
X10150000Y1650000D01*
X8837399Y2220790D02*
G01*
X8836639Y2220030D01*
X8763360Y2220030D01*
X8762600Y2220790D01*
X8762600Y2254580D02*
G01*
X8762600Y2220790D01*
X8837399Y2254580D02*
G01*
X8837399Y2220790D01*
X2062600Y2271480D02*
G01*
X2062600Y2254580D01*
X2062600Y2271480D02*
G01*
X2062600Y2288370D01*
X2137399Y2288370D02*
G01*
X2134309Y2291460D01*
X2065690Y2291460D01*
X2062600Y2288370D01*
X5539639Y1650000D02*
G01*
X3950000Y1650000D01*
X2137399Y2379560D02*
G01*
X2112520Y2379560D01*
X2137399Y2345419D02*
G01*
X2137399Y2379560D01*
X8792510Y1693899D02*
G01*
X6436409Y1693899D01*
X6392510Y1650000D01*
X10407500Y1650000D02*
G01*
X10407500Y1660619D01*
X10374200Y1693899D01*
X8792510Y1693899D01*
X8792510Y1693899D02*
G01*
X8792510Y1650000D01*
X6350000Y1650000D02*
G01*
X6392510Y1650000D01*
X8750000Y1650000D02*
G01*
X8792510Y1650000D01*
X10450000Y1650000D02*
G01*
X10407500Y1650000D01*
X8050000Y1350000D02*
G01*
X7949930Y1450070D01*
X5850069Y1450070D01*
X5750000Y1350000D01*
X1700000Y461419D02*
G01*
X1700000Y693310D01*
X4100000Y461419D02*
G01*
X4100000Y693310D01*
X8350000Y1650000D02*
G01*
X8350000Y1642420D01*
X8292690Y1585109D01*
X8900000Y461419D02*
G01*
X8900000Y693310D01*
X8550000Y1650000D02*
G01*
X8599489Y1600509D01*
X8833789Y1600509D01*
X9500000Y461419D02*
G01*
X9500000Y693310D01*
X8450000Y1650000D02*
G01*
X8524620Y1575380D01*
X8809690Y1575380D01*
X9200000Y461419D02*
G01*
X9200000Y693310D01*
X8600000Y461419D02*
G01*
X8600000Y693310D01*
X8300000Y461419D02*
G01*
X8300000Y693310D01*
X8000000Y461419D02*
G01*
X8000000Y693310D01*
X7700000Y461419D02*
G01*
X7700000Y693310D01*
X7400000Y461419D02*
G01*
X7400000Y693310D01*
X6500000Y461419D02*
G01*
X6500000Y693310D01*
X5930000Y1426999D02*
G01*
X6043950Y1426999D01*
X6088829Y1382120D01*
X6200000Y461419D02*
G01*
X6200000Y693310D01*
X5900000Y461419D02*
G01*
X5900000Y693310D01*
X5600000Y461419D02*
G01*
X5600000Y693310D01*
X5300000Y461419D02*
G01*
X5300000Y693310D01*
X5000000Y461419D02*
G01*
X5000000Y693310D01*
X4700000Y461419D02*
G01*
X4700000Y693310D01*
X3800000Y461419D02*
G01*
X3800000Y693310D01*
X3500000Y461419D02*
G01*
X3500000Y693310D01*
X3200000Y461419D02*
G01*
X3200000Y693310D01*
X2900000Y461419D02*
G01*
X2900000Y693310D01*
X2600000Y461419D02*
G01*
X2600000Y693310D01*
X2000000Y461419D02*
G01*
X2000000Y693310D01*
X1100000Y461419D02*
G01*
X1100000Y693310D01*
X800000Y461419D02*
G01*
X800000Y693310D01*
X500000Y461419D02*
G01*
X500000Y693310D01*
X200000Y693310D02*
G01*
X200000Y461419D01*
X9800000Y461419D02*
G01*
X9800000Y693310D01*
X10100000Y461419D02*
G01*
X10100000Y693310D01*
X10400000Y461419D02*
G01*
X10400000Y693310D01*
X10700000Y461419D02*
G01*
X10700000Y693310D01*
X1400000Y461419D02*
G01*
X1400000Y693310D01*
X2300000Y461419D02*
G01*
X2300000Y693310D01*
X4400000Y461419D02*
G01*
X4400000Y693310D01*
X6050000Y1650000D02*
G01*
X6113130Y1586869D01*
X6377900Y1586869D01*
X6800000Y461419D02*
G01*
X6800000Y693310D01*
X7100000Y461419D02*
G01*
X7100000Y693310D01*
X950000Y1650000D02*
G01*
X1044149Y1555850D01*
X3255850Y1555850D01*
X3350000Y1650000D01*
X3350000Y1650000D02*
G01*
X3449759Y1550239D01*
X5750000Y1550239D01*
X5750000Y1550239D02*
G01*
X8150000Y1550239D01*
X5750000Y1650000D02*
G01*
X5750000Y1550239D01*
X8150000Y1550239D02*
G01*
X9750240Y1550239D01*
X9850000Y1650000D01*
X8150000Y1650000D02*
G01*
X8150000Y1550239D01*
X2100000Y2254580D02*
G01*
X2100000Y2220790D01*
X2100000Y2220790D02*
G01*
X2100069Y2220720D01*
X4635400Y2220720D01*
X5006760Y2592080D01*
X5257920Y2592080D01*
X5300000Y2550000D01*
X5650000Y1350000D02*
G01*
X5550240Y1449760D01*
X3449759Y1449760D01*
X3350000Y1350000D01*
X3250000Y1350000D02*
G01*
X3153580Y1446419D01*
X961920Y1446419D01*
X9750000Y1350000D02*
G01*
X9655339Y1444659D01*
X8244660Y1444659D01*
X8150000Y1350000D01*
X8800000Y2254580D02*
G01*
X8800000Y2288370D01*
X5400000Y2550000D02*
G01*
X5655460Y2294540D01*
X8793829Y2294540D01*
X8800000Y2288370D01*
D11*
G01*
X200000Y138580D03*
G01*
X200000Y461419D03*
G01*
X500000Y138580D03*
G01*
X500000Y461419D03*
G01*
X800000Y138580D03*
G01*
X800000Y461419D03*
G01*
X1100000Y138580D03*
G01*
X1100000Y461419D03*
G01*
X1400000Y138580D03*
G01*
X1400000Y461419D03*
G01*
X1700000Y138580D03*
G01*
X1700000Y461419D03*
G01*
X2000000Y138580D03*
G01*
X2000000Y461419D03*
G01*
X2300000Y138580D03*
G01*
X2300000Y461419D03*
G01*
X2600000Y138580D03*
G01*
X2600000Y461419D03*
G01*
X2900000Y138580D03*
G01*
X2900000Y461419D03*
G01*
X3200000Y138580D03*
G01*
X3200000Y461419D03*
G01*
X3500000Y138580D03*
G01*
X3500000Y461419D03*
G01*
X3800000Y138580D03*
G01*
X3800000Y461419D03*
G01*
X4100000Y138580D03*
G01*
X4100000Y461419D03*
G01*
X4400000Y138580D03*
G01*
X4400000Y461419D03*
G01*
X4700000Y138580D03*
G01*
X4700000Y461419D03*
G01*
X5000000Y138580D03*
G01*
X5000000Y461419D03*
G01*
X5300000Y138580D03*
G01*
X5300000Y461419D03*
G01*
X5600000Y138580D03*
G01*
X5600000Y461419D03*
G01*
X5900000Y138580D03*
G01*
X5900000Y461419D03*
G01*
X6200000Y138580D03*
G01*
X6200000Y461419D03*
G01*
X6500000Y138580D03*
G01*
X6500000Y461419D03*
G01*
X6800000Y138580D03*
G01*
X6800000Y461419D03*
G01*
X7100000Y138580D03*
G01*
X7100000Y461419D03*
G01*
X7400000Y138580D03*
G01*
X7400000Y461419D03*
G01*
X7700000Y138580D03*
G01*
X7700000Y461419D03*
G01*
X8000000Y138580D03*
G01*
X8000000Y461419D03*
G01*
X8300000Y138580D03*
G01*
X8300000Y461419D03*
G01*
X8600000Y138580D03*
G01*
X8600000Y461419D03*
G01*
X8900000Y138580D03*
G01*
X8900000Y461419D03*
G01*
X9200000Y138580D03*
G01*
X9200000Y461419D03*
G01*
X9500000Y138580D03*
G01*
X9500000Y461419D03*
G01*
X9800000Y138580D03*
G01*
X9800000Y461419D03*
G01*
X10100000Y138580D03*
G01*
X10100000Y461419D03*
G01*
X10400000Y138580D03*
G01*
X10400000Y461419D03*
G01*
X10700000Y138580D03*
G01*
X10700000Y461419D03*
D12*
G01*
X8762600Y2254580D03*
G01*
X8800000Y2254580D03*
G01*
X8837399Y2254580D03*
D13*
G01*
X8837399Y2345419D03*
G01*
X8762600Y2345419D03*
D12*
G01*
X2062600Y2254580D03*
G01*
X2100000Y2254580D03*
G01*
X2137399Y2254580D03*
D13*
G01*
X2137399Y2345419D03*
G01*
X2062600Y2345419D03*
D14*
G01*
X600000Y1401579D03*
G01*
X600000Y1598429D03*
G01*
X3000000Y1401579D03*
G01*
X3000000Y1598429D03*
G01*
X5400000Y1401579D03*
G01*
X5400000Y1598429D03*
G01*
X7800000Y1401579D03*
G01*
X7800000Y1598429D03*
G01*
X9500000Y1401579D03*
G01*
X9500000Y1598429D03*
D15*
G01*
X200000Y693310D03*
G01*
X200000Y1106689D03*
G01*
X500000Y693310D03*
G01*
X500000Y1106689D03*
G01*
X800000Y693310D03*
G01*
X800000Y1106689D03*
G01*
X1100000Y693310D03*
G01*
X1100000Y1106689D03*
G01*
X1400000Y693310D03*
G01*
X1400000Y1106689D03*
G01*
X1700000Y693310D03*
G01*
X1700000Y1106689D03*
G01*
X2000000Y693310D03*
G01*
X2000000Y1106689D03*
G01*
X2300000Y693310D03*
G01*
X2300000Y1106689D03*
G01*
X2600000Y693310D03*
G01*
X2600000Y1106689D03*
G01*
X2900000Y693310D03*
G01*
X2900000Y1106689D03*
G01*
X3200000Y693310D03*
G01*
X3200000Y1106689D03*
G01*
X3500000Y693310D03*
G01*
X3500000Y1106689D03*
G01*
X3800000Y693310D03*
G01*
X3800000Y1106689D03*
G01*
X4100000Y693310D03*
G01*
X4100000Y1106689D03*
G01*
X4400000Y693310D03*
G01*
X4400000Y1106689D03*
G01*
X4700000Y693310D03*
G01*
X4700000Y1106689D03*
G01*
X5000000Y693310D03*
G01*
X5000000Y1106689D03*
G01*
X5300000Y693310D03*
G01*
X5300000Y1106689D03*
G01*
X5600000Y693310D03*
G01*
X5600000Y1106689D03*
G01*
X5900000Y693310D03*
G01*
X5900000Y1106689D03*
G01*
X6200000Y693310D03*
G01*
X6200000Y1106689D03*
G01*
X6500000Y693310D03*
G01*
X6500000Y1106689D03*
G01*
X6800000Y693310D03*
G01*
X6800000Y1106689D03*
G01*
X7100000Y693310D03*
G01*
X7100000Y1106689D03*
G01*
X7400000Y693310D03*
G01*
X7400000Y1106689D03*
G01*
X7700000Y693310D03*
G01*
X7700000Y1106689D03*
G01*
X8000000Y693310D03*
G01*
X8000000Y1106689D03*
G01*
X8300000Y693310D03*
G01*
X8300000Y1106689D03*
G01*
X8600000Y693310D03*
G01*
X8600000Y1106689D03*
G01*
X8900000Y693310D03*
G01*
X8900000Y1106689D03*
G01*
X9200000Y693310D03*
G01*
X9200000Y1106689D03*
G01*
X9500000Y693310D03*
G01*
X9500000Y1106689D03*
G01*
X9800000Y693310D03*
G01*
X9800000Y1106689D03*
G01*
X10100000Y693310D03*
G01*
X10100000Y1106689D03*
G01*
X10400000Y693310D03*
G01*
X10400000Y1106689D03*
G01*
X10700000Y693310D03*
G01*
X10700000Y1106689D03*
D14*
G01*
X1550000Y1350000D03*
G01*
X1450000Y1350000D03*
G01*
X1350000Y1350000D03*
G01*
X1250000Y1350000D03*
G01*
X1150000Y1350000D03*
G01*
X1050000Y1350000D03*
G01*
X950000Y1350000D03*
G01*
X850000Y1350000D03*
G01*
X850000Y1650000D03*
G01*
X950000Y1650000D03*
G01*
X1050000Y1650000D03*
G01*
X1150000Y1650000D03*
G01*
X1250000Y1650000D03*
G01*
X1350000Y1650000D03*
G01*
X1450000Y1650000D03*
D16*
G01*
X1550000Y1650000D03*
D14*
G01*
X3950000Y1350000D03*
G01*
X3850000Y1350000D03*
G01*
X3750000Y1350000D03*
G01*
X3650000Y1350000D03*
G01*
X3550000Y1350000D03*
G01*
X3450000Y1350000D03*
G01*
X3350000Y1350000D03*
G01*
X3250000Y1350000D03*
G01*
X3250000Y1650000D03*
G01*
X3350000Y1650000D03*
G01*
X3450000Y1650000D03*
G01*
X3550000Y1650000D03*
G01*
X3650000Y1650000D03*
G01*
X3750000Y1650000D03*
G01*
X3850000Y1650000D03*
D16*
G01*
X3950000Y1650000D03*
D14*
G01*
X6350000Y1350000D03*
G01*
X6250000Y1350000D03*
G01*
X6150000Y1350000D03*
G01*
X6050000Y1350000D03*
G01*
X5950000Y1350000D03*
G01*
X5850000Y1350000D03*
G01*
X5750000Y1350000D03*
G01*
X5650000Y1350000D03*
G01*
X5650000Y1650000D03*
G01*
X5750000Y1650000D03*
G01*
X5850000Y1650000D03*
G01*
X5950000Y1650000D03*
G01*
X6050000Y1650000D03*
G01*
X6150000Y1650000D03*
G01*
X6250000Y1650000D03*
D16*
G01*
X6350000Y1650000D03*
D14*
G01*
X8750000Y1350000D03*
G01*
X8650000Y1350000D03*
G01*
X8550000Y1350000D03*
G01*
X8450000Y1350000D03*
G01*
X8350000Y1350000D03*
G01*
X8250000Y1350000D03*
G01*
X8150000Y1350000D03*
G01*
X8050000Y1350000D03*
G01*
X8050000Y1650000D03*
G01*
X8150000Y1650000D03*
G01*
X8250000Y1650000D03*
G01*
X8350000Y1650000D03*
G01*
X8450000Y1650000D03*
G01*
X8550000Y1650000D03*
G01*
X8650000Y1650000D03*
D16*
G01*
X8750000Y1650000D03*
D14*
G01*
X10450000Y1350000D03*
G01*
X10350000Y1350000D03*
G01*
X10250000Y1350000D03*
G01*
X10150000Y1350000D03*
G01*
X10050000Y1350000D03*
G01*
X9950000Y1350000D03*
G01*
X9850000Y1350000D03*
G01*
X9750000Y1350000D03*
G01*
X9750000Y1650000D03*
G01*
X9850000Y1650000D03*
G01*
X9950000Y1650000D03*
G01*
X10050000Y1650000D03*
G01*
X10150000Y1650000D03*
G01*
X10250000Y1650000D03*
G01*
X10350000Y1650000D03*
D16*
G01*
X10450000Y1650000D03*
D17*
G01*
X5700000Y2550000D03*
G01*
X5600000Y2550000D03*
G01*
X5500000Y2550000D03*
G01*
X5400000Y2550000D03*
G01*
X5300000Y2550000D03*
D18*
G01*
X5200000Y2550000D03*
D19*
G01*
X8738059Y2379560D03*
G01*
X2435060Y2311210D03*
G01*
X8779440Y138580D03*
G01*
X8673469Y2319340D03*
G01*
X2166890Y2271669D03*
G01*
X8930000Y2178000D03*
G01*
X5539639Y1650000D03*
G01*
X2112520Y2379560D03*
G01*
X8292690Y1585109D03*
G01*
X8833789Y1600509D03*
G01*
X8809690Y1575380D03*
G01*
X6088829Y1382120D03*
G01*
X5930000Y1426999D03*
G01*
X6377900Y1586869D03*
G01*
X961920Y1446419D03*
M02*
