G04 Layer: TopPasteMaskLayer*
G04 EasyEDA v6.5.43, 2024-07-17 01:33:45*
G04 cb6e2e9fbd21486d88ae5690d2d3dc00,10*
G04 Gerber Generator version 0.2*
G04 Scale: 100 percent, Rotated: No, Reflected: No *
G04 Dimensions in inches *
G04 leading zeros omitted , absolute positions ,3 integer and 6 decimal *
%FSLAX36Y36*%
%MOIN*%

%ADD10R,0.0669X0.0748*%
%ADD11R,0.0193X0.0456*%
%ADD12R,0.0193X0.0463*%

%LPD*%
D10*
G01*
X200000Y138580D03*
G01*
X200000Y461419D03*
G01*
X500000Y138580D03*
G01*
X500000Y461419D03*
G01*
X800000Y138580D03*
G01*
X800000Y461419D03*
G01*
X1100000Y138580D03*
G01*
X1100000Y461419D03*
G01*
X1400000Y138580D03*
G01*
X1400000Y461419D03*
G01*
X1700000Y138580D03*
G01*
X1700000Y461419D03*
G01*
X2000000Y138580D03*
G01*
X2000000Y461419D03*
G01*
X2300000Y138580D03*
G01*
X2300000Y461419D03*
G01*
X2600000Y138580D03*
G01*
X2600000Y461419D03*
G01*
X2900000Y138580D03*
G01*
X2900000Y461419D03*
G01*
X3200000Y138580D03*
G01*
X3200000Y461419D03*
G01*
X3500000Y138580D03*
G01*
X3500000Y461419D03*
G01*
X3800000Y138580D03*
G01*
X3800000Y461419D03*
G01*
X4100000Y138580D03*
G01*
X4100000Y461419D03*
G01*
X4400000Y138580D03*
G01*
X4400000Y461419D03*
G01*
X4700000Y138580D03*
G01*
X4700000Y461419D03*
G01*
X5000000Y138580D03*
G01*
X5000000Y461419D03*
G01*
X5300000Y138580D03*
G01*
X5300000Y461419D03*
G01*
X5600000Y138580D03*
G01*
X5600000Y461419D03*
G01*
X5900000Y138580D03*
G01*
X5900000Y461419D03*
G01*
X6200000Y138580D03*
G01*
X6200000Y461419D03*
G01*
X6500000Y138580D03*
G01*
X6500000Y461419D03*
G01*
X6800000Y138580D03*
G01*
X6800000Y461419D03*
G01*
X7100000Y138580D03*
G01*
X7100000Y461419D03*
G01*
X7400000Y138580D03*
G01*
X7400000Y461419D03*
G01*
X7700000Y138580D03*
G01*
X7700000Y461419D03*
G01*
X8000000Y138580D03*
G01*
X8000000Y461419D03*
G01*
X8300000Y138580D03*
G01*
X8300000Y461419D03*
G01*
X8600000Y138580D03*
G01*
X8600000Y461419D03*
G01*
X8900000Y138580D03*
G01*
X8900000Y461419D03*
G01*
X9200000Y138580D03*
G01*
X9200000Y461419D03*
G01*
X9500000Y138580D03*
G01*
X9500000Y461419D03*
G01*
X9800000Y138580D03*
G01*
X9800000Y461419D03*
G01*
X10100000Y138580D03*
G01*
X10100000Y461419D03*
G01*
X10400000Y138580D03*
G01*
X10400000Y461419D03*
G01*
X10700000Y138580D03*
G01*
X10700000Y461419D03*
D11*
G01*
X8762600Y2254580D03*
G01*
X8800000Y2254580D03*
G01*
X8837399Y2254580D03*
D12*
G01*
X8837399Y2345419D03*
G01*
X8762600Y2345419D03*
D11*
G01*
X2062600Y2254580D03*
G01*
X2100000Y2254580D03*
G01*
X2137399Y2254580D03*
D12*
G01*
X2137399Y2345419D03*
G01*
X2062600Y2345419D03*
M02*
