G04 Layer: TopSolderMaskLayer*
G04 EasyEDA v6.5.43, 2024-07-17 01:33:45*
G04 cb6e2e9fbd21486d88ae5690d2d3dc00,10*
G04 Gerber Generator version 0.2*
G04 Scale: 100 percent, Rotated: No, Reflected: No *
G04 Dimensions in inches *
G04 leading zeros omitted , absolute positions ,3 integer and 6 decimal *
%FSLAX36Y36*%
%MOIN*%

%AMMACRO1*4,1,8,-0.0343,-0.0394,-0.0355,-0.0382,-0.0355,0.0382,-0.0343,0.0394,0.0343,0.0394,0.0355,0.0382,0.0355,-0.0382,0.0343,-0.0394,-0.0343,-0.0394,0*%
%AMMACRO2*4,1,8,-0.0323,-0.0335,-0.0335,-0.0323,-0.0335,0.0323,-0.0323,0.0335,0.0323,0.0335,0.0335,0.0323,0.0335,-0.0323,0.0323,-0.0335,-0.0323,-0.0335,0*%
%AMMACRO3*4,1,8,-0.0105,-0.0248,-0.0116,-0.0236,-0.0116,0.0236,-0.0105,0.0248,0.0105,0.0248,0.0116,0.0236,0.0116,-0.0236,0.0105,-0.0248,-0.0105,-0.0248,0*%
%AMMACRO4*4,1,8,-0.0105,-0.0251,-0.0116,-0.024,-0.0116,0.024,-0.0105,0.0251,0.0105,0.0251,0.0116,0.024,0.0116,-0.024,0.0105,-0.0251,-0.0105,-0.0251,0*%
%AMMACRO5*4,1,8,-0.0318,-0.033,-0.033,-0.0318,-0.033,0.0318,-0.0318,0.033,0.0318,0.033,0.033,0.0318,0.033,-0.0318,0.0318,-0.033,-0.0318,-0.033,0*%
%ADD10C,0.0669*%
%ADD11C,0.0591*%
%ADD12MACRO1*%
%ADD13C,0.0670*%
%ADD14MACRO2*%
%ADD15MACRO3*%
%ADD16MACRO4*%
%ADD17C,0.0660*%
%ADD18MACRO5*%
%ADD19C,0.0153*%

%LPD*%
D10*
G01*
X600000Y1401579D03*
G01*
X600000Y1598429D03*
G01*
X3000000Y1401579D03*
G01*
X3000000Y1598429D03*
G01*
X5400000Y1401579D03*
G01*
X5400000Y1598429D03*
G01*
X7800000Y1401579D03*
G01*
X7800000Y1598429D03*
G01*
X9500000Y1401579D03*
G01*
X9500000Y1598429D03*
D11*
G01*
X200000Y693310D03*
G01*
X200000Y1106689D03*
G01*
X500000Y693310D03*
G01*
X500000Y1106689D03*
G01*
X800000Y693310D03*
G01*
X800000Y1106689D03*
G01*
X1100000Y693310D03*
G01*
X1100000Y1106689D03*
G01*
X1400000Y693310D03*
G01*
X1400000Y1106689D03*
G01*
X1700000Y693310D03*
G01*
X1700000Y1106689D03*
G01*
X2000000Y693310D03*
G01*
X2000000Y1106689D03*
G01*
X2300000Y693310D03*
G01*
X2300000Y1106689D03*
G01*
X2600000Y693310D03*
G01*
X2600000Y1106689D03*
G01*
X2900000Y693310D03*
G01*
X2900000Y1106689D03*
G01*
X3200000Y693310D03*
G01*
X3200000Y1106689D03*
G01*
X3500000Y693310D03*
G01*
X3500000Y1106689D03*
G01*
X3800000Y693310D03*
G01*
X3800000Y1106689D03*
G01*
X4100000Y693310D03*
G01*
X4100000Y1106689D03*
G01*
X4400000Y693310D03*
G01*
X4400000Y1106689D03*
G01*
X4700000Y693310D03*
G01*
X4700000Y1106689D03*
G01*
X5000000Y693310D03*
G01*
X5000000Y1106689D03*
G01*
X5300000Y693310D03*
G01*
X5300000Y1106689D03*
G01*
X5600000Y693310D03*
G01*
X5600000Y1106689D03*
G01*
X5900000Y693310D03*
G01*
X5900000Y1106689D03*
G01*
X6200000Y693310D03*
G01*
X6200000Y1106689D03*
G01*
X6500000Y693310D03*
G01*
X6500000Y1106689D03*
G01*
X6800000Y693310D03*
G01*
X6800000Y1106689D03*
G01*
X7100000Y693310D03*
G01*
X7100000Y1106689D03*
G01*
X7400000Y693310D03*
G01*
X7400000Y1106689D03*
G01*
X7700000Y693310D03*
G01*
X7700000Y1106689D03*
G01*
X8000000Y693310D03*
G01*
X8000000Y1106689D03*
G01*
X8300000Y693310D03*
G01*
X8300000Y1106689D03*
G01*
X8600000Y693310D03*
G01*
X8600000Y1106689D03*
G01*
X8900000Y693310D03*
G01*
X8900000Y1106689D03*
G01*
X9200000Y693310D03*
G01*
X9200000Y1106689D03*
G01*
X9500000Y693310D03*
G01*
X9500000Y1106689D03*
D12*
G01*
X200000Y138583D03*
G01*
X200000Y461417D03*
G01*
X500000Y138583D03*
G01*
X500000Y461417D03*
G01*
X800000Y138583D03*
G01*
X800000Y461417D03*
G01*
X1100000Y138583D03*
G01*
X1100000Y461417D03*
G01*
X1400000Y138583D03*
G01*
X1400000Y461417D03*
G01*
X1700000Y138583D03*
G01*
X1700000Y461417D03*
G01*
X2000000Y138583D03*
G01*
X2000000Y461417D03*
G01*
X2300000Y138583D03*
G01*
X2300000Y461417D03*
G01*
X2600000Y138583D03*
G01*
X2600000Y461417D03*
G01*
X2900000Y138583D03*
G01*
X2900000Y461417D03*
G01*
X3200000Y138583D03*
G01*
X3200000Y461417D03*
G01*
X3500000Y138583D03*
G01*
X3500000Y461417D03*
G01*
X3800000Y138583D03*
G01*
X3800000Y461417D03*
G01*
X4100000Y138583D03*
G01*
X4100000Y461417D03*
G01*
X4400000Y138583D03*
G01*
X4400000Y461417D03*
G01*
X4700000Y138583D03*
G01*
X4700000Y461417D03*
G01*
X5000000Y138583D03*
G01*
X5000000Y461417D03*
G01*
X5300000Y138583D03*
G01*
X5300000Y461417D03*
G01*
X5600000Y138583D03*
G01*
X5600000Y461417D03*
G01*
X5900000Y138583D03*
G01*
X5900000Y461417D03*
G01*
X6200000Y138583D03*
G01*
X6200000Y461417D03*
G01*
X6500000Y138583D03*
G01*
X6500000Y461417D03*
G01*
X6800000Y138583D03*
G01*
X6800000Y461417D03*
G01*
X7100000Y138583D03*
G01*
X7100000Y461417D03*
G01*
X7400000Y138583D03*
G01*
X7400000Y461417D03*
G01*
X7700000Y138583D03*
G01*
X7700000Y461417D03*
G01*
X8000000Y138583D03*
G01*
X8000000Y461417D03*
G01*
X8300000Y138583D03*
G01*
X8300000Y461417D03*
G01*
X8600000Y138583D03*
G01*
X8600000Y461417D03*
G01*
X8900000Y138583D03*
G01*
X8900000Y461417D03*
G01*
X9200000Y138583D03*
G01*
X9200000Y461417D03*
G01*
X9500000Y138583D03*
G01*
X9500000Y461417D03*
D11*
G01*
X9800000Y693310D03*
G01*
X9800000Y1106689D03*
G01*
X10100000Y693310D03*
G01*
X10100000Y1106689D03*
G01*
X10400000Y693310D03*
G01*
X10400000Y1106689D03*
G01*
X10700000Y693310D03*
G01*
X10700000Y1106689D03*
D12*
G01*
X9800000Y138583D03*
G01*
X9800000Y461417D03*
G01*
X10100000Y138583D03*
G01*
X10100000Y461417D03*
G01*
X10400000Y138583D03*
G01*
X10400000Y461417D03*
G01*
X10700000Y138583D03*
G01*
X10700000Y461417D03*
D13*
G01*
X1550000Y1350000D03*
G01*
X1450000Y1350000D03*
G01*
X1350000Y1350000D03*
G01*
X1250000Y1350000D03*
G01*
X1150000Y1350000D03*
G01*
X1050000Y1350000D03*
G01*
X950000Y1350000D03*
G01*
X850000Y1350000D03*
G01*
X850000Y1650000D03*
G01*
X950000Y1650000D03*
G01*
X1050000Y1650000D03*
G01*
X1150000Y1650000D03*
G01*
X1250000Y1650000D03*
G01*
X1350000Y1650000D03*
G01*
X1450000Y1650000D03*
D14*
G01*
X1550003Y1649998D03*
D13*
G01*
X3950000Y1350000D03*
G01*
X3850000Y1350000D03*
G01*
X3750000Y1350000D03*
G01*
X3650000Y1350000D03*
G01*
X3550000Y1350000D03*
G01*
X3450000Y1350000D03*
G01*
X3350000Y1350000D03*
G01*
X3250000Y1350000D03*
G01*
X3250000Y1650000D03*
G01*
X3350000Y1650000D03*
G01*
X3450000Y1650000D03*
G01*
X3550000Y1650000D03*
G01*
X3650000Y1650000D03*
G01*
X3750000Y1650000D03*
G01*
X3850000Y1650000D03*
D14*
G01*
X3950003Y1649998D03*
D13*
G01*
X6350000Y1350000D03*
G01*
X6250000Y1350000D03*
G01*
X6150000Y1350000D03*
G01*
X6050000Y1350000D03*
G01*
X5950000Y1350000D03*
G01*
X5850000Y1350000D03*
G01*
X5750000Y1350000D03*
G01*
X5650000Y1350000D03*
G01*
X5650000Y1650000D03*
G01*
X5750000Y1650000D03*
G01*
X5850000Y1650000D03*
G01*
X5950000Y1650000D03*
G01*
X6050000Y1650000D03*
G01*
X6150000Y1650000D03*
G01*
X6250000Y1650000D03*
D14*
G01*
X6350003Y1649998D03*
D13*
G01*
X8750000Y1350000D03*
G01*
X8650000Y1350000D03*
G01*
X8550000Y1350000D03*
G01*
X8450000Y1350000D03*
G01*
X8350000Y1350000D03*
G01*
X8250000Y1350000D03*
G01*
X8150000Y1350000D03*
G01*
X8050000Y1350000D03*
G01*
X8050000Y1650000D03*
G01*
X8150000Y1650000D03*
G01*
X8250000Y1650000D03*
G01*
X8350000Y1650000D03*
G01*
X8450000Y1650000D03*
G01*
X8550000Y1650000D03*
G01*
X8650000Y1650000D03*
D14*
G01*
X8750003Y1649998D03*
D13*
G01*
X10450000Y1350000D03*
G01*
X10350000Y1350000D03*
G01*
X10250000Y1350000D03*
G01*
X10150000Y1350000D03*
G01*
X10050000Y1350000D03*
G01*
X9950000Y1350000D03*
G01*
X9850000Y1350000D03*
G01*
X9750000Y1350000D03*
G01*
X9750000Y1650000D03*
G01*
X9850000Y1650000D03*
G01*
X9950000Y1650000D03*
G01*
X10050000Y1650000D03*
G01*
X10150000Y1650000D03*
G01*
X10250000Y1650000D03*
G01*
X10350000Y1650000D03*
D14*
G01*
X10450003Y1649998D03*
D15*
G01*
X8762600Y2254579D03*
G01*
X8800000Y2254579D03*
G01*
X8837399Y2254579D03*
D16*
G01*
X8837399Y2345419D03*
G01*
X8762600Y2345419D03*
D15*
G01*
X2062600Y2254579D03*
G01*
X2100000Y2254579D03*
G01*
X2137399Y2254579D03*
D16*
G01*
X2137399Y2345419D03*
G01*
X2062600Y2345419D03*
D17*
G01*
X5700000Y2550000D03*
G01*
X5600000Y2550000D03*
G01*
X5500000Y2550000D03*
G01*
X5400000Y2550000D03*
G01*
X5300000Y2550000D03*
D18*
G01*
X5200000Y2550000D03*
M02*
