G04 Layer: BottomLayer*
G04 EasyEDA v6.5.43, 2024-07-17 01:33:45*
G04 cb6e2e9fbd21486d88ae5690d2d3dc00,10*
G04 Gerber Generator version 0.2*
G04 Scale: 100 percent, Rotated: No, Reflected: No *
G04 Dimensions in inches *
G04 leading zeros omitted , absolute positions ,3 integer and 6 decimal *
%FSLAX36Y36*%
%MOIN*%

%ADD10C,0.0100*%
%ADD11C,0.0630*%
%ADD12C,0.0551*%
%ADD13R,0.0630X0.0630*%
%ADD14C,0.0620*%
%ADD15R,0.0620X0.0620*%
%ADD16C,0.0240*%
%ADD17C,0.0153*%

%LPD*%
D10*
X6350000Y1350000D02*
G01*
X6294809Y1405189D01*
X6079279Y1405189D01*
X6075670Y1401579D01*
X5400000Y1401579D01*
X3292700Y1692579D02*
G01*
X2674070Y2311210D01*
X2435060Y2311210D01*
X3000000Y1401579D02*
G01*
X3066400Y1401579D01*
X3292700Y1627880D01*
X3292700Y1692579D01*
X3950000Y1350000D02*
G01*
X3794290Y1505709D01*
X3726840Y1505709D01*
X3600000Y1632550D01*
X3600000Y1662570D01*
X3569989Y1692579D01*
X3292700Y1692579D01*
X8738059Y2379560D02*
G01*
X8792579Y2325039D01*
X8792579Y1590889D01*
X8750000Y1548310D01*
X8750000Y1350000D01*
X5200000Y2550000D02*
G01*
X5200000Y1151149D01*
X5286480Y1064670D01*
X5312820Y1064670D01*
X5400000Y1151849D01*
X5400000Y1401579D01*
X8750000Y1350000D02*
G01*
X8779440Y1320560D01*
X8779440Y138580D01*
X10450000Y1350000D02*
G01*
X10402200Y1302170D01*
X10330400Y1302170D01*
X10300000Y1332550D01*
X10300000Y1366199D01*
X10264600Y1401579D01*
X9500000Y1401579D01*
X8650000Y1695270D02*
G01*
X8650000Y2295870D01*
X8673469Y2319340D01*
X8650000Y1650000D02*
G01*
X8650000Y1695270D01*
X8650000Y1695270D02*
G01*
X6295270Y1695270D01*
X6250000Y1650000D01*
X10350000Y1650000D02*
G01*
X9593990Y2406010D01*
X8730659Y2406010D01*
X8673469Y2348820D01*
X8673469Y2319340D01*
X2166890Y1225390D02*
G01*
X2118699Y1225390D01*
X2000000Y1106689D01*
X2300000Y1106689D02*
G01*
X2181300Y1225390D01*
X2166890Y1225390D01*
X2166890Y1225390D02*
G01*
X2166890Y2271669D01*
X9500000Y1598429D02*
G01*
X8930000Y2168429D01*
X8930000Y2178000D01*
X9500000Y1598429D02*
G01*
X9457230Y1555659D01*
X9457230Y1149459D01*
X9500000Y1106689D01*
X3000000Y1598429D02*
G01*
X2900000Y1498429D01*
X2900000Y1106689D01*
X3250000Y1650000D02*
G01*
X3051570Y1650000D01*
X3000000Y1598429D01*
X5400000Y1598429D02*
G01*
X5300000Y1498429D01*
X5300000Y1106689D01*
X5547920Y1746350D02*
G01*
X5400000Y1598429D01*
X7800000Y1598429D02*
G01*
X8000000Y1398429D01*
X8000000Y1106689D01*
X8050000Y1650000D02*
G01*
X7851570Y1650000D01*
X7800000Y1598429D01*
X9750000Y1650000D02*
G01*
X9551570Y1650000D01*
X9500000Y1598429D01*
X500000Y1106689D02*
G01*
X500000Y1498429D01*
X600000Y1598429D01*
X1450000Y1156689D02*
G01*
X1400000Y1106689D01*
X1450000Y1350000D02*
G01*
X1450000Y1156689D01*
X1700000Y1106689D02*
G01*
X1500000Y1106689D01*
X1450000Y1156689D01*
X3850000Y1156689D02*
G01*
X3800000Y1106689D01*
X3850000Y1350000D02*
G01*
X3850000Y1156689D01*
X4100000Y1106689D02*
G01*
X3900000Y1106689D01*
X3850000Y1156689D01*
X6250000Y1156689D02*
G01*
X6200000Y1106689D01*
X6250000Y1350000D02*
G01*
X6250000Y1156689D01*
X6500000Y1106689D02*
G01*
X6300000Y1106689D01*
X6250000Y1156689D01*
X850000Y1650000D02*
G01*
X651570Y1650000D01*
X600000Y1598429D01*
X5650000Y1650000D02*
G01*
X5553649Y1746350D01*
X5547920Y1746350D01*
X5600000Y2550000D02*
G01*
X5557089Y2592910D01*
X5479210Y2592910D01*
X5457299Y2570999D01*
X5457299Y1836970D01*
X5547920Y1746350D01*
X8650000Y1350000D02*
G01*
X8600000Y1300000D01*
X8600000Y1106689D01*
X10350000Y1350000D02*
G01*
X10250000Y1450000D01*
X10250000Y1650000D01*
X9850000Y1350000D02*
G01*
X9850000Y1156689D01*
X9800000Y1106689D01*
X9950000Y1650000D02*
G01*
X9902590Y1697409D01*
X9797410Y1697409D01*
X9750000Y1650000D01*
X3950000Y1650000D02*
G01*
X3907500Y1650000D01*
X3907500Y1650000D02*
G01*
X3907500Y1660619D01*
X3188559Y2379560D01*
X2112520Y2379560D01*
X6350000Y1650000D02*
G01*
X6307500Y1650000D01*
X6307500Y1650000D02*
G01*
X6307500Y1639380D01*
X6274380Y1606260D01*
X6226289Y1606260D01*
X6200000Y1632550D01*
X6200000Y1662570D01*
X6168040Y1694529D01*
X5829099Y1694529D01*
X5800000Y1665430D01*
X5800000Y1636419D01*
X5771000Y1607420D01*
X5582219Y1607420D01*
X5539639Y1650000D01*
X1550000Y1692510D02*
G01*
X2112520Y2255030D01*
X2112520Y2379560D01*
X1550000Y1650000D02*
G01*
X1550000Y1692510D01*
X5700000Y2550000D02*
G01*
X5639880Y2610120D01*
X1941610Y2610120D01*
X1000000Y1668510D01*
X1000000Y1517120D01*
X850000Y1367120D01*
X850000Y1350000D01*
X1700000Y693310D02*
G01*
X1741419Y734729D01*
X1741419Y1123659D01*
X1691040Y1174040D01*
X1664229Y1174040D01*
X1500000Y1338270D01*
X1500000Y1362020D01*
X1306090Y1555929D01*
X1244070Y1555929D01*
X1150000Y1650000D01*
X3550000Y1650000D02*
G01*
X3800749Y1399250D01*
X3864189Y1399250D01*
X3900000Y1363440D01*
X3900000Y1336340D01*
X4086360Y1149980D01*
X4116509Y1149980D01*
X4142399Y1124090D01*
X4142399Y735709D01*
X4100000Y693310D01*
X8292690Y1585109D02*
G01*
X8493239Y1384560D01*
X8493239Y941280D01*
X8258779Y706819D01*
X8258779Y622010D01*
X8770349Y110439D01*
X8792720Y110439D01*
X8839040Y156759D01*
X8839040Y632350D01*
X8900000Y693310D01*
X8833789Y1600509D02*
G01*
X8833789Y1359520D01*
X9500000Y693310D01*
X8809690Y1575380D02*
G01*
X8809690Y1083620D01*
X9200000Y693310D01*
X8600000Y693310D02*
G01*
X8697550Y790859D01*
X8697550Y1368769D01*
X8482079Y1584239D01*
X8326189Y1584239D01*
X8260429Y1650000D01*
X8250000Y1650000D01*
X8300000Y693310D02*
G01*
X8550000Y943310D01*
X8550000Y1350000D01*
X8450000Y1350000D02*
G01*
X8000000Y900000D01*
X8000000Y693310D01*
X8350000Y1350000D02*
G01*
X8350000Y1343310D01*
X7700000Y693310D01*
X8250000Y1350000D02*
G01*
X8250000Y1297950D01*
X7645360Y693310D01*
X7400000Y693310D01*
X6500000Y693310D02*
G01*
X6538639Y731950D01*
X6538639Y1225419D01*
X6206390Y1557669D01*
X6042330Y1557669D01*
X5950000Y1650000D01*
X6088829Y1382120D02*
G01*
X6094409Y1376540D01*
X6094409Y979310D01*
X5860309Y745210D01*
X5860309Y671640D01*
X5877610Y654340D01*
X6161030Y654340D01*
X6200000Y693310D01*
X5850000Y1650000D02*
G01*
X5930000Y1570000D01*
X5930000Y1426999D01*
X6150000Y1350000D02*
G01*
X6150000Y943310D01*
X5900000Y693310D01*
X6050000Y1350000D02*
G01*
X5600000Y900000D01*
X5600000Y693310D01*
X5950000Y1350000D02*
G01*
X5300000Y700000D01*
X5300000Y693310D01*
X5850000Y1350000D02*
G01*
X5648980Y1148980D01*
X5455670Y1148980D01*
X5000000Y693310D01*
X3750000Y1650000D02*
G01*
X4700000Y700000D01*
X4700000Y693310D01*
X3800000Y693310D02*
G01*
X3700000Y793310D01*
X3700000Y1400000D01*
X3450000Y1650000D01*
X3500000Y693310D02*
G01*
X3542049Y651260D01*
X3818010Y651260D01*
X3842349Y675599D01*
X3842349Y985079D01*
X3750000Y1077429D01*
X3750000Y1350000D01*
X3650000Y1350000D02*
G01*
X3200000Y900000D01*
X3200000Y693310D01*
X3550000Y1350000D02*
G01*
X2900000Y700000D01*
X2900000Y693310D01*
X3450000Y1350000D02*
G01*
X3261080Y1161080D01*
X3067770Y1161080D01*
X2600000Y693310D01*
X1250000Y1650000D02*
G01*
X1300000Y1600000D01*
X1362389Y1600000D01*
X2000000Y962390D01*
X2000000Y693310D01*
X1100000Y693310D02*
G01*
X1142049Y651260D01*
X1418010Y651260D01*
X1442349Y675599D01*
X1442349Y985079D01*
X1350000Y1077429D01*
X1350000Y1350000D01*
X1250000Y1350000D02*
G01*
X800000Y900000D01*
X800000Y693310D01*
X1150000Y1350000D02*
G01*
X500000Y700000D01*
X500000Y693310D01*
X1050000Y1350000D02*
G01*
X861080Y1161080D01*
X667770Y1161080D01*
X200000Y693310D01*
X9950000Y1350000D02*
G01*
X9950000Y843310D01*
X9800000Y693310D01*
X10050000Y1350000D02*
G01*
X10050000Y743310D01*
X10100000Y693310D01*
X10150000Y1350000D02*
G01*
X10150000Y943310D01*
X10400000Y693310D01*
X10250000Y1350000D02*
G01*
X10700000Y900000D01*
X10700000Y693310D01*
X1400000Y693310D02*
G01*
X1300000Y793310D01*
X1300000Y1400000D01*
X1050000Y1650000D01*
X1350000Y1650000D02*
G01*
X2300000Y700000D01*
X2300000Y693310D01*
X3650000Y1650000D02*
G01*
X3742299Y1557699D01*
X3806319Y1557699D01*
X4400000Y964020D01*
X4400000Y693310D01*
X6377900Y1586869D02*
G01*
X7141009Y823760D01*
X7141009Y674479D01*
X7121189Y654659D01*
X6838649Y654659D01*
X6800000Y693310D01*
X6150000Y1650000D02*
G01*
X7100000Y700000D01*
X7100000Y693310D01*
X5500000Y2550000D02*
G01*
X5750000Y2300000D01*
X5750000Y1650000D01*
X950000Y1350000D02*
G01*
X950000Y1434499D01*
X961920Y1446419D01*
D11*
G01*
X600000Y1401579D03*
G01*
X600000Y1598429D03*
G01*
X3000000Y1401579D03*
G01*
X3000000Y1598429D03*
G01*
X5400000Y1401579D03*
G01*
X5400000Y1598429D03*
G01*
X7800000Y1401579D03*
G01*
X7800000Y1598429D03*
G01*
X9500000Y1401579D03*
G01*
X9500000Y1598429D03*
D12*
G01*
X200000Y693310D03*
G01*
X200000Y1106689D03*
G01*
X500000Y693310D03*
G01*
X500000Y1106689D03*
G01*
X800000Y693310D03*
G01*
X800000Y1106689D03*
G01*
X1100000Y693310D03*
G01*
X1100000Y1106689D03*
G01*
X1400000Y693310D03*
G01*
X1400000Y1106689D03*
G01*
X1700000Y693310D03*
G01*
X1700000Y1106689D03*
G01*
X2000000Y693310D03*
G01*
X2000000Y1106689D03*
G01*
X2300000Y693310D03*
G01*
X2300000Y1106689D03*
G01*
X2600000Y693310D03*
G01*
X2600000Y1106689D03*
G01*
X2900000Y693310D03*
G01*
X2900000Y1106689D03*
G01*
X3200000Y693310D03*
G01*
X3200000Y1106689D03*
G01*
X3500000Y693310D03*
G01*
X3500000Y1106689D03*
G01*
X3800000Y693310D03*
G01*
X3800000Y1106689D03*
G01*
X4100000Y693310D03*
G01*
X4100000Y1106689D03*
G01*
X4400000Y693310D03*
G01*
X4400000Y1106689D03*
G01*
X4700000Y693310D03*
G01*
X4700000Y1106689D03*
G01*
X5000000Y693310D03*
G01*
X5000000Y1106689D03*
G01*
X5300000Y693310D03*
G01*
X5300000Y1106689D03*
G01*
X5600000Y693310D03*
G01*
X5600000Y1106689D03*
G01*
X5900000Y693310D03*
G01*
X5900000Y1106689D03*
G01*
X6200000Y693310D03*
G01*
X6200000Y1106689D03*
G01*
X6500000Y693310D03*
G01*
X6500000Y1106689D03*
G01*
X6800000Y693310D03*
G01*
X6800000Y1106689D03*
G01*
X7100000Y693310D03*
G01*
X7100000Y1106689D03*
G01*
X7400000Y693310D03*
G01*
X7400000Y1106689D03*
G01*
X7700000Y693310D03*
G01*
X7700000Y1106689D03*
G01*
X8000000Y693310D03*
G01*
X8000000Y1106689D03*
G01*
X8300000Y693310D03*
G01*
X8300000Y1106689D03*
G01*
X8600000Y693310D03*
G01*
X8600000Y1106689D03*
G01*
X8900000Y693310D03*
G01*
X8900000Y1106689D03*
G01*
X9200000Y693310D03*
G01*
X9200000Y1106689D03*
G01*
X9500000Y693310D03*
G01*
X9500000Y1106689D03*
G01*
X9800000Y693310D03*
G01*
X9800000Y1106689D03*
G01*
X10100000Y693310D03*
G01*
X10100000Y1106689D03*
G01*
X10400000Y693310D03*
G01*
X10400000Y1106689D03*
G01*
X10700000Y693310D03*
G01*
X10700000Y1106689D03*
D11*
G01*
X1550000Y1350000D03*
G01*
X1450000Y1350000D03*
G01*
X1350000Y1350000D03*
G01*
X1250000Y1350000D03*
G01*
X1150000Y1350000D03*
G01*
X1050000Y1350000D03*
G01*
X950000Y1350000D03*
G01*
X850000Y1350000D03*
G01*
X850000Y1650000D03*
G01*
X950000Y1650000D03*
G01*
X1050000Y1650000D03*
G01*
X1150000Y1650000D03*
G01*
X1250000Y1650000D03*
G01*
X1350000Y1650000D03*
G01*
X1450000Y1650000D03*
D13*
G01*
X1550000Y1650000D03*
D11*
G01*
X3950000Y1350000D03*
G01*
X3850000Y1350000D03*
G01*
X3750000Y1350000D03*
G01*
X3650000Y1350000D03*
G01*
X3550000Y1350000D03*
G01*
X3450000Y1350000D03*
G01*
X3350000Y1350000D03*
G01*
X3250000Y1350000D03*
G01*
X3250000Y1650000D03*
G01*
X3350000Y1650000D03*
G01*
X3450000Y1650000D03*
G01*
X3550000Y1650000D03*
G01*
X3650000Y1650000D03*
G01*
X3750000Y1650000D03*
G01*
X3850000Y1650000D03*
D13*
G01*
X3950000Y1650000D03*
D11*
G01*
X6350000Y1350000D03*
G01*
X6250000Y1350000D03*
G01*
X6150000Y1350000D03*
G01*
X6050000Y1350000D03*
G01*
X5950000Y1350000D03*
G01*
X5850000Y1350000D03*
G01*
X5750000Y1350000D03*
G01*
X5650000Y1350000D03*
G01*
X5650000Y1650000D03*
G01*
X5750000Y1650000D03*
G01*
X5850000Y1650000D03*
G01*
X5950000Y1650000D03*
G01*
X6050000Y1650000D03*
G01*
X6150000Y1650000D03*
G01*
X6250000Y1650000D03*
D13*
G01*
X6350000Y1650000D03*
D11*
G01*
X8750000Y1350000D03*
G01*
X8650000Y1350000D03*
G01*
X8550000Y1350000D03*
G01*
X8450000Y1350000D03*
G01*
X8350000Y1350000D03*
G01*
X8250000Y1350000D03*
G01*
X8150000Y1350000D03*
G01*
X8050000Y1350000D03*
G01*
X8050000Y1650000D03*
G01*
X8150000Y1650000D03*
G01*
X8250000Y1650000D03*
G01*
X8350000Y1650000D03*
G01*
X8450000Y1650000D03*
G01*
X8550000Y1650000D03*
G01*
X8650000Y1650000D03*
D13*
G01*
X8750000Y1650000D03*
D11*
G01*
X10450000Y1350000D03*
G01*
X10350000Y1350000D03*
G01*
X10250000Y1350000D03*
G01*
X10150000Y1350000D03*
G01*
X10050000Y1350000D03*
G01*
X9950000Y1350000D03*
G01*
X9850000Y1350000D03*
G01*
X9750000Y1350000D03*
G01*
X9750000Y1650000D03*
G01*
X9850000Y1650000D03*
G01*
X9950000Y1650000D03*
G01*
X10050000Y1650000D03*
G01*
X10150000Y1650000D03*
G01*
X10250000Y1650000D03*
G01*
X10350000Y1650000D03*
D13*
G01*
X10450000Y1650000D03*
D14*
G01*
X5700000Y2550000D03*
G01*
X5600000Y2550000D03*
G01*
X5500000Y2550000D03*
G01*
X5400000Y2550000D03*
G01*
X5300000Y2550000D03*
D15*
G01*
X5200000Y2550000D03*
D16*
G01*
X8738059Y2379560D03*
G01*
X2435060Y2311210D03*
G01*
X8779440Y138580D03*
G01*
X8673469Y2319340D03*
G01*
X2166890Y2271669D03*
G01*
X8930000Y2178000D03*
G01*
X5539639Y1650000D03*
G01*
X2112520Y2379560D03*
G01*
X8292690Y1585109D03*
G01*
X8833789Y1600509D03*
G01*
X8809690Y1575380D03*
G01*
X6088829Y1382120D03*
G01*
X5930000Y1426999D03*
G01*
X6377900Y1586869D03*
G01*
X961920Y1446419D03*
M02*
