G04 Layer: TopSilkscreenLayer*
G04 EasyEDA v6.5.40, 2024-08-17 15:48:36*
G04 cb6e2e9fbd21486d88ae5690d2d3dc00,10*
G04 Gerber Generator version 0.2*
G04 Scale: 100 percent, Rotated: No, Reflected: No *
G04 Dimensions in millimeters *
G04 leading zeros omitted , absolute positions ,4 integer and 5 decimal *
%FSLAX45Y45*%
%MOMM*%

%ADD10C,0.1524*%
%ADD11C,0.2540*%
%ADD12C,0.1520*%
%ADD13C,0.1000*%
%ADD14C,0.2032*%
%ADD15C,0.2030*%
%ADD16C,0.3000*%
%ADD17C,0.0114*%

%LPD*%
D10*
X3352802Y3353815D02*
G01*
X3352802Y3275837D01*
X3357882Y3260344D01*
X3368296Y3249929D01*
X3384044Y3244850D01*
X3394458Y3244850D01*
X3409952Y3249929D01*
X3420366Y3260344D01*
X3425446Y3275837D01*
X3425446Y3353815D01*
X3459736Y3332987D02*
G01*
X3470150Y3338321D01*
X3485898Y3353815D01*
X3485898Y3244850D01*
X2348994Y2211578D02*
G01*
X2338580Y2206244D01*
X2328166Y2195829D01*
X2323086Y2185670D01*
X2323086Y2164842D01*
X2328166Y2154428D01*
X2338580Y2144013D01*
X2348994Y2138679D01*
X2364742Y2133600D01*
X2390650Y2133600D01*
X2406144Y2138679D01*
X2416558Y2144013D01*
X2426972Y2154428D01*
X2432052Y2164842D01*
X2432052Y2185670D01*
X2426972Y2195829D01*
X2416558Y2206244D01*
X2406144Y2211578D01*
X2343914Y2245868D02*
G01*
X2338580Y2256281D01*
X2323086Y2271776D01*
X2432052Y2271776D01*
X1840994Y2211578D02*
G01*
X1830580Y2206244D01*
X1820166Y2195829D01*
X1815086Y2185670D01*
X1815086Y2164842D01*
X1820166Y2154428D01*
X1830580Y2144013D01*
X1840994Y2138679D01*
X1856742Y2133600D01*
X1882650Y2133600D01*
X1898144Y2138679D01*
X1908558Y2144013D01*
X1918972Y2154428D01*
X1924052Y2164842D01*
X1924052Y2185670D01*
X1918972Y2195829D01*
X1908558Y2206244D01*
X1898144Y2211578D01*
X1840994Y2250947D02*
G01*
X1835914Y2250947D01*
X1825500Y2256281D01*
X1820166Y2261362D01*
X1815086Y2271776D01*
X1815086Y2292604D01*
X1820166Y2303018D01*
X1825500Y2308097D01*
X1835914Y2313431D01*
X1846328Y2313431D01*
X1856742Y2308097D01*
X1872236Y2297684D01*
X1924052Y2245868D01*
X1924052Y2318512D01*
X3315210Y1865121D02*
G01*
X3325624Y1870455D01*
X3336038Y1880870D01*
X3341118Y1891029D01*
X3341118Y1911857D01*
X3336038Y1922271D01*
X3325624Y1932686D01*
X3315210Y1938020D01*
X3299462Y1943100D01*
X3273554Y1943100D01*
X3258060Y1938020D01*
X3247646Y1932686D01*
X3237232Y1922271D01*
X3232152Y1911857D01*
X3232152Y1891029D01*
X3237232Y1880870D01*
X3247646Y1870455D01*
X3258060Y1865121D01*
X3341118Y1820418D02*
G01*
X3341118Y1763268D01*
X3299462Y1794510D01*
X3299462Y1779015D01*
X3294382Y1768602D01*
X3289302Y1763268D01*
X3273554Y1758187D01*
X3263140Y1758187D01*
X3247646Y1763268D01*
X3237232Y1773681D01*
X3232152Y1789429D01*
X3232152Y1804923D01*
X3237232Y1820418D01*
X3242312Y1825752D01*
X3252726Y1830831D01*
X4331210Y1865121D02*
G01*
X4341624Y1870455D01*
X4352038Y1880870D01*
X4357118Y1891029D01*
X4357118Y1911857D01*
X4352038Y1922271D01*
X4341624Y1932686D01*
X4331210Y1938020D01*
X4315462Y1943100D01*
X4289554Y1943100D01*
X4274060Y1938020D01*
X4263646Y1932686D01*
X4253232Y1922271D01*
X4248152Y1911857D01*
X4248152Y1891029D01*
X4253232Y1880870D01*
X4263646Y1870455D01*
X4274060Y1865121D01*
X4357118Y1779015D02*
G01*
X4284474Y1830831D01*
X4284474Y1752854D01*
X4357118Y1779015D02*
G01*
X4248152Y1779015D01*
X824994Y2211578D02*
G01*
X814580Y2206244D01*
X804166Y2195829D01*
X799086Y2185670D01*
X799086Y2164842D01*
X804166Y2154428D01*
X814580Y2144013D01*
X824994Y2138679D01*
X840742Y2133600D01*
X866650Y2133600D01*
X882144Y2138679D01*
X892558Y2144013D01*
X902972Y2154428D01*
X908052Y2164842D01*
X908052Y2185670D01*
X902972Y2195829D01*
X892558Y2206244D01*
X882144Y2211578D01*
X799086Y2308097D02*
G01*
X799086Y2256281D01*
X845822Y2250947D01*
X840742Y2256281D01*
X835408Y2271776D01*
X835408Y2287270D01*
X840742Y2303018D01*
X850902Y2313431D01*
X866650Y2318512D01*
X877064Y2318512D01*
X892558Y2313431D01*
X902972Y2303018D01*
X908052Y2287270D01*
X908052Y2271776D01*
X902972Y2256281D01*
X897892Y2250947D01*
X887478Y2245868D01*
X1332994Y2211578D02*
G01*
X1322580Y2206244D01*
X1312166Y2195829D01*
X1307086Y2185670D01*
X1307086Y2164842D01*
X1312166Y2154428D01*
X1322580Y2144013D01*
X1332994Y2138679D01*
X1348742Y2133600D01*
X1374650Y2133600D01*
X1390144Y2138679D01*
X1400558Y2144013D01*
X1410972Y2154428D01*
X1416052Y2164842D01*
X1416052Y2185670D01*
X1410972Y2195829D01*
X1400558Y2206244D01*
X1390144Y2211578D01*
X1322580Y2308097D02*
G01*
X1312166Y2303018D01*
X1307086Y2287270D01*
X1307086Y2277110D01*
X1312166Y2261362D01*
X1327914Y2250947D01*
X1353822Y2245868D01*
X1379730Y2245868D01*
X1400558Y2250947D01*
X1410972Y2261362D01*
X1416052Y2277110D01*
X1416052Y2282189D01*
X1410972Y2297684D01*
X1400558Y2308097D01*
X1385064Y2313431D01*
X1379730Y2313431D01*
X1364236Y2308097D01*
X1353822Y2297684D01*
X1348742Y2282189D01*
X1348742Y2277110D01*
X1353822Y2261362D01*
X1364236Y2250947D01*
X1379730Y2245868D01*
X316994Y2211578D02*
G01*
X306580Y2206244D01*
X296166Y2195829D01*
X291086Y2185670D01*
X291086Y2164842D01*
X296166Y2154428D01*
X306580Y2144013D01*
X316994Y2138679D01*
X332742Y2133600D01*
X358650Y2133600D01*
X374144Y2138679D01*
X384558Y2144013D01*
X394972Y2154428D01*
X400052Y2164842D01*
X400052Y2185670D01*
X394972Y2195829D01*
X384558Y2206244D01*
X374144Y2211578D01*
X291086Y2318512D02*
G01*
X400052Y2266695D01*
X291086Y2245868D02*
G01*
X291086Y2318512D01*
X1038900Y2551684D02*
G01*
X1038900Y2660650D01*
X1038900Y2551684D02*
G01*
X1002578Y2551684D01*
X986830Y2556763D01*
X976670Y2567178D01*
X971336Y2577592D01*
X966256Y2593339D01*
X966256Y2619247D01*
X971336Y2634742D01*
X976670Y2645155D01*
X986830Y2655570D01*
X1002578Y2660650D01*
X1038900Y2660650D01*
X931966Y2572512D02*
G01*
X921552Y2567178D01*
X905804Y2551684D01*
X905804Y2660650D01*
X1963193Y2838488D02*
G01*
X1885215Y2838488D01*
X1869721Y2833408D01*
X1859307Y2822994D01*
X1854227Y2807246D01*
X1854227Y2796832D01*
X1859307Y2781338D01*
X1869721Y2770924D01*
X1885215Y2765844D01*
X1963193Y2765844D01*
X1963193Y2721140D02*
G01*
X1963193Y2663990D01*
X1921537Y2694978D01*
X1921537Y2679484D01*
X1916457Y2669070D01*
X1911377Y2663990D01*
X1895629Y2658656D01*
X1885215Y2658656D01*
X1869721Y2663990D01*
X1859307Y2674404D01*
X1854227Y2689898D01*
X1854227Y2705392D01*
X1859307Y2721140D01*
X1864387Y2726220D01*
X1874801Y2731554D01*
X3632202Y2210815D02*
G01*
X3704846Y2101850D01*
X3704846Y2210815D02*
G01*
X3632202Y2101850D01*
X3739136Y2189987D02*
G01*
X3749550Y2195321D01*
X3765298Y2210815D01*
X3765298Y2101850D01*
X1894027Y867448D02*
G01*
X1894027Y789470D01*
X1899107Y773976D01*
X1909521Y763562D01*
X1925269Y758482D01*
X1935683Y758482D01*
X1951177Y763562D01*
X1961591Y773976D01*
X1966671Y789470D01*
X1966671Y867448D01*
X2073859Y851954D02*
G01*
X2063445Y862368D01*
X2047697Y867448D01*
X2027123Y867448D01*
X2011375Y862368D01*
X2000961Y851954D01*
X2000961Y841540D01*
X2006295Y831126D01*
X2011375Y825792D01*
X2021789Y820712D01*
X2053031Y810298D01*
X2063445Y805218D01*
X2068525Y799884D01*
X2073859Y789470D01*
X2073859Y773976D01*
X2063445Y763562D01*
X2047697Y758482D01*
X2027123Y758482D01*
X2011375Y763562D01*
X2000961Y773976D01*
X2108149Y867448D02*
G01*
X2108149Y758482D01*
X2108149Y867448D02*
G01*
X2154885Y867448D01*
X2170379Y862368D01*
X2175713Y857034D01*
X2180793Y846620D01*
X2180793Y836206D01*
X2175713Y825792D01*
X2170379Y820712D01*
X2154885Y815632D01*
X2108149Y815632D02*
G01*
X2154885Y815632D01*
X2170379Y810298D01*
X2175713Y805218D01*
X2180793Y794804D01*
X2180793Y779056D01*
X2175713Y768642D01*
X2170379Y763562D01*
X2154885Y758482D01*
X2108149Y758482D01*
X2215083Y846620D02*
G01*
X2225497Y851954D01*
X2240991Y867448D01*
X2240991Y758482D01*
X2719580Y953007D02*
G01*
X2714246Y963421D01*
X2703832Y973836D01*
X2693672Y978915D01*
X2672844Y978915D01*
X2662430Y973836D01*
X2652016Y963421D01*
X2646682Y953007D01*
X2641602Y937260D01*
X2641602Y911352D01*
X2646682Y895857D01*
X2652016Y885444D01*
X2662430Y875029D01*
X2672844Y869950D01*
X2693672Y869950D01*
X2703832Y875029D01*
X2714246Y885444D01*
X2719580Y895857D01*
X2779778Y978915D02*
G01*
X2764284Y973836D01*
X2758950Y963421D01*
X2758950Y953007D01*
X2764284Y942594D01*
X2774698Y937260D01*
X2795272Y932179D01*
X2811020Y927100D01*
X2821434Y916686D01*
X2826514Y906271D01*
X2826514Y890523D01*
X2821434Y880110D01*
X2816100Y875029D01*
X2800606Y869950D01*
X2779778Y869950D01*
X2764284Y875029D01*
X2758950Y880110D01*
X2753870Y890523D01*
X2753870Y906271D01*
X2758950Y916686D01*
X2769364Y927100D01*
X2785112Y932179D01*
X2805686Y937260D01*
X2816100Y942594D01*
X2821434Y953007D01*
X2821434Y963421D01*
X2816100Y973836D01*
X2800606Y978915D01*
X2779778Y978915D01*
X2667002Y1307084D02*
G01*
X2667002Y1416050D01*
X2667002Y1307084D02*
G01*
X2620266Y1307084D01*
X2604772Y1312163D01*
X2599438Y1317497D01*
X2594358Y1327912D01*
X2594358Y1338326D01*
X2599438Y1348739D01*
X2604772Y1353820D01*
X2620266Y1358900D01*
X2667002Y1358900D01*
X2630680Y1358900D02*
G01*
X2594358Y1416050D01*
X2560068Y1327912D02*
G01*
X2549654Y1322578D01*
X2533906Y1307084D01*
X2533906Y1416050D01*
X2005332Y3554984D02*
G01*
X2005332Y3638042D01*
X2010666Y3653789D01*
X2015746Y3658870D01*
X2026160Y3663950D01*
X2036574Y3663950D01*
X2046988Y3658870D01*
X2052322Y3653789D01*
X2057402Y3638042D01*
X2057402Y3627628D01*
X1971042Y3575812D02*
G01*
X1960882Y3570478D01*
X1945134Y3554984D01*
X1945134Y3663950D01*
X849632Y3567684D02*
G01*
X849632Y3650742D01*
X854966Y3666489D01*
X860046Y3671570D01*
X870460Y3676650D01*
X880874Y3676650D01*
X891288Y3671570D01*
X896622Y3666489D01*
X901702Y3650742D01*
X901702Y3640328D01*
X810262Y3593592D02*
G01*
X810262Y3588512D01*
X805182Y3578097D01*
X799848Y3572763D01*
X789434Y3567684D01*
X768606Y3567684D01*
X758192Y3572763D01*
X753112Y3578097D01*
X748032Y3588512D01*
X748032Y3598926D01*
X753112Y3609339D01*
X763526Y3624834D01*
X815342Y3676650D01*
X742698Y3676650D01*
X-155013Y1318260D02*
G01*
X-71955Y1318260D01*
X-56207Y1312926D01*
X-51127Y1307845D01*
X-46047Y1297431D01*
X-46047Y1287018D01*
X-51127Y1276604D01*
X-56207Y1271270D01*
X-71955Y1266189D01*
X-82369Y1266189D01*
X-155013Y1362710D02*
G01*
X-155013Y1419860D01*
X-113357Y1388871D01*
X-113357Y1404365D01*
X-108277Y1414779D01*
X-103197Y1419860D01*
X-87449Y1425194D01*
X-77035Y1425194D01*
X-61541Y1419860D01*
X-51127Y1409700D01*
X-46047Y1393952D01*
X-46047Y1378457D01*
X-51127Y1362710D01*
X-56207Y1357629D01*
X-66621Y1352550D01*
X3950731Y723912D02*
G01*
X3841765Y723912D01*
X3950731Y651268D02*
G01*
X3878087Y723912D01*
X3903995Y698004D02*
G01*
X3841765Y651268D01*
X3950731Y616978D02*
G01*
X3841765Y616978D01*
X3950731Y616978D02*
G01*
X3950731Y549414D01*
X3898915Y616978D02*
G01*
X3898915Y575322D01*
X3841765Y616978D02*
G01*
X3841765Y549414D01*
X3950731Y515124D02*
G01*
X3898915Y473468D01*
X3841765Y473468D01*
X3950731Y431812D02*
G01*
X3898915Y473468D01*
X3929903Y397522D02*
G01*
X3935237Y387362D01*
X3950731Y371614D01*
X3841765Y371614D01*
X3971559Y301002D02*
G01*
X3961145Y311416D01*
X3945651Y321830D01*
X3924823Y332244D01*
X3898915Y337324D01*
X3878087Y337324D01*
X3851925Y332244D01*
X3831351Y321830D01*
X3815603Y311416D01*
X3805189Y301002D01*
X3950731Y266712D02*
G01*
X3841765Y266712D01*
X3950731Y266712D02*
G01*
X3950731Y219976D01*
X3945651Y204482D01*
X3940317Y199148D01*
X3929903Y194068D01*
X3919489Y194068D01*
X3909075Y199148D01*
X3903995Y204482D01*
X3898915Y219976D01*
X3898915Y266712D01*
X3898915Y230390D02*
G01*
X3841765Y194068D01*
X3950731Y159778D02*
G01*
X3841765Y159778D01*
X3950731Y159778D02*
G01*
X3950731Y92214D01*
X3898915Y159778D02*
G01*
X3898915Y118122D01*
X3841765Y159778D02*
G01*
X3841765Y92214D01*
X3935237Y-14973D02*
G01*
X3945651Y-4559D01*
X3950731Y11188D01*
X3950731Y31762D01*
X3945651Y47510D01*
X3935237Y57924D01*
X3924823Y57924D01*
X3914409Y52590D01*
X3909075Y47510D01*
X3903995Y37096D01*
X3893581Y5854D01*
X3888501Y-4559D01*
X3883167Y-9639D01*
X3872753Y-14973D01*
X3857259Y-14973D01*
X3846845Y-4559D01*
X3841765Y11188D01*
X3841765Y31762D01*
X3846845Y47510D01*
X3857259Y57924D01*
X3950731Y-49263D02*
G01*
X3841765Y-49263D01*
X3950731Y-49263D02*
G01*
X3950731Y-116827D01*
X3898915Y-49263D02*
G01*
X3898915Y-90665D01*
X3841765Y-49263D02*
G01*
X3841765Y-116827D01*
X3950731Y-187439D02*
G01*
X3841765Y-187439D01*
X3950731Y-151117D02*
G01*
X3950731Y-223761D01*
X3971559Y-258051D02*
G01*
X3961145Y-268465D01*
X3945651Y-278879D01*
X3924823Y-289293D01*
X3898915Y-294373D01*
X3878087Y-294373D01*
X3851925Y-289293D01*
X3831351Y-278879D01*
X3815603Y-268465D01*
X3805189Y-258051D01*
X5728718Y2044700D02*
G01*
X5619752Y2044700D01*
X5728718Y2044700D02*
G01*
X5728718Y1997963D01*
X5723638Y1982470D01*
X5718304Y1977136D01*
X5707890Y1972055D01*
X5697476Y1972055D01*
X5687062Y1977136D01*
X5681982Y1982470D01*
X5676902Y1997963D01*
X5676902Y2044700D01*
X5676902Y2008378D02*
G01*
X5619752Y1972055D01*
X5728718Y1937765D02*
G01*
X5619752Y1937765D01*
X5728718Y1937765D02*
G01*
X5728718Y1891029D01*
X5723638Y1875281D01*
X5718304Y1870202D01*
X5707890Y1864868D01*
X5692396Y1864868D01*
X5681982Y1870202D01*
X5676902Y1875281D01*
X5671568Y1891029D01*
X5671568Y1937765D01*
X5707890Y1830578D02*
G01*
X5713224Y1820163D01*
X5728718Y1804670D01*
X5619752Y1804670D01*
G36*
X1093520Y2748991D02*
G01*
X1093520Y2713736D01*
X1124000Y2713736D01*
X1124000Y2748991D01*
G37*
G36*
X1093520Y2874264D02*
G01*
X1093520Y2839008D01*
X1124000Y2839008D01*
X1124000Y2874264D01*
G37*
X3045581Y2629560D02*
G01*
X3045581Y2983839D01*
X3710823Y2983839D01*
X3710823Y2629560D01*
X3045581Y2629560D01*
D11*
X2500025Y2298001D02*
G01*
X2580027Y2298001D01*
X2469040Y2187026D02*
G01*
X2469040Y2267023D01*
X2611005Y2187026D02*
G01*
X2611005Y2267023D01*
X2468458Y2129436D02*
G01*
X2468458Y2049437D01*
X2499441Y2018454D02*
G01*
X2579438Y2018454D01*
X2610418Y2129436D02*
G01*
X2610418Y2049437D01*
X1992025Y2298001D02*
G01*
X2072027Y2298001D01*
X1961040Y2187026D02*
G01*
X1961040Y2267023D01*
X2103005Y2187026D02*
G01*
X2103005Y2267023D01*
X1960458Y2129436D02*
G01*
X1960458Y2049437D01*
X1991441Y2018454D02*
G01*
X2071438Y2018454D01*
X2102418Y2129436D02*
G01*
X2102418Y2049437D01*
X3164179Y1778698D02*
G01*
X3084177Y1778698D01*
X3195165Y1889673D02*
G01*
X3195165Y1809676D01*
X3053199Y1889673D02*
G01*
X3053199Y1809676D01*
X3195746Y1947263D02*
G01*
X3195746Y2027262D01*
X3164763Y2058245D02*
G01*
X3084766Y2058245D01*
X3053786Y1947263D02*
G01*
X3053786Y2027262D01*
X4180179Y1778698D02*
G01*
X4100177Y1778698D01*
X4211165Y1889673D02*
G01*
X4211165Y1809676D01*
X4069199Y1889673D02*
G01*
X4069199Y1809676D01*
X4211746Y1947263D02*
G01*
X4211746Y2027262D01*
X4180763Y2058245D02*
G01*
X4100766Y2058245D01*
X4069786Y1947263D02*
G01*
X4069786Y2027262D01*
X976025Y2298001D02*
G01*
X1056027Y2298001D01*
X945040Y2187026D02*
G01*
X945040Y2267023D01*
X1087005Y2187026D02*
G01*
X1087005Y2267023D01*
X944458Y2129436D02*
G01*
X944458Y2049437D01*
X975441Y2018454D02*
G01*
X1055438Y2018454D01*
X1086418Y2129436D02*
G01*
X1086418Y2049437D01*
X1484025Y2298001D02*
G01*
X1564027Y2298001D01*
X1453040Y2187026D02*
G01*
X1453040Y2267023D01*
X1595005Y2187026D02*
G01*
X1595005Y2267023D01*
X1452458Y2129436D02*
G01*
X1452458Y2049437D01*
X1483441Y2018454D02*
G01*
X1563438Y2018454D01*
X1594418Y2129436D02*
G01*
X1594418Y2049437D01*
X468025Y2298001D02*
G01*
X548027Y2298001D01*
X437040Y2187026D02*
G01*
X437040Y2267023D01*
X579005Y2187026D02*
G01*
X579005Y2267023D01*
X436458Y2129436D02*
G01*
X436458Y2049437D01*
X467441Y2018454D02*
G01*
X547438Y2018454D01*
X578418Y2129436D02*
G01*
X578418Y2049437D01*
D12*
X925878Y2866621D02*
G01*
X925878Y2845998D01*
X925878Y2721378D02*
G01*
X925878Y2741000D01*
D10*
X1101123Y2721378D02*
G01*
X925878Y2721378D01*
X1101123Y2866621D02*
G01*
X925878Y2866621D01*
X1060678Y2721378D02*
G01*
X1060678Y2866621D01*
D13*
X1510591Y2742102D02*
G01*
X1495996Y2742102D01*
X1605589Y2742102D02*
G01*
X1601421Y2742102D01*
X1700583Y2742102D02*
G01*
X1696417Y2742102D01*
X1805998Y2742102D02*
G01*
X1791413Y2742102D01*
X1510591Y2922104D02*
G01*
X1495996Y2922104D01*
X1700583Y2922104D02*
G01*
X1601419Y2922104D01*
X1805998Y2922104D02*
G01*
X1791411Y2922104D01*
X1805998Y2922104D02*
G01*
X1805998Y2742102D01*
X1495996Y2922104D02*
G01*
X1495996Y2742102D01*
D11*
X3797302Y1765300D02*
G01*
X3467102Y1765300D01*
X3797302Y2070100D02*
G01*
X3467102Y2070100D01*
X2303983Y78701D02*
G01*
X2342692Y36664D01*
X2313330Y36664D01*
X2282850Y69684D01*
X1520088Y69684D01*
X1484528Y31584D01*
X1468094Y31584D01*
X1468094Y36664D01*
X1503984Y78701D01*
X1504975Y628713D02*
G01*
X1729308Y628713D01*
X2080640Y628713D02*
G01*
X2294973Y628713D01*
X1504975Y628713D02*
G01*
X1504975Y431812D01*
X1504975Y175577D02*
G01*
X1504975Y78701D01*
X2294973Y628713D02*
G01*
X2294973Y431812D01*
X2294973Y175577D02*
G01*
X2294973Y78701D01*
X1505000Y113200D02*
G01*
X2294999Y113200D01*
X2806004Y801977D02*
G01*
X2806004Y721974D01*
X2695028Y832962D02*
G01*
X2775026Y832962D01*
X2695028Y690996D02*
G01*
X2775026Y690996D01*
X2637439Y833544D02*
G01*
X2557439Y833544D01*
X2526456Y802561D02*
G01*
X2526456Y722563D01*
X2637439Y691583D02*
G01*
X2557439Y691583D01*
D10*
X2624381Y1590060D02*
G01*
X2528493Y1590060D01*
X2528493Y1457939D01*
X2624381Y1457939D01*
X2709623Y1590060D02*
G01*
X2805511Y1590060D01*
X2805511Y1457939D01*
X2709623Y1457939D01*
D14*
X2476502Y3695700D02*
G01*
X2667002Y3695700D01*
X2667002Y3949700D01*
X1397002Y3949700D01*
X1397002Y3695700D01*
D15*
X1397002Y3695700D02*
G01*
X2476502Y3695700D01*
X635002Y3695700D02*
G01*
X952502Y3695700D01*
D14*
X635002Y3695700D02*
G01*
X635002Y3949700D01*
X1143002Y3949700D01*
X1143002Y3695700D01*
X952502Y3695700D01*
D11*
X275081Y1015111D02*
G01*
X5082Y1015111D01*
X5082Y1515110D01*
X275081Y1515110D01*
X276862Y963929D02*
G01*
X392107Y963929D01*
X588337Y963929D02*
G01*
X1088067Y963929D01*
X1284297Y963929D02*
G01*
X1406862Y963929D01*
X1406862Y963929D02*
G01*
X1406862Y1563931D01*
X1406862Y1563931D02*
G01*
X786457Y1563931D01*
X590227Y1563931D02*
G01*
X276862Y1563931D01*
X276862Y1563931D02*
G01*
X276862Y963929D01*
X3805214Y1023912D02*
G01*
X3805214Y423913D01*
X3205241Y1023912D02*
G01*
X3805240Y1023912D01*
X3205215Y423913D02*
G01*
X3205215Y1023912D01*
X3805214Y423913D02*
G01*
X3205215Y423913D01*
X4572002Y2831896D02*
G01*
X5572000Y2831896D01*
X5572000Y1231900D01*
X4572002Y1231900D01*
X4572002Y2831896D01*
G75*
G01*
X2499441Y2018449D02*
G02*
X2468458Y2049432I0J30983D01*
G75*
G01*
X2610424Y2049432D02*
G02*
X2579439Y2018449I-30983J0D01*
G75*
G01*
X2469040Y2267019D02*
G02*
X2500025Y2298001I30983J0D01*
G75*
G01*
X2580023Y2298001D02*
G02*
X2611006Y2267019I0J-30982D01*
G75*
G01*
X1991441Y2018449D02*
G02*
X1960458Y2049432I0J30983D01*
G75*
G01*
X2102424Y2049432D02*
G02*
X2071439Y2018449I-30983J0D01*
G75*
G01*
X1961040Y2267019D02*
G02*
X1992025Y2298001I30983J0D01*
G75*
G01*
X2072023Y2298001D02*
G02*
X2103006Y2267019I0J-30982D01*
G75*
G01*
X3164764Y2058251D02*
G02*
X3195747Y2027268I0J-30983D01*
G75*
G01*
X3053781Y2027268D02*
G02*
X3084767Y2058251I30983J0D01*
G75*
G01*
X3195165Y1809681D02*
G02*
X3164180Y1778699I-30983J0D01*
G75*
G01*
X3084182Y1778699D02*
G02*
X3053199Y1809681I0J30982D01*
G75*
G01*
X4180764Y2058251D02*
G02*
X4211747Y2027268I0J-30983D01*
G75*
G01*
X4069781Y2027268D02*
G02*
X4100767Y2058251I30983J0D01*
G75*
G01*
X4211165Y1809681D02*
G02*
X4180180Y1778699I-30983J0D01*
G75*
G01*
X4100182Y1778699D02*
G02*
X4069199Y1809681I0J30982D01*
G75*
G01*
X975441Y2018449D02*
G02*
X944458Y2049432I0J30983D01*
G75*
G01*
X1086424Y2049432D02*
G02*
X1055439Y2018449I-30983J0D01*
G75*
G01*
X945040Y2267019D02*
G02*
X976025Y2298001I30983J0D01*
G75*
G01*
X1056023Y2298001D02*
G02*
X1087006Y2267019I0J-30982D01*
G75*
G01*
X1483441Y2018449D02*
G02*
X1452458Y2049432I0J30983D01*
G75*
G01*
X1594424Y2049432D02*
G02*
X1563439Y2018449I-30983J0D01*
G75*
G01*
X1453040Y2267019D02*
G02*
X1484025Y2298001I30983J0D01*
G75*
G01*
X1564023Y2298001D02*
G02*
X1595006Y2267019I0J-30982D01*
G75*
G01*
X467441Y2018449D02*
G02*
X436458Y2049432I0J30983D01*
G75*
G01*
X578424Y2049432D02*
G02*
X547439Y2018449I-30983J0D01*
G75*
G01*
X437040Y2267019D02*
G02*
X468025Y2298001I30983J0D01*
G75*
G01*
X548023Y2298001D02*
G02*
X579006Y2267019I0J-30982D01*
G75*
G01*
X2526452Y802561D02*
G02*
X2557435Y833544I30983J0D01*
G75*
G01*
X2557435Y691578D02*
G02*
X2526452Y722564I0J30983D01*
G75*
G01*
X2775021Y832963D02*
G02*
X2806004Y801977I0J-30983D01*
G75*
G01*
X2806004Y721980D02*
G02*
X2775021Y690997I-30983J0D01*
D16*
G75*
G01
X3100708Y2704795D02*
G03X3100708Y2704795I-15011J0D01*
G75*
G01
X3037284Y2519604D02*
G03X3037284Y2519604I-15011J0D01*
D13*
G75*
G01
X1498603Y2679725D02*
G03X1498603Y2679725I-12700J0D01*
D11*
G75*
G01
X3759215Y939813D02*
G03X3759215Y939813I-38100J0D01*
G75*
G01
X3759215Y508013D02*
G03X3759215Y508013I-38100J0D01*
G75*
G01
X3340115Y927113D02*
G03X3340115Y927113I-38100J0D01*
G75*
G01
X3340115Y520713D02*
G03X3340115Y520713I-38100J0D01*
G75*
G01
X3683015Y723913D02*
G03X3683015Y723913I-177800J0D01*
G75*
G01
X3632215Y723913D02*
G03X3632215Y723913I-127000J0D01*
G75*
G01
X4772002Y2631897D02*
G03X4772002Y2631897I-50013J0D01*
M02*
