G04 Layer: TopLayer*
G04 EasyEDA v6.5.40, 2024-08-17 15:48:36*
G04 cb6e2e9fbd21486d88ae5690d2d3dc00,10*
G04 Gerber Generator version 0.2*
G04 Scale: 100 percent, Rotated: No, Reflected: No *
G04 Dimensions in millimeters *
G04 leading zeros omitted , absolute positions ,4 integer and 5 decimal *
%FSLAX45Y45*%
%MOMM*%

%AMMACRO1*21,1,$1,$2,0,0,$3*%
%ADD10C,0.1000*%
%ADD11C,0.2540*%
%ADD12O,0.36400740000000004X1.7420082*%
%ADD13R,0.9000X0.8000*%
%ADD14R,1.0000X0.7500*%
%ADD15R,0.6000X1.1000*%
%ADD16MACRO1,1.5X2.7X0.0000*%
%ADD17R,0.4500X2.0000*%
%ADD18R,1.9000X2.1000*%
%ADD19R,0.8000X0.9000*%
%ADD20MACRO1,0.864X0.8065X-90.0000*%
%ADD21R,1.5000X4.0000*%
%ADD22R,1.0000X2.0000*%
%ADD23C,1.5748*%
%ADD24R,1.5748X1.5748*%
%ADD25R,1.7000X1.5748*%
%ADD26C,1.7000*%
%ADD27C,2.5000*%
%ADD28C,0.6100*%
%ADD29C,0.0148*%

%LPD*%
D10*
X725426Y3162554D02*
G01*
X716536Y3153410D01*
X711964Y3139694D01*
X711964Y3121405D01*
X716536Y3107944D01*
X725426Y3098800D01*
X734570Y3098800D01*
X743714Y3103371D01*
X748286Y3107944D01*
X752858Y3117087D01*
X762002Y3144265D01*
X766320Y3153410D01*
X770892Y3157981D01*
X780036Y3162554D01*
X793752Y3162554D01*
X802896Y3153410D01*
X807468Y3139694D01*
X807468Y3121405D01*
X802896Y3107944D01*
X793752Y3098800D01*
X711964Y3192526D02*
G01*
X807468Y3215131D01*
X711964Y3237992D02*
G01*
X807468Y3215131D01*
X711964Y3237992D02*
G01*
X807468Y3260597D01*
X711964Y3283457D02*
G01*
X807468Y3260597D01*
X734570Y3381502D02*
G01*
X725426Y3376929D01*
X716536Y3367786D01*
X711964Y3358895D01*
X711964Y3340607D01*
X716536Y3331463D01*
X725426Y3322320D01*
X734570Y3318002D01*
X748286Y3313429D01*
X770892Y3313429D01*
X784608Y3318002D01*
X793752Y3322320D01*
X802896Y3331463D01*
X807468Y3340607D01*
X807468Y3358895D01*
X802896Y3367786D01*
X793752Y3376929D01*
X784608Y3381502D01*
X711964Y3411473D02*
G01*
X807468Y3411473D01*
X807468Y3411473D02*
G01*
X807468Y3466084D01*
X711964Y3496055D02*
G01*
X807468Y3496055D01*
X711964Y3559810D02*
G01*
X775464Y3496055D01*
X752858Y3518915D02*
G01*
X807468Y3559810D01*
X979426Y3162554D02*
G01*
X970536Y3153410D01*
X965964Y3139694D01*
X965964Y3121405D01*
X970536Y3107944D01*
X979426Y3098800D01*
X988570Y3098800D01*
X997714Y3103371D01*
X1002286Y3107944D01*
X1006858Y3117087D01*
X1016002Y3144265D01*
X1020320Y3153410D01*
X1024892Y3157981D01*
X1034036Y3162554D01*
X1047752Y3162554D01*
X1056896Y3153410D01*
X1061468Y3139694D01*
X1061468Y3121405D01*
X1056896Y3107944D01*
X1047752Y3098800D01*
X965964Y3192526D02*
G01*
X1061468Y3215131D01*
X965964Y3237992D02*
G01*
X1061468Y3215131D01*
X965964Y3237992D02*
G01*
X1061468Y3260597D01*
X965964Y3283457D02*
G01*
X1061468Y3260597D01*
X965964Y3313429D02*
G01*
X1061468Y3313429D01*
X965964Y3313429D02*
G01*
X965964Y3345179D01*
X970536Y3358895D01*
X979426Y3367786D01*
X988570Y3372357D01*
X1002286Y3376929D01*
X1024892Y3376929D01*
X1038608Y3372357D01*
X1047752Y3367786D01*
X1056896Y3358895D01*
X1061468Y3345179D01*
X1061468Y3313429D01*
X965964Y3406902D02*
G01*
X1061468Y3406902D01*
X965964Y3464305D02*
G01*
X970536Y3455162D01*
X979426Y3446018D01*
X988570Y3441445D01*
X1002286Y3436873D01*
X1024892Y3436873D01*
X1038608Y3441445D01*
X1047752Y3446018D01*
X1056896Y3455162D01*
X1061468Y3464305D01*
X1061468Y3482339D01*
X1056896Y3491484D01*
X1047752Y3500628D01*
X1038608Y3505200D01*
X1024892Y3509771D01*
X1002286Y3509771D01*
X988570Y3505200D01*
X979426Y3500628D01*
X970536Y3491484D01*
X965964Y3482339D01*
X965964Y3464305D01*
X1473964Y3303778D02*
G01*
X1478536Y3294887D01*
X1487426Y3285744D01*
X1496570Y3281171D01*
X1510286Y3276600D01*
X1532892Y3276600D01*
X1546608Y3281171D01*
X1555752Y3285744D01*
X1564896Y3294887D01*
X1569468Y3303778D01*
X1569468Y3322065D01*
X1564896Y3331210D01*
X1555752Y3340354D01*
X1546608Y3344671D01*
X1532892Y3349244D01*
X1510286Y3349244D01*
X1496570Y3344671D01*
X1487426Y3340354D01*
X1478536Y3331210D01*
X1473964Y3322065D01*
X1473964Y3303778D01*
X1551180Y3317494D02*
G01*
X1578358Y3344671D01*
X1473964Y3379215D02*
G01*
X1569468Y3379215D01*
X1473964Y3442970D02*
G01*
X1569468Y3442970D01*
X1519430Y3379215D02*
G01*
X1519430Y3442970D01*
X1750570Y3344671D02*
G01*
X1741426Y3340354D01*
X1732536Y3331210D01*
X1727964Y3322065D01*
X1727964Y3303778D01*
X1732536Y3294887D01*
X1741426Y3285744D01*
X1750570Y3281171D01*
X1764286Y3276600D01*
X1786892Y3276600D01*
X1800608Y3281171D01*
X1809752Y3285744D01*
X1818896Y3294887D01*
X1823468Y3303778D01*
X1823468Y3322065D01*
X1818896Y3331210D01*
X1809752Y3340354D01*
X1800608Y3344671D01*
X1786892Y3344671D01*
X1786892Y3322065D02*
G01*
X1786892Y3344671D01*
X1727964Y3374897D02*
G01*
X1823468Y3374897D01*
X1727964Y3374897D02*
G01*
X1823468Y3438397D01*
X1727964Y3438397D02*
G01*
X1823468Y3438397D01*
X1727964Y3468370D02*
G01*
X1823468Y3468370D01*
X1727964Y3468370D02*
G01*
X1727964Y3500120D01*
X1732536Y3513836D01*
X1741426Y3522979D01*
X1750570Y3527552D01*
X1764286Y3532123D01*
X1786892Y3532123D01*
X1800608Y3527552D01*
X1809752Y3522979D01*
X1818896Y3513836D01*
X1823468Y3500120D01*
X1823468Y3468370D01*
X2004570Y3344671D02*
G01*
X1995426Y3340354D01*
X1986536Y3331210D01*
X1981964Y3322065D01*
X1981964Y3303778D01*
X1986536Y3294887D01*
X1995426Y3285744D01*
X2004570Y3281171D01*
X2018286Y3276600D01*
X2040892Y3276600D01*
X2054608Y3281171D01*
X2063752Y3285744D01*
X2072896Y3294887D01*
X2077468Y3303778D01*
X2077468Y3322065D01*
X2072896Y3331210D01*
X2063752Y3340354D01*
X2054608Y3344671D01*
X1981964Y3374897D02*
G01*
X2077468Y3374897D01*
X2077468Y3374897D02*
G01*
X2077468Y3429254D01*
X1981964Y3459226D02*
G01*
X2077468Y3459226D01*
X1981964Y3522979D02*
G01*
X2045464Y3459226D01*
X2022858Y3482086D02*
G01*
X2077468Y3522979D01*
X2249426Y3340354D02*
G01*
X2240536Y3331210D01*
X2235964Y3317494D01*
X2235964Y3299205D01*
X2240536Y3285744D01*
X2249426Y3276600D01*
X2258570Y3276600D01*
X2267714Y3281171D01*
X2272286Y3285744D01*
X2276858Y3294887D01*
X2286002Y3322065D01*
X2290320Y3331210D01*
X2294892Y3335781D01*
X2304036Y3340354D01*
X2317752Y3340354D01*
X2326896Y3331210D01*
X2331468Y3317494D01*
X2331468Y3299205D01*
X2326896Y3285744D01*
X2317752Y3276600D01*
X2235964Y3370326D02*
G01*
X2331468Y3370326D01*
X2235964Y3433826D02*
G01*
X2331468Y3433826D01*
X2281430Y3370326D02*
G01*
X2281430Y3433826D01*
X2503426Y3317494D02*
G01*
X2585468Y3317494D01*
X2544320Y3276600D02*
G01*
X2544320Y3358387D01*
X2489964Y3442970D02*
G01*
X2489964Y3397504D01*
X2530858Y3392931D01*
X2526286Y3397504D01*
X2521714Y3411220D01*
X2521714Y3424681D01*
X2526286Y3438397D01*
X2535430Y3447542D01*
X2548892Y3452113D01*
X2558036Y3452113D01*
X2571752Y3447542D01*
X2580896Y3438397D01*
X2585468Y3424681D01*
X2585468Y3411220D01*
X2580896Y3397504D01*
X2576324Y3392931D01*
X2567180Y3388360D01*
X2489964Y3482086D02*
G01*
X2585468Y3518407D01*
X2489964Y3554729D02*
G01*
X2585468Y3518407D01*
D11*
X688339Y1437309D02*
G01*
X1022959Y1102690D01*
X1186179Y1102690D01*
X1186179Y869950D02*
G01*
X1186179Y1102690D01*
X688339Y1670050D02*
G01*
X688339Y1437309D01*
X1186179Y1102690D02*
G01*
X2323896Y1102690D01*
X2669133Y1447927D01*
X2669133Y1580794D01*
X2688412Y1600072D01*
X4639945Y1600072D01*
X2286000Y3822700D02*
G01*
X2382951Y3725748D01*
X2382951Y3243859D01*
X2915411Y2711399D01*
X3328187Y2711399D01*
X3397173Y2642412D01*
X3429025Y2642412D01*
X3475710Y2595727D01*
X3475710Y2519603D01*
X3700221Y243916D02*
G01*
X3700221Y376656D01*
X2596997Y760653D02*
G01*
X2596997Y762000D01*
X2596997Y760653D02*
G01*
X2052218Y760653D01*
X2035022Y743457D01*
X3700221Y376656D02*
G01*
X3700221Y508711D01*
X2596997Y760653D02*
G01*
X2848940Y508711D01*
X3700221Y508711D01*
X3700221Y508711D02*
G01*
X4048709Y508711D01*
X5071872Y1531873D01*
X508000Y2088997D02*
G01*
X1016000Y2088997D01*
X1016000Y2088997D02*
G01*
X1524000Y2088997D01*
X4229430Y1688490D02*
G01*
X3144647Y1688490D01*
X3046323Y1786813D01*
X3046323Y1909826D01*
X3124200Y1987702D01*
X5071872Y1531873D02*
G01*
X4915255Y1688490D01*
X4229430Y1688490D01*
X4229430Y1688490D02*
G01*
X4229430Y1898472D01*
X4140200Y1987702D01*
X1825447Y2088997D02*
G01*
X1825447Y2772892D01*
X1808378Y2789961D01*
X1651127Y2789961D01*
X1651000Y2789834D01*
X1524000Y2088997D02*
G01*
X1825447Y2088997D01*
X1825447Y2088997D02*
G01*
X2032000Y2088997D01*
X2032000Y2088997D02*
G01*
X2540000Y2088997D01*
X4140200Y1987702D02*
G01*
X4140200Y2060447D01*
X490220Y1102690D02*
G01*
X596036Y1208506D01*
X596036Y1348486D01*
X508000Y1436522D01*
X508000Y2088997D01*
X490220Y869950D02*
G01*
X490220Y1102690D01*
X3345713Y2519603D02*
G01*
X3345713Y2436113D01*
X3489401Y2292426D01*
X3908221Y2292426D01*
X4140200Y2060447D01*
X1651000Y2778531D02*
G01*
X1651000Y2789834D01*
X1651000Y2702077D02*
G01*
X1651000Y2778531D01*
X1651000Y2789834D02*
G01*
X1650872Y2789961D01*
X1366138Y2789961D01*
X2035022Y732154D02*
G01*
X2035022Y743457D01*
X2035022Y610692D02*
G01*
X2035022Y732154D01*
X2035022Y743457D02*
G01*
X2034895Y743585D01*
X1483639Y743585D01*
X1377137Y637082D01*
X490346Y637082D01*
X490220Y637209D01*
X490220Y869950D02*
G01*
X490220Y637209D01*
X1745995Y2874365D02*
G01*
X1735988Y2864357D01*
X1057782Y2864357D01*
X1050391Y2856966D01*
X1050391Y2807766D01*
X544372Y2301747D01*
X508000Y2301747D01*
X1745995Y2962122D02*
G01*
X1745995Y2874365D01*
X508000Y2229002D02*
G01*
X508000Y2301747D01*
X1556004Y2614345D02*
G01*
X1242669Y2614345D01*
X1133246Y2723769D01*
X1556004Y2702077D02*
G01*
X1556004Y2614345D01*
X1133246Y2794000D02*
G01*
X1133246Y2723769D01*
X1745995Y2702077D02*
G01*
X1745995Y2614345D01*
X1570888Y2599461D02*
G01*
X1570888Y2348636D01*
X1524000Y2301747D01*
X1745995Y2614345D02*
G01*
X1731111Y2599461D01*
X1570888Y2599461D01*
X1570888Y2599461D02*
G01*
X1556004Y2614345D01*
X1524000Y2229002D02*
G01*
X1524000Y2265375D01*
X1524000Y2265375D02*
G01*
X1524000Y2301747D01*
X1524000Y2265375D02*
G01*
X1130122Y2265375D01*
X1093749Y2229002D01*
X1016000Y2229002D02*
G01*
X1093749Y2229002D01*
X3150692Y3093796D02*
G01*
X3150692Y3433470D01*
X2604261Y3979900D01*
X919200Y3979900D01*
X762000Y3822700D01*
X3727195Y1749958D02*
G01*
X4115206Y1749958D01*
X4140200Y1774952D01*
X4140200Y1847697D02*
G01*
X4140200Y1774952D01*
X3727195Y1833829D02*
G01*
X3727195Y1749958D01*
X3727195Y1833829D02*
G01*
X3727195Y1917700D01*
X3727195Y1917700D02*
G01*
X3727195Y2085441D01*
X3727195Y2085441D02*
G01*
X3647592Y2165045D01*
X3488258Y2165045D01*
X3215690Y2437612D01*
X3215690Y2519603D01*
X3537204Y1749958D02*
G01*
X3149193Y1749958D01*
X3124200Y1774952D01*
X3124200Y1847697D02*
G01*
X3124200Y1774952D01*
X3537204Y1833829D02*
G01*
X3537204Y1749958D01*
X3537204Y1833829D02*
G01*
X3537204Y1917700D01*
X3150692Y2519603D02*
G01*
X3150692Y2418079D01*
X3483330Y2085441D01*
X3537204Y2085441D01*
X3537204Y1917700D02*
G01*
X3537204Y2085441D01*
X5071872Y2531871D02*
G01*
X3937101Y2531871D01*
X3475710Y2993262D01*
X3475710Y3093796D01*
X3310204Y1336649D02*
G01*
X3002737Y1336649D01*
X2815386Y1524000D01*
X3310204Y1203909D02*
G01*
X3310204Y1270279D01*
X2737002Y762000D02*
G01*
X2809747Y762000D01*
X2742336Y1524000D02*
G01*
X2815386Y1524000D01*
X3310204Y1270279D02*
G01*
X2809747Y769823D01*
X2809747Y762000D01*
X3310204Y1270279D02*
G01*
X3310204Y1303477D01*
X3310204Y1303477D02*
G01*
X3310204Y1336649D01*
X3490671Y2380716D02*
G01*
X3471545Y2380716D01*
X3410711Y2441549D01*
X3410711Y2519603D01*
X3310204Y1303477D02*
G01*
X3362959Y1356232D01*
X2744774Y2971596D02*
G01*
X3187496Y2971596D01*
X3215690Y2999790D01*
X3215690Y3093796D01*
X3423386Y2705760D02*
G01*
X3455314Y2705760D01*
X3540709Y2620365D01*
X3540709Y2519603D01*
X3605707Y2519603D02*
G01*
X3605707Y2619806D01*
X3353815Y2871698D01*
X2848305Y2871698D01*
X898753Y2864230D02*
G01*
X1251610Y3217087D01*
X1251610Y3392449D01*
X1635607Y3776446D01*
X1635607Y3855313D01*
X1714576Y3934282D01*
X2344800Y3934282D01*
X2428519Y3850563D01*
X2428519Y3822700D01*
X898753Y2794000D02*
G01*
X898753Y2864230D01*
X2540000Y3822700D02*
G01*
X2428519Y3822700D01*
X1699945Y634872D02*
G01*
X1750745Y634872D01*
X1774926Y610692D01*
X2032000Y2229002D02*
G01*
X2540000Y2229002D01*
X3280689Y2519603D02*
G01*
X3280689Y2605659D01*
X3237661Y2648686D01*
X2886938Y2648686D01*
X2540000Y2301747D01*
X1556004Y2962122D02*
G01*
X1556004Y3049854D01*
X2540000Y2301747D02*
G01*
X1778177Y3063570D01*
X1569720Y3063570D01*
X1556004Y3049854D01*
X2540000Y2229002D02*
G01*
X2540000Y2265375D01*
X2540000Y2265375D02*
G01*
X2540000Y2301747D01*
X2540000Y2265375D02*
G01*
X2617876Y2187498D01*
X2617876Y1626158D01*
X2591663Y1599945D01*
X2591663Y1524000D02*
G01*
X2591663Y1599945D01*
D12*
G01*
X3085696Y2519603D03*
G01*
X3150694Y2519603D03*
G01*
X3215693Y2519603D03*
G01*
X3280691Y2519603D03*
G01*
X3345715Y2519603D03*
G01*
X3410714Y2519603D03*
G01*
X3475713Y2519603D03*
G01*
X3540711Y2519603D03*
G01*
X3605710Y2519603D03*
G01*
X3670708Y2519603D03*
G01*
X3085696Y3093796D03*
G01*
X3150694Y3093796D03*
G01*
X3215693Y3093796D03*
G01*
X3280691Y3093796D03*
G01*
X3345715Y3093796D03*
G01*
X3410714Y3093796D03*
G01*
X3475713Y3093796D03*
G01*
X3540711Y3093796D03*
G01*
X3605710Y3093796D03*
G01*
X3670708Y3093796D03*
D13*
G01*
X2540002Y2229002D03*
G01*
X2540002Y2088997D03*
G01*
X2032002Y2229002D03*
G01*
X2032002Y2088997D03*
G01*
X3124202Y1847697D03*
G01*
X3124202Y1987702D03*
G01*
X4140202Y1847697D03*
G01*
X4140202Y1987702D03*
G01*
X1016002Y2229002D03*
G01*
X1016002Y2088997D03*
G01*
X1524002Y2229002D03*
G01*
X1524002Y2088997D03*
G01*
X508002Y2229002D03*
G01*
X508002Y2088997D03*
D14*
G01*
X898756Y2794000D03*
G01*
X1133248Y2794000D03*
D15*
G01*
X1556006Y2962122D03*
G01*
X1745998Y2962122D03*
G01*
X1745998Y2702077D03*
G01*
X1651002Y2702077D03*
G01*
X1556006Y2702077D03*
D16*
G01*
X3727202Y1917700D03*
G01*
X3537202Y1917700D03*
D17*
G01*
X2035022Y610692D03*
G01*
X1969998Y610692D03*
G01*
X1904974Y610692D03*
G01*
X1839950Y610692D03*
G01*
X1774926Y610692D03*
D18*
G01*
X2304999Y303682D03*
G01*
X1505000Y303682D03*
G01*
X1784019Y302158D03*
G01*
X2035987Y300202D03*
D19*
G01*
X2737004Y762000D03*
G01*
X2597000Y762000D03*
D20*
G01*
X2591677Y1524000D03*
G01*
X2742327Y1524000D03*
D21*
G01*
X490222Y869950D03*
G01*
X1186182Y869950D03*
G01*
X688342Y1670050D03*
D22*
G01*
X3700211Y1203896D03*
G01*
X3700211Y243903D03*
G01*
X3310194Y1203896D03*
G01*
X3310194Y243903D03*
D23*
G01*
X1524002Y3822700D03*
G01*
X1778002Y3822700D03*
G01*
X2032002Y3822700D03*
G01*
X2286002Y3822700D03*
D24*
G01*
X2540002Y3822700D03*
D25*
G01*
X1016002Y3822700D03*
D26*
G01*
X762002Y3822700D03*
D27*
G01*
X5071874Y2032000D03*
G01*
X5071874Y2531871D03*
G01*
X5071874Y1531873D03*
D28*
G01*
X1699945Y634872D03*
G01*
X2848305Y2871698D03*
G01*
X3423386Y2705760D03*
G01*
X2744774Y2971596D03*
G01*
X3490671Y2380716D03*
G01*
X3362959Y1356232D03*
G01*
X1366138Y2789961D03*
G01*
X4639945Y1600072D03*
M02*
