G04 Layer: TopPasteMaskLayer*
G04 EasyEDA v6.5.40, 2024-08-17 15:48:36*
G04 cb6e2e9fbd21486d88ae5690d2d3dc00,10*
G04 Gerber Generator version 0.2*
G04 Scale: 100 percent, Rotated: No, Reflected: No *
G04 Dimensions in millimeters *
G04 leading zeros omitted , absolute positions ,4 integer and 5 decimal *
%FSLAX45Y45*%
%MOMM*%

%AMMACRO1*21,1,$1,$2,0,0,$3*%
%ADD10O,0.36400740000000004X1.7420082*%
%ADD11R,0.9000X0.8000*%
%ADD12R,1.0000X0.7500*%
%ADD13R,0.6000X1.1000*%
%ADD14MACRO1,1.4999X2.7X0.0000*%
%ADD15MACRO1,1.5001X2.7X0.0000*%
%ADD16R,0.4500X2.0000*%
%ADD17R,1.9000X2.1000*%
%ADD18R,0.8000X0.9000*%
%ADD19R,1.5000X4.0000*%
%ADD20R,1.0000X2.0000*%

%LPD*%
G36*
X2547518Y1569008D02*
G01*
X2542489Y1563979D01*
X2542489Y1484020D01*
X2547518Y1478991D01*
X2627477Y1478991D01*
X2632506Y1484020D01*
X2632506Y1506778D01*
X2595524Y1506778D01*
X2595524Y1539798D01*
X2632506Y1539798D01*
X2632506Y1563979D01*
X2627477Y1569008D01*
G37*
G36*
X2706522Y1569008D02*
G01*
X2701493Y1563979D01*
X2701493Y1541221D01*
X2738526Y1541221D01*
X2738526Y1508201D01*
X2701493Y1508201D01*
X2701493Y1484020D01*
X2706522Y1478991D01*
X2786481Y1478991D01*
X2791510Y1484020D01*
X2791510Y1563979D01*
X2786481Y1569008D01*
G37*
D10*
G01*
X3085696Y2519603D03*
G01*
X3150694Y2519603D03*
G01*
X3215693Y2519603D03*
G01*
X3280691Y2519603D03*
G01*
X3345715Y2519603D03*
G01*
X3410714Y2519603D03*
G01*
X3475713Y2519603D03*
G01*
X3540711Y2519603D03*
G01*
X3605710Y2519603D03*
G01*
X3670708Y2519603D03*
G01*
X3085696Y3093796D03*
G01*
X3150694Y3093796D03*
G01*
X3215693Y3093796D03*
G01*
X3280691Y3093796D03*
G01*
X3345715Y3093796D03*
G01*
X3410714Y3093796D03*
G01*
X3475713Y3093796D03*
G01*
X3540711Y3093796D03*
G01*
X3605710Y3093796D03*
G01*
X3670708Y3093796D03*
D11*
G01*
X2540002Y2229002D03*
G01*
X2540002Y2088997D03*
G01*
X2032002Y2229002D03*
G01*
X2032002Y2088997D03*
G01*
X3124202Y1847697D03*
G01*
X3124202Y1987702D03*
G01*
X4140202Y1847697D03*
G01*
X4140202Y1987702D03*
G01*
X1016002Y2229002D03*
G01*
X1016002Y2088997D03*
G01*
X1524002Y2229002D03*
G01*
X1524002Y2088997D03*
G01*
X508002Y2229002D03*
G01*
X508002Y2088997D03*
D12*
G01*
X898756Y2794000D03*
G01*
X1133248Y2794000D03*
D13*
G01*
X1556006Y2962122D03*
G01*
X1745998Y2962122D03*
G01*
X1745998Y2702077D03*
G01*
X1651002Y2702077D03*
G01*
X1556006Y2702077D03*
D14*
G01*
X3727208Y1917700D03*
D15*
G01*
X3537203Y1917700D03*
D16*
G01*
X2035022Y610692D03*
G01*
X1969998Y610692D03*
G01*
X1904974Y610692D03*
G01*
X1839950Y610692D03*
G01*
X1774926Y610692D03*
D17*
G01*
X2304999Y303682D03*
G01*
X1505000Y303682D03*
G01*
X1784019Y302158D03*
G01*
X2035987Y300202D03*
D18*
G01*
X2737004Y762000D03*
G01*
X2597000Y762000D03*
D19*
G01*
X490222Y869950D03*
G01*
X1186182Y869950D03*
G01*
X688342Y1670050D03*
D20*
G01*
X3700211Y1203896D03*
G01*
X3700211Y243903D03*
G01*
X3310194Y1203896D03*
G01*
X3310194Y243903D03*
M02*
