G04 Layer: BottomLayer*
G04 EasyEDA v6.5.40, 2024-08-17 15:48:36*
G04 cb6e2e9fbd21486d88ae5690d2d3dc00,10*
G04 Gerber Generator version 0.2*
G04 Scale: 100 percent, Rotated: No, Reflected: No *
G04 Dimensions in millimeters *
G04 leading zeros omitted , absolute positions ,4 integer and 5 decimal *
%FSLAX45Y45*%
%MOMM*%

%ADD10C,0.2540*%
%ADD11C,1.5748*%
%ADD12R,1.5748X1.5748*%
%ADD13R,1.7000X1.5748*%
%ADD14C,1.7000*%
%ADD15C,2.5000*%
%ADD16C,0.6100*%

%LPD*%
D10*
X5071872Y2032000D02*
G01*
X4639945Y1600072D01*
X1778000Y3822700D02*
G01*
X1613941Y3986758D01*
X959256Y3986758D01*
X898144Y3925646D01*
X898144Y3257956D01*
X1366138Y2789961D01*
X3490671Y2380716D02*
G01*
X3490671Y1483944D01*
X3362959Y1356232D01*
X1016000Y3822700D02*
G01*
X1016000Y3934180D01*
X1016000Y3934180D02*
G01*
X1020216Y3938396D01*
X1578076Y3938396D01*
X1651000Y3865473D01*
X1651000Y3786479D01*
X2465882Y2971596D01*
X2744774Y2971596D01*
X2032000Y3822700D02*
G01*
X2143607Y3934307D01*
X2651023Y3934307D01*
X3423386Y3161944D01*
X3423386Y2705760D01*
X1524000Y3822700D02*
G01*
X2475001Y2871698D01*
X2848305Y2871698D01*
X2540000Y3711219D02*
G01*
X2915208Y3336010D01*
X2915208Y1850136D01*
X1699945Y634872D01*
X2540000Y3822700D02*
G01*
X2540000Y3711219D01*
D11*
G01*
X1524002Y3822700D03*
G01*
X1778002Y3822700D03*
G01*
X2032002Y3822700D03*
G01*
X2286002Y3822700D03*
D12*
G01*
X2540002Y3822700D03*
D13*
G01*
X1016002Y3822700D03*
D14*
G01*
X762002Y3822700D03*
D15*
G01*
X5071874Y2032000D03*
G01*
X5071874Y2531871D03*
G01*
X5071874Y1531873D03*
D16*
G01*
X1699945Y634872D03*
G01*
X2848305Y2871698D03*
G01*
X3423386Y2705760D03*
G01*
X2744774Y2971596D03*
G01*
X3490671Y2380716D03*
G01*
X3362959Y1356232D03*
G01*
X1366138Y2789961D03*
G01*
X4639945Y1600072D03*
M02*
