G04 Layer: TopSolderMaskLayer*
G04 EasyEDA v6.5.40, 2024-08-17 15:48:36*
G04 cb6e2e9fbd21486d88ae5690d2d3dc00,10*
G04 Gerber Generator version 0.2*
G04 Scale: 100 percent, Rotated: No, Reflected: No *
G04 Dimensions in millimeters *
G04 leading zeros omitted , absolute positions ,4 integer and 5 decimal *
%FSLAX45Y45*%
%MOMM*%

%AMMACRO1*1,1,$1,$2,$3*1,1,$1,$4,$5*1,1,$1,0-$2,0-$3*1,1,$1,0-$4,0-$5*20,1,$1,$2,$3,$4,$5,0*20,1,$1,$4,$5,0-$2,0-$3,0*20,1,$1,0-$2,0-$3,0-$4,0-$5,0*20,1,$1,0-$4,0-$5,$2,$3,0*4,1,4,$2,$3,$4,$5,0-$2,0-$3,0-$4,0-$5,$2,$3,0*%
%ADD10O,0.4656074X1.8436082*%
%ADD11R,1.0016X0.9016*%
%ADD12MACRO1,0.1016X0.45X0.4X0.45X-0.4*%
%ADD13MACRO1,0.1016X0.5X-0.375X-0.5X-0.375*%
%ADD14MACRO1,0.1016X0.3X0.55X0.3X-0.55*%
%ADD15MACRO1,0.1016X0.75X1.35X-0.75X1.35*%
%ADD16MACRO1,0.1016X0.225X1X0.225X-1*%
%ADD17R,2.0016X2.2016*%
%ADD18MACRO1,0.1016X-0.4X0.45X0.4X0.45*%
%ADD19MACRO1,0.1016X0.4032X0.432X0.4032X-0.432*%
%ADD20MACRO1,0.1016X-0.4032X0.432X-0.4032X-0.432*%
%ADD21C,1.6764*%
%ADD22MACRO1,0.1016X0.7874X-0.7874X-0.7874X-0.7874*%
%ADD23MACRO1,0.1016X0.85X-0.7874X-0.85X-0.7874*%
%ADD24C,1.8016*%
%ADD25MACRO1,0.1016X-0.75X2X0.75X2*%
%ADD26MACRO1,0.1016X0.5X1X0.5X-1*%
%ADD27C,2.6016*%

%LPD*%
D10*
G01*
X3085696Y2519603D03*
G01*
X3150694Y2519603D03*
G01*
X3215693Y2519603D03*
G01*
X3280691Y2519603D03*
G01*
X3345715Y2519603D03*
G01*
X3410714Y2519603D03*
G01*
X3475713Y2519603D03*
G01*
X3540711Y2519603D03*
G01*
X3605710Y2519603D03*
G01*
X3670708Y2519603D03*
G01*
X3085696Y3093796D03*
G01*
X3150694Y3093796D03*
G01*
X3215693Y3093796D03*
G01*
X3280691Y3093796D03*
G01*
X3345715Y3093796D03*
G01*
X3410714Y3093796D03*
G01*
X3475713Y3093796D03*
G01*
X3540711Y3093796D03*
G01*
X3605710Y3093796D03*
G01*
X3670708Y3093796D03*
D11*
G01*
X2540002Y2229002D03*
G01*
X2540002Y2088997D03*
G01*
X2032002Y2229002D03*
G01*
X2032002Y2088997D03*
D12*
G01*
X3124202Y1847700D03*
G01*
X3124202Y1987699D03*
G01*
X4140202Y1847700D03*
G01*
X4140202Y1987699D03*
D11*
G01*
X1016002Y2229002D03*
G01*
X1016002Y2088997D03*
G01*
X1524002Y2229002D03*
G01*
X1524002Y2088997D03*
G01*
X508002Y2229002D03*
G01*
X508002Y2088997D03*
D13*
G01*
X898747Y2794000D03*
G01*
X1133252Y2794000D03*
D14*
G01*
X1556006Y2962111D03*
G01*
X1745998Y2962111D03*
G01*
X1745998Y2702088D03*
G01*
X1651002Y2702088D03*
G01*
X1556006Y2702088D03*
D15*
G01*
X3727202Y1917700D03*
G01*
X3537202Y1917700D03*
D16*
G01*
X2035022Y610704D03*
G01*
X1969998Y610704D03*
G01*
X1904974Y610704D03*
G01*
X1839950Y610704D03*
G01*
X1774926Y610704D03*
D17*
G01*
X2304999Y303682D03*
G01*
X1505000Y303682D03*
G01*
X1784019Y302158D03*
G01*
X2035987Y300202D03*
D18*
G01*
X2737002Y762000D03*
G01*
X2597002Y762000D03*
D19*
G01*
X2591677Y1524000D03*
D20*
G01*
X2742327Y1524000D03*
D21*
G01*
X1524002Y3822700D03*
G01*
X1778002Y3822700D03*
G01*
X2032002Y3822700D03*
G01*
X2286002Y3822700D03*
D22*
G01*
X2540002Y3822700D03*
D23*
G01*
X1016001Y3822700D03*
D24*
G01*
X762002Y3822700D03*
D25*
G01*
X490222Y869950D03*
G01*
X1186182Y869950D03*
G01*
X688342Y1670050D03*
D26*
G01*
X3700211Y1203899D03*
G01*
X3700211Y243900D03*
G01*
X3310194Y1203899D03*
G01*
X3310194Y243900D03*
D27*
G01*
X5071874Y2032000D03*
G01*
X5071874Y2531871D03*
G01*
X5071874Y1531873D03*
M02*
