M48
INCH,LZ
;FILE_FORMAT=2:4
;TYPE=PLATED
;Layer: PTH_Through
;EasyEDA v6.5.43, 2024-07-16 18:23:05
;cb6e2e9fbd21486d88ae5690d2d3dc00,10
;Gerber Generator version 0.2
;Holesize 1 = 0.0120 inch
T01C0.0120
;Holesize 2 = 0.0280 inch
T02C0.0280
;Holesize 3 = 0.0320 inch
T03C0.0320
;Holesize 4 = 0.0350 inch
T04C0.0350
;Holesize 5 = 0.0390 inch
T05C0.0390
%
G05
G90
T01
X046500Y009386
X068116Y022013
X058495Y031391
X031917Y032115
X031000Y030380
X090467Y020412
X018823Y019906
X031946Y030400
X067499Y029912
X067914Y027463
X032029Y030871
X050889Y033591
X084373Y025330
X076474Y033230
X028527Y030040
X029742Y033547
X065575Y032047
X068690Y023506
X066059Y030923
T02
X006000Y014933
X006000Y019067
X009000Y014933
X009000Y019067
X012000Y014933
X012000Y019067
X015000Y014933
X015000Y019067
X018000Y014933
X018000Y019067
X021000Y014933
X021000Y019067
X024000Y014933
X024000Y019067
X027000Y014933
X027000Y019067
X030000Y014933
X030000Y019067
X033000Y014933
X033000Y019067
X036000Y014933
X036000Y019067
X039000Y014933
X039000Y019067
X042000Y014933
X042000Y019067
X045000Y014933
X045000Y019067
X048000Y014933
X048000Y019067
X051000Y014933
X051000Y019067
X054000Y014933
X054000Y019067
X057000Y014933
X057000Y019067
X060000Y014933
X060000Y019067
X063000Y014933
X063000Y019067
X066000Y014933
X066000Y019067
X069000Y014933
X069000Y019067
X072000Y014933
X072000Y019067
X075000Y014933
X075000Y019067
X078000Y014933
X078000Y019067
X081000Y014933
X081000Y019067
X084000Y014933
X084000Y019067
X087000Y014933
X087000Y019067
X090000Y014933
X090000Y019067
X093000Y014933
X093000Y019067
X096000Y014933
X096000Y019067
X099000Y014933
X099000Y019067
X102000Y014933
X102000Y019067
X105000Y014933
X105000Y019067
X108000Y014933
X108000Y019067
X111000Y014933
X111000Y019067
T03
X010050Y021966
X010050Y023934
X034000Y021966
X034000Y023934
X058050Y022016
X058050Y023984
X082000Y021966
X082000Y023934
X099000Y022016
X099000Y023984
T04
X050550Y033000
X051550Y033000
X052550Y033000
X053550Y033000
X054550Y033000
X055550Y033000
X056550Y033000
X057550Y033000
T05
X019500Y021450
X018500Y021450
X017500Y021450
X016500Y021450
X015500Y021450
X014500Y021450
X013500Y021450
X012500Y021450
X012500Y024450
X013500Y024450
X014500Y024450
X015500Y024450
X016500Y024450
X017500Y024450
X018500Y024450
X019500Y024450
X043500Y021450
X042500Y021450
X041500Y021450
X040500Y021450
X039500Y021450
X038500Y021450
X037500Y021450
X036500Y021450
X036500Y024450
X037500Y024450
X038500Y024450
X039500Y024450
X040500Y024450
X041500Y024450
X042500Y024450
X043500Y024450
X067500Y021450
X066500Y021450
X065500Y021450
X064500Y021450
X063500Y021450
X062500Y021450
X061500Y021450
X060500Y021450
X060500Y024450
X061500Y024450
X062500Y024450
X063500Y024450
X064500Y024450
X065500Y024450
X066500Y024450
X067500Y024450
X091500Y021450
X090500Y021450
X089500Y021450
X088500Y021450
X087500Y021450
X086500Y021450
X085500Y021450
X084500Y021450
X084500Y024450
X085500Y024450
X086500Y024450
X087500Y024450
X088500Y024450
X089500Y024450
X090500Y024450
X091500Y024450
X108500Y021500
X107500Y021500
X106500Y021500
X105500Y021500
X104500Y021500
X103500Y021500
X102500Y021500
X101500Y021500
X101500Y024500
X102500Y024500
X103500Y024500
X104500Y024500
X105500Y024500
X106500Y024500
X107500Y024500
X108500Y024500
X068933Y030000
X073067Y030000
X073067Y033000
X068933Y033000
M30
