G04 Layer: BottomSolderMaskLayer*
G04 EasyEDA v6.5.43, 2024-07-16 18:23:05*
G04 cb6e2e9fbd21486d88ae5690d2d3dc00,10*
G04 Gerber Generator version 0.2*
G04 Scale: 100 percent, Rotated: No, Reflected: No *
G04 Dimensions in inches *
G04 leading zeros omitted , absolute positions ,3 integer and 6 decimal *
%FSLAX36Y36*%
%MOIN*%

%AMMACRO1*4,1,8,-0.0318,-0.033,-0.033,-0.0318,-0.033,0.0318,-0.0318,0.033,0.0318,0.033,0.033,0.0318,0.033,-0.0318,0.0318,-0.033,-0.0318,-0.033,0*%
%AMMACRO2*4,1,8,-0.0323,-0.0335,-0.0335,-0.0323,-0.0335,0.0323,-0.0323,0.0335,0.0323,0.0335,0.0335,0.0323,0.0335,-0.0323,0.0323,-0.0335,-0.0323,-0.0335,0*%
%ADD10C,0.0669*%
%ADD11C,0.0591*%
%ADD12MACRO1*%
%ADD13C,0.0660*%
%ADD14C,0.0670*%
%ADD15MACRO2*%

%LPD*%
D10*
G01*
X1005000Y2196579D03*
G01*
X1005000Y2393429D03*
G01*
X3400000Y2196579D03*
G01*
X3400000Y2393429D03*
G01*
X5805000Y2201579D03*
G01*
X5805000Y2398429D03*
G01*
X8200000Y2196579D03*
G01*
X8200000Y2393429D03*
G01*
X9900000Y2201579D03*
G01*
X9900000Y2398429D03*
D11*
G01*
X600000Y1493310D03*
G01*
X600000Y1906689D03*
G01*
X900000Y1493310D03*
G01*
X900000Y1906689D03*
G01*
X1200000Y1493310D03*
G01*
X1200000Y1906689D03*
G01*
X1500000Y1493310D03*
G01*
X1500000Y1906689D03*
G01*
X1800000Y1493310D03*
G01*
X1800000Y1906689D03*
G01*
X2100000Y1493310D03*
G01*
X2100000Y1906689D03*
G01*
X2400000Y1493310D03*
G01*
X2400000Y1906689D03*
G01*
X2700000Y1493310D03*
G01*
X2700000Y1906689D03*
G01*
X3000000Y1493310D03*
G01*
X3000000Y1906689D03*
G01*
X3300000Y1493310D03*
G01*
X3300000Y1906689D03*
G01*
X3600000Y1493310D03*
G01*
X3600000Y1906689D03*
G01*
X3900000Y1493310D03*
G01*
X3900000Y1906689D03*
G01*
X4200000Y1493310D03*
G01*
X4200000Y1906689D03*
G01*
X4500000Y1493310D03*
G01*
X4500000Y1906689D03*
G01*
X4800000Y1493310D03*
G01*
X4800000Y1906689D03*
G01*
X5100000Y1493310D03*
G01*
X5100000Y1906689D03*
G01*
X5400000Y1493310D03*
G01*
X5400000Y1906689D03*
G01*
X5700000Y1493310D03*
G01*
X5700000Y1906689D03*
G01*
X6000000Y1493310D03*
G01*
X6000000Y1906689D03*
G01*
X6300000Y1493310D03*
G01*
X6300000Y1906689D03*
G01*
X6600000Y1493310D03*
G01*
X6600000Y1906689D03*
G01*
X6900000Y1493310D03*
G01*
X6900000Y1906689D03*
G01*
X7200000Y1493310D03*
G01*
X7200000Y1906689D03*
G01*
X7500000Y1493310D03*
G01*
X7500000Y1906689D03*
G01*
X7800000Y1493310D03*
G01*
X7800000Y1906689D03*
G01*
X8100000Y1493310D03*
G01*
X8100000Y1906689D03*
G01*
X8400000Y1493310D03*
G01*
X8400000Y1906689D03*
G01*
X8700000Y1493310D03*
G01*
X8700000Y1906689D03*
G01*
X9000000Y1493310D03*
G01*
X9000000Y1906689D03*
G01*
X9300000Y1493310D03*
G01*
X9300000Y1906689D03*
G01*
X9600000Y1493310D03*
G01*
X9600000Y1906689D03*
G01*
X9900000Y1493310D03*
G01*
X9900000Y1906689D03*
G01*
X10200000Y1493310D03*
G01*
X10200000Y1906689D03*
G01*
X10500000Y1493310D03*
G01*
X10500000Y1906689D03*
G01*
X10800000Y1493310D03*
G01*
X10800000Y1906689D03*
G01*
X11100000Y1493310D03*
G01*
X11100000Y1906689D03*
D12*
G01*
X5055000Y3300000D03*
D13*
G01*
X5155000Y3300000D03*
G01*
X5255000Y3300000D03*
G01*
X5355000Y3300000D03*
G01*
X5455000Y3300000D03*
G01*
X5555000Y3300000D03*
G01*
X5655000Y3300000D03*
G01*
X5755000Y3300000D03*
D14*
G01*
X1950000Y2145000D03*
G01*
X1850000Y2145000D03*
G01*
X1750000Y2145000D03*
G01*
X1650000Y2145000D03*
G01*
X1550000Y2145000D03*
G01*
X1450000Y2145000D03*
G01*
X1350000Y2145000D03*
G01*
X1250000Y2145000D03*
G01*
X1250000Y2445000D03*
G01*
X1350000Y2445000D03*
G01*
X1450000Y2445000D03*
G01*
X1550000Y2445000D03*
G01*
X1650000Y2445000D03*
G01*
X1750000Y2445000D03*
G01*
X1850000Y2445000D03*
D15*
G01*
X1950003Y2444998D03*
D14*
G01*
X4350000Y2145000D03*
G01*
X4250000Y2145000D03*
G01*
X4150000Y2145000D03*
G01*
X4050000Y2145000D03*
G01*
X3950000Y2145000D03*
G01*
X3850000Y2145000D03*
G01*
X3750000Y2145000D03*
G01*
X3650000Y2145000D03*
G01*
X3650000Y2445000D03*
G01*
X3750000Y2445000D03*
G01*
X3850000Y2445000D03*
G01*
X3950000Y2445000D03*
G01*
X4050000Y2445000D03*
G01*
X4150000Y2445000D03*
G01*
X4250000Y2445000D03*
D15*
G01*
X4350003Y2444998D03*
D14*
G01*
X6750000Y2145000D03*
G01*
X6650000Y2145000D03*
G01*
X6550000Y2145000D03*
G01*
X6450000Y2145000D03*
G01*
X6350000Y2145000D03*
G01*
X6250000Y2145000D03*
G01*
X6150000Y2145000D03*
G01*
X6050000Y2145000D03*
G01*
X6050000Y2445000D03*
G01*
X6150000Y2445000D03*
G01*
X6250000Y2445000D03*
G01*
X6350000Y2445000D03*
G01*
X6450000Y2445000D03*
G01*
X6550000Y2445000D03*
G01*
X6650000Y2445000D03*
D15*
G01*
X6750003Y2444998D03*
D14*
G01*
X9150000Y2145000D03*
G01*
X9050000Y2145000D03*
G01*
X8950000Y2145000D03*
G01*
X8850000Y2145000D03*
G01*
X8750000Y2145000D03*
G01*
X8650000Y2145000D03*
G01*
X8550000Y2145000D03*
G01*
X8450000Y2145000D03*
G01*
X8450000Y2445000D03*
G01*
X8550000Y2445000D03*
G01*
X8650000Y2445000D03*
G01*
X8750000Y2445000D03*
G01*
X8850000Y2445000D03*
G01*
X8950000Y2445000D03*
G01*
X9050000Y2445000D03*
D15*
G01*
X9150003Y2444998D03*
D14*
G01*
X10850000Y2150000D03*
G01*
X10750000Y2150000D03*
G01*
X10650000Y2150000D03*
G01*
X10550000Y2150000D03*
G01*
X10450000Y2150000D03*
G01*
X10350000Y2150000D03*
G01*
X10250000Y2150000D03*
G01*
X10150000Y2150000D03*
G01*
X10150000Y2450000D03*
G01*
X10250000Y2450000D03*
G01*
X10350000Y2450000D03*
G01*
X10450000Y2450000D03*
G01*
X10550000Y2450000D03*
G01*
X10650000Y2450000D03*
G01*
X10750000Y2450000D03*
D15*
G01*
X10850003Y2449998D03*
D14*
G01*
X6893310Y3000000D03*
G01*
X7306689Y3000000D03*
G01*
X7306689Y3300000D03*
G01*
X6893310Y3300000D03*
M02*
