G04 Layer: TopPasteMaskLayer*
G04 EasyEDA v6.5.43, 2024-07-16 18:23:05*
G04 cb6e2e9fbd21486d88ae5690d2d3dc00,10*
G04 Gerber Generator version 0.2*
G04 Scale: 100 percent, Rotated: No, Reflected: No *
G04 Dimensions in inches *
G04 leading zeros omitted , absolute positions ,3 integer and 6 decimal *
%FSLAX36Y36*%
%MOIN*%

%ADD10R,0.0669X0.0748*%
%ADD11R,0.0157X0.0669*%

%LPD*%
D10*
G01*
X600000Y938580D03*
G01*
X600000Y1261419D03*
G01*
X900000Y938580D03*
G01*
X900000Y1261419D03*
G01*
X1200000Y938580D03*
G01*
X1200000Y1261419D03*
G01*
X1500000Y938580D03*
G01*
X1500000Y1261419D03*
G01*
X1800000Y938580D03*
G01*
X1800000Y1261419D03*
G01*
X2100000Y938580D03*
G01*
X2100000Y1261419D03*
G01*
X2400000Y938580D03*
G01*
X2400000Y1261419D03*
G01*
X2700000Y938580D03*
G01*
X2700000Y1261419D03*
G01*
X3000000Y938580D03*
G01*
X3000000Y1261419D03*
G01*
X3300000Y938580D03*
G01*
X3300000Y1261419D03*
G01*
X3600000Y938580D03*
G01*
X3600000Y1261419D03*
G01*
X3900000Y938580D03*
G01*
X3900000Y1261419D03*
G01*
X4200000Y938580D03*
G01*
X4200000Y1261419D03*
G01*
X4500000Y938580D03*
G01*
X4500000Y1261419D03*
G01*
X4800000Y938580D03*
G01*
X4800000Y1261419D03*
G01*
X5100000Y938580D03*
G01*
X5100000Y1261419D03*
G01*
X5400000Y938580D03*
G01*
X5400000Y1261419D03*
G01*
X5700000Y938580D03*
G01*
X5700000Y1261419D03*
G01*
X6000000Y938580D03*
G01*
X6000000Y1261419D03*
G01*
X6300000Y938580D03*
G01*
X6300000Y1261419D03*
G01*
X6600000Y938580D03*
G01*
X6600000Y1261419D03*
G01*
X6900000Y938580D03*
G01*
X6900000Y1261419D03*
G01*
X7200000Y938580D03*
G01*
X7200000Y1261419D03*
G01*
X7500000Y938580D03*
G01*
X7500000Y1261419D03*
G01*
X7800000Y938580D03*
G01*
X7800000Y1261419D03*
G01*
X8100000Y938580D03*
G01*
X8100000Y1261419D03*
G01*
X8400000Y938580D03*
G01*
X8400000Y1261419D03*
G01*
X8700000Y938580D03*
G01*
X8700000Y1261419D03*
G01*
X9000000Y938580D03*
G01*
X9000000Y1261419D03*
G01*
X9300000Y938580D03*
G01*
X9300000Y1261419D03*
G01*
X9600000Y938580D03*
G01*
X9600000Y1261419D03*
G01*
X9900000Y938580D03*
G01*
X9900000Y1261419D03*
G01*
X10200000Y938580D03*
G01*
X10200000Y1261419D03*
G01*
X10500000Y938580D03*
G01*
X10500000Y1261419D03*
G01*
X10800000Y938580D03*
G01*
X10800000Y1261419D03*
G01*
X11100000Y938580D03*
G01*
X11100000Y1261419D03*
D11*
G01*
X3023230Y3089760D03*
G01*
X3048819Y3089760D03*
G01*
X3074409Y3089760D03*
G01*
X3100000Y3089760D03*
G01*
X3125590Y3089760D03*
G01*
X3151180Y3089760D03*
G01*
X3176769Y3089760D03*
G01*
X3176769Y3310239D03*
G01*
X3151180Y3310239D03*
G01*
X3125590Y3310239D03*
G01*
X3100000Y3310239D03*
G01*
X3074409Y3310239D03*
G01*
X3048819Y3310239D03*
G01*
X3023230Y3310239D03*
G01*
X6681769Y3260239D03*
G01*
X6656180Y3260239D03*
G01*
X6630590Y3260239D03*
G01*
X6605000Y3260239D03*
G01*
X6579409Y3260239D03*
G01*
X6553819Y3260239D03*
G01*
X6528230Y3260239D03*
G01*
X6528230Y3039760D03*
G01*
X6553819Y3039760D03*
G01*
X6579409Y3039760D03*
G01*
X6605000Y3039760D03*
G01*
X6630590Y3039760D03*
G01*
X6656180Y3039760D03*
G01*
X6681769Y3039760D03*
M02*
