G04 Layer: TopLayer*
G04 EasyEDA v6.5.43, 2024-07-16 18:23:05*
G04 cb6e2e9fbd21486d88ae5690d2d3dc00,10*
G04 Gerber Generator version 0.2*
G04 Scale: 100 percent, Rotated: No, Reflected: No *
G04 Dimensions in inches *
G04 leading zeros omitted , absolute positions ,3 integer and 6 decimal *
%FSLAX36Y36*%
%MOIN*%

%ADD10C,0.0100*%
%ADD11R,0.0669X0.0748*%
%ADD12R,0.0157X0.0669*%
%ADD13C,0.0630*%
%ADD14C,0.0551*%
%ADD15R,0.0620X0.0620*%
%ADD16C,0.0620*%
%ADD17R,0.0630X0.0630*%
%ADD18C,0.0240*%
%ADD19C,0.0194*%

%LPD*%
D10*
X4650000Y938580D02*
G01*
X4500000Y938580D01*
X4800000Y938580D02*
G01*
X4650000Y938580D01*
X5055000Y3300000D02*
G01*
X5097010Y3300000D01*
X5097010Y3300000D02*
G01*
X5097010Y3310500D01*
X5149430Y3362919D01*
X6830389Y3362919D01*
X6893310Y3300000D01*
X4350000Y2188069D02*
G01*
X5791490Y2188069D01*
X5805000Y2201579D01*
X3400000Y2196579D02*
G01*
X4341490Y2196579D01*
X4350000Y2188069D01*
X4350000Y2145000D02*
G01*
X4350000Y2188069D01*
X3400000Y2196579D02*
G01*
X2001580Y2196579D01*
X1950000Y2145000D01*
X6811629Y2196579D02*
G01*
X6801580Y2196579D01*
X6750000Y2145000D01*
X8200000Y2196579D02*
G01*
X6811629Y2196579D01*
X6811629Y2196579D02*
G01*
X6811629Y2201280D01*
X9150000Y2145000D02*
G01*
X9098419Y2196579D01*
X8200000Y2196579D01*
X10850000Y2150000D02*
G01*
X10798400Y2201579D01*
X9900000Y2201579D01*
X1005000Y2196579D02*
G01*
X1898419Y2196579D01*
X1950000Y2145000D01*
X5805000Y2201579D02*
G01*
X6693419Y2201579D01*
X6750000Y2145000D01*
X9900000Y2201579D02*
G01*
X9206580Y2201579D01*
X9150000Y2145000D01*
X4500000Y938580D02*
G01*
X4200000Y938580D01*
X900000Y938580D02*
G01*
X600000Y938580D01*
X1200000Y938580D02*
G01*
X900000Y938580D01*
X1500000Y938580D02*
G01*
X1200000Y938580D01*
X1800000Y938580D02*
G01*
X1500000Y938580D01*
X2100000Y938580D02*
G01*
X1800000Y938580D01*
X2400000Y938580D02*
G01*
X2100000Y938580D01*
X2700000Y938580D02*
G01*
X2400000Y938580D01*
X3000000Y938580D02*
G01*
X2700000Y938580D01*
X3300000Y938580D02*
G01*
X3000000Y938580D01*
X3600000Y938580D02*
G01*
X3300000Y938580D01*
X3900000Y938580D02*
G01*
X3600000Y938580D01*
X4200000Y938580D02*
G01*
X3900000Y938580D01*
X5100000Y938580D02*
G01*
X4800000Y938580D01*
X5400000Y938580D02*
G01*
X5100000Y938580D01*
X5700000Y938580D02*
G01*
X5400000Y938580D01*
X6000000Y938580D02*
G01*
X5700000Y938580D01*
X6300000Y938580D02*
G01*
X6000000Y938580D01*
X6600000Y938580D02*
G01*
X6300000Y938580D01*
X6900000Y938580D02*
G01*
X6600000Y938580D01*
X7200000Y938580D02*
G01*
X6900000Y938580D01*
X7500000Y938580D02*
G01*
X7200000Y938580D01*
X7800000Y938580D02*
G01*
X7500000Y938580D01*
X8100000Y938580D02*
G01*
X7800000Y938580D01*
X8400000Y938580D02*
G01*
X8100000Y938580D01*
X8700000Y938580D02*
G01*
X8400000Y938580D01*
X9000000Y938580D02*
G01*
X8700000Y938580D01*
X9300000Y938580D02*
G01*
X9000000Y938580D01*
X9600000Y938580D02*
G01*
X9300000Y938580D01*
X9900000Y938580D02*
G01*
X9600000Y938580D01*
X10200000Y938580D02*
G01*
X9900000Y938580D01*
X10500000Y938580D02*
G01*
X10200000Y938580D01*
X10800000Y938580D02*
G01*
X10500000Y938580D01*
X11100000Y938580D02*
G01*
X10800000Y938580D01*
X3151180Y3089760D02*
G01*
X3151180Y3134240D01*
X3151180Y3134240D02*
G01*
X3156019Y3139079D01*
X5849530Y3139079D01*
X8550000Y2445000D02*
G01*
X8504040Y2490960D01*
X6195959Y2490960D01*
X6150000Y2445000D01*
X3750000Y2400100D02*
G01*
X5050379Y2400100D01*
X5137860Y2487579D01*
X6107420Y2487579D01*
X6150000Y2445000D01*
X1350000Y2445000D02*
G01*
X1392579Y2487579D01*
X3482960Y2487579D01*
X3570439Y2400100D01*
X3750000Y2400100D01*
X3750000Y2445000D02*
G01*
X3750000Y2400100D01*
X3125590Y3310239D02*
G01*
X3125590Y3265770D01*
X3191670Y3211460D02*
G01*
X3137359Y3265770D01*
X3125590Y3265770D01*
X3100000Y3038029D02*
G01*
X3100000Y3089760D01*
X3176769Y3045290D02*
G01*
X3189340Y3045290D01*
X3194589Y3040039D01*
X9046729Y2041239D02*
G01*
X9000000Y1994510D01*
X9000000Y1906689D01*
X1882299Y1906689D02*
G01*
X1800000Y1906689D01*
X2100000Y1906689D02*
G01*
X1882299Y1906689D01*
X1882299Y1906689D02*
G01*
X1882299Y1990560D01*
X6528230Y3215770D02*
G01*
X6528230Y3201399D01*
X6579409Y3150219D01*
X6579409Y3039760D01*
X3176769Y3089760D02*
G01*
X3176769Y3045290D01*
X6605000Y3260239D02*
G01*
X6605000Y3304720D01*
X6528230Y3260239D02*
G01*
X6528230Y3304720D01*
X6528230Y3304720D02*
G01*
X6528299Y3304789D01*
X6604930Y3304789D01*
X6605000Y3304720D01*
X6528230Y3238009D02*
G01*
X6528230Y3260239D01*
X6528230Y3238009D02*
G01*
X6528230Y3215770D01*
X2400000Y1906689D02*
G01*
X2100000Y1906689D01*
X4500000Y1906689D02*
G01*
X4200000Y1906689D01*
X4800000Y1906689D02*
G01*
X4500000Y1906689D01*
X6900000Y1906689D02*
G01*
X6600000Y1906689D01*
X7200000Y1906689D02*
G01*
X6900000Y1906689D01*
X9300000Y1906689D02*
G01*
X9000000Y1906689D01*
X9600000Y1906689D02*
G01*
X9300000Y1906689D01*
X7306689Y3300000D02*
G01*
X7222389Y3215700D01*
X6605069Y3215700D01*
X6605000Y3215770D01*
X6605000Y3260239D02*
G01*
X6605000Y3215770D01*
X600000Y1906689D02*
G01*
X900000Y1906689D01*
X900000Y1906689D02*
G01*
X1200000Y1906689D01*
X1200000Y1906689D02*
G01*
X1500000Y1906689D01*
X1500000Y1906689D02*
G01*
X1800000Y1906689D01*
X2400000Y1906689D02*
G01*
X2700000Y1906689D01*
X2700000Y1906689D02*
G01*
X3000000Y1906689D01*
X3000000Y1906689D02*
G01*
X3300000Y1906689D01*
X3300000Y1906689D02*
G01*
X3600000Y1906689D01*
X3600000Y1906689D02*
G01*
X3900000Y1906689D01*
X3900000Y1906689D02*
G01*
X4200000Y1906689D01*
X4800000Y1906689D02*
G01*
X5100000Y1906689D01*
X5100000Y1906689D02*
G01*
X5400000Y1906689D01*
X5400000Y1906689D02*
G01*
X5700000Y1906689D01*
X5700000Y1906689D02*
G01*
X6000000Y1906689D01*
X6000000Y1906689D02*
G01*
X6300000Y1906689D01*
X6300000Y1906689D02*
G01*
X6600000Y1906689D01*
X7200000Y1906689D02*
G01*
X7500000Y1906689D01*
X7500000Y1906689D02*
G01*
X7800000Y1906689D01*
X7800000Y1906689D02*
G01*
X8100000Y1906689D01*
X8100000Y1906689D02*
G01*
X8400000Y1906689D01*
X8400000Y1906689D02*
G01*
X8700000Y1906689D01*
X8700000Y1906689D02*
G01*
X9000000Y1906689D01*
X9600000Y1906689D02*
G01*
X9900000Y1906689D01*
X9900000Y1906689D02*
G01*
X10200000Y1906689D01*
X10200000Y1906689D02*
G01*
X10500000Y1906689D01*
X10500000Y1906689D02*
G01*
X10800000Y1906689D01*
X11100000Y1906689D02*
G01*
X10800000Y1906689D01*
X7500000Y1261419D02*
G01*
X7500000Y1493310D01*
X7200000Y1261419D02*
G01*
X7200000Y1493310D01*
X4800000Y1261419D02*
G01*
X4800000Y1493310D01*
X2700000Y1261419D02*
G01*
X2700000Y1493310D01*
X1800000Y1261419D02*
G01*
X1800000Y1493310D01*
X4350000Y2445000D02*
G01*
X4392510Y2445000D01*
X6681769Y3039760D02*
G01*
X6681769Y2995290D01*
X6749880Y2991210D02*
G01*
X6685850Y2991210D01*
X6681769Y2995290D01*
X4392510Y2445000D02*
G01*
X4693789Y2746280D01*
X6791440Y2746280D01*
X8450000Y2145000D02*
G01*
X8407140Y2102139D01*
X6192860Y2102139D01*
X6150000Y2145000D01*
X6630590Y3260239D02*
G01*
X6630590Y3304720D01*
X6630590Y3304720D02*
G01*
X6611940Y3323370D01*
X6139799Y3323370D01*
X5903490Y3087060D01*
X3202910Y3087060D01*
X3100000Y3310239D02*
G01*
X3100000Y3354720D01*
X3100000Y3354720D02*
G01*
X3104399Y3359119D01*
X5088860Y3359119D01*
X3048819Y3310239D02*
G01*
X3048819Y3354720D01*
X3048819Y3354720D02*
G01*
X3077110Y3383009D01*
X7587340Y3383009D01*
X7647399Y3322950D01*
X8437349Y2533000D02*
G01*
X8961999Y2533000D01*
X9050000Y2445000D01*
X3023230Y3089760D02*
G01*
X3023230Y3134240D01*
X5155000Y3300000D02*
G01*
X5012700Y3157700D01*
X3046689Y3157700D01*
X3023230Y3134240D01*
X10150000Y2150000D02*
G01*
X10102140Y2102139D01*
X8592860Y2102139D01*
X8550000Y2145000D01*
X3650000Y2145000D02*
G01*
X3607139Y2102139D01*
X1392860Y2102139D01*
X1350000Y2145000D01*
X6050000Y2145000D02*
G01*
X6007139Y2102139D01*
X3792860Y2102139D01*
X3750000Y2145000D01*
X11100000Y1261419D02*
G01*
X11100000Y1493310D01*
X10800000Y1261419D02*
G01*
X10800000Y1493310D01*
X10500000Y1261419D02*
G01*
X10500000Y1493310D01*
X10200000Y1261419D02*
G01*
X10200000Y1493310D01*
X600000Y1261419D02*
G01*
X600000Y1493310D01*
X900000Y1261419D02*
G01*
X900000Y1493310D01*
X1200000Y1261419D02*
G01*
X1200000Y1493310D01*
X1500000Y1261419D02*
G01*
X1500000Y1493310D01*
X2400000Y1261419D02*
G01*
X2400000Y1493310D01*
X3000000Y1261419D02*
G01*
X3000000Y1493310D01*
X3300000Y1261419D02*
G01*
X3300000Y1493310D01*
X3600000Y1261419D02*
G01*
X3600000Y1493310D01*
X3900000Y1261419D02*
G01*
X3900000Y1493310D01*
X4200000Y1261419D02*
G01*
X4200000Y1493310D01*
X5100000Y1261419D02*
G01*
X5100000Y1493310D01*
X5400000Y1261419D02*
G01*
X5400000Y1493310D01*
X5700000Y1261419D02*
G01*
X5700000Y1493310D01*
X6000000Y1261419D02*
G01*
X6000000Y1493310D01*
X6300000Y1261419D02*
G01*
X6300000Y1493310D01*
X6600000Y1261419D02*
G01*
X6600000Y1493310D01*
X6900000Y1261419D02*
G01*
X6900000Y1493310D01*
X7800000Y1261419D02*
G01*
X7800000Y1493310D01*
X8100000Y1261419D02*
G01*
X8100000Y1493310D01*
X8400000Y1261419D02*
G01*
X8400000Y1493310D01*
X8700000Y1261419D02*
G01*
X8700000Y1493310D01*
X9000000Y1261419D02*
G01*
X9000000Y1493310D01*
X9600000Y1261419D02*
G01*
X9600000Y1493310D01*
X9900000Y1261419D02*
G01*
X9900000Y1493310D01*
X9300000Y1261419D02*
G01*
X9300000Y1493310D01*
X4500000Y1261419D02*
G01*
X4500000Y1493310D01*
X2100000Y1261419D02*
G01*
X2100000Y1493310D01*
X3074409Y3264699D02*
G01*
X2827439Y3017730D01*
X2827439Y2990200D01*
X2841760Y2975880D01*
X3106180Y2975880D01*
X3125590Y2995290D01*
X3074409Y3269749D02*
G01*
X3074409Y3264699D01*
X3074409Y3264699D02*
G01*
X3152359Y3186750D01*
X3203329Y3186750D01*
X3214750Y3198170D01*
X3214750Y3227790D01*
X3176769Y3265770D01*
X3176769Y3310239D02*
G01*
X3176769Y3265770D01*
X3074409Y3310239D02*
G01*
X3074409Y3269749D01*
X3125590Y2995290D02*
G01*
X3125590Y3045290D01*
X3125590Y2995290D02*
G01*
X6528230Y2995290D01*
X3125590Y3089760D02*
G01*
X3125590Y3045290D01*
X6528230Y2996140D02*
G01*
X6528230Y2995290D01*
X6528230Y3039760D02*
G01*
X6528230Y2996140D01*
X6637070Y3090720D02*
G01*
X6637070Y3157809D01*
X6579409Y3215470D01*
X6579409Y3260239D01*
X6637070Y3090720D02*
G01*
X6630590Y3084240D01*
X7306689Y3000000D02*
G01*
X7215969Y3090720D01*
X6637070Y3090720D01*
X6630590Y3039760D02*
G01*
X6630590Y3084240D01*
X6630590Y3021500D02*
G01*
X6630590Y3039760D01*
X6630590Y3021500D02*
G01*
X6630590Y2995290D01*
X6630590Y2995290D02*
G01*
X6630519Y2995219D01*
X6528299Y2995219D01*
X6528230Y2995290D01*
X6681769Y3260239D02*
G01*
X6681769Y3304720D01*
X6681769Y3304720D02*
G01*
X6639750Y3346740D01*
X5301740Y3346740D01*
X5255000Y3300000D01*
X6656180Y2995290D02*
G01*
X6719049Y2932420D01*
X8630699Y2932420D01*
X9107500Y2455619D01*
X9107500Y2445000D01*
X6656180Y3039760D02*
G01*
X6656180Y2995290D01*
X9150000Y2445000D02*
G01*
X9107500Y2445000D01*
X3074409Y3045290D02*
G01*
X3033100Y3003980D01*
X2852690Y3003980D01*
X3074409Y3089760D02*
G01*
X3074409Y3045290D01*
X2974170Y3354720D02*
G01*
X3023230Y3354720D01*
X3023230Y3310239D02*
G01*
X3023230Y3354720D01*
X10807500Y2450000D02*
G01*
X10807500Y2439380D01*
X10718800Y2350630D01*
X6869020Y2350630D01*
X10850000Y2450000D02*
G01*
X10807500Y2450000D01*
X6553819Y3260239D02*
G01*
X6553819Y3215770D01*
X6557510Y3204740D02*
G01*
X6557510Y3212080D01*
X6553819Y3215770D01*
X6605000Y3039760D02*
G01*
X6605000Y3084240D01*
X6605000Y3084240D02*
G01*
X6605940Y3085180D01*
X6605940Y3092289D01*
D11*
G01*
X600000Y938580D03*
G01*
X600000Y1261419D03*
G01*
X900000Y938580D03*
G01*
X900000Y1261419D03*
G01*
X1200000Y938580D03*
G01*
X1200000Y1261419D03*
G01*
X1500000Y938580D03*
G01*
X1500000Y1261419D03*
G01*
X1800000Y938580D03*
G01*
X1800000Y1261419D03*
G01*
X2100000Y938580D03*
G01*
X2100000Y1261419D03*
G01*
X2400000Y938580D03*
G01*
X2400000Y1261419D03*
G01*
X2700000Y938580D03*
G01*
X2700000Y1261419D03*
G01*
X3000000Y938580D03*
G01*
X3000000Y1261419D03*
G01*
X3300000Y938580D03*
G01*
X3300000Y1261419D03*
G01*
X3600000Y938580D03*
G01*
X3600000Y1261419D03*
G01*
X3900000Y938580D03*
G01*
X3900000Y1261419D03*
G01*
X4200000Y938580D03*
G01*
X4200000Y1261419D03*
G01*
X4500000Y938580D03*
G01*
X4500000Y1261419D03*
G01*
X4800000Y938580D03*
G01*
X4800000Y1261419D03*
G01*
X5100000Y938580D03*
G01*
X5100000Y1261419D03*
G01*
X5400000Y938580D03*
G01*
X5400000Y1261419D03*
G01*
X5700000Y938580D03*
G01*
X5700000Y1261419D03*
G01*
X6000000Y938580D03*
G01*
X6000000Y1261419D03*
G01*
X6300000Y938580D03*
G01*
X6300000Y1261419D03*
G01*
X6600000Y938580D03*
G01*
X6600000Y1261419D03*
G01*
X6900000Y938580D03*
G01*
X6900000Y1261419D03*
G01*
X7200000Y938580D03*
G01*
X7200000Y1261419D03*
G01*
X7500000Y938580D03*
G01*
X7500000Y1261419D03*
G01*
X7800000Y938580D03*
G01*
X7800000Y1261419D03*
G01*
X8100000Y938580D03*
G01*
X8100000Y1261419D03*
G01*
X8400000Y938580D03*
G01*
X8400000Y1261419D03*
G01*
X8700000Y938580D03*
G01*
X8700000Y1261419D03*
G01*
X9000000Y938580D03*
G01*
X9000000Y1261419D03*
G01*
X9300000Y938580D03*
G01*
X9300000Y1261419D03*
G01*
X9600000Y938580D03*
G01*
X9600000Y1261419D03*
G01*
X9900000Y938580D03*
G01*
X9900000Y1261419D03*
G01*
X10200000Y938580D03*
G01*
X10200000Y1261419D03*
G01*
X10500000Y938580D03*
G01*
X10500000Y1261419D03*
G01*
X10800000Y938580D03*
G01*
X10800000Y1261419D03*
G01*
X11100000Y938580D03*
G01*
X11100000Y1261419D03*
D12*
G01*
X3023230Y3089760D03*
G01*
X3048819Y3089760D03*
G01*
X3074409Y3089760D03*
G01*
X3100000Y3089760D03*
G01*
X3125590Y3089760D03*
G01*
X3151180Y3089760D03*
G01*
X3176769Y3089760D03*
G01*
X3176769Y3310239D03*
G01*
X3151180Y3310239D03*
G01*
X3125590Y3310239D03*
G01*
X3100000Y3310239D03*
G01*
X3074409Y3310239D03*
G01*
X3048819Y3310239D03*
G01*
X3023230Y3310239D03*
G01*
X6681769Y3260239D03*
G01*
X6656180Y3260239D03*
G01*
X6630590Y3260239D03*
G01*
X6605000Y3260239D03*
G01*
X6579409Y3260239D03*
G01*
X6553819Y3260239D03*
G01*
X6528230Y3260239D03*
G01*
X6528230Y3039760D03*
G01*
X6553819Y3039760D03*
G01*
X6579409Y3039760D03*
G01*
X6605000Y3039760D03*
G01*
X6630590Y3039760D03*
G01*
X6656180Y3039760D03*
G01*
X6681769Y3039760D03*
D13*
G01*
X1005000Y2196579D03*
G01*
X1005000Y2393429D03*
G01*
X3400000Y2196579D03*
G01*
X3400000Y2393429D03*
G01*
X5805000Y2201579D03*
G01*
X5805000Y2398429D03*
G01*
X8200000Y2196579D03*
G01*
X8200000Y2393429D03*
G01*
X9900000Y2201579D03*
G01*
X9900000Y2398429D03*
D14*
G01*
X600000Y1493310D03*
G01*
X600000Y1906689D03*
G01*
X900000Y1493310D03*
G01*
X900000Y1906689D03*
G01*
X1200000Y1493310D03*
G01*
X1200000Y1906689D03*
G01*
X1500000Y1493310D03*
G01*
X1500000Y1906689D03*
G01*
X1800000Y1493310D03*
G01*
X1800000Y1906689D03*
G01*
X2100000Y1493310D03*
G01*
X2100000Y1906689D03*
G01*
X2400000Y1493310D03*
G01*
X2400000Y1906689D03*
G01*
X2700000Y1493310D03*
G01*
X2700000Y1906689D03*
G01*
X3000000Y1493310D03*
G01*
X3000000Y1906689D03*
G01*
X3300000Y1493310D03*
G01*
X3300000Y1906689D03*
G01*
X3600000Y1493310D03*
G01*
X3600000Y1906689D03*
G01*
X3900000Y1493310D03*
G01*
X3900000Y1906689D03*
G01*
X4200000Y1493310D03*
G01*
X4200000Y1906689D03*
G01*
X4500000Y1493310D03*
G01*
X4500000Y1906689D03*
G01*
X4800000Y1493310D03*
G01*
X4800000Y1906689D03*
G01*
X5100000Y1493310D03*
G01*
X5100000Y1906689D03*
G01*
X5400000Y1493310D03*
G01*
X5400000Y1906689D03*
G01*
X5700000Y1493310D03*
G01*
X5700000Y1906689D03*
G01*
X6000000Y1493310D03*
G01*
X6000000Y1906689D03*
G01*
X6300000Y1493310D03*
G01*
X6300000Y1906689D03*
G01*
X6600000Y1493310D03*
G01*
X6600000Y1906689D03*
G01*
X6900000Y1493310D03*
G01*
X6900000Y1906689D03*
G01*
X7200000Y1493310D03*
G01*
X7200000Y1906689D03*
G01*
X7500000Y1493310D03*
G01*
X7500000Y1906689D03*
G01*
X7800000Y1493310D03*
G01*
X7800000Y1906689D03*
G01*
X8100000Y1493310D03*
G01*
X8100000Y1906689D03*
G01*
X8400000Y1493310D03*
G01*
X8400000Y1906689D03*
G01*
X8700000Y1493310D03*
G01*
X8700000Y1906689D03*
G01*
X9000000Y1493310D03*
G01*
X9000000Y1906689D03*
G01*
X9300000Y1493310D03*
G01*
X9300000Y1906689D03*
G01*
X9600000Y1493310D03*
G01*
X9600000Y1906689D03*
G01*
X9900000Y1493310D03*
G01*
X9900000Y1906689D03*
G01*
X10200000Y1493310D03*
G01*
X10200000Y1906689D03*
G01*
X10500000Y1493310D03*
G01*
X10500000Y1906689D03*
G01*
X10800000Y1493310D03*
G01*
X10800000Y1906689D03*
G01*
X11100000Y1493310D03*
G01*
X11100000Y1906689D03*
D15*
G01*
X5055000Y3300000D03*
D16*
G01*
X5155000Y3300000D03*
G01*
X5255000Y3300000D03*
G01*
X5355000Y3300000D03*
G01*
X5455000Y3300000D03*
G01*
X5555000Y3300000D03*
G01*
X5655000Y3300000D03*
G01*
X5755000Y3300000D03*
D13*
G01*
X1950000Y2145000D03*
G01*
X1850000Y2145000D03*
G01*
X1750000Y2145000D03*
G01*
X1650000Y2145000D03*
G01*
X1550000Y2145000D03*
G01*
X1450000Y2145000D03*
G01*
X1350000Y2145000D03*
G01*
X1250000Y2145000D03*
G01*
X1250000Y2445000D03*
G01*
X1350000Y2445000D03*
G01*
X1450000Y2445000D03*
G01*
X1550000Y2445000D03*
G01*
X1650000Y2445000D03*
G01*
X1750000Y2445000D03*
G01*
X1850000Y2445000D03*
D17*
G01*
X1950000Y2445000D03*
D13*
G01*
X4350000Y2145000D03*
G01*
X4250000Y2145000D03*
G01*
X4150000Y2145000D03*
G01*
X4050000Y2145000D03*
G01*
X3950000Y2145000D03*
G01*
X3850000Y2145000D03*
G01*
X3750000Y2145000D03*
G01*
X3650000Y2145000D03*
G01*
X3650000Y2445000D03*
G01*
X3750000Y2445000D03*
G01*
X3850000Y2445000D03*
G01*
X3950000Y2445000D03*
G01*
X4050000Y2445000D03*
G01*
X4150000Y2445000D03*
G01*
X4250000Y2445000D03*
D17*
G01*
X4350000Y2445000D03*
D13*
G01*
X6750000Y2145000D03*
G01*
X6650000Y2145000D03*
G01*
X6550000Y2145000D03*
G01*
X6450000Y2145000D03*
G01*
X6350000Y2145000D03*
G01*
X6250000Y2145000D03*
G01*
X6150000Y2145000D03*
G01*
X6050000Y2145000D03*
G01*
X6050000Y2445000D03*
G01*
X6150000Y2445000D03*
G01*
X6250000Y2445000D03*
G01*
X6350000Y2445000D03*
G01*
X6450000Y2445000D03*
G01*
X6550000Y2445000D03*
G01*
X6650000Y2445000D03*
D17*
G01*
X6750000Y2445000D03*
D13*
G01*
X9150000Y2145000D03*
G01*
X9050000Y2145000D03*
G01*
X8950000Y2145000D03*
G01*
X8850000Y2145000D03*
G01*
X8750000Y2145000D03*
G01*
X8650000Y2145000D03*
G01*
X8550000Y2145000D03*
G01*
X8450000Y2145000D03*
G01*
X8450000Y2445000D03*
G01*
X8550000Y2445000D03*
G01*
X8650000Y2445000D03*
G01*
X8750000Y2445000D03*
G01*
X8850000Y2445000D03*
G01*
X8950000Y2445000D03*
G01*
X9050000Y2445000D03*
D17*
G01*
X9150000Y2445000D03*
D13*
G01*
X10850000Y2150000D03*
G01*
X10750000Y2150000D03*
G01*
X10650000Y2150000D03*
G01*
X10550000Y2150000D03*
G01*
X10450000Y2150000D03*
G01*
X10350000Y2150000D03*
G01*
X10250000Y2150000D03*
G01*
X10150000Y2150000D03*
G01*
X10150000Y2450000D03*
G01*
X10250000Y2450000D03*
G01*
X10350000Y2450000D03*
G01*
X10450000Y2450000D03*
G01*
X10550000Y2450000D03*
G01*
X10650000Y2450000D03*
G01*
X10750000Y2450000D03*
D17*
G01*
X10850000Y2450000D03*
D13*
G01*
X6893310Y3000000D03*
G01*
X7306689Y3000000D03*
G01*
X7306689Y3300000D03*
G01*
X6893310Y3300000D03*
D18*
G01*
X4650000Y938580D03*
G01*
X6811629Y2201280D03*
G01*
X5849530Y3139079D03*
G01*
X3191670Y3211460D03*
G01*
X3100000Y3038029D03*
G01*
X9046729Y2041239D03*
G01*
X1882299Y1990560D03*
G01*
X3194589Y3040039D03*
G01*
X6749880Y2991210D03*
G01*
X6791440Y2746280D03*
G01*
X3202910Y3087060D03*
G01*
X5088860Y3359119D03*
G01*
X8437349Y2533000D03*
G01*
X7647399Y3322950D03*
G01*
X2852690Y3003980D03*
G01*
X2974170Y3354720D03*
G01*
X6557510Y3204740D03*
G01*
X6869020Y2350630D03*
G01*
X6605940Y3092289D03*
M02*
