G04 Layer: TopSolderMaskLayer*
G04 EasyEDA v6.5.43, 2024-08-27 13:26:19*
G04 cb6e2e9fbd21486d88ae5690d2d3dc00,10*
G04 Gerber Generator version 0.2*
G04 Scale: 100 percent, Rotated: No, Reflected: No *
G04 Dimensions in millimeters *
G04 leading zeros omitted , absolute positions ,4 integer and 5 decimal *
%FSLAX45Y45*%
%MOMM*%

%AMMACRO1*4,1,8,-0.4211,-0.5009,-0.4509,-0.4709,-0.4509,0.4712,-0.4211,0.5009,0.4209,0.5009,0.4509,0.4712,0.4509,-0.4709,0.4209,-0.5009,-0.4211,-0.5009,0*%
%AMMACRO2*4,1,8,-0.4712,-0.4509,-0.5009,-0.4209,-0.5009,0.4211,-0.4712,0.4509,0.4709,0.4509,0.5009,0.4211,0.5009,-0.4209,0.4709,-0.4509,-0.4712,-0.4509,0*%
%AMMACRO3*4,1,8,-0.4712,-0.4508,-0.5009,-0.4209,-0.5009,0.4211,-0.4712,0.4508,0.4709,0.4508,0.5009,0.4211,0.5009,-0.4209,0.4709,-0.4508,-0.4712,-0.4508,0*%
%AMMACRO4*4,1,8,-0.5211,-0.4257,-0.5508,-0.3957,-0.5508,0.396,-0.5211,0.4257,0.5208,0.4257,0.5508,0.396,0.5508,-0.3957,0.5208,-0.4257,-0.5211,-0.4257,0*%
%AMMACRO5*4,1,8,-0.3211,-0.6008,-0.3508,-0.5709,-0.3508,0.5711,-0.3211,0.6008,0.3208,0.6008,0.3508,0.5711,0.3508,-0.5709,0.3208,-0.6008,-0.3211,-0.6008,0*%
%AMMACRO6*4,1,8,-1.3711,-0.8007,-1.4008,-0.7708,-1.4008,0.771,-1.3711,0.8007,1.3708,0.8007,1.4008,0.771,1.4008,-0.7708,1.3708,-0.8007,-1.3711,-0.8007,0*%
%AMMACRO7*4,1,8,-1.0211,-0.2758,-1.0508,-0.2459,-1.0508,0.2461,-1.0211,0.2758,1.0208,0.2758,1.0508,0.2461,1.0508,-0.2459,1.0208,-0.2758,-1.0211,-0.2758,0*%
%AMMACRO8*4,1,8,-1.0711,-1.0008,-1.1008,-0.9708,-1.1008,0.971,-1.0711,1.0008,1.0709,1.0008,1.1008,0.971,1.1008,-0.9708,1.0709,-1.0008,-1.0711,-1.0008,0*%
%AMMACRO9*4,1,8,-1.071,-1.0008,-1.1007,-0.9708,-1.1007,0.971,-1.071,1.0008,1.0707,1.0008,1.1007,0.971,1.1007,-0.9708,1.0707,-1.0008,-1.071,-1.0008,0*%
%AMMACRO10*4,1,8,-0.4211,-0.5009,-0.4508,-0.4709,-0.4508,0.4712,-0.4211,0.5009,0.4209,0.5009,0.4508,0.4712,0.4508,-0.4709,0.4209,-0.5009,-0.4211,-0.5009,0*%
%AMMACRO11*4,1,8,-0.4243,-0.4829,-0.454,-0.4529,-0.454,0.4531,-0.4243,0.4829,0.4241,0.4829,0.454,0.4531,0.454,-0.4529,0.4241,-0.4829,-0.4243,-0.4829,0*%
%AMMACRO12*4,1,8,-0.8085,-0.8382,-0.8382,-0.8082,-0.8382,0.8085,-0.8085,0.8382,0.8082,0.8382,0.8382,0.8085,0.8382,-0.8082,0.8082,-0.8382,-0.8085,-0.8382,0*%
%AMMACRO13*4,1,8,-0.871,-0.8382,-0.9007,-0.8082,-0.9007,0.8085,-0.871,0.8382,0.8707,0.8382,0.9007,0.8085,0.9007,-0.8082,0.8707,-0.8382,-0.871,-0.8382,0*%
%AMMACRO14*4,1,8,-0.7711,-2.0508,-0.8009,-2.0208,-0.8009,2.0211,-0.7711,2.0508,0.7709,2.0508,0.8009,2.0211,0.8009,-2.0208,0.7709,-2.0508,-0.7711,-2.0508,0*%
%AMMACRO15*4,1,8,-1.0211,-0.5508,-1.0508,-0.5208,-1.0508,0.5211,-1.0211,0.5508,1.0208,0.5508,1.0508,0.5211,1.0508,-0.5208,1.0208,-0.5508,-1.0211,-0.5508,0*%
%ADD10O,0.4656074X1.8436082*%
%ADD11MACRO1*%
%ADD12MACRO2*%
%ADD13MACRO3*%
%ADD14MACRO4*%
%ADD15MACRO5*%
%ADD16MACRO6*%
%ADD17MACRO7*%
%ADD18MACRO8*%
%ADD19MACRO9*%
%ADD20MACRO10*%
%ADD21MACRO11*%
%ADD22C,1.6764*%
%ADD23MACRO12*%
%ADD24MACRO13*%
%ADD25C,1.8016*%
%ADD26MACRO14*%
%ADD27MACRO15*%
%ADD28C,2.6016*%

%LPD*%
D10*
G01*
X4131792Y1301318D03*
G01*
X4066793Y1301318D03*
G01*
X4001795Y1301318D03*
G01*
X3936796Y1301318D03*
G01*
X3871772Y1301318D03*
G01*
X3806774Y1301318D03*
G01*
X3741775Y1301318D03*
G01*
X3676777Y1301318D03*
G01*
X3611778Y1301318D03*
G01*
X3546779Y1301318D03*
G01*
X4131792Y727125D03*
G01*
X4066793Y727125D03*
G01*
X4001795Y727125D03*
G01*
X3936796Y727125D03*
G01*
X3871772Y727125D03*
G01*
X3806774Y727125D03*
G01*
X3741775Y727125D03*
G01*
X3676777Y727125D03*
G01*
X3611778Y727125D03*
G01*
X3546779Y727125D03*
D11*
G01*
X3936796Y1663700D03*
G01*
X3796792Y1663700D03*
G01*
X3936796Y1841500D03*
G01*
X3796792Y1841500D03*
G01*
X4527397Y1295400D03*
G01*
X4667402Y1295400D03*
G01*
X4514697Y1905000D03*
G01*
X4654702Y1905000D03*
D12*
G01*
X3543300Y2314397D03*
D13*
G01*
X3543300Y2174392D03*
D12*
G01*
X4191000Y2314397D03*
D13*
G01*
X4191000Y2174392D03*
D11*
G01*
X3562502Y1841500D03*
G01*
X3422497Y1841500D03*
D14*
G01*
X3512299Y2552700D03*
G01*
X3746817Y2552700D03*
D15*
G01*
X3936796Y2054390D03*
G01*
X3746804Y2054390D03*
G01*
X3746804Y2314409D03*
G01*
X3841800Y2314409D03*
G01*
X3936796Y2314409D03*
D16*
G01*
X4521885Y1693430D03*
G01*
X4521885Y1503438D03*
D17*
G01*
X585317Y2394203D03*
G01*
X585317Y2459227D03*
G01*
X585317Y2524251D03*
G01*
X585317Y2589275D03*
G01*
X585317Y2654300D03*
D18*
G01*
X278307Y2124227D03*
G01*
X278307Y2924225D03*
D19*
G01*
X276771Y2645206D03*
D18*
G01*
X274802Y2393238D03*
D20*
G01*
X3124200Y622300D03*
D11*
G01*
X3264204Y622300D03*
D21*
G01*
X3275723Y914400D03*
G01*
X3125076Y914400D03*
D22*
G01*
X2705100Y2654300D03*
G01*
X2451100Y2654300D03*
G01*
X2197100Y2654300D03*
G01*
X1943100Y2654300D03*
D23*
G01*
X1689100Y2654300D03*
D24*
G01*
X3911600Y254000D03*
D25*
G01*
X4165600Y254000D03*
D26*
G01*
X223519Y850900D03*
G01*
X919480Y850900D03*
G01*
X421640Y1651000D03*
D27*
G01*
X2836163Y231000D03*
G01*
X1876171Y231000D03*
G01*
X2836163Y621017D03*
G01*
X1876171Y621017D03*
D28*
G01*
X2065527Y1651000D03*
G01*
X2065527Y1151128D03*
G01*
X2065527Y2151126D03*
M02*
