G04 Layer: BottomSilkscreenLayer*
G04 EasyEDA v6.5.43, 2024-08-15 14:15:18*
G04 cb6e2e9fbd21486d88ae5690d2d3dc00,10*
G04 Gerber Generator version 0.2*
G04 Scale: 100 percent, Rotated: No, Reflected: No *
G04 Dimensions in millimeters *
G04 leading zeros omitted , absolute positions ,4 integer and 5 decimal *
%FSLAX45Y45*%
%MOMM*%

%ADD10C,0.1524*%
%ADD11C,0.2540*%

%LPD*%
D10*
X10935738Y2667000D02*
G01*
X10826635Y2667000D01*
X10935738Y2667000D02*
G01*
X10935738Y2713758D01*
X10930544Y2729344D01*
X10925347Y2734541D01*
X10914956Y2739735D01*
X10904565Y2739735D01*
X10894174Y2734541D01*
X10888979Y2729344D01*
X10883785Y2713758D01*
X10883785Y2667000D01*
X10883785Y2703367D02*
G01*
X10826635Y2739735D01*
X10899371Y2841566D02*
G01*
X10883785Y2836372D01*
X10873394Y2825981D01*
X10868197Y2810395D01*
X10868197Y2805198D01*
X10873394Y2789613D01*
X10883785Y2779222D01*
X10899371Y2774025D01*
X10904565Y2774025D01*
X10920153Y2779222D01*
X10930544Y2789613D01*
X10935738Y2805198D01*
X10935738Y2810395D01*
X10930544Y2825981D01*
X10920153Y2836372D01*
X10899371Y2841566D01*
X10873394Y2841566D01*
X10847415Y2836372D01*
X10831829Y2825981D01*
X10826635Y2810395D01*
X10826635Y2800004D01*
X10831829Y2784416D01*
X10842221Y2779222D01*
X12205738Y2667000D02*
G01*
X12096635Y2667000D01*
X12205738Y2667000D02*
G01*
X12205738Y2713758D01*
X12200544Y2729344D01*
X12195347Y2734541D01*
X12184956Y2739735D01*
X12174565Y2739735D01*
X12164174Y2734541D01*
X12158979Y2729344D01*
X12153785Y2713758D01*
X12153785Y2667000D01*
X12153785Y2703367D02*
G01*
X12096635Y2739735D01*
X12184956Y2774025D02*
G01*
X12190153Y2784416D01*
X12205738Y2800004D01*
X12096635Y2800004D01*
X12205738Y2865465D02*
G01*
X12200544Y2849879D01*
X12184956Y2839488D01*
X12158979Y2834294D01*
X12143394Y2834294D01*
X12117415Y2839488D01*
X12101829Y2849879D01*
X12096635Y2865465D01*
X12096635Y2875856D01*
X12101829Y2891444D01*
X12117415Y2901835D01*
X12143394Y2907029D01*
X12158979Y2907029D01*
X12184956Y2901835D01*
X12200544Y2891444D01*
X12205738Y2875856D01*
X12205738Y2865465D01*
X13475738Y2667000D02*
G01*
X13366635Y2667000D01*
X13475738Y2667000D02*
G01*
X13475738Y2713758D01*
X13470544Y2729344D01*
X13465347Y2734541D01*
X13454956Y2739735D01*
X13444565Y2739735D01*
X13434174Y2734541D01*
X13428979Y2729344D01*
X13423785Y2713758D01*
X13423785Y2667000D01*
X13423785Y2703367D02*
G01*
X13366635Y2739735D01*
X13454956Y2774025D02*
G01*
X13460153Y2784416D01*
X13475738Y2800004D01*
X13366635Y2800004D01*
X13454956Y2834294D02*
G01*
X13460153Y2844685D01*
X13475738Y2860271D01*
X13366635Y2860271D01*
X14745738Y2667000D02*
G01*
X14636635Y2667000D01*
X14745738Y2667000D02*
G01*
X14745738Y2713758D01*
X14740544Y2729344D01*
X14735347Y2734541D01*
X14724956Y2739735D01*
X14714565Y2739735D01*
X14704174Y2734541D01*
X14698979Y2729344D01*
X14693785Y2713758D01*
X14693785Y2667000D01*
X14693785Y2703367D02*
G01*
X14636635Y2739735D01*
X14724956Y2774025D02*
G01*
X14730153Y2784416D01*
X14745738Y2800004D01*
X14636635Y2800004D01*
X14719762Y2839488D02*
G01*
X14724956Y2839488D01*
X14735347Y2844685D01*
X14740544Y2849879D01*
X14745738Y2860271D01*
X14745738Y2881053D01*
X14740544Y2891444D01*
X14735347Y2896638D01*
X14724956Y2901835D01*
X14714565Y2901835D01*
X14704174Y2896638D01*
X14688588Y2886247D01*
X14636635Y2834294D01*
X14636635Y2907029D01*
X16015738Y2667000D02*
G01*
X15906635Y2667000D01*
X16015738Y2667000D02*
G01*
X16015738Y2713758D01*
X16010544Y2729344D01*
X16005347Y2734541D01*
X15994956Y2739735D01*
X15984565Y2739735D01*
X15974174Y2734541D01*
X15968979Y2729344D01*
X15963785Y2713758D01*
X15963785Y2667000D01*
X15963785Y2703367D02*
G01*
X15906635Y2739735D01*
X15994956Y2774025D02*
G01*
X16000153Y2784416D01*
X16015738Y2800004D01*
X15906635Y2800004D01*
X16015738Y2844685D02*
G01*
X16015738Y2901835D01*
X15974174Y2870662D01*
X15974174Y2886247D01*
X15968979Y2896638D01*
X15963785Y2901835D01*
X15948197Y2907029D01*
X15937806Y2907029D01*
X15922221Y2901835D01*
X15911829Y2891444D01*
X15906635Y2875856D01*
X15906635Y2860271D01*
X15911829Y2844685D01*
X15917024Y2839488D01*
X15927415Y2834294D01*
X17278474Y2675788D02*
G01*
X17169371Y2675788D01*
X17278474Y2675788D02*
G01*
X17278474Y2722547D01*
X17273280Y2738132D01*
X17268083Y2743329D01*
X17257692Y2748523D01*
X17247301Y2748523D01*
X17236909Y2743329D01*
X17231715Y2738132D01*
X17226521Y2722547D01*
X17226521Y2675788D01*
X17226521Y2712156D02*
G01*
X17169371Y2748523D01*
X17257692Y2782813D02*
G01*
X17262889Y2793204D01*
X17278474Y2808792D01*
X17169371Y2808792D01*
X17278474Y2895036D02*
G01*
X17205739Y2843082D01*
X17205739Y2921012D01*
X17278474Y2895036D02*
G01*
X17169371Y2895036D01*
X18020261Y2667005D02*
G01*
X18129364Y2667005D01*
X18020261Y2667005D02*
G01*
X18020261Y2620246D01*
X18025455Y2604660D01*
X18030652Y2599463D01*
X18041043Y2594269D01*
X18051434Y2594269D01*
X18061825Y2599463D01*
X18067020Y2604660D01*
X18072214Y2620246D01*
X18072214Y2667005D01*
X18072214Y2630637D02*
G01*
X18129364Y2594269D01*
X18041043Y2559979D02*
G01*
X18035846Y2549588D01*
X18020261Y2534000D01*
X18129364Y2534000D01*
X18020261Y2437366D02*
G01*
X18020261Y2489319D01*
X18067020Y2494516D01*
X18061825Y2489319D01*
X18056628Y2473733D01*
X18056628Y2458148D01*
X18061825Y2442560D01*
X18072214Y2432169D01*
X18087802Y2426975D01*
X18098193Y2426975D01*
X18113778Y2432169D01*
X18124170Y2442560D01*
X18129364Y2458148D01*
X18129364Y2473733D01*
X18124170Y2489319D01*
X18118975Y2494516D01*
X18108584Y2499710D01*
X19290261Y2667000D02*
G01*
X19399364Y2667000D01*
X19290261Y2667000D02*
G01*
X19290261Y2620241D01*
X19295455Y2604655D01*
X19300652Y2599458D01*
X19311043Y2594264D01*
X19321434Y2594264D01*
X19331825Y2599458D01*
X19337020Y2604655D01*
X19342214Y2620241D01*
X19342214Y2667000D01*
X19342214Y2630632D02*
G01*
X19399364Y2594264D01*
X19311043Y2559974D02*
G01*
X19305846Y2549583D01*
X19290261Y2533995D01*
X19399364Y2533995D01*
X19305846Y2437361D02*
G01*
X19295455Y2442555D01*
X19290261Y2458143D01*
X19290261Y2468534D01*
X19295455Y2484120D01*
X19311043Y2494511D01*
X19337020Y2499705D01*
X19362996Y2499705D01*
X19383778Y2494511D01*
X19394170Y2484120D01*
X19399364Y2468534D01*
X19399364Y2463337D01*
X19394170Y2447752D01*
X19383778Y2437361D01*
X19368193Y2432164D01*
X19362996Y2432164D01*
X19347411Y2437361D01*
X19337020Y2447752D01*
X19331825Y2463337D01*
X19331825Y2468534D01*
X19337020Y2484120D01*
X19347411Y2494511D01*
X19362996Y2499705D01*
X20560261Y2667000D02*
G01*
X20669364Y2667000D01*
X20560261Y2667000D02*
G01*
X20560261Y2620241D01*
X20565455Y2604655D01*
X20570652Y2599458D01*
X20581043Y2594264D01*
X20591434Y2594264D01*
X20601825Y2599458D01*
X20607020Y2604655D01*
X20612214Y2620241D01*
X20612214Y2667000D01*
X20612214Y2630632D02*
G01*
X20669364Y2594264D01*
X20581043Y2559974D02*
G01*
X20575846Y2549583D01*
X20560261Y2533995D01*
X20669364Y2533995D01*
X20560261Y2426970D02*
G01*
X20669364Y2478925D01*
X20560261Y2499705D02*
G01*
X20560261Y2426970D01*
X21830261Y2667000D02*
G01*
X21939364Y2667000D01*
X21830261Y2667000D02*
G01*
X21830261Y2620241D01*
X21835455Y2604655D01*
X21840652Y2599458D01*
X21851043Y2594264D01*
X21861434Y2594264D01*
X21871825Y2599458D01*
X21877020Y2604655D01*
X21882214Y2620241D01*
X21882214Y2667000D01*
X21882214Y2630632D02*
G01*
X21939364Y2594264D01*
X21851043Y2559974D02*
G01*
X21845846Y2549583D01*
X21830261Y2533995D01*
X21939364Y2533995D01*
X21830261Y2473728D02*
G01*
X21835455Y2489314D01*
X21845846Y2494511D01*
X21856237Y2494511D01*
X21866628Y2489314D01*
X21871825Y2478925D01*
X21877020Y2458143D01*
X21882214Y2442555D01*
X21892605Y2432164D01*
X21902996Y2426970D01*
X21918584Y2426970D01*
X21928975Y2432164D01*
X21934170Y2437361D01*
X21939364Y2452946D01*
X21939364Y2473728D01*
X21934170Y2489314D01*
X21928975Y2494511D01*
X21918584Y2499705D01*
X21902996Y2499705D01*
X21892605Y2494511D01*
X21882214Y2484120D01*
X21877020Y2468534D01*
X21871825Y2447752D01*
X21866628Y2437361D01*
X21856237Y2432164D01*
X21845846Y2432164D01*
X21835455Y2437361D01*
X21830261Y2452946D01*
X21830261Y2473728D01*
X23100261Y2667000D02*
G01*
X23209364Y2667000D01*
X23100261Y2667000D02*
G01*
X23100261Y2620241D01*
X23105455Y2604655D01*
X23110652Y2599458D01*
X23121043Y2594264D01*
X23131434Y2594264D01*
X23141825Y2599458D01*
X23147020Y2604655D01*
X23152214Y2620241D01*
X23152214Y2667000D01*
X23152214Y2630632D02*
G01*
X23209364Y2594264D01*
X23121043Y2559974D02*
G01*
X23115846Y2549583D01*
X23100261Y2533995D01*
X23209364Y2533995D01*
X23136628Y2432164D02*
G01*
X23152214Y2437361D01*
X23162605Y2447752D01*
X23167802Y2463337D01*
X23167802Y2468534D01*
X23162605Y2484120D01*
X23152214Y2494511D01*
X23136628Y2499705D01*
X23131434Y2499705D01*
X23115846Y2494511D01*
X23105455Y2484120D01*
X23100261Y2468534D01*
X23100261Y2463337D01*
X23105455Y2447752D01*
X23115846Y2437361D01*
X23136628Y2432164D01*
X23162605Y2432164D01*
X23188584Y2437361D01*
X23204170Y2447752D01*
X23209364Y2463337D01*
X23209364Y2473728D01*
X23204170Y2489314D01*
X23193778Y2494511D01*
X24370261Y2667000D02*
G01*
X24479364Y2667000D01*
X24370261Y2667000D02*
G01*
X24370261Y2620241D01*
X24375455Y2604655D01*
X24380652Y2599458D01*
X24391043Y2594264D01*
X24401434Y2594264D01*
X24411825Y2599458D01*
X24417020Y2604655D01*
X24422214Y2620241D01*
X24422214Y2667000D01*
X24422214Y2630632D02*
G01*
X24479364Y2594264D01*
X24396237Y2554777D02*
G01*
X24391043Y2554777D01*
X24380652Y2549583D01*
X24375455Y2544386D01*
X24370261Y2533995D01*
X24370261Y2513215D01*
X24375455Y2502824D01*
X24380652Y2497627D01*
X24391043Y2492433D01*
X24401434Y2492433D01*
X24411825Y2497627D01*
X24427411Y2508018D01*
X24479364Y2559974D01*
X24479364Y2487236D01*
X24370261Y2421775D02*
G01*
X24375455Y2437361D01*
X24391043Y2447752D01*
X24417020Y2452946D01*
X24432605Y2452946D01*
X24458584Y2447752D01*
X24474170Y2437361D01*
X24479364Y2421775D01*
X24479364Y2411384D01*
X24474170Y2395796D01*
X24458584Y2385405D01*
X24432605Y2380211D01*
X24417020Y2380211D01*
X24391043Y2385405D01*
X24375455Y2395796D01*
X24370261Y2411384D01*
X24370261Y2421775D01*
X25640261Y2654300D02*
G01*
X25749364Y2654300D01*
X25640261Y2654300D02*
G01*
X25640261Y2607541D01*
X25645455Y2591955D01*
X25650652Y2586758D01*
X25661043Y2581564D01*
X25671434Y2581564D01*
X25681825Y2586758D01*
X25687020Y2591955D01*
X25692214Y2607541D01*
X25692214Y2654300D01*
X25692214Y2617932D02*
G01*
X25749364Y2581564D01*
X25666237Y2542077D02*
G01*
X25661043Y2542077D01*
X25650652Y2536883D01*
X25645455Y2531686D01*
X25640261Y2521295D01*
X25640261Y2500515D01*
X25645455Y2490124D01*
X25650652Y2484927D01*
X25661043Y2479733D01*
X25671434Y2479733D01*
X25681825Y2484927D01*
X25697411Y2495318D01*
X25749364Y2547274D01*
X25749364Y2474536D01*
X25661043Y2440246D02*
G01*
X25655846Y2429855D01*
X25640261Y2414270D01*
X25749364Y2414270D01*
X29462961Y2654300D02*
G01*
X29572064Y2654300D01*
X29462961Y2654300D02*
G01*
X29462961Y2607541D01*
X29468155Y2591955D01*
X29473352Y2586758D01*
X29483743Y2581564D01*
X29494134Y2581564D01*
X29504525Y2586758D01*
X29509720Y2591955D01*
X29514914Y2607541D01*
X29514914Y2654300D01*
X29514914Y2617932D02*
G01*
X29572064Y2581564D01*
X29488937Y2542077D02*
G01*
X29483743Y2542077D01*
X29473352Y2536883D01*
X29468155Y2531686D01*
X29462961Y2521295D01*
X29462961Y2500515D01*
X29468155Y2490124D01*
X29473352Y2484927D01*
X29483743Y2479733D01*
X29494134Y2479733D01*
X29504525Y2484927D01*
X29520111Y2495318D01*
X29572064Y2547274D01*
X29572064Y2474536D01*
X29488937Y2435052D02*
G01*
X29483743Y2435052D01*
X29473352Y2429855D01*
X29468155Y2424661D01*
X29462961Y2414270D01*
X29462961Y2393487D01*
X29468155Y2383096D01*
X29473352Y2377902D01*
X29483743Y2372705D01*
X29494134Y2372705D01*
X29504525Y2377902D01*
X29520111Y2388293D01*
X29572064Y2440246D01*
X29572064Y2367511D01*
X28180261Y2654300D02*
G01*
X28289364Y2654300D01*
X28180261Y2654300D02*
G01*
X28180261Y2607541D01*
X28185455Y2591955D01*
X28190652Y2586758D01*
X28201043Y2581564D01*
X28211434Y2581564D01*
X28221825Y2586758D01*
X28227020Y2591955D01*
X28232214Y2607541D01*
X28232214Y2654300D01*
X28232214Y2617932D02*
G01*
X28289364Y2581564D01*
X28206237Y2542077D02*
G01*
X28201043Y2542077D01*
X28190652Y2536883D01*
X28185455Y2531686D01*
X28180261Y2521295D01*
X28180261Y2500515D01*
X28185455Y2490124D01*
X28190652Y2484927D01*
X28201043Y2479733D01*
X28211434Y2479733D01*
X28221825Y2484927D01*
X28237411Y2495318D01*
X28289364Y2547274D01*
X28289364Y2474536D01*
X28180261Y2429855D02*
G01*
X28180261Y2372705D01*
X28221825Y2403878D01*
X28221825Y2388293D01*
X28227020Y2377902D01*
X28232214Y2372705D01*
X28247802Y2367511D01*
X28258193Y2367511D01*
X28273778Y2372705D01*
X28284170Y2383096D01*
X28289364Y2398684D01*
X28289364Y2414270D01*
X28284170Y2429855D01*
X28278975Y2435052D01*
X28268584Y2440246D01*
X26910261Y2667000D02*
G01*
X27019364Y2667000D01*
X26910261Y2667000D02*
G01*
X26910261Y2620241D01*
X26915455Y2604655D01*
X26920652Y2599458D01*
X26931043Y2594264D01*
X26941434Y2594264D01*
X26951825Y2599458D01*
X26957020Y2604655D01*
X26962214Y2620241D01*
X26962214Y2667000D01*
X26962214Y2630632D02*
G01*
X27019364Y2594264D01*
X26936237Y2554777D02*
G01*
X26931043Y2554777D01*
X26920652Y2549583D01*
X26915455Y2544386D01*
X26910261Y2533995D01*
X26910261Y2513215D01*
X26915455Y2502824D01*
X26920652Y2497627D01*
X26931043Y2492433D01*
X26941434Y2492433D01*
X26951825Y2497627D01*
X26967411Y2508018D01*
X27019364Y2559974D01*
X27019364Y2487236D01*
X26910261Y2400993D02*
G01*
X26982996Y2452946D01*
X26982996Y2375014D01*
X26910261Y2400993D02*
G01*
X27019364Y2400993D01*
X8395715Y2667000D02*
G01*
X8286750Y2667000D01*
X8395715Y2667000D02*
G01*
X8395715Y2713736D01*
X8390636Y2729229D01*
X8385302Y2734563D01*
X8374888Y2739644D01*
X8364474Y2739644D01*
X8354059Y2734563D01*
X8348979Y2729229D01*
X8343900Y2713736D01*
X8343900Y2667000D01*
X8343900Y2703321D02*
G01*
X8286750Y2739644D01*
X8395715Y2846831D02*
G01*
X8286750Y2794762D01*
X8395715Y2773934D02*
G01*
X8395715Y2846831D01*
X7125715Y2667000D02*
G01*
X7016750Y2667000D01*
X7125715Y2667000D02*
G01*
X7125715Y2713736D01*
X7120636Y2729229D01*
X7115302Y2734563D01*
X7104888Y2739644D01*
X7094474Y2739644D01*
X7084059Y2734563D01*
X7078979Y2729229D01*
X7073900Y2713736D01*
X7073900Y2667000D01*
X7073900Y2703321D02*
G01*
X7016750Y2739644D01*
X7110222Y2836418D02*
G01*
X7120636Y2831084D01*
X7125715Y2815589D01*
X7125715Y2805176D01*
X7120636Y2789681D01*
X7104888Y2779268D01*
X7078979Y2773934D01*
X7053072Y2773934D01*
X7032243Y2779268D01*
X7021829Y2789681D01*
X7016750Y2805176D01*
X7016750Y2810510D01*
X7021829Y2826004D01*
X7032243Y2836418D01*
X7047738Y2841497D01*
X7053072Y2841497D01*
X7068565Y2836418D01*
X7078979Y2826004D01*
X7084059Y2810510D01*
X7084059Y2805176D01*
X7078979Y2789681D01*
X7068565Y2779268D01*
X7053072Y2773934D01*
X5855715Y2667000D02*
G01*
X5746750Y2667000D01*
X5855715Y2667000D02*
G01*
X5855715Y2713736D01*
X5850636Y2729229D01*
X5845302Y2734563D01*
X5834888Y2739644D01*
X5824474Y2739644D01*
X5814059Y2734563D01*
X5808979Y2729229D01*
X5803900Y2713736D01*
X5803900Y2667000D01*
X5803900Y2703321D02*
G01*
X5746750Y2739644D01*
X5855715Y2836418D02*
G01*
X5855715Y2784347D01*
X5808979Y2779268D01*
X5814059Y2784347D01*
X5819393Y2800095D01*
X5819393Y2815589D01*
X5814059Y2831084D01*
X5803900Y2841497D01*
X5788152Y2846831D01*
X5777738Y2846831D01*
X5762243Y2841497D01*
X5751829Y2831084D01*
X5746750Y2815589D01*
X5746750Y2800095D01*
X5751829Y2784347D01*
X5756909Y2779268D01*
X5767324Y2773934D01*
X4585715Y2667000D02*
G01*
X4476750Y2667000D01*
X4585715Y2667000D02*
G01*
X4585715Y2713736D01*
X4580636Y2729229D01*
X4575302Y2734563D01*
X4564888Y2739644D01*
X4554474Y2739644D01*
X4544059Y2734563D01*
X4538979Y2729229D01*
X4533900Y2713736D01*
X4533900Y2667000D01*
X4533900Y2703321D02*
G01*
X4476750Y2739644D01*
X4585715Y2826004D02*
G01*
X4513072Y2773934D01*
X4513072Y2851912D01*
X4585715Y2826004D02*
G01*
X4476750Y2826004D01*
X3303015Y2667000D02*
G01*
X3194050Y2667000D01*
X3303015Y2667000D02*
G01*
X3303015Y2713736D01*
X3297936Y2729229D01*
X3292602Y2734563D01*
X3282188Y2739644D01*
X3271774Y2739644D01*
X3261359Y2734563D01*
X3256279Y2729229D01*
X3251200Y2713736D01*
X3251200Y2667000D01*
X3251200Y2703321D02*
G01*
X3194050Y2739644D01*
X3303015Y2784347D02*
G01*
X3303015Y2841497D01*
X3261359Y2810510D01*
X3261359Y2826004D01*
X3256279Y2836418D01*
X3251200Y2841497D01*
X3235452Y2846831D01*
X3225038Y2846831D01*
X3209543Y2841497D01*
X3199129Y2831084D01*
X3194050Y2815589D01*
X3194050Y2800095D01*
X3199129Y2784347D01*
X3204209Y2779268D01*
X3214624Y2773934D01*
X2045715Y2667000D02*
G01*
X1936750Y2667000D01*
X2045715Y2667000D02*
G01*
X2045715Y2713736D01*
X2040636Y2729229D01*
X2035302Y2734563D01*
X2024888Y2739644D01*
X2014474Y2739644D01*
X2004059Y2734563D01*
X1998979Y2729229D01*
X1993900Y2713736D01*
X1993900Y2667000D01*
X1993900Y2703321D02*
G01*
X1936750Y2739644D01*
X2019808Y2779268D02*
G01*
X2024888Y2779268D01*
X2035302Y2784347D01*
X2040636Y2789681D01*
X2045715Y2800095D01*
X2045715Y2820670D01*
X2040636Y2831084D01*
X2035302Y2836418D01*
X2024888Y2841497D01*
X2014474Y2841497D01*
X2004059Y2836418D01*
X1988565Y2826004D01*
X1936750Y2773934D01*
X1936750Y2846831D01*
X775715Y2667000D02*
G01*
X666750Y2667000D01*
X775715Y2667000D02*
G01*
X775715Y2713736D01*
X770636Y2729229D01*
X765302Y2734563D01*
X754887Y2739644D01*
X744473Y2739644D01*
X734060Y2734563D01*
X728979Y2729229D01*
X723900Y2713736D01*
X723900Y2667000D01*
X723900Y2703321D02*
G01*
X666750Y2739644D01*
X754887Y2773934D02*
G01*
X760221Y2784347D01*
X775715Y2800095D01*
X666750Y2800095D01*
X9653015Y2667000D02*
G01*
X9544050Y2667000D01*
X9653015Y2667000D02*
G01*
X9653015Y2713736D01*
X9647936Y2729229D01*
X9642602Y2734563D01*
X9632188Y2739644D01*
X9621774Y2739644D01*
X9611359Y2734563D01*
X9606279Y2729229D01*
X9601200Y2713736D01*
X9601200Y2667000D01*
X9601200Y2703321D02*
G01*
X9544050Y2739644D01*
X9653015Y2800095D02*
G01*
X9647936Y2784347D01*
X9637522Y2779268D01*
X9627108Y2779268D01*
X9616693Y2784347D01*
X9611359Y2794762D01*
X9606279Y2815589D01*
X9601200Y2831084D01*
X9590786Y2841497D01*
X9580372Y2846831D01*
X9564624Y2846831D01*
X9554209Y2841497D01*
X9549129Y2836418D01*
X9544050Y2820670D01*
X9544050Y2800095D01*
X9549129Y2784347D01*
X9554209Y2779268D01*
X9564624Y2773934D01*
X9580372Y2773934D01*
X9590786Y2779268D01*
X9601200Y2789681D01*
X9606279Y2805176D01*
X9611359Y2826004D01*
X9616693Y2836418D01*
X9627108Y2841497D01*
X9637522Y2841497D01*
X9647936Y2836418D01*
X9653015Y2820670D01*
X9653015Y2800095D01*
D11*
X10668000Y3098883D02*
G01*
X10668000Y2992005D01*
X10668403Y2342004D02*
G01*
X10668403Y2235126D01*
X10783001Y2992005D02*
G01*
X10552998Y2992005D01*
X10552998Y2992005D02*
G01*
X10552998Y2342004D01*
X10556001Y2342004D02*
G01*
X10779998Y2342004D01*
X10783001Y2342004D02*
G01*
X10783001Y2992005D01*
X11938000Y3098883D02*
G01*
X11938000Y2992005D01*
X11938403Y2342004D02*
G01*
X11938403Y2235126D01*
X12053001Y2992005D02*
G01*
X11822998Y2992005D01*
X11822998Y2992005D02*
G01*
X11822998Y2342004D01*
X11826001Y2342004D02*
G01*
X12049998Y2342004D01*
X12053001Y2342004D02*
G01*
X12053001Y2992005D01*
X13208000Y3098883D02*
G01*
X13208000Y2992005D01*
X13208403Y2342004D02*
G01*
X13208403Y2235126D01*
X13323001Y2992005D02*
G01*
X13092998Y2992005D01*
X13092998Y2992005D02*
G01*
X13092998Y2342004D01*
X13096001Y2342004D02*
G01*
X13319998Y2342004D01*
X13323001Y2342004D02*
G01*
X13323001Y2992005D01*
X14478000Y3098883D02*
G01*
X14478000Y2992005D01*
X14478403Y2342004D02*
G01*
X14478403Y2235126D01*
X14593001Y2992005D02*
G01*
X14362998Y2992005D01*
X14362998Y2992005D02*
G01*
X14362998Y2342004D01*
X14366001Y2342004D02*
G01*
X14589998Y2342004D01*
X14593001Y2342004D02*
G01*
X14593001Y2992005D01*
X15748000Y3098883D02*
G01*
X15748000Y2992005D01*
X15748403Y2342004D02*
G01*
X15748403Y2235126D01*
X15863001Y2992005D02*
G01*
X15632998Y2992005D01*
X15632998Y2992005D02*
G01*
X15632998Y2342004D01*
X15636001Y2342004D02*
G01*
X15859998Y2342004D01*
X15863001Y2342004D02*
G01*
X15863001Y2992005D01*
X17018000Y3098883D02*
G01*
X17018000Y2992005D01*
X17018403Y2342004D02*
G01*
X17018403Y2235126D01*
X17133001Y2992005D02*
G01*
X16902998Y2992005D01*
X16902998Y2992005D02*
G01*
X16902998Y2342004D01*
X16906001Y2342004D02*
G01*
X17129998Y2342004D01*
X17133001Y2342004D02*
G01*
X17133001Y2992005D01*
X18288000Y3098883D02*
G01*
X18288000Y2992005D01*
X18288403Y2342004D02*
G01*
X18288403Y2235126D01*
X18403001Y2992005D02*
G01*
X18172998Y2992005D01*
X18172998Y2992005D02*
G01*
X18172998Y2342004D01*
X18176001Y2342004D02*
G01*
X18399998Y2342004D01*
X18403001Y2342004D02*
G01*
X18403001Y2992005D01*
X19558000Y3098878D02*
G01*
X19558000Y2992000D01*
X19558403Y2341999D02*
G01*
X19558403Y2235121D01*
X19673001Y2992000D02*
G01*
X19442998Y2992000D01*
X19442998Y2992000D02*
G01*
X19442998Y2341999D01*
X19446001Y2341999D02*
G01*
X19669998Y2341999D01*
X19673001Y2341999D02*
G01*
X19673001Y2992000D01*
X20828000Y3098878D02*
G01*
X20828000Y2992000D01*
X20828403Y2341999D02*
G01*
X20828403Y2235121D01*
X20943001Y2992000D02*
G01*
X20712998Y2992000D01*
X20712998Y2992000D02*
G01*
X20712998Y2341999D01*
X20716001Y2341999D02*
G01*
X20939998Y2341999D01*
X20943001Y2341999D02*
G01*
X20943001Y2992000D01*
X22098000Y3098878D02*
G01*
X22098000Y2992000D01*
X22098403Y2341999D02*
G01*
X22098403Y2235121D01*
X22213001Y2992000D02*
G01*
X21982998Y2992000D01*
X21982998Y2992000D02*
G01*
X21982998Y2341999D01*
X21986001Y2341999D02*
G01*
X22209998Y2341999D01*
X22213001Y2341999D02*
G01*
X22213001Y2992000D01*
X23368000Y3098878D02*
G01*
X23368000Y2992000D01*
X23368403Y2341999D02*
G01*
X23368403Y2235121D01*
X23483001Y2992000D02*
G01*
X23252998Y2992000D01*
X23252998Y2992000D02*
G01*
X23252998Y2341999D01*
X23256001Y2341999D02*
G01*
X23479998Y2341999D01*
X23483001Y2341999D02*
G01*
X23483001Y2992000D01*
X24638000Y3098878D02*
G01*
X24638000Y2992000D01*
X24638403Y2341999D02*
G01*
X24638403Y2235121D01*
X24753001Y2992000D02*
G01*
X24522998Y2992000D01*
X24522998Y2992000D02*
G01*
X24522998Y2341999D01*
X24526001Y2341999D02*
G01*
X24749998Y2341999D01*
X24753001Y2341999D02*
G01*
X24753001Y2992000D01*
X25908000Y3086178D02*
G01*
X25908000Y2979300D01*
X25908403Y2329299D02*
G01*
X25908403Y2222421D01*
X26023001Y2979300D02*
G01*
X25792998Y2979300D01*
X25792998Y2979300D02*
G01*
X25792998Y2329299D01*
X25796001Y2329299D02*
G01*
X26019998Y2329299D01*
X26023001Y2329299D02*
G01*
X26023001Y2979300D01*
X29730700Y3086178D02*
G01*
X29730700Y2979300D01*
X29731103Y2329299D02*
G01*
X29731103Y2222421D01*
X29845701Y2979300D02*
G01*
X29615698Y2979300D01*
X29615698Y2979300D02*
G01*
X29615698Y2329299D01*
X29618701Y2329299D02*
G01*
X29842698Y2329299D01*
X29845701Y2329299D02*
G01*
X29845701Y2979300D01*
X28448000Y3086178D02*
G01*
X28448000Y2979300D01*
X28448403Y2329299D02*
G01*
X28448403Y2222421D01*
X28563001Y2979300D02*
G01*
X28332998Y2979300D01*
X28332998Y2979300D02*
G01*
X28332998Y2329299D01*
X28336001Y2329299D02*
G01*
X28559998Y2329299D01*
X28563001Y2329299D02*
G01*
X28563001Y2979300D01*
X27178000Y3098878D02*
G01*
X27178000Y2992000D01*
X27178403Y2341999D02*
G01*
X27178403Y2235121D01*
X27293001Y2992000D02*
G01*
X27062998Y2992000D01*
X27062998Y2992000D02*
G01*
X27062998Y2341999D01*
X27066001Y2341999D02*
G01*
X27289998Y2341999D01*
X27293001Y2341999D02*
G01*
X27293001Y2992000D01*
X8128000Y2235121D02*
G01*
X8128000Y2341999D01*
X8127596Y2992000D02*
G01*
X8127596Y3098878D01*
X8012998Y2341999D02*
G01*
X8243001Y2341999D01*
X8243001Y2341999D02*
G01*
X8243001Y2992000D01*
X8239998Y2992000D02*
G01*
X8016001Y2992000D01*
X8012998Y2992000D02*
G01*
X8012998Y2341999D01*
X6858000Y2235121D02*
G01*
X6858000Y2341999D01*
X6857596Y2992000D02*
G01*
X6857596Y3098878D01*
X6742998Y2341999D02*
G01*
X6973001Y2341999D01*
X6973001Y2341999D02*
G01*
X6973001Y2992000D01*
X6969998Y2992000D02*
G01*
X6746001Y2992000D01*
X6742998Y2992000D02*
G01*
X6742998Y2341999D01*
X5588000Y2235121D02*
G01*
X5588000Y2341999D01*
X5587596Y2992000D02*
G01*
X5587596Y3098878D01*
X5472998Y2341999D02*
G01*
X5703001Y2341999D01*
X5703001Y2341999D02*
G01*
X5703001Y2992000D01*
X5699998Y2992000D02*
G01*
X5476001Y2992000D01*
X5472998Y2992000D02*
G01*
X5472998Y2341999D01*
X4318000Y2235121D02*
G01*
X4318000Y2341999D01*
X4317596Y2992000D02*
G01*
X4317596Y3098878D01*
X4202998Y2341999D02*
G01*
X4433001Y2341999D01*
X4433001Y2341999D02*
G01*
X4433001Y2992000D01*
X4429998Y2992000D02*
G01*
X4206001Y2992000D01*
X4202998Y2992000D02*
G01*
X4202998Y2341999D01*
X3035300Y2235121D02*
G01*
X3035300Y2341999D01*
X3034896Y2992000D02*
G01*
X3034896Y3098878D01*
X2920298Y2341999D02*
G01*
X3150301Y2341999D01*
X3150301Y2341999D02*
G01*
X3150301Y2992000D01*
X3147298Y2992000D02*
G01*
X2923301Y2992000D01*
X2920298Y2992000D02*
G01*
X2920298Y2341999D01*
X1778000Y2235121D02*
G01*
X1778000Y2341999D01*
X1777596Y2992000D02*
G01*
X1777596Y3098878D01*
X1662998Y2341999D02*
G01*
X1893001Y2341999D01*
X1893001Y2341999D02*
G01*
X1893001Y2992000D01*
X1889998Y2992000D02*
G01*
X1666001Y2992000D01*
X1662998Y2992000D02*
G01*
X1662998Y2341999D01*
X508000Y2235121D02*
G01*
X508000Y2341999D01*
X507596Y2992000D02*
G01*
X507596Y3098878D01*
X392998Y2341999D02*
G01*
X623001Y2341999D01*
X623001Y2341999D02*
G01*
X623001Y2992000D01*
X619998Y2992000D02*
G01*
X396001Y2992000D01*
X392998Y2992000D02*
G01*
X392998Y2341999D01*
X9385300Y2235121D02*
G01*
X9385300Y2341999D01*
X9384896Y2992000D02*
G01*
X9384896Y3098878D01*
X9270298Y2341999D02*
G01*
X9500301Y2341999D01*
X9500301Y2341999D02*
G01*
X9500301Y2992000D01*
X9497298Y2992000D02*
G01*
X9273301Y2992000D01*
X9270298Y2992000D02*
G01*
X9270298Y2341999D01*
M02*
