M48
METRIC,LZ,000.000
;FILE_FORMAT=3:3
;TYPE=PLATED
;Layer: PTH_Through_Via
;EasyEDA v6.5.40, 2024-08-14 23:42:52
;cb6e2e9fbd21486d88ae5690d2d3dc00,10
;Gerber Generator version 0.2
;Holesize 1 = 0.501 mm
T01C0.501
%
G05
G90
T01
X273086Y-008343
X284770Y010439
X183170Y-008951
X094514Y-008977
X056170Y-008949
X030770Y-008944
X119280Y-008970
X132649Y010446
X145070Y-008951
X157579Y-008986
X195591Y010446
X208960Y-008970
X221270Y-008980
X233879Y010450
X246670Y-008970
X259370Y010443
X272070Y-008949
X170423Y010440
X068870Y-008959
X111526Y004791
X237207Y-018311
X238470Y004798
X190915Y039511
X168676Y062775
X107059Y010446
X118876Y043560
X119617Y059432
M30
