G04 Layer: TopPasteMaskLayer*
G04 EasyEDA v6.5.40, 2024-08-29 12:46:18*
G04 cb6e2e9fbd21486d88ae5690d2d3dc00,10*
G04 Gerber Generator version 0.2*
G04 Scale: 100 percent, Rotated: No, Reflected: No *
G04 Dimensions in millimeters *
G04 leading zeros omitted , absolute positions ,4 integer and 5 decimal *
%FSLAX45Y45*%
%MOMM*%

%ADD10R,1.5000X2.3000*%
%ADD11R,1.1570X0.4900*%
%ADD12R,1.1750X0.4900*%

%LPD*%
D10*
G01*
X8032978Y-1081709D03*
G01*
X8032953Y-1991690D03*
G01*
X7582966Y-1081709D03*
G01*
X7582966Y-1991690D03*
G01*
X8882989Y1204290D03*
G01*
X8882964Y294309D03*
G01*
X8432977Y1204290D03*
G01*
X8432977Y294309D03*
G01*
X9732975Y-1081709D03*
G01*
X9732949Y-1991690D03*
G01*
X9282963Y-1081709D03*
G01*
X9282963Y-1991690D03*
G01*
X10582986Y1204290D03*
G01*
X10582960Y294309D03*
G01*
X10132974Y1204290D03*
G01*
X10132974Y294309D03*
G01*
X11432971Y-1081709D03*
G01*
X11432946Y-1991690D03*
G01*
X10982959Y-1081709D03*
G01*
X10982959Y-1991690D03*
G01*
X13132968Y-1081709D03*
G01*
X13132943Y-1991690D03*
G01*
X12682956Y-1081709D03*
G01*
X12682956Y-1991690D03*
G01*
X13982979Y1204290D03*
G01*
X13982954Y294309D03*
G01*
X13532967Y1204290D03*
G01*
X13532967Y294309D03*
G01*
X14832965Y-1081709D03*
G01*
X14832939Y-1991690D03*
G01*
X14382953Y-1081709D03*
G01*
X14382953Y-1991690D03*
G01*
X15682975Y1204290D03*
G01*
X15682950Y294309D03*
G01*
X15232964Y1204290D03*
G01*
X15232964Y294309D03*
G01*
X16532961Y-1081709D03*
G01*
X16532936Y-1991690D03*
G01*
X16082949Y-1081709D03*
G01*
X16082949Y-1991690D03*
G01*
X18232958Y-1081709D03*
G01*
X18232932Y-1991690D03*
G01*
X17782946Y-1081709D03*
G01*
X17782946Y-1991690D03*
G01*
X19082969Y1204290D03*
G01*
X19082943Y294309D03*
G01*
X18632957Y1204290D03*
G01*
X18632957Y294309D03*
G01*
X19932954Y-1081709D03*
G01*
X19932929Y-1991690D03*
G01*
X19482943Y-1081709D03*
G01*
X19482943Y-1991690D03*
G01*
X20782965Y1204290D03*
G01*
X20782940Y294309D03*
G01*
X20332954Y1204290D03*
G01*
X20332954Y294309D03*
G01*
X21632951Y-1081709D03*
G01*
X21632925Y-1991690D03*
G01*
X21182939Y-1081709D03*
G01*
X21182939Y-1991690D03*
G01*
X22482962Y1204290D03*
G01*
X22482936Y294309D03*
G01*
X22032950Y1204290D03*
G01*
X22032950Y294309D03*
G01*
X23332948Y-1081709D03*
G01*
X23332922Y-1991690D03*
G01*
X22882936Y-1081709D03*
G01*
X22882936Y-1991690D03*
G01*
X1232992Y-1081709D03*
G01*
X1232966Y-1991690D03*
G01*
X782980Y-1081709D03*
G01*
X782980Y-1991690D03*
G01*
X2083003Y1204290D03*
G01*
X2082977Y294309D03*
G01*
X1632991Y1204290D03*
G01*
X1632991Y294309D03*
G01*
X2932988Y-1081709D03*
G01*
X2932963Y-1991690D03*
G01*
X2482977Y-1081709D03*
G01*
X2482977Y-1991690D03*
G01*
X3782999Y1204290D03*
G01*
X3782974Y294309D03*
G01*
X3332988Y1204290D03*
G01*
X3332988Y294309D03*
G01*
X4632985Y-1081709D03*
G01*
X4632959Y-1991690D03*
G01*
X4182973Y-1081709D03*
G01*
X4182973Y-1991690D03*
G01*
X6332981Y-1081709D03*
G01*
X6332956Y-1991690D03*
G01*
X5882970Y-1081709D03*
G01*
X5882970Y-1991690D03*
G01*
X7182993Y1204290D03*
G01*
X7182967Y294309D03*
G01*
X6732981Y1204290D03*
G01*
X6732981Y294309D03*
D11*
G01*
X8914333Y4755895D03*
G01*
X8914333Y4660900D03*
G01*
X8914333Y4565904D03*
D12*
G01*
X9145066Y4565904D03*
G01*
X9145066Y4755895D03*
D11*
G01*
X8012633Y4755895D03*
G01*
X8012633Y4660900D03*
G01*
X8012633Y4565904D03*
D12*
G01*
X8243366Y4565904D03*
G01*
X8243366Y4755895D03*
M02*
