G04 Layer: TopPasteMaskLayer*
G04 EasyEDA v6.5.43, 2024-08-28 13:52:04*
G04 cb6e2e9fbd21486d88ae5690d2d3dc00,10*
G04 Gerber Generator version 0.2*
G04 Scale: 100 percent, Rotated: No, Reflected: No *
G04 Dimensions in millimeters *
G04 leading zeros omitted , absolute positions ,4 integer and 5 decimal *
%FSLAX45Y45*%
%MOMM*%

%ADD10R,1.5000X2.3000*%
%ADD11R,1.1570X0.4900*%
%ADD12R,1.1750X0.4900*%

%LPD*%
D10*
G01*
X9877018Y-1069009D03*
G01*
X9876993Y-1978990D03*
G01*
X9427006Y-1069009D03*
G01*
X9427006Y-1978990D03*
G01*
X11147018Y1216990D03*
G01*
X11146993Y307009D03*
G01*
X10697006Y1216990D03*
G01*
X10697006Y307009D03*
G01*
X12417018Y-1069009D03*
G01*
X12416993Y-1978990D03*
G01*
X11967006Y-1069009D03*
G01*
X11967006Y-1978990D03*
G01*
X13687018Y1216990D03*
G01*
X13686993Y307009D03*
G01*
X13237006Y1216990D03*
G01*
X13237006Y307009D03*
G01*
X14957018Y-1069009D03*
G01*
X14956993Y-1978990D03*
G01*
X14507006Y-1069009D03*
G01*
X14507006Y-1978990D03*
G01*
X16227018Y-1069009D03*
G01*
X16226993Y-1978990D03*
G01*
X15777006Y-1069009D03*
G01*
X15777006Y-1978990D03*
G01*
X17497018Y1216990D03*
G01*
X17496993Y307009D03*
G01*
X17047006Y1216990D03*
G01*
X17047006Y307009D03*
G01*
X18767018Y-1069009D03*
G01*
X18766993Y-1978990D03*
G01*
X18317006Y-1069009D03*
G01*
X18317006Y-1978990D03*
G01*
X20037018Y1216990D03*
G01*
X20036993Y307009D03*
G01*
X19587006Y1216990D03*
G01*
X19587006Y307009D03*
G01*
X21307018Y-1069009D03*
G01*
X21306993Y-1978990D03*
G01*
X20857006Y-1069009D03*
G01*
X20857006Y-1978990D03*
G01*
X22577018Y-1069009D03*
G01*
X22576993Y-1978990D03*
G01*
X22127006Y-1069009D03*
G01*
X22127006Y-1978990D03*
G01*
X23847018Y1216990D03*
G01*
X23846993Y307009D03*
G01*
X23397006Y1216990D03*
G01*
X23397006Y307009D03*
G01*
X25117018Y-1069009D03*
G01*
X25116993Y-1978990D03*
G01*
X24667006Y-1069009D03*
G01*
X24667006Y-1978990D03*
G01*
X26386942Y1216990D03*
G01*
X26386916Y307009D03*
G01*
X25936930Y1216990D03*
G01*
X25936930Y307009D03*
G01*
X27656942Y-1069009D03*
G01*
X27656916Y-1978990D03*
G01*
X27206930Y-1069009D03*
G01*
X27206930Y-1978990D03*
G01*
X28926942Y1216990D03*
G01*
X28926916Y307009D03*
G01*
X28476930Y1216990D03*
G01*
X28476930Y307009D03*
G01*
X30196942Y-1069009D03*
G01*
X30196916Y-1978990D03*
G01*
X29746930Y-1069009D03*
G01*
X29746930Y-1978990D03*
G01*
X987018Y-1069009D03*
G01*
X986993Y-1978990D03*
G01*
X537006Y-1069009D03*
G01*
X537006Y-1978990D03*
G01*
X2257018Y1216990D03*
G01*
X2256993Y307009D03*
G01*
X1807006Y1216990D03*
G01*
X1807006Y307009D03*
G01*
X3527018Y-1069009D03*
G01*
X3526993Y-1978990D03*
G01*
X3076981Y-1069009D03*
G01*
X3076981Y-1978990D03*
G01*
X4797018Y1216990D03*
G01*
X4796993Y307009D03*
G01*
X4346981Y1216990D03*
G01*
X4346981Y307009D03*
G01*
X6067018Y-1069009D03*
G01*
X6066993Y-1978990D03*
G01*
X5617006Y-1069009D03*
G01*
X5617006Y-1978990D03*
G01*
X7337018Y-1069009D03*
G01*
X7336993Y-1978990D03*
G01*
X6887006Y-1069009D03*
G01*
X6887006Y-1978990D03*
G01*
X8607018Y1216990D03*
G01*
X8606993Y307009D03*
G01*
X8157006Y1216990D03*
G01*
X8157006Y307009D03*
D11*
G01*
X13524433Y4717795D03*
G01*
X13524433Y4622800D03*
G01*
X13524433Y4527804D03*
D12*
G01*
X13755166Y4527804D03*
G01*
X13755166Y4717795D03*
D11*
G01*
X12749733Y4698492D03*
G01*
X12749733Y4603495D03*
G01*
X12749733Y4508500D03*
D12*
G01*
X12980466Y4508500D03*
G01*
X12980466Y4698492D03*
M02*
