M48
INCH,LZ
;FILE_FORMAT=2:4
;TYPE=NON_PLATED
;Layer: NPTH_Through
;EasyEDA v6.5.40, 2024-07-10 23:57:15
;cb6e2e9fbd21486d88ae5690d2d3dc00,10
;Gerber Generator version 0.2
;Holesize 1 = 0.0390 inch
T01C0.0390
%
G05
G90
T01
X006000Y010153
X006000Y011847
X009000Y010153
X009000Y011847
X012000Y010153
X012000Y011847
X015000Y010153
X015000Y011847
X018000Y010153
X018000Y011847
X021000Y010153
X021000Y011847
X024000Y010153
X024000Y011847
X027000Y010153
X027000Y011847
X030000Y010153
X030000Y011847
X033000Y010153
X033000Y011847
X036000Y010153
X036000Y011847
X039000Y010153
X039000Y011847
X042000Y010153
X042000Y011847
X045000Y010153
X045000Y011847
X048000Y010153
X048000Y011847
X051000Y010153
X051000Y011847
X054000Y010153
X054000Y011847
X057000Y010153
X057000Y011847
X060000Y010153
X060000Y011847
X063000Y010153
X063000Y011847
X066000Y010153
X066000Y011847
X069000Y010153
X069000Y011847
X072000Y010153
X072000Y011847
X075000Y010153
X075000Y011847
X078000Y010153
X078000Y011847
X081000Y010153
X081000Y011847
X084000Y010153
X084000Y011847
X087000Y010153
X087000Y011847
X090000Y010153
X090000Y011847
X093000Y010153
X093000Y011847
X096000Y010153
X096000Y011847
X099000Y010153
X099000Y011847
X102000Y010153
X102000Y011847
X105000Y010153
X105000Y011847
X108000Y010153
X108000Y011847
X111000Y010153
X111000Y011847
M30
