M48
INCH,LZ
;FILE_FORMAT=2:4
;TYPE=PLATED
;Layer: PTH_Through
;EasyEDA v6.5.40, 2024-07-10 23:57:15
;cb6e2e9fbd21486d88ae5690d2d3dc00,10
;Gerber Generator version 0.2
;Holesize 1 = 0.0120 inch
T01C0.0120
;Holesize 2 = 0.0280 inch
T02C0.0280
;Holesize 3 = 0.0350 inch
T03C0.0350
;Holesize 4 = 0.0390 inch
T04C0.0390
%
G05
G90
T01
X019260Y014933
X021300Y013169
X045300Y013169
X093300Y013169
X047700Y021469
X052490Y026161
X045745Y009386
X020083Y009386
X066917Y009386
X106500Y009386
X013615Y025206
X090907Y020861
X054900Y021024
X099300Y013169
X095700Y013169
X089700Y013169
X087300Y013169
X083700Y013169
X081300Y013169
X077700Y013169
X075300Y013169
X071700Y013169
X069300Y013169
X065700Y013169
X063300Y013169
X059700Y013169
X057300Y013169
X053700Y013169
X051300Y013169
X047700Y013169
X041700Y013169
X039300Y013169
X035700Y013169
X033300Y013169
X029700Y013169
X027300Y013169
X023700Y013169
X017700Y013169
X015300Y013169
X011700Y013169
X009300Y013169
X101700Y013169
X105300Y013169
X107700Y013169
X111300Y013169
T02
X006000Y014933
X006000Y019067
X009000Y014933
X009000Y019067
X012000Y014933
X012000Y019067
X015000Y014933
X015000Y019067
X018000Y014933
X018000Y019067
X021000Y014933
X021000Y019067
X024000Y014933
X024000Y019067
X027000Y014933
X027000Y019067
X030000Y014933
X030000Y019067
X033000Y014933
X033000Y019067
X036000Y014933
X036000Y019067
X039000Y014933
X039000Y019067
X042000Y014933
X042000Y019067
X045000Y014933
X045000Y019067
X048000Y014933
X048000Y019067
X051000Y014933
X051000Y019067
X054000Y014933
X054000Y019067
X057000Y014933
X057000Y019067
X060000Y014933
X060000Y019067
X063000Y014933
X063000Y019067
X066000Y014933
X066000Y019067
X069000Y014933
X069000Y019067
X072000Y014933
X072000Y019067
X075000Y014933
X075000Y019067
X078000Y014933
X078000Y019067
X081000Y014933
X081000Y019067
X084000Y014933
X084000Y019067
X087000Y014933
X087000Y019067
X090000Y014933
X090000Y019067
X093000Y014933
X093000Y019067
X096000Y014933
X096000Y019067
X099000Y014933
X099000Y019067
X102000Y014933
X102000Y019067
X105000Y014933
X105000Y019067
X108000Y014933
X108000Y019067
X111000Y014933
X111000Y019067
T03
X050000Y027000
X051000Y027000
X052000Y027000
X053000Y027000
X054000Y027000
X055000Y027000
X056000Y027000
X057000Y027000
T04
X019500Y021450
X018500Y021450
X017500Y021450
X016500Y021450
X015500Y021450
X014500Y021450
X013500Y021450
X012500Y021450
X012500Y024450
X013500Y024450
X014500Y024450
X015500Y024450
X016500Y024450
X017500Y024450
X018500Y024450
X019500Y024450
X043500Y021450
X042500Y021450
X041500Y021450
X040500Y021450
X039500Y021450
X038500Y021450
X037500Y021450
X036500Y021450
X036500Y024450
X037500Y024450
X038500Y024450
X039500Y024450
X040500Y024450
X041500Y024450
X042500Y024450
X043500Y024450
X067500Y021450
X066500Y021450
X065500Y021450
X064500Y021450
X063500Y021450
X062500Y021450
X061500Y021450
X060500Y021450
X060500Y024450
X061500Y024450
X062500Y024450
X063500Y024450
X064500Y024450
X065500Y024450
X066500Y024450
X067500Y024450
X091500Y021450
X090500Y021450
X089500Y021450
X088500Y021450
X087500Y021450
X086500Y021450
X085500Y021450
X084500Y021450
X084500Y024450
X085500Y024450
X086500Y024450
X087500Y024450
X088500Y024450
X089500Y024450
X090500Y024450
X091500Y024450
X108500Y021500
X107500Y021500
X106500Y021500
X105500Y021500
X104500Y021500
X103500Y021500
X102500Y021500
X101500Y021500
X101500Y024500
X102500Y024500
X103500Y024500
X104500Y024500
X105500Y024500
X106500Y024500
X107500Y024500
X108500Y024500
M30
