M48
INCH,LZ
;FILE_FORMAT=2:4
;TYPE=PLATED
;Layer: PTH_Through_Via
;EasyEDA v6.5.40, 2024-07-10 23:57:15
;cb6e2e9fbd21486d88ae5690d2d3dc00,10
;Gerber Generator version 0.2
;Holesize 1 = 0.0120 inch
T01C0.0120
%
G05
G90
T01
X019260Y014933
X021300Y013169
X045300Y013169
X093300Y013169
X047700Y021469
X052490Y026161
X045745Y009386
X020083Y009386
X066917Y009386
X106500Y009386
X013615Y025206
X090907Y020861
X054900Y021024
X099300Y013169
X095700Y013169
X089700Y013169
X087300Y013169
X083700Y013169
X081300Y013169
X077700Y013169
X075300Y013169
X071700Y013169
X069300Y013169
X065700Y013169
X063300Y013169
X059700Y013169
X057300Y013169
X053700Y013169
X051300Y013169
X047700Y013169
X041700Y013169
X039300Y013169
X035700Y013169
X033300Y013169
X029700Y013169
X027300Y013169
X023700Y013169
X017700Y013169
X015300Y013169
X011700Y013169
X009300Y013169
X101700Y013169
X105300Y013169
X107700Y013169
X111300Y013169
M30
