G04 Layer: TopSolderMaskLayer*
G04 EasyEDA v6.5.40, 2024-07-10 23:57:15*
G04 cb6e2e9fbd21486d88ae5690d2d3dc00,10*
G04 Gerber Generator version 0.2*
G04 Scale: 100 percent, Rotated: No, Reflected: No *
G04 Dimensions in inches *
G04 leading zeros omitted , absolute positions ,3 integer and 6 decimal *
%FSLAX36Y36*%
%MOIN*%

%AMMACRO1*1,1,$1,$2,$3*1,1,$1,$4,$5*1,1,$1,0-$2,0-$3*1,1,$1,0-$4,0-$5*20,1,$1,$2,$3,$4,$5,0*20,1,$1,$4,$5,0-$2,0-$3,0*20,1,$1,0-$2,0-$3,0-$4,0-$5,0*20,1,$1,0-$4,0-$5,$2,$3,0*4,1,4,$2,$3,$4,$5,0-$2,0-$3,0-$4,0-$5,$2,$3,0*%
%ADD10C,0.0591*%
%ADD11C,0.0670*%
%ADD12MACRO1,0.004X0.0315X0.0315X0.0315X-0.0315*%
%ADD13R,0.0709X0.0788*%
%ADD14MACRO1,0.004X-0.031X0.031X0.031X0.031*%
%ADD15C,0.0660*%
%ADD16C,0.0101*%

%LPD*%
D10*
G01*
X600000Y1493310D03*
G01*
X600000Y1906689D03*
G01*
X900000Y1493310D03*
G01*
X900000Y1906689D03*
G01*
X1200000Y1493310D03*
G01*
X1200000Y1906689D03*
G01*
X1500000Y1493310D03*
G01*
X1500000Y1906689D03*
G01*
X1800000Y1493310D03*
G01*
X1800000Y1906689D03*
G01*
X2100000Y1493310D03*
G01*
X2100000Y1906689D03*
G01*
X2400000Y1493310D03*
G01*
X2400000Y1906689D03*
G01*
X2700000Y1493310D03*
G01*
X2700000Y1906689D03*
G01*
X3000000Y1493310D03*
G01*
X3000000Y1906689D03*
G01*
X3300000Y1493310D03*
G01*
X3300000Y1906689D03*
G01*
X3600000Y1493310D03*
G01*
X3600000Y1906689D03*
G01*
X3900000Y1493310D03*
G01*
X3900000Y1906689D03*
G01*
X4200000Y1493310D03*
G01*
X4200000Y1906689D03*
G01*
X4500000Y1493310D03*
G01*
X4500000Y1906689D03*
G01*
X4800000Y1493310D03*
G01*
X4800000Y1906689D03*
G01*
X5100000Y1493310D03*
G01*
X5100000Y1906689D03*
G01*
X5400000Y1493310D03*
G01*
X5400000Y1906689D03*
G01*
X5700000Y1493310D03*
G01*
X5700000Y1906689D03*
G01*
X6000000Y1493310D03*
G01*
X6000000Y1906689D03*
G01*
X6300000Y1493310D03*
G01*
X6300000Y1906689D03*
G01*
X6600000Y1493310D03*
G01*
X6600000Y1906689D03*
G01*
X6900000Y1493310D03*
G01*
X6900000Y1906689D03*
G01*
X7200000Y1493310D03*
G01*
X7200000Y1906689D03*
G01*
X7500000Y1493310D03*
G01*
X7500000Y1906689D03*
G01*
X7800000Y1493310D03*
G01*
X7800000Y1906689D03*
G01*
X8100000Y1493310D03*
G01*
X8100000Y1906689D03*
G01*
X8400000Y1493310D03*
G01*
X8400000Y1906689D03*
G01*
X8700000Y1493310D03*
G01*
X8700000Y1906689D03*
G01*
X9000000Y1493310D03*
G01*
X9000000Y1906689D03*
G01*
X9300000Y1493310D03*
G01*
X9300000Y1906689D03*
G01*
X9600000Y1493310D03*
G01*
X9600000Y1906689D03*
G01*
X9900000Y1493310D03*
G01*
X9900000Y1906689D03*
D11*
G01*
X1950000Y2145000D03*
G01*
X1850000Y2145000D03*
G01*
X1750000Y2145000D03*
G01*
X1650000Y2145000D03*
G01*
X1550000Y2145000D03*
G01*
X1450000Y2145000D03*
G01*
X1350000Y2145000D03*
G01*
X1250000Y2145000D03*
G01*
X1250000Y2445000D03*
G01*
X1350000Y2445000D03*
G01*
X1450000Y2445000D03*
G01*
X1550000Y2445000D03*
G01*
X1650000Y2445000D03*
G01*
X1750000Y2445000D03*
G01*
X1850000Y2445000D03*
D12*
G01*
X1950003Y2444999D03*
D11*
G01*
X4350000Y2145000D03*
G01*
X4250000Y2145000D03*
G01*
X4150000Y2145000D03*
G01*
X4050000Y2145000D03*
G01*
X3950000Y2145000D03*
G01*
X3850000Y2145000D03*
G01*
X3750000Y2145000D03*
G01*
X3650000Y2145000D03*
G01*
X3650000Y2445000D03*
G01*
X3750000Y2445000D03*
G01*
X3850000Y2445000D03*
G01*
X3950000Y2445000D03*
G01*
X4050000Y2445000D03*
G01*
X4150000Y2445000D03*
G01*
X4250000Y2445000D03*
D12*
G01*
X4350003Y2444999D03*
D11*
G01*
X6750000Y2145000D03*
G01*
X6650000Y2145000D03*
G01*
X6550000Y2145000D03*
G01*
X6450000Y2145000D03*
G01*
X6350000Y2145000D03*
G01*
X6250000Y2145000D03*
G01*
X6150000Y2145000D03*
G01*
X6050000Y2145000D03*
G01*
X6050000Y2445000D03*
G01*
X6150000Y2445000D03*
G01*
X6250000Y2445000D03*
G01*
X6350000Y2445000D03*
G01*
X6450000Y2445000D03*
G01*
X6550000Y2445000D03*
G01*
X6650000Y2445000D03*
D12*
G01*
X6750003Y2444999D03*
D11*
G01*
X9150000Y2145000D03*
G01*
X9050000Y2145000D03*
G01*
X8950000Y2145000D03*
G01*
X8850000Y2145000D03*
G01*
X8750000Y2145000D03*
G01*
X8650000Y2145000D03*
G01*
X8550000Y2145000D03*
G01*
X8450000Y2145000D03*
G01*
X8450000Y2445000D03*
G01*
X8550000Y2445000D03*
G01*
X8650000Y2445000D03*
G01*
X8750000Y2445000D03*
G01*
X8850000Y2445000D03*
G01*
X8950000Y2445000D03*
G01*
X9050000Y2445000D03*
D12*
G01*
X9150003Y2444999D03*
D13*
G01*
X600000Y938580D03*
G01*
X600000Y1261419D03*
G01*
X900000Y938580D03*
G01*
X900000Y1261419D03*
G01*
X1200000Y938580D03*
G01*
X1200000Y1261419D03*
G01*
X1500000Y938580D03*
G01*
X1500000Y1261419D03*
G01*
X1800000Y938580D03*
G01*
X1800000Y1261419D03*
G01*
X2100000Y938580D03*
G01*
X2100000Y1261419D03*
G01*
X2400000Y938580D03*
G01*
X2400000Y1261419D03*
G01*
X2700000Y938580D03*
G01*
X2700000Y1261419D03*
G01*
X3000000Y938580D03*
G01*
X3000000Y1261419D03*
G01*
X3300000Y938580D03*
G01*
X3300000Y1261419D03*
G01*
X3600000Y938580D03*
G01*
X3600000Y1261419D03*
G01*
X3900000Y938580D03*
G01*
X3900000Y1261419D03*
G01*
X4200000Y938580D03*
G01*
X4200000Y1261419D03*
G01*
X4500000Y938580D03*
G01*
X4500000Y1261419D03*
G01*
X4800000Y938580D03*
G01*
X4800000Y1261419D03*
G01*
X5100000Y938580D03*
G01*
X5100000Y1261419D03*
G01*
X5400000Y938580D03*
G01*
X5400000Y1261419D03*
G01*
X5700000Y938580D03*
G01*
X5700000Y1261419D03*
G01*
X6000000Y938580D03*
G01*
X6000000Y1261419D03*
G01*
X6300000Y938580D03*
G01*
X6300000Y1261419D03*
G01*
X6600000Y938580D03*
G01*
X6600000Y1261419D03*
G01*
X6900000Y938580D03*
G01*
X6900000Y1261419D03*
G01*
X7200000Y938580D03*
G01*
X7200000Y1261419D03*
G01*
X7500000Y938580D03*
G01*
X7500000Y1261419D03*
G01*
X7800000Y938580D03*
G01*
X7800000Y1261419D03*
G01*
X8100000Y938580D03*
G01*
X8100000Y1261419D03*
G01*
X8400000Y938580D03*
G01*
X8400000Y1261419D03*
G01*
X8700000Y938580D03*
G01*
X8700000Y1261419D03*
G01*
X9000000Y938580D03*
G01*
X9000000Y1261419D03*
G01*
X9300000Y938580D03*
G01*
X9300000Y1261419D03*
G01*
X9600000Y938580D03*
G01*
X9600000Y1261419D03*
G01*
X9900000Y938580D03*
G01*
X9900000Y1261419D03*
D10*
G01*
X10200000Y1493310D03*
G01*
X10200000Y1906689D03*
G01*
X10500000Y1493310D03*
G01*
X10500000Y1906689D03*
G01*
X10800000Y1493310D03*
G01*
X10800000Y1906689D03*
G01*
X11100000Y1493310D03*
G01*
X11100000Y1906689D03*
D11*
G01*
X10850000Y2150000D03*
G01*
X10750000Y2150000D03*
G01*
X10650000Y2150000D03*
G01*
X10550000Y2150000D03*
G01*
X10450000Y2150000D03*
G01*
X10350000Y2150000D03*
G01*
X10250000Y2150000D03*
G01*
X10150000Y2150000D03*
G01*
X10150000Y2450000D03*
G01*
X10250000Y2450000D03*
G01*
X10350000Y2450000D03*
G01*
X10450000Y2450000D03*
G01*
X10550000Y2450000D03*
G01*
X10650000Y2450000D03*
G01*
X10750000Y2450000D03*
D12*
G01*
X10850003Y2449999D03*
D13*
G01*
X10200000Y938580D03*
G01*
X10200000Y1261419D03*
G01*
X10500000Y938580D03*
G01*
X10500000Y1261419D03*
G01*
X10800000Y938580D03*
G01*
X10800000Y1261419D03*
G01*
X11100000Y938580D03*
G01*
X11100000Y1261419D03*
D14*
G01*
X5000000Y2700000D03*
D15*
G01*
X5100000Y2700000D03*
G01*
X5200000Y2700000D03*
G01*
X5300000Y2700000D03*
G01*
X5400000Y2700000D03*
G01*
X5500000Y2700000D03*
G01*
X5600000Y2700000D03*
G01*
X5700000Y2700000D03*
M02*
