M48
METRIC,LZ,000.000
;FILE_FORMAT=3:3
;TYPE=PLATED
;Layer: PTH_Through
;EasyEDA v6.5.43, 2024-08-29 12:16:04
;cb6e2e9fbd21486d88ae5690d2d3dc00,10
;Gerber Generator version 0.2
;Holesize 1 = 0.501 mm
T01C0.501
;Holesize 2 = 0.600 mm
T02C0.600
;Holesize 3 = 0.701 mm
T03C0.701
;Holesize 4 = 0.800 mm
T04C0.800
;Holesize 5 = 0.889 mm
T05C0.889
;Holesize 6 = 1.000 mm
T06C1.000
%
G05
G90
T01
X080137Y048641
X089154Y048641
X087630Y045659
X078867Y045659
T02
X113030Y045720
T03
X084330Y031793
X084330Y021293
X092830Y031793
X092830Y021293
X101330Y031793
X101330Y021293
X109830Y031793
X109830Y021293
X126830Y031793
X126830Y021293
X135330Y031793
X135330Y021293
X143830Y031793
X143830Y021293
X152330Y031793
X152330Y021293
X160830Y031793
X160830Y021293
X177830Y031793
X177830Y021293
X186330Y031793
X186330Y021293
X194830Y031793
X194830Y021293
X203330Y031793
X203330Y021293
X211830Y031793
X211830Y021293
X220329Y031793
X220329Y021293
X228830Y031793
X228830Y021293
X067330Y021293
X067330Y031793
X058830Y021293
X058830Y031793
X041830Y021293
X041830Y031793
X033330Y021293
X033330Y031793
X024830Y021293
X024830Y031793
X016330Y021293
X016330Y031793
X007830Y021293
X007830Y031793
X075830Y021293
X075830Y031793
T04
X025146Y047625
X025146Y042625
X104394Y042625
X104394Y047625
X175514Y042625
X175514Y047625
T05
X125730Y066548
X123190Y066548
X120650Y066548
X118110Y066548
X115570Y066548
T06
X030226Y047625
X032766Y047625
X035306Y047625
X037846Y047625
X040386Y047625
X042926Y047625
X045466Y047625
X048006Y047625
X048006Y040005
X045466Y040005
X042926Y040005
X040386Y040005
X037846Y040005
X035306Y040005
X032766Y040005
X030226Y040005
X110490Y047625
X113030Y047625
X115570Y047625
X118110Y047625
X120650Y047625
X123190Y047625
X125730Y047625
X128270Y047625
X128270Y040005
X125730Y040005
X123190Y040005
X120650Y040005
X118110Y040005
X115570Y040005
X113030Y040005
X110490Y040005
X183642Y047625
X186182Y047625
X188722Y047625
X191262Y047625
X193802Y047625
X196342Y047625
X198882Y047625
X201422Y047625
X201422Y040005
X198882Y040005
X196342Y040005
X193802Y040005
X191262Y040005
X188722Y040005
X186182Y040005
X183642Y040005
M30
