G04 Layer: TopPasteMaskLayer*
G04 EasyEDA v6.5.43, 2024-08-29 12:16:04*
G04 cb6e2e9fbd21486d88ae5690d2d3dc00,10*
G04 Gerber Generator version 0.2*
G04 Scale: 100 percent, Rotated: No, Reflected: No *
G04 Dimensions in millimeters *
G04 leading zeros omitted , absolute positions ,4 integer and 5 decimal *
%FSLAX45Y45*%
%MOMM*%

%ADD10R,1.5000X2.3000*%
%ADD11R,1.1570X0.4900*%
%ADD12R,1.1750X0.4900*%

%LPD*%
D10*
G01*
X8033001Y-1081709D03*
G01*
X8032976Y-1991690D03*
G01*
X7582989Y-1081709D03*
G01*
X7582989Y-1991690D03*
G01*
X8882999Y1204290D03*
G01*
X8882974Y294309D03*
G01*
X8432987Y1204290D03*
G01*
X8432987Y294309D03*
G01*
X9732998Y-1081709D03*
G01*
X9732972Y-1991690D03*
G01*
X9282986Y-1081709D03*
G01*
X9282986Y-1991690D03*
G01*
X10582996Y1204290D03*
G01*
X10582970Y294309D03*
G01*
X10132984Y1204290D03*
G01*
X10132984Y294309D03*
G01*
X11432994Y-1081709D03*
G01*
X11432969Y-1991690D03*
G01*
X10982982Y-1081709D03*
G01*
X10982982Y-1991690D03*
G01*
X13132991Y-1081709D03*
G01*
X13132965Y-1991690D03*
G01*
X12682979Y-1081709D03*
G01*
X12682979Y-1991690D03*
G01*
X13982989Y1204290D03*
G01*
X13982964Y294309D03*
G01*
X13532977Y1204290D03*
G01*
X13532977Y294309D03*
G01*
X14832987Y-1081709D03*
G01*
X14832962Y-1991690D03*
G01*
X14382976Y-1081709D03*
G01*
X14382976Y-1991690D03*
G01*
X15682986Y1204290D03*
G01*
X15682960Y294309D03*
G01*
X15232974Y1204290D03*
G01*
X15232974Y294309D03*
G01*
X16532984Y-1081709D03*
G01*
X16532959Y-1991690D03*
G01*
X16082972Y-1081709D03*
G01*
X16082972Y-1991690D03*
G01*
X18232981Y-1081709D03*
G01*
X18232955Y-1991690D03*
G01*
X17782969Y-1081709D03*
G01*
X17782969Y-1991690D03*
G01*
X19082979Y1204290D03*
G01*
X19082953Y294309D03*
G01*
X18632967Y1204290D03*
G01*
X18632967Y294309D03*
G01*
X19932977Y-1081709D03*
G01*
X19932952Y-1991690D03*
G01*
X19482965Y-1081709D03*
G01*
X19482965Y-1991690D03*
G01*
X20782953Y1204290D03*
G01*
X20782927Y294309D03*
G01*
X20332941Y1204290D03*
G01*
X20332941Y294309D03*
G01*
X21632953Y-1081709D03*
G01*
X21632928Y-1991690D03*
G01*
X21182942Y-1081709D03*
G01*
X21182942Y-1991690D03*
G01*
X22482954Y1204290D03*
G01*
X22482929Y294309D03*
G01*
X22032942Y1204290D03*
G01*
X22032942Y294309D03*
G01*
X23332955Y-1081709D03*
G01*
X23332930Y-1991690D03*
G01*
X22882943Y-1081709D03*
G01*
X22882943Y-1991690D03*
G01*
X1233015Y-1081709D03*
G01*
X1232989Y-1991690D03*
G01*
X783003Y-1081709D03*
G01*
X783003Y-1991690D03*
G01*
X2083013Y1204290D03*
G01*
X2082987Y294309D03*
G01*
X1633001Y1204290D03*
G01*
X1633001Y294309D03*
G01*
X2933011Y-1081709D03*
G01*
X2932986Y-1991690D03*
G01*
X2482974Y-1081709D03*
G01*
X2482974Y-1991690D03*
G01*
X3783009Y1204290D03*
G01*
X3782984Y294309D03*
G01*
X3332972Y1204290D03*
G01*
X3332972Y294309D03*
G01*
X4633008Y-1081709D03*
G01*
X4632982Y-1991690D03*
G01*
X4182996Y-1081709D03*
G01*
X4182996Y-1991690D03*
G01*
X6333004Y-1081709D03*
G01*
X6332979Y-1991690D03*
G01*
X5882993Y-1081709D03*
G01*
X5882993Y-1991690D03*
G01*
X7183003Y1204290D03*
G01*
X7182977Y294309D03*
G01*
X6732991Y1204290D03*
G01*
X6732991Y294309D03*
D11*
G01*
X8914333Y4755903D03*
G01*
X8914333Y4660907D03*
G01*
X8914333Y4565911D03*
D12*
G01*
X9145066Y4565911D03*
G01*
X9145066Y4755903D03*
D11*
G01*
X8012633Y4755895D03*
G01*
X8012633Y4660900D03*
G01*
X8012633Y4565904D03*
D12*
G01*
X8243366Y4565904D03*
G01*
X8243366Y4755895D03*
M02*
