G04 Layer: TopSilkscreenLayer*
G04 EasyEDA v6.5.43, 2024-08-27 13:26:19*
G04 cb6e2e9fbd21486d88ae5690d2d3dc00,10*
G04 Gerber Generator version 0.2*
G04 Scale: 100 percent, Rotated: No, Reflected: No *
G04 Dimensions in millimeters *
G04 leading zeros omitted , absolute positions ,4 integer and 5 decimal *
%FSLAX45Y45*%
%MOMM*%

%ADD10C,0.1000*%
%ADD11C,0.1524*%
%ADD12C,0.2540*%
%ADD13C,0.1520*%
%ADD14C,0.2032*%
%ADD15C,0.2030*%
%ADD16C,0.3000*%
%ADD17C,0.0158*%

%LPD*%
D10*
X2251715Y3136389D02*
G01*
X2247143Y3145279D01*
X2238253Y3154423D01*
X2229109Y3158995D01*
X2215393Y3163567D01*
X2192787Y3163567D01*
X2179071Y3158995D01*
X2169927Y3154423D01*
X2160783Y3145279D01*
X2156211Y3136389D01*
X2156211Y3118101D01*
X2160783Y3108957D01*
X2169927Y3099813D01*
X2179071Y3095495D01*
X2192787Y3090923D01*
X2215393Y3090923D01*
X2229109Y3095495D01*
X2238253Y3099813D01*
X2247143Y3108957D01*
X2251715Y3118101D01*
X2251715Y3136389D01*
X2174499Y3122673D02*
G01*
X2147321Y3095495D01*
X2251715Y3060951D02*
G01*
X2156211Y3060951D01*
X2251715Y2997197D02*
G01*
X2156211Y2997197D01*
X2206249Y3060951D02*
G01*
X2206249Y2997197D01*
X1975109Y3095495D02*
G01*
X1984253Y3099813D01*
X1993143Y3108957D01*
X1997715Y3118101D01*
X1997715Y3136389D01*
X1993143Y3145279D01*
X1984253Y3154423D01*
X1975109Y3158995D01*
X1961393Y3163567D01*
X1938787Y3163567D01*
X1925071Y3158995D01*
X1915927Y3154423D01*
X1906783Y3145279D01*
X1902211Y3136389D01*
X1902211Y3118101D01*
X1906783Y3108957D01*
X1915927Y3099813D01*
X1925071Y3095495D01*
X1938787Y3095495D01*
X1938787Y3118101D02*
G01*
X1938787Y3095495D01*
X1997715Y3065269D02*
G01*
X1902211Y3065269D01*
X1997715Y3065269D02*
G01*
X1902211Y3001769D01*
X1997715Y3001769D02*
G01*
X1902211Y3001769D01*
X1997715Y2971797D02*
G01*
X1902211Y2971797D01*
X1997715Y2971797D02*
G01*
X1997715Y2940047D01*
X1993143Y2926331D01*
X1984253Y2917187D01*
X1975109Y2912615D01*
X1961393Y2908043D01*
X1938787Y2908043D01*
X1925071Y2912615D01*
X1915927Y2917187D01*
X1906783Y2926331D01*
X1902211Y2940047D01*
X1902211Y2971797D01*
X2483109Y3095495D02*
G01*
X2492253Y3099813D01*
X2501143Y3108957D01*
X2505715Y3118101D01*
X2505715Y3136389D01*
X2501143Y3145279D01*
X2492253Y3154423D01*
X2483109Y3158995D01*
X2469393Y3163567D01*
X2446787Y3163567D01*
X2433071Y3158995D01*
X2423927Y3154423D01*
X2414783Y3145279D01*
X2410211Y3136389D01*
X2410211Y3118101D01*
X2414783Y3108957D01*
X2423927Y3099813D01*
X2433071Y3095495D01*
X2505715Y3065269D02*
G01*
X2410211Y3065269D01*
X2410211Y3065269D02*
G01*
X2410211Y3010913D01*
X2505715Y2980941D02*
G01*
X2410211Y2980941D01*
X2505715Y2917187D02*
G01*
X2442215Y2980941D01*
X2464821Y2958081D02*
G01*
X2410211Y2917187D01*
X2746253Y3099813D02*
G01*
X2755143Y3108957D01*
X2759715Y3122673D01*
X2759715Y3140961D01*
X2755143Y3154423D01*
X2746253Y3163567D01*
X2737109Y3163567D01*
X2727965Y3158995D01*
X2723393Y3154423D01*
X2718821Y3145279D01*
X2709677Y3118101D01*
X2705359Y3108957D01*
X2700787Y3104385D01*
X2691643Y3099813D01*
X2677927Y3099813D01*
X2668783Y3108957D01*
X2664211Y3122673D01*
X2664211Y3140961D01*
X2668783Y3154423D01*
X2677927Y3163567D01*
X2759715Y3069841D02*
G01*
X2664211Y3069841D01*
X2759715Y3006341D02*
G01*
X2664211Y3006341D01*
X2714249Y3069841D02*
G01*
X2714249Y3006341D01*
X1725681Y3121403D02*
G01*
X1643639Y3121403D01*
X1684787Y3162297D02*
G01*
X1684787Y3080509D01*
X1739143Y2995927D02*
G01*
X1739143Y3041393D01*
X1698249Y3045965D01*
X1702821Y3041393D01*
X1707393Y3027677D01*
X1707393Y3014215D01*
X1702821Y3000499D01*
X1693677Y2991355D01*
X1680215Y2986783D01*
X1671071Y2986783D01*
X1657355Y2991355D01*
X1648211Y3000499D01*
X1643639Y3014215D01*
X1643639Y3027677D01*
X1648211Y3041393D01*
X1652783Y3045965D01*
X1661927Y3050537D01*
X1739143Y2956811D02*
G01*
X1643639Y2920489D01*
X1739143Y2884167D02*
G01*
X1643639Y2920489D01*
X4343654Y569973D02*
G01*
X4334509Y578863D01*
X4320793Y583435D01*
X4302506Y583435D01*
X4289043Y578863D01*
X4279900Y569973D01*
X4279900Y560829D01*
X4284472Y551685D01*
X4289043Y547113D01*
X4298188Y542541D01*
X4325365Y533397D01*
X4334509Y529079D01*
X4339081Y524507D01*
X4343654Y515363D01*
X4343654Y501647D01*
X4334509Y492503D01*
X4320793Y487931D01*
X4302506Y487931D01*
X4289043Y492503D01*
X4279900Y501647D01*
X4373625Y583435D02*
G01*
X4396231Y487931D01*
X4419091Y583435D02*
G01*
X4396231Y487931D01*
X4419091Y583435D02*
G01*
X4441697Y487931D01*
X4464558Y583435D02*
G01*
X4441697Y487931D01*
X4562602Y560829D02*
G01*
X4558029Y569973D01*
X4548886Y578863D01*
X4539995Y583435D01*
X4521708Y583435D01*
X4512563Y578863D01*
X4503420Y569973D01*
X4499102Y560829D01*
X4494529Y547113D01*
X4494529Y524507D01*
X4499102Y510791D01*
X4503420Y501647D01*
X4512563Y492503D01*
X4521708Y487931D01*
X4539995Y487931D01*
X4548886Y492503D01*
X4558029Y501647D01*
X4562602Y510791D01*
X4592574Y583435D02*
G01*
X4592574Y487931D01*
X4592574Y487931D02*
G01*
X4647184Y487931D01*
X4677156Y583435D02*
G01*
X4677156Y487931D01*
X4740909Y583435D02*
G01*
X4677156Y519935D01*
X4700015Y542541D02*
G01*
X4740909Y487931D01*
X3403854Y290573D02*
G01*
X3394709Y299463D01*
X3380993Y304035D01*
X3362706Y304035D01*
X3349243Y299463D01*
X3340100Y290573D01*
X3340100Y281429D01*
X3344672Y272285D01*
X3349243Y267713D01*
X3358388Y263141D01*
X3385565Y253997D01*
X3394709Y249679D01*
X3399281Y245107D01*
X3403854Y235963D01*
X3403854Y222247D01*
X3394709Y213103D01*
X3380993Y208531D01*
X3362706Y208531D01*
X3349243Y213103D01*
X3340100Y222247D01*
X3433825Y304035D02*
G01*
X3456431Y208531D01*
X3479291Y304035D02*
G01*
X3456431Y208531D01*
X3479291Y304035D02*
G01*
X3501897Y208531D01*
X3524758Y304035D02*
G01*
X3501897Y208531D01*
X3554729Y304035D02*
G01*
X3554729Y208531D01*
X3554729Y304035D02*
G01*
X3586479Y304035D01*
X3600195Y299463D01*
X3609086Y290573D01*
X3613658Y281429D01*
X3618229Y267713D01*
X3618229Y245107D01*
X3613658Y231391D01*
X3609086Y222247D01*
X3600195Y213103D01*
X3586479Y208531D01*
X3554729Y208531D01*
X3648202Y304035D02*
G01*
X3648202Y208531D01*
X3705606Y304035D02*
G01*
X3696461Y299463D01*
X3687318Y290573D01*
X3682745Y281429D01*
X3678174Y267713D01*
X3678174Y245107D01*
X3682745Y231391D01*
X3687318Y222247D01*
X3696461Y213103D01*
X3705606Y208531D01*
X3723640Y208531D01*
X3732784Y213103D01*
X3741927Y222247D01*
X3746500Y231391D01*
X3751072Y245107D01*
X3751072Y267713D01*
X3746500Y281429D01*
X3741927Y290573D01*
X3732784Y299463D01*
X3723640Y304035D01*
X3705606Y304035D01*
D11*
X3864693Y467118D02*
G01*
X3864693Y545096D01*
X3859613Y560590D01*
X3849199Y571004D01*
X3833451Y576084D01*
X3823037Y576084D01*
X3807543Y571004D01*
X3797129Y560590D01*
X3792049Y545096D01*
X3792049Y467118D01*
X3757759Y487946D02*
G01*
X3747345Y482612D01*
X3731597Y467118D01*
X3731597Y576084D01*
X3754272Y1854707D02*
G01*
X3748938Y1865121D01*
X3738524Y1875536D01*
X3728364Y1880615D01*
X3707536Y1880615D01*
X3697122Y1875536D01*
X3686708Y1865121D01*
X3681374Y1854707D01*
X3676294Y1838960D01*
X3676294Y1813052D01*
X3681374Y1797557D01*
X3686708Y1787144D01*
X3697122Y1776729D01*
X3707536Y1771650D01*
X3728364Y1771650D01*
X3738524Y1776729D01*
X3748938Y1787144D01*
X3754272Y1797557D01*
X3788562Y1859787D02*
G01*
X3798976Y1865121D01*
X3814470Y1880615D01*
X3814470Y1771650D01*
X3919367Y2032507D02*
G01*
X3914033Y2042921D01*
X3903619Y2053336D01*
X3893459Y2058415D01*
X3872631Y2058415D01*
X3862217Y2053336D01*
X3851803Y2042921D01*
X3846469Y2032507D01*
X3841389Y2016760D01*
X3841389Y1990852D01*
X3846469Y1975357D01*
X3851803Y1964944D01*
X3862217Y1954529D01*
X3872631Y1949450D01*
X3893459Y1949450D01*
X3903619Y1954529D01*
X3914033Y1964944D01*
X3919367Y1975357D01*
X3958737Y2032507D02*
G01*
X3958737Y2037587D01*
X3964071Y2048002D01*
X3969151Y2053336D01*
X3979565Y2058415D01*
X4000393Y2058415D01*
X4010807Y2053336D01*
X4015887Y2048002D01*
X4021221Y2037587D01*
X4021221Y2027173D01*
X4015887Y2016760D01*
X4005473Y2001265D01*
X3953657Y1949450D01*
X4026301Y1949450D01*
X4544822Y1104392D02*
G01*
X4550156Y1093978D01*
X4560570Y1083563D01*
X4570729Y1078484D01*
X4591558Y1078484D01*
X4601972Y1083563D01*
X4612386Y1093978D01*
X4617720Y1104392D01*
X4622800Y1120139D01*
X4622800Y1146047D01*
X4617720Y1161542D01*
X4612386Y1171955D01*
X4601972Y1182370D01*
X4591558Y1187450D01*
X4570729Y1187450D01*
X4560570Y1182370D01*
X4550156Y1171955D01*
X4544822Y1161542D01*
X4500118Y1078484D02*
G01*
X4442968Y1078484D01*
X4474209Y1120139D01*
X4458715Y1120139D01*
X4448302Y1125220D01*
X4442968Y1130300D01*
X4437888Y1146047D01*
X4437888Y1156462D01*
X4442968Y1171955D01*
X4453381Y1182370D01*
X4469129Y1187450D01*
X4484624Y1187450D01*
X4500118Y1182370D01*
X4505452Y1177289D01*
X4510531Y1166876D01*
X4532122Y1713992D02*
G01*
X4537456Y1703578D01*
X4547870Y1693163D01*
X4558029Y1688084D01*
X4578858Y1688084D01*
X4589272Y1693163D01*
X4599686Y1703578D01*
X4605020Y1713992D01*
X4610100Y1729739D01*
X4610100Y1755647D01*
X4605020Y1771142D01*
X4599686Y1781555D01*
X4589272Y1791970D01*
X4578858Y1797050D01*
X4558029Y1797050D01*
X4547870Y1791970D01*
X4537456Y1781555D01*
X4532122Y1771142D01*
X4446015Y1688084D02*
G01*
X4497831Y1760728D01*
X4419854Y1760728D01*
X4446015Y1688084D02*
G01*
X4446015Y1797050D01*
X3352291Y2296972D02*
G01*
X3341877Y2291638D01*
X3331463Y2281224D01*
X3326384Y2271064D01*
X3326384Y2250236D01*
X3331463Y2239822D01*
X3341877Y2229408D01*
X3352291Y2224074D01*
X3368040Y2218994D01*
X3393947Y2218994D01*
X3409441Y2224074D01*
X3419856Y2229408D01*
X3430270Y2239822D01*
X3435350Y2250236D01*
X3435350Y2271064D01*
X3430270Y2281224D01*
X3419856Y2291638D01*
X3409441Y2296972D01*
X3326384Y2393492D02*
G01*
X3326384Y2341676D01*
X3373120Y2336342D01*
X3368040Y2341676D01*
X3362706Y2357170D01*
X3362706Y2372664D01*
X3368040Y2388412D01*
X3378200Y2398826D01*
X3393947Y2403906D01*
X3404361Y2403906D01*
X3419856Y2398826D01*
X3430270Y2388412D01*
X3435350Y2372664D01*
X3435350Y2357170D01*
X3430270Y2341676D01*
X3425190Y2336342D01*
X3414775Y2331262D01*
X3999991Y2296972D02*
G01*
X3989577Y2291638D01*
X3979163Y2281224D01*
X3974084Y2271064D01*
X3974084Y2250236D01*
X3979163Y2239822D01*
X3989577Y2229408D01*
X3999991Y2224074D01*
X4015740Y2218994D01*
X4041647Y2218994D01*
X4057141Y2224074D01*
X4067556Y2229408D01*
X4077970Y2239822D01*
X4083050Y2250236D01*
X4083050Y2271064D01*
X4077970Y2281224D01*
X4067556Y2291638D01*
X4057141Y2296972D01*
X3989577Y2393492D02*
G01*
X3979163Y2388412D01*
X3974084Y2372664D01*
X3974084Y2362504D01*
X3979163Y2346756D01*
X3994911Y2336342D01*
X4020820Y2331262D01*
X4046727Y2331262D01*
X4067556Y2336342D01*
X4077970Y2346756D01*
X4083050Y2362504D01*
X4083050Y2367584D01*
X4077970Y2383078D01*
X4067556Y2393492D01*
X4052061Y2398826D01*
X4046727Y2398826D01*
X4031234Y2393492D01*
X4020820Y2383078D01*
X4015740Y2367584D01*
X4015740Y2362504D01*
X4020820Y2346756D01*
X4031234Y2336342D01*
X4046727Y2331262D01*
X3545077Y2032507D02*
G01*
X3539743Y2042921D01*
X3529329Y2053336D01*
X3519170Y2058415D01*
X3498341Y2058415D01*
X3487927Y2053336D01*
X3477513Y2042921D01*
X3472179Y2032507D01*
X3467100Y2016760D01*
X3467100Y1990852D01*
X3472179Y1975357D01*
X3477513Y1964944D01*
X3487927Y1954529D01*
X3498341Y1949450D01*
X3519170Y1949450D01*
X3529329Y1954529D01*
X3539743Y1964944D01*
X3545077Y1975357D01*
X3652011Y2058415D02*
G01*
X3600195Y1949450D01*
X3579368Y2058415D02*
G01*
X3652011Y2058415D01*
X3652456Y2310384D02*
G01*
X3652456Y2419350D01*
X3652456Y2310384D02*
G01*
X3616134Y2310384D01*
X3600386Y2315463D01*
X3590226Y2325878D01*
X3584892Y2336292D01*
X3579812Y2352039D01*
X3579812Y2377947D01*
X3584892Y2393442D01*
X3590226Y2403855D01*
X3600386Y2414270D01*
X3616134Y2419350D01*
X3652456Y2419350D01*
X3545522Y2331212D02*
G01*
X3535108Y2325878D01*
X3519360Y2310384D01*
X3519360Y2419350D01*
X3529609Y2178011D02*
G01*
X3607587Y2178011D01*
X3623081Y2183091D01*
X3633495Y2193505D01*
X3638575Y2209253D01*
X3638575Y2219667D01*
X3633495Y2235161D01*
X3623081Y2245575D01*
X3607587Y2250655D01*
X3529609Y2250655D01*
X3529609Y2295359D02*
G01*
X3529609Y2352509D01*
X3571265Y2321521D01*
X3571265Y2337015D01*
X3576345Y2347429D01*
X3581425Y2352509D01*
X3597173Y2357843D01*
X3607587Y2357843D01*
X3623081Y2352509D01*
X3633495Y2342095D01*
X3638575Y2326601D01*
X3638575Y2311107D01*
X3633495Y2295359D01*
X3628415Y2290279D01*
X3618001Y2284945D01*
X4228777Y1598434D02*
G01*
X4337743Y1671078D01*
X4228777Y1671078D02*
G01*
X4337743Y1598434D01*
X4249605Y1705368D02*
G01*
X4244271Y1715782D01*
X4228777Y1731530D01*
X4337743Y1731530D01*
X842048Y2535199D02*
G01*
X764070Y2535199D01*
X748576Y2530119D01*
X738162Y2519705D01*
X733082Y2503957D01*
X733082Y2493543D01*
X738162Y2478049D01*
X748576Y2467635D01*
X764070Y2462555D01*
X842048Y2462555D01*
X826554Y2355367D02*
G01*
X836968Y2365781D01*
X842048Y2381529D01*
X842048Y2402103D01*
X836968Y2417851D01*
X826554Y2428265D01*
X816140Y2428265D01*
X805726Y2422931D01*
X800392Y2417851D01*
X795312Y2407437D01*
X784898Y2376195D01*
X779818Y2365781D01*
X774484Y2360701D01*
X764070Y2355367D01*
X748576Y2355367D01*
X738162Y2365781D01*
X733082Y2381529D01*
X733082Y2402103D01*
X738162Y2417851D01*
X748576Y2428265D01*
X842048Y2321077D02*
G01*
X733082Y2321077D01*
X842048Y2321077D02*
G01*
X842048Y2274341D01*
X836968Y2258847D01*
X831634Y2253513D01*
X821220Y2248433D01*
X810806Y2248433D01*
X800392Y2253513D01*
X795312Y2258847D01*
X790232Y2274341D01*
X790232Y2321077D02*
G01*
X790232Y2274341D01*
X784898Y2258847D01*
X779818Y2253513D01*
X769404Y2248433D01*
X753656Y2248433D01*
X743242Y2253513D01*
X738162Y2258847D01*
X733082Y2274341D01*
X733082Y2321077D01*
X821220Y2214143D02*
G01*
X826554Y2203729D01*
X842048Y2188235D01*
X733082Y2188235D01*
X3141624Y431292D02*
G01*
X3146958Y420878D01*
X3157372Y410463D01*
X3167532Y405384D01*
X3188360Y405384D01*
X3198774Y410463D01*
X3209188Y420878D01*
X3214522Y431292D01*
X3219602Y447039D01*
X3219602Y472947D01*
X3214522Y488442D01*
X3209188Y498855D01*
X3198774Y509270D01*
X3188360Y514350D01*
X3167532Y514350D01*
X3157372Y509270D01*
X3146958Y498855D01*
X3141624Y488442D01*
X3081426Y405384D02*
G01*
X3096920Y410463D01*
X3102254Y420878D01*
X3102254Y431292D01*
X3096920Y441705D01*
X3086506Y447039D01*
X3065932Y452120D01*
X3050184Y457200D01*
X3039770Y467613D01*
X3034690Y478028D01*
X3034690Y493776D01*
X3039770Y504189D01*
X3045104Y509270D01*
X3060598Y514350D01*
X3081426Y514350D01*
X3096920Y509270D01*
X3102254Y504189D01*
X3107334Y493776D01*
X3107334Y478028D01*
X3102254Y467613D01*
X3091840Y457200D01*
X3076092Y452120D01*
X3055518Y447039D01*
X3045104Y441705D01*
X3039770Y431292D01*
X3039770Y420878D01*
X3045104Y410463D01*
X3060598Y405384D01*
X3081426Y405384D01*
X3200400Y1131315D02*
G01*
X3200400Y1022350D01*
X3200400Y1131315D02*
G01*
X3247136Y1131315D01*
X3262629Y1126236D01*
X3267963Y1120902D01*
X3273043Y1110487D01*
X3273043Y1100073D01*
X3267963Y1089660D01*
X3262629Y1084579D01*
X3247136Y1079500D01*
X3200400Y1079500D01*
X3236722Y1079500D02*
G01*
X3273043Y1022350D01*
X3307334Y1110487D02*
G01*
X3317747Y1115821D01*
X3333495Y1131315D01*
X3333495Y1022350D01*
X2223770Y2922015D02*
G01*
X2223770Y2838957D01*
X2218436Y2823210D01*
X2213356Y2818129D01*
X2202941Y2813050D01*
X2192527Y2813050D01*
X2182113Y2818129D01*
X2176779Y2823210D01*
X2171700Y2838957D01*
X2171700Y2849371D01*
X2258059Y2901187D02*
G01*
X2268220Y2906521D01*
X2283968Y2922015D01*
X2283968Y2813050D01*
X4077970Y509015D02*
G01*
X4077970Y425957D01*
X4072636Y410210D01*
X4067556Y405129D01*
X4057141Y400050D01*
X4046727Y400050D01*
X4036313Y405129D01*
X4030979Y410210D01*
X4025900Y425957D01*
X4025900Y436371D01*
X4117340Y483107D02*
G01*
X4117340Y488187D01*
X4122420Y498602D01*
X4127754Y503936D01*
X4138168Y509015D01*
X4158995Y509015D01*
X4169409Y503936D01*
X4174490Y498602D01*
X4179570Y488187D01*
X4179570Y477773D01*
X4174490Y467360D01*
X4164075Y451865D01*
X4112259Y400050D01*
X4184904Y400050D01*
X-421716Y1299210D02*
G01*
X-338658Y1299210D01*
X-322910Y1293876D01*
X-317830Y1288795D01*
X-312750Y1278381D01*
X-312750Y1267968D01*
X-317830Y1257554D01*
X-322910Y1252220D01*
X-338658Y1247139D01*
X-349072Y1247139D01*
X-421716Y1343660D02*
G01*
X-421716Y1400810D01*
X-380060Y1369821D01*
X-380060Y1385315D01*
X-374980Y1395729D01*
X-369900Y1400810D01*
X-354152Y1406144D01*
X-343738Y1406144D01*
X-328244Y1400810D01*
X-317830Y1390650D01*
X-312750Y1374902D01*
X-312750Y1359407D01*
X-317830Y1343660D01*
X-322910Y1338579D01*
X-333324Y1333500D01*
X2356180Y-19517D02*
G01*
X2356180Y89448D01*
X2283536Y-19517D02*
G01*
X2356180Y53126D01*
X2330272Y27218D02*
G01*
X2283536Y89448D01*
X2249246Y-19517D02*
G01*
X2249246Y89448D01*
X2249246Y-19517D02*
G01*
X2181682Y-19517D01*
X2249246Y32298D02*
G01*
X2207590Y32298D01*
X2249246Y89448D02*
G01*
X2181682Y89448D01*
X2147392Y-19517D02*
G01*
X2105736Y32298D01*
X2105736Y89448D01*
X2064080Y-19517D02*
G01*
X2105736Y32298D01*
X2029790Y1310D02*
G01*
X2019630Y-4023D01*
X2003882Y-19517D01*
X2003882Y89448D01*
X1933270Y-40345D02*
G01*
X1943684Y-29931D01*
X1954098Y-14437D01*
X1964512Y6390D01*
X1969592Y32298D01*
X1969592Y53126D01*
X1964512Y79288D01*
X1954098Y99862D01*
X1943684Y115610D01*
X1933270Y126024D01*
X1898980Y-19517D02*
G01*
X1898980Y89448D01*
X1898980Y-19517D02*
G01*
X1852244Y-19517D01*
X1836750Y-14437D01*
X1831416Y-9103D01*
X1826336Y1310D01*
X1826336Y11724D01*
X1831416Y22138D01*
X1836750Y27218D01*
X1852244Y32298D01*
X1898980Y32298D01*
X1862658Y32298D02*
G01*
X1826336Y89448D01*
X1792046Y-19517D02*
G01*
X1792046Y89448D01*
X1792046Y-19517D02*
G01*
X1724482Y-19517D01*
X1792046Y32298D02*
G01*
X1750390Y32298D01*
X1792046Y89448D02*
G01*
X1724482Y89448D01*
X1617294Y-4023D02*
G01*
X1627708Y-14437D01*
X1643456Y-19517D01*
X1664030Y-19517D01*
X1679778Y-14437D01*
X1690192Y-4023D01*
X1690192Y6390D01*
X1684858Y16804D01*
X1679778Y22138D01*
X1669364Y27218D01*
X1638122Y37632D01*
X1627708Y42712D01*
X1622628Y48046D01*
X1617294Y58460D01*
X1617294Y73954D01*
X1627708Y84368D01*
X1643456Y89448D01*
X1664030Y89448D01*
X1679778Y84368D01*
X1690192Y73954D01*
X1583004Y-19517D02*
G01*
X1583004Y89448D01*
X1583004Y-19517D02*
G01*
X1515440Y-19517D01*
X1583004Y32298D02*
G01*
X1541602Y32298D01*
X1583004Y89448D02*
G01*
X1515440Y89448D01*
X1444828Y-19517D02*
G01*
X1444828Y89448D01*
X1481150Y-19517D02*
G01*
X1408506Y-19517D01*
X1374216Y-40345D02*
G01*
X1363802Y-29931D01*
X1353388Y-14437D01*
X1342974Y6390D01*
X1337894Y32298D01*
X1337894Y53126D01*
X1342974Y79288D01*
X1353388Y99862D01*
X1363802Y115610D01*
X1374216Y126024D01*
X1408684Y1638300D02*
G01*
X1517650Y1638300D01*
X1408684Y1638300D02*
G01*
X1408684Y1685036D01*
X1413763Y1700529D01*
X1419097Y1705863D01*
X1429512Y1710944D01*
X1439926Y1710944D01*
X1450339Y1705863D01*
X1455420Y1700529D01*
X1460500Y1685036D01*
X1460500Y1638300D01*
X1460500Y1674621D02*
G01*
X1517650Y1710944D01*
X1408684Y1745234D02*
G01*
X1517650Y1745234D01*
X1408684Y1745234D02*
G01*
X1408684Y1791970D01*
X1413763Y1807718D01*
X1419097Y1812797D01*
X1429512Y1818131D01*
X1445005Y1818131D01*
X1455420Y1812797D01*
X1460500Y1807718D01*
X1465834Y1791970D01*
X1465834Y1745234D01*
X1429512Y1852421D02*
G01*
X1424178Y1862836D01*
X1408684Y1878329D01*
X1517650Y1878329D01*
G36*
X3707079Y2507691D02*
G01*
X3707079Y2472436D01*
X3737559Y2472436D01*
X3737559Y2507691D01*
G37*
G36*
X3707079Y2632964D02*
G01*
X3707079Y2597708D01*
X3737559Y2597708D01*
X3737559Y2632964D01*
G37*
X4171914Y1191374D02*
G01*
X4171914Y837095D01*
X3506673Y837095D01*
X3506673Y1191374D01*
X4171914Y1191374D01*
D12*
X4005795Y1703677D02*
G01*
X4005795Y1623674D01*
X3894820Y1734662D02*
G01*
X3974818Y1734662D01*
X3894820Y1592696D02*
G01*
X3974818Y1592696D01*
X3837231Y1735244D02*
G01*
X3757231Y1735244D01*
X3726248Y1704261D02*
G01*
X3726248Y1624263D01*
X3837231Y1593283D02*
G01*
X3757231Y1593283D01*
X4005790Y1881477D02*
G01*
X4005790Y1801474D01*
X3894815Y1912462D02*
G01*
X3974812Y1912462D01*
X3894815Y1770496D02*
G01*
X3974812Y1770496D01*
X3837226Y1913044D02*
G01*
X3757226Y1913044D01*
X3726243Y1882061D02*
G01*
X3726243Y1802063D01*
X3837226Y1771083D02*
G01*
X3757226Y1771083D01*
X4458398Y1255422D02*
G01*
X4458398Y1335425D01*
X4569373Y1224437D02*
G01*
X4489376Y1224437D01*
X4569373Y1366403D02*
G01*
X4489376Y1366403D01*
X4626963Y1223855D02*
G01*
X4706962Y1223855D01*
X4737945Y1254838D02*
G01*
X4737945Y1334836D01*
X4626963Y1365816D02*
G01*
X4706962Y1365816D01*
X4445698Y1865022D02*
G01*
X4445698Y1945025D01*
X4556673Y1834037D02*
G01*
X4476676Y1834037D01*
X4556673Y1976003D02*
G01*
X4476676Y1976003D01*
X4614263Y1833455D02*
G01*
X4694262Y1833455D01*
X4725245Y1864438D02*
G01*
X4725245Y1944436D01*
X4614263Y1975416D02*
G01*
X4694262Y1975416D01*
X3503322Y2383396D02*
G01*
X3583325Y2383396D01*
X3472337Y2272421D02*
G01*
X3472337Y2352418D01*
X3614303Y2272421D02*
G01*
X3614303Y2352418D01*
X3471755Y2214831D02*
G01*
X3471755Y2134831D01*
X3502738Y2103848D02*
G01*
X3582736Y2103848D01*
X3613716Y2214831D02*
G01*
X3613716Y2134831D01*
X4151022Y2383396D02*
G01*
X4231025Y2383396D01*
X4120037Y2272421D02*
G01*
X4120037Y2352418D01*
X4262003Y2272421D02*
G01*
X4262003Y2352418D01*
X4119455Y2214831D02*
G01*
X4119455Y2134831D01*
X4150438Y2103848D02*
G01*
X4230436Y2103848D01*
X4261416Y2214831D02*
G01*
X4261416Y2134831D01*
X3631501Y1881477D02*
G01*
X3631501Y1801474D01*
X3520526Y1912462D02*
G01*
X3600523Y1912462D01*
X3520526Y1770496D02*
G01*
X3600523Y1770496D01*
X3462936Y1913044D02*
G01*
X3382937Y1913044D01*
X3351954Y1882061D02*
G01*
X3351954Y1802063D01*
X3462936Y1771083D02*
G01*
X3382937Y1771083D01*
D13*
X3539434Y2625321D02*
G01*
X3539434Y2604698D01*
X3539434Y2480078D02*
G01*
X3539434Y2499700D01*
D11*
X3714678Y2480078D02*
G01*
X3539434Y2480078D01*
X3714678Y2625321D02*
G01*
X3539434Y2625321D01*
X3674234Y2480078D02*
G01*
X3674234Y2625321D01*
D10*
X3982211Y2274397D02*
G01*
X3996806Y2274397D01*
X3887213Y2274397D02*
G01*
X3891381Y2274397D01*
X3792220Y2274397D02*
G01*
X3796385Y2274397D01*
X3686804Y2274397D02*
G01*
X3701389Y2274397D01*
X3982211Y2094395D02*
G01*
X3996806Y2094395D01*
X3792220Y2094395D02*
G01*
X3891384Y2094395D01*
X3686804Y2094395D02*
G01*
X3701392Y2094395D01*
X3686804Y2094395D02*
G01*
X3686804Y2274397D01*
X3996806Y2094395D02*
G01*
X3996806Y2274397D01*
D12*
X4674293Y1763534D02*
G01*
X4674293Y1433334D01*
X4369493Y1763534D02*
G01*
X4369493Y1433334D01*
X53301Y2125243D02*
G01*
X11264Y2086533D01*
X11264Y2115896D01*
X44284Y2146376D01*
X44284Y2909138D01*
X6184Y2944698D01*
X6184Y2961131D01*
X11264Y2961131D01*
X53301Y2925241D01*
X603313Y2924251D02*
G01*
X603313Y2699918D01*
X603313Y2348585D02*
G01*
X603313Y2134252D01*
X603313Y2924251D02*
G01*
X406412Y2924251D01*
X150177Y2924251D02*
G01*
X53301Y2924251D01*
X603313Y2134252D02*
G01*
X406412Y2134252D01*
X150177Y2134252D02*
G01*
X53301Y2134252D01*
X87800Y2924225D02*
G01*
X87800Y2134227D01*
X3055200Y582322D02*
G01*
X3055200Y662325D01*
X3166176Y551337D02*
G01*
X3086178Y551337D01*
X3166176Y693303D02*
G01*
X3086178Y693303D01*
X3223765Y550755D02*
G01*
X3303765Y550755D01*
X3334748Y581738D02*
G01*
X3334748Y661736D01*
X3223765Y692716D02*
G01*
X3303765Y692716D01*
D11*
X3243021Y848339D02*
G01*
X3338908Y848339D01*
X3338908Y980460D01*
X3243021Y980460D01*
X3157778Y848339D02*
G01*
X3061891Y848339D01*
X3061891Y980460D01*
X3157778Y980460D01*
D14*
X1752600Y2781300D02*
G01*
X1562100Y2781300D01*
X1562100Y2527300D01*
X2832100Y2527300D01*
X2832100Y2781300D01*
D15*
X2832100Y2781300D02*
G01*
X1752600Y2781300D01*
X4292600Y381000D02*
G01*
X3975100Y381000D01*
D14*
X4292600Y381000D02*
G01*
X4292600Y127000D01*
X3784600Y127000D01*
X3784600Y381000D01*
X3975100Y381000D01*
D12*
X8379Y996061D02*
G01*
X-261620Y996061D01*
X-261620Y1496060D01*
X8379Y1496060D01*
X10160Y944879D02*
G01*
X125404Y944879D01*
X321635Y944879D02*
G01*
X821364Y944879D01*
X1017595Y944879D02*
G01*
X1140160Y944879D01*
X1140160Y944879D02*
G01*
X1140160Y1544881D01*
X1140160Y1544881D02*
G01*
X519755Y1544881D01*
X323524Y1544881D02*
G01*
X10160Y1544881D01*
X10160Y1544881D02*
G01*
X10160Y944879D01*
X2656179Y125999D02*
G01*
X2056180Y125999D01*
X2656179Y725972D02*
G01*
X2656179Y125973D01*
X2056180Y725998D02*
G01*
X2656179Y725998D01*
X2056180Y125999D02*
G01*
X2056180Y725998D01*
X2565400Y851103D02*
G01*
X1565402Y851103D01*
X1565402Y2451100D01*
X2565400Y2451100D01*
X2565400Y851103D01*
G75*
G01*
X3726244Y1704261D02*
G02*
X3757226Y1735244I30982J0D01*
G75*
G01*
X3757226Y1593278D02*
G02*
X3726244Y1624264I0J30983D01*
G75*
G01*
X3974813Y1734663D02*
G02*
X4005796Y1703677I0J-30983D01*
G75*
G01*
X4005796Y1623680D02*
G02*
X3974813Y1592697I-30983J0D01*
G75*
G01*
X3726238Y1882061D02*
G02*
X3757221Y1913044I30983J0D01*
G75*
G01*
X3757221Y1771078D02*
G02*
X3726238Y1802064I0J30983D01*
G75*
G01*
X3974808Y1912463D02*
G02*
X4005791Y1881477I0J-30983D01*
G75*
G01*
X4005791Y1801480D02*
G02*
X3974808Y1770497I-30983J0D01*
G75*
G01*
X4737951Y1254839D02*
G02*
X4706968Y1223856I-30983J0D01*
G75*
G01*
X4706968Y1365822D02*
G02*
X4737951Y1334836I0J-30983D01*
G75*
G01*
X4489381Y1224437D02*
G02*
X4458399Y1255423I0J30983D01*
G75*
G01*
X4458399Y1335420D02*
G02*
X4489381Y1366403I30982J0D01*
G75*
G01*
X4725251Y1864439D02*
G02*
X4694268Y1833456I-30983J0D01*
G75*
G01*
X4694268Y1975422D02*
G02*
X4725251Y1944436I0J-30983D01*
G75*
G01*
X4476681Y1834037D02*
G02*
X4445699Y1865023I0J30983D01*
G75*
G01*
X4445699Y1945020D02*
G02*
X4476681Y1976003I30982J0D01*
G75*
G01*
X3502739Y2103844D02*
G02*
X3471756Y2134827I0J30983D01*
G75*
G01*
X3613722Y2134827D02*
G02*
X3582736Y2103844I-30983J0D01*
G75*
G01*
X3472337Y2352413D02*
G02*
X3503323Y2383396I30983J0D01*
G75*
G01*
X3583320Y2383396D02*
G02*
X3614303Y2352413I0J-30983D01*
G75*
G01*
X4150439Y2103844D02*
G02*
X4119456Y2134827I0J30983D01*
G75*
G01*
X4261422Y2134827D02*
G02*
X4230436Y2103844I-30983J0D01*
G75*
G01*
X4120037Y2352413D02*
G02*
X4151023Y2383396I30983J0D01*
G75*
G01*
X4231020Y2383396D02*
G02*
X4262003Y2352413I0J-30983D01*
G75*
G01*
X3351949Y1882061D02*
G02*
X3382932Y1913044I30983J0D01*
G75*
G01*
X3382932Y1771078D02*
G02*
X3351949Y1802064I0J30983D01*
G75*
G01*
X3600519Y1912463D02*
G02*
X3631501Y1881477I0J-30983D01*
G75*
G01*
X3631501Y1801480D02*
G02*
X3600519Y1770497I-30982J0D01*
G75*
G01*
X3334753Y581739D02*
G02*
X3303770Y550756I-30983J0D01*
G75*
G01*
X3303770Y692722D02*
G02*
X3334753Y661736I0J-30983D01*
G75*
G01*
X3086184Y551337D02*
G02*
X3055201Y582323I0J30983D01*
G75*
G01*
X3055201Y662320D02*
G02*
X3086184Y693303I30983J0D01*
D16*
G75*
G01
X4146804Y1116127D02*
G03X4146804Y1116127I-15011J0D01*
G75*
G01
X4210228Y1301318D02*
G03X4210228Y1301318I-15011J0D01*
D10*
G75*
G01
X4019601Y2336749D02*
G03X4019601Y2336749I-12700J0D01*
D12*
G75*
G01
X2610180Y210083D02*
G03X2610180Y210083I-38100J0D01*
G75*
G01
X2178380Y210083D02*
G03X2178380Y210083I-38100J0D01*
G75*
G01
X2597480Y629183D02*
G03X2597480Y629183I-38100J0D01*
G75*
G01
X2191080Y629183D02*
G03X2191080Y629183I-38100J0D01*
G75*
G01
X2533980Y425983D02*
G03X2533980Y425983I-177800J0D01*
G75*
G01
X2483180Y425983D02*
G03X2483180Y425983I-127000J0D01*
G75*
G01
X2465426Y1051103D02*
G03X2465426Y1051103I-50013J0D01*
M02*
