M48
METRIC,LZ,000.000
;FILE_FORMAT=3:3
;TYPE=PLATED
;Layer: PTH_Through_Via
;EasyEDA v6.5.40, 2024-07-22 23:31:44
;cb6e2e9fbd21486d88ae5690d2d3dc00,10
;Gerber Generator version 0.2
;Holesize 1 = 0.501 mm
T01C0.501
%
G05
G90
T01
X278966Y-009135
X218436Y008192
X199343Y015318
X185032Y-009135
X093425Y-009029
X056249Y-009025
X449870Y-009019
X436933Y013837
X414195Y-008939
X058436Y018588
X030477Y-009036
X069965Y021847
X043470Y010486
X120124Y-009017
X135598Y010741
X145364Y-009014
X150560Y020142
X123692Y-004464
X186336Y013599
X238078Y001408
X263479Y024898
X244524Y020206
X244524Y-005038
X281965Y022375
X235507Y010741
X273047Y021299
X273047Y-002303
X237328Y046255
X229677Y015052
X261369Y015052
X252433Y-009773
X310170Y-009036
X309880Y019436
X321122Y012170
X317350Y-009135
X339245Y013599
X318285Y026437
X360970Y-009025
X350459Y015123
X397198Y-009357
X373670Y-009001
X351074Y022549
X360266Y022953
X119273Y015405
X068870Y-009005
X168628Y045621
X077382Y057535
X080524Y047389
X317170Y056167
X111470Y001388
X108044Y-018359
X207482Y042458
X067823Y055942
X080372Y013599
X017793Y010506
X395458Y013563
X330378Y057900
M30
