M48
METRIC,LZ,000.000
;FILE_FORMAT=3:3
;TYPE=PLATED
;Layer: PTH_Through
;EasyEDA v6.5.40, 2024-07-22 23:31:44
;cb6e2e9fbd21486d88ae5690d2d3dc00,10
;Gerber Generator version 0.2
;Holesize 1 = 0.501 mm
T01C0.501
;Holesize 2 = 0.701 mm
T02C0.701
;Holesize 3 = 0.800 mm
T03C0.800
;Holesize 4 = 0.889 mm
T04C0.889
;Holesize 5 = 1.000 mm
T05C1.000
%
G05
G90
T01
X278966Y-009135
X218436Y008192
X199343Y015318
X185032Y-009135
X093425Y-009029
X056249Y-009025
X449870Y-009019
X436933Y013837
X414195Y-008939
X058436Y018588
X030477Y-009036
X069965Y021847
X043470Y010486
X120124Y-009017
X135598Y010741
X145364Y-009014
X150560Y020142
X123692Y-004464
X186336Y013599
X238078Y001408
X263479Y024898
X244524Y020206
X244524Y-005038
X281965Y022375
X235507Y010741
X273047Y021299
X273047Y-002303
X237328Y046255
X229677Y015052
X261369Y015052
X252433Y-009773
X310170Y-009036
X309880Y019436
X321122Y012170
X317350Y-009135
X339245Y013599
X318285Y026437
X360970Y-009025
X350459Y015123
X397198Y-009357
X373670Y-009001
X351074Y022549
X360266Y022953
X119273Y015405
X068870Y-009005
X168628Y045621
X077382Y057535
X080524Y047389
X317170Y056167
X111470Y001388
X108044Y-018359
X207482Y042458
X067823Y055942
X080372Y013599
X017793Y010506
X395458Y013563
X330378Y057900
T02
X081280Y021420
X081280Y031920
X068580Y021420
X068580Y031920
X055880Y021420
X055880Y031920
X043180Y021420
X043180Y031920
X030353Y021420
X030353Y031920
X017780Y021420
X017780Y031920
X005080Y021420
X005080Y031920
X093853Y021420
X093853Y031920
X106680Y021420
X106680Y031920
X119380Y021420
X119380Y031920
X132080Y021420
X132080Y031920
X144780Y021420
X144780Y031920
X157480Y021420
X157480Y031920
X170180Y021420
X170180Y031920
X182880Y021420
X182880Y031920
X195580Y021420
X195580Y031920
X208280Y021420
X208280Y031920
X220980Y021420
X220980Y031920
X233680Y021420
X233680Y031920
X246380Y021420
X246380Y031920
X259080Y021420
X259080Y031920
X271780Y021420
X271780Y031920
X284480Y021420
X284480Y031920
X297180Y021420
X297180Y031920
X309880Y021420
X309880Y031920
X322580Y021420
X322580Y031920
X335280Y021420
X335280Y031920
X347980Y021420
X347980Y031920
X360680Y021420
X360680Y031920
X373380Y021420
X373380Y031920
X386080Y021420
X386080Y031920
X398780Y021420
X398780Y031920
X411480Y021420
X411480Y031920
X424180Y021420
X424180Y031920
X436880Y021420
X436880Y031920
X449580Y021420
X449580Y031920
T03
X059817Y043220
X059817Y048220
X139150Y043093
X139150Y048093
X218482Y042458
X218482Y047458
X297815Y041823
X297815Y046823
X377148Y041823
X377148Y046823
T04
X234950Y062230
X232410Y062230
X229870Y062230
X227330Y062230
X224790Y062230
X222250Y062230
T05
X085387Y041910
X082847Y041910
X080307Y041910
X077767Y041910
X075227Y041910
X072687Y041910
X070147Y041910
X067607Y041910
X067607Y049530
X070147Y049530
X072687Y049530
X075227Y049530
X077767Y049530
X080307Y049530
X082847Y049530
X085386Y049530
X164719Y041910
X162179Y041910
X159639Y041910
X157099Y041910
X154559Y041910
X152019Y041910
X149479Y041910
X146939Y041910
X146939Y049530
X149479Y049530
X152019Y049530
X154559Y049530
X157099Y049530
X159639Y049530
X162179Y049530
X164719Y049530
X244052Y041148
X241512Y041148
X238972Y041148
X236432Y041148
X233892Y041148
X231352Y041148
X228812Y041148
X226272Y041148
X226272Y048768
X228812Y048768
X231352Y048768
X233892Y048768
X236432Y048768
X238972Y048768
X241512Y048768
X244052Y048768
X323385Y040513
X320845Y040513
X318305Y040513
X315765Y040513
X313225Y040513
X310685Y040513
X308145Y040513
X305605Y040513
X305605Y048133
X308145Y048133
X310685Y048133
X313225Y048133
X315765Y048133
X318305Y048133
X320845Y048133
X323384Y048133
X402717Y040513
X400177Y040513
X397637Y040513
X395097Y040513
X392557Y040513
X390017Y040513
X387477Y040513
X384937Y040513
X384937Y048133
X387477Y048133
X390017Y048133
X392557Y048133
X395097Y048133
X397637Y048133
X400177Y048133
X402717Y048133
M30
