G04 Layer: TopLayer*
G04 EasyEDA v6.5.40, 2024-07-22 23:31:44*
G04 cb6e2e9fbd21486d88ae5690d2d3dc00,10*
G04 Gerber Generator version 0.2*
G04 Scale: 100 percent, Rotated: No, Reflected: No *
G04 Dimensions in millimeters *
G04 leading zeros omitted , absolute positions ,4 integer and 5 decimal *
%FSLAX45Y45*%
%MOMM*%

%ADD10C,0.2540*%
%ADD11R,0.4900X1.1570*%
%ADD12R,0.4900X1.1750*%
%ADD13R,1.5000X2.3000*%
%ADD14C,1.6000*%
%ADD15R,1.6000X1.6000*%
%ADD16C,1.5748*%
%ADD17R,1.5748X1.5748*%
%ADD18C,1.4000*%
%ADD19C,0.7000*%
%ADD20C,0.0170*%

%LPD*%
D10*
X14693900Y4191000D02*
G01*
X14575916Y4073017D01*
X7132599Y4073017D01*
X7014616Y4191000D01*
X33020000Y5386857D02*
G01*
X33014411Y5381244D01*
X23574756Y5381244D01*
X22733000Y6223000D01*
X33020000Y5472633D02*
G01*
X33020000Y5386857D01*
X38493700Y4051300D02*
G01*
X38370256Y3927932D01*
X30937708Y3927932D01*
X30814518Y4051300D01*
X22627158Y4114800D02*
G01*
X22583470Y4071112D01*
X15067788Y4071112D01*
X14947900Y4191000D01*
X22479000Y6223000D02*
G01*
X21830131Y5574131D01*
X6873722Y5574131D01*
X6858000Y5558409D01*
X6858000Y5472633D02*
G01*
X6858000Y5558409D01*
X30560518Y4051300D02*
G01*
X30511750Y4002481D01*
X22993477Y4002481D01*
X22881158Y4114800D01*
X10697006Y1359915D02*
G01*
X11254409Y1917319D01*
X16793311Y1917319D01*
X17018000Y2142007D01*
X10697006Y1216990D02*
G01*
X10697006Y1359915D01*
X33114995Y5703366D02*
G01*
X33114995Y5790031D01*
X33114995Y5790031D02*
G01*
X33037779Y5790031D01*
X16217900Y4953000D02*
G01*
X16109797Y5061102D01*
X8392718Y5061102D01*
X8284616Y4953000D01*
X24151158Y4991988D02*
G01*
X30187391Y4991988D01*
X30485079Y4694402D01*
X31965645Y4694402D01*
X32084518Y4813300D01*
X24151158Y4876800D02*
G01*
X24151158Y4991988D01*
X24151158Y4991988D02*
G01*
X24082044Y5061102D01*
X16326002Y5061102D01*
X16217900Y4953000D01*
X22881158Y4876800D02*
G01*
X22758476Y4999481D01*
X16784548Y4999481D01*
X16625087Y4840020D01*
X15060879Y4840020D01*
X14947900Y4953000D01*
X508000Y2142007D02*
G01*
X537006Y2113000D01*
X537006Y-1069009D01*
X41176956Y1216990D02*
G01*
X41176956Y1359915D01*
X41176956Y1359915D02*
G01*
X39549577Y1359915D01*
X39545768Y1356309D01*
X1807006Y1216990D02*
G01*
X1807006Y1074064D01*
X1779320Y1050569D02*
G01*
X1802815Y1074064D01*
X1807006Y1074064D01*
X8157006Y1216990D02*
G01*
X8157006Y1359915D01*
X8157006Y1359915D02*
G01*
X8037220Y1359915D01*
X8606993Y449935D02*
G01*
X8607170Y450113D01*
X11146815Y450113D01*
X11146993Y449935D01*
X8606993Y307009D02*
G01*
X8606993Y449935D01*
X11146993Y307009D02*
G01*
X11146993Y449935D01*
X7336993Y-1978990D02*
G01*
X7336993Y-1836064D01*
X6066993Y-1978990D02*
G01*
X6066993Y-1836064D01*
X3526993Y-1978990D02*
G01*
X3526993Y-1836064D01*
X6066993Y-1835886D02*
G01*
X6066993Y-1836064D01*
X4796993Y449935D02*
G01*
X4796815Y450113D01*
X2257170Y450113D01*
X2256993Y449935D01*
X2256993Y307009D02*
G01*
X2256993Y449935D01*
X986993Y-1978990D02*
G01*
X986993Y-1836064D01*
X3526993Y-1835886D02*
G01*
X3526993Y-1836064D01*
X6066993Y-1835886D02*
G01*
X3526993Y-1835886D01*
X3526993Y-1835886D02*
G01*
X987170Y-1835886D01*
X986993Y-1836064D01*
X4796993Y307009D02*
G01*
X4796993Y439851D01*
X4796993Y439851D02*
G01*
X4796993Y449935D01*
X4796993Y449935D02*
G01*
X4797170Y450113D01*
X8606815Y450113D01*
X8606993Y449935D01*
X9876993Y-1978990D02*
G01*
X9876993Y-1836064D01*
X7336993Y-1836064D02*
G01*
X7336993Y-1835886D01*
X6066993Y-1835886D02*
G01*
X7336993Y-1835886D01*
X7336993Y-1835886D02*
G01*
X9876815Y-1835886D01*
X9876993Y-1836064D01*
X45437043Y-1836064D02*
G01*
X45436790Y-1835886D01*
X42897298Y-1835886D01*
X42897043Y-1836064D01*
X45437043Y-1978990D02*
G01*
X45437043Y-1836064D01*
X44167043Y307009D02*
G01*
X44167043Y449935D01*
X41627043Y307009D02*
G01*
X41627043Y449935D01*
X42897043Y-1978990D02*
G01*
X42897043Y-1846148D01*
X42897043Y-1846148D02*
G01*
X42897043Y-1836064D01*
X42897043Y-1836064D02*
G01*
X42896790Y-1835886D01*
X40357298Y-1835886D01*
X40357043Y-1836064D01*
X39087043Y307009D02*
G01*
X39087043Y449935D01*
X41627043Y450113D02*
G01*
X41627043Y449935D01*
X44167043Y449935D02*
G01*
X44166790Y450113D01*
X41627043Y450113D01*
X40357043Y-1978990D02*
G01*
X40357043Y-1846148D01*
X40357043Y-1846148D02*
G01*
X40357043Y-1836064D01*
X40357043Y-1836064D02*
G01*
X40356790Y-1835886D01*
X37817298Y-1835886D01*
X37817043Y-1836064D01*
X35277043Y307009D02*
G01*
X35277043Y449935D01*
X39087043Y450113D02*
G01*
X39087043Y449935D01*
X41627043Y450113D02*
G01*
X39087043Y450113D01*
X37817043Y-1978990D02*
G01*
X37817043Y-1846148D01*
X37817043Y-1846148D02*
G01*
X37817043Y-1836064D01*
X37817043Y-1836064D02*
G01*
X37816790Y-1835886D01*
X36547298Y-1835886D01*
X36547043Y-1836064D01*
X36547043Y-1978990D02*
G01*
X36547043Y-1846148D01*
X36547043Y-1846148D02*
G01*
X36547043Y-1836064D01*
X36547043Y-1836064D02*
G01*
X36546790Y-1835886D01*
X34007298Y-1835886D01*
X34007043Y-1836064D01*
X32737043Y307009D02*
G01*
X32737043Y449935D01*
X35277043Y450113D02*
G01*
X35277043Y449935D01*
X39087043Y450113D02*
G01*
X35277043Y450113D01*
X34007043Y-1978990D02*
G01*
X34007043Y-1846148D01*
X34007043Y-1846148D02*
G01*
X34007043Y-1836064D01*
X34007043Y-1836064D02*
G01*
X34006790Y-1835886D01*
X31467298Y-1835886D01*
X31467043Y-1836064D01*
X35277043Y450113D02*
G01*
X32737298Y450113D01*
X32737043Y449935D01*
X31467043Y-1978990D02*
G01*
X31467043Y-1846148D01*
X31467043Y-1846148D02*
G01*
X31467043Y-1836064D01*
X31467043Y-1836064D02*
G01*
X31466790Y-1835886D01*
X30197298Y-1835886D01*
X30197043Y-1836064D01*
X30197043Y-1978990D02*
G01*
X30197043Y-1846148D01*
X30197043Y-1846148D02*
G01*
X30197043Y-1836064D01*
X26387043Y307009D02*
G01*
X26387043Y449935D01*
X27657043Y-1978990D02*
G01*
X27657043Y-1846148D01*
X27657043Y-1846148D02*
G01*
X27657043Y-1836064D01*
X27657043Y-1836064D02*
G01*
X27656790Y-1835886D01*
X25117170Y-1835886D01*
X25116993Y-1836064D01*
X26387043Y450113D02*
G01*
X26387043Y449935D01*
X28927043Y449935D02*
G01*
X28926790Y450113D01*
X26387043Y450113D01*
X26387043Y450113D02*
G01*
X23847170Y450113D01*
X23846993Y449935D01*
X25116993Y-1978990D02*
G01*
X25116993Y-1846148D01*
X25116993Y-1846148D02*
G01*
X25116993Y-1836064D01*
X25116993Y-1836064D02*
G01*
X25116815Y-1835886D01*
X22577170Y-1835886D01*
X22576993Y-1836064D01*
X23846993Y439851D02*
G01*
X23846993Y449935D01*
X23846993Y307009D02*
G01*
X23846993Y439851D01*
X23846993Y449935D02*
G01*
X23846840Y450087D01*
X20037145Y450087D01*
X20036993Y449935D01*
X22576993Y-1978990D02*
G01*
X22576993Y-1846148D01*
X22576993Y-1846148D02*
G01*
X22576993Y-1836064D01*
X22576993Y-1836064D02*
G01*
X22576815Y-1835886D01*
X21307170Y-1835886D01*
X21306993Y-1836064D01*
X21306993Y-1978990D02*
G01*
X21306993Y-1846148D01*
X21306993Y-1846148D02*
G01*
X21306993Y-1836064D01*
X21306993Y-1836064D02*
G01*
X21306815Y-1835886D01*
X18767170Y-1835886D01*
X18766993Y-1836064D01*
X20036993Y307009D02*
G01*
X20036993Y439851D01*
X20036993Y439851D02*
G01*
X20036993Y449935D01*
X20036993Y449935D02*
G01*
X20036815Y450113D01*
X17497170Y450113D01*
X17496993Y449935D01*
X18766993Y-1978990D02*
G01*
X18766993Y-1846148D01*
X18766993Y-1846148D02*
G01*
X18766993Y-1836064D01*
X18766993Y-1836064D02*
G01*
X18766815Y-1835886D01*
X16227170Y-1835886D01*
X16226993Y-1836064D01*
X17496993Y307009D02*
G01*
X17496993Y439851D01*
X17496993Y439851D02*
G01*
X17496993Y449935D01*
X17496993Y449935D02*
G01*
X17496815Y450113D01*
X13687170Y450113D01*
X13686993Y449935D01*
X16226993Y-1978990D02*
G01*
X16226993Y-1846148D01*
X16226993Y-1846148D02*
G01*
X16226993Y-1836064D01*
X16226993Y-1836064D02*
G01*
X16226815Y-1835886D01*
X14957170Y-1835886D01*
X14956993Y-1836064D01*
X14956993Y-1978990D02*
G01*
X14956993Y-1846148D01*
X14956993Y-1846148D02*
G01*
X14956993Y-1836064D01*
X14956993Y-1836064D02*
G01*
X14956815Y-1835886D01*
X12417170Y-1835886D01*
X12416993Y-1836064D01*
X13686993Y307009D02*
G01*
X13686993Y439851D01*
X13686993Y439851D02*
G01*
X13686993Y449935D01*
X13686993Y449935D02*
G01*
X13686815Y450113D01*
X11147170Y450113D01*
X11146993Y449935D01*
X12416993Y-1978990D02*
G01*
X12416993Y-1846148D01*
X12416993Y-1846148D02*
G01*
X12416993Y-1836064D01*
X30197043Y-1836064D02*
G01*
X30196790Y-1835886D01*
X27657298Y-1835886D01*
X27657043Y-1836064D01*
X6763004Y5703366D02*
G01*
X6763004Y5613476D01*
X6782308Y5594172D01*
X16471900Y4191000D02*
G01*
X16353586Y4309313D01*
X13914958Y4309313D01*
X37714682Y4182313D02*
G01*
X32469582Y4182313D01*
X32338518Y4051300D01*
X32338518Y4051300D02*
G01*
X32207454Y4182313D01*
X29781500Y4182313D01*
X29781500Y4182313D02*
G01*
X24472671Y4182313D01*
X24405158Y4114800D01*
X24405158Y4114800D02*
G01*
X24274145Y4245813D01*
X21848241Y4245813D01*
X16471900Y4191000D02*
G01*
X16526713Y4245813D01*
X20748243Y4245813D01*
X20748243Y4245813D02*
G01*
X21848241Y4245813D01*
X8538616Y4191000D02*
G01*
X8407603Y4322013D01*
X5981700Y4322013D01*
X28927043Y439851D02*
G01*
X28927043Y449935D01*
X28927043Y307009D02*
G01*
X28927043Y439851D01*
X28927043Y449935D02*
G01*
X28927298Y450113D01*
X32736790Y450113D01*
X32737043Y449935D01*
X12416993Y-1836064D02*
G01*
X12416815Y-1835886D01*
X10804448Y-1835886D01*
X10804448Y-1835886D02*
G01*
X9877170Y-1835886D01*
X9876993Y-1836064D01*
X11146993Y138785D02*
G01*
X11146993Y307009D01*
X32925004Y5703366D02*
G01*
X32925004Y5616702D01*
X32925004Y5616702D02*
G01*
X31716979Y5616702D01*
X44958000Y3191992D02*
G01*
X43688000Y3191992D01*
X43688000Y3191992D02*
G01*
X42418000Y3191992D01*
X42418000Y3191992D02*
G01*
X41148000Y3191992D01*
X41148000Y3191992D02*
G01*
X39878000Y3191992D01*
X39878000Y3191992D02*
G01*
X38608000Y3191992D01*
X37338000Y3191992D02*
G01*
X38608000Y3191992D01*
X36068000Y3191992D02*
G01*
X37338000Y3191992D01*
X33528000Y3191992D02*
G01*
X32258000Y3191992D01*
X30988000Y3191992D02*
G01*
X32258000Y3191992D01*
X29718000Y3191992D02*
G01*
X30988000Y3191992D01*
X28448000Y3191992D02*
G01*
X29718000Y3191992D01*
X27178000Y3191992D02*
G01*
X28448000Y3191992D01*
X25908000Y3191992D02*
G01*
X27178000Y3191992D01*
X24638000Y3191992D02*
G01*
X25908000Y3191992D01*
X23368000Y3191992D02*
G01*
X24638000Y3191992D01*
X22098000Y3191992D02*
G01*
X23368000Y3191992D01*
X20828000Y3191992D02*
G01*
X22098000Y3191992D01*
X19558000Y3191992D02*
G01*
X20828000Y3191992D01*
X18288000Y3191992D02*
G01*
X19558000Y3191992D01*
X17018000Y3191992D02*
G01*
X18288000Y3191992D01*
X15748000Y3191992D02*
G01*
X17018000Y3191992D01*
X14478000Y3191992D02*
G01*
X15748000Y3191992D01*
X13208000Y3191992D02*
G01*
X14478000Y3191992D01*
X11938000Y3191992D02*
G01*
X13208000Y3191992D01*
X10668000Y3191992D02*
G01*
X11938000Y3191992D01*
X508000Y3191992D02*
G01*
X1778000Y3191992D01*
X1778000Y3191992D02*
G01*
X3035300Y3191992D01*
X3035300Y3191992D02*
G01*
X4318000Y3191992D01*
X4318000Y3191992D02*
G01*
X5588000Y3191992D01*
X5588000Y3191992D02*
G01*
X6858000Y3191992D01*
X6858000Y3191992D02*
G01*
X8128000Y3191992D01*
X6952995Y5472633D02*
G01*
X6952995Y5386857D01*
X6763004Y5472633D02*
G01*
X6763004Y5386857D01*
X6952995Y5386857D02*
G01*
X6947839Y5381701D01*
X6768160Y5381701D01*
X6768160Y5381701D02*
G01*
X6763004Y5386857D01*
X33114995Y5558409D02*
G01*
X33112456Y5560847D01*
X32927543Y5560847D01*
X32925004Y5558409D01*
X32925004Y5472633D02*
G01*
X32925004Y5558409D01*
X33114995Y5515533D02*
G01*
X33114995Y5558409D01*
X33114995Y5515533D02*
G01*
X33114995Y5472633D01*
X33114995Y5386857D02*
G01*
X32754824Y5026787D01*
X30773877Y5026787D01*
X30560518Y4813300D01*
X33114995Y5472633D02*
G01*
X33114995Y5386857D01*
X39763700Y4813300D02*
G01*
X39509700Y4813300D01*
X39509700Y4813300D02*
G01*
X39255700Y4813300D01*
X39255700Y4813300D02*
G01*
X39001700Y4813300D01*
X36068000Y3191992D02*
G01*
X34798000Y3191992D01*
X34798000Y3191992D02*
G01*
X33528000Y3191992D01*
X10668000Y3191992D02*
G01*
X9385300Y3191992D01*
X9385300Y3191992D02*
G01*
X8128000Y3191992D01*
X6768160Y5381701D02*
G01*
X6768160Y4960543D01*
X6760616Y4953000D01*
X6760616Y4953000D02*
G01*
X6112687Y4953000D01*
X5981700Y4822012D01*
X40017700Y4051300D02*
G01*
X39894256Y3927830D01*
X38871143Y3927830D01*
X38747700Y4051300D01*
X8052384Y4738852D02*
G01*
X6974763Y4738852D01*
X6760616Y4953000D01*
X40271700Y4813300D02*
G01*
X40163750Y4813300D01*
X32338518Y4813300D02*
G01*
X32392365Y4813300D01*
X32392365Y4813300D02*
G01*
X32505650Y4926634D01*
X40077390Y4926634D01*
X40163750Y4840274D01*
X40163750Y4813300D01*
X24405183Y4876800D02*
G01*
X24513082Y4876800D01*
X6952995Y5703366D02*
G01*
X6952995Y5790031D01*
X6952995Y5790031D02*
G01*
X7701610Y5790031D01*
X7738160Y5753480D01*
X24513082Y4562119D02*
G01*
X24513082Y4876800D01*
X32392365Y4813300D02*
G01*
X32141159Y4562119D01*
X24513082Y4562119D01*
X24513082Y4562119D02*
G01*
X16862780Y4562119D01*
X16862780Y4562119D02*
G01*
X9037421Y4562119D01*
X8646540Y4953000D01*
X8538641Y4953000D02*
G01*
X8646540Y4953000D01*
X6887006Y-1069009D02*
G01*
X6887006Y-900506D01*
X17047006Y1216990D02*
G01*
X17047006Y1359915D01*
X17047006Y1359915D02*
G01*
X16866412Y1540510D01*
X11927306Y1540510D01*
X42418000Y2142007D02*
G01*
X42264838Y2295296D01*
X36026598Y2295296D01*
X37366956Y-900125D02*
G01*
X37366956Y-1069009D01*
X36026598Y2295296D02*
G01*
X35147758Y2295296D01*
X35107372Y2254885D01*
X39719758Y-935710D02*
G01*
X39729409Y-926084D01*
X39906956Y-926084D01*
X39906956Y-1069009D02*
G01*
X39906956Y-926084D01*
X38636956Y1216990D02*
G01*
X38636956Y1359915D01*
X41148000Y2142007D02*
G01*
X40425624Y1419656D01*
X38696646Y1419656D01*
X38636956Y1359915D01*
X38636956Y1359915D02*
G01*
X38484556Y1512265D01*
X35045904Y1512265D01*
X36096956Y-902538D02*
G01*
X36096956Y-1069009D01*
X25908000Y2142007D02*
G01*
X26409650Y2643682D01*
X31828486Y2643682D01*
X34826956Y1216990D02*
G01*
X34826956Y1359915D01*
X34826956Y1359915D02*
G01*
X33924493Y1359915D01*
X31735013Y-913460D02*
G01*
X33544509Y-913460D01*
X33556956Y-926084D01*
X33556956Y-1069009D02*
G01*
X33556956Y-926084D01*
X32286956Y1216990D02*
G01*
X32112204Y1216990D01*
X23368000Y2142007D02*
G01*
X23566399Y1943607D01*
X30988000Y1943607D01*
X31016956Y-903579D02*
G01*
X31016956Y-1069009D01*
X27206956Y-1069009D02*
G01*
X27206956Y-926084D01*
X27206956Y-926084D02*
G01*
X25294336Y-926084D01*
X25243281Y-977264D01*
X26136854Y1505229D02*
G01*
X25991566Y1359915D01*
X25936956Y1359915D01*
X25936956Y1216990D02*
G01*
X25936956Y1349832D01*
X25936956Y1349832D02*
G01*
X25936956Y1359915D01*
X25936956Y1359915D02*
G01*
X25791668Y1505229D01*
X22967746Y1505229D01*
X23135158Y4876800D02*
G01*
X23386415Y4625543D01*
X23732769Y4625543D01*
X23732769Y4625517D01*
X27304745Y2129891D02*
G01*
X28435808Y2129891D01*
X28448000Y2142007D01*
X24667006Y-1069009D02*
G01*
X24667006Y-926084D01*
X24667006Y-926084D02*
G01*
X25362916Y-230276D01*
X27304745Y-230276D01*
X23397006Y1216990D02*
G01*
X23397006Y1074064D01*
X23550727Y1074064D02*
G01*
X23397006Y1074064D01*
X29718000Y2142007D02*
G01*
X29601413Y2258568D01*
X28217622Y2258568D01*
X28196540Y2237511D01*
X22127006Y-926084D02*
G01*
X22549332Y-503758D01*
X24452351Y-503758D01*
X22127006Y-1069009D02*
G01*
X22127006Y-926084D01*
X30988000Y2142007D02*
G01*
X30866588Y2020646D01*
X24452351Y2020646D01*
X32258000Y2142007D02*
G01*
X31910274Y2489758D01*
X26347927Y2489758D01*
X20857006Y-1069009D02*
G01*
X20857006Y-926084D01*
X20857006Y-926084D02*
G01*
X21923857Y140766D01*
X23807775Y140766D01*
X19587006Y1216990D02*
G01*
X19587006Y1359915D01*
X19587006Y1359915D02*
G01*
X18633643Y1359915D01*
X19587006Y1359915D02*
G01*
X19952030Y1724939D01*
X33110932Y1724939D01*
X33528000Y2142007D01*
X15777006Y-926084D02*
G01*
X15297327Y-446404D01*
X12369190Y-446404D01*
X15777006Y-1069009D02*
G01*
X15777006Y-926084D01*
X14507006Y-1069009D02*
G01*
X14507006Y-926084D01*
X14536420Y-901395D02*
G01*
X14511731Y-926084D01*
X14507006Y-926084D01*
X13208000Y2142007D02*
G01*
X13335838Y2014169D01*
X15055951Y2014169D01*
X13237006Y1216990D02*
G01*
X13237006Y1074064D01*
X13237006Y1074064D02*
G01*
X13559840Y1074064D01*
X11967006Y-926084D02*
G01*
X11987961Y-926084D01*
X12012371Y-901674D01*
X11967006Y-1069009D02*
G01*
X11967006Y-926084D01*
X4346981Y1216990D02*
G01*
X4346981Y1048638D01*
X4346956Y1048638D01*
X4318000Y2142007D02*
G01*
X4420844Y2244852D01*
X6936384Y2244852D01*
X6996531Y2184704D01*
X3076981Y-1069009D02*
G01*
X3076981Y-926084D01*
X3076981Y-926084D02*
G01*
X3070225Y-926084D01*
X3047720Y-903579D01*
X3035300Y2142007D02*
G01*
X3318509Y1858797D01*
X5843600Y1858797D01*
X42446956Y-1069009D02*
G01*
X42446956Y-926084D01*
X42446956Y-926084D02*
G01*
X42414698Y-893851D01*
X41419525Y-893851D01*
X43716956Y1216990D02*
G01*
X43716956Y1359915D01*
X43693334Y1383715D02*
G01*
X43716956Y1359915D01*
X44986956Y-1069009D02*
G01*
X44986956Y-901928D01*
X5617006Y-1069009D02*
G01*
X5617006Y-910412D01*
X5624931Y-902487D01*
X9427006Y-926084D02*
G01*
X9365640Y-926084D01*
X9342450Y-902893D01*
X9427006Y-1069009D02*
G01*
X9427006Y-926084D01*
X18503188Y-913460D02*
G01*
X18329630Y-913460D01*
X18317006Y-926084D01*
X18317006Y-1069009D02*
G01*
X18317006Y-926084D01*
X34798000Y2142007D02*
G01*
X34340038Y1684146D01*
X20086599Y1684146D01*
X19934250Y1531797D01*
X28476956Y1216990D02*
G01*
X28476956Y1074064D01*
X28476956Y1074064D02*
G01*
X28222193Y819200D01*
X21843618Y819200D01*
X27896565Y-913460D02*
G01*
X29734509Y-913460D01*
X29746956Y-926084D01*
X29746956Y-1069009D02*
G01*
X29746956Y-926084D01*
D11*
G01*
X32925004Y5472633D03*
G01*
X33020000Y5472633D03*
G01*
X33114995Y5472633D03*
D12*
G01*
X33114995Y5703366D03*
G01*
X32925004Y5703366D03*
D11*
G01*
X6763004Y5472633D03*
G01*
X6858000Y5472633D03*
G01*
X6952995Y5472633D03*
D12*
G01*
X6952995Y5703366D03*
G01*
X6763004Y5703366D03*
D13*
G01*
X9877018Y-1069009D03*
G01*
X9876993Y-1978990D03*
G01*
X9427006Y-1069009D03*
G01*
X9427006Y-1978990D03*
G01*
X11147018Y1216990D03*
G01*
X11146993Y307009D03*
G01*
X10697006Y1216990D03*
G01*
X10697006Y307009D03*
G01*
X12417018Y-1069009D03*
G01*
X12416993Y-1978990D03*
G01*
X11967006Y-1069009D03*
G01*
X11967006Y-1978990D03*
G01*
X13687018Y1216990D03*
G01*
X13686993Y307009D03*
G01*
X13237006Y1216990D03*
G01*
X13237006Y307009D03*
G01*
X14957018Y-1069009D03*
G01*
X14956993Y-1978990D03*
G01*
X14507006Y-1069009D03*
G01*
X14507006Y-1978990D03*
G01*
X16227018Y-1069009D03*
G01*
X16226993Y-1978990D03*
G01*
X15777006Y-1069009D03*
G01*
X15777006Y-1978990D03*
G01*
X17497018Y1216990D03*
G01*
X17496993Y307009D03*
G01*
X17047006Y1216990D03*
G01*
X17047006Y307009D03*
G01*
X18767018Y-1069009D03*
G01*
X18766993Y-1978990D03*
G01*
X18317006Y-1069009D03*
G01*
X18317006Y-1978990D03*
G01*
X20037018Y1216990D03*
G01*
X20036993Y307009D03*
G01*
X19587006Y1216990D03*
G01*
X19587006Y307009D03*
G01*
X21307018Y-1069009D03*
G01*
X21306993Y-1978990D03*
G01*
X20857006Y-1069009D03*
G01*
X20857006Y-1978990D03*
G01*
X22577018Y-1069009D03*
G01*
X22576993Y-1978990D03*
G01*
X22127006Y-1069009D03*
G01*
X22127006Y-1978990D03*
G01*
X23847018Y1216990D03*
G01*
X23846993Y307009D03*
G01*
X23397006Y1216990D03*
G01*
X23397006Y307009D03*
G01*
X25117018Y-1069009D03*
G01*
X25116993Y-1978990D03*
G01*
X24667006Y-1069009D03*
G01*
X24667006Y-1978990D03*
G01*
X26387018Y1216990D03*
G01*
X26386993Y307009D03*
G01*
X25937006Y1216990D03*
G01*
X25937006Y307009D03*
G01*
X27657018Y-1069009D03*
G01*
X27656993Y-1978990D03*
G01*
X27207006Y-1069009D03*
G01*
X27207006Y-1978990D03*
G01*
X28927018Y1216990D03*
G01*
X28926993Y307009D03*
G01*
X28477006Y1216990D03*
G01*
X28477006Y307009D03*
G01*
X30197018Y-1069009D03*
G01*
X30196993Y-1978990D03*
G01*
X29747006Y-1069009D03*
G01*
X29747006Y-1978990D03*
G01*
X31467018Y-1069009D03*
G01*
X31466993Y-1978990D03*
G01*
X31017006Y-1069009D03*
G01*
X31017006Y-1978990D03*
G01*
X32737018Y1216990D03*
G01*
X32736993Y307009D03*
G01*
X32287006Y1216990D03*
G01*
X32287006Y307009D03*
G01*
X34007018Y-1069009D03*
G01*
X34006993Y-1978990D03*
G01*
X33557006Y-1069009D03*
G01*
X33557006Y-1978990D03*
G01*
X35277018Y1216990D03*
G01*
X35276993Y307009D03*
G01*
X34827006Y1216990D03*
G01*
X34827006Y307009D03*
G01*
X36547018Y-1069009D03*
G01*
X36546993Y-1978990D03*
G01*
X36097006Y-1069009D03*
G01*
X36097006Y-1978990D03*
G01*
X37817018Y-1069009D03*
G01*
X37816993Y-1978990D03*
G01*
X37367006Y-1069009D03*
G01*
X37367006Y-1978990D03*
G01*
X39087018Y1216990D03*
G01*
X39086993Y307009D03*
G01*
X38637006Y1216990D03*
G01*
X38637006Y307009D03*
G01*
X40357018Y-1069009D03*
G01*
X40356993Y-1978990D03*
G01*
X39907006Y-1069009D03*
G01*
X39907006Y-1978990D03*
G01*
X41627018Y1216990D03*
G01*
X41626993Y307009D03*
G01*
X41177006Y1216990D03*
G01*
X41177006Y307009D03*
G01*
X42897018Y-1069009D03*
G01*
X42896993Y-1978990D03*
G01*
X42447006Y-1069009D03*
G01*
X42447006Y-1978990D03*
G01*
X44167018Y1216990D03*
G01*
X44166993Y307009D03*
G01*
X43717006Y1216990D03*
G01*
X43717006Y307009D03*
G01*
X45437018Y-1069009D03*
G01*
X45436993Y-1978990D03*
G01*
X44987006Y-1069009D03*
G01*
X44987006Y-1978990D03*
G01*
X987018Y-1069009D03*
G01*
X986993Y-1978990D03*
G01*
X537006Y-1069009D03*
G01*
X537006Y-1978990D03*
G01*
X2257018Y1216990D03*
G01*
X2256993Y307009D03*
G01*
X1807006Y1216990D03*
G01*
X1807006Y307009D03*
G01*
X3527018Y-1069009D03*
G01*
X3526993Y-1978990D03*
G01*
X3076981Y-1069009D03*
G01*
X3076981Y-1978990D03*
G01*
X4797018Y1216990D03*
G01*
X4796993Y307009D03*
G01*
X4346981Y1216990D03*
G01*
X4346981Y307009D03*
G01*
X6067018Y-1069009D03*
G01*
X6066993Y-1978990D03*
G01*
X5617006Y-1069009D03*
G01*
X5617006Y-1978990D03*
G01*
X7337018Y-1069009D03*
G01*
X7336993Y-1978990D03*
G01*
X6887006Y-1069009D03*
G01*
X6887006Y-1978990D03*
G01*
X8607018Y1216990D03*
G01*
X8606993Y307009D03*
G01*
X8157006Y1216990D03*
G01*
X8157006Y307009D03*
D14*
G01*
X5981700Y4322013D03*
G01*
X5981700Y4822012D03*
G01*
X13914958Y4309313D03*
G01*
X13914958Y4809312D03*
G01*
X21848241Y4245813D03*
G01*
X21848241Y4745812D03*
G01*
X29781500Y4182313D03*
G01*
X29781500Y4682312D03*
G01*
X37714783Y4182313D03*
G01*
X37714783Y4682312D03*
G01*
X8538616Y4191000D03*
G01*
X8284616Y4191000D03*
G01*
X8030616Y4191000D03*
G01*
X7776616Y4191000D03*
G01*
X7522616Y4191000D03*
G01*
X7268616Y4191000D03*
G01*
X7014616Y4191000D03*
G01*
X6760616Y4191000D03*
G01*
X6760616Y4953000D03*
G01*
X7014616Y4953000D03*
G01*
X7268616Y4953000D03*
G01*
X7522616Y4953000D03*
G01*
X7776616Y4953000D03*
G01*
X8030616Y4953000D03*
G01*
X8284616Y4953000D03*
D15*
G01*
X8538641Y4953000D03*
D14*
G01*
X16471900Y4191000D03*
G01*
X16217900Y4191000D03*
G01*
X15963900Y4191000D03*
G01*
X15709900Y4191000D03*
G01*
X15455900Y4191000D03*
G01*
X15201900Y4191000D03*
G01*
X14947900Y4191000D03*
G01*
X14693900Y4191000D03*
G01*
X14693900Y4953000D03*
G01*
X14947900Y4953000D03*
G01*
X15201900Y4953000D03*
G01*
X15455900Y4953000D03*
G01*
X15709900Y4953000D03*
G01*
X15963900Y4953000D03*
G01*
X16217900Y4953000D03*
D15*
G01*
X16471900Y4953000D03*
D14*
G01*
X24405158Y4114800D03*
G01*
X24151158Y4114800D03*
G01*
X23897158Y4114800D03*
G01*
X23643158Y4114800D03*
G01*
X23389158Y4114800D03*
G01*
X23135158Y4114800D03*
G01*
X22881158Y4114800D03*
G01*
X22627158Y4114800D03*
G01*
X22627158Y4876800D03*
G01*
X22881158Y4876800D03*
G01*
X23135158Y4876800D03*
G01*
X23389158Y4876800D03*
G01*
X23643158Y4876800D03*
G01*
X23897158Y4876800D03*
G01*
X24151158Y4876800D03*
D15*
G01*
X24405183Y4876800D03*
D14*
G01*
X32338441Y4051300D03*
G01*
X32084441Y4051300D03*
G01*
X31830441Y4051300D03*
G01*
X31576441Y4051300D03*
G01*
X31322441Y4051300D03*
G01*
X31068441Y4051300D03*
G01*
X30814441Y4051300D03*
G01*
X30560441Y4051300D03*
G01*
X30560441Y4813300D03*
G01*
X30814441Y4813300D03*
G01*
X31068441Y4813300D03*
G01*
X31322441Y4813300D03*
G01*
X31576441Y4813300D03*
G01*
X31830441Y4813300D03*
G01*
X32084441Y4813300D03*
D15*
G01*
X32338441Y4813300D03*
D14*
G01*
X40271700Y4051300D03*
G01*
X40017700Y4051300D03*
G01*
X39763700Y4051300D03*
G01*
X39509700Y4051300D03*
G01*
X39255700Y4051300D03*
G01*
X39001700Y4051300D03*
G01*
X38747700Y4051300D03*
G01*
X38493700Y4051300D03*
G01*
X38493700Y4813300D03*
G01*
X38747700Y4813300D03*
G01*
X39001700Y4813300D03*
G01*
X39255700Y4813300D03*
G01*
X39509700Y4813300D03*
G01*
X39763700Y4813300D03*
G01*
X40017700Y4813300D03*
D15*
G01*
X40271700Y4813300D03*
D16*
G01*
X23495000Y6223000D03*
G01*
X23241000Y6223000D03*
G01*
X22987000Y6223000D03*
G01*
X22733000Y6223000D03*
G01*
X22479000Y6223000D03*
D17*
G01*
X22225000Y6223000D03*
D18*
G01*
X8128000Y2142007D03*
G01*
X8128000Y3191992D03*
G01*
X6858000Y2142007D03*
G01*
X6858000Y3191992D03*
G01*
X5588000Y2142007D03*
G01*
X5588000Y3191992D03*
G01*
X4318000Y2142007D03*
G01*
X4318000Y3191992D03*
G01*
X3035300Y2142007D03*
G01*
X3035300Y3191992D03*
G01*
X1778000Y2142007D03*
G01*
X1778000Y3191992D03*
G01*
X508000Y2142007D03*
G01*
X508000Y3191992D03*
G01*
X9385300Y2142007D03*
G01*
X9385300Y3191992D03*
G01*
X10668000Y2142007D03*
G01*
X10668000Y3191992D03*
G01*
X11938000Y2142007D03*
G01*
X11938000Y3191992D03*
G01*
X13208000Y2142007D03*
G01*
X13208000Y3191992D03*
G01*
X14478000Y2142007D03*
G01*
X14478000Y3191992D03*
G01*
X15748000Y2142007D03*
G01*
X15748000Y3191992D03*
G01*
X17018000Y2142007D03*
G01*
X17018000Y3191992D03*
G01*
X18288000Y2142007D03*
G01*
X18288000Y3191992D03*
G01*
X19558000Y2142007D03*
G01*
X19558000Y3191992D03*
G01*
X20828000Y2142007D03*
G01*
X20828000Y3191992D03*
G01*
X22098000Y2142007D03*
G01*
X22098000Y3191992D03*
G01*
X23368000Y2142007D03*
G01*
X23368000Y3191992D03*
G01*
X24638000Y2142007D03*
G01*
X24638000Y3191992D03*
G01*
X25908000Y2142007D03*
G01*
X25908000Y3191992D03*
G01*
X27178000Y2142007D03*
G01*
X27178000Y3191992D03*
G01*
X28448000Y2142007D03*
G01*
X28448000Y3191992D03*
G01*
X29718000Y2142007D03*
G01*
X29718000Y3191992D03*
G01*
X30988000Y2142007D03*
G01*
X30988000Y3191992D03*
G01*
X32258000Y2142007D03*
G01*
X32258000Y3191992D03*
G01*
X33528000Y2142007D03*
G01*
X33528000Y3191992D03*
G01*
X34798000Y2142007D03*
G01*
X34798000Y3191992D03*
G01*
X36068000Y2142007D03*
G01*
X36068000Y3191992D03*
G01*
X37338000Y2142007D03*
G01*
X37338000Y3191992D03*
G01*
X38608000Y2142007D03*
G01*
X38608000Y3191992D03*
G01*
X39878000Y2142007D03*
G01*
X39878000Y3191992D03*
G01*
X41148000Y2142007D03*
G01*
X41148000Y3191992D03*
G01*
X42418000Y2142007D03*
G01*
X42418000Y3191992D03*
G01*
X43688000Y2142007D03*
G01*
X43688000Y3191992D03*
G01*
X44958000Y2142007D03*
G01*
X44958000Y3191992D03*
D19*
G01*
X27896565Y-913460D03*
G01*
X21843618Y819200D03*
G01*
X19934250Y1531797D03*
G01*
X18503188Y-913460D03*
G01*
X9342450Y-902893D03*
G01*
X5624931Y-902487D03*
G01*
X44986956Y-901928D03*
G01*
X43693334Y1383715D03*
G01*
X41419525Y-893851D03*
G01*
X5843600Y1858797D03*
G01*
X3047720Y-903579D03*
G01*
X6996531Y2184704D03*
G01*
X4346956Y1048638D03*
G01*
X12012371Y-901674D03*
G01*
X13559840Y1074064D03*
G01*
X14536420Y-901395D03*
G01*
X15055951Y2014169D03*
G01*
X12369190Y-446404D03*
G01*
X18633643Y1359915D03*
G01*
X23807775Y140766D03*
G01*
X26347927Y2489758D03*
G01*
X24452351Y2020646D03*
G01*
X24452351Y-503758D03*
G01*
X28196540Y2237511D03*
G01*
X23550727Y1074064D03*
G01*
X27304745Y2129891D03*
G01*
X27304745Y-230276D03*
G01*
X23732769Y4625517D03*
G01*
X22967746Y1505229D03*
G01*
X26136854Y1505229D03*
G01*
X25243281Y-977264D03*
G01*
X31016956Y-903579D03*
G01*
X30988000Y1943607D03*
G01*
X32112204Y1216990D03*
G01*
X31735013Y-913460D03*
G01*
X33924493Y1359915D03*
G01*
X31828486Y2643682D03*
G01*
X36096956Y-902538D03*
G01*
X35045904Y1512265D03*
G01*
X39719758Y-935710D03*
G01*
X37366956Y-900125D03*
G01*
X35107372Y2254885D03*
G01*
X36026598Y2295296D03*
G01*
X11927306Y1540510D03*
G01*
X6887006Y-900506D03*
G01*
X16862780Y4562119D03*
G01*
X7738160Y5753480D03*
G01*
X8052384Y4738852D03*
G01*
X31716979Y5616702D03*
G01*
X11146993Y138785D03*
G01*
X10804448Y-1835886D03*
G01*
X20748243Y4245813D03*
G01*
X6782308Y5594172D03*
G01*
X8037220Y1359915D03*
G01*
X1779320Y1050569D03*
G01*
X39545768Y1356309D03*
G01*
X33037779Y5790031D03*
M02*
