G04 Layer: TopSilkscreenLayer*
G04 EasyEDA v6.5.40, 2024-07-22 23:31:44*
G04 cb6e2e9fbd21486d88ae5690d2d3dc00,10*
G04 Gerber Generator version 0.2*
G04 Scale: 100 percent, Rotated: No, Reflected: No *
G04 Dimensions in millimeters *
G04 leading zeros omitted , absolute positions ,4 integer and 5 decimal *
%FSLAX45Y45*%
%MOMM*%

%ADD10C,0.1524*%
%ADD11C,0.2540*%
%ADD12C,0.2032*%
%ADD13C,0.2030*%
%ADD14C,0.3000*%
%ADD15C,0.0124*%

%LPD*%
D10*
X5739937Y4624532D02*
G01*
X5729546Y4619335D01*
X5719155Y4608944D01*
X5713961Y4598555D01*
X5713961Y4577773D01*
X5719155Y4567382D01*
X5729546Y4556991D01*
X5739937Y4551794D01*
X5755525Y4546600D01*
X5781502Y4546600D01*
X5797087Y4551794D01*
X5807478Y4556991D01*
X5817870Y4567382D01*
X5823064Y4577773D01*
X5823064Y4598555D01*
X5817870Y4608944D01*
X5807478Y4619335D01*
X5797087Y4624532D01*
X5734743Y4658822D02*
G01*
X5729546Y4669213D01*
X5713961Y4684798D01*
X5823064Y4684798D01*
X13673206Y4611832D02*
G01*
X13662814Y4606635D01*
X13652423Y4596244D01*
X13647229Y4585855D01*
X13647229Y4565073D01*
X13652423Y4554682D01*
X13662814Y4544291D01*
X13673206Y4539094D01*
X13688794Y4533900D01*
X13714770Y4533900D01*
X13730356Y4539094D01*
X13740747Y4544291D01*
X13751138Y4554682D01*
X13756332Y4565073D01*
X13756332Y4585855D01*
X13751138Y4596244D01*
X13740747Y4606635D01*
X13730356Y4611832D01*
X13673206Y4651316D02*
G01*
X13668011Y4651316D01*
X13657620Y4656513D01*
X13652423Y4661707D01*
X13647229Y4672098D01*
X13647229Y4692881D01*
X13652423Y4703272D01*
X13657620Y4708466D01*
X13668011Y4713663D01*
X13678402Y4713663D01*
X13688794Y4708466D01*
X13704379Y4698075D01*
X13756332Y4646122D01*
X13756332Y4718857D01*
X21606474Y4548332D02*
G01*
X21596083Y4543135D01*
X21585692Y4532744D01*
X21580497Y4522355D01*
X21580497Y4501573D01*
X21585692Y4491182D01*
X21596083Y4480791D01*
X21606474Y4475594D01*
X21622062Y4470400D01*
X21648038Y4470400D01*
X21663624Y4475594D01*
X21674015Y4480791D01*
X21684406Y4491182D01*
X21689601Y4501573D01*
X21689601Y4522355D01*
X21684406Y4532744D01*
X21674015Y4543135D01*
X21663624Y4548332D01*
X21580497Y4593013D02*
G01*
X21580497Y4650163D01*
X21622062Y4618989D01*
X21622062Y4634575D01*
X21627256Y4644966D01*
X21632451Y4650163D01*
X21648038Y4655357D01*
X21658430Y4655357D01*
X21674015Y4650163D01*
X21684406Y4639772D01*
X21689601Y4624184D01*
X21689601Y4608598D01*
X21684406Y4593013D01*
X21679212Y4587816D01*
X21668821Y4582622D01*
X29539742Y4484832D02*
G01*
X29529351Y4479635D01*
X29518960Y4469244D01*
X29513766Y4458855D01*
X29513766Y4438073D01*
X29518960Y4427682D01*
X29529351Y4417291D01*
X29539742Y4412094D01*
X29555330Y4406900D01*
X29581307Y4406900D01*
X29596892Y4412094D01*
X29607283Y4417291D01*
X29617675Y4427682D01*
X29622869Y4438073D01*
X29622869Y4458855D01*
X29617675Y4469244D01*
X29607283Y4479635D01*
X29596892Y4484832D01*
X29513766Y4571075D02*
G01*
X29586501Y4519122D01*
X29586501Y4597054D01*
X29513766Y4571075D02*
G01*
X29622869Y4571075D01*
X37473011Y4484832D02*
G01*
X37462620Y4479635D01*
X37452228Y4469244D01*
X37447034Y4458855D01*
X37447034Y4438073D01*
X37452228Y4427682D01*
X37462620Y4417291D01*
X37473011Y4412094D01*
X37488599Y4406900D01*
X37514575Y4406900D01*
X37530161Y4412094D01*
X37540552Y4417291D01*
X37550943Y4427682D01*
X37556137Y4438073D01*
X37556137Y4458855D01*
X37550943Y4469244D01*
X37540552Y4479635D01*
X37530161Y4484832D01*
X37447034Y4581466D02*
G01*
X37447034Y4529513D01*
X37493793Y4524316D01*
X37488599Y4529513D01*
X37483402Y4545098D01*
X37483402Y4560684D01*
X37488599Y4576272D01*
X37498987Y4586663D01*
X37514575Y4591857D01*
X37524966Y4591857D01*
X37540552Y4586663D01*
X37550943Y4576272D01*
X37556137Y4560684D01*
X37556137Y4545098D01*
X37550943Y4529513D01*
X37545749Y4524316D01*
X37535358Y4519122D01*
X7661462Y3952062D02*
G01*
X7661462Y4061028D01*
X7661462Y3952062D02*
G01*
X7614726Y3952062D01*
X7599232Y3957142D01*
X7593898Y3962476D01*
X7588818Y3972890D01*
X7588818Y3983304D01*
X7593898Y3993718D01*
X7599232Y3998798D01*
X7614726Y4003878D01*
X7661462Y4003878D01*
X7625140Y4003878D02*
G01*
X7588818Y4061028D01*
X7476550Y3977970D02*
G01*
X7481630Y3967556D01*
X7492044Y3957142D01*
X7502458Y3952062D01*
X7523286Y3952062D01*
X7533700Y3957142D01*
X7544114Y3967556D01*
X7549194Y3977970D01*
X7554528Y3993718D01*
X7554528Y4019626D01*
X7549194Y4035120D01*
X7544114Y4045534D01*
X7533700Y4055948D01*
X7523286Y4061028D01*
X7502458Y4061028D01*
X7492044Y4055948D01*
X7481630Y4045534D01*
X7476550Y4035120D01*
X7476550Y4019626D01*
X7502458Y4019626D02*
G01*
X7476550Y4019626D01*
X7442260Y3972890D02*
G01*
X7431846Y3967556D01*
X7416352Y3952062D01*
X7416352Y4061028D01*
X15594731Y3952062D02*
G01*
X15594731Y4061028D01*
X15594731Y3952062D02*
G01*
X15547995Y3952062D01*
X15532501Y3957142D01*
X15527167Y3962476D01*
X15522087Y3972890D01*
X15522087Y3983304D01*
X15527167Y3993718D01*
X15532501Y3998798D01*
X15547995Y4003878D01*
X15594731Y4003878D01*
X15558409Y4003878D02*
G01*
X15522087Y4061028D01*
X15409819Y3977970D02*
G01*
X15414899Y3967556D01*
X15425313Y3957142D01*
X15435727Y3952062D01*
X15456555Y3952062D01*
X15466969Y3957142D01*
X15477383Y3967556D01*
X15482463Y3977970D01*
X15487797Y3993718D01*
X15487797Y4019626D01*
X15482463Y4035120D01*
X15477383Y4045534D01*
X15466969Y4055948D01*
X15456555Y4061028D01*
X15435727Y4061028D01*
X15425313Y4055948D01*
X15414899Y4045534D01*
X15409819Y4035120D01*
X15409819Y4019626D01*
X15435727Y4019626D02*
G01*
X15409819Y4019626D01*
X15370195Y3977970D02*
G01*
X15370195Y3972890D01*
X15365115Y3962476D01*
X15359781Y3957142D01*
X15349621Y3952062D01*
X15328793Y3952062D01*
X15318379Y3957142D01*
X15313045Y3962476D01*
X15307965Y3972890D01*
X15307965Y3983304D01*
X15313045Y3993718D01*
X15323459Y4009212D01*
X15375529Y4061028D01*
X15302631Y4061028D01*
X23527999Y3875862D02*
G01*
X23527999Y3984828D01*
X23527999Y3875862D02*
G01*
X23481263Y3875862D01*
X23465769Y3880942D01*
X23460435Y3886276D01*
X23455355Y3896690D01*
X23455355Y3907104D01*
X23460435Y3917518D01*
X23465769Y3922598D01*
X23481263Y3927678D01*
X23527999Y3927678D01*
X23491677Y3927678D02*
G01*
X23455355Y3984828D01*
X23343087Y3901770D02*
G01*
X23348167Y3891356D01*
X23358581Y3880942D01*
X23368995Y3875862D01*
X23389823Y3875862D01*
X23400237Y3880942D01*
X23410651Y3891356D01*
X23415731Y3901770D01*
X23421065Y3917518D01*
X23421065Y3943426D01*
X23415731Y3958920D01*
X23410651Y3969334D01*
X23400237Y3979748D01*
X23389823Y3984828D01*
X23368995Y3984828D01*
X23358581Y3979748D01*
X23348167Y3969334D01*
X23343087Y3958920D01*
X23343087Y3943426D01*
X23368995Y3943426D02*
G01*
X23343087Y3943426D01*
X23298383Y3875862D02*
G01*
X23241233Y3875862D01*
X23272475Y3917518D01*
X23256727Y3917518D01*
X23246313Y3922598D01*
X23241233Y3927678D01*
X23235899Y3943426D01*
X23235899Y3953840D01*
X23241233Y3969334D01*
X23251647Y3979748D01*
X23267141Y3984828D01*
X23282889Y3984828D01*
X23298383Y3979748D01*
X23303463Y3974668D01*
X23308797Y3964254D01*
X31461268Y3812362D02*
G01*
X31461268Y3921328D01*
X31461268Y3812362D02*
G01*
X31414532Y3812362D01*
X31399038Y3817442D01*
X31393704Y3822776D01*
X31388624Y3833190D01*
X31388624Y3843604D01*
X31393704Y3854018D01*
X31399038Y3859098D01*
X31414532Y3864178D01*
X31461268Y3864178D01*
X31424946Y3864178D02*
G01*
X31388624Y3921328D01*
X31276356Y3838270D02*
G01*
X31281436Y3827856D01*
X31291850Y3817442D01*
X31302264Y3812362D01*
X31323092Y3812362D01*
X31333506Y3817442D01*
X31343920Y3827856D01*
X31349000Y3838270D01*
X31354334Y3854018D01*
X31354334Y3879926D01*
X31349000Y3895420D01*
X31343920Y3905834D01*
X31333506Y3916248D01*
X31323092Y3921328D01*
X31302264Y3921328D01*
X31291850Y3916248D01*
X31281436Y3905834D01*
X31276356Y3895420D01*
X31276356Y3879926D01*
X31302264Y3879926D02*
G01*
X31276356Y3879926D01*
X31189996Y3812362D02*
G01*
X31242066Y3885006D01*
X31164088Y3885006D01*
X31189996Y3812362D02*
G01*
X31189996Y3921328D01*
X39394536Y3812362D02*
G01*
X39394536Y3921328D01*
X39394536Y3812362D02*
G01*
X39347800Y3812362D01*
X39332306Y3817442D01*
X39326972Y3822776D01*
X39321892Y3833190D01*
X39321892Y3843604D01*
X39326972Y3854018D01*
X39332306Y3859098D01*
X39347800Y3864178D01*
X39394536Y3864178D01*
X39358214Y3864178D02*
G01*
X39321892Y3921328D01*
X39209624Y3838270D02*
G01*
X39214704Y3827856D01*
X39225118Y3817442D01*
X39235532Y3812362D01*
X39256360Y3812362D01*
X39266774Y3817442D01*
X39277188Y3827856D01*
X39282268Y3838270D01*
X39287602Y3854018D01*
X39287602Y3879926D01*
X39282268Y3895420D01*
X39277188Y3905834D01*
X39266774Y3916248D01*
X39256360Y3921328D01*
X39235532Y3921328D01*
X39225118Y3916248D01*
X39214704Y3905834D01*
X39209624Y3895420D01*
X39209624Y3879926D01*
X39235532Y3879926D02*
G01*
X39209624Y3879926D01*
X39112850Y3812362D02*
G01*
X39164920Y3812362D01*
X39170000Y3859098D01*
X39164920Y3854018D01*
X39149426Y3848684D01*
X39133678Y3848684D01*
X39118184Y3854018D01*
X39107770Y3864178D01*
X39102436Y3879926D01*
X39102436Y3890340D01*
X39107770Y3905834D01*
X39118184Y3916248D01*
X39133678Y3921328D01*
X39149426Y3921328D01*
X39164920Y3916248D01*
X39170000Y3911168D01*
X39175334Y3900754D01*
X32994600Y5906515D02*
G01*
X32994600Y5797550D01*
X32994600Y5906515D02*
G01*
X33041336Y5906515D01*
X33056829Y5901436D01*
X33062163Y5896102D01*
X33067243Y5885687D01*
X33067243Y5875273D01*
X33062163Y5864860D01*
X33056829Y5859779D01*
X33041336Y5854700D01*
X32994600Y5854700D02*
G01*
X33041336Y5854700D01*
X33056829Y5849365D01*
X33062163Y5844286D01*
X33067243Y5833871D01*
X33067243Y5818123D01*
X33062163Y5807710D01*
X33056829Y5802629D01*
X33041336Y5797550D01*
X32994600Y5797550D01*
X33101534Y5885687D02*
G01*
X33111948Y5891021D01*
X33127695Y5906515D01*
X33127695Y5797550D01*
X33161986Y5760973D02*
G01*
X33255458Y5760973D01*
X33367725Y5880607D02*
G01*
X33362391Y5891021D01*
X33351977Y5901436D01*
X33341563Y5906515D01*
X33320990Y5906515D01*
X33310575Y5901436D01*
X33300161Y5891021D01*
X33294827Y5880607D01*
X33289748Y5864860D01*
X33289748Y5838952D01*
X33294827Y5823457D01*
X33300161Y5813044D01*
X33310575Y5802629D01*
X33320990Y5797550D01*
X33341563Y5797550D01*
X33351977Y5802629D01*
X33362391Y5813044D01*
X33367725Y5823457D01*
X33402015Y5906515D02*
G01*
X33402015Y5797550D01*
X33402015Y5797550D02*
G01*
X33464245Y5797550D01*
X33498536Y5906515D02*
G01*
X33498536Y5797550D01*
X33571179Y5906515D02*
G01*
X33498536Y5833871D01*
X33524443Y5859779D02*
G01*
X33571179Y5797550D01*
X6832600Y5906515D02*
G01*
X6832600Y5797550D01*
X6832600Y5906515D02*
G01*
X6879336Y5906515D01*
X6894829Y5901436D01*
X6900163Y5896102D01*
X6905243Y5885687D01*
X6905243Y5875273D01*
X6900163Y5864860D01*
X6894829Y5859779D01*
X6879336Y5854700D01*
X6832600Y5854700D02*
G01*
X6879336Y5854700D01*
X6894829Y5849365D01*
X6900163Y5844286D01*
X6905243Y5833871D01*
X6905243Y5818123D01*
X6900163Y5807710D01*
X6894829Y5802629D01*
X6879336Y5797550D01*
X6832600Y5797550D01*
X6944868Y5880607D02*
G01*
X6944868Y5885687D01*
X6949947Y5896102D01*
X6955281Y5901436D01*
X6965695Y5906515D01*
X6986270Y5906515D01*
X6996684Y5901436D01*
X7002018Y5896102D01*
X7007097Y5885687D01*
X7007097Y5875273D01*
X7002018Y5864860D01*
X6991604Y5849365D01*
X6939534Y5797550D01*
X7012431Y5797550D01*
X7046722Y5760973D02*
G01*
X7140193Y5760973D01*
X7247127Y5891021D02*
G01*
X7236713Y5901436D01*
X7221220Y5906515D01*
X7200391Y5906515D01*
X7184897Y5901436D01*
X7174484Y5891021D01*
X7174484Y5880607D01*
X7179563Y5870194D01*
X7184897Y5864860D01*
X7195311Y5859779D01*
X7226300Y5849365D01*
X7236713Y5844286D01*
X7242047Y5838952D01*
X7247127Y5828537D01*
X7247127Y5813044D01*
X7236713Y5802629D01*
X7221220Y5797550D01*
X7200391Y5797550D01*
X7184897Y5802629D01*
X7174484Y5813044D01*
X7281418Y5906515D02*
G01*
X7281418Y5797550D01*
X7354315Y5906515D02*
G01*
X7354315Y5797550D01*
X7281418Y5854700D02*
G01*
X7354315Y5854700D01*
X22834600Y6490715D02*
G01*
X22834600Y6381750D01*
X22907243Y6490715D02*
G01*
X22907243Y6381750D01*
X22834600Y6438900D02*
G01*
X22907243Y6438900D01*
X22941534Y6469887D02*
G01*
X22951948Y6475221D01*
X22967695Y6490715D01*
X22967695Y6381750D01*
X10082009Y-1596644D02*
G01*
X10092423Y-1586229D01*
X10097503Y-1570736D01*
X10097503Y-1549907D01*
X10092423Y-1534413D01*
X10082009Y-1524000D01*
X10071595Y-1524000D01*
X10061181Y-1529079D01*
X10055847Y-1534413D01*
X10050767Y-1544828D01*
X10040353Y-1576070D01*
X10035273Y-1586229D01*
X10029939Y-1591563D01*
X10019525Y-1596644D01*
X10004031Y-1596644D01*
X9993617Y-1586229D01*
X9988537Y-1570736D01*
X9988537Y-1549907D01*
X9993617Y-1534413D01*
X10004031Y-1524000D01*
X10097503Y-1630934D02*
G01*
X9988537Y-1657095D01*
X10097503Y-1683004D02*
G01*
X9988537Y-1657095D01*
X10097503Y-1683004D02*
G01*
X9988537Y-1708912D01*
X10097503Y-1734820D02*
G01*
X9988537Y-1708912D01*
X10097503Y-1795271D02*
G01*
X10092423Y-1779523D01*
X10082009Y-1774444D01*
X10071595Y-1774444D01*
X10061181Y-1779523D01*
X10055847Y-1789937D01*
X10050767Y-1810765D01*
X10045687Y-1826260D01*
X10035273Y-1836673D01*
X10024859Y-1842007D01*
X10009111Y-1842007D01*
X9998697Y-1836673D01*
X9993617Y-1831594D01*
X9988537Y-1816100D01*
X9988537Y-1795271D01*
X9993617Y-1779523D01*
X9998697Y-1774444D01*
X10009111Y-1769110D01*
X10024859Y-1769110D01*
X10035273Y-1774444D01*
X10045687Y-1784857D01*
X10050767Y-1800352D01*
X10055847Y-1821179D01*
X10061181Y-1831594D01*
X10071595Y-1836673D01*
X10082009Y-1836673D01*
X10092423Y-1831594D01*
X10097503Y-1816100D01*
X10097503Y-1795271D01*
X11352009Y689355D02*
G01*
X11362423Y699770D01*
X11367503Y715263D01*
X11367503Y736092D01*
X11362423Y751586D01*
X11352009Y762000D01*
X11341595Y762000D01*
X11331181Y756920D01*
X11325847Y751586D01*
X11320767Y741171D01*
X11310353Y709929D01*
X11305273Y699770D01*
X11299939Y694436D01*
X11289525Y689355D01*
X11274031Y689355D01*
X11263617Y699770D01*
X11258537Y715263D01*
X11258537Y736092D01*
X11263617Y751586D01*
X11274031Y762000D01*
X11367503Y655065D02*
G01*
X11258537Y628904D01*
X11367503Y602995D02*
G01*
X11258537Y628904D01*
X11367503Y602995D02*
G01*
X11258537Y577087D01*
X11367503Y551179D02*
G01*
X11258537Y577087D01*
X11331181Y449326D02*
G01*
X11315687Y454405D01*
X11305273Y464820D01*
X11299939Y480313D01*
X11299939Y485647D01*
X11305273Y501142D01*
X11315687Y511555D01*
X11331181Y516889D01*
X11336261Y516889D01*
X11352009Y511555D01*
X11362423Y501142D01*
X11367503Y485647D01*
X11367503Y480313D01*
X11362423Y464820D01*
X11352009Y454405D01*
X11331181Y449326D01*
X11305273Y449326D01*
X11279111Y454405D01*
X11263617Y464820D01*
X11258537Y480313D01*
X11258537Y490728D01*
X11263617Y506476D01*
X11274031Y511555D01*
X12622009Y-1596644D02*
G01*
X12632423Y-1586229D01*
X12637503Y-1570736D01*
X12637503Y-1549907D01*
X12632423Y-1534413D01*
X12622009Y-1524000D01*
X12611595Y-1524000D01*
X12601181Y-1529079D01*
X12595847Y-1534413D01*
X12590767Y-1544828D01*
X12580353Y-1576070D01*
X12575273Y-1586229D01*
X12569939Y-1591563D01*
X12559525Y-1596644D01*
X12544031Y-1596644D01*
X12533617Y-1586229D01*
X12528537Y-1570736D01*
X12528537Y-1549907D01*
X12533617Y-1534413D01*
X12544031Y-1524000D01*
X12637503Y-1630934D02*
G01*
X12528537Y-1657095D01*
X12637503Y-1683004D02*
G01*
X12528537Y-1657095D01*
X12637503Y-1683004D02*
G01*
X12528537Y-1708912D01*
X12637503Y-1734820D02*
G01*
X12528537Y-1708912D01*
X12616675Y-1769110D02*
G01*
X12622009Y-1779523D01*
X12637503Y-1795271D01*
X12528537Y-1795271D01*
X12637503Y-1860550D02*
G01*
X12632423Y-1845055D01*
X12616675Y-1834642D01*
X12590767Y-1829562D01*
X12575273Y-1829562D01*
X12549111Y-1834642D01*
X12533617Y-1845055D01*
X12528537Y-1860550D01*
X12528537Y-1870963D01*
X12533617Y-1886712D01*
X12549111Y-1897126D01*
X12575273Y-1902205D01*
X12590767Y-1902205D01*
X12616675Y-1897126D01*
X12632423Y-1886712D01*
X12637503Y-1870963D01*
X12637503Y-1860550D01*
X13892009Y689355D02*
G01*
X13902423Y699770D01*
X13907503Y715263D01*
X13907503Y736092D01*
X13902423Y751586D01*
X13892009Y762000D01*
X13881595Y762000D01*
X13871181Y756920D01*
X13865847Y751586D01*
X13860767Y741171D01*
X13850353Y709929D01*
X13845273Y699770D01*
X13839939Y694436D01*
X13829525Y689355D01*
X13814031Y689355D01*
X13803617Y699770D01*
X13798537Y715263D01*
X13798537Y736092D01*
X13803617Y751586D01*
X13814031Y762000D01*
X13907503Y655065D02*
G01*
X13798537Y628904D01*
X13907503Y602995D02*
G01*
X13798537Y628904D01*
X13907503Y602995D02*
G01*
X13798537Y577087D01*
X13907503Y551179D02*
G01*
X13798537Y577087D01*
X13886675Y516889D02*
G01*
X13892009Y506476D01*
X13907503Y490728D01*
X13798537Y490728D01*
X13886675Y456437D02*
G01*
X13892009Y446023D01*
X13907503Y430529D01*
X13798537Y430529D01*
X15162009Y-1596644D02*
G01*
X15172423Y-1586229D01*
X15177503Y-1570736D01*
X15177503Y-1549907D01*
X15172423Y-1534413D01*
X15162009Y-1524000D01*
X15151595Y-1524000D01*
X15141181Y-1529079D01*
X15135847Y-1534413D01*
X15130767Y-1544828D01*
X15120353Y-1576070D01*
X15115273Y-1586229D01*
X15109939Y-1591563D01*
X15099525Y-1596644D01*
X15084031Y-1596644D01*
X15073617Y-1586229D01*
X15068537Y-1570736D01*
X15068537Y-1549907D01*
X15073617Y-1534413D01*
X15084031Y-1524000D01*
X15177503Y-1630934D02*
G01*
X15068537Y-1657095D01*
X15177503Y-1683004D02*
G01*
X15068537Y-1657095D01*
X15177503Y-1683004D02*
G01*
X15068537Y-1708912D01*
X15177503Y-1734820D02*
G01*
X15068537Y-1708912D01*
X15156675Y-1769110D02*
G01*
X15162009Y-1779523D01*
X15177503Y-1795271D01*
X15068537Y-1795271D01*
X15151595Y-1834642D02*
G01*
X15156675Y-1834642D01*
X15167089Y-1839976D01*
X15172423Y-1845055D01*
X15177503Y-1855470D01*
X15177503Y-1876297D01*
X15172423Y-1886712D01*
X15167089Y-1891792D01*
X15156675Y-1897126D01*
X15146261Y-1897126D01*
X15135847Y-1891792D01*
X15120353Y-1881378D01*
X15068537Y-1829562D01*
X15068537Y-1902205D01*
X16432009Y-1596644D02*
G01*
X16442423Y-1586229D01*
X16447503Y-1570736D01*
X16447503Y-1549907D01*
X16442423Y-1534413D01*
X16432009Y-1524000D01*
X16421595Y-1524000D01*
X16411181Y-1529079D01*
X16405847Y-1534413D01*
X16400767Y-1544828D01*
X16390353Y-1576070D01*
X16385273Y-1586229D01*
X16379939Y-1591563D01*
X16369525Y-1596644D01*
X16354031Y-1596644D01*
X16343617Y-1586229D01*
X16338537Y-1570736D01*
X16338537Y-1549907D01*
X16343617Y-1534413D01*
X16354031Y-1524000D01*
X16447503Y-1630934D02*
G01*
X16338537Y-1657095D01*
X16447503Y-1683004D02*
G01*
X16338537Y-1657095D01*
X16447503Y-1683004D02*
G01*
X16338537Y-1708912D01*
X16447503Y-1734820D02*
G01*
X16338537Y-1708912D01*
X16426675Y-1769110D02*
G01*
X16432009Y-1779523D01*
X16447503Y-1795271D01*
X16338537Y-1795271D01*
X16447503Y-1839976D02*
G01*
X16447503Y-1897126D01*
X16405847Y-1865884D01*
X16405847Y-1881378D01*
X16400767Y-1891792D01*
X16395687Y-1897126D01*
X16379939Y-1902205D01*
X16369525Y-1902205D01*
X16354031Y-1897126D01*
X16343617Y-1886712D01*
X16338537Y-1870963D01*
X16338537Y-1855470D01*
X16343617Y-1839976D01*
X16348697Y-1834642D01*
X16359111Y-1829562D01*
X17702009Y689355D02*
G01*
X17712423Y699770D01*
X17717503Y715263D01*
X17717503Y736092D01*
X17712423Y751586D01*
X17702009Y762000D01*
X17691595Y762000D01*
X17681181Y756920D01*
X17675847Y751586D01*
X17670767Y741171D01*
X17660353Y709929D01*
X17655273Y699770D01*
X17649939Y694436D01*
X17639525Y689355D01*
X17624031Y689355D01*
X17613617Y699770D01*
X17608537Y715263D01*
X17608537Y736092D01*
X17613617Y751586D01*
X17624031Y762000D01*
X17717503Y655065D02*
G01*
X17608537Y628904D01*
X17717503Y602995D02*
G01*
X17608537Y628904D01*
X17717503Y602995D02*
G01*
X17608537Y577087D01*
X17717503Y551179D02*
G01*
X17608537Y577087D01*
X17696675Y516889D02*
G01*
X17702009Y506476D01*
X17717503Y490728D01*
X17608537Y490728D01*
X17717503Y404621D02*
G01*
X17644859Y456437D01*
X17644859Y378460D01*
X17717503Y404621D02*
G01*
X17608537Y404621D01*
X18972009Y-1596644D02*
G01*
X18982423Y-1586229D01*
X18987503Y-1570736D01*
X18987503Y-1549907D01*
X18982423Y-1534413D01*
X18972009Y-1524000D01*
X18961595Y-1524000D01*
X18951181Y-1529079D01*
X18945847Y-1534413D01*
X18940767Y-1544828D01*
X18930353Y-1576070D01*
X18925273Y-1586229D01*
X18919939Y-1591563D01*
X18909525Y-1596644D01*
X18894031Y-1596644D01*
X18883617Y-1586229D01*
X18878537Y-1570736D01*
X18878537Y-1549907D01*
X18883617Y-1534413D01*
X18894031Y-1524000D01*
X18987503Y-1630934D02*
G01*
X18878537Y-1657095D01*
X18987503Y-1683004D02*
G01*
X18878537Y-1657095D01*
X18987503Y-1683004D02*
G01*
X18878537Y-1708912D01*
X18987503Y-1734820D02*
G01*
X18878537Y-1708912D01*
X18966675Y-1769110D02*
G01*
X18972009Y-1779523D01*
X18987503Y-1795271D01*
X18878537Y-1795271D01*
X18987503Y-1891792D02*
G01*
X18987503Y-1839976D01*
X18940767Y-1834642D01*
X18945847Y-1839976D01*
X18951181Y-1855470D01*
X18951181Y-1870963D01*
X18945847Y-1886712D01*
X18935687Y-1897126D01*
X18919939Y-1902205D01*
X18909525Y-1902205D01*
X18894031Y-1897126D01*
X18883617Y-1886712D01*
X18878537Y-1870963D01*
X18878537Y-1855470D01*
X18883617Y-1839976D01*
X18888697Y-1834642D01*
X18899111Y-1829562D01*
X20242009Y689355D02*
G01*
X20252423Y699770D01*
X20257503Y715263D01*
X20257503Y736092D01*
X20252423Y751586D01*
X20242009Y762000D01*
X20231595Y762000D01*
X20221181Y756920D01*
X20215847Y751586D01*
X20210767Y741171D01*
X20200353Y709929D01*
X20195273Y699770D01*
X20189939Y694436D01*
X20179525Y689355D01*
X20164031Y689355D01*
X20153617Y699770D01*
X20148537Y715263D01*
X20148537Y736092D01*
X20153617Y751586D01*
X20164031Y762000D01*
X20257503Y655065D02*
G01*
X20148537Y628904D01*
X20257503Y602995D02*
G01*
X20148537Y628904D01*
X20257503Y602995D02*
G01*
X20148537Y577087D01*
X20257503Y551179D02*
G01*
X20148537Y577087D01*
X20236675Y516889D02*
G01*
X20242009Y506476D01*
X20257503Y490728D01*
X20148537Y490728D01*
X20242009Y394207D02*
G01*
X20252423Y399287D01*
X20257503Y415036D01*
X20257503Y425450D01*
X20252423Y440944D01*
X20236675Y451357D01*
X20210767Y456437D01*
X20184859Y456437D01*
X20164031Y451357D01*
X20153617Y440944D01*
X20148537Y425450D01*
X20148537Y420115D01*
X20153617Y404621D01*
X20164031Y394207D01*
X20179525Y388873D01*
X20184859Y388873D01*
X20200353Y394207D01*
X20210767Y404621D01*
X20215847Y420115D01*
X20215847Y425450D01*
X20210767Y440944D01*
X20200353Y451357D01*
X20184859Y456437D01*
X21512009Y-1596644D02*
G01*
X21522423Y-1586229D01*
X21527503Y-1570736D01*
X21527503Y-1549907D01*
X21522423Y-1534413D01*
X21512009Y-1524000D01*
X21501595Y-1524000D01*
X21491181Y-1529079D01*
X21485847Y-1534413D01*
X21480767Y-1544828D01*
X21470353Y-1576070D01*
X21465273Y-1586229D01*
X21459939Y-1591563D01*
X21449525Y-1596644D01*
X21434031Y-1596644D01*
X21423617Y-1586229D01*
X21418537Y-1570736D01*
X21418537Y-1549907D01*
X21423617Y-1534413D01*
X21434031Y-1524000D01*
X21527503Y-1630934D02*
G01*
X21418537Y-1657095D01*
X21527503Y-1683004D02*
G01*
X21418537Y-1657095D01*
X21527503Y-1683004D02*
G01*
X21418537Y-1708912D01*
X21527503Y-1734820D02*
G01*
X21418537Y-1708912D01*
X21506675Y-1769110D02*
G01*
X21512009Y-1779523D01*
X21527503Y-1795271D01*
X21418537Y-1795271D01*
X21527503Y-1902205D02*
G01*
X21418537Y-1850389D01*
X21527503Y-1829562D02*
G01*
X21527503Y-1902205D01*
X22782009Y-1596644D02*
G01*
X22792423Y-1586229D01*
X22797503Y-1570736D01*
X22797503Y-1549907D01*
X22792423Y-1534413D01*
X22782009Y-1524000D01*
X22771595Y-1524000D01*
X22761181Y-1529079D01*
X22755847Y-1534413D01*
X22750767Y-1544828D01*
X22740353Y-1576070D01*
X22735273Y-1586229D01*
X22729939Y-1591563D01*
X22719525Y-1596644D01*
X22704031Y-1596644D01*
X22693617Y-1586229D01*
X22688537Y-1570736D01*
X22688537Y-1549907D01*
X22693617Y-1534413D01*
X22704031Y-1524000D01*
X22797503Y-1630934D02*
G01*
X22688537Y-1657095D01*
X22797503Y-1683004D02*
G01*
X22688537Y-1657095D01*
X22797503Y-1683004D02*
G01*
X22688537Y-1708912D01*
X22797503Y-1734820D02*
G01*
X22688537Y-1708912D01*
X22776675Y-1769110D02*
G01*
X22782009Y-1779523D01*
X22797503Y-1795271D01*
X22688537Y-1795271D01*
X22797503Y-1855470D02*
G01*
X22792423Y-1839976D01*
X22782009Y-1834642D01*
X22771595Y-1834642D01*
X22761181Y-1839976D01*
X22755847Y-1850389D01*
X22750767Y-1870963D01*
X22745687Y-1886712D01*
X22735273Y-1897126D01*
X22724859Y-1902205D01*
X22709111Y-1902205D01*
X22698697Y-1897126D01*
X22693617Y-1891792D01*
X22688537Y-1876297D01*
X22688537Y-1855470D01*
X22693617Y-1839976D01*
X22698697Y-1834642D01*
X22709111Y-1829562D01*
X22724859Y-1829562D01*
X22735273Y-1834642D01*
X22745687Y-1845055D01*
X22750767Y-1860550D01*
X22755847Y-1881378D01*
X22761181Y-1891792D01*
X22771595Y-1897126D01*
X22782009Y-1897126D01*
X22792423Y-1891792D01*
X22797503Y-1876297D01*
X22797503Y-1855470D01*
X24052009Y689355D02*
G01*
X24062423Y699770D01*
X24067503Y715263D01*
X24067503Y736092D01*
X24062423Y751586D01*
X24052009Y762000D01*
X24041595Y762000D01*
X24031181Y756920D01*
X24025847Y751586D01*
X24020767Y741171D01*
X24010353Y709929D01*
X24005273Y699770D01*
X23999939Y694436D01*
X23989525Y689355D01*
X23974031Y689355D01*
X23963617Y699770D01*
X23958537Y715263D01*
X23958537Y736092D01*
X23963617Y751586D01*
X23974031Y762000D01*
X24067503Y655065D02*
G01*
X23958537Y628904D01*
X24067503Y602995D02*
G01*
X23958537Y628904D01*
X24067503Y602995D02*
G01*
X23958537Y577087D01*
X24067503Y551179D02*
G01*
X23958537Y577087D01*
X24046675Y516889D02*
G01*
X24052009Y506476D01*
X24067503Y490728D01*
X23958537Y490728D01*
X24031181Y388873D02*
G01*
X24015687Y394207D01*
X24005273Y404621D01*
X23999939Y420115D01*
X23999939Y425450D01*
X24005273Y440944D01*
X24015687Y451357D01*
X24031181Y456437D01*
X24036261Y456437D01*
X24052009Y451357D01*
X24062423Y440944D01*
X24067503Y425450D01*
X24067503Y420115D01*
X24062423Y404621D01*
X24052009Y394207D01*
X24031181Y388873D01*
X24005273Y388873D01*
X23979111Y394207D01*
X23963617Y404621D01*
X23958537Y420115D01*
X23958537Y430529D01*
X23963617Y446023D01*
X23974031Y451357D01*
X25322009Y-1596644D02*
G01*
X25332423Y-1586229D01*
X25337503Y-1570736D01*
X25337503Y-1549907D01*
X25332423Y-1534413D01*
X25322009Y-1524000D01*
X25311595Y-1524000D01*
X25301181Y-1529079D01*
X25295847Y-1534413D01*
X25290767Y-1544828D01*
X25280353Y-1576070D01*
X25275273Y-1586229D01*
X25269939Y-1591563D01*
X25259525Y-1596644D01*
X25244031Y-1596644D01*
X25233617Y-1586229D01*
X25228537Y-1570736D01*
X25228537Y-1549907D01*
X25233617Y-1534413D01*
X25244031Y-1524000D01*
X25337503Y-1630934D02*
G01*
X25228537Y-1657095D01*
X25337503Y-1683004D02*
G01*
X25228537Y-1657095D01*
X25337503Y-1683004D02*
G01*
X25228537Y-1708912D01*
X25337503Y-1734820D02*
G01*
X25228537Y-1708912D01*
X25311595Y-1774444D02*
G01*
X25316675Y-1774444D01*
X25327089Y-1779523D01*
X25332423Y-1784857D01*
X25337503Y-1795271D01*
X25337503Y-1816100D01*
X25332423Y-1826260D01*
X25327089Y-1831594D01*
X25316675Y-1836673D01*
X25306261Y-1836673D01*
X25295847Y-1831594D01*
X25280353Y-1821179D01*
X25228537Y-1769110D01*
X25228537Y-1842007D01*
X25337503Y-1907539D02*
G01*
X25332423Y-1891792D01*
X25316675Y-1881378D01*
X25290767Y-1876297D01*
X25275273Y-1876297D01*
X25249111Y-1881378D01*
X25233617Y-1891792D01*
X25228537Y-1907539D01*
X25228537Y-1917700D01*
X25233617Y-1933447D01*
X25249111Y-1943862D01*
X25275273Y-1948942D01*
X25290767Y-1948942D01*
X25316675Y-1943862D01*
X25332423Y-1933447D01*
X25337503Y-1917700D01*
X25337503Y-1907539D01*
X26592009Y689355D02*
G01*
X26602423Y699770D01*
X26607503Y715263D01*
X26607503Y736092D01*
X26602423Y751586D01*
X26592009Y762000D01*
X26581595Y762000D01*
X26571181Y756920D01*
X26565847Y751586D01*
X26560767Y741171D01*
X26550353Y709929D01*
X26545273Y699770D01*
X26539939Y694436D01*
X26529525Y689355D01*
X26514031Y689355D01*
X26503617Y699770D01*
X26498537Y715263D01*
X26498537Y736092D01*
X26503617Y751586D01*
X26514031Y762000D01*
X26607503Y655065D02*
G01*
X26498537Y628904D01*
X26607503Y602995D02*
G01*
X26498537Y628904D01*
X26607503Y602995D02*
G01*
X26498537Y577087D01*
X26607503Y551179D02*
G01*
X26498537Y577087D01*
X26581595Y511555D02*
G01*
X26586675Y511555D01*
X26597089Y506476D01*
X26602423Y501142D01*
X26607503Y490728D01*
X26607503Y469900D01*
X26602423Y459739D01*
X26597089Y454405D01*
X26586675Y449326D01*
X26576261Y449326D01*
X26565847Y454405D01*
X26550353Y464820D01*
X26498537Y516889D01*
X26498537Y443992D01*
X26586675Y409702D02*
G01*
X26592009Y399287D01*
X26607503Y383794D01*
X26498537Y383794D01*
X27862009Y-1596644D02*
G01*
X27872423Y-1586229D01*
X27877503Y-1570736D01*
X27877503Y-1549907D01*
X27872423Y-1534413D01*
X27862009Y-1524000D01*
X27851595Y-1524000D01*
X27841181Y-1529079D01*
X27835847Y-1534413D01*
X27830767Y-1544828D01*
X27820353Y-1576070D01*
X27815273Y-1586229D01*
X27809939Y-1591563D01*
X27799525Y-1596644D01*
X27784031Y-1596644D01*
X27773617Y-1586229D01*
X27768537Y-1570736D01*
X27768537Y-1549907D01*
X27773617Y-1534413D01*
X27784031Y-1524000D01*
X27877503Y-1630934D02*
G01*
X27768537Y-1657095D01*
X27877503Y-1683004D02*
G01*
X27768537Y-1657095D01*
X27877503Y-1683004D02*
G01*
X27768537Y-1708912D01*
X27877503Y-1734820D02*
G01*
X27768537Y-1708912D01*
X27851595Y-1774444D02*
G01*
X27856675Y-1774444D01*
X27867089Y-1779523D01*
X27872423Y-1784857D01*
X27877503Y-1795271D01*
X27877503Y-1816100D01*
X27872423Y-1826260D01*
X27867089Y-1831594D01*
X27856675Y-1836673D01*
X27846261Y-1836673D01*
X27835847Y-1831594D01*
X27820353Y-1821179D01*
X27768537Y-1769110D01*
X27768537Y-1842007D01*
X27851595Y-1881378D02*
G01*
X27856675Y-1881378D01*
X27867089Y-1886712D01*
X27872423Y-1891792D01*
X27877503Y-1902205D01*
X27877503Y-1923034D01*
X27872423Y-1933447D01*
X27867089Y-1938528D01*
X27856675Y-1943862D01*
X27846261Y-1943862D01*
X27835847Y-1938528D01*
X27820353Y-1928113D01*
X27768537Y-1876297D01*
X27768537Y-1948942D01*
X29132009Y689355D02*
G01*
X29142423Y699770D01*
X29147503Y715263D01*
X29147503Y736092D01*
X29142423Y751586D01*
X29132009Y762000D01*
X29121595Y762000D01*
X29111181Y756920D01*
X29105847Y751586D01*
X29100767Y741171D01*
X29090353Y709929D01*
X29085273Y699770D01*
X29079939Y694436D01*
X29069525Y689355D01*
X29054031Y689355D01*
X29043617Y699770D01*
X29038537Y715263D01*
X29038537Y736092D01*
X29043617Y751586D01*
X29054031Y762000D01*
X29147503Y655065D02*
G01*
X29038537Y628904D01*
X29147503Y602995D02*
G01*
X29038537Y628904D01*
X29147503Y602995D02*
G01*
X29038537Y577087D01*
X29147503Y551179D02*
G01*
X29038537Y577087D01*
X29121595Y511555D02*
G01*
X29126675Y511555D01*
X29137089Y506476D01*
X29142423Y501142D01*
X29147503Y490728D01*
X29147503Y469900D01*
X29142423Y459739D01*
X29137089Y454405D01*
X29126675Y449326D01*
X29116261Y449326D01*
X29105847Y454405D01*
X29090353Y464820D01*
X29038537Y516889D01*
X29038537Y443992D01*
X29147503Y399287D02*
G01*
X29147503Y342137D01*
X29105847Y373379D01*
X29105847Y357886D01*
X29100767Y347471D01*
X29095687Y342137D01*
X29079939Y337057D01*
X29069525Y337057D01*
X29054031Y342137D01*
X29043617Y352552D01*
X29038537Y368300D01*
X29038537Y383794D01*
X29043617Y399287D01*
X29048697Y404621D01*
X29059111Y409702D01*
X30402009Y-1596644D02*
G01*
X30412423Y-1586229D01*
X30417503Y-1570736D01*
X30417503Y-1549907D01*
X30412423Y-1534413D01*
X30402009Y-1524000D01*
X30391595Y-1524000D01*
X30381181Y-1529079D01*
X30375847Y-1534413D01*
X30370767Y-1544828D01*
X30360353Y-1576070D01*
X30355273Y-1586229D01*
X30349939Y-1591563D01*
X30339525Y-1596644D01*
X30324031Y-1596644D01*
X30313617Y-1586229D01*
X30308537Y-1570736D01*
X30308537Y-1549907D01*
X30313617Y-1534413D01*
X30324031Y-1524000D01*
X30417503Y-1630934D02*
G01*
X30308537Y-1657095D01*
X30417503Y-1683004D02*
G01*
X30308537Y-1657095D01*
X30417503Y-1683004D02*
G01*
X30308537Y-1708912D01*
X30417503Y-1734820D02*
G01*
X30308537Y-1708912D01*
X30391595Y-1774444D02*
G01*
X30396675Y-1774444D01*
X30407089Y-1779523D01*
X30412423Y-1784857D01*
X30417503Y-1795271D01*
X30417503Y-1816100D01*
X30412423Y-1826260D01*
X30407089Y-1831594D01*
X30396675Y-1836673D01*
X30386261Y-1836673D01*
X30375847Y-1831594D01*
X30360353Y-1821179D01*
X30308537Y-1769110D01*
X30308537Y-1842007D01*
X30417503Y-1928113D02*
G01*
X30344859Y-1876297D01*
X30344859Y-1954276D01*
X30417503Y-1928113D02*
G01*
X30308537Y-1928113D01*
X31672009Y-1596644D02*
G01*
X31682423Y-1586229D01*
X31687503Y-1570736D01*
X31687503Y-1549907D01*
X31682423Y-1534413D01*
X31672009Y-1524000D01*
X31661595Y-1524000D01*
X31651181Y-1529079D01*
X31645847Y-1534413D01*
X31640767Y-1544828D01*
X31630353Y-1576070D01*
X31625273Y-1586229D01*
X31619939Y-1591563D01*
X31609525Y-1596644D01*
X31594031Y-1596644D01*
X31583617Y-1586229D01*
X31578537Y-1570736D01*
X31578537Y-1549907D01*
X31583617Y-1534413D01*
X31594031Y-1524000D01*
X31687503Y-1630934D02*
G01*
X31578537Y-1657095D01*
X31687503Y-1683004D02*
G01*
X31578537Y-1657095D01*
X31687503Y-1683004D02*
G01*
X31578537Y-1708912D01*
X31687503Y-1734820D02*
G01*
X31578537Y-1708912D01*
X31661595Y-1774444D02*
G01*
X31666675Y-1774444D01*
X31677089Y-1779523D01*
X31682423Y-1784857D01*
X31687503Y-1795271D01*
X31687503Y-1816100D01*
X31682423Y-1826260D01*
X31677089Y-1831594D01*
X31666675Y-1836673D01*
X31656261Y-1836673D01*
X31645847Y-1831594D01*
X31630353Y-1821179D01*
X31578537Y-1769110D01*
X31578537Y-1842007D01*
X31687503Y-1938528D02*
G01*
X31687503Y-1886712D01*
X31640767Y-1881378D01*
X31645847Y-1886712D01*
X31651181Y-1902205D01*
X31651181Y-1917700D01*
X31645847Y-1933447D01*
X31635687Y-1943862D01*
X31619939Y-1948942D01*
X31609525Y-1948942D01*
X31594031Y-1943862D01*
X31583617Y-1933447D01*
X31578537Y-1917700D01*
X31578537Y-1902205D01*
X31583617Y-1886712D01*
X31588697Y-1881378D01*
X31599111Y-1876297D01*
X32942009Y689355D02*
G01*
X32952423Y699770D01*
X32957503Y715263D01*
X32957503Y736092D01*
X32952423Y751586D01*
X32942009Y762000D01*
X32931595Y762000D01*
X32921181Y756920D01*
X32915847Y751586D01*
X32910767Y741171D01*
X32900353Y709929D01*
X32895273Y699770D01*
X32889939Y694436D01*
X32879525Y689355D01*
X32864031Y689355D01*
X32853617Y699770D01*
X32848537Y715263D01*
X32848537Y736092D01*
X32853617Y751586D01*
X32864031Y762000D01*
X32957503Y655065D02*
G01*
X32848537Y628904D01*
X32957503Y602995D02*
G01*
X32848537Y628904D01*
X32957503Y602995D02*
G01*
X32848537Y577087D01*
X32957503Y551179D02*
G01*
X32848537Y577087D01*
X32931595Y511555D02*
G01*
X32936675Y511555D01*
X32947089Y506476D01*
X32952423Y501142D01*
X32957503Y490728D01*
X32957503Y469900D01*
X32952423Y459739D01*
X32947089Y454405D01*
X32936675Y449326D01*
X32926261Y449326D01*
X32915847Y454405D01*
X32900353Y464820D01*
X32848537Y516889D01*
X32848537Y443992D01*
X32942009Y347471D02*
G01*
X32952423Y352552D01*
X32957503Y368300D01*
X32957503Y378460D01*
X32952423Y394207D01*
X32936675Y404621D01*
X32910767Y409702D01*
X32884859Y409702D01*
X32864031Y404621D01*
X32853617Y394207D01*
X32848537Y378460D01*
X32848537Y373379D01*
X32853617Y357886D01*
X32864031Y347471D01*
X32879525Y342137D01*
X32884859Y342137D01*
X32900353Y347471D01*
X32910767Y357886D01*
X32915847Y373379D01*
X32915847Y378460D01*
X32910767Y394207D01*
X32900353Y404621D01*
X32884859Y409702D01*
X34212009Y-1596644D02*
G01*
X34222423Y-1586229D01*
X34227503Y-1570736D01*
X34227503Y-1549907D01*
X34222423Y-1534413D01*
X34212009Y-1524000D01*
X34201595Y-1524000D01*
X34191181Y-1529079D01*
X34185847Y-1534413D01*
X34180767Y-1544828D01*
X34170353Y-1576070D01*
X34165273Y-1586229D01*
X34159939Y-1591563D01*
X34149525Y-1596644D01*
X34134031Y-1596644D01*
X34123617Y-1586229D01*
X34118537Y-1570736D01*
X34118537Y-1549907D01*
X34123617Y-1534413D01*
X34134031Y-1524000D01*
X34227503Y-1630934D02*
G01*
X34118537Y-1657095D01*
X34227503Y-1683004D02*
G01*
X34118537Y-1657095D01*
X34227503Y-1683004D02*
G01*
X34118537Y-1708912D01*
X34227503Y-1734820D02*
G01*
X34118537Y-1708912D01*
X34201595Y-1774444D02*
G01*
X34206675Y-1774444D01*
X34217089Y-1779523D01*
X34222423Y-1784857D01*
X34227503Y-1795271D01*
X34227503Y-1816100D01*
X34222423Y-1826260D01*
X34217089Y-1831594D01*
X34206675Y-1836673D01*
X34196261Y-1836673D01*
X34185847Y-1831594D01*
X34170353Y-1821179D01*
X34118537Y-1769110D01*
X34118537Y-1842007D01*
X34227503Y-1948942D02*
G01*
X34118537Y-1897126D01*
X34227503Y-1876297D02*
G01*
X34227503Y-1948942D01*
X35482009Y689355D02*
G01*
X35492423Y699770D01*
X35497503Y715263D01*
X35497503Y736092D01*
X35492423Y751586D01*
X35482009Y762000D01*
X35471595Y762000D01*
X35461181Y756920D01*
X35455847Y751586D01*
X35450767Y741171D01*
X35440353Y709929D01*
X35435273Y699770D01*
X35429939Y694436D01*
X35419525Y689355D01*
X35404031Y689355D01*
X35393617Y699770D01*
X35388537Y715263D01*
X35388537Y736092D01*
X35393617Y751586D01*
X35404031Y762000D01*
X35497503Y655065D02*
G01*
X35388537Y628904D01*
X35497503Y602995D02*
G01*
X35388537Y628904D01*
X35497503Y602995D02*
G01*
X35388537Y577087D01*
X35497503Y551179D02*
G01*
X35388537Y577087D01*
X35471595Y511555D02*
G01*
X35476675Y511555D01*
X35487089Y506476D01*
X35492423Y501142D01*
X35497503Y490728D01*
X35497503Y469900D01*
X35492423Y459739D01*
X35487089Y454405D01*
X35476675Y449326D01*
X35466261Y449326D01*
X35455847Y454405D01*
X35440353Y464820D01*
X35388537Y516889D01*
X35388537Y443992D01*
X35497503Y383794D02*
G01*
X35492423Y399287D01*
X35482009Y404621D01*
X35471595Y404621D01*
X35461181Y399287D01*
X35455847Y388873D01*
X35450767Y368300D01*
X35445687Y352552D01*
X35435273Y342137D01*
X35424859Y337057D01*
X35409111Y337057D01*
X35398697Y342137D01*
X35393617Y347471D01*
X35388537Y362965D01*
X35388537Y383794D01*
X35393617Y399287D01*
X35398697Y404621D01*
X35409111Y409702D01*
X35424859Y409702D01*
X35435273Y404621D01*
X35445687Y394207D01*
X35450767Y378460D01*
X35455847Y357886D01*
X35461181Y347471D01*
X35471595Y342137D01*
X35482009Y342137D01*
X35492423Y347471D01*
X35497503Y362965D01*
X35497503Y383794D01*
X36752009Y-1596644D02*
G01*
X36762423Y-1586229D01*
X36767503Y-1570736D01*
X36767503Y-1549907D01*
X36762423Y-1534413D01*
X36752009Y-1524000D01*
X36741595Y-1524000D01*
X36731181Y-1529079D01*
X36725847Y-1534413D01*
X36720767Y-1544828D01*
X36710353Y-1576070D01*
X36705273Y-1586229D01*
X36699939Y-1591563D01*
X36689525Y-1596644D01*
X36674031Y-1596644D01*
X36663617Y-1586229D01*
X36658537Y-1570736D01*
X36658537Y-1549907D01*
X36663617Y-1534413D01*
X36674031Y-1524000D01*
X36767503Y-1630934D02*
G01*
X36658537Y-1657095D01*
X36767503Y-1683004D02*
G01*
X36658537Y-1657095D01*
X36767503Y-1683004D02*
G01*
X36658537Y-1708912D01*
X36767503Y-1734820D02*
G01*
X36658537Y-1708912D01*
X36741595Y-1774444D02*
G01*
X36746675Y-1774444D01*
X36757089Y-1779523D01*
X36762423Y-1784857D01*
X36767503Y-1795271D01*
X36767503Y-1816100D01*
X36762423Y-1826260D01*
X36757089Y-1831594D01*
X36746675Y-1836673D01*
X36736261Y-1836673D01*
X36725847Y-1831594D01*
X36710353Y-1821179D01*
X36658537Y-1769110D01*
X36658537Y-1842007D01*
X36731181Y-1943862D02*
G01*
X36715687Y-1938528D01*
X36705273Y-1928113D01*
X36699939Y-1912620D01*
X36699939Y-1907539D01*
X36705273Y-1891792D01*
X36715687Y-1881378D01*
X36731181Y-1876297D01*
X36736261Y-1876297D01*
X36752009Y-1881378D01*
X36762423Y-1891792D01*
X36767503Y-1907539D01*
X36767503Y-1912620D01*
X36762423Y-1928113D01*
X36752009Y-1938528D01*
X36731181Y-1943862D01*
X36705273Y-1943862D01*
X36679111Y-1938528D01*
X36663617Y-1928113D01*
X36658537Y-1912620D01*
X36658537Y-1902205D01*
X36663617Y-1886712D01*
X36674031Y-1881378D01*
X38022009Y-1596644D02*
G01*
X38032423Y-1586229D01*
X38037503Y-1570736D01*
X38037503Y-1549907D01*
X38032423Y-1534413D01*
X38022009Y-1524000D01*
X38011595Y-1524000D01*
X38001181Y-1529079D01*
X37995847Y-1534413D01*
X37990767Y-1544828D01*
X37980353Y-1576070D01*
X37975273Y-1586229D01*
X37969939Y-1591563D01*
X37959525Y-1596644D01*
X37944031Y-1596644D01*
X37933617Y-1586229D01*
X37928537Y-1570736D01*
X37928537Y-1549907D01*
X37933617Y-1534413D01*
X37944031Y-1524000D01*
X38037503Y-1630934D02*
G01*
X37928537Y-1657095D01*
X38037503Y-1683004D02*
G01*
X37928537Y-1657095D01*
X38037503Y-1683004D02*
G01*
X37928537Y-1708912D01*
X38037503Y-1734820D02*
G01*
X37928537Y-1708912D01*
X38037503Y-1779523D02*
G01*
X38037503Y-1836673D01*
X37995847Y-1805686D01*
X37995847Y-1821179D01*
X37990767Y-1831594D01*
X37985687Y-1836673D01*
X37969939Y-1842007D01*
X37959525Y-1842007D01*
X37944031Y-1836673D01*
X37933617Y-1826260D01*
X37928537Y-1810765D01*
X37928537Y-1795271D01*
X37933617Y-1779523D01*
X37938697Y-1774444D01*
X37949111Y-1769110D01*
X38037503Y-1907539D02*
G01*
X38032423Y-1891792D01*
X38016675Y-1881378D01*
X37990767Y-1876297D01*
X37975273Y-1876297D01*
X37949111Y-1881378D01*
X37933617Y-1891792D01*
X37928537Y-1907539D01*
X37928537Y-1917700D01*
X37933617Y-1933447D01*
X37949111Y-1943862D01*
X37975273Y-1948942D01*
X37990767Y-1948942D01*
X38016675Y-1943862D01*
X38032423Y-1933447D01*
X38037503Y-1917700D01*
X38037503Y-1907539D01*
X39292009Y689355D02*
G01*
X39302423Y699770D01*
X39307503Y715263D01*
X39307503Y736092D01*
X39302423Y751586D01*
X39292009Y762000D01*
X39281595Y762000D01*
X39271181Y756920D01*
X39265847Y751586D01*
X39260767Y741171D01*
X39250353Y709929D01*
X39245273Y699770D01*
X39239939Y694436D01*
X39229525Y689355D01*
X39214031Y689355D01*
X39203617Y699770D01*
X39198537Y715263D01*
X39198537Y736092D01*
X39203617Y751586D01*
X39214031Y762000D01*
X39307503Y655065D02*
G01*
X39198537Y628904D01*
X39307503Y602995D02*
G01*
X39198537Y628904D01*
X39307503Y602995D02*
G01*
X39198537Y577087D01*
X39307503Y551179D02*
G01*
X39198537Y577087D01*
X39307503Y506476D02*
G01*
X39307503Y449326D01*
X39265847Y480313D01*
X39265847Y464820D01*
X39260767Y454405D01*
X39255687Y449326D01*
X39239939Y443992D01*
X39229525Y443992D01*
X39214031Y449326D01*
X39203617Y459739D01*
X39198537Y475234D01*
X39198537Y490728D01*
X39203617Y506476D01*
X39208697Y511555D01*
X39219111Y516889D01*
X39286675Y409702D02*
G01*
X39292009Y399287D01*
X39307503Y383794D01*
X39198537Y383794D01*
X40562009Y-1596644D02*
G01*
X40572423Y-1586229D01*
X40577503Y-1570736D01*
X40577503Y-1549907D01*
X40572423Y-1534413D01*
X40562009Y-1524000D01*
X40551595Y-1524000D01*
X40541181Y-1529079D01*
X40535847Y-1534413D01*
X40530767Y-1544828D01*
X40520353Y-1576070D01*
X40515273Y-1586229D01*
X40509939Y-1591563D01*
X40499525Y-1596644D01*
X40484031Y-1596644D01*
X40473617Y-1586229D01*
X40468537Y-1570736D01*
X40468537Y-1549907D01*
X40473617Y-1534413D01*
X40484031Y-1524000D01*
X40577503Y-1630934D02*
G01*
X40468537Y-1657095D01*
X40577503Y-1683004D02*
G01*
X40468537Y-1657095D01*
X40577503Y-1683004D02*
G01*
X40468537Y-1708912D01*
X40577503Y-1734820D02*
G01*
X40468537Y-1708912D01*
X40577503Y-1779523D02*
G01*
X40577503Y-1836673D01*
X40535847Y-1805686D01*
X40535847Y-1821179D01*
X40530767Y-1831594D01*
X40525687Y-1836673D01*
X40509939Y-1842007D01*
X40499525Y-1842007D01*
X40484031Y-1836673D01*
X40473617Y-1826260D01*
X40468537Y-1810765D01*
X40468537Y-1795271D01*
X40473617Y-1779523D01*
X40478697Y-1774444D01*
X40489111Y-1769110D01*
X40551595Y-1881378D02*
G01*
X40556675Y-1881378D01*
X40567089Y-1886712D01*
X40572423Y-1891792D01*
X40577503Y-1902205D01*
X40577503Y-1923034D01*
X40572423Y-1933447D01*
X40567089Y-1938528D01*
X40556675Y-1943862D01*
X40546261Y-1943862D01*
X40535847Y-1938528D01*
X40520353Y-1928113D01*
X40468537Y-1876297D01*
X40468537Y-1948942D01*
X41832009Y689355D02*
G01*
X41842423Y699770D01*
X41847503Y715263D01*
X41847503Y736092D01*
X41842423Y751586D01*
X41832009Y762000D01*
X41821595Y762000D01*
X41811181Y756920D01*
X41805847Y751586D01*
X41800767Y741171D01*
X41790353Y709929D01*
X41785273Y699770D01*
X41779939Y694436D01*
X41769525Y689355D01*
X41754031Y689355D01*
X41743617Y699770D01*
X41738537Y715263D01*
X41738537Y736092D01*
X41743617Y751586D01*
X41754031Y762000D01*
X41847503Y655065D02*
G01*
X41738537Y628904D01*
X41847503Y602995D02*
G01*
X41738537Y628904D01*
X41847503Y602995D02*
G01*
X41738537Y577087D01*
X41847503Y551179D02*
G01*
X41738537Y577087D01*
X41847503Y506476D02*
G01*
X41847503Y449326D01*
X41805847Y480313D01*
X41805847Y464820D01*
X41800767Y454405D01*
X41795687Y449326D01*
X41779939Y443992D01*
X41769525Y443992D01*
X41754031Y449326D01*
X41743617Y459739D01*
X41738537Y475234D01*
X41738537Y490728D01*
X41743617Y506476D01*
X41748697Y511555D01*
X41759111Y516889D01*
X41847503Y399287D02*
G01*
X41847503Y342137D01*
X41805847Y373379D01*
X41805847Y357886D01*
X41800767Y347471D01*
X41795687Y342137D01*
X41779939Y337057D01*
X41769525Y337057D01*
X41754031Y342137D01*
X41743617Y352552D01*
X41738537Y368300D01*
X41738537Y383794D01*
X41743617Y399287D01*
X41748697Y404621D01*
X41759111Y409702D01*
X43102009Y-1596644D02*
G01*
X43112423Y-1586229D01*
X43117503Y-1570736D01*
X43117503Y-1549907D01*
X43112423Y-1534413D01*
X43102009Y-1524000D01*
X43091595Y-1524000D01*
X43081181Y-1529079D01*
X43075847Y-1534413D01*
X43070767Y-1544828D01*
X43060353Y-1576070D01*
X43055273Y-1586229D01*
X43049939Y-1591563D01*
X43039525Y-1596644D01*
X43024031Y-1596644D01*
X43013617Y-1586229D01*
X43008537Y-1570736D01*
X43008537Y-1549907D01*
X43013617Y-1534413D01*
X43024031Y-1524000D01*
X43117503Y-1630934D02*
G01*
X43008537Y-1657095D01*
X43117503Y-1683004D02*
G01*
X43008537Y-1657095D01*
X43117503Y-1683004D02*
G01*
X43008537Y-1708912D01*
X43117503Y-1734820D02*
G01*
X43008537Y-1708912D01*
X43117503Y-1779523D02*
G01*
X43117503Y-1836673D01*
X43075847Y-1805686D01*
X43075847Y-1821179D01*
X43070767Y-1831594D01*
X43065687Y-1836673D01*
X43049939Y-1842007D01*
X43039525Y-1842007D01*
X43024031Y-1836673D01*
X43013617Y-1826260D01*
X43008537Y-1810765D01*
X43008537Y-1795271D01*
X43013617Y-1779523D01*
X43018697Y-1774444D01*
X43029111Y-1769110D01*
X43117503Y-1928113D02*
G01*
X43044859Y-1876297D01*
X43044859Y-1954276D01*
X43117503Y-1928113D02*
G01*
X43008537Y-1928113D01*
X44372009Y689355D02*
G01*
X44382423Y699770D01*
X44387503Y715263D01*
X44387503Y736092D01*
X44382423Y751586D01*
X44372009Y762000D01*
X44361595Y762000D01*
X44351181Y756920D01*
X44345847Y751586D01*
X44340767Y741171D01*
X44330353Y709929D01*
X44325273Y699770D01*
X44319939Y694436D01*
X44309525Y689355D01*
X44294031Y689355D01*
X44283617Y699770D01*
X44278537Y715263D01*
X44278537Y736092D01*
X44283617Y751586D01*
X44294031Y762000D01*
X44387503Y655065D02*
G01*
X44278537Y628904D01*
X44387503Y602995D02*
G01*
X44278537Y628904D01*
X44387503Y602995D02*
G01*
X44278537Y577087D01*
X44387503Y551179D02*
G01*
X44278537Y577087D01*
X44387503Y506476D02*
G01*
X44387503Y449326D01*
X44345847Y480313D01*
X44345847Y464820D01*
X44340767Y454405D01*
X44335687Y449326D01*
X44319939Y443992D01*
X44309525Y443992D01*
X44294031Y449326D01*
X44283617Y459739D01*
X44278537Y475234D01*
X44278537Y490728D01*
X44283617Y506476D01*
X44288697Y511555D01*
X44299111Y516889D01*
X44387503Y347471D02*
G01*
X44387503Y399287D01*
X44340767Y404621D01*
X44345847Y399287D01*
X44351181Y383794D01*
X44351181Y368300D01*
X44345847Y352552D01*
X44335687Y342137D01*
X44319939Y337057D01*
X44309525Y337057D01*
X44294031Y342137D01*
X44283617Y352552D01*
X44278537Y368300D01*
X44278537Y383794D01*
X44283617Y399287D01*
X44288697Y404621D01*
X44299111Y409702D01*
X45642009Y-1596644D02*
G01*
X45652423Y-1586229D01*
X45657503Y-1570736D01*
X45657503Y-1549907D01*
X45652423Y-1534413D01*
X45642009Y-1524000D01*
X45631595Y-1524000D01*
X45621181Y-1529079D01*
X45615847Y-1534413D01*
X45610767Y-1544828D01*
X45600353Y-1576070D01*
X45595273Y-1586229D01*
X45589939Y-1591563D01*
X45579525Y-1596644D01*
X45564031Y-1596644D01*
X45553617Y-1586229D01*
X45548537Y-1570736D01*
X45548537Y-1549907D01*
X45553617Y-1534413D01*
X45564031Y-1524000D01*
X45657503Y-1630934D02*
G01*
X45548537Y-1657095D01*
X45657503Y-1683004D02*
G01*
X45548537Y-1657095D01*
X45657503Y-1683004D02*
G01*
X45548537Y-1708912D01*
X45657503Y-1734820D02*
G01*
X45548537Y-1708912D01*
X45657503Y-1779523D02*
G01*
X45657503Y-1836673D01*
X45615847Y-1805686D01*
X45615847Y-1821179D01*
X45610767Y-1831594D01*
X45605687Y-1836673D01*
X45589939Y-1842007D01*
X45579525Y-1842007D01*
X45564031Y-1836673D01*
X45553617Y-1826260D01*
X45548537Y-1810765D01*
X45548537Y-1795271D01*
X45553617Y-1779523D01*
X45558697Y-1774444D01*
X45569111Y-1769110D01*
X45642009Y-1938528D02*
G01*
X45652423Y-1933447D01*
X45657503Y-1917700D01*
X45657503Y-1907539D01*
X45652423Y-1891792D01*
X45636675Y-1881378D01*
X45610767Y-1876297D01*
X45584859Y-1876297D01*
X45564031Y-1881378D01*
X45553617Y-1891792D01*
X45548537Y-1907539D01*
X45548537Y-1912620D01*
X45553617Y-1928113D01*
X45564031Y-1938528D01*
X45579525Y-1943862D01*
X45584859Y-1943862D01*
X45600353Y-1938528D01*
X45610767Y-1928113D01*
X45615847Y-1912620D01*
X45615847Y-1907539D01*
X45610767Y-1891792D01*
X45600353Y-1881378D01*
X45584859Y-1876297D01*
X1192009Y-1596669D02*
G01*
X1202423Y-1586255D01*
X1207503Y-1570761D01*
X1207503Y-1549933D01*
X1202423Y-1534439D01*
X1192009Y-1524025D01*
X1181595Y-1524025D01*
X1171181Y-1529105D01*
X1165847Y-1534439D01*
X1160767Y-1544853D01*
X1150353Y-1575841D01*
X1145273Y-1586255D01*
X1139939Y-1591589D01*
X1129525Y-1596669D01*
X1114031Y-1596669D01*
X1103617Y-1586255D01*
X1098537Y-1570761D01*
X1098537Y-1549933D01*
X1103617Y-1534439D01*
X1114031Y-1524025D01*
X1207503Y-1630959D02*
G01*
X1098537Y-1657121D01*
X1207503Y-1683029D02*
G01*
X1098537Y-1657121D01*
X1207503Y-1683029D02*
G01*
X1098537Y-1708937D01*
X1207503Y-1734845D02*
G01*
X1098537Y-1708937D01*
X1186675Y-1769135D02*
G01*
X1192009Y-1779549D01*
X1207503Y-1795297D01*
X1098537Y-1795297D01*
X2462009Y689355D02*
G01*
X2472423Y699770D01*
X2477503Y715263D01*
X2477503Y736092D01*
X2472423Y751586D01*
X2462009Y762000D01*
X2451595Y762000D01*
X2441181Y756920D01*
X2435847Y751586D01*
X2430767Y741171D01*
X2420353Y709929D01*
X2415273Y699770D01*
X2409939Y694436D01*
X2399525Y689355D01*
X2384031Y689355D01*
X2373617Y699770D01*
X2368283Y715263D01*
X2368283Y736092D01*
X2373617Y751586D01*
X2384031Y762000D01*
X2477503Y655065D02*
G01*
X2368283Y628904D01*
X2477503Y602995D02*
G01*
X2368283Y628904D01*
X2477503Y602995D02*
G01*
X2368283Y577087D01*
X2477503Y551179D02*
G01*
X2368283Y577087D01*
X2451595Y511555D02*
G01*
X2456675Y511555D01*
X2467089Y506476D01*
X2472423Y501142D01*
X2477503Y490728D01*
X2477503Y469900D01*
X2472423Y459739D01*
X2467089Y454405D01*
X2456675Y449326D01*
X2446261Y449326D01*
X2435847Y454405D01*
X2420353Y464820D01*
X2368283Y516889D01*
X2368283Y443992D01*
X3732009Y-1596644D02*
G01*
X3742423Y-1586229D01*
X3747503Y-1570736D01*
X3747503Y-1549907D01*
X3742423Y-1534413D01*
X3732009Y-1524000D01*
X3721595Y-1524000D01*
X3711181Y-1529079D01*
X3705847Y-1534413D01*
X3700767Y-1544828D01*
X3690353Y-1576070D01*
X3685273Y-1586229D01*
X3679939Y-1591563D01*
X3669525Y-1596644D01*
X3654031Y-1596644D01*
X3643617Y-1586229D01*
X3638283Y-1570736D01*
X3638283Y-1549907D01*
X3643617Y-1534413D01*
X3654031Y-1524000D01*
X3747503Y-1630934D02*
G01*
X3638283Y-1657095D01*
X3747503Y-1683004D02*
G01*
X3638283Y-1657095D01*
X3747503Y-1683004D02*
G01*
X3638283Y-1708912D01*
X3747503Y-1734820D02*
G01*
X3638283Y-1708912D01*
X3747503Y-1779523D02*
G01*
X3747503Y-1836673D01*
X3705847Y-1805686D01*
X3705847Y-1821179D01*
X3700767Y-1831594D01*
X3695433Y-1836673D01*
X3679939Y-1842007D01*
X3669525Y-1842007D01*
X3654031Y-1836673D01*
X3643617Y-1826260D01*
X3638283Y-1810765D01*
X3638283Y-1795271D01*
X3643617Y-1779523D01*
X3648697Y-1774444D01*
X3659111Y-1769110D01*
X5002009Y689355D02*
G01*
X5012423Y699770D01*
X5017503Y715263D01*
X5017503Y736092D01*
X5012423Y751586D01*
X5002009Y762000D01*
X4991595Y762000D01*
X4981181Y756920D01*
X4975847Y751586D01*
X4970767Y741171D01*
X4960353Y709929D01*
X4955273Y699770D01*
X4949939Y694436D01*
X4939525Y689355D01*
X4924031Y689355D01*
X4913617Y699770D01*
X4908283Y715263D01*
X4908283Y736092D01*
X4913617Y751586D01*
X4924031Y762000D01*
X5017503Y655065D02*
G01*
X4908283Y628904D01*
X5017503Y602995D02*
G01*
X4908283Y628904D01*
X5017503Y602995D02*
G01*
X4908283Y577087D01*
X5017503Y551179D02*
G01*
X4908283Y577087D01*
X5017503Y464820D02*
G01*
X4944859Y516889D01*
X4944859Y438912D01*
X5017503Y464820D02*
G01*
X4908283Y464820D01*
X6272009Y-1596644D02*
G01*
X6282423Y-1586229D01*
X6287503Y-1570736D01*
X6287503Y-1549907D01*
X6282423Y-1534413D01*
X6272009Y-1524000D01*
X6261595Y-1524000D01*
X6251181Y-1529079D01*
X6245847Y-1534413D01*
X6240767Y-1544828D01*
X6230353Y-1576070D01*
X6225273Y-1586229D01*
X6219939Y-1591563D01*
X6209525Y-1596644D01*
X6194031Y-1596644D01*
X6183617Y-1586229D01*
X6178283Y-1570736D01*
X6178283Y-1549907D01*
X6183617Y-1534413D01*
X6194031Y-1524000D01*
X6287503Y-1630934D02*
G01*
X6178283Y-1657095D01*
X6287503Y-1683004D02*
G01*
X6178283Y-1657095D01*
X6287503Y-1683004D02*
G01*
X6178283Y-1708912D01*
X6287503Y-1734820D02*
G01*
X6178283Y-1708912D01*
X6287503Y-1831594D02*
G01*
X6287503Y-1779523D01*
X6240767Y-1774444D01*
X6245847Y-1779523D01*
X6251181Y-1795271D01*
X6251181Y-1810765D01*
X6245847Y-1826260D01*
X6235433Y-1836673D01*
X6219939Y-1842007D01*
X6209525Y-1842007D01*
X6194031Y-1836673D01*
X6183617Y-1826260D01*
X6178283Y-1810765D01*
X6178283Y-1795271D01*
X6183617Y-1779523D01*
X6188697Y-1774444D01*
X6199111Y-1769110D01*
X7542009Y-1596644D02*
G01*
X7552423Y-1586229D01*
X7557503Y-1570736D01*
X7557503Y-1549907D01*
X7552423Y-1534413D01*
X7542009Y-1524000D01*
X7531595Y-1524000D01*
X7521181Y-1529079D01*
X7515847Y-1534413D01*
X7510767Y-1544828D01*
X7500353Y-1576070D01*
X7495273Y-1586229D01*
X7489939Y-1591563D01*
X7479525Y-1596644D01*
X7464031Y-1596644D01*
X7453617Y-1586229D01*
X7448283Y-1570736D01*
X7448283Y-1549907D01*
X7453617Y-1534413D01*
X7464031Y-1524000D01*
X7557503Y-1630934D02*
G01*
X7448283Y-1657095D01*
X7557503Y-1683004D02*
G01*
X7448283Y-1657095D01*
X7557503Y-1683004D02*
G01*
X7448283Y-1708912D01*
X7557503Y-1734820D02*
G01*
X7448283Y-1708912D01*
X7542009Y-1831594D02*
G01*
X7552423Y-1826260D01*
X7557503Y-1810765D01*
X7557503Y-1800352D01*
X7552423Y-1784857D01*
X7536675Y-1774444D01*
X7510767Y-1769110D01*
X7484859Y-1769110D01*
X7464031Y-1774444D01*
X7453617Y-1784857D01*
X7448283Y-1800352D01*
X7448283Y-1805686D01*
X7453617Y-1821179D01*
X7464031Y-1831594D01*
X7479525Y-1836673D01*
X7484859Y-1836673D01*
X7500353Y-1831594D01*
X7510767Y-1821179D01*
X7515847Y-1805686D01*
X7515847Y-1800352D01*
X7510767Y-1784857D01*
X7500353Y-1774444D01*
X7484859Y-1769110D01*
X8812009Y689355D02*
G01*
X8822423Y699770D01*
X8827503Y715263D01*
X8827503Y736092D01*
X8822423Y751586D01*
X8812009Y762000D01*
X8801595Y762000D01*
X8791181Y756920D01*
X8785847Y751586D01*
X8780767Y741171D01*
X8770353Y709929D01*
X8765273Y699770D01*
X8759939Y694436D01*
X8749525Y689355D01*
X8734031Y689355D01*
X8723617Y699770D01*
X8718283Y715263D01*
X8718283Y736092D01*
X8723617Y751586D01*
X8734031Y762000D01*
X8827503Y655065D02*
G01*
X8718283Y628904D01*
X8827503Y602995D02*
G01*
X8718283Y628904D01*
X8827503Y602995D02*
G01*
X8718283Y577087D01*
X8827503Y551179D02*
G01*
X8718283Y577087D01*
X8827503Y443992D02*
G01*
X8718283Y496062D01*
X8827503Y516889D02*
G01*
X8827503Y443992D01*
D11*
X5856706Y4212005D02*
G01*
X6106693Y4212005D01*
X5856706Y4212005D02*
G01*
X5856706Y4931994D01*
X6106693Y4931994D02*
G01*
X5856706Y4931994D01*
X6106693Y4931994D02*
G01*
X6106693Y4212005D01*
X13789974Y4199305D02*
G01*
X14039961Y4199305D01*
X13789974Y4199305D02*
G01*
X13789974Y4919294D01*
X14039961Y4919294D02*
G01*
X13789974Y4919294D01*
X14039961Y4919294D02*
G01*
X14039961Y4199305D01*
X21723243Y4135805D02*
G01*
X21973230Y4135805D01*
X21723243Y4135805D02*
G01*
X21723243Y4855794D01*
X21973230Y4855794D02*
G01*
X21723243Y4855794D01*
X21973230Y4855794D02*
G01*
X21973230Y4135805D01*
X29656511Y4072305D02*
G01*
X29906498Y4072305D01*
X29656511Y4072305D02*
G01*
X29656511Y4792294D01*
X29906498Y4792294D02*
G01*
X29656511Y4792294D01*
X29906498Y4792294D02*
G01*
X29906498Y4072305D01*
X37589780Y4072305D02*
G01*
X37839766Y4072305D01*
X37589780Y4072305D02*
G01*
X37589780Y4792294D01*
X37839766Y4792294D02*
G01*
X37589780Y4792294D01*
X37839766Y4792294D02*
G01*
X37839766Y4072305D01*
X8649632Y4472178D02*
G01*
X8649632Y4252188D01*
X8649632Y4891986D02*
G01*
X8649632Y4671997D01*
X6649638Y4252010D02*
G01*
X8649632Y4252010D01*
X6649638Y4891986D02*
G01*
X8649632Y4891986D01*
X6649638Y4891986D02*
G01*
X6649638Y4252010D01*
X16582900Y4472178D02*
G01*
X16582900Y4252188D01*
X16582900Y4891986D02*
G01*
X16582900Y4671997D01*
X14582907Y4252010D02*
G01*
X16582900Y4252010D01*
X14582907Y4891986D02*
G01*
X16582900Y4891986D01*
X14582907Y4891986D02*
G01*
X14582907Y4252010D01*
X24516168Y4395978D02*
G01*
X24516168Y4175988D01*
X24516168Y4815786D02*
G01*
X24516168Y4595797D01*
X22516175Y4175810D02*
G01*
X24516168Y4175810D01*
X22516175Y4815786D02*
G01*
X24516168Y4815786D01*
X22516175Y4815786D02*
G01*
X22516175Y4175810D01*
X32449437Y4332478D02*
G01*
X32449437Y4112488D01*
X32449437Y4752286D02*
G01*
X32449437Y4532297D01*
X30449443Y4112310D02*
G01*
X32449437Y4112310D01*
X30449443Y4752286D02*
G01*
X32449437Y4752286D01*
X30449443Y4752286D02*
G01*
X30449443Y4112310D01*
X40382705Y4332478D02*
G01*
X40382705Y4112488D01*
X40382705Y4752286D02*
G01*
X40382705Y4532297D01*
X38382712Y4112310D02*
G01*
X40382705Y4112310D01*
X38382712Y4752286D02*
G01*
X40382705Y4752286D01*
X38382712Y4752286D02*
G01*
X38382712Y4112310D01*
D10*
X32867379Y5502879D02*
G01*
X32867379Y5673120D01*
X33172620Y5502879D02*
G01*
X33172620Y5673120D01*
X33067640Y5673120D02*
G01*
X32972359Y5673120D01*
X6705379Y5502879D02*
G01*
X6705379Y5673120D01*
X7010620Y5502879D02*
G01*
X7010620Y5673120D01*
X6905640Y5673120D02*
G01*
X6810359Y5673120D01*
D12*
X22288500Y6350000D02*
G01*
X22098000Y6350000D01*
X22098000Y6096000D01*
X23622000Y6096000D01*
X23622000Y6350000D01*
D13*
X23622000Y6350000D02*
G01*
X22288500Y6350000D01*
D11*
X9951986Y-1224000D02*
G01*
X9951986Y-1823999D01*
X9351987Y-1823999D01*
X9351987Y-1224000D01*
X9951986Y-1224000D01*
X11221986Y1061999D02*
G01*
X11221986Y462000D01*
X10621987Y462000D01*
X10621987Y1061999D01*
X11221986Y1061999D01*
X12491986Y-1224000D02*
G01*
X12491986Y-1823999D01*
X11891987Y-1823999D01*
X11891987Y-1224000D01*
X12491986Y-1224000D01*
X13761986Y1061999D02*
G01*
X13761986Y462000D01*
X13161987Y462000D01*
X13161987Y1061999D01*
X13761986Y1061999D01*
X15031986Y-1224000D02*
G01*
X15031986Y-1823999D01*
X14431987Y-1823999D01*
X14431987Y-1224000D01*
X15031986Y-1224000D01*
X16301986Y-1224000D02*
G01*
X16301986Y-1823999D01*
X15701987Y-1823999D01*
X15701987Y-1224000D01*
X16301986Y-1224000D01*
X17571986Y1061999D02*
G01*
X17571986Y462000D01*
X16971987Y462000D01*
X16971987Y1061999D01*
X17571986Y1061999D01*
X18841986Y-1224000D02*
G01*
X18841986Y-1823999D01*
X18241987Y-1823999D01*
X18241987Y-1224000D01*
X18841986Y-1224000D01*
X20111986Y1061999D02*
G01*
X20111986Y462000D01*
X19511987Y462000D01*
X19511987Y1061999D01*
X20111986Y1061999D01*
X21381986Y-1224000D02*
G01*
X21381986Y-1823999D01*
X20781987Y-1823999D01*
X20781987Y-1224000D01*
X21381986Y-1224000D01*
X22651986Y-1224000D02*
G01*
X22651986Y-1823999D01*
X22051987Y-1823999D01*
X22051987Y-1224000D01*
X22651986Y-1224000D01*
X23921986Y1061999D02*
G01*
X23921986Y462000D01*
X23321987Y462000D01*
X23321987Y1061999D01*
X23921986Y1061999D01*
X25191986Y-1224000D02*
G01*
X25191986Y-1823999D01*
X24591987Y-1823999D01*
X24591987Y-1224000D01*
X25191986Y-1224000D01*
X26461986Y1061999D02*
G01*
X26461986Y462000D01*
X25861987Y462000D01*
X25861987Y1061999D01*
X26461986Y1061999D01*
X27731986Y-1224000D02*
G01*
X27731986Y-1823999D01*
X27131987Y-1823999D01*
X27131987Y-1224000D01*
X27731986Y-1224000D01*
X29001986Y1061999D02*
G01*
X29001986Y462000D01*
X28401987Y462000D01*
X28401987Y1061999D01*
X29001986Y1061999D01*
X30271986Y-1224000D02*
G01*
X30271986Y-1823999D01*
X29671987Y-1823999D01*
X29671987Y-1224000D01*
X30271986Y-1224000D01*
X31541986Y-1224000D02*
G01*
X31541986Y-1823999D01*
X30941987Y-1823999D01*
X30941987Y-1224000D01*
X31541986Y-1224000D01*
X32811986Y1061999D02*
G01*
X32811986Y462000D01*
X32211987Y462000D01*
X32211987Y1061999D01*
X32811986Y1061999D01*
X34081986Y-1224000D02*
G01*
X34081986Y-1823999D01*
X33481987Y-1823999D01*
X33481987Y-1224000D01*
X34081986Y-1224000D01*
X35351986Y1061999D02*
G01*
X35351986Y462000D01*
X34751987Y462000D01*
X34751987Y1061999D01*
X35351986Y1061999D01*
X36621986Y-1224000D02*
G01*
X36621986Y-1823999D01*
X36021987Y-1823999D01*
X36021987Y-1224000D01*
X36621986Y-1224000D01*
X37891986Y-1224000D02*
G01*
X37891986Y-1823999D01*
X37291987Y-1823999D01*
X37291987Y-1224000D01*
X37891986Y-1224000D01*
X39161986Y1061999D02*
G01*
X39161986Y462000D01*
X38561987Y462000D01*
X38561987Y1061999D01*
X39161986Y1061999D01*
X40431986Y-1224000D02*
G01*
X40431986Y-1823999D01*
X39831987Y-1823999D01*
X39831987Y-1224000D01*
X40431986Y-1224000D01*
X41701986Y1061999D02*
G01*
X41701986Y462000D01*
X41101987Y462000D01*
X41101987Y1061999D01*
X41701986Y1061999D01*
X42971986Y-1224000D02*
G01*
X42971986Y-1823999D01*
X42371987Y-1823999D01*
X42371987Y-1224000D01*
X42971986Y-1224000D01*
X44241986Y1061999D02*
G01*
X44241986Y462000D01*
X43641987Y462000D01*
X43641987Y1061999D01*
X44241986Y1061999D01*
X45511986Y-1224000D02*
G01*
X45511986Y-1823999D01*
X44911987Y-1823999D01*
X44911987Y-1224000D01*
X45511986Y-1224000D01*
X1061986Y-1224000D02*
G01*
X1061986Y-1823999D01*
X461987Y-1823999D01*
X461987Y-1224000D01*
X1061986Y-1224000D01*
X2331986Y1061999D02*
G01*
X2331986Y462000D01*
X1731987Y462000D01*
X1731987Y1061999D01*
X2331986Y1061999D01*
X3601986Y-1224000D02*
G01*
X3601986Y-1823999D01*
X3001987Y-1823999D01*
X3001987Y-1224000D01*
X3601986Y-1224000D01*
X4871986Y1061999D02*
G01*
X4871986Y462000D01*
X4271987Y462000D01*
X4271987Y1061999D01*
X4871986Y1061999D01*
X6141986Y-1224000D02*
G01*
X6141986Y-1823999D01*
X5541987Y-1823999D01*
X5541987Y-1224000D01*
X6141986Y-1224000D01*
X7411986Y-1224000D02*
G01*
X7411986Y-1823999D01*
X6811987Y-1823999D01*
X6811987Y-1224000D01*
X7411986Y-1224000D01*
X8681986Y1061999D02*
G01*
X8681986Y462000D01*
X8081987Y462000D01*
X8081987Y1061999D01*
X8681986Y1061999D01*
G75*
G01*
X8649632Y4472000D02*
G02*
X8644631Y4671997I-2500J99999D01*
G75*
G01*
X16582901Y4472000D02*
G02*
X16577899Y4671997I-2501J99999D01*
G75*
G01*
X24516169Y4395800D02*
G02*
X24511168Y4595797I-2501J99999D01*
G75*
G01*
X32449437Y4332300D02*
G02*
X32444436Y4532297I-2500J99999D01*
G75*
G01*
X40382706Y4332300D02*
G02*
X40377704Y4532297I-2501J99999D01*
D14*
G75*
G01
X32869911Y5473700D02*
G03X32869911Y5473700I-15011J0D01*
G75*
G01
X6707911Y5473700D02*
G03X6707911Y5473700I-15011J0D01*
D11*
G75*
G01
X9804933Y-1524000D02*
G03X9804933Y-1524000I-152933J0D01*
G75*
G01
X9499600Y-1727200D02*
G03X9499600Y-1727200I-50800J0D01*
G75*
G01
X9499600Y-1320800D02*
G03X9499600Y-1320800I-50800J0D01*
G75*
G01
X9906000Y-1727200D02*
G03X9906000Y-1727200I-50800J0D01*
G75*
G01
X9905848Y-1321003D02*
G03X9905848Y-1321003I-50800J0D01*
G75*
G01
X11074933Y762000D02*
G03X11074933Y762000I-152933J0D01*
G75*
G01
X10769600Y558800D02*
G03X10769600Y558800I-50800J0D01*
G75*
G01
X10769600Y965200D02*
G03X10769600Y965200I-50800J0D01*
G75*
G01
X11176000Y558800D02*
G03X11176000Y558800I-50800J0D01*
G75*
G01
X11175848Y964997D02*
G03X11175848Y964997I-50800J0D01*
G75*
G01
X12344933Y-1524000D02*
G03X12344933Y-1524000I-152933J0D01*
G75*
G01
X12039600Y-1727200D02*
G03X12039600Y-1727200I-50800J0D01*
G75*
G01
X12039600Y-1320800D02*
G03X12039600Y-1320800I-50800J0D01*
G75*
G01
X12446000Y-1727200D02*
G03X12446000Y-1727200I-50800J0D01*
G75*
G01
X12445848Y-1321003D02*
G03X12445848Y-1321003I-50800J0D01*
G75*
G01
X13614933Y762000D02*
G03X13614933Y762000I-152933J0D01*
G75*
G01
X13309600Y558800D02*
G03X13309600Y558800I-50800J0D01*
G75*
G01
X13309600Y965200D02*
G03X13309600Y965200I-50800J0D01*
G75*
G01
X13716000Y558800D02*
G03X13716000Y558800I-50800J0D01*
G75*
G01
X13715848Y964997D02*
G03X13715848Y964997I-50800J0D01*
G75*
G01
X14884933Y-1524000D02*
G03X14884933Y-1524000I-152933J0D01*
G75*
G01
X14579600Y-1727200D02*
G03X14579600Y-1727200I-50800J0D01*
G75*
G01
X14579600Y-1320800D02*
G03X14579600Y-1320800I-50800J0D01*
G75*
G01
X14986000Y-1727200D02*
G03X14986000Y-1727200I-50800J0D01*
G75*
G01
X14985848Y-1321003D02*
G03X14985848Y-1321003I-50800J0D01*
G75*
G01
X16154933Y-1524000D02*
G03X16154933Y-1524000I-152933J0D01*
G75*
G01
X15849600Y-1727200D02*
G03X15849600Y-1727200I-50800J0D01*
G75*
G01
X15849600Y-1320800D02*
G03X15849600Y-1320800I-50800J0D01*
G75*
G01
X16256000Y-1727200D02*
G03X16256000Y-1727200I-50800J0D01*
G75*
G01
X16255848Y-1321003D02*
G03X16255848Y-1321003I-50800J0D01*
G75*
G01
X17424933Y762000D02*
G03X17424933Y762000I-152933J0D01*
G75*
G01
X17119600Y558800D02*
G03X17119600Y558800I-50800J0D01*
G75*
G01
X17119600Y965200D02*
G03X17119600Y965200I-50800J0D01*
G75*
G01
X17526000Y558800D02*
G03X17526000Y558800I-50800J0D01*
G75*
G01
X17525848Y964997D02*
G03X17525848Y964997I-50800J0D01*
G75*
G01
X18694933Y-1524000D02*
G03X18694933Y-1524000I-152933J0D01*
G75*
G01
X18389600Y-1727200D02*
G03X18389600Y-1727200I-50800J0D01*
G75*
G01
X18389600Y-1320800D02*
G03X18389600Y-1320800I-50800J0D01*
G75*
G01
X18796000Y-1727200D02*
G03X18796000Y-1727200I-50800J0D01*
G75*
G01
X18795848Y-1321003D02*
G03X18795848Y-1321003I-50800J0D01*
G75*
G01
X19964933Y762000D02*
G03X19964933Y762000I-152933J0D01*
G75*
G01
X19659600Y558800D02*
G03X19659600Y558800I-50800J0D01*
G75*
G01
X19659600Y965200D02*
G03X19659600Y965200I-50800J0D01*
G75*
G01
X20066000Y558800D02*
G03X20066000Y558800I-50800J0D01*
G75*
G01
X20065848Y964997D02*
G03X20065848Y964997I-50800J0D01*
G75*
G01
X21234933Y-1524000D02*
G03X21234933Y-1524000I-152933J0D01*
G75*
G01
X20929600Y-1727200D02*
G03X20929600Y-1727200I-50800J0D01*
G75*
G01
X20929600Y-1320800D02*
G03X20929600Y-1320800I-50800J0D01*
G75*
G01
X21336000Y-1727200D02*
G03X21336000Y-1727200I-50800J0D01*
G75*
G01
X21335848Y-1321003D02*
G03X21335848Y-1321003I-50800J0D01*
G75*
G01
X22504933Y-1524000D02*
G03X22504933Y-1524000I-152933J0D01*
G75*
G01
X22199600Y-1727200D02*
G03X22199600Y-1727200I-50800J0D01*
G75*
G01
X22199600Y-1320800D02*
G03X22199600Y-1320800I-50800J0D01*
G75*
G01
X22606000Y-1727200D02*
G03X22606000Y-1727200I-50800J0D01*
G75*
G01
X22605848Y-1321003D02*
G03X22605848Y-1321003I-50800J0D01*
G75*
G01
X23774933Y762000D02*
G03X23774933Y762000I-152933J0D01*
G75*
G01
X23469600Y558800D02*
G03X23469600Y558800I-50800J0D01*
G75*
G01
X23469600Y965200D02*
G03X23469600Y965200I-50800J0D01*
G75*
G01
X23876000Y558800D02*
G03X23876000Y558800I-50800J0D01*
G75*
G01
X23875848Y964997D02*
G03X23875848Y964997I-50800J0D01*
G75*
G01
X25044933Y-1524000D02*
G03X25044933Y-1524000I-152933J0D01*
G75*
G01
X24739600Y-1727200D02*
G03X24739600Y-1727200I-50800J0D01*
G75*
G01
X24739600Y-1320800D02*
G03X24739600Y-1320800I-50800J0D01*
G75*
G01
X25146000Y-1727200D02*
G03X25146000Y-1727200I-50800J0D01*
G75*
G01
X25145848Y-1321003D02*
G03X25145848Y-1321003I-50800J0D01*
G75*
G01
X26314933Y762000D02*
G03X26314933Y762000I-152933J0D01*
G75*
G01
X26009600Y558800D02*
G03X26009600Y558800I-50800J0D01*
G75*
G01
X26009600Y965200D02*
G03X26009600Y965200I-50800J0D01*
G75*
G01
X26416000Y558800D02*
G03X26416000Y558800I-50800J0D01*
G75*
G01
X26415848Y964997D02*
G03X26415848Y964997I-50800J0D01*
G75*
G01
X27584933Y-1524000D02*
G03X27584933Y-1524000I-152933J0D01*
G75*
G01
X27279600Y-1727200D02*
G03X27279600Y-1727200I-50800J0D01*
G75*
G01
X27279600Y-1320800D02*
G03X27279600Y-1320800I-50800J0D01*
G75*
G01
X27686000Y-1727200D02*
G03X27686000Y-1727200I-50800J0D01*
G75*
G01
X27685848Y-1321003D02*
G03X27685848Y-1321003I-50800J0D01*
G75*
G01
X28854933Y762000D02*
G03X28854933Y762000I-152933J0D01*
G75*
G01
X28549600Y558800D02*
G03X28549600Y558800I-50800J0D01*
G75*
G01
X28549600Y965200D02*
G03X28549600Y965200I-50800J0D01*
G75*
G01
X28956000Y558800D02*
G03X28956000Y558800I-50800J0D01*
G75*
G01
X28955848Y964997D02*
G03X28955848Y964997I-50800J0D01*
G75*
G01
X30124933Y-1524000D02*
G03X30124933Y-1524000I-152933J0D01*
G75*
G01
X29819600Y-1727200D02*
G03X29819600Y-1727200I-50800J0D01*
G75*
G01
X29819600Y-1320800D02*
G03X29819600Y-1320800I-50800J0D01*
G75*
G01
X30226000Y-1727200D02*
G03X30226000Y-1727200I-50800J0D01*
G75*
G01
X30225848Y-1321003D02*
G03X30225848Y-1321003I-50800J0D01*
G75*
G01
X31394933Y-1524000D02*
G03X31394933Y-1524000I-152933J0D01*
G75*
G01
X31089600Y-1727200D02*
G03X31089600Y-1727200I-50800J0D01*
G75*
G01
X31089600Y-1320800D02*
G03X31089600Y-1320800I-50800J0D01*
G75*
G01
X31496000Y-1727200D02*
G03X31496000Y-1727200I-50800J0D01*
G75*
G01
X31495848Y-1321003D02*
G03X31495848Y-1321003I-50800J0D01*
G75*
G01
X32664933Y762000D02*
G03X32664933Y762000I-152933J0D01*
G75*
G01
X32359600Y558800D02*
G03X32359600Y558800I-50800J0D01*
G75*
G01
X32359600Y965200D02*
G03X32359600Y965200I-50800J0D01*
G75*
G01
X32766000Y558800D02*
G03X32766000Y558800I-50800J0D01*
G75*
G01
X32765848Y964997D02*
G03X32765848Y964997I-50800J0D01*
G75*
G01
X33934933Y-1524000D02*
G03X33934933Y-1524000I-152933J0D01*
G75*
G01
X33629600Y-1727200D02*
G03X33629600Y-1727200I-50800J0D01*
G75*
G01
X33629600Y-1320800D02*
G03X33629600Y-1320800I-50800J0D01*
G75*
G01
X34036000Y-1727200D02*
G03X34036000Y-1727200I-50800J0D01*
G75*
G01
X34035848Y-1321003D02*
G03X34035848Y-1321003I-50800J0D01*
G75*
G01
X35204933Y762000D02*
G03X35204933Y762000I-152933J0D01*
G75*
G01
X34899600Y558800D02*
G03X34899600Y558800I-50800J0D01*
G75*
G01
X34899600Y965200D02*
G03X34899600Y965200I-50800J0D01*
G75*
G01
X35306000Y558800D02*
G03X35306000Y558800I-50800J0D01*
G75*
G01
X35305848Y964997D02*
G03X35305848Y964997I-50800J0D01*
G75*
G01
X36474933Y-1524000D02*
G03X36474933Y-1524000I-152933J0D01*
G75*
G01
X36169600Y-1727200D02*
G03X36169600Y-1727200I-50800J0D01*
G75*
G01
X36169600Y-1320800D02*
G03X36169600Y-1320800I-50800J0D01*
G75*
G01
X36576000Y-1727200D02*
G03X36576000Y-1727200I-50800J0D01*
G75*
G01
X36575848Y-1321003D02*
G03X36575848Y-1321003I-50800J0D01*
G75*
G01
X37744933Y-1524000D02*
G03X37744933Y-1524000I-152933J0D01*
G75*
G01
X37439600Y-1727200D02*
G03X37439600Y-1727200I-50800J0D01*
G75*
G01
X37439600Y-1320800D02*
G03X37439600Y-1320800I-50800J0D01*
G75*
G01
X37846000Y-1727200D02*
G03X37846000Y-1727200I-50800J0D01*
G75*
G01
X37845848Y-1321003D02*
G03X37845848Y-1321003I-50800J0D01*
G75*
G01
X39014933Y762000D02*
G03X39014933Y762000I-152933J0D01*
G75*
G01
X38709600Y558800D02*
G03X38709600Y558800I-50800J0D01*
G75*
G01
X38709600Y965200D02*
G03X38709600Y965200I-50800J0D01*
G75*
G01
X39116000Y558800D02*
G03X39116000Y558800I-50800J0D01*
G75*
G01
X39115848Y964997D02*
G03X39115848Y964997I-50800J0D01*
G75*
G01
X40284933Y-1524000D02*
G03X40284933Y-1524000I-152933J0D01*
G75*
G01
X39979600Y-1727200D02*
G03X39979600Y-1727200I-50800J0D01*
G75*
G01
X39979600Y-1320800D02*
G03X39979600Y-1320800I-50800J0D01*
G75*
G01
X40386000Y-1727200D02*
G03X40386000Y-1727200I-50800J0D01*
G75*
G01
X40385848Y-1321003D02*
G03X40385848Y-1321003I-50800J0D01*
G75*
G01
X41554933Y762000D02*
G03X41554933Y762000I-152933J0D01*
G75*
G01
X41249600Y558800D02*
G03X41249600Y558800I-50800J0D01*
G75*
G01
X41249600Y965200D02*
G03X41249600Y965200I-50800J0D01*
G75*
G01
X41656000Y558800D02*
G03X41656000Y558800I-50800J0D01*
G75*
G01
X41655848Y964997D02*
G03X41655848Y964997I-50800J0D01*
G75*
G01
X42824933Y-1524000D02*
G03X42824933Y-1524000I-152933J0D01*
G75*
G01
X42519600Y-1727200D02*
G03X42519600Y-1727200I-50800J0D01*
G75*
G01
X42519600Y-1320800D02*
G03X42519600Y-1320800I-50800J0D01*
G75*
G01
X42926000Y-1727200D02*
G03X42926000Y-1727200I-50800J0D01*
G75*
G01
X42925848Y-1321003D02*
G03X42925848Y-1321003I-50800J0D01*
G75*
G01
X44094933Y762000D02*
G03X44094933Y762000I-152933J0D01*
G75*
G01
X43789600Y558800D02*
G03X43789600Y558800I-50800J0D01*
G75*
G01
X43789600Y965200D02*
G03X43789600Y965200I-50800J0D01*
G75*
G01
X44196000Y558800D02*
G03X44196000Y558800I-50800J0D01*
G75*
G01
X44195848Y964997D02*
G03X44195848Y964997I-50800J0D01*
G75*
G01
X45364933Y-1524000D02*
G03X45364933Y-1524000I-152933J0D01*
G75*
G01
X45059600Y-1727200D02*
G03X45059600Y-1727200I-50800J0D01*
G75*
G01
X45059600Y-1320800D02*
G03X45059600Y-1320800I-50800J0D01*
G75*
G01
X45466000Y-1727200D02*
G03X45466000Y-1727200I-50800J0D01*
G75*
G01
X45465848Y-1321003D02*
G03X45465848Y-1321003I-50800J0D01*
G75*
G01
X914933Y-1524000D02*
G03X914933Y-1524000I-152933J0D01*
G75*
G01
X609600Y-1727200D02*
G03X609600Y-1727200I-50800J0D01*
G75*
G01
X609600Y-1320800D02*
G03X609600Y-1320800I-50800J0D01*
G75*
G01
X1016000Y-1727200D02*
G03X1016000Y-1727200I-50800J0D01*
G75*
G01
X1015848Y-1321003D02*
G03X1015848Y-1321003I-50800J0D01*
G75*
G01
X2184933Y762000D02*
G03X2184933Y762000I-152933J0D01*
G75*
G01
X1879600Y558800D02*
G03X1879600Y558800I-50800J0D01*
G75*
G01
X1879600Y965200D02*
G03X1879600Y965200I-50800J0D01*
G75*
G01
X2286000Y558800D02*
G03X2286000Y558800I-50800J0D01*
G75*
G01
X2285822Y964997D02*
G03X2285822Y964997I-50800J0D01*
G75*
G01
X3454933Y-1524000D02*
G03X3454933Y-1524000I-152933J0D01*
G75*
G01
X3149600Y-1727200D02*
G03X3149600Y-1727200I-50800J0D01*
G75*
G01
X3149600Y-1320800D02*
G03X3149600Y-1320800I-50800J0D01*
G75*
G01
X3556000Y-1727200D02*
G03X3556000Y-1727200I-50800J0D01*
G75*
G01
X3555822Y-1321003D02*
G03X3555822Y-1321003I-50800J0D01*
G75*
G01
X4724933Y762000D02*
G03X4724933Y762000I-152933J0D01*
G75*
G01
X4419600Y558800D02*
G03X4419600Y558800I-50800J0D01*
G75*
G01
X4419600Y965200D02*
G03X4419600Y965200I-50800J0D01*
G75*
G01
X4826000Y558800D02*
G03X4826000Y558800I-50800J0D01*
G75*
G01
X4825848Y964997D02*
G03X4825848Y964997I-50800J0D01*
G75*
G01
X5994933Y-1524000D02*
G03X5994933Y-1524000I-152933J0D01*
G75*
G01
X5689600Y-1727200D02*
G03X5689600Y-1727200I-50800J0D01*
G75*
G01
X5689600Y-1320800D02*
G03X5689600Y-1320800I-50800J0D01*
G75*
G01
X6096000Y-1727200D02*
G03X6096000Y-1727200I-50800J0D01*
G75*
G01
X6095848Y-1321003D02*
G03X6095848Y-1321003I-50800J0D01*
G75*
G01
X7264933Y-1524000D02*
G03X7264933Y-1524000I-152933J0D01*
G75*
G01
X6959600Y-1727200D02*
G03X6959600Y-1727200I-50800J0D01*
G75*
G01
X6959600Y-1320800D02*
G03X6959600Y-1320800I-50800J0D01*
G75*
G01
X7366000Y-1727200D02*
G03X7366000Y-1727200I-50800J0D01*
G75*
G01
X7365848Y-1321003D02*
G03X7365848Y-1321003I-50800J0D01*
G75*
G01
X8534933Y762000D02*
G03X8534933Y762000I-152933J0D01*
G75*
G01
X8229600Y558800D02*
G03X8229600Y558800I-50800J0D01*
G75*
G01
X8229600Y965200D02*
G03X8229600Y965200I-50800J0D01*
G75*
G01
X8636000Y558800D02*
G03X8636000Y558800I-50800J0D01*
G75*
G01
X8635848Y964997D02*
G03X8635848Y964997I-50800J0D01*
M02*
