G04 Layer: BottomLayer*
G04 EasyEDA v6.5.40, 2024-07-22 23:31:44*
G04 cb6e2e9fbd21486d88ae5690d2d3dc00,10*
G04 Gerber Generator version 0.2*
G04 Scale: 100 percent, Rotated: No, Reflected: No *
G04 Dimensions in millimeters *
G04 leading zeros omitted , absolute positions ,4 integer and 5 decimal *
%FSLAX45Y45*%
%MOMM*%

%ADD10C,0.2540*%
%ADD11C,1.6000*%
%ADD12R,1.6000X1.6000*%
%ADD13C,1.5748*%
%ADD14R,1.5748X1.5748*%
%ADD15C,1.4000*%
%ADD16C,0.7000*%
%ADD17C,0.0102*%

%LPD*%
D10*
X17018000Y2142007D02*
G01*
X16649725Y2142007D01*
X15201900Y3589832D01*
X15201900Y4191000D01*
X33037779Y5766688D02*
G01*
X34235643Y4568875D01*
X38910259Y4568875D01*
X39128700Y4787442D01*
X39128700Y4854447D01*
X39212266Y4938064D01*
X39892986Y4938064D01*
X40017700Y4813300D01*
X32084518Y4813300D02*
G01*
X33037779Y5766688D01*
X33037779Y5766688D02*
G01*
X33037779Y5790031D01*
X38747700Y4813300D02*
G01*
X37702998Y5857976D01*
X31859220Y5857976D01*
X30814518Y4813300D01*
X7014616Y4953000D02*
G01*
X7141921Y5080304D01*
X8065338Y5080304D01*
X8157616Y4988026D01*
X8157616Y4910810D01*
X8374989Y4693437D01*
X14688337Y4693437D01*
X14947900Y4953000D01*
X22987000Y4995926D02*
G01*
X30631891Y4995926D01*
X30814518Y4813300D01*
X22987000Y6223000D02*
G01*
X22987000Y4995926D01*
X22987000Y4995926D02*
G01*
X22987000Y4982641D01*
X22881158Y4876800D01*
X508000Y2142007D02*
G01*
X508000Y2066899D01*
X540664Y2034235D01*
X980262Y2034235D01*
X3002915Y4056887D01*
X7134504Y4056887D01*
X7268616Y4191000D01*
X23495000Y6223000D02*
G01*
X23324591Y6393408D01*
X8286318Y6393408D01*
X6887616Y4994706D01*
X6887616Y4318000D01*
X6760616Y4191000D01*
X38608000Y2142007D02*
G01*
X38684200Y2218080D01*
X38684200Y2218080D02*
G01*
X39001700Y2535707D01*
X39001700Y4051300D01*
X38684200Y2218080D02*
G01*
X39545768Y1356309D01*
X1779320Y2140686D02*
G01*
X3654729Y4016095D01*
X7347711Y4016095D01*
X7522616Y4191000D01*
X1778000Y2142007D02*
G01*
X1779320Y2140686D01*
X1779320Y2140686D02*
G01*
X1779320Y1050569D01*
X8037220Y1359915D02*
G01*
X8037220Y2142007D01*
X8128000Y2142007D02*
G01*
X8037220Y2142007D01*
X7776616Y4953000D02*
G01*
X7776616Y4925466D01*
X8143824Y4558258D01*
X8143824Y3427729D01*
X8029829Y3313734D01*
X8029829Y2149398D01*
X8037220Y2142007D01*
X5981700Y4322013D02*
G01*
X6373596Y4713909D01*
X6373596Y5185460D01*
X6782308Y5594172D01*
X40271700Y4051300D02*
G01*
X40161463Y3940987D01*
X39956740Y3940987D01*
X39890700Y4006977D01*
X39890700Y4083202D01*
X39693596Y4280280D01*
X37812725Y4280280D01*
X37714682Y4182313D01*
X22225000Y6223000D02*
G01*
X22225000Y6116345D01*
X22225000Y6116345D02*
G01*
X20748243Y4639589D01*
X20748243Y4245813D01*
X10804448Y-1835886D02*
G01*
X11146993Y-1493342D01*
X11146993Y138785D01*
X10451007Y2083384D02*
G01*
X10343083Y2083384D01*
X8538616Y3887851D01*
X8538616Y4191000D01*
X13914958Y4309313D02*
G01*
X12676936Y4309313D01*
X10451007Y2083384D01*
X10451007Y2083384D02*
G01*
X10451007Y834770D01*
X11146993Y138785D01*
X29781500Y4182313D02*
G01*
X30348174Y4182313D01*
X30941518Y4775682D01*
X30941518Y4841239D01*
X31716979Y5616702D01*
X38608000Y3191992D02*
G01*
X38747700Y3331692D01*
X38747700Y4051300D01*
X32258000Y3191992D02*
G01*
X32084518Y3365550D01*
X32084518Y4051300D01*
X39763700Y4813300D02*
G01*
X40017700Y4559300D01*
X40017700Y4051300D01*
X38493700Y4758309D02*
G01*
X38493700Y4813300D01*
X39001700Y4813300D02*
G01*
X38891718Y4703318D01*
X38548818Y4703318D01*
X38493700Y4758309D01*
X38493700Y4758309D02*
G01*
X37790882Y4758309D01*
X37714682Y4682312D01*
X30560518Y4813300D02*
G01*
X29912563Y4813300D01*
X29781500Y4682312D01*
X24638000Y3191992D02*
G01*
X24638000Y3627958D01*
X24151158Y4114800D01*
X23241000Y6223000D02*
G01*
X23127258Y6336741D01*
X22949077Y6336741D01*
X22860000Y6247663D01*
X22860000Y5109641D01*
X22627158Y4876800D01*
X14693900Y4953000D02*
G01*
X14058645Y4953000D01*
X13914958Y4809312D01*
X16217900Y4191000D02*
G01*
X15582900Y4826000D01*
X15582900Y4996154D01*
X15459557Y5119496D01*
X14860397Y5119496D01*
X14693900Y4953000D01*
X29718000Y3191992D02*
G01*
X29671009Y3238957D01*
X29671009Y4571847D01*
X29781500Y4682312D01*
X15748000Y3191992D02*
G01*
X16217900Y3661892D01*
X16217900Y4191000D01*
X22627158Y4876800D02*
G01*
X21979229Y4876800D01*
X21848241Y4745812D01*
X19558000Y3191992D02*
G01*
X20294422Y3191992D01*
X21848241Y4745812D01*
X8284616Y4191000D02*
G01*
X8277733Y4191000D01*
X8128000Y3191992D02*
G01*
X8277733Y3341725D01*
X8277733Y4191000D01*
X8277733Y4191000D02*
G01*
X8277733Y4513503D01*
X8052384Y4738852D01*
X8538641Y4953000D02*
G01*
X8430717Y4953000D01*
X8430717Y4953000D02*
G01*
X8430717Y5060924D01*
X7738160Y5753480D01*
X16579824Y4953000D02*
G01*
X16579824Y4845075D01*
X16862780Y4562119D01*
X16471900Y4953000D02*
G01*
X16579824Y4953000D01*
X6858000Y2142007D02*
G01*
X6858000Y-871499D01*
X6887006Y-900506D01*
X7522616Y4953000D02*
G01*
X7889798Y4585817D01*
X7889798Y3173806D01*
X6858000Y2142007D01*
X10668000Y2142007D02*
G01*
X11826113Y2142007D01*
X15455900Y4953000D02*
G01*
X15334843Y5074056D01*
X15152268Y5074056D01*
X15074900Y4996687D01*
X15074900Y4920157D01*
X12625654Y2470912D01*
X12113869Y2470912D01*
X11826113Y2183155D01*
X11826113Y2142007D01*
X11826113Y2142007D02*
G01*
X11826113Y1641703D01*
X11927306Y1540510D01*
X36026598Y2295296D02*
G01*
X33663636Y4658360D01*
X32068008Y4658360D01*
X31957518Y4768977D01*
X31957518Y4855565D01*
X31891477Y4921529D01*
X31430722Y4921529D01*
X31322518Y4813300D01*
X37366956Y-900125D02*
G01*
X37366956Y-4775D01*
X35107372Y2254885D01*
X39719758Y1291158D02*
G01*
X39719758Y-935710D01*
X39878000Y2142007D02*
G01*
X39878000Y1449400D01*
X39719758Y1291158D01*
X39719758Y1291158D02*
G01*
X36161979Y1291158D01*
X32853629Y4599482D01*
X32044386Y4599482D01*
X31830518Y4813300D01*
X35045904Y1512265D02*
G01*
X32358075Y4200169D01*
X32189674Y4200169D01*
X31576518Y4813300D01*
X36096956Y-902538D02*
G01*
X36193222Y-998778D01*
X41404793Y-998778D01*
X43768009Y1364361D01*
X43768009Y2061971D01*
X43688000Y2142007D01*
X31068518Y4813300D02*
G01*
X31722313Y4159377D01*
X32142684Y4159377D01*
X32223456Y4078655D01*
X32223456Y4007230D01*
X36096956Y133629D01*
X36096956Y-902538D01*
X31828486Y2643682D02*
G01*
X31830518Y2645537D01*
X31830518Y2645537D02*
G01*
X31830518Y4051300D01*
X31830518Y2645537D02*
G01*
X32638745Y2645537D01*
X33924493Y1359915D01*
X29221175Y2032025D02*
G01*
X31735013Y-481837D01*
X31735013Y-913460D01*
X31576518Y4051300D02*
G01*
X31458661Y4169029D01*
X31275527Y4169029D01*
X31195518Y4088917D01*
X31195518Y4006240D01*
X29221175Y2032025D01*
X24638000Y2142007D02*
G01*
X24736425Y2240432D01*
X27411934Y2240432D01*
X27620468Y2032025D01*
X29221175Y2032025D01*
X31322518Y4051300D02*
G01*
X31322518Y2006828D01*
X31322518Y2006828D02*
G01*
X32112204Y1216990D01*
X31322518Y2006828D02*
G01*
X31051245Y2006828D01*
X30988000Y1943607D01*
X31068518Y4051300D02*
G01*
X31237427Y4220184D01*
X31570675Y4220184D01*
X31703518Y4087495D01*
X31703518Y1723389D01*
X32186118Y1240713D01*
X32186118Y-566801D01*
X31770827Y-982040D01*
X31095441Y-982040D01*
X31016956Y-903579D01*
X22098000Y2142007D02*
G01*
X23008158Y3052165D01*
X23008158Y4159859D01*
X23136326Y4288028D01*
X28289504Y4288028D01*
X29487113Y3090468D01*
X30107636Y3090468D01*
X31068518Y4051300D01*
X23389158Y4876800D02*
G01*
X23280141Y4767783D01*
X22035795Y4767783D01*
X19414667Y2146655D01*
X19414667Y2146655D02*
G01*
X19410019Y2142007D01*
X18288000Y2142007D01*
X19414667Y2146655D02*
G01*
X22538588Y-977264D01*
X25243281Y-977264D01*
X27178000Y2142007D02*
G01*
X26541222Y1505229D01*
X26136854Y1505229D01*
X22967746Y1505229D02*
G01*
X22589210Y1505229D01*
X21994393Y2100046D01*
X21994393Y2589555D01*
X22754158Y3349320D01*
X22754158Y4142384D01*
X22956850Y4345076D01*
X23452327Y4345076D01*
X23732769Y4625517D01*
X28448000Y2142007D02*
G01*
X26353770Y4236364D01*
X24018722Y4236364D01*
X23897158Y4114800D01*
X27304745Y2129891D02*
G01*
X27304745Y-230276D01*
X28196540Y2237511D02*
G01*
X28139898Y2294128D01*
X24329110Y2294128D01*
X23643158Y4114800D02*
G01*
X23643158Y2980080D01*
X24329110Y2294128D01*
X24329110Y2294128D02*
G01*
X24329110Y1852447D01*
X23550727Y1074064D01*
X24452351Y1000277D02*
G01*
X23522457Y1000277D01*
X23480217Y1042517D01*
X23480217Y4023740D01*
X23389158Y4114800D01*
X24452351Y-503758D02*
G01*
X24452351Y1000277D01*
X24452351Y1000277D02*
G01*
X24452351Y2020646D01*
X26347927Y2489758D02*
G01*
X25183845Y2489758D01*
X23770158Y3903446D01*
X23770158Y4143044D01*
X23678997Y4234205D01*
X23254563Y4234205D01*
X23135158Y4114800D01*
X23135158Y4114800D02*
G01*
X23135158Y813384D01*
X23807775Y140766D01*
X15963900Y4953000D02*
G01*
X16344900Y4572000D01*
X16344900Y3648659D01*
X18633643Y1359915D01*
X12369190Y-446404D02*
G01*
X12369190Y2142007D01*
X11938000Y2142007D02*
G01*
X12369190Y2142007D01*
X12369190Y2142007D02*
G01*
X12390907Y2142007D01*
X15201900Y4953000D01*
X15963900Y4191000D02*
G01*
X15743478Y4411421D01*
X14748891Y4411421D01*
X13208000Y2870530D01*
X13208000Y2142007D01*
X14536420Y-901395D02*
G01*
X15055951Y-381863D01*
X15055951Y2014169D01*
X15709900Y4191000D02*
G01*
X15543072Y4357827D01*
X14951252Y4357827D01*
X14820900Y4227474D01*
X14820900Y2484907D01*
X14478000Y2142007D01*
X14478000Y2142007D02*
G01*
X14478000Y1992223D01*
X13559840Y1074064D01*
X15748000Y2142007D02*
G01*
X15716021Y2173986D01*
X15088031Y2173986D01*
X15455900Y4191000D02*
G01*
X15334843Y4312056D01*
X15162453Y4312056D01*
X15088031Y4237634D01*
X15088031Y2173986D01*
X15088031Y2173986D02*
G01*
X12012371Y-901674D01*
X4318000Y2142007D02*
G01*
X4346956Y2113051D01*
X4346956Y1048638D01*
X8030616Y4191000D02*
G01*
X7945450Y4105833D01*
X7945450Y3133623D01*
X6996531Y2184704D01*
X3035300Y2142007D02*
G01*
X3047720Y2129586D01*
X3047720Y-903579D01*
X5843600Y1858797D02*
G01*
X7776616Y3791813D01*
X7776616Y4191000D01*
X37338000Y2142007D02*
G01*
X38620700Y3424707D01*
X38620700Y4090365D01*
X38705790Y4175404D01*
X39131493Y4175404D01*
X39255700Y4051300D01*
X39255700Y4051300D02*
G01*
X39255700Y3285693D01*
X41419525Y1121892D01*
X41419525Y-893851D01*
X36068000Y2142007D02*
G01*
X38153593Y4227626D01*
X39333424Y4227626D01*
X39509700Y4051300D01*
X43693334Y1383715D02*
G01*
X43693334Y1511833D01*
X41511474Y3693464D01*
X39867586Y3693464D01*
X39509700Y4051300D01*
X44958000Y2142007D02*
G01*
X43314366Y3785768D01*
X40029129Y3785768D01*
X39763700Y4051300D01*
X44958000Y2142007D02*
G01*
X44958000Y-872921D01*
X44986956Y-901928D01*
X5588000Y2142007D02*
G01*
X5588000Y-865555D01*
X5624931Y-902487D01*
X7268616Y4953000D02*
G01*
X7642174Y4579442D01*
X7642174Y4136593D01*
X5647588Y2142007D01*
X5588000Y2142007D01*
X9385300Y2142007D02*
G01*
X8411616Y3115690D01*
X8411616Y4572000D01*
X8030616Y4953000D01*
X9385300Y2142007D02*
G01*
X9342450Y2099157D01*
X9342450Y-902893D01*
X18503188Y-913460D02*
G01*
X18707023Y-709625D01*
X18707023Y1496491D01*
X18707023Y1496491D02*
G01*
X17458867Y2744647D01*
X17458867Y3551504D01*
X16090900Y4919471D01*
X16090900Y4996662D01*
X16013531Y5074030D01*
X15830931Y5074030D01*
X15709900Y4953000D01*
X18707023Y1496491D02*
G01*
X19898944Y1496491D01*
X19934250Y1531797D01*
X20487284Y2175535D02*
G01*
X20487284Y2188667D01*
X23025608Y4726990D01*
X23493349Y4726990D01*
X23643158Y4876800D01*
X19558000Y2142007D02*
G01*
X19591527Y2175535D01*
X20487284Y2175535D01*
X20487284Y2175535D02*
G01*
X21843618Y819200D01*
X20828000Y2142007D02*
G01*
X21189264Y2503271D01*
X21353957Y2503271D01*
X21353957Y2503271D02*
G01*
X24770689Y-913460D01*
X27896565Y-913460D01*
X23897158Y4876800D02*
G01*
X23894897Y4876800D01*
X23448949Y4430852D01*
X22787533Y4430852D01*
X21353957Y2997276D01*
X21353957Y2503271D01*
D11*
G01*
X5981700Y4322013D03*
G01*
X5981700Y4822012D03*
G01*
X13914958Y4309313D03*
G01*
X13914958Y4809312D03*
G01*
X21848241Y4245813D03*
G01*
X21848241Y4745812D03*
G01*
X29781500Y4182313D03*
G01*
X29781500Y4682312D03*
G01*
X37714783Y4182313D03*
G01*
X37714783Y4682312D03*
G01*
X8538616Y4191000D03*
G01*
X8284616Y4191000D03*
G01*
X8030616Y4191000D03*
G01*
X7776616Y4191000D03*
G01*
X7522616Y4191000D03*
G01*
X7268616Y4191000D03*
G01*
X7014616Y4191000D03*
G01*
X6760616Y4191000D03*
G01*
X6760616Y4953000D03*
G01*
X7014616Y4953000D03*
G01*
X7268616Y4953000D03*
G01*
X7522616Y4953000D03*
G01*
X7776616Y4953000D03*
G01*
X8030616Y4953000D03*
G01*
X8284616Y4953000D03*
D12*
G01*
X8538641Y4953000D03*
D11*
G01*
X16471900Y4191000D03*
G01*
X16217900Y4191000D03*
G01*
X15963900Y4191000D03*
G01*
X15709900Y4191000D03*
G01*
X15455900Y4191000D03*
G01*
X15201900Y4191000D03*
G01*
X14947900Y4191000D03*
G01*
X14693900Y4191000D03*
G01*
X14693900Y4953000D03*
G01*
X14947900Y4953000D03*
G01*
X15201900Y4953000D03*
G01*
X15455900Y4953000D03*
G01*
X15709900Y4953000D03*
G01*
X15963900Y4953000D03*
G01*
X16217900Y4953000D03*
D12*
G01*
X16471900Y4953000D03*
D11*
G01*
X24405158Y4114800D03*
G01*
X24151158Y4114800D03*
G01*
X23897158Y4114800D03*
G01*
X23643158Y4114800D03*
G01*
X23389158Y4114800D03*
G01*
X23135158Y4114800D03*
G01*
X22881158Y4114800D03*
G01*
X22627158Y4114800D03*
G01*
X22627158Y4876800D03*
G01*
X22881158Y4876800D03*
G01*
X23135158Y4876800D03*
G01*
X23389158Y4876800D03*
G01*
X23643158Y4876800D03*
G01*
X23897158Y4876800D03*
G01*
X24151158Y4876800D03*
D12*
G01*
X24405183Y4876800D03*
D11*
G01*
X32338441Y4051300D03*
G01*
X32084441Y4051300D03*
G01*
X31830441Y4051300D03*
G01*
X31576441Y4051300D03*
G01*
X31322441Y4051300D03*
G01*
X31068441Y4051300D03*
G01*
X30814441Y4051300D03*
G01*
X30560441Y4051300D03*
G01*
X30560441Y4813300D03*
G01*
X30814441Y4813300D03*
G01*
X31068441Y4813300D03*
G01*
X31322441Y4813300D03*
G01*
X31576441Y4813300D03*
G01*
X31830441Y4813300D03*
G01*
X32084441Y4813300D03*
D12*
G01*
X32338441Y4813300D03*
D11*
G01*
X40271700Y4051300D03*
G01*
X40017700Y4051300D03*
G01*
X39763700Y4051300D03*
G01*
X39509700Y4051300D03*
G01*
X39255700Y4051300D03*
G01*
X39001700Y4051300D03*
G01*
X38747700Y4051300D03*
G01*
X38493700Y4051300D03*
G01*
X38493700Y4813300D03*
G01*
X38747700Y4813300D03*
G01*
X39001700Y4813300D03*
G01*
X39255700Y4813300D03*
G01*
X39509700Y4813300D03*
G01*
X39763700Y4813300D03*
G01*
X40017700Y4813300D03*
D12*
G01*
X40271700Y4813300D03*
D13*
G01*
X23495000Y6223000D03*
G01*
X23241000Y6223000D03*
G01*
X22987000Y6223000D03*
G01*
X22733000Y6223000D03*
G01*
X22479000Y6223000D03*
D14*
G01*
X22225000Y6223000D03*
D15*
G01*
X8128000Y2142007D03*
G01*
X8128000Y3191992D03*
G01*
X6858000Y2142007D03*
G01*
X6858000Y3191992D03*
G01*
X5588000Y2142007D03*
G01*
X5588000Y3191992D03*
G01*
X4318000Y2142007D03*
G01*
X4318000Y3191992D03*
G01*
X3035300Y2142007D03*
G01*
X3035300Y3191992D03*
G01*
X1778000Y2142007D03*
G01*
X1778000Y3191992D03*
G01*
X508000Y2142007D03*
G01*
X508000Y3191992D03*
G01*
X9385300Y2142007D03*
G01*
X9385300Y3191992D03*
G01*
X10668000Y2142007D03*
G01*
X10668000Y3191992D03*
G01*
X11938000Y2142007D03*
G01*
X11938000Y3191992D03*
G01*
X13208000Y2142007D03*
G01*
X13208000Y3191992D03*
G01*
X14478000Y2142007D03*
G01*
X14478000Y3191992D03*
G01*
X15748000Y2142007D03*
G01*
X15748000Y3191992D03*
G01*
X17018000Y2142007D03*
G01*
X17018000Y3191992D03*
G01*
X18288000Y2142007D03*
G01*
X18288000Y3191992D03*
G01*
X19558000Y2142007D03*
G01*
X19558000Y3191992D03*
G01*
X20828000Y2142007D03*
G01*
X20828000Y3191992D03*
G01*
X22098000Y2142007D03*
G01*
X22098000Y3191992D03*
G01*
X23368000Y2142007D03*
G01*
X23368000Y3191992D03*
G01*
X24638000Y2142007D03*
G01*
X24638000Y3191992D03*
G01*
X25908000Y2142007D03*
G01*
X25908000Y3191992D03*
G01*
X27178000Y2142007D03*
G01*
X27178000Y3191992D03*
G01*
X28448000Y2142007D03*
G01*
X28448000Y3191992D03*
G01*
X29718000Y2142007D03*
G01*
X29718000Y3191992D03*
G01*
X30988000Y2142007D03*
G01*
X30988000Y3191992D03*
G01*
X32258000Y2142007D03*
G01*
X32258000Y3191992D03*
G01*
X33528000Y2142007D03*
G01*
X33528000Y3191992D03*
G01*
X34798000Y2142007D03*
G01*
X34798000Y3191992D03*
G01*
X36068000Y2142007D03*
G01*
X36068000Y3191992D03*
G01*
X37338000Y2142007D03*
G01*
X37338000Y3191992D03*
G01*
X38608000Y2142007D03*
G01*
X38608000Y3191992D03*
G01*
X39878000Y2142007D03*
G01*
X39878000Y3191992D03*
G01*
X41148000Y2142007D03*
G01*
X41148000Y3191992D03*
G01*
X42418000Y2142007D03*
G01*
X42418000Y3191992D03*
G01*
X43688000Y2142007D03*
G01*
X43688000Y3191992D03*
G01*
X44958000Y2142007D03*
G01*
X44958000Y3191992D03*
D16*
G01*
X27896565Y-913460D03*
G01*
X21843618Y819200D03*
G01*
X19934250Y1531797D03*
G01*
X18503188Y-913460D03*
G01*
X9342450Y-902893D03*
G01*
X5624931Y-902487D03*
G01*
X44986956Y-901928D03*
G01*
X43693334Y1383715D03*
G01*
X41419525Y-893851D03*
G01*
X5843600Y1858797D03*
G01*
X3047720Y-903579D03*
G01*
X6996531Y2184704D03*
G01*
X4346956Y1048638D03*
G01*
X12012371Y-901674D03*
G01*
X13559840Y1074064D03*
G01*
X14536420Y-901395D03*
G01*
X15055951Y2014169D03*
G01*
X12369190Y-446404D03*
G01*
X18633643Y1359915D03*
G01*
X23807775Y140766D03*
G01*
X26347927Y2489758D03*
G01*
X24452351Y2020646D03*
G01*
X24452351Y-503758D03*
G01*
X28196540Y2237511D03*
G01*
X23550727Y1074064D03*
G01*
X27304745Y2129891D03*
G01*
X27304745Y-230276D03*
G01*
X23732769Y4625517D03*
G01*
X22967746Y1505229D03*
G01*
X26136854Y1505229D03*
G01*
X25243281Y-977264D03*
G01*
X31016956Y-903579D03*
G01*
X30988000Y1943607D03*
G01*
X32112204Y1216990D03*
G01*
X31735013Y-913460D03*
G01*
X33924493Y1359915D03*
G01*
X31828486Y2643682D03*
G01*
X36096956Y-902538D03*
G01*
X35045904Y1512265D03*
G01*
X39719758Y-935710D03*
G01*
X37366956Y-900125D03*
G01*
X35107372Y2254885D03*
G01*
X36026598Y2295296D03*
G01*
X11927306Y1540510D03*
G01*
X6887006Y-900506D03*
G01*
X16862780Y4562119D03*
G01*
X7738160Y5753480D03*
G01*
X8052384Y4738852D03*
G01*
X31716979Y5616702D03*
G01*
X11146993Y138785D03*
G01*
X10804448Y-1835886D03*
G01*
X20748243Y4245813D03*
G01*
X6782308Y5594172D03*
G01*
X8037220Y1359915D03*
G01*
X1779320Y1050569D03*
G01*
X39545768Y1356309D03*
G01*
X33037779Y5790031D03*
M02*
