M48
METRIC,LZ,000.000
;FILE_FORMAT=3:3
;TYPE=PLATED
;Layer: PTH_Through
;EasyEDA v6.5.43, 2024-08-27 15:16:03
;cb6e2e9fbd21486d88ae5690d2d3dc00,10
;Gerber Generator version 0.2
;Holesize 1 = 0.501 mm
T01C0.501
;Holesize 2 = 0.600 mm
T02C0.600
;Holesize 3 = 0.701 mm
T03C0.701
;Holesize 4 = 0.800 mm
T04C0.800
;Holesize 5 = 0.889 mm
T05C0.889
;Holesize 6 = 1.000 mm
T06C1.000
%
G05
G90
T01
X127508Y048006
X125984Y045085
X135244Y048641
X135255Y044450
T02
X154686Y045278
T03
X106680Y031920
X106680Y021420
X119380Y031920
X119380Y021420
X132080Y031920
X132080Y021420
X144780Y031920
X144780Y021420
X157480Y031920
X157480Y021420
X170180Y031920
X170180Y021420
X182880Y031920
X182880Y021420
X195580Y031920
X195580Y021420
X208280Y031920
X208280Y021420
X220980Y031920
X220980Y021420
X233680Y031920
X233680Y021420
X246380Y031920
X246380Y021420
X259079Y031920
X259079Y021420
X271779Y031920
X271779Y021420
X284479Y031920
X284479Y021420
X297179Y031920
X297179Y021420
X081280Y021420
X081280Y031920
X068580Y021420
X068580Y031920
X055880Y021420
X055880Y031920
X043180Y021420
X043180Y031920
X030480Y021420
X030480Y031920
X017780Y021420
X017780Y031920
X005080Y021420
X005080Y031920
X093980Y021420
X093980Y031920
T04
X064770Y046950
X064770Y041950
X146050Y041950
X146050Y046950
X234823Y041950
X234823Y046950
T05
X151130Y066040
X148590Y066040
X146050Y066040
X143510Y066040
X140970Y066040
T06
X069850Y048260
X072390Y048260
X074930Y048260
X077470Y048260
X080010Y048260
X082550Y048260
X085090Y048260
X087630Y048260
X087630Y040640
X085090Y040640
X082550Y040640
X080010Y040640
X077470Y040640
X074930Y040640
X072390Y040640
X069850Y040640
X152146Y048260
X154686Y048260
X157226Y048260
X159766Y048260
X162306Y048260
X164846Y048260
X167386Y048260
X169926Y048260
X169926Y040640
X167386Y040640
X164846Y040640
X162306Y040640
X159766Y040640
X157226Y040640
X154686Y040640
X152146Y040640
X242951Y048260
X245491Y048260
X248031Y048260
X250571Y048260
X253111Y048260
X255651Y048260
X258191Y048260
X260731Y048260
X260731Y040640
X258191Y040640
X255651Y040640
X253111Y040640
X250571Y040640
X248031Y040640
X245491Y040640
X242951Y040640
X289306Y000000
X263869Y000000
X238469Y000000
X200370Y000036
X174970Y000000
X136870Y-000127
X111470Y000000
X086106Y000000
X047970Y000000
X022606Y000000
M30
