G04 Layer: BottomLayer*
G04 EasyEDA v6.5.43, 2024-08-27 15:16:03*
G04 cb6e2e9fbd21486d88ae5690d2d3dc00,10*
G04 Gerber Generator version 0.2*
G04 Scale: 100 percent, Rotated: No, Reflected: No *
G04 Dimensions in millimeters *
G04 leading zeros omitted , absolute positions ,4 integer and 5 decimal *
%FSLAX45Y45*%
%MOMM*%

%ADD10C,0.6000*%
%ADD11C,1.0000*%
%ADD12C,0.2540*%
%ADD13C,1.6000*%
%ADD14R,1.6000X1.6000*%
%ADD15C,1.5748*%
%ADD16R,1.5748X1.5748*%
%ADD17C,1.4000*%
%ADD18C,0.9000*%
%ADD19C,0.0180*%

%LPD*%
G36*
X290068Y-2768092D02*
G01*
X286156Y-2767330D01*
X282905Y-2765094D01*
X280670Y-2761843D01*
X279908Y-2757932D01*
X279908Y7075931D01*
X280670Y7079843D01*
X282905Y7083094D01*
X286156Y7085330D01*
X290068Y7086092D01*
X30443932Y7086092D01*
X30447843Y7085330D01*
X30451094Y7083094D01*
X30453330Y7079843D01*
X30454092Y7075931D01*
X30454092Y-2757932D01*
X30453330Y-2761843D01*
X30451094Y-2765094D01*
X30447843Y-2767330D01*
X30443932Y-2768092D01*
G37*

%LPC*%
G36*
X13683589Y-113537D02*
G01*
X13697051Y-113080D01*
X13710361Y-110845D01*
X13723213Y-106832D01*
X13735456Y-101193D01*
X13746835Y-93929D01*
X13750544Y-90779D01*
X13753592Y-89001D01*
X13757046Y-88392D01*
X17427244Y-76149D01*
X17430445Y-76657D01*
X17433290Y-78130D01*
X17442688Y-85039D01*
X17454524Y-91490D01*
X17467072Y-96367D01*
X17480178Y-99466D01*
X17493589Y-100838D01*
X17507051Y-100380D01*
X17520361Y-98145D01*
X17533213Y-94132D01*
X17545456Y-88493D01*
X17556835Y-81229D01*
X17560391Y-78232D01*
X17563439Y-76454D01*
X17566894Y-75793D01*
X19967092Y-72390D01*
X19970292Y-72898D01*
X19973137Y-74371D01*
X19982688Y-81432D01*
X19994524Y-87884D01*
X20007122Y-92760D01*
X20020229Y-95859D01*
X20033640Y-97231D01*
X20047102Y-96774D01*
X20060361Y-94538D01*
X20073264Y-90525D01*
X20085456Y-84886D01*
X20096835Y-77622D01*
X20100188Y-74777D01*
X20103287Y-72999D01*
X20106792Y-72390D01*
X23776838Y-75844D01*
X23780038Y-76352D01*
X23782883Y-77825D01*
X23792637Y-85039D01*
X23804473Y-91490D01*
X23817072Y-96367D01*
X23830178Y-99466D01*
X23843589Y-100838D01*
X23857051Y-100380D01*
X23870310Y-98145D01*
X23883213Y-94132D01*
X23895405Y-88493D01*
X23906784Y-81229D01*
X23910239Y-78333D01*
X23913287Y-76504D01*
X23916792Y-75895D01*
X26316939Y-75895D01*
X26320089Y-76403D01*
X26322934Y-77876D01*
X26332637Y-85039D01*
X26344473Y-91490D01*
X26357072Y-96367D01*
X26370178Y-99466D01*
X26383589Y-100838D01*
X26397051Y-100380D01*
X26410310Y-98145D01*
X26423213Y-94132D01*
X26435405Y-88493D01*
X26446784Y-81229D01*
X26450239Y-78333D01*
X26453287Y-76504D01*
X26456792Y-75895D01*
X28860597Y-75895D01*
X28863747Y-76403D01*
X28866592Y-77876D01*
X28876294Y-85039D01*
X28888131Y-91490D01*
X28900729Y-96367D01*
X28913836Y-99466D01*
X28927247Y-100838D01*
X28940709Y-100380D01*
X28953968Y-98145D01*
X28966871Y-94132D01*
X28979063Y-88493D01*
X28990442Y-81229D01*
X29000754Y-72542D01*
X29009797Y-62534D01*
X29017417Y-51409D01*
X29023462Y-39370D01*
X29027882Y-26670D01*
X29030574Y-13462D01*
X29031488Y0D01*
X29030574Y13462D01*
X29027882Y26670D01*
X29023462Y39370D01*
X29017417Y51409D01*
X29009797Y62534D01*
X29000754Y72542D01*
X28990442Y81229D01*
X28979063Y88493D01*
X28966871Y94132D01*
X28953968Y98145D01*
X28940709Y100380D01*
X28927247Y100838D01*
X28913836Y99466D01*
X28900729Y96367D01*
X28888131Y91490D01*
X28876294Y85039D01*
X28866592Y77876D01*
X28863747Y76403D01*
X28860597Y75895D01*
X26456792Y75895D01*
X26453287Y76504D01*
X26450239Y78333D01*
X26446784Y81229D01*
X26435405Y88493D01*
X26423213Y94132D01*
X26410310Y98145D01*
X26397051Y100380D01*
X26383589Y100838D01*
X26370178Y99466D01*
X26357072Y96367D01*
X26344473Y91490D01*
X26332637Y85039D01*
X26322934Y77876D01*
X26320089Y76403D01*
X26316939Y75895D01*
X23916792Y75895D01*
X23913287Y76504D01*
X23910239Y78333D01*
X23906784Y81229D01*
X23895405Y88493D01*
X23883213Y94132D01*
X23870310Y98145D01*
X23857051Y100380D01*
X23843589Y100838D01*
X23830178Y99466D01*
X23817072Y96367D01*
X23804473Y91490D01*
X23792637Y85039D01*
X23783036Y77978D01*
X23780191Y76504D01*
X23776990Y75996D01*
X20106894Y79451D01*
X20103439Y80060D01*
X20100340Y81838D01*
X20096835Y84836D01*
X20085456Y92100D01*
X20073264Y97739D01*
X20060361Y101752D01*
X20047102Y103987D01*
X20033640Y104444D01*
X20020229Y103073D01*
X20007122Y99974D01*
X19994524Y95097D01*
X19982688Y88646D01*
X19972883Y81381D01*
X19970038Y79908D01*
X19966838Y79400D01*
X17566741Y75996D01*
X17563236Y76606D01*
X17560137Y78384D01*
X17556835Y81229D01*
X17545456Y88493D01*
X17533213Y94132D01*
X17520361Y98145D01*
X17507051Y100380D01*
X17493589Y100838D01*
X17480178Y99466D01*
X17467072Y96367D01*
X17454524Y91490D01*
X17442688Y85039D01*
X17432680Y77673D01*
X17429835Y76200D01*
X17426686Y75692D01*
X13756589Y63449D01*
X13753084Y64058D01*
X13749985Y65836D01*
X13746835Y68529D01*
X13735456Y75793D01*
X13723213Y81432D01*
X13710361Y85445D01*
X13697051Y87680D01*
X13683589Y88138D01*
X13670178Y86766D01*
X13657072Y83667D01*
X13644524Y78790D01*
X13632688Y72339D01*
X13623442Y65532D01*
X13620597Y64058D01*
X13617397Y63550D01*
X11217148Y75590D01*
X11213693Y76200D01*
X11210645Y77978D01*
X11206835Y81229D01*
X11195456Y88493D01*
X11183213Y94132D01*
X11170361Y98145D01*
X11157051Y100380D01*
X11143589Y100838D01*
X11130178Y99466D01*
X11117072Y96367D01*
X11104524Y91490D01*
X11092688Y85039D01*
X11082985Y77876D01*
X11080140Y76403D01*
X11076940Y75895D01*
X8680450Y75895D01*
X8676944Y76504D01*
X8673896Y78333D01*
X8670442Y81229D01*
X8659063Y88493D01*
X8646871Y94132D01*
X8633968Y98145D01*
X8620709Y100380D01*
X8607247Y100838D01*
X8593836Y99466D01*
X8580729Y96367D01*
X8568131Y91490D01*
X8556294Y85039D01*
X8546592Y77876D01*
X8543747Y76403D01*
X8540597Y75895D01*
X4866843Y75895D01*
X4863338Y76504D01*
X4860290Y78333D01*
X4856835Y81229D01*
X4845456Y88493D01*
X4833264Y94132D01*
X4820361Y98145D01*
X4807102Y100380D01*
X4793640Y100838D01*
X4780229Y99466D01*
X4767122Y96367D01*
X4754524Y91490D01*
X4742688Y85039D01*
X4732985Y77876D01*
X4730140Y76403D01*
X4726990Y75895D01*
X2330450Y75895D01*
X2326944Y76504D01*
X2323896Y78333D01*
X2320442Y81229D01*
X2309063Y88493D01*
X2296871Y94132D01*
X2283968Y98145D01*
X2270709Y100380D01*
X2257247Y100838D01*
X2243836Y99466D01*
X2230729Y96367D01*
X2218131Y91490D01*
X2206294Y85039D01*
X2195474Y77063D01*
X2185771Y67665D01*
X2177440Y57099D01*
X2170582Y45516D01*
X2165299Y33070D01*
X2161743Y20116D01*
X2159914Y6756D01*
X2159914Y-6756D01*
X2161743Y-20116D01*
X2165299Y-33070D01*
X2170582Y-45516D01*
X2177440Y-57099D01*
X2185771Y-67665D01*
X2195474Y-77063D01*
X2206294Y-85039D01*
X2218131Y-91490D01*
X2230729Y-96367D01*
X2243836Y-99466D01*
X2257247Y-100838D01*
X2270709Y-100380D01*
X2283968Y-98145D01*
X2296871Y-94132D01*
X2309063Y-88493D01*
X2320442Y-81229D01*
X2323896Y-78333D01*
X2326944Y-76504D01*
X2330450Y-75895D01*
X4726990Y-75895D01*
X4730140Y-76403D01*
X4732985Y-77876D01*
X4742688Y-85039D01*
X4754524Y-91490D01*
X4767122Y-96367D01*
X4780229Y-99466D01*
X4793640Y-100838D01*
X4807102Y-100380D01*
X4820361Y-98145D01*
X4833264Y-94132D01*
X4845456Y-88493D01*
X4856835Y-81229D01*
X4860290Y-78333D01*
X4863338Y-76504D01*
X4866843Y-75895D01*
X8540597Y-75895D01*
X8543747Y-76403D01*
X8546592Y-77876D01*
X8556294Y-85039D01*
X8568131Y-91490D01*
X8580729Y-96367D01*
X8593836Y-99466D01*
X8607247Y-100838D01*
X8620709Y-100380D01*
X8633968Y-98145D01*
X8646871Y-94132D01*
X8659063Y-88493D01*
X8670442Y-81229D01*
X8673896Y-78333D01*
X8676944Y-76504D01*
X8680450Y-75895D01*
X11076940Y-75895D01*
X11080140Y-76403D01*
X11082985Y-77876D01*
X11092688Y-85039D01*
X11104524Y-91490D01*
X11117072Y-96367D01*
X11130178Y-99466D01*
X11143589Y-100838D01*
X11157051Y-100380D01*
X11170361Y-98145D01*
X11183213Y-94132D01*
X11195456Y-88493D01*
X11206835Y-81229D01*
X11209883Y-78638D01*
X11212931Y-76860D01*
X11216487Y-76250D01*
X13616533Y-88239D01*
X13619683Y-88747D01*
X13622528Y-90220D01*
X13632688Y-97739D01*
X13644524Y-104190D01*
X13657072Y-109067D01*
X13670178Y-112166D01*
G37*
G36*
X17018000Y3096107D02*
G01*
X17031055Y3097022D01*
X17043857Y3099663D01*
X17056201Y3104083D01*
X17067834Y3110077D01*
X17078502Y3117646D01*
X17088053Y3126536D01*
X17096333Y3136696D01*
X17103140Y3147872D01*
X17108373Y3159912D01*
X17111878Y3172510D01*
X17113656Y3185464D01*
X17113656Y3198571D01*
X17111878Y3211525D01*
X17108373Y3224123D01*
X17103140Y3236112D01*
X17096333Y3247288D01*
X17088053Y3257448D01*
X17078502Y3266389D01*
X17075759Y3268319D01*
X17073524Y3270503D01*
X17072051Y3273247D01*
X17071492Y3276346D01*
X17051274Y3970426D01*
X17051731Y3973779D01*
X17053306Y3976827D01*
X17067428Y3989120D01*
X17076572Y3999534D01*
X17084243Y4011066D01*
X17090390Y4023512D01*
X17094860Y4036618D01*
X17097552Y4050182D01*
X17098467Y4064000D01*
X17097552Y4077817D01*
X17094860Y4091432D01*
X17090390Y4104538D01*
X17084243Y4116933D01*
X17076572Y4128465D01*
X17067428Y4138879D01*
X17057014Y4148023D01*
X17045482Y4155694D01*
X17033087Y4161840D01*
X17019981Y4166311D01*
X17006366Y4169003D01*
X16992549Y4169918D01*
X16978731Y4169003D01*
X16965168Y4166311D01*
X16952061Y4161840D01*
X16939615Y4155694D01*
X16928084Y4148023D01*
X16917670Y4138879D01*
X16908576Y4128465D01*
X16900855Y4116933D01*
X16894759Y4104538D01*
X16890288Y4091432D01*
X16887596Y4077817D01*
X16886682Y4064000D01*
X16887596Y4050182D01*
X16890288Y4036618D01*
X16894759Y4023512D01*
X16900855Y4011066D01*
X16908576Y3999534D01*
X16917670Y3989120D01*
X16928084Y3980027D01*
X16934992Y3975404D01*
X16937329Y3973220D01*
X16938904Y3970426D01*
X16939463Y3967276D01*
X16959681Y3273145D01*
X16958919Y3268979D01*
X16956481Y3265424D01*
X16947946Y3257448D01*
X16939666Y3247288D01*
X16932859Y3236112D01*
X16927677Y3224123D01*
X16924121Y3211525D01*
X16922343Y3198571D01*
X16922343Y3185464D01*
X16924121Y3172510D01*
X16927677Y3159912D01*
X16932859Y3147872D01*
X16939666Y3136696D01*
X16947946Y3126536D01*
X16957497Y3117646D01*
X16968165Y3110077D01*
X16979798Y3104083D01*
X16992142Y3099663D01*
X17004944Y3097022D01*
G37*
G36*
X25907949Y3096107D02*
G01*
X25921004Y3097022D01*
X25933806Y3099663D01*
X25946150Y3104032D01*
X25957784Y3110077D01*
X25968452Y3117646D01*
X25978002Y3126536D01*
X25986282Y3136696D01*
X25993090Y3147872D01*
X25998322Y3159912D01*
X26001827Y3172510D01*
X26003605Y3185464D01*
X26003605Y3198520D01*
X26001827Y3211525D01*
X25998322Y3224123D01*
X25993090Y3236112D01*
X25986282Y3247288D01*
X25978002Y3257448D01*
X25965912Y3268827D01*
X25964438Y3271672D01*
X25963930Y3274872D01*
X25963930Y3746296D01*
X25963676Y3751376D01*
X25963067Y3756202D01*
X25962000Y3760978D01*
X25960527Y3765600D01*
X25958647Y3770122D01*
X25956412Y3774440D01*
X25953770Y3778554D01*
X25950824Y3782415D01*
X25947370Y3786174D01*
X25877977Y3855567D01*
X25875792Y3858869D01*
X25875030Y3862781D01*
X25875030Y3968902D01*
X25875538Y3972153D01*
X25877113Y3975100D01*
X25879501Y3977335D01*
X25883514Y3980027D01*
X25893928Y3989120D01*
X25903072Y3999534D01*
X25910743Y4011066D01*
X25916890Y4023512D01*
X25921360Y4036618D01*
X25924052Y4050182D01*
X25924967Y4064000D01*
X25924052Y4077817D01*
X25921360Y4091432D01*
X25916890Y4104538D01*
X25910743Y4116984D01*
X25903072Y4128465D01*
X25893928Y4138879D01*
X25883514Y4148023D01*
X25871982Y4155694D01*
X25859587Y4161840D01*
X25846481Y4166311D01*
X25832866Y4169003D01*
X25819049Y4169918D01*
X25805231Y4169003D01*
X25791668Y4166311D01*
X25778561Y4161840D01*
X25766115Y4155694D01*
X25754584Y4148023D01*
X25744170Y4138879D01*
X25735076Y4128465D01*
X25727355Y4116984D01*
X25721259Y4104538D01*
X25716788Y4091432D01*
X25714096Y4077817D01*
X25713182Y4064000D01*
X25714096Y4050182D01*
X25716788Y4036618D01*
X25721259Y4023512D01*
X25727355Y4011066D01*
X25735076Y3999534D01*
X25744170Y3989120D01*
X25754584Y3980027D01*
X25758698Y3977284D01*
X25761086Y3975049D01*
X25762661Y3972102D01*
X25763169Y3968851D01*
X25763169Y3835603D01*
X25763423Y3830523D01*
X25764032Y3825697D01*
X25765099Y3820922D01*
X25766572Y3816299D01*
X25768452Y3811778D01*
X25770687Y3807460D01*
X25773329Y3803345D01*
X25776275Y3799484D01*
X25779730Y3795725D01*
X25849122Y3726332D01*
X25851307Y3723030D01*
X25852069Y3719118D01*
X25852069Y3274923D01*
X25851561Y3271723D01*
X25850088Y3268878D01*
X25837896Y3257448D01*
X25829615Y3247288D01*
X25822808Y3236112D01*
X25817626Y3224123D01*
X25814070Y3211525D01*
X25812292Y3198520D01*
X25812292Y3185464D01*
X25814070Y3172510D01*
X25817626Y3159912D01*
X25822808Y3147872D01*
X25829615Y3136696D01*
X25837896Y3126536D01*
X25847446Y3117646D01*
X25858114Y3110077D01*
X25869747Y3104032D01*
X25882092Y3099663D01*
X25894893Y3097022D01*
G37*
G36*
X24638000Y3096107D02*
G01*
X24651055Y3097022D01*
X24663857Y3099663D01*
X24676201Y3104032D01*
X24687834Y3110077D01*
X24698502Y3117646D01*
X24708053Y3126536D01*
X24712777Y3132328D01*
X24716282Y3135122D01*
X24720651Y3136087D01*
X24908764Y3136087D01*
X24913844Y3136290D01*
X24918720Y3136950D01*
X24923445Y3138017D01*
X24928118Y3139440D01*
X24932640Y3141319D01*
X24936958Y3143605D01*
X24941072Y3146196D01*
X24944933Y3149193D01*
X24948692Y3152597D01*
X25604470Y3808425D01*
X25607924Y3812184D01*
X25610870Y3816045D01*
X25613512Y3820160D01*
X25615747Y3824478D01*
X25617627Y3828999D01*
X25619100Y3833622D01*
X25620167Y3838397D01*
X25620776Y3843223D01*
X25621030Y3848303D01*
X25621030Y3968902D01*
X25621538Y3972153D01*
X25623113Y3975100D01*
X25625501Y3977335D01*
X25629514Y3980027D01*
X25639928Y3989120D01*
X25649072Y3999534D01*
X25656743Y4011066D01*
X25662890Y4023512D01*
X25667360Y4036618D01*
X25670052Y4050182D01*
X25670967Y4064000D01*
X25670052Y4077817D01*
X25667360Y4091432D01*
X25662890Y4104538D01*
X25656743Y4116984D01*
X25649072Y4128465D01*
X25639928Y4138879D01*
X25629514Y4148023D01*
X25617982Y4155694D01*
X25605587Y4161840D01*
X25592481Y4166311D01*
X25578866Y4169003D01*
X25565049Y4169918D01*
X25551231Y4169003D01*
X25537668Y4166311D01*
X25524561Y4161840D01*
X25512115Y4155694D01*
X25500584Y4148023D01*
X25490170Y4138879D01*
X25481076Y4128465D01*
X25473355Y4116984D01*
X25467259Y4104538D01*
X25462788Y4091432D01*
X25460096Y4077817D01*
X25459182Y4064000D01*
X25460096Y4050182D01*
X25462788Y4036618D01*
X25467259Y4023512D01*
X25473355Y4011066D01*
X25481076Y3999534D01*
X25490170Y3989120D01*
X25500584Y3980027D01*
X25504698Y3977284D01*
X25507086Y3975049D01*
X25508661Y3972102D01*
X25509169Y3968851D01*
X25509169Y3875481D01*
X25508407Y3871569D01*
X25506222Y3868267D01*
X24888799Y3250895D01*
X24885497Y3248660D01*
X24881636Y3247898D01*
X24720651Y3247898D01*
X24716333Y3248863D01*
X24712777Y3251657D01*
X24708053Y3257448D01*
X24698502Y3266389D01*
X24687834Y3273907D01*
X24676201Y3279952D01*
X24663857Y3284321D01*
X24651055Y3287014D01*
X24638000Y3287877D01*
X24624944Y3287014D01*
X24612142Y3284321D01*
X24599798Y3279952D01*
X24588165Y3273907D01*
X24577497Y3266389D01*
X24567946Y3257448D01*
X24559666Y3247288D01*
X24552859Y3236112D01*
X24547677Y3224123D01*
X24544121Y3211525D01*
X24542343Y3198520D01*
X24542343Y3185464D01*
X24544121Y3172510D01*
X24547677Y3159912D01*
X24552859Y3147872D01*
X24559666Y3136696D01*
X24567946Y3126536D01*
X24577497Y3117646D01*
X24588165Y3110077D01*
X24599798Y3104032D01*
X24612142Y3099663D01*
X24624944Y3097022D01*
G37*
G36*
X27177949Y3096107D02*
G01*
X27191004Y3097022D01*
X27203806Y3099663D01*
X27216150Y3104032D01*
X27227784Y3110077D01*
X27238452Y3117646D01*
X27248002Y3126536D01*
X27256282Y3136696D01*
X27263089Y3147872D01*
X27268271Y3159912D01*
X27271827Y3172510D01*
X27273605Y3185464D01*
X27273605Y3198520D01*
X27271827Y3211525D01*
X27268271Y3224123D01*
X27263089Y3236112D01*
X27256282Y3247288D01*
X27248002Y3257448D01*
X27238452Y3266389D01*
X27227784Y3273907D01*
X27216150Y3279952D01*
X27203806Y3284321D01*
X27191004Y3287014D01*
X27177949Y3287877D01*
X27164893Y3287014D01*
X27152092Y3284321D01*
X27139747Y3279952D01*
X27128114Y3273907D01*
X27117446Y3266389D01*
X27107896Y3257448D01*
X27103171Y3251657D01*
X27099615Y3248863D01*
X27095297Y3247898D01*
X26972463Y3247898D01*
X26968602Y3248660D01*
X26965300Y3250895D01*
X26179881Y4036263D01*
X26177951Y4038955D01*
X26176986Y4042156D01*
X26177087Y4045458D01*
X26178052Y4050182D01*
X26178967Y4064000D01*
X26178052Y4077817D01*
X26175360Y4091432D01*
X26170889Y4104538D01*
X26164743Y4116984D01*
X26157072Y4128465D01*
X26147928Y4138879D01*
X26137514Y4148023D01*
X26125982Y4155694D01*
X26113587Y4161840D01*
X26100481Y4166311D01*
X26086866Y4169003D01*
X26073049Y4169918D01*
X26059231Y4169003D01*
X26045668Y4166311D01*
X26032561Y4161840D01*
X26020115Y4155694D01*
X26008584Y4148023D01*
X25998170Y4138879D01*
X25989076Y4128465D01*
X25981355Y4116984D01*
X25975259Y4104538D01*
X25970788Y4091432D01*
X25968096Y4077817D01*
X25967182Y4064000D01*
X25968096Y4050182D01*
X25970788Y4036618D01*
X25975259Y4023512D01*
X25981355Y4011066D01*
X25989076Y3999534D01*
X25998170Y3989120D01*
X26008584Y3980027D01*
X26020115Y3972306D01*
X26032561Y3966210D01*
X26045668Y3961739D01*
X26059231Y3959047D01*
X26073049Y3958132D01*
X26086866Y3959047D01*
X26091642Y3960012D01*
X26094943Y3960114D01*
X26098144Y3959148D01*
X26100836Y3957218D01*
X26905407Y3152597D01*
X26909166Y3149193D01*
X26913027Y3146196D01*
X26917142Y3143605D01*
X26921460Y3141319D01*
X26925981Y3139440D01*
X26930654Y3138017D01*
X26935379Y3136950D01*
X26940256Y3136290D01*
X26945336Y3136087D01*
X27095297Y3136087D01*
X27099666Y3135122D01*
X27103171Y3132328D01*
X27107896Y3126536D01*
X27117446Y3117646D01*
X27128114Y3110077D01*
X27139747Y3104032D01*
X27152092Y3099663D01*
X27164893Y3097022D01*
G37*
G36*
X8128000Y3096107D02*
G01*
X8141055Y3097022D01*
X8153857Y3099663D01*
X8166201Y3104032D01*
X8177784Y3110077D01*
X8188502Y3117646D01*
X8198053Y3126536D01*
X8202777Y3132378D01*
X8206282Y3135122D01*
X8210651Y3136087D01*
X8779814Y3136087D01*
X8784894Y3136341D01*
X8789720Y3136950D01*
X8794496Y3138017D01*
X8799118Y3139490D01*
X8803640Y3141370D01*
X8807958Y3143605D01*
X8812072Y3146247D01*
X8815933Y3149193D01*
X8819692Y3152648D01*
X9183370Y3516325D01*
X9186824Y3520084D01*
X9189770Y3523945D01*
X9192412Y3528060D01*
X9194647Y3532378D01*
X9196527Y3536899D01*
X9198000Y3541522D01*
X9199067Y3546297D01*
X9199676Y3551123D01*
X9199930Y3556203D01*
X9199880Y4700574D01*
X9198660Y4710582D01*
X9195816Y4719929D01*
X9191396Y4728616D01*
X9185249Y4736744D01*
X9071559Y4863084D01*
X9064091Y4869992D01*
X9055963Y4875326D01*
X9046972Y4879136D01*
X9037421Y4881321D01*
X9029344Y4881930D01*
X8858097Y4881930D01*
X8854846Y4882438D01*
X8851950Y4884013D01*
X8849664Y4886401D01*
X8846972Y4890465D01*
X8837828Y4900879D01*
X8827414Y4910023D01*
X8815882Y4917694D01*
X8803487Y4923840D01*
X8790381Y4928311D01*
X8776766Y4931003D01*
X8762949Y4931918D01*
X8749131Y4931003D01*
X8735568Y4928311D01*
X8722461Y4923840D01*
X8710015Y4917694D01*
X8698484Y4910023D01*
X8688070Y4900879D01*
X8678976Y4890465D01*
X8671255Y4878933D01*
X8665159Y4866538D01*
X8660688Y4853432D01*
X8657996Y4839817D01*
X8657082Y4826000D01*
X8657996Y4812182D01*
X8660688Y4798618D01*
X8665159Y4785512D01*
X8671255Y4773066D01*
X8678976Y4761534D01*
X8688070Y4751120D01*
X8698484Y4742027D01*
X8710015Y4734306D01*
X8722461Y4728159D01*
X8735568Y4723739D01*
X8749131Y4721047D01*
X8762949Y4720132D01*
X8776766Y4721047D01*
X8790381Y4723739D01*
X8803487Y4728159D01*
X8815882Y4734306D01*
X8827414Y4742027D01*
X8837828Y4751120D01*
X8846972Y4761534D01*
X8849664Y4765598D01*
X8851900Y4767986D01*
X8854846Y4769561D01*
X8858097Y4770069D01*
X9000286Y4770069D01*
X9004401Y4769205D01*
X9007805Y4766716D01*
X9085478Y4680458D01*
X9087408Y4677308D01*
X9088069Y4673650D01*
X9088069Y3583381D01*
X9087307Y3579469D01*
X9085122Y3576167D01*
X8759850Y3250895D01*
X8756548Y3248710D01*
X8752636Y3247948D01*
X8210651Y3247948D01*
X8206282Y3248914D01*
X8202777Y3251657D01*
X8198053Y3257448D01*
X8188502Y3266389D01*
X8177784Y3273907D01*
X8166201Y3279952D01*
X8153857Y3284321D01*
X8141055Y3287014D01*
X8128000Y3287877D01*
X8114944Y3287014D01*
X8102092Y3284321D01*
X8089798Y3279952D01*
X8078165Y3273907D01*
X8067497Y3266389D01*
X8057896Y3257448D01*
X8049666Y3247288D01*
X8042859Y3236112D01*
X8037626Y3224123D01*
X8034121Y3211525D01*
X8032343Y3198520D01*
X8032343Y3185464D01*
X8034121Y3172510D01*
X8037626Y3159912D01*
X8042859Y3147872D01*
X8049666Y3136696D01*
X8057896Y3126536D01*
X8067497Y3117646D01*
X8078165Y3110077D01*
X8089798Y3104032D01*
X8102092Y3099663D01*
X8114944Y3097022D01*
G37*
G36*
X28447949Y3096107D02*
G01*
X28461004Y3097022D01*
X28473806Y3099663D01*
X28486150Y3104032D01*
X28497784Y3110077D01*
X28508452Y3117596D01*
X28518002Y3126536D01*
X28526282Y3136696D01*
X28533089Y3147872D01*
X28538271Y3159861D01*
X28541827Y3172510D01*
X28543605Y3185464D01*
X28543605Y3198520D01*
X28541827Y3211525D01*
X28538271Y3224123D01*
X28533089Y3236112D01*
X28526282Y3247288D01*
X28518002Y3257448D01*
X28505912Y3268776D01*
X28504438Y3271672D01*
X28503930Y3274872D01*
X28503930Y4571796D01*
X28503676Y4576876D01*
X28503067Y4581702D01*
X28502000Y4586478D01*
X28500527Y4591100D01*
X28498647Y4595622D01*
X28496412Y4599940D01*
X28493770Y4604054D01*
X28490824Y4607915D01*
X28487370Y4611674D01*
X28233674Y4865370D01*
X28229915Y4868824D01*
X28226054Y4871770D01*
X28221939Y4874412D01*
X28217622Y4876647D01*
X28213100Y4878527D01*
X28208477Y4880000D01*
X28203702Y4881067D01*
X28198876Y4881676D01*
X28193796Y4881930D01*
X26168248Y4881930D01*
X26164946Y4882438D01*
X26162050Y4884013D01*
X26159764Y4886401D01*
X26157072Y4890465D01*
X26147928Y4900879D01*
X26137514Y4910023D01*
X26125982Y4917694D01*
X26113587Y4923840D01*
X26100481Y4928311D01*
X26086866Y4931003D01*
X26073049Y4931918D01*
X26059231Y4931003D01*
X26045668Y4928311D01*
X26032561Y4923840D01*
X26020115Y4917694D01*
X26008584Y4910023D01*
X25998170Y4900879D01*
X25989076Y4890465D01*
X25981355Y4878984D01*
X25975259Y4866538D01*
X25970788Y4853432D01*
X25968096Y4839817D01*
X25967182Y4826000D01*
X25968096Y4812182D01*
X25970788Y4798618D01*
X25975259Y4785512D01*
X25981355Y4773066D01*
X25989076Y4761534D01*
X25998170Y4751120D01*
X26008584Y4742027D01*
X26020115Y4734306D01*
X26032561Y4728210D01*
X26045668Y4723739D01*
X26059231Y4721047D01*
X26073049Y4720132D01*
X26086866Y4721047D01*
X26100481Y4723739D01*
X26113587Y4728210D01*
X26125982Y4734306D01*
X26137514Y4742027D01*
X26147928Y4751120D01*
X26157072Y4761534D01*
X26159764Y4765598D01*
X26162000Y4767986D01*
X26164946Y4769561D01*
X26168197Y4770069D01*
X28166618Y4770069D01*
X28170530Y4769307D01*
X28173832Y4767122D01*
X28389122Y4551832D01*
X28391307Y4548530D01*
X28392069Y4544618D01*
X28392069Y3274923D01*
X28391561Y3271723D01*
X28390088Y3268878D01*
X28377845Y3257448D01*
X28369615Y3247288D01*
X28362808Y3236112D01*
X28357576Y3224123D01*
X28354070Y3211525D01*
X28352292Y3198520D01*
X28352292Y3185464D01*
X28354070Y3172510D01*
X28357576Y3159861D01*
X28362808Y3147872D01*
X28369615Y3136696D01*
X28377845Y3126536D01*
X28387446Y3117596D01*
X28398114Y3110077D01*
X28409747Y3104032D01*
X28422092Y3099663D01*
X28434893Y3097022D01*
G37*
G36*
X20828000Y3096107D02*
G01*
X20841055Y3097022D01*
X20853857Y3099663D01*
X20866201Y3104032D01*
X20877834Y3110077D01*
X20888502Y3117646D01*
X20898053Y3126536D01*
X20906333Y3136696D01*
X20913140Y3147872D01*
X20918373Y3159912D01*
X20921878Y3172510D01*
X20923656Y3185464D01*
X20923656Y3198520D01*
X20923148Y3202381D01*
X20923199Y3205480D01*
X20924164Y3208426D01*
X20925993Y3210966D01*
X21539149Y3824071D01*
X21542451Y3826306D01*
X21546362Y3827068D01*
X22629469Y3827068D01*
X22633381Y3826306D01*
X22636683Y3824071D01*
X22638867Y3820769D01*
X22639629Y3816908D01*
X22638867Y3812997D01*
X22636683Y3809746D01*
X22116999Y3290062D01*
X22113392Y3287725D01*
X22109125Y3287115D01*
X22098000Y3287877D01*
X22084944Y3287014D01*
X22072142Y3284321D01*
X22059798Y3279952D01*
X22048165Y3273907D01*
X22037497Y3266389D01*
X22027946Y3257448D01*
X22019666Y3247288D01*
X22012859Y3236112D01*
X22007677Y3224123D01*
X22004121Y3211525D01*
X22002343Y3198520D01*
X22002343Y3185464D01*
X22004121Y3172510D01*
X22007677Y3159912D01*
X22012859Y3147872D01*
X22019666Y3136696D01*
X22027946Y3126536D01*
X22037497Y3117646D01*
X22048165Y3110077D01*
X22059798Y3104032D01*
X22072142Y3099663D01*
X22084944Y3097022D01*
X22098000Y3096107D01*
X22111055Y3097022D01*
X22123857Y3099663D01*
X22136201Y3104032D01*
X22147834Y3110077D01*
X22158502Y3117646D01*
X22168053Y3126536D01*
X22176333Y3136696D01*
X22183140Y3147872D01*
X22188373Y3159912D01*
X22191878Y3172510D01*
X22193656Y3185464D01*
X22193656Y3198520D01*
X22193148Y3202381D01*
X22193199Y3205480D01*
X22194164Y3208426D01*
X22195993Y3210966D01*
X22727564Y3742486D01*
X22730866Y3744722D01*
X22734778Y3745484D01*
X23822202Y3745484D01*
X23826063Y3744722D01*
X23829365Y3742486D01*
X23831550Y3739184D01*
X23832362Y3735324D01*
X23831550Y3731412D01*
X23829365Y3728161D01*
X23390860Y3289655D01*
X23388167Y3287674D01*
X23384967Y3286760D01*
X23368000Y3287877D01*
X23354944Y3287014D01*
X23342142Y3284321D01*
X23329798Y3279952D01*
X23318165Y3273907D01*
X23307497Y3266389D01*
X23297946Y3257448D01*
X23289666Y3247288D01*
X23282859Y3236112D01*
X23277677Y3224123D01*
X23274121Y3211525D01*
X23272343Y3198520D01*
X23272343Y3185464D01*
X23274121Y3172510D01*
X23277677Y3159912D01*
X23282859Y3147872D01*
X23289666Y3136696D01*
X23297946Y3126536D01*
X23307497Y3117646D01*
X23318165Y3110077D01*
X23329798Y3104032D01*
X23342142Y3099663D01*
X23354944Y3097022D01*
X23368000Y3096107D01*
X23381055Y3097022D01*
X23393857Y3099663D01*
X23406201Y3104032D01*
X23417834Y3110077D01*
X23428502Y3117646D01*
X23438053Y3126536D01*
X23446333Y3136696D01*
X23453140Y3147872D01*
X23458373Y3159912D01*
X23461878Y3172510D01*
X23463656Y3185464D01*
X23463707Y3201720D01*
X23464672Y3204667D01*
X23466552Y3207156D01*
X23921567Y3662222D01*
X23924869Y3664407D01*
X23928781Y3665169D01*
X24967996Y3665169D01*
X24973076Y3665423D01*
X24977902Y3666032D01*
X24982678Y3667099D01*
X24987300Y3668572D01*
X24991822Y3670452D01*
X24996140Y3672687D01*
X25000254Y3675329D01*
X25004115Y3678275D01*
X25007874Y3681729D01*
X25283363Y3957218D01*
X25286055Y3959098D01*
X25289205Y3960063D01*
X25292507Y3959961D01*
X25297231Y3959047D01*
X25311049Y3958132D01*
X25324866Y3959047D01*
X25338481Y3961739D01*
X25351587Y3966210D01*
X25363982Y3972306D01*
X25375514Y3980027D01*
X25385928Y3989120D01*
X25395072Y3999534D01*
X25402743Y4011066D01*
X25408890Y4023512D01*
X25413360Y4036618D01*
X25416052Y4050182D01*
X25416967Y4064000D01*
X25416052Y4077817D01*
X25413360Y4091432D01*
X25408890Y4104538D01*
X25402743Y4116984D01*
X25395072Y4128465D01*
X25385928Y4138879D01*
X25375514Y4148023D01*
X25363982Y4155694D01*
X25351587Y4161840D01*
X25338481Y4166311D01*
X25324866Y4169003D01*
X25311049Y4169918D01*
X25297231Y4169003D01*
X25283668Y4166311D01*
X25270561Y4161840D01*
X25258115Y4155694D01*
X25246584Y4148023D01*
X25236170Y4138879D01*
X25227076Y4128465D01*
X25219355Y4116984D01*
X25213259Y4104538D01*
X25208788Y4091432D01*
X25206096Y4077817D01*
X25205182Y4064000D01*
X25206096Y4050182D01*
X25207061Y4045407D01*
X25207163Y4042105D01*
X25206198Y4038904D01*
X25204267Y4036212D01*
X25160579Y3992575D01*
X25157023Y3990238D01*
X25152858Y3989628D01*
X25148743Y3990746D01*
X25145492Y3993438D01*
X25143561Y3997198D01*
X25143409Y4001465D01*
X25144984Y4005376D01*
X25148743Y4011066D01*
X25154890Y4023512D01*
X25159360Y4036618D01*
X25162052Y4050182D01*
X25162967Y4064000D01*
X25162052Y4077817D01*
X25159360Y4091432D01*
X25154890Y4104538D01*
X25148743Y4116984D01*
X25141072Y4128465D01*
X25131928Y4138879D01*
X25121514Y4148023D01*
X25109982Y4155694D01*
X25097587Y4161840D01*
X25084481Y4166311D01*
X25070866Y4169003D01*
X25057049Y4169918D01*
X25043231Y4169003D01*
X25029668Y4166311D01*
X25016561Y4161840D01*
X25004115Y4155694D01*
X24992584Y4148023D01*
X24982170Y4138879D01*
X24973076Y4128465D01*
X24965355Y4116984D01*
X24959259Y4104538D01*
X24954788Y4091432D01*
X24952096Y4077817D01*
X24951182Y4064000D01*
X24952096Y4050182D01*
X24953061Y4045407D01*
X24953163Y4042105D01*
X24952198Y4038904D01*
X24950267Y4036212D01*
X24906579Y3992575D01*
X24903023Y3990238D01*
X24898858Y3989628D01*
X24894743Y3990746D01*
X24891492Y3993438D01*
X24889561Y3997198D01*
X24889409Y4001465D01*
X24890984Y4005376D01*
X24894743Y4011066D01*
X24900890Y4023512D01*
X24905360Y4036618D01*
X24908052Y4050182D01*
X24908967Y4064000D01*
X24908052Y4077817D01*
X24905360Y4091432D01*
X24900890Y4104538D01*
X24894743Y4116984D01*
X24887072Y4128465D01*
X24877928Y4138879D01*
X24867514Y4148023D01*
X24855982Y4155694D01*
X24843587Y4161840D01*
X24830481Y4166311D01*
X24816866Y4169003D01*
X24803049Y4169918D01*
X24789231Y4169003D01*
X24775668Y4166311D01*
X24762561Y4161840D01*
X24750115Y4155694D01*
X24738584Y4148023D01*
X24728170Y4138879D01*
X24719076Y4128465D01*
X24711355Y4116984D01*
X24705259Y4104538D01*
X24700788Y4091432D01*
X24698096Y4077817D01*
X24697182Y4064000D01*
X24698096Y4050182D01*
X24699061Y4045407D01*
X24699163Y4042105D01*
X24698198Y4038904D01*
X24696267Y4036212D01*
X24652579Y3992575D01*
X24649023Y3990238D01*
X24644858Y3989628D01*
X24640743Y3990746D01*
X24637492Y3993438D01*
X24635561Y3997198D01*
X24635409Y4001465D01*
X24636984Y4005376D01*
X24640743Y4011066D01*
X24646890Y4023512D01*
X24651360Y4036618D01*
X24654052Y4050182D01*
X24654967Y4064000D01*
X24654052Y4077817D01*
X24651360Y4091432D01*
X24646890Y4104538D01*
X24640743Y4116984D01*
X24633072Y4128465D01*
X24623928Y4138879D01*
X24613514Y4148023D01*
X24601982Y4155694D01*
X24589587Y4161840D01*
X24576481Y4166311D01*
X24562866Y4169003D01*
X24549049Y4169918D01*
X24535231Y4169003D01*
X24521668Y4166311D01*
X24508561Y4161840D01*
X24496115Y4155694D01*
X24484584Y4148023D01*
X24474170Y4138879D01*
X24465076Y4128465D01*
X24457355Y4116984D01*
X24451259Y4104538D01*
X24446788Y4091432D01*
X24444096Y4077817D01*
X24443182Y4064000D01*
X24444096Y4050182D01*
X24446788Y4036618D01*
X24451259Y4023512D01*
X24457355Y4011066D01*
X24465076Y3999534D01*
X24474170Y3989120D01*
X24484584Y3980027D01*
X24496115Y3972306D01*
X24508561Y3966210D01*
X24521668Y3961739D01*
X24535384Y3958996D01*
X24539295Y3957320D01*
X24542191Y3954221D01*
X24543512Y3950157D01*
X24543105Y3945940D01*
X24540972Y3942283D01*
X24537568Y3939743D01*
X24533402Y3938879D01*
X24383695Y3938879D01*
X24379732Y3939692D01*
X24376380Y3941978D01*
X24374246Y3945382D01*
X24373535Y3949344D01*
X24374500Y3953306D01*
X24376888Y3956558D01*
X24380342Y3958640D01*
X24386286Y3960723D01*
X24391213Y3963822D01*
X24395277Y3967886D01*
X24398376Y3972814D01*
X24400306Y3978249D01*
X24401018Y3984548D01*
X24401018Y4143451D01*
X24400306Y4149750D01*
X24398376Y4155236D01*
X24395277Y4160113D01*
X24391213Y4164228D01*
X24386286Y4167276D01*
X24380850Y4169206D01*
X24374500Y4169918D01*
X24215648Y4169918D01*
X24209349Y4169206D01*
X24203863Y4167276D01*
X24198986Y4164228D01*
X24194871Y4160113D01*
X24191823Y4155236D01*
X24189893Y4149750D01*
X24189182Y4143451D01*
X24189182Y3984548D01*
X24189893Y3978249D01*
X24191823Y3972814D01*
X24194871Y3967886D01*
X24198986Y3963822D01*
X24203863Y3960723D01*
X24209857Y3958640D01*
X24213312Y3956558D01*
X24215699Y3953306D01*
X24216664Y3949344D01*
X24215953Y3945382D01*
X24213769Y3941978D01*
X24210467Y3939692D01*
X24206504Y3938879D01*
X21519184Y3938879D01*
X21514104Y3938676D01*
X21509278Y3938015D01*
X21504503Y3936949D01*
X21499880Y3935476D01*
X21495359Y3933647D01*
X21491041Y3931361D01*
X21486926Y3928770D01*
X21483066Y3925773D01*
X21479306Y3922369D01*
X20846999Y3290062D01*
X20843392Y3287725D01*
X20839125Y3287115D01*
X20828000Y3287877D01*
X20814944Y3287014D01*
X20802142Y3284321D01*
X20789798Y3279952D01*
X20778165Y3273907D01*
X20767497Y3266389D01*
X20757946Y3257448D01*
X20749666Y3247288D01*
X20742859Y3236112D01*
X20737677Y3224123D01*
X20734121Y3211525D01*
X20732343Y3198520D01*
X20732343Y3185464D01*
X20734121Y3172510D01*
X20737677Y3159912D01*
X20742859Y3147872D01*
X20749666Y3136696D01*
X20757946Y3126536D01*
X20767497Y3117646D01*
X20778165Y3110077D01*
X20789798Y3104032D01*
X20802142Y3099663D01*
X20814944Y3097022D01*
G37*
G36*
X18288000Y3096107D02*
G01*
X18301055Y3097022D01*
X18313857Y3099663D01*
X18326201Y3104083D01*
X18337834Y3110077D01*
X18348502Y3117646D01*
X18358053Y3126536D01*
X18366333Y3136696D01*
X18373140Y3147872D01*
X18378373Y3159912D01*
X18381878Y3172510D01*
X18383656Y3185464D01*
X18383656Y3198571D01*
X18381878Y3211525D01*
X18378373Y3224123D01*
X18373140Y3236112D01*
X18366333Y3247288D01*
X18358053Y3257448D01*
X18348502Y3266389D01*
X18337834Y3273907D01*
X18326201Y3279952D01*
X18313857Y3284321D01*
X18301055Y3287014D01*
X18288000Y3287877D01*
X18276874Y3287115D01*
X18272607Y3287725D01*
X18269000Y3290062D01*
X17051477Y4507585D01*
X17049292Y4510887D01*
X17048530Y4514748D01*
X17048530Y4730902D01*
X17049038Y4734153D01*
X17050613Y4737049D01*
X17053001Y4739335D01*
X17057014Y4742027D01*
X17067428Y4751120D01*
X17076572Y4761534D01*
X17084243Y4773066D01*
X17090390Y4785512D01*
X17094860Y4798618D01*
X17097552Y4812182D01*
X17098467Y4826000D01*
X17097552Y4839817D01*
X17094860Y4853432D01*
X17090390Y4866538D01*
X17084243Y4878933D01*
X17076572Y4890465D01*
X17067428Y4900879D01*
X17057014Y4910023D01*
X17045482Y4917694D01*
X17033087Y4923840D01*
X17019981Y4928311D01*
X17006366Y4931003D01*
X16992549Y4931918D01*
X16978731Y4931003D01*
X16965168Y4928311D01*
X16952061Y4923840D01*
X16939615Y4917694D01*
X16934230Y4914138D01*
X16930319Y4912563D01*
X16926052Y4912715D01*
X16922242Y4914595D01*
X16919549Y4917897D01*
X16918432Y4922012D01*
X16919092Y4926177D01*
X16921429Y4929733D01*
X17050867Y5059222D01*
X17054169Y5061407D01*
X17058081Y5062169D01*
X17604536Y5062169D01*
X17608397Y5061407D01*
X17611699Y5059222D01*
X19460006Y3210966D01*
X19461835Y3208426D01*
X19462800Y3205480D01*
X19462851Y3202381D01*
X19462343Y3198520D01*
X19462343Y3185464D01*
X19464121Y3172510D01*
X19467677Y3159912D01*
X19472859Y3147872D01*
X19479666Y3136696D01*
X19487946Y3126536D01*
X19497497Y3117646D01*
X19508165Y3110077D01*
X19519798Y3104032D01*
X19532142Y3099663D01*
X19544944Y3097022D01*
X19558000Y3096107D01*
X19571055Y3097022D01*
X19583857Y3099663D01*
X19596201Y3104032D01*
X19607834Y3110077D01*
X19618502Y3117646D01*
X19628053Y3126536D01*
X19636333Y3136696D01*
X19643140Y3147872D01*
X19648373Y3159912D01*
X19651878Y3172510D01*
X19653656Y3185464D01*
X19653656Y3198520D01*
X19651878Y3211525D01*
X19648373Y3224123D01*
X19643140Y3236112D01*
X19636333Y3247288D01*
X19628053Y3257448D01*
X19618502Y3266389D01*
X19607834Y3273907D01*
X19596201Y3279952D01*
X19583857Y3284321D01*
X19571055Y3287014D01*
X19558000Y3287877D01*
X19546874Y3287115D01*
X19542607Y3287725D01*
X19539000Y3290062D01*
X17671592Y5157470D01*
X17667833Y5160924D01*
X17663972Y5163870D01*
X17659858Y5166512D01*
X17655540Y5168747D01*
X17651018Y5170627D01*
X17646345Y5172100D01*
X17641620Y5173167D01*
X17636744Y5173776D01*
X17631664Y5174030D01*
X17030903Y5174030D01*
X17025823Y5173776D01*
X17020997Y5173167D01*
X17016222Y5172100D01*
X17011599Y5170627D01*
X17007078Y5168747D01*
X17002760Y5166512D01*
X16998645Y5163870D01*
X16994784Y5160924D01*
X16991025Y5157470D01*
X16766336Y4932832D01*
X16763644Y4930902D01*
X16760494Y4929936D01*
X16757192Y4930038D01*
X16752366Y4931003D01*
X16738549Y4931918D01*
X16724731Y4931003D01*
X16711168Y4928311D01*
X16698061Y4923840D01*
X16685615Y4917694D01*
X16674084Y4910023D01*
X16663669Y4900879D01*
X16654576Y4890465D01*
X16646855Y4878933D01*
X16640759Y4866538D01*
X16636288Y4853432D01*
X16633596Y4839817D01*
X16632682Y4826000D01*
X16633596Y4812182D01*
X16636288Y4798618D01*
X16640759Y4785512D01*
X16646855Y4773066D01*
X16654576Y4761534D01*
X16663669Y4751120D01*
X16674084Y4742027D01*
X16685615Y4734306D01*
X16698061Y4728159D01*
X16711168Y4723739D01*
X16724731Y4721047D01*
X16738549Y4720132D01*
X16752366Y4721047D01*
X16765981Y4723739D01*
X16779087Y4728159D01*
X16791482Y4734306D01*
X16803014Y4742027D01*
X16813428Y4751120D01*
X16822572Y4761534D01*
X16830243Y4773066D01*
X16836390Y4785512D01*
X16840860Y4798618D01*
X16843552Y4812182D01*
X16844467Y4826000D01*
X16843552Y4839817D01*
X16842587Y4844542D01*
X16842486Y4847844D01*
X16843451Y4851044D01*
X16845381Y4853736D01*
X16888815Y4897170D01*
X16892371Y4899456D01*
X16896588Y4900117D01*
X16900652Y4898999D01*
X16903954Y4896307D01*
X16905833Y4892497D01*
X16906036Y4888280D01*
X16904462Y4884318D01*
X16900855Y4878933D01*
X16894759Y4866538D01*
X16890288Y4853432D01*
X16887596Y4839817D01*
X16886682Y4826000D01*
X16887596Y4812182D01*
X16890288Y4798618D01*
X16894759Y4785512D01*
X16900855Y4773066D01*
X16908576Y4761534D01*
X16917670Y4751120D01*
X16928084Y4742027D01*
X16932198Y4739284D01*
X16934586Y4736998D01*
X16936161Y4734102D01*
X16936669Y4730851D01*
X16936669Y4487621D01*
X16936923Y4482541D01*
X16937532Y4477664D01*
X16938599Y4472940D01*
X16940072Y4468266D01*
X16941952Y4463745D01*
X16944187Y4459427D01*
X16946829Y4455312D01*
X16949775Y4451451D01*
X16953230Y4447692D01*
X18190006Y3210966D01*
X18191835Y3208426D01*
X18192800Y3205480D01*
X18192851Y3202381D01*
X18192343Y3198571D01*
X18192343Y3185464D01*
X18194121Y3172510D01*
X18197677Y3159912D01*
X18202859Y3147872D01*
X18209666Y3136696D01*
X18217946Y3126536D01*
X18227497Y3117646D01*
X18238165Y3110077D01*
X18249798Y3104083D01*
X18262142Y3099663D01*
X18274944Y3097022D01*
G37*
G36*
X29717949Y3096107D02*
G01*
X29731004Y3097022D01*
X29743806Y3099663D01*
X29756150Y3104032D01*
X29767784Y3110077D01*
X29778452Y3117596D01*
X29788002Y3126536D01*
X29796282Y3136696D01*
X29803089Y3147872D01*
X29808271Y3159861D01*
X29811827Y3172510D01*
X29813605Y3185464D01*
X29813605Y3198520D01*
X29811827Y3211525D01*
X29808271Y3224123D01*
X29803089Y3236112D01*
X29796282Y3247288D01*
X29788002Y3257448D01*
X29775861Y3268827D01*
X29774388Y3271672D01*
X29773880Y3274872D01*
X29773930Y4571796D01*
X29773676Y4576876D01*
X29773067Y4581702D01*
X29772000Y4586478D01*
X29770527Y4591100D01*
X29768647Y4595622D01*
X29766412Y4599940D01*
X29763770Y4604054D01*
X29760824Y4607915D01*
X29757370Y4611674D01*
X29249674Y5119370D01*
X29245915Y5122824D01*
X29242054Y5125770D01*
X29237939Y5128412D01*
X29233622Y5130647D01*
X29229100Y5132527D01*
X29224477Y5134000D01*
X29219702Y5135067D01*
X29214876Y5135676D01*
X29209796Y5135930D01*
X25908203Y5135930D01*
X25903123Y5135676D01*
X25898297Y5135067D01*
X25893522Y5134000D01*
X25888899Y5132527D01*
X25884378Y5130647D01*
X25880060Y5128412D01*
X25875945Y5125770D01*
X25872084Y5122824D01*
X25868325Y5119370D01*
X25779730Y5030774D01*
X25776275Y5027015D01*
X25773329Y5023154D01*
X25770687Y5019040D01*
X25768452Y5014722D01*
X25766572Y5010200D01*
X25765099Y5005578D01*
X25764032Y5000802D01*
X25763423Y4995976D01*
X25763169Y4990896D01*
X25763169Y4921199D01*
X25762661Y4917948D01*
X25761086Y4915001D01*
X25758698Y4912766D01*
X25754584Y4910023D01*
X25744170Y4900879D01*
X25735076Y4890465D01*
X25727355Y4878984D01*
X25721259Y4866538D01*
X25716788Y4853432D01*
X25714096Y4839817D01*
X25713182Y4826000D01*
X25714096Y4812182D01*
X25716788Y4798618D01*
X25721259Y4785512D01*
X25727355Y4773066D01*
X25735076Y4761534D01*
X25744170Y4751120D01*
X25754584Y4742027D01*
X25766115Y4734306D01*
X25778561Y4728210D01*
X25791668Y4723739D01*
X25805231Y4721047D01*
X25819049Y4720132D01*
X25832866Y4721047D01*
X25846481Y4723739D01*
X25859587Y4728210D01*
X25871982Y4734306D01*
X25883514Y4742027D01*
X25893928Y4751120D01*
X25903072Y4761534D01*
X25910743Y4773066D01*
X25916890Y4785512D01*
X25921360Y4798618D01*
X25924052Y4812182D01*
X25924967Y4826000D01*
X25924052Y4839817D01*
X25921360Y4853432D01*
X25916890Y4866538D01*
X25910743Y4878984D01*
X25903072Y4890465D01*
X25893928Y4900879D01*
X25883514Y4910023D01*
X25879501Y4912715D01*
X25877113Y4914950D01*
X25875538Y4917897D01*
X25875030Y4921148D01*
X25875030Y4963718D01*
X25875792Y4967630D01*
X25877977Y4970932D01*
X25928167Y5021122D01*
X25931469Y5023307D01*
X25935381Y5024069D01*
X29182618Y5024069D01*
X29186530Y5023307D01*
X29189832Y5021122D01*
X29659122Y4551832D01*
X29661307Y4548530D01*
X29662069Y4544618D01*
X29662069Y3274872D01*
X29661510Y3271723D01*
X29660037Y3268827D01*
X29647845Y3257448D01*
X29639615Y3247288D01*
X29632808Y3236112D01*
X29627576Y3224123D01*
X29624070Y3211525D01*
X29622292Y3198520D01*
X29622292Y3185464D01*
X29624070Y3172510D01*
X29627576Y3159861D01*
X29632808Y3147872D01*
X29639615Y3136696D01*
X29647845Y3126536D01*
X29657446Y3117596D01*
X29668114Y3110077D01*
X29679747Y3104032D01*
X29692092Y3099663D01*
X29704893Y3097022D01*
G37*
G36*
X508000Y3096107D02*
G01*
X521055Y3097022D01*
X533857Y3099663D01*
X546201Y3104032D01*
X557834Y3110077D01*
X568502Y3117646D01*
X578053Y3126536D01*
X586333Y3136696D01*
X593140Y3147872D01*
X598373Y3159912D01*
X601878Y3172510D01*
X603656Y3185464D01*
X603656Y3198520D01*
X603148Y3202381D01*
X603199Y3205530D01*
X604164Y3208477D01*
X605993Y3210966D01*
X1209649Y3814622D01*
X1212951Y3816807D01*
X1216863Y3817569D01*
X2299970Y3817569D01*
X2303881Y3816807D01*
X2307183Y3814622D01*
X2309368Y3811320D01*
X2310130Y3807409D01*
X2309368Y3803548D01*
X2307183Y3800246D01*
X1796999Y3290062D01*
X1793392Y3287725D01*
X1789125Y3287115D01*
X1778000Y3287877D01*
X1764944Y3287014D01*
X1752142Y3284321D01*
X1739798Y3279952D01*
X1728165Y3273907D01*
X1717497Y3266389D01*
X1707946Y3257448D01*
X1699666Y3247288D01*
X1692859Y3236112D01*
X1687626Y3224123D01*
X1684121Y3211525D01*
X1682343Y3198520D01*
X1682343Y3185464D01*
X1684121Y3172510D01*
X1687626Y3159912D01*
X1692859Y3147872D01*
X1699666Y3136696D01*
X1707946Y3126536D01*
X1717497Y3117646D01*
X1728165Y3110077D01*
X1739798Y3104032D01*
X1752142Y3099663D01*
X1764944Y3097022D01*
X1778000Y3096107D01*
X1791055Y3097022D01*
X1803857Y3099663D01*
X1816201Y3104032D01*
X1827834Y3110077D01*
X1838502Y3117646D01*
X1848053Y3126536D01*
X1856333Y3136696D01*
X1863140Y3147872D01*
X1868322Y3159912D01*
X1871878Y3172510D01*
X1873656Y3185464D01*
X1873656Y3198520D01*
X1873148Y3202381D01*
X1873199Y3205480D01*
X1874164Y3208477D01*
X1875993Y3210966D01*
X2378049Y3713022D01*
X2381351Y3715207D01*
X2385263Y3715969D01*
X3468370Y3715969D01*
X3472281Y3715207D01*
X3475583Y3713022D01*
X3477768Y3709720D01*
X3478529Y3705809D01*
X3477768Y3701948D01*
X3475583Y3698646D01*
X3066999Y3290062D01*
X3063392Y3287725D01*
X3059125Y3287115D01*
X3048000Y3287877D01*
X3034944Y3287014D01*
X3022142Y3284321D01*
X3009798Y3279952D01*
X2998165Y3273907D01*
X2987497Y3266389D01*
X2977896Y3257448D01*
X2969666Y3247288D01*
X2962859Y3236112D01*
X2957626Y3224123D01*
X2954121Y3211525D01*
X2952343Y3198520D01*
X2952343Y3185464D01*
X2954121Y3172510D01*
X2957626Y3159912D01*
X2962859Y3147872D01*
X2969666Y3136696D01*
X2977896Y3126536D01*
X2987497Y3117646D01*
X2998165Y3110077D01*
X3009798Y3104032D01*
X3022142Y3099663D01*
X3034944Y3097022D01*
X3048000Y3096107D01*
X3061055Y3097022D01*
X3073857Y3099663D01*
X3086201Y3104032D01*
X3097834Y3110077D01*
X3108502Y3117646D01*
X3118053Y3126536D01*
X3126333Y3136696D01*
X3133140Y3147872D01*
X3138322Y3159912D01*
X3141878Y3172510D01*
X3143656Y3185464D01*
X3143656Y3198520D01*
X3143097Y3202381D01*
X3143199Y3205480D01*
X3144164Y3208426D01*
X3145993Y3210966D01*
X3546449Y3611422D01*
X3549751Y3613607D01*
X3553663Y3614369D01*
X4636770Y3614369D01*
X4640681Y3613607D01*
X4643983Y3611422D01*
X4646168Y3608120D01*
X4646930Y3604209D01*
X4646168Y3600348D01*
X4643983Y3597046D01*
X4336999Y3290062D01*
X4333392Y3287725D01*
X4329125Y3287115D01*
X4318000Y3287877D01*
X4304944Y3287014D01*
X4292142Y3284321D01*
X4279798Y3279952D01*
X4268165Y3273907D01*
X4257497Y3266389D01*
X4247896Y3257448D01*
X4239666Y3247288D01*
X4232859Y3236112D01*
X4227626Y3224123D01*
X4224121Y3211525D01*
X4222343Y3198520D01*
X4222343Y3185464D01*
X4224121Y3172510D01*
X4227626Y3159912D01*
X4232859Y3147872D01*
X4239666Y3136696D01*
X4247896Y3126536D01*
X4257497Y3117646D01*
X4268165Y3110077D01*
X4279798Y3104032D01*
X4292142Y3099663D01*
X4304944Y3097022D01*
X4318000Y3096107D01*
X4331055Y3097022D01*
X4343857Y3099663D01*
X4356201Y3104032D01*
X4367834Y3110077D01*
X4378502Y3117646D01*
X4388053Y3126536D01*
X4396333Y3136696D01*
X4403140Y3147872D01*
X4408322Y3159912D01*
X4411878Y3172510D01*
X4413656Y3185464D01*
X4413656Y3198520D01*
X4413148Y3202381D01*
X4413199Y3205480D01*
X4414164Y3208426D01*
X4415993Y3210966D01*
X4714849Y3509822D01*
X4718151Y3512007D01*
X4722063Y3512769D01*
X5792470Y3512769D01*
X5796381Y3512007D01*
X5799683Y3509822D01*
X5801868Y3506520D01*
X5802630Y3502609D01*
X5801868Y3498748D01*
X5799683Y3495446D01*
X5595112Y3290874D01*
X5592114Y3288792D01*
X5588609Y3287928D01*
X5574944Y3287014D01*
X5562142Y3284321D01*
X5549798Y3279952D01*
X5538165Y3273907D01*
X5527497Y3266389D01*
X5517896Y3257448D01*
X5509666Y3247288D01*
X5502859Y3236112D01*
X5497626Y3224123D01*
X5494121Y3211525D01*
X5492343Y3198520D01*
X5492343Y3185464D01*
X5494121Y3172510D01*
X5497626Y3159912D01*
X5502859Y3147872D01*
X5509666Y3136696D01*
X5517896Y3126536D01*
X5527497Y3117646D01*
X5538165Y3110077D01*
X5549798Y3104032D01*
X5562142Y3099663D01*
X5574944Y3097022D01*
X5588000Y3096107D01*
X5601055Y3097022D01*
X5613857Y3099663D01*
X5626201Y3104032D01*
X5637834Y3110077D01*
X5648502Y3117646D01*
X5658053Y3126536D01*
X5666333Y3136696D01*
X5673140Y3147872D01*
X5678322Y3159912D01*
X5681878Y3172510D01*
X5683656Y3185464D01*
X5683656Y3198520D01*
X5681370Y3215589D01*
X5682284Y3219043D01*
X5684316Y3221990D01*
X5870549Y3408222D01*
X5873851Y3410407D01*
X5877763Y3411169D01*
X6948170Y3411169D01*
X6952081Y3410407D01*
X6955383Y3408222D01*
X6957568Y3404920D01*
X6958330Y3401009D01*
X6957568Y3397148D01*
X6955383Y3393846D01*
X6851446Y3289960D01*
X6848500Y3287877D01*
X6832142Y3284321D01*
X6819798Y3279952D01*
X6808165Y3273907D01*
X6797497Y3266389D01*
X6787896Y3257448D01*
X6779666Y3247288D01*
X6772859Y3236112D01*
X6767626Y3224123D01*
X6764121Y3211525D01*
X6762343Y3198520D01*
X6762343Y3185464D01*
X6764121Y3172510D01*
X6767626Y3159912D01*
X6772859Y3147872D01*
X6779666Y3136696D01*
X6787896Y3126536D01*
X6797497Y3117646D01*
X6808165Y3110077D01*
X6819798Y3104032D01*
X6832142Y3099663D01*
X6844944Y3097022D01*
X6858000Y3096107D01*
X6871055Y3097022D01*
X6883857Y3099663D01*
X6896201Y3104032D01*
X6907784Y3110077D01*
X6918502Y3117646D01*
X6928053Y3126536D01*
X6936333Y3136696D01*
X6943140Y3147872D01*
X6948322Y3159912D01*
X6951878Y3172510D01*
X6953656Y3185464D01*
X6953656Y3198520D01*
X6951878Y3211525D01*
X6948931Y3221939D01*
X6948576Y3225495D01*
X6949490Y3228949D01*
X6951522Y3231896D01*
X7026249Y3306622D01*
X7029551Y3308807D01*
X7033463Y3309569D01*
X8318296Y3309569D01*
X8323376Y3309823D01*
X8328202Y3310432D01*
X8332978Y3311499D01*
X8337600Y3312972D01*
X8342122Y3314852D01*
X8346440Y3317087D01*
X8350554Y3319729D01*
X8354415Y3322675D01*
X8358174Y3326129D01*
X8802370Y3770325D01*
X8805824Y3774084D01*
X8808770Y3777945D01*
X8811412Y3782060D01*
X8813647Y3786378D01*
X8815527Y3790899D01*
X8817000Y3795522D01*
X8818067Y3800297D01*
X8818676Y3805123D01*
X8818930Y3810203D01*
X8818930Y3968902D01*
X8819438Y3972153D01*
X8821013Y3975049D01*
X8823401Y3977335D01*
X8827414Y3980027D01*
X8837828Y3989120D01*
X8846972Y3999534D01*
X8854643Y4011066D01*
X8860790Y4023512D01*
X8865260Y4036618D01*
X8867952Y4050182D01*
X8868867Y4064000D01*
X8867952Y4077817D01*
X8865260Y4091432D01*
X8860790Y4104538D01*
X8854643Y4116933D01*
X8846972Y4128465D01*
X8837828Y4138879D01*
X8827414Y4148023D01*
X8815882Y4155694D01*
X8803487Y4161840D01*
X8790381Y4166311D01*
X8776766Y4169003D01*
X8762949Y4169918D01*
X8749131Y4169003D01*
X8735568Y4166311D01*
X8722461Y4161840D01*
X8710015Y4155694D01*
X8698484Y4148023D01*
X8688070Y4138879D01*
X8678976Y4128465D01*
X8671255Y4116933D01*
X8665159Y4104538D01*
X8660688Y4091432D01*
X8657996Y4077817D01*
X8657082Y4064000D01*
X8657996Y4050182D01*
X8660688Y4036618D01*
X8665159Y4023512D01*
X8671255Y4011066D01*
X8678976Y3999534D01*
X8688070Y3989120D01*
X8698484Y3980027D01*
X8702598Y3977284D01*
X8704986Y3974998D01*
X8706561Y3972102D01*
X8707069Y3968851D01*
X8707069Y3837381D01*
X8706307Y3833469D01*
X8704122Y3830167D01*
X8298332Y3424377D01*
X8295030Y3422192D01*
X8291118Y3421430D01*
X8198612Y3421430D01*
X8194700Y3422192D01*
X8191398Y3424377D01*
X8189214Y3427679D01*
X8188452Y3431590D01*
X8189214Y3435451D01*
X8191398Y3438753D01*
X8548370Y3795725D01*
X8551824Y3799484D01*
X8554770Y3803345D01*
X8557412Y3807460D01*
X8559647Y3811778D01*
X8561527Y3816299D01*
X8563000Y3820922D01*
X8564067Y3825697D01*
X8564676Y3830523D01*
X8564930Y3835603D01*
X8564930Y3968902D01*
X8565438Y3972153D01*
X8567013Y3975049D01*
X8569401Y3977335D01*
X8573414Y3980027D01*
X8583828Y3989120D01*
X8592972Y3999534D01*
X8600643Y4011066D01*
X8606790Y4023512D01*
X8611260Y4036618D01*
X8613952Y4050182D01*
X8614867Y4064000D01*
X8613952Y4077817D01*
X8611260Y4091432D01*
X8606790Y4104538D01*
X8600643Y4116933D01*
X8592972Y4128465D01*
X8583828Y4138879D01*
X8573414Y4148023D01*
X8561882Y4155694D01*
X8549487Y4161840D01*
X8536381Y4166311D01*
X8522766Y4169003D01*
X8508949Y4169918D01*
X8495131Y4169003D01*
X8481568Y4166311D01*
X8468461Y4161840D01*
X8456015Y4155694D01*
X8444484Y4148023D01*
X8434070Y4138879D01*
X8424976Y4128465D01*
X8417255Y4116933D01*
X8411159Y4104538D01*
X8406688Y4091432D01*
X8403996Y4077817D01*
X8403082Y4064000D01*
X8403996Y4050182D01*
X8406688Y4036618D01*
X8411159Y4023512D01*
X8417255Y4011066D01*
X8424976Y3999534D01*
X8434070Y3989120D01*
X8444484Y3980027D01*
X8448598Y3977284D01*
X8450986Y3974998D01*
X8452561Y3972102D01*
X8453069Y3968851D01*
X8453069Y3862781D01*
X8452307Y3858869D01*
X8450122Y3855567D01*
X8120532Y3525977D01*
X8117230Y3523792D01*
X8113318Y3523030D01*
X7931912Y3523030D01*
X7928000Y3523792D01*
X7924698Y3525977D01*
X7922514Y3529279D01*
X7921752Y3533190D01*
X7922514Y3537051D01*
X7924698Y3540353D01*
X8294370Y3910025D01*
X8297824Y3913784D01*
X8300770Y3917645D01*
X8303412Y3921760D01*
X8305647Y3926078D01*
X8307527Y3930599D01*
X8309000Y3935222D01*
X8310067Y3939997D01*
X8310676Y3944823D01*
X8310930Y3949903D01*
X8310930Y3968902D01*
X8311438Y3972153D01*
X8313013Y3975049D01*
X8315401Y3977335D01*
X8319414Y3980027D01*
X8329828Y3989120D01*
X8338972Y3999534D01*
X8346643Y4011066D01*
X8352790Y4023512D01*
X8357260Y4036618D01*
X8359952Y4050182D01*
X8360867Y4064000D01*
X8359952Y4077817D01*
X8357260Y4091432D01*
X8352790Y4104538D01*
X8346643Y4116933D01*
X8338972Y4128465D01*
X8329828Y4138879D01*
X8319414Y4148023D01*
X8307882Y4155694D01*
X8295487Y4161840D01*
X8282381Y4166311D01*
X8268766Y4169003D01*
X8254949Y4169918D01*
X8241131Y4169003D01*
X8227568Y4166311D01*
X8214461Y4161840D01*
X8202015Y4155694D01*
X8190484Y4148023D01*
X8180070Y4138879D01*
X8170976Y4128465D01*
X8163255Y4116933D01*
X8157159Y4104538D01*
X8152688Y4091432D01*
X8149996Y4077817D01*
X8149081Y4064000D01*
X8149996Y4050182D01*
X8152688Y4036618D01*
X8157159Y4023512D01*
X8163255Y4011066D01*
X8170976Y3999534D01*
X8180070Y3989120D01*
X8190738Y3979824D01*
X8193227Y3976522D01*
X8194192Y3972509D01*
X8193481Y3968445D01*
X8191195Y3964990D01*
X7853832Y3627577D01*
X7850530Y3625392D01*
X7846618Y3624630D01*
X7754112Y3624630D01*
X7750200Y3625392D01*
X7746898Y3627577D01*
X7744714Y3630879D01*
X7743952Y3634790D01*
X7744714Y3638651D01*
X7746898Y3641953D01*
X8040370Y3935425D01*
X8043824Y3939184D01*
X8046770Y3943045D01*
X8049412Y3947160D01*
X8051647Y3951478D01*
X8053527Y3955999D01*
X8055000Y3960622D01*
X8056067Y3965346D01*
X8056625Y3969918D01*
X8058048Y3973982D01*
X8061045Y3977081D01*
X8065414Y3980027D01*
X8075828Y3989120D01*
X8084972Y3999534D01*
X8092643Y4011066D01*
X8098790Y4023512D01*
X8103260Y4036618D01*
X8105952Y4050182D01*
X8106867Y4064000D01*
X8105952Y4077817D01*
X8103260Y4091432D01*
X8098790Y4104538D01*
X8092643Y4116933D01*
X8084972Y4128465D01*
X8075828Y4138879D01*
X8065414Y4148023D01*
X8053882Y4155694D01*
X8041487Y4161840D01*
X8028381Y4166311D01*
X8014766Y4169003D01*
X8000949Y4169918D01*
X7987131Y4169003D01*
X7973568Y4166311D01*
X7960461Y4161840D01*
X7948015Y4155694D01*
X7936484Y4148023D01*
X7926070Y4138879D01*
X7916976Y4128465D01*
X7909255Y4116933D01*
X7903159Y4104538D01*
X7898688Y4091432D01*
X7895996Y4077817D01*
X7895081Y4064000D01*
X7895996Y4050182D01*
X7898688Y4036618D01*
X7903159Y4023512D01*
X7909255Y4011066D01*
X7916976Y3999534D01*
X7924444Y3991051D01*
X7926374Y3987749D01*
X7926933Y3983990D01*
X7926120Y3980281D01*
X7923987Y3977132D01*
X7676032Y3729177D01*
X7672730Y3726992D01*
X7668818Y3726230D01*
X7525054Y3726230D01*
X7521194Y3726942D01*
X7517892Y3729126D01*
X7515707Y3732377D01*
X7514894Y3736238D01*
X7515606Y3740099D01*
X7517688Y3743401D01*
X7721600Y3956558D01*
X7724292Y3958539D01*
X7727543Y3959555D01*
X7746949Y3958132D01*
X7760766Y3959047D01*
X7774381Y3961739D01*
X7787487Y3966159D01*
X7799882Y3972306D01*
X7811414Y3980027D01*
X7821828Y3989120D01*
X7830972Y3999534D01*
X7838643Y4011066D01*
X7844790Y4023512D01*
X7849260Y4036618D01*
X7851952Y4050182D01*
X7852867Y4064000D01*
X7851952Y4077817D01*
X7849260Y4091432D01*
X7844790Y4104538D01*
X7838643Y4116933D01*
X7830972Y4128465D01*
X7821828Y4138879D01*
X7811414Y4148023D01*
X7799882Y4155694D01*
X7787487Y4161840D01*
X7774381Y4166311D01*
X7760766Y4169003D01*
X7746949Y4169918D01*
X7733131Y4169003D01*
X7719568Y4166311D01*
X7706461Y4161840D01*
X7694015Y4155694D01*
X7682484Y4148023D01*
X7672070Y4138879D01*
X7662976Y4128465D01*
X7655255Y4116933D01*
X7649159Y4104538D01*
X7644688Y4091432D01*
X7641996Y4077817D01*
X7641081Y4064000D01*
X7641996Y4050182D01*
X7643418Y4042867D01*
X7643571Y4039615D01*
X7642656Y4036517D01*
X7640828Y4033875D01*
X7446721Y3830929D01*
X7443368Y3828643D01*
X7439355Y3827830D01*
X7360412Y3827830D01*
X7356500Y3828592D01*
X7353198Y3830777D01*
X7351014Y3834079D01*
X7350252Y3837990D01*
X7351014Y3841851D01*
X7353198Y3845153D01*
X7465263Y3957167D01*
X7467955Y3959098D01*
X7471105Y3960063D01*
X7474407Y3959961D01*
X7479131Y3959047D01*
X7492949Y3958132D01*
X7506766Y3959047D01*
X7520381Y3961739D01*
X7533487Y3966159D01*
X7545882Y3972306D01*
X7557414Y3980027D01*
X7567828Y3989120D01*
X7576972Y3999534D01*
X7584643Y4011066D01*
X7590790Y4023512D01*
X7595260Y4036618D01*
X7597952Y4050182D01*
X7598867Y4064000D01*
X7597952Y4077817D01*
X7595260Y4091432D01*
X7590790Y4104538D01*
X7584643Y4116933D01*
X7576972Y4128465D01*
X7567828Y4138879D01*
X7557414Y4148023D01*
X7545882Y4155694D01*
X7533487Y4161840D01*
X7520381Y4166311D01*
X7506766Y4169003D01*
X7492949Y4169918D01*
X7479131Y4169003D01*
X7465568Y4166311D01*
X7452461Y4161840D01*
X7440015Y4155694D01*
X7428484Y4148023D01*
X7418070Y4138879D01*
X7408976Y4128465D01*
X7401255Y4116933D01*
X7395159Y4104538D01*
X7390688Y4091432D01*
X7387996Y4077817D01*
X7387081Y4064000D01*
X7387996Y4050182D01*
X7388961Y4045407D01*
X7389063Y4042105D01*
X7388098Y4038904D01*
X7386167Y4036212D01*
X7342530Y3992575D01*
X7338974Y3990289D01*
X7334758Y3989628D01*
X7330694Y3990746D01*
X7327392Y3993438D01*
X7325512Y3997248D01*
X7325309Y4001465D01*
X7326884Y4005427D01*
X7330643Y4011066D01*
X7336790Y4023512D01*
X7341260Y4036618D01*
X7343952Y4050182D01*
X7344867Y4064000D01*
X7343952Y4077817D01*
X7341260Y4091432D01*
X7336790Y4104538D01*
X7330643Y4116933D01*
X7322972Y4128465D01*
X7313828Y4138879D01*
X7303414Y4148023D01*
X7291882Y4155694D01*
X7279487Y4161840D01*
X7266381Y4166311D01*
X7252766Y4169003D01*
X7238949Y4169918D01*
X7225131Y4169003D01*
X7211568Y4166311D01*
X7198461Y4161840D01*
X7186015Y4155694D01*
X7174484Y4148023D01*
X7164070Y4138879D01*
X7154976Y4128465D01*
X7147255Y4116933D01*
X7141159Y4104538D01*
X7136688Y4091432D01*
X7133996Y4077817D01*
X7133081Y4064000D01*
X7133996Y4050182D01*
X7136688Y4036618D01*
X7141159Y4023512D01*
X7147255Y4011066D01*
X7154976Y3999534D01*
X7164070Y3989120D01*
X7174484Y3980027D01*
X7186015Y3972306D01*
X7198461Y3966159D01*
X7211568Y3961739D01*
X7225131Y3959047D01*
X7238949Y3958132D01*
X7252766Y3959047D01*
X7266381Y3961739D01*
X7279487Y3966159D01*
X7291882Y3972306D01*
X7297572Y3976065D01*
X7301484Y3977640D01*
X7305751Y3977487D01*
X7309561Y3975608D01*
X7312253Y3972306D01*
X7313371Y3968191D01*
X7312710Y3964025D01*
X7310374Y3960469D01*
X7282332Y3932377D01*
X7279030Y3930192D01*
X7275118Y3929430D01*
X1189685Y3929430D01*
X1184605Y3929176D01*
X1179779Y3928567D01*
X1175004Y3927500D01*
X1170381Y3926027D01*
X1165860Y3924147D01*
X1161542Y3921912D01*
X1157427Y3919270D01*
X1153566Y3916324D01*
X1149807Y3912870D01*
X526999Y3290062D01*
X523392Y3287725D01*
X519125Y3287115D01*
X508000Y3287877D01*
X494944Y3287014D01*
X482142Y3284321D01*
X469798Y3279952D01*
X458165Y3273907D01*
X447497Y3266389D01*
X437946Y3257448D01*
X429666Y3247288D01*
X422859Y3236112D01*
X417677Y3224123D01*
X414121Y3211525D01*
X412343Y3198520D01*
X412343Y3185464D01*
X414121Y3172510D01*
X417677Y3159912D01*
X422859Y3147872D01*
X429666Y3136696D01*
X437946Y3126536D01*
X447497Y3117646D01*
X458165Y3110077D01*
X469798Y3104032D01*
X482142Y3099663D01*
X494944Y3097022D01*
G37*
G36*
X10668000Y3096107D02*
G01*
X10681055Y3097022D01*
X10693857Y3099663D01*
X10706201Y3104032D01*
X10717834Y3110077D01*
X10728502Y3117646D01*
X10738053Y3126536D01*
X10746333Y3136696D01*
X10753140Y3147872D01*
X10758373Y3159912D01*
X10761878Y3172510D01*
X10763656Y3185464D01*
X10763656Y3198520D01*
X10763148Y3202381D01*
X10763199Y3205480D01*
X10764164Y3208426D01*
X10765993Y3210966D01*
X11387429Y3832351D01*
X11390731Y3834587D01*
X11394643Y3835349D01*
X15549626Y3835349D01*
X15554706Y3835552D01*
X15559582Y3836212D01*
X15564307Y3837279D01*
X15568980Y3838701D01*
X15573501Y3840581D01*
X15577819Y3842867D01*
X15581934Y3845458D01*
X15585795Y3848455D01*
X15589554Y3851859D01*
X15694863Y3957167D01*
X15697555Y3959098D01*
X15700705Y3960063D01*
X15704007Y3959961D01*
X15708731Y3959047D01*
X15722549Y3958132D01*
X15736366Y3959047D01*
X15749981Y3961739D01*
X15763087Y3966159D01*
X15775482Y3972306D01*
X15781172Y3976065D01*
X15785084Y3977640D01*
X15789351Y3977487D01*
X15793161Y3975608D01*
X15795853Y3972306D01*
X15796971Y3968191D01*
X15796310Y3964025D01*
X15793974Y3960469D01*
X15638932Y3805377D01*
X15635630Y3803192D01*
X15631718Y3802430D01*
X12492685Y3802430D01*
X12487605Y3802176D01*
X12482779Y3801567D01*
X12478004Y3800500D01*
X12473381Y3799027D01*
X12468860Y3797147D01*
X12464542Y3794912D01*
X12460427Y3792270D01*
X12456566Y3789324D01*
X12452807Y3785870D01*
X11956999Y3290062D01*
X11953392Y3287776D01*
X11949125Y3287115D01*
X11938000Y3287877D01*
X11924944Y3287014D01*
X11912142Y3284321D01*
X11899798Y3279952D01*
X11888165Y3273907D01*
X11877497Y3266389D01*
X11867946Y3257448D01*
X11859666Y3247288D01*
X11852859Y3236112D01*
X11847677Y3224123D01*
X11844121Y3211525D01*
X11842343Y3198571D01*
X11842343Y3185464D01*
X11844121Y3172510D01*
X11847677Y3159912D01*
X11852859Y3147872D01*
X11859666Y3136696D01*
X11867946Y3126536D01*
X11877497Y3117646D01*
X11888165Y3110077D01*
X11899798Y3104083D01*
X11912142Y3099663D01*
X11924944Y3097022D01*
X11938000Y3096107D01*
X11951055Y3097022D01*
X11963857Y3099663D01*
X11976201Y3104083D01*
X11987834Y3110077D01*
X11998502Y3117646D01*
X12008053Y3126536D01*
X12016333Y3136696D01*
X12023140Y3147872D01*
X12028373Y3159912D01*
X12031878Y3172510D01*
X12033656Y3185464D01*
X12033656Y3198571D01*
X12033148Y3202381D01*
X12033199Y3205530D01*
X12034164Y3208477D01*
X12035993Y3210966D01*
X12512649Y3687622D01*
X12515951Y3689807D01*
X12519863Y3690569D01*
X15658896Y3690569D01*
X15663976Y3690823D01*
X15668802Y3691432D01*
X15673578Y3692499D01*
X15678200Y3693972D01*
X15682722Y3695852D01*
X15687040Y3698087D01*
X15691154Y3700729D01*
X15695015Y3703675D01*
X15698774Y3707129D01*
X15948863Y3957167D01*
X15951555Y3959098D01*
X15954705Y3960063D01*
X15958007Y3959961D01*
X15962731Y3959047D01*
X15976549Y3958132D01*
X15990366Y3959047D01*
X16003981Y3961739D01*
X16017087Y3966159D01*
X16029482Y3972306D01*
X16035172Y3976065D01*
X16039084Y3977640D01*
X16043351Y3977487D01*
X16047161Y3975608D01*
X16049853Y3972306D01*
X16050971Y3968191D01*
X16050310Y3964025D01*
X16047974Y3960469D01*
X15689732Y3602177D01*
X15686430Y3599992D01*
X15682518Y3599230D01*
X13559536Y3599230D01*
X13554456Y3598976D01*
X13549579Y3598367D01*
X13544854Y3597300D01*
X13540181Y3595827D01*
X13535660Y3593947D01*
X13531342Y3591712D01*
X13527227Y3589070D01*
X13523366Y3586124D01*
X13519607Y3582670D01*
X13226999Y3290062D01*
X13223392Y3287725D01*
X13219125Y3287115D01*
X13208000Y3287877D01*
X13194944Y3287014D01*
X13182142Y3284321D01*
X13169798Y3279952D01*
X13158165Y3273907D01*
X13147497Y3266389D01*
X13137946Y3257448D01*
X13129666Y3247288D01*
X13122859Y3236112D01*
X13117677Y3224123D01*
X13114121Y3211525D01*
X13112343Y3198571D01*
X13112343Y3185464D01*
X13114121Y3172510D01*
X13117677Y3159912D01*
X13122859Y3147872D01*
X13129666Y3136696D01*
X13137946Y3126536D01*
X13147497Y3117646D01*
X13158165Y3110077D01*
X13169798Y3104083D01*
X13182142Y3099663D01*
X13194944Y3097022D01*
X13208000Y3096107D01*
X13221055Y3097022D01*
X13233857Y3099663D01*
X13246201Y3104083D01*
X13257834Y3110077D01*
X13268502Y3117646D01*
X13278053Y3126536D01*
X13286333Y3136696D01*
X13293140Y3147872D01*
X13298373Y3159912D01*
X13301878Y3172510D01*
X13303656Y3185464D01*
X13303656Y3198571D01*
X13303148Y3202381D01*
X13303199Y3205480D01*
X13304164Y3208426D01*
X13305993Y3210966D01*
X13579500Y3484422D01*
X13582802Y3486607D01*
X13586663Y3487369D01*
X15709696Y3487369D01*
X15714776Y3487623D01*
X15719602Y3488232D01*
X15724378Y3489299D01*
X15729000Y3490772D01*
X15733522Y3492652D01*
X15737840Y3494887D01*
X15741954Y3497529D01*
X15745815Y3500475D01*
X15749574Y3503929D01*
X16202863Y3957167D01*
X16205555Y3959098D01*
X16208705Y3960063D01*
X16212007Y3959961D01*
X16216731Y3959047D01*
X16230549Y3958132D01*
X16244366Y3959047D01*
X16257981Y3961739D01*
X16271087Y3966159D01*
X16283482Y3972306D01*
X16289172Y3976065D01*
X16293084Y3977640D01*
X16297351Y3977487D01*
X16301161Y3975608D01*
X16303853Y3972306D01*
X16304971Y3968191D01*
X16304310Y3964025D01*
X16301974Y3960469D01*
X15791332Y3449777D01*
X15788030Y3447592D01*
X15784118Y3446830D01*
X14677136Y3446830D01*
X14672056Y3446576D01*
X14667179Y3445967D01*
X14662454Y3444900D01*
X14657781Y3443427D01*
X14653260Y3441547D01*
X14648942Y3439312D01*
X14644827Y3436670D01*
X14640966Y3433724D01*
X14637207Y3430270D01*
X14496999Y3290062D01*
X14493392Y3287725D01*
X14489125Y3287115D01*
X14478000Y3287877D01*
X14464944Y3287014D01*
X14452142Y3284321D01*
X14439798Y3279952D01*
X14428165Y3273907D01*
X14417497Y3266389D01*
X14407946Y3257448D01*
X14399666Y3247288D01*
X14392859Y3236112D01*
X14387677Y3224123D01*
X14384121Y3211525D01*
X14382343Y3198520D01*
X14382343Y3185464D01*
X14384121Y3172510D01*
X14387677Y3159912D01*
X14392859Y3147872D01*
X14399666Y3136696D01*
X14407946Y3126536D01*
X14417497Y3117646D01*
X14428165Y3110077D01*
X14439798Y3104032D01*
X14452142Y3099663D01*
X14464944Y3097022D01*
X14478000Y3096107D01*
X14491055Y3097022D01*
X14503857Y3099663D01*
X14516201Y3104032D01*
X14527834Y3110077D01*
X14538502Y3117646D01*
X14548053Y3126536D01*
X14556333Y3136696D01*
X14563140Y3147872D01*
X14568373Y3159912D01*
X14571878Y3172510D01*
X14573656Y3185464D01*
X14573656Y3198520D01*
X14573148Y3202381D01*
X14573199Y3205480D01*
X14574164Y3208426D01*
X14575993Y3210966D01*
X14697100Y3332022D01*
X14700402Y3334207D01*
X14704263Y3334969D01*
X15811296Y3334969D01*
X15816376Y3335223D01*
X15821202Y3335832D01*
X15825978Y3336899D01*
X15830600Y3338372D01*
X15835122Y3340252D01*
X15839440Y3342487D01*
X15843554Y3345129D01*
X15847415Y3348075D01*
X15851174Y3351529D01*
X16456863Y3957167D01*
X16459555Y3959098D01*
X16462705Y3960063D01*
X16466007Y3959961D01*
X16470731Y3959047D01*
X16484549Y3958132D01*
X16498366Y3959047D01*
X16511981Y3961739D01*
X16525087Y3966159D01*
X16537482Y3972306D01*
X16543172Y3976065D01*
X16547084Y3977640D01*
X16551351Y3977487D01*
X16555161Y3975608D01*
X16557853Y3972306D01*
X16558971Y3968191D01*
X16558310Y3964025D01*
X16555974Y3960469D01*
X15846399Y3250895D01*
X15843097Y3248660D01*
X15839236Y3247898D01*
X15830702Y3247898D01*
X15826333Y3248863D01*
X15822777Y3251657D01*
X15818053Y3257448D01*
X15808502Y3266389D01*
X15797834Y3273907D01*
X15786201Y3279952D01*
X15773857Y3284321D01*
X15761055Y3287014D01*
X15748000Y3287877D01*
X15734944Y3287014D01*
X15722142Y3284321D01*
X15709798Y3279952D01*
X15698165Y3273907D01*
X15687497Y3266389D01*
X15677946Y3257448D01*
X15669666Y3247288D01*
X15662859Y3236112D01*
X15657677Y3224123D01*
X15654121Y3211525D01*
X15652343Y3198571D01*
X15652343Y3185464D01*
X15654121Y3172510D01*
X15657677Y3159912D01*
X15662859Y3147872D01*
X15669666Y3136696D01*
X15677946Y3126536D01*
X15687497Y3117646D01*
X15698165Y3110077D01*
X15709798Y3104083D01*
X15722142Y3099663D01*
X15734944Y3097022D01*
X15748000Y3096107D01*
X15761055Y3097022D01*
X15773857Y3099663D01*
X15786201Y3104083D01*
X15797834Y3110077D01*
X15808502Y3117646D01*
X15818053Y3126536D01*
X15822777Y3132328D01*
X15826282Y3135122D01*
X15830651Y3136087D01*
X15866363Y3136087D01*
X15871444Y3136290D01*
X15876320Y3136950D01*
X15881045Y3138017D01*
X15885718Y3139440D01*
X15890240Y3141319D01*
X15894557Y3143605D01*
X15898672Y3146196D01*
X15902533Y3149193D01*
X15906292Y3152597D01*
X16710863Y3957167D01*
X16713555Y3959098D01*
X16716705Y3960063D01*
X16720007Y3959961D01*
X16724731Y3959047D01*
X16738549Y3958132D01*
X16752366Y3959047D01*
X16765981Y3961739D01*
X16779087Y3966159D01*
X16791482Y3972306D01*
X16803014Y3980027D01*
X16813428Y3989120D01*
X16822572Y3999534D01*
X16830243Y4011066D01*
X16836390Y4023512D01*
X16840860Y4036618D01*
X16843552Y4050182D01*
X16844467Y4064000D01*
X16843552Y4077817D01*
X16840860Y4091432D01*
X16836390Y4104538D01*
X16830243Y4116933D01*
X16822572Y4128465D01*
X16813428Y4138879D01*
X16803014Y4148023D01*
X16791482Y4155694D01*
X16779087Y4161840D01*
X16765981Y4166311D01*
X16752366Y4169003D01*
X16738549Y4169918D01*
X16724731Y4169003D01*
X16711168Y4166311D01*
X16698061Y4161840D01*
X16685615Y4155694D01*
X16674084Y4148023D01*
X16663669Y4138879D01*
X16654576Y4128465D01*
X16646855Y4116933D01*
X16640759Y4104538D01*
X16636288Y4091432D01*
X16633596Y4077817D01*
X16632682Y4064000D01*
X16633596Y4050182D01*
X16634561Y4045407D01*
X16634663Y4042105D01*
X16633698Y4038904D01*
X16631767Y4036212D01*
X16588130Y3992575D01*
X16584574Y3990289D01*
X16580357Y3989628D01*
X16576294Y3990746D01*
X16572992Y3993438D01*
X16571112Y3997248D01*
X16570909Y4001465D01*
X16572484Y4005427D01*
X16576243Y4011066D01*
X16582390Y4023512D01*
X16586860Y4036618D01*
X16589552Y4050182D01*
X16590467Y4064000D01*
X16589552Y4077817D01*
X16586860Y4091432D01*
X16582390Y4104538D01*
X16576243Y4116933D01*
X16568572Y4128465D01*
X16559428Y4138879D01*
X16549014Y4148023D01*
X16537482Y4155694D01*
X16525087Y4161840D01*
X16511981Y4166311D01*
X16498366Y4169003D01*
X16484549Y4169918D01*
X16470731Y4169003D01*
X16457168Y4166311D01*
X16444061Y4161840D01*
X16431615Y4155694D01*
X16420084Y4148023D01*
X16409669Y4138879D01*
X16400576Y4128465D01*
X16392855Y4116933D01*
X16386759Y4104538D01*
X16382288Y4091432D01*
X16379596Y4077817D01*
X16378682Y4064000D01*
X16379596Y4050182D01*
X16380561Y4045407D01*
X16380663Y4042105D01*
X16379698Y4038904D01*
X16377767Y4036212D01*
X16334130Y3992575D01*
X16330574Y3990289D01*
X16326357Y3989628D01*
X16322294Y3990746D01*
X16318992Y3993438D01*
X16317112Y3997248D01*
X16316909Y4001465D01*
X16318484Y4005427D01*
X16322243Y4011066D01*
X16328390Y4023512D01*
X16332860Y4036618D01*
X16335552Y4050182D01*
X16336467Y4064000D01*
X16335552Y4077817D01*
X16332860Y4091432D01*
X16328390Y4104538D01*
X16322243Y4116933D01*
X16314572Y4128465D01*
X16305428Y4138879D01*
X16295014Y4148023D01*
X16283482Y4155694D01*
X16271087Y4161840D01*
X16257981Y4166311D01*
X16244366Y4169003D01*
X16230549Y4169918D01*
X16216731Y4169003D01*
X16203168Y4166311D01*
X16190061Y4161840D01*
X16177615Y4155694D01*
X16166084Y4148023D01*
X16155669Y4138879D01*
X16146576Y4128465D01*
X16138855Y4116933D01*
X16132759Y4104538D01*
X16128288Y4091432D01*
X16125596Y4077817D01*
X16124682Y4064000D01*
X16125596Y4050182D01*
X16126561Y4045407D01*
X16126663Y4042105D01*
X16125698Y4038904D01*
X16123767Y4036212D01*
X16080130Y3992575D01*
X16076574Y3990289D01*
X16072357Y3989628D01*
X16068294Y3990746D01*
X16064992Y3993438D01*
X16063112Y3997248D01*
X16062909Y4001465D01*
X16064484Y4005427D01*
X16068243Y4011066D01*
X16074390Y4023512D01*
X16078860Y4036618D01*
X16081552Y4050182D01*
X16082467Y4064000D01*
X16081552Y4077817D01*
X16078860Y4091432D01*
X16074390Y4104538D01*
X16068243Y4116933D01*
X16060572Y4128465D01*
X16051428Y4138879D01*
X16041014Y4148023D01*
X16029482Y4155694D01*
X16017087Y4161840D01*
X16003981Y4166311D01*
X15990366Y4169003D01*
X15976549Y4169918D01*
X15962731Y4169003D01*
X15949168Y4166311D01*
X15936061Y4161840D01*
X15923615Y4155694D01*
X15912084Y4148023D01*
X15901669Y4138879D01*
X15892576Y4128465D01*
X15884855Y4116933D01*
X15878759Y4104538D01*
X15874288Y4091432D01*
X15871596Y4077817D01*
X15870682Y4064000D01*
X15871596Y4050182D01*
X15872561Y4045407D01*
X15872663Y4042105D01*
X15871698Y4038904D01*
X15869767Y4036212D01*
X15826130Y3992575D01*
X15822574Y3990289D01*
X15818357Y3989628D01*
X15814294Y3990746D01*
X15810992Y3993438D01*
X15809112Y3997248D01*
X15808909Y4001465D01*
X15810484Y4005427D01*
X15814243Y4011066D01*
X15820390Y4023512D01*
X15824860Y4036618D01*
X15827552Y4050182D01*
X15828467Y4064000D01*
X15827552Y4077817D01*
X15824860Y4091432D01*
X15820390Y4104538D01*
X15814243Y4116933D01*
X15806572Y4128465D01*
X15797428Y4138879D01*
X15787014Y4148023D01*
X15775482Y4155694D01*
X15763087Y4161840D01*
X15749981Y4166311D01*
X15736366Y4169003D01*
X15722549Y4169918D01*
X15708731Y4169003D01*
X15695168Y4166311D01*
X15682061Y4161840D01*
X15669615Y4155694D01*
X15658084Y4148023D01*
X15647669Y4138879D01*
X15638576Y4128465D01*
X15630855Y4116933D01*
X15624759Y4104538D01*
X15620288Y4091432D01*
X15617596Y4077817D01*
X15616682Y4064000D01*
X15617596Y4050182D01*
X15618561Y4045407D01*
X15618663Y4042105D01*
X15617698Y4038904D01*
X15615767Y4036212D01*
X15572130Y3992575D01*
X15568574Y3990289D01*
X15564357Y3989628D01*
X15560294Y3990746D01*
X15556992Y3993438D01*
X15555112Y3997248D01*
X15554909Y4001465D01*
X15556484Y4005427D01*
X15560243Y4011066D01*
X15566390Y4023512D01*
X15570860Y4036618D01*
X15573552Y4050182D01*
X15574467Y4064000D01*
X15573552Y4077817D01*
X15570860Y4091432D01*
X15566390Y4104538D01*
X15560243Y4116933D01*
X15552572Y4128465D01*
X15543428Y4138879D01*
X15533014Y4148023D01*
X15529001Y4150664D01*
X15526613Y4152950D01*
X15525038Y4155846D01*
X15524530Y4159148D01*
X15524530Y4473041D01*
X15525089Y4476445D01*
X15526816Y4479493D01*
X15530677Y4484116D01*
X15536621Y4494123D01*
X15540939Y4504893D01*
X15543580Y4516221D01*
X15544495Y4527804D01*
X15543580Y4539386D01*
X15540939Y4550664D01*
X15536621Y4561484D01*
X15530677Y4571441D01*
X15523260Y4580432D01*
X15514574Y4588154D01*
X15504871Y4594453D01*
X15494254Y4599178D01*
X15483027Y4602276D01*
X15471495Y4603597D01*
X15459913Y4603191D01*
X15448483Y4600956D01*
X15437561Y4597044D01*
X15427350Y4591456D01*
X15418104Y4584446D01*
X15410078Y4576064D01*
X15403372Y4566564D01*
X15398242Y4556150D01*
X15394736Y4545076D01*
X15392958Y4533595D01*
X15392958Y4521962D01*
X15394736Y4510481D01*
X15398242Y4499406D01*
X15403372Y4489043D01*
X15410789Y4478578D01*
X15412212Y4475784D01*
X15412669Y4472686D01*
X15412669Y4159199D01*
X15412161Y4155897D01*
X15410586Y4153001D01*
X15408198Y4150715D01*
X15404084Y4148023D01*
X15393669Y4138879D01*
X15384576Y4128465D01*
X15376855Y4116933D01*
X15370759Y4104538D01*
X15366288Y4091432D01*
X15363596Y4077817D01*
X15362682Y4064000D01*
X15363596Y4050182D01*
X15366288Y4036618D01*
X15370759Y4023512D01*
X15376855Y4011066D01*
X15384576Y3999534D01*
X15393669Y3989120D01*
X15404084Y3980027D01*
X15415615Y3972306D01*
X15427553Y3966413D01*
X15431058Y3963619D01*
X15432938Y3959504D01*
X15432938Y3955034D01*
X15430957Y3950970D01*
X15427451Y3948176D01*
X15423032Y3947160D01*
X15318587Y3947160D01*
X15314726Y3947922D01*
X15311424Y3950157D01*
X15309240Y3953459D01*
X15308427Y3957320D01*
X15309240Y3961231D01*
X15311424Y3964482D01*
X15314777Y3967886D01*
X15317876Y3972763D01*
X15319806Y3978249D01*
X15320518Y3984548D01*
X15320518Y4143400D01*
X15319806Y4149750D01*
X15317876Y4155186D01*
X15314777Y4160113D01*
X15310713Y4164177D01*
X15305786Y4167276D01*
X15300350Y4169206D01*
X15294000Y4169918D01*
X15135148Y4169918D01*
X15128849Y4169206D01*
X15123363Y4167276D01*
X15118486Y4164177D01*
X15114371Y4160113D01*
X15111323Y4155186D01*
X15109393Y4149750D01*
X15108682Y4143400D01*
X15108682Y3984548D01*
X15109393Y3978249D01*
X15111323Y3972763D01*
X15114371Y3967886D01*
X15117775Y3964482D01*
X15119959Y3961231D01*
X15120721Y3957320D01*
X15119959Y3953459D01*
X15117775Y3950157D01*
X15114473Y3947922D01*
X15110561Y3947160D01*
X11367465Y3947160D01*
X11362385Y3946956D01*
X11357559Y3946296D01*
X11352784Y3945229D01*
X11348161Y3943756D01*
X11343640Y3941927D01*
X11339322Y3939641D01*
X11335207Y3937050D01*
X11331346Y3934053D01*
X11327587Y3930650D01*
X10686999Y3290062D01*
X10683392Y3287725D01*
X10679125Y3287115D01*
X10668000Y3287877D01*
X10654944Y3287014D01*
X10642142Y3284321D01*
X10629798Y3279952D01*
X10618165Y3273907D01*
X10607497Y3266389D01*
X10597946Y3257448D01*
X10589666Y3247288D01*
X10582859Y3236112D01*
X10577677Y3224123D01*
X10574121Y3211525D01*
X10572343Y3198520D01*
X10572343Y3185464D01*
X10574121Y3172510D01*
X10577677Y3159912D01*
X10582859Y3147872D01*
X10589666Y3136696D01*
X10597946Y3126536D01*
X10607497Y3117646D01*
X10618165Y3110077D01*
X10629798Y3104032D01*
X10642142Y3099663D01*
X10654944Y3097022D01*
G37*
G36*
X9397949Y3096107D02*
G01*
X9411004Y3097022D01*
X9423857Y3099663D01*
X9436150Y3104032D01*
X9447784Y3110077D01*
X9458452Y3117646D01*
X9468053Y3126536D01*
X9476282Y3136696D01*
X9483090Y3147872D01*
X9488322Y3159912D01*
X9491827Y3172510D01*
X9493605Y3185464D01*
X9493605Y3198520D01*
X9491827Y3211525D01*
X9488322Y3224123D01*
X9483090Y3236112D01*
X9476282Y3247288D01*
X9468053Y3257448D01*
X9455861Y3268878D01*
X9454388Y3271723D01*
X9453880Y3274923D01*
X9453880Y4876647D01*
X9453626Y4881727D01*
X9453016Y4886553D01*
X9451949Y4891328D01*
X9450476Y4895951D01*
X9448596Y4900472D01*
X9446361Y4904790D01*
X9443720Y4908905D01*
X9440773Y4912766D01*
X9437319Y4916525D01*
X9194698Y5159146D01*
X9192514Y5162448D01*
X9191752Y5166309D01*
X9192514Y5170220D01*
X9194698Y5173522D01*
X9198000Y5175707D01*
X9201912Y5176469D01*
X15320772Y5176469D01*
X15323819Y5176012D01*
X15326613Y5174640D01*
X15662351Y4939639D01*
X15664688Y4937353D01*
X15666161Y4934508D01*
X15666669Y4931308D01*
X15666669Y4921199D01*
X15666161Y4917897D01*
X15664586Y4915001D01*
X15662198Y4912715D01*
X15658084Y4910023D01*
X15647669Y4900879D01*
X15638576Y4890465D01*
X15630855Y4878933D01*
X15624759Y4866538D01*
X15620288Y4853432D01*
X15617596Y4839817D01*
X15616682Y4826000D01*
X15617596Y4812182D01*
X15620288Y4798618D01*
X15624759Y4785512D01*
X15630855Y4773066D01*
X15638576Y4761534D01*
X15647669Y4751120D01*
X15658084Y4742027D01*
X15669615Y4734306D01*
X15682061Y4728159D01*
X15695168Y4723739D01*
X15708731Y4721047D01*
X15722549Y4720132D01*
X15736366Y4721047D01*
X15749981Y4723739D01*
X15763087Y4728159D01*
X15775482Y4734306D01*
X15787014Y4742027D01*
X15797428Y4751120D01*
X15806572Y4761534D01*
X15814243Y4773066D01*
X15820390Y4785512D01*
X15824860Y4798618D01*
X15827552Y4812182D01*
X15828467Y4826000D01*
X15827552Y4839817D01*
X15824860Y4853432D01*
X15820390Y4866538D01*
X15814243Y4878933D01*
X15806572Y4890465D01*
X15797428Y4900879D01*
X15787014Y4910023D01*
X15783001Y4912664D01*
X15780613Y4914950D01*
X15779038Y4917846D01*
X15778530Y4921148D01*
X15778530Y4965496D01*
X15778276Y4970576D01*
X15777667Y4975402D01*
X15776600Y4980178D01*
X15775127Y4984800D01*
X15773247Y4989322D01*
X15771012Y4993640D01*
X15768370Y4997754D01*
X15765424Y5001615D01*
X15762122Y5005222D01*
X15758515Y5008524D01*
X15754502Y5011623D01*
X15666669Y5073091D01*
X15663722Y5076342D01*
X15662351Y5080508D01*
X15662960Y5084876D01*
X15665297Y5088585D01*
X15669006Y5090972D01*
X15673374Y5091531D01*
X15677591Y5090210D01*
X15915589Y4952847D01*
X15918332Y4950612D01*
X15920059Y4947513D01*
X15920669Y4944059D01*
X15920669Y4921199D01*
X15920161Y4917897D01*
X15918586Y4915001D01*
X15916198Y4912715D01*
X15912084Y4910023D01*
X15901669Y4900879D01*
X15892576Y4890465D01*
X15884855Y4878933D01*
X15878759Y4866538D01*
X15874288Y4853432D01*
X15871596Y4839817D01*
X15870682Y4826000D01*
X15871596Y4812182D01*
X15874288Y4798618D01*
X15878759Y4785512D01*
X15884855Y4773066D01*
X15892576Y4761534D01*
X15901669Y4751120D01*
X15912084Y4742027D01*
X15923615Y4734306D01*
X15936061Y4728159D01*
X15949168Y4723739D01*
X15962731Y4721047D01*
X15976549Y4720132D01*
X15990366Y4721047D01*
X16003981Y4723739D01*
X16017087Y4728159D01*
X16029482Y4734306D01*
X16041014Y4742027D01*
X16051428Y4751120D01*
X16060572Y4761534D01*
X16068243Y4773066D01*
X16074390Y4785512D01*
X16078860Y4798618D01*
X16081552Y4812182D01*
X16082467Y4826000D01*
X16081552Y4839817D01*
X16078860Y4853432D01*
X16074390Y4866538D01*
X16068243Y4878933D01*
X16060572Y4890465D01*
X16051428Y4900879D01*
X16041014Y4910023D01*
X16037001Y4912664D01*
X16034613Y4914950D01*
X16033038Y4917846D01*
X16032530Y4921148D01*
X16032530Y4981752D01*
X16031616Y4991912D01*
X16029076Y5001310D01*
X16024961Y5010150D01*
X16019373Y5018125D01*
X16012515Y5024983D01*
X16004184Y5030825D01*
X15395346Y5382209D01*
X15386100Y5386476D01*
X15376702Y5389016D01*
X15366542Y5389880D01*
X8128203Y5389930D01*
X8123123Y5389676D01*
X8118297Y5389067D01*
X8113522Y5388000D01*
X8108899Y5386527D01*
X8104378Y5384647D01*
X8100059Y5382412D01*
X8095945Y5379770D01*
X8092084Y5376824D01*
X8088325Y5373370D01*
X7707630Y4992674D01*
X7704175Y4988915D01*
X7701229Y4985054D01*
X7698587Y4980940D01*
X7696352Y4976622D01*
X7694472Y4972100D01*
X7692999Y4967478D01*
X7691932Y4962702D01*
X7691323Y4957876D01*
X7691069Y4952796D01*
X7691069Y4921199D01*
X7690561Y4917897D01*
X7688986Y4915001D01*
X7686598Y4912715D01*
X7682484Y4910023D01*
X7672070Y4900879D01*
X7662976Y4890465D01*
X7655255Y4878933D01*
X7649159Y4866538D01*
X7644688Y4853432D01*
X7641996Y4839817D01*
X7641081Y4826000D01*
X7641996Y4812182D01*
X7644688Y4798618D01*
X7649159Y4785512D01*
X7655255Y4773066D01*
X7662976Y4761534D01*
X7672070Y4751120D01*
X7682484Y4742027D01*
X7694015Y4734306D01*
X7706461Y4728159D01*
X7719568Y4723739D01*
X7733131Y4721047D01*
X7746949Y4720132D01*
X7760766Y4721047D01*
X7774381Y4723739D01*
X7787487Y4728159D01*
X7799882Y4734306D01*
X7811414Y4742027D01*
X7821828Y4751120D01*
X7830972Y4761534D01*
X7838643Y4773066D01*
X7844790Y4785512D01*
X7849260Y4798618D01*
X7851952Y4812182D01*
X7852867Y4826000D01*
X7851952Y4839817D01*
X7849260Y4853432D01*
X7844790Y4866538D01*
X7838643Y4878933D01*
X7830972Y4890465D01*
X7821828Y4900879D01*
X7811414Y4910023D01*
X7807401Y4912664D01*
X7805013Y4914950D01*
X7803438Y4917846D01*
X7802930Y4921148D01*
X7802930Y4925618D01*
X7803692Y4929530D01*
X7805877Y4932832D01*
X8148167Y5275122D01*
X8151469Y5277307D01*
X8155381Y5278069D01*
X8222488Y5278069D01*
X8226399Y5277307D01*
X8229701Y5275122D01*
X8231886Y5271820D01*
X8232648Y5267909D01*
X8231886Y5264048D01*
X8229701Y5260746D01*
X7961630Y4992674D01*
X7958175Y4988915D01*
X7955229Y4985054D01*
X7952587Y4980940D01*
X7950352Y4976622D01*
X7948472Y4972100D01*
X7946999Y4967478D01*
X7945932Y4962702D01*
X7945323Y4957876D01*
X7945069Y4952796D01*
X7945069Y4921199D01*
X7944561Y4917897D01*
X7942986Y4915001D01*
X7940598Y4912715D01*
X7936484Y4910023D01*
X7926070Y4900879D01*
X7916976Y4890465D01*
X7909255Y4878933D01*
X7903159Y4866538D01*
X7898688Y4853432D01*
X7895996Y4839817D01*
X7895081Y4826000D01*
X7895996Y4812182D01*
X7898688Y4798618D01*
X7903159Y4785512D01*
X7909255Y4773066D01*
X7916976Y4761534D01*
X7926070Y4751120D01*
X7936484Y4742027D01*
X7948015Y4734306D01*
X7960461Y4728159D01*
X7973568Y4723739D01*
X7987131Y4721047D01*
X8000949Y4720132D01*
X8014766Y4721047D01*
X8028381Y4723739D01*
X8041487Y4728159D01*
X8053882Y4734306D01*
X8065414Y4742027D01*
X8075828Y4751120D01*
X8084972Y4761534D01*
X8092643Y4773066D01*
X8098790Y4785512D01*
X8103260Y4798618D01*
X8105952Y4812182D01*
X8106867Y4826000D01*
X8105952Y4839817D01*
X8103260Y4853432D01*
X8098790Y4866538D01*
X8092643Y4878933D01*
X8084972Y4890465D01*
X8075828Y4900879D01*
X8065414Y4910023D01*
X8061401Y4912664D01*
X8059013Y4914950D01*
X8057438Y4917846D01*
X8056930Y4921148D01*
X8056930Y4925618D01*
X8057692Y4929530D01*
X8059877Y4932832D01*
X8300567Y5173522D01*
X8303869Y5175707D01*
X8307781Y5176469D01*
X8628888Y5176469D01*
X8632799Y5175707D01*
X8636101Y5173522D01*
X8638286Y5170220D01*
X8639048Y5166309D01*
X8638286Y5162448D01*
X8636101Y5159146D01*
X8469630Y4992674D01*
X8466175Y4988915D01*
X8463229Y4985054D01*
X8460587Y4980940D01*
X8458352Y4976622D01*
X8456472Y4972100D01*
X8454999Y4967478D01*
X8453932Y4962702D01*
X8453323Y4957876D01*
X8453069Y4952796D01*
X8453069Y4921199D01*
X8452561Y4917897D01*
X8450986Y4915001D01*
X8448598Y4912715D01*
X8444484Y4910023D01*
X8434070Y4900879D01*
X8424976Y4890465D01*
X8417255Y4878933D01*
X8411159Y4866538D01*
X8406688Y4853432D01*
X8403996Y4839817D01*
X8403082Y4826000D01*
X8403996Y4812182D01*
X8406688Y4798618D01*
X8411159Y4785512D01*
X8417255Y4773066D01*
X8424976Y4761534D01*
X8434070Y4751120D01*
X8444484Y4742027D01*
X8456015Y4734306D01*
X8468461Y4728159D01*
X8481568Y4723739D01*
X8495131Y4721047D01*
X8508949Y4720132D01*
X8522766Y4721047D01*
X8536381Y4723739D01*
X8549487Y4728159D01*
X8561882Y4734306D01*
X8573414Y4742027D01*
X8583828Y4751120D01*
X8592972Y4761534D01*
X8600643Y4773066D01*
X8606790Y4785512D01*
X8611260Y4798618D01*
X8613952Y4812182D01*
X8614867Y4826000D01*
X8613952Y4839817D01*
X8611260Y4853432D01*
X8606790Y4866538D01*
X8600643Y4878933D01*
X8592972Y4890465D01*
X8583828Y4900879D01*
X8573414Y4910023D01*
X8569401Y4912664D01*
X8567013Y4914950D01*
X8565438Y4917846D01*
X8564930Y4921148D01*
X8564930Y4925618D01*
X8565692Y4929530D01*
X8567877Y4932832D01*
X8706967Y5071922D01*
X8710269Y5074107D01*
X8714181Y5074869D01*
X9116618Y5074869D01*
X9120530Y5074107D01*
X9123832Y5071922D01*
X9339072Y4856683D01*
X9341256Y4853381D01*
X9342018Y4849469D01*
X9342018Y3274872D01*
X9341510Y3271723D01*
X9340037Y3268827D01*
X9327896Y3257448D01*
X9319615Y3247288D01*
X9312808Y3236112D01*
X9307626Y3224123D01*
X9304070Y3211525D01*
X9302292Y3198520D01*
X9302292Y3185464D01*
X9304070Y3172510D01*
X9307626Y3159912D01*
X9312808Y3147872D01*
X9319615Y3136696D01*
X9327896Y3126536D01*
X9337446Y3117646D01*
X9348165Y3110077D01*
X9359747Y3104032D01*
X9372092Y3099663D01*
X9384893Y3097022D01*
G37*
G36*
X6905548Y3958082D02*
G01*
X7064400Y3958082D01*
X7070750Y3958793D01*
X7076186Y3960723D01*
X7081113Y3963771D01*
X7085177Y3967886D01*
X7088276Y3972763D01*
X7090206Y3978249D01*
X7090918Y3984548D01*
X7090918Y4143400D01*
X7090206Y4149750D01*
X7088276Y4155186D01*
X7085177Y4160113D01*
X7081113Y4164177D01*
X7076186Y4167276D01*
X7070750Y4169206D01*
X7064400Y4169918D01*
X6905548Y4169918D01*
X6899249Y4169206D01*
X6893763Y4167276D01*
X6888886Y4164177D01*
X6884771Y4160113D01*
X6881723Y4155186D01*
X6879793Y4149750D01*
X6879081Y4143400D01*
X6879081Y3984548D01*
X6879793Y3978249D01*
X6881723Y3972763D01*
X6884771Y3967886D01*
X6888886Y3963771D01*
X6893763Y3960723D01*
X6899249Y3958793D01*
G37*
G36*
X6477000Y4589119D02*
G01*
X6490817Y4590034D01*
X6504381Y4592726D01*
X6517538Y4597146D01*
X6529933Y4603292D01*
X6541465Y4610963D01*
X6551879Y4620107D01*
X6561023Y4630521D01*
X6568694Y4642053D01*
X6574840Y4654448D01*
X6579260Y4667605D01*
X6582003Y4681169D01*
X6582867Y4694986D01*
X6582003Y4708804D01*
X6579260Y4722418D01*
X6574840Y4735525D01*
X6568694Y4747920D01*
X6561023Y4759452D01*
X6551879Y4769866D01*
X6541465Y4779010D01*
X6529933Y4786680D01*
X6517538Y4792827D01*
X6504381Y4797247D01*
X6490817Y4799990D01*
X6477000Y4800854D01*
X6463182Y4799990D01*
X6449618Y4797247D01*
X6436461Y4792827D01*
X6424066Y4786680D01*
X6412534Y4779010D01*
X6402120Y4769866D01*
X6392976Y4759452D01*
X6385306Y4747920D01*
X6379159Y4735525D01*
X6374739Y4722418D01*
X6371996Y4708804D01*
X6371132Y4694986D01*
X6371996Y4681169D01*
X6374739Y4667605D01*
X6379159Y4654448D01*
X6385306Y4642053D01*
X6392976Y4630521D01*
X6402120Y4620107D01*
X6412534Y4610963D01*
X6424066Y4603292D01*
X6436461Y4597146D01*
X6449618Y4592726D01*
X6463182Y4590034D01*
G37*
G36*
X14605000Y4589119D02*
G01*
X14618817Y4590034D01*
X14632381Y4592726D01*
X14645538Y4597146D01*
X14657933Y4603292D01*
X14669465Y4610963D01*
X14679879Y4620107D01*
X14689023Y4630521D01*
X14696694Y4642053D01*
X14702840Y4654448D01*
X14707260Y4667605D01*
X14710003Y4681169D01*
X14710867Y4694986D01*
X14710003Y4708804D01*
X14707260Y4722418D01*
X14702840Y4735525D01*
X14696694Y4747920D01*
X14689023Y4759452D01*
X14679879Y4769866D01*
X14669465Y4779010D01*
X14657933Y4786680D01*
X14645538Y4792827D01*
X14632381Y4797247D01*
X14618817Y4799990D01*
X14605000Y4800854D01*
X14591182Y4799990D01*
X14577618Y4797247D01*
X14564461Y4792827D01*
X14552066Y4786680D01*
X14540534Y4779010D01*
X14530120Y4769866D01*
X14520976Y4759452D01*
X14513306Y4747920D01*
X14507159Y4735525D01*
X14502739Y4722418D01*
X14499996Y4708804D01*
X14499132Y4694986D01*
X14499996Y4681169D01*
X14502739Y4667605D01*
X14507159Y4654448D01*
X14513306Y4642053D01*
X14520976Y4630521D01*
X14530120Y4620107D01*
X14540534Y4610963D01*
X14552066Y4603292D01*
X14564461Y4597146D01*
X14577618Y4592726D01*
X14591182Y4590034D01*
G37*
G36*
X23482300Y4589119D02*
G01*
X23496117Y4590034D01*
X23509681Y4592726D01*
X23522838Y4597146D01*
X23535233Y4603292D01*
X23546765Y4610963D01*
X23557179Y4620107D01*
X23566323Y4630521D01*
X23573994Y4642053D01*
X23580140Y4654448D01*
X23584560Y4667605D01*
X23587303Y4681169D01*
X23588167Y4694986D01*
X23587303Y4708804D01*
X23584560Y4722418D01*
X23580140Y4735525D01*
X23573994Y4747920D01*
X23566323Y4759452D01*
X23557179Y4769866D01*
X23546765Y4779010D01*
X23535233Y4786680D01*
X23522838Y4792827D01*
X23509681Y4797247D01*
X23496117Y4799990D01*
X23482300Y4800854D01*
X23468482Y4799990D01*
X23454918Y4797247D01*
X23441761Y4792827D01*
X23429366Y4786680D01*
X23417834Y4779010D01*
X23407420Y4769866D01*
X23398276Y4759452D01*
X23390606Y4747920D01*
X23384459Y4735525D01*
X23380039Y4722418D01*
X23377296Y4708804D01*
X23376432Y4694986D01*
X23377296Y4681169D01*
X23380039Y4667605D01*
X23384459Y4654448D01*
X23390606Y4642053D01*
X23398276Y4630521D01*
X23407420Y4620107D01*
X23417834Y4610963D01*
X23429366Y4603292D01*
X23441761Y4597146D01*
X23454918Y4592726D01*
X23468482Y4590034D01*
G37*
G36*
X24803049Y4720132D02*
G01*
X24816866Y4721047D01*
X24830481Y4723739D01*
X24843587Y4728210D01*
X24855982Y4734306D01*
X24867514Y4742027D01*
X24877928Y4751120D01*
X24887072Y4761534D01*
X24894743Y4773066D01*
X24900890Y4785512D01*
X24905360Y4798618D01*
X24908052Y4812182D01*
X24908967Y4826000D01*
X24908052Y4839817D01*
X24905360Y4853432D01*
X24900890Y4866538D01*
X24894743Y4878984D01*
X24887072Y4890465D01*
X24877928Y4900879D01*
X24867514Y4910023D01*
X24855982Y4917694D01*
X24843587Y4923840D01*
X24830481Y4928311D01*
X24816866Y4931003D01*
X24803049Y4931918D01*
X24789231Y4931003D01*
X24775668Y4928311D01*
X24762561Y4923840D01*
X24750115Y4917694D01*
X24738584Y4910023D01*
X24728170Y4900879D01*
X24719076Y4890465D01*
X24711355Y4878984D01*
X24705259Y4866538D01*
X24700788Y4853432D01*
X24698096Y4839817D01*
X24697182Y4826000D01*
X24698096Y4812182D01*
X24700788Y4798618D01*
X24705259Y4785512D01*
X24711355Y4773066D01*
X24719076Y4761534D01*
X24728170Y4751120D01*
X24738584Y4742027D01*
X24750115Y4734306D01*
X24762561Y4728210D01*
X24775668Y4723739D01*
X24789231Y4721047D01*
G37*
G36*
X25057049Y4720132D02*
G01*
X25070866Y4721047D01*
X25084481Y4723739D01*
X25097587Y4728210D01*
X25109982Y4734306D01*
X25121514Y4742027D01*
X25131928Y4751120D01*
X25141072Y4761534D01*
X25148743Y4773066D01*
X25154890Y4785512D01*
X25159360Y4798618D01*
X25162052Y4812182D01*
X25162967Y4826000D01*
X25162052Y4839817D01*
X25159360Y4853432D01*
X25154890Y4866538D01*
X25148743Y4878984D01*
X25141072Y4890465D01*
X25131928Y4900879D01*
X25121514Y4910023D01*
X25109982Y4917694D01*
X25097587Y4923840D01*
X25084481Y4928311D01*
X25070866Y4931003D01*
X25057049Y4931918D01*
X25043231Y4931003D01*
X25029668Y4928311D01*
X25016561Y4923840D01*
X25004115Y4917694D01*
X24992584Y4910023D01*
X24982170Y4900879D01*
X24973076Y4890465D01*
X24965355Y4878984D01*
X24959259Y4866538D01*
X24954788Y4853432D01*
X24952096Y4839817D01*
X24951182Y4826000D01*
X24952096Y4812182D01*
X24954788Y4798618D01*
X24959259Y4785512D01*
X24965355Y4773066D01*
X24973076Y4761534D01*
X24982170Y4751120D01*
X24992584Y4742027D01*
X25004115Y4734306D01*
X25016561Y4728210D01*
X25029668Y4723739D01*
X25043231Y4721047D01*
G37*
G36*
X25311049Y4720132D02*
G01*
X25324866Y4721047D01*
X25338481Y4723739D01*
X25351587Y4728210D01*
X25363982Y4734306D01*
X25375514Y4742027D01*
X25385928Y4751120D01*
X25395072Y4761534D01*
X25402743Y4773066D01*
X25408890Y4785512D01*
X25413360Y4798618D01*
X25416052Y4812182D01*
X25416967Y4826000D01*
X25416052Y4839817D01*
X25413360Y4853432D01*
X25408890Y4866538D01*
X25402743Y4878984D01*
X25395072Y4890465D01*
X25385928Y4900879D01*
X25375514Y4910023D01*
X25363982Y4917694D01*
X25351587Y4923840D01*
X25338481Y4928311D01*
X25324866Y4931003D01*
X25311049Y4931918D01*
X25297231Y4931003D01*
X25283668Y4928311D01*
X25270561Y4923840D01*
X25258115Y4917694D01*
X25246584Y4910023D01*
X25236170Y4900879D01*
X25227076Y4890465D01*
X25219355Y4878984D01*
X25213259Y4866538D01*
X25208788Y4853432D01*
X25206096Y4839817D01*
X25205182Y4826000D01*
X25206096Y4812182D01*
X25208788Y4798618D01*
X25213259Y4785512D01*
X25219355Y4773066D01*
X25227076Y4761534D01*
X25236170Y4751120D01*
X25246584Y4742027D01*
X25258115Y4734306D01*
X25270561Y4728210D01*
X25283668Y4723739D01*
X25297231Y4721047D01*
G37*
G36*
X6984949Y4720132D02*
G01*
X6998766Y4721047D01*
X7012381Y4723739D01*
X7025487Y4728159D01*
X7037882Y4734306D01*
X7049414Y4742027D01*
X7059828Y4751120D01*
X7068972Y4761534D01*
X7076643Y4773066D01*
X7082790Y4785512D01*
X7087260Y4798618D01*
X7089952Y4812182D01*
X7090867Y4826000D01*
X7089952Y4839817D01*
X7087260Y4853432D01*
X7082790Y4866538D01*
X7076643Y4878933D01*
X7068972Y4890465D01*
X7059828Y4900879D01*
X7049414Y4910023D01*
X7037882Y4917694D01*
X7025487Y4923840D01*
X7012381Y4928311D01*
X6998766Y4931003D01*
X6984949Y4931918D01*
X6971131Y4931003D01*
X6957568Y4928311D01*
X6944461Y4923840D01*
X6932015Y4917694D01*
X6920484Y4910023D01*
X6910070Y4900879D01*
X6900976Y4890465D01*
X6893255Y4878933D01*
X6887159Y4866538D01*
X6882688Y4853432D01*
X6879996Y4839817D01*
X6879081Y4826000D01*
X6879996Y4812182D01*
X6882688Y4798618D01*
X6887159Y4785512D01*
X6893255Y4773066D01*
X6900976Y4761534D01*
X6910070Y4751120D01*
X6920484Y4742027D01*
X6932015Y4734306D01*
X6944461Y4728159D01*
X6957568Y4723739D01*
X6971131Y4721047D01*
G37*
G36*
X15214549Y4720132D02*
G01*
X15228366Y4721047D01*
X15241981Y4723739D01*
X15255087Y4728159D01*
X15267482Y4734306D01*
X15279014Y4742027D01*
X15289428Y4751120D01*
X15298572Y4761534D01*
X15306243Y4773066D01*
X15312390Y4785512D01*
X15316860Y4798618D01*
X15319552Y4812182D01*
X15320467Y4826000D01*
X15319552Y4839817D01*
X15316860Y4853432D01*
X15312390Y4866538D01*
X15306243Y4878933D01*
X15298572Y4890465D01*
X15289428Y4900879D01*
X15279014Y4910023D01*
X15267482Y4917694D01*
X15255087Y4923840D01*
X15241981Y4928311D01*
X15228366Y4931003D01*
X15214549Y4931918D01*
X15200731Y4931003D01*
X15187168Y4928311D01*
X15174061Y4923840D01*
X15161615Y4917694D01*
X15150084Y4910023D01*
X15139669Y4900879D01*
X15130576Y4890465D01*
X15122855Y4878933D01*
X15116759Y4866538D01*
X15112288Y4853432D01*
X15109596Y4839817D01*
X15108682Y4826000D01*
X15109596Y4812182D01*
X15112288Y4798618D01*
X15116759Y4785512D01*
X15122855Y4773066D01*
X15130576Y4761534D01*
X15139669Y4751120D01*
X15150084Y4742027D01*
X15161615Y4734306D01*
X15174061Y4728159D01*
X15187168Y4723739D01*
X15200731Y4721047D01*
G37*
G36*
X24295049Y4720132D02*
G01*
X24308866Y4721047D01*
X24322481Y4723739D01*
X24335587Y4728210D01*
X24347982Y4734306D01*
X24359514Y4742027D01*
X24369928Y4751120D01*
X24379072Y4761534D01*
X24386743Y4773066D01*
X24392890Y4785512D01*
X24397360Y4798618D01*
X24400052Y4812182D01*
X24400967Y4826000D01*
X24400052Y4839817D01*
X24397360Y4853432D01*
X24392890Y4866538D01*
X24386743Y4878984D01*
X24379072Y4890465D01*
X24369928Y4900879D01*
X24359514Y4910023D01*
X24347982Y4917694D01*
X24335587Y4923840D01*
X24322481Y4928311D01*
X24308866Y4931003D01*
X24295049Y4931918D01*
X24281231Y4931003D01*
X24267668Y4928311D01*
X24254561Y4923840D01*
X24242115Y4917694D01*
X24230584Y4910023D01*
X24220170Y4900879D01*
X24211076Y4890465D01*
X24203355Y4878984D01*
X24197259Y4866538D01*
X24192788Y4853432D01*
X24190096Y4839817D01*
X24189182Y4826000D01*
X24190096Y4812182D01*
X24192788Y4798618D01*
X24197259Y4785512D01*
X24203355Y4773066D01*
X24211076Y4761534D01*
X24220170Y4751120D01*
X24230584Y4742027D01*
X24242115Y4734306D01*
X24254561Y4728210D01*
X24267668Y4723739D01*
X24281231Y4721047D01*
G37*
G36*
X16230549Y4720132D02*
G01*
X16244366Y4721047D01*
X16257981Y4723739D01*
X16271087Y4728159D01*
X16283482Y4734306D01*
X16295014Y4742027D01*
X16305428Y4751120D01*
X16314572Y4761534D01*
X16322243Y4773066D01*
X16328390Y4785512D01*
X16332860Y4798618D01*
X16335552Y4812182D01*
X16336467Y4826000D01*
X16335552Y4839817D01*
X16332860Y4853432D01*
X16328390Y4866538D01*
X16322243Y4878933D01*
X16314572Y4890465D01*
X16305428Y4900879D01*
X16295014Y4910023D01*
X16283482Y4917694D01*
X16271087Y4923840D01*
X16257981Y4928311D01*
X16244366Y4931003D01*
X16230549Y4931918D01*
X16216731Y4931003D01*
X16203168Y4928311D01*
X16190061Y4923840D01*
X16177615Y4917694D01*
X16166084Y4910023D01*
X16155669Y4900879D01*
X16146576Y4890465D01*
X16138855Y4878933D01*
X16132759Y4866538D01*
X16128288Y4853432D01*
X16125596Y4839817D01*
X16124682Y4826000D01*
X16125596Y4812182D01*
X16128288Y4798618D01*
X16132759Y4785512D01*
X16138855Y4773066D01*
X16146576Y4761534D01*
X16155669Y4751120D01*
X16166084Y4742027D01*
X16177615Y4734306D01*
X16190061Y4728159D01*
X16203168Y4723739D01*
X16216731Y4721047D01*
G37*
G36*
X7492949Y4720132D02*
G01*
X7506766Y4721047D01*
X7520381Y4723739D01*
X7533487Y4728159D01*
X7545882Y4734306D01*
X7557414Y4742027D01*
X7567828Y4751120D01*
X7576972Y4761534D01*
X7584643Y4773066D01*
X7590790Y4785512D01*
X7595260Y4798618D01*
X7597952Y4812182D01*
X7598867Y4826000D01*
X7597952Y4839817D01*
X7595260Y4853432D01*
X7590790Y4866538D01*
X7584643Y4878933D01*
X7576972Y4890465D01*
X7567828Y4900879D01*
X7557414Y4910023D01*
X7545882Y4917694D01*
X7537297Y4921961D01*
X7534300Y4924196D01*
X7532319Y4927396D01*
X7531608Y4932781D01*
X7532370Y4936693D01*
X7534605Y4939995D01*
X9411004Y6816394D01*
X9414306Y6818630D01*
X9418218Y6819392D01*
X14838781Y6819392D01*
X14842693Y6818630D01*
X14845995Y6816394D01*
X15012365Y6650024D01*
X15014498Y6646925D01*
X15015362Y6643268D01*
X15014803Y6639559D01*
X15011958Y6631076D01*
X15009266Y6617665D01*
X15008351Y6604000D01*
X15009266Y6590334D01*
X15011958Y6576923D01*
X15016327Y6563969D01*
X15022372Y6551676D01*
X15029992Y6540296D01*
X15039035Y6530035D01*
X15049296Y6520992D01*
X15060676Y6513372D01*
X15072969Y6507327D01*
X15085923Y6502958D01*
X15099334Y6500266D01*
X15113000Y6499352D01*
X15126665Y6500266D01*
X15140076Y6502958D01*
X15153030Y6507327D01*
X15165324Y6513372D01*
X15176703Y6520992D01*
X15186964Y6530035D01*
X15196007Y6540296D01*
X15203627Y6551676D01*
X15209672Y6563969D01*
X15214041Y6576923D01*
X15216733Y6590334D01*
X15217648Y6604000D01*
X15216733Y6617665D01*
X15214041Y6631076D01*
X15209672Y6644030D01*
X15203627Y6656324D01*
X15196007Y6667703D01*
X15186964Y6677964D01*
X15176703Y6687007D01*
X15165324Y6694627D01*
X15153030Y6700672D01*
X15140076Y6705041D01*
X15126665Y6707733D01*
X15113000Y6708648D01*
X15099334Y6707733D01*
X15085923Y6705041D01*
X15077440Y6702196D01*
X15073731Y6701637D01*
X15070074Y6702501D01*
X15066975Y6704634D01*
X14886635Y6884924D01*
X14880437Y6890054D01*
X14873732Y6893610D01*
X14866518Y6895795D01*
X14858492Y6896608D01*
X9398508Y6896608D01*
X9390481Y6895795D01*
X9383268Y6893610D01*
X9376562Y6890054D01*
X9370364Y6884924D01*
X7466075Y4980635D01*
X7460945Y4974437D01*
X7457389Y4967732D01*
X7455204Y4960518D01*
X7454392Y4952492D01*
X7454392Y4931105D01*
X7453680Y4927447D01*
X7451699Y4924247D01*
X7448702Y4922012D01*
X7440015Y4917694D01*
X7428484Y4910023D01*
X7418070Y4900879D01*
X7408976Y4890465D01*
X7401255Y4878933D01*
X7395159Y4866538D01*
X7390688Y4853432D01*
X7387996Y4839817D01*
X7387081Y4826000D01*
X7387996Y4812182D01*
X7390688Y4798618D01*
X7395159Y4785512D01*
X7401255Y4773066D01*
X7408976Y4761534D01*
X7418070Y4751120D01*
X7428484Y4742027D01*
X7440015Y4734306D01*
X7452461Y4728159D01*
X7465568Y4723739D01*
X7479131Y4721047D01*
G37*
G36*
X14605000Y6499352D02*
G01*
X14618665Y6500266D01*
X14632076Y6502958D01*
X14645030Y6507327D01*
X14657324Y6513372D01*
X14668703Y6520992D01*
X14678964Y6530035D01*
X14688007Y6540296D01*
X14695627Y6551676D01*
X14701672Y6563969D01*
X14706041Y6576923D01*
X14708733Y6590334D01*
X14709648Y6604000D01*
X14708733Y6617665D01*
X14706041Y6631076D01*
X14701672Y6644030D01*
X14695627Y6656324D01*
X14688007Y6667703D01*
X14678964Y6677964D01*
X14668703Y6687007D01*
X14657324Y6694627D01*
X14645030Y6700672D01*
X14632076Y6705041D01*
X14618665Y6707733D01*
X14605000Y6708648D01*
X14591334Y6707733D01*
X14577923Y6705041D01*
X14564969Y6700672D01*
X14552676Y6694627D01*
X14541296Y6687007D01*
X14531035Y6677964D01*
X14521992Y6667703D01*
X14514372Y6656324D01*
X14508327Y6644030D01*
X14503958Y6631076D01*
X14501266Y6617665D01*
X14500351Y6604000D01*
X14501266Y6590334D01*
X14503958Y6576923D01*
X14508327Y6563969D01*
X14514372Y6551676D01*
X14521992Y6540296D01*
X14531035Y6530035D01*
X14541296Y6520992D01*
X14552676Y6513372D01*
X14564969Y6507327D01*
X14577923Y6502958D01*
X14591334Y6500266D01*
G37*
G36*
X14351000Y6499352D02*
G01*
X14364665Y6500266D01*
X14378076Y6502958D01*
X14391030Y6507327D01*
X14403324Y6513372D01*
X14414703Y6520992D01*
X14424964Y6530035D01*
X14434007Y6540296D01*
X14441627Y6551676D01*
X14447672Y6563969D01*
X14452041Y6576923D01*
X14454733Y6590334D01*
X14455648Y6604000D01*
X14454733Y6617665D01*
X14452041Y6631076D01*
X14447672Y6644030D01*
X14441627Y6656324D01*
X14434007Y6667703D01*
X14424964Y6677964D01*
X14414703Y6687007D01*
X14403324Y6694627D01*
X14391030Y6700672D01*
X14378076Y6705041D01*
X14364665Y6707733D01*
X14351000Y6708648D01*
X14337334Y6707733D01*
X14323923Y6705041D01*
X14310969Y6700672D01*
X14298676Y6694627D01*
X14287296Y6687007D01*
X14277035Y6677964D01*
X14267992Y6667703D01*
X14260372Y6656324D01*
X14254327Y6644030D01*
X14249958Y6631076D01*
X14247266Y6617665D01*
X14246351Y6604000D01*
X14247266Y6590334D01*
X14249958Y6576923D01*
X14254327Y6563969D01*
X14260372Y6551676D01*
X14267992Y6540296D01*
X14277035Y6530035D01*
X14287296Y6520992D01*
X14298676Y6513372D01*
X14310969Y6507327D01*
X14323923Y6502958D01*
X14337334Y6500266D01*
G37*
G36*
X14018818Y6499352D02*
G01*
X14175181Y6499352D01*
X14181480Y6500063D01*
X14186966Y6501993D01*
X14191843Y6505041D01*
X14195958Y6509156D01*
X14199006Y6514033D01*
X14200936Y6519519D01*
X14201648Y6525818D01*
X14201648Y6682181D01*
X14200936Y6688480D01*
X14199006Y6693966D01*
X14195958Y6698843D01*
X14191843Y6702958D01*
X14186966Y6706006D01*
X14181480Y6707936D01*
X14175181Y6708648D01*
X14018818Y6708648D01*
X14012519Y6707936D01*
X14007033Y6706006D01*
X14002156Y6702958D01*
X13998041Y6698843D01*
X13994993Y6693966D01*
X13993063Y6688480D01*
X13992351Y6682181D01*
X13992351Y6525818D01*
X13993063Y6519519D01*
X13994993Y6514033D01*
X13998041Y6509156D01*
X14002156Y6505041D01*
X14007033Y6501993D01*
X14012519Y6500063D01*
G37*

%LPD*%
D10*
X16992600Y4064000D02*
G01*
X16992600Y4064000D01*
X17018000Y3192018D01*
X29718000Y3192018D02*
G01*
X29717949Y3191992D01*
X29718000Y4572000D01*
X29210000Y5080000D01*
X25908000Y5080000D01*
X25819100Y4991100D01*
X25819100Y4826000D01*
X15468600Y4527791D02*
G01*
X15468600Y4064000D01*
X16738600Y4826000D02*
G01*
X17030700Y5118100D01*
X17631892Y5118100D01*
X19558000Y3191992D01*
X16992600Y4826000D02*
G01*
X16992600Y4487392D01*
X18288000Y3191992D01*
X15976600Y4826000D02*
G01*
X15976600Y4982210D01*
X15367000Y5333989D01*
X8128000Y5334000D01*
X7747000Y4953000D01*
X7747000Y4825992D01*
X15722600Y4826000D02*
G01*
X15722600Y4965700D01*
X15341600Y5232400D01*
X8280400Y5232400D01*
X8001000Y4953000D01*
X8001000Y4825992D01*
X9397949Y3191992D02*
G01*
X9397949Y4876850D01*
X9144000Y5130800D01*
X8686800Y5130800D01*
X8509000Y4953000D01*
X8509000Y4825992D01*
X16230600Y4064000D02*
G01*
X15709900Y3543300D01*
X13559307Y3543300D01*
X13208000Y3191992D01*
X15976600Y4064000D02*
G01*
X15659100Y3746500D01*
X12492481Y3746500D01*
X11938000Y3192018D01*
X16484600Y4064000D02*
G01*
X15811500Y3390900D01*
X14676907Y3390900D01*
X14478000Y3191992D01*
X16738600Y4064000D02*
G01*
X15866592Y3191992D01*
X15748000Y3191992D01*
X15722600Y4064000D02*
G01*
X15549854Y3891254D01*
X11367261Y3891254D01*
X10668000Y3191992D01*
X28448000Y3179292D02*
G01*
X28448000Y4572000D01*
X28194000Y4826000D01*
X26073100Y4826000D01*
X26073100Y4064000D02*
G01*
X26945107Y3191992D01*
X27178000Y3191992D01*
X25908000Y3191992D02*
G01*
X25908000Y3746500D01*
X25819100Y3835400D01*
X25819100Y4064000D01*
X24638000Y3191992D02*
G01*
X24908992Y3191992D01*
X25565100Y3848100D01*
X25565100Y4064000D01*
X23368000Y3191992D02*
G01*
X23372292Y3191992D01*
X23901400Y3721100D01*
X24968200Y3721100D01*
X25311100Y4064000D01*
X22098000Y3191992D02*
G01*
X22707396Y3801389D01*
X24794489Y3801389D01*
X25057100Y4064000D01*
X20828000Y3191992D02*
G01*
X21518981Y3882974D01*
X24622074Y3882974D01*
X24803100Y4064000D01*
D11*
X23850600Y0D02*
G01*
X26386942Y0D01*
X28930600Y0D02*
G01*
X26386942Y0D01*
D12*
X15113000Y6604000D02*
G01*
X14859000Y6858000D01*
X9398000Y6858000D01*
X7493000Y4953000D01*
X7493000Y4825992D01*
D10*
X8128000Y3192018D02*
G01*
X8780018Y3192018D01*
X9144000Y3556000D01*
X9144000Y4699000D01*
X9029700Y4826000D01*
X8763000Y4826000D01*
X508000Y3192018D02*
G01*
X1189481Y3873500D01*
X7302500Y3873500D01*
X7493000Y4064000D01*
X1778000Y3192018D02*
G01*
X2357881Y3771900D01*
X7467600Y3771900D01*
X7747000Y4063992D01*
X3048000Y3192018D02*
G01*
X3526281Y3670300D01*
X7696200Y3670300D01*
X8001000Y3975100D01*
X8001000Y4063992D01*
X4318000Y3192018D02*
G01*
X4694681Y3568700D01*
X7874000Y3568700D01*
X8255000Y3949700D01*
X8255000Y4063992D01*
X5575300Y3192018D02*
G01*
X5850381Y3467100D01*
X8140700Y3467100D01*
X8509000Y3835400D01*
X8509000Y4063992D01*
X6870700Y3230118D02*
G01*
X7006081Y3365500D01*
X8318500Y3365500D01*
X8763000Y3810000D01*
X8763000Y4063992D01*
D11*
X17496967Y0D02*
G01*
X17496967Y0D01*
X13686967Y-12700D01*
X11146967Y0D02*
G01*
X8610600Y0D01*
X2263119Y-6126D02*
G01*
X2269246Y0D01*
X4796993Y0D01*
X4796993Y0D02*
G01*
X8610600Y0D01*
X20036993Y3606D02*
G01*
X20036993Y3606D01*
X17500600Y0D01*
X11150600Y0D02*
G01*
X13686967Y-12700D01*
X13686967Y-12700D01*
X23846942Y0D02*
G01*
X23846942Y0D01*
X20036993Y3606D01*
D13*
G01*
X6477000Y4694986D03*
G01*
X6477000Y4194987D03*
G01*
X14605000Y4195013D03*
G01*
X14605000Y4695012D03*
G01*
X23482300Y4195013D03*
G01*
X23482300Y4695012D03*
G01*
X6985000Y4826000D03*
G01*
X7239000Y4826000D03*
G01*
X7493000Y4826000D03*
G01*
X7747000Y4826000D03*
G01*
X8001000Y4826000D03*
G01*
X8255000Y4826000D03*
G01*
X8509000Y4826000D03*
G01*
X8763000Y4826000D03*
G01*
X8763000Y4064000D03*
G01*
X8509000Y4064000D03*
G01*
X8255000Y4064000D03*
G01*
X8001000Y4064000D03*
G01*
X7747000Y4064000D03*
G01*
X7493000Y4064000D03*
G01*
X7239000Y4064000D03*
D14*
G01*
X6985000Y4064000D03*
D13*
G01*
X15214600Y4826000D03*
G01*
X15468600Y4826000D03*
G01*
X15722600Y4826000D03*
G01*
X15976600Y4826000D03*
G01*
X16230600Y4826000D03*
G01*
X16484600Y4826000D03*
G01*
X16738600Y4826000D03*
G01*
X16992600Y4826000D03*
G01*
X16992600Y4064000D03*
G01*
X16738600Y4064000D03*
G01*
X16484600Y4064000D03*
G01*
X16230600Y4064000D03*
G01*
X15976600Y4064000D03*
G01*
X15722600Y4064000D03*
G01*
X15468600Y4064000D03*
D14*
G01*
X15214600Y4064000D03*
D13*
G01*
X24295100Y4826000D03*
G01*
X24549100Y4826000D03*
G01*
X24803100Y4826000D03*
G01*
X25057100Y4826000D03*
G01*
X25311100Y4826000D03*
G01*
X25565100Y4826000D03*
G01*
X25819100Y4826000D03*
G01*
X26073100Y4826000D03*
G01*
X26073100Y4064000D03*
G01*
X25819100Y4064000D03*
G01*
X25565100Y4064000D03*
G01*
X25311100Y4064000D03*
G01*
X25057100Y4064000D03*
G01*
X24803100Y4064000D03*
G01*
X24549100Y4064000D03*
D14*
G01*
X24295100Y4064000D03*
D15*
G01*
X15113000Y6604000D03*
G01*
X14859000Y6604000D03*
G01*
X14605000Y6604000D03*
G01*
X14351000Y6604000D03*
D16*
G01*
X14097000Y6604000D03*
D17*
G01*
X10668000Y3191992D03*
G01*
X10668000Y2142007D03*
G01*
X11938000Y3191992D03*
G01*
X11938000Y2142007D03*
G01*
X13208000Y3191992D03*
G01*
X13208000Y2142007D03*
G01*
X14478000Y3191992D03*
G01*
X14478000Y2142007D03*
G01*
X15748000Y3191992D03*
G01*
X15748000Y2142007D03*
G01*
X17018000Y3191992D03*
G01*
X17018000Y2142007D03*
G01*
X18288000Y3191992D03*
G01*
X18288000Y2142007D03*
G01*
X19558000Y3191992D03*
G01*
X19558000Y2142007D03*
G01*
X20828000Y3191992D03*
G01*
X20828000Y2142007D03*
G01*
X22098000Y3191992D03*
G01*
X22098000Y2142007D03*
G01*
X23368000Y3191992D03*
G01*
X23368000Y2142007D03*
G01*
X24638000Y3191992D03*
G01*
X24638000Y2142007D03*
G01*
X25907949Y3191992D03*
G01*
X25907949Y2142007D03*
G01*
X27177949Y3191992D03*
G01*
X27177949Y2142007D03*
G01*
X28447949Y3191992D03*
G01*
X28447949Y2142007D03*
G01*
X29717949Y3191992D03*
G01*
X29717949Y2142007D03*
G01*
X8127974Y2141981D03*
G01*
X8127974Y3191992D03*
G01*
X6858000Y2141981D03*
G01*
X6858000Y3191992D03*
G01*
X5588000Y2141981D03*
G01*
X5588000Y3191992D03*
G01*
X4318000Y2141981D03*
G01*
X4318000Y3191992D03*
G01*
X3048000Y2141981D03*
G01*
X3048000Y3191992D03*
G01*
X1778000Y2141981D03*
G01*
X1778000Y3191992D03*
G01*
X508000Y2141981D03*
G01*
X508000Y3191992D03*
G01*
X9397949Y2141981D03*
G01*
X9397949Y3191992D03*
D13*
G01*
X28930600Y0D03*
G01*
X26386942Y0D03*
G01*
X23846942Y0D03*
G01*
X20036993Y3606D03*
G01*
X17496967Y0D03*
G01*
X13686967Y-12700D03*
G01*
X11146967Y0D03*
G01*
X8610600Y0D03*
G01*
X4796993Y0D03*
G01*
X2260600Y0D03*
D11*
G01*
X15468600Y4527791D03*
D18*
G01*
X12750800Y4800600D03*
G01*
X12598400Y4508500D03*
G01*
X13524433Y4864100D03*
G01*
X13525500Y4445000D03*
M02*
