G04 Layer: BottomSolderMaskLayer*
G04 EasyEDA v6.5.43, 2024-08-27 15:16:03*
G04 cb6e2e9fbd21486d88ae5690d2d3dc00,10*
G04 Gerber Generator version 0.2*
G04 Scale: 100 percent, Rotated: No, Reflected: No *
G04 Dimensions in millimeters *
G04 leading zeros omitted , absolute positions ,4 integer and 5 decimal *
%FSLAX45Y45*%
%MOMM*%

%AMMACRO1*4,1,8,-0.8211,-0.8508,-0.8508,-0.821,-0.8508,0.821,-0.8211,0.8508,0.821,0.8508,0.8508,0.821,0.8508,-0.821,0.821,-0.8508,-0.8211,-0.8508,0*%
%AMMACRO2*4,1,8,-0.8211,-0.8508,-0.8508,-0.821,-0.8508,0.8211,-0.8211,0.8508,0.821,0.8508,0.8508,0.8211,0.8508,-0.821,0.821,-0.8508,-0.8211,-0.8508,0*%
%AMMACRO3*4,1,8,-0.8085,-0.8382,-0.8382,-0.8084,-0.8382,0.8085,-0.8085,0.8382,0.8084,0.8382,0.8382,0.8085,0.8382,-0.8084,0.8084,-0.8382,-0.8085,-0.8382,0*%
%ADD10C,1.7000*%
%ADD11C,1.7016*%
%ADD12MACRO1*%
%ADD13MACRO2*%
%ADD14C,1.6764*%
%ADD15MACRO3*%
%ADD16C,1.5016*%
%ADD17C,1.5020*%

%LPD*%
D10*
G01*
X6477000Y4694986D03*
G01*
X6477000Y4194987D03*
G01*
X14605000Y4195013D03*
G01*
X14605000Y4695012D03*
G01*
X23482300Y4195013D03*
G01*
X23482300Y4695012D03*
D11*
G01*
X6985000Y4826000D03*
G01*
X7239000Y4826000D03*
G01*
X7493000Y4826000D03*
G01*
X7747000Y4826000D03*
G01*
X8001000Y4826000D03*
G01*
X8255000Y4826000D03*
G01*
X8509000Y4826000D03*
G01*
X8763000Y4826000D03*
G01*
X8763000Y4064000D03*
G01*
X8509000Y4064000D03*
G01*
X8255000Y4064000D03*
G01*
X8001000Y4064000D03*
G01*
X7747000Y4064000D03*
G01*
X7493000Y4064000D03*
G01*
X7239000Y4064000D03*
D12*
G01*
X6984992Y4063993D03*
D11*
G01*
X15214600Y4826000D03*
G01*
X15468600Y4826000D03*
G01*
X15722600Y4826000D03*
G01*
X15976600Y4826000D03*
G01*
X16230600Y4826000D03*
G01*
X16484600Y4826000D03*
G01*
X16738600Y4826000D03*
G01*
X16992600Y4826000D03*
G01*
X16992600Y4064000D03*
G01*
X16738600Y4064000D03*
G01*
X16484600Y4064000D03*
G01*
X16230600Y4064000D03*
G01*
X15976600Y4064000D03*
G01*
X15722600Y4064000D03*
G01*
X15468600Y4064000D03*
D12*
G01*
X15214592Y4063993D03*
D11*
G01*
X24295100Y4826000D03*
G01*
X24549100Y4826000D03*
G01*
X24803100Y4826000D03*
G01*
X25057100Y4826000D03*
G01*
X25311100Y4826000D03*
G01*
X25565100Y4826000D03*
G01*
X25819100Y4826000D03*
G01*
X26073100Y4826000D03*
G01*
X26073100Y4064000D03*
G01*
X25819100Y4064000D03*
G01*
X25565100Y4064000D03*
G01*
X25311100Y4064000D03*
G01*
X25057100Y4064000D03*
G01*
X24803100Y4064000D03*
G01*
X24549100Y4064000D03*
D13*
G01*
X24295092Y4064002D03*
D14*
G01*
X15113000Y6604000D03*
G01*
X14859000Y6604000D03*
G01*
X14605000Y6604000D03*
G01*
X14351000Y6604000D03*
D15*
G01*
X14097000Y6604000D03*
D16*
G01*
X10668000Y3191992D03*
G01*
X10668000Y2142007D03*
G01*
X11938000Y3191992D03*
G01*
X11938000Y2142007D03*
G01*
X13208000Y3191992D03*
G01*
X13208000Y2142007D03*
G01*
X14478000Y3191992D03*
G01*
X14478000Y2142007D03*
G01*
X15748000Y3191992D03*
G01*
X15748000Y2142007D03*
G01*
X17018000Y3191992D03*
G01*
X17018000Y2142007D03*
G01*
X18288000Y3191992D03*
G01*
X18288000Y2142007D03*
G01*
X19558000Y3191992D03*
G01*
X19558000Y2142007D03*
G01*
X20828000Y3191992D03*
G01*
X20828000Y2142007D03*
G01*
X22098000Y3191992D03*
G01*
X22098000Y2142007D03*
G01*
X23368000Y3191992D03*
G01*
X23368000Y2142007D03*
G01*
X24638000Y3191992D03*
G01*
X24638000Y2142007D03*
G01*
X25907949Y3191992D03*
G01*
X25907949Y2142007D03*
G01*
X27177949Y3191992D03*
G01*
X27177949Y2142007D03*
G01*
X28447949Y3191992D03*
G01*
X28447949Y2142007D03*
G01*
X29717949Y3191992D03*
G01*
X29717949Y2142007D03*
D17*
G01*
X8127974Y2141981D03*
G01*
X8127974Y3191992D03*
G01*
X6858000Y2141981D03*
G01*
X6858000Y3191992D03*
G01*
X5588000Y2141981D03*
G01*
X5588000Y3191992D03*
G01*
X4318000Y2141981D03*
G01*
X4318000Y3191992D03*
G01*
X3048000Y2141981D03*
G01*
X3048000Y3191992D03*
G01*
X1778000Y2141981D03*
G01*
X1778000Y3191992D03*
G01*
X508000Y2141981D03*
G01*
X508000Y3191992D03*
G01*
X9397949Y2141981D03*
G01*
X9397949Y3191992D03*
M02*
