G04 Layer: TopLayer*
G04 EasyEDA v6.5.43, 2024-08-15 14:13:16*
G04 cb6e2e9fbd21486d88ae5690d2d3dc00,10*
G04 Gerber Generator version 0.2*
G04 Scale: 100 percent, Rotated: No, Reflected: No *
G04 Dimensions in millimeters *
G04 leading zeros omitted , absolute positions ,4 integer and 5 decimal *
%FSLAX45Y45*%
%MOMM*%

%AMMACRO1*21,1,$1,$2,0,0,$3*%
%ADD10C,0.1000*%
%ADD11C,0.2540*%
%ADD12O,1.7420082X0.36400740000000004*%
%ADD13R,0.8000X0.9000*%
%ADD14R,0.9000X0.8000*%
%ADD15R,1.0000X0.7500*%
%ADD16R,1.1000X0.6000*%
%ADD17MACRO1,1.5X2.7X90.0000*%
%ADD18R,1.0000X2.0000*%
%ADD19R,0.4500X2.0000*%
%ADD20R,1.9000X2.1000*%
%ADD21MACRO1,0.864X0.8065X0.0000*%
%ADD22R,0.8640X0.8065*%
%ADD23R,1.5748X1.5748*%
%ADD24C,1.5748*%
%ADD25C,0.6100*%
%ADD26C,0.0143*%

%LPD*%
D10*
X4229354Y-344423D02*
G01*
X4220209Y-335534D01*
X4206493Y-330962D01*
X4188206Y-330962D01*
X4174743Y-335534D01*
X4165600Y-344423D01*
X4165600Y-353568D01*
X4170172Y-362712D01*
X4174743Y-367284D01*
X4183888Y-371855D01*
X4211065Y-381000D01*
X4220209Y-385318D01*
X4224781Y-389889D01*
X4229354Y-399034D01*
X4229354Y-412750D01*
X4220209Y-421894D01*
X4206493Y-426465D01*
X4188206Y-426465D01*
X4174743Y-421894D01*
X4165600Y-412750D01*
X4259325Y-330962D02*
G01*
X4281931Y-426465D01*
X4304791Y-330962D02*
G01*
X4281931Y-426465D01*
X4304791Y-330962D02*
G01*
X4327397Y-426465D01*
X4350258Y-330962D02*
G01*
X4327397Y-426465D01*
X4448302Y-353568D02*
G01*
X4443729Y-344423D01*
X4434586Y-335534D01*
X4425695Y-330962D01*
X4407408Y-330962D01*
X4398263Y-335534D01*
X4389120Y-344423D01*
X4384802Y-353568D01*
X4380229Y-367284D01*
X4380229Y-389889D01*
X4384802Y-403605D01*
X4389120Y-412750D01*
X4398263Y-421894D01*
X4407408Y-426465D01*
X4425695Y-426465D01*
X4434586Y-421894D01*
X4443729Y-412750D01*
X4448302Y-403605D01*
X4478274Y-330962D02*
G01*
X4478274Y-426465D01*
X4478274Y-426465D02*
G01*
X4532884Y-426465D01*
X4562856Y-330962D02*
G01*
X4562856Y-426465D01*
X4626609Y-330962D02*
G01*
X4562856Y-394462D01*
X4585715Y-371855D02*
G01*
X4626609Y-426465D01*
X4229354Y-598423D02*
G01*
X4220209Y-589534D01*
X4206493Y-584962D01*
X4188206Y-584962D01*
X4174743Y-589534D01*
X4165600Y-598423D01*
X4165600Y-607568D01*
X4170172Y-616712D01*
X4174743Y-621284D01*
X4183888Y-625855D01*
X4211065Y-635000D01*
X4220209Y-639318D01*
X4224781Y-643889D01*
X4229354Y-653034D01*
X4229354Y-666750D01*
X4220209Y-675894D01*
X4206493Y-680465D01*
X4188206Y-680465D01*
X4174743Y-675894D01*
X4165600Y-666750D01*
X4259325Y-584962D02*
G01*
X4281931Y-680465D01*
X4304791Y-584962D02*
G01*
X4281931Y-680465D01*
X4304791Y-584962D02*
G01*
X4327397Y-680465D01*
X4350258Y-584962D02*
G01*
X4327397Y-680465D01*
X4380229Y-584962D02*
G01*
X4380229Y-680465D01*
X4380229Y-584962D02*
G01*
X4411979Y-584962D01*
X4425695Y-589534D01*
X4434586Y-598423D01*
X4439158Y-607568D01*
X4443729Y-621284D01*
X4443729Y-643889D01*
X4439158Y-657605D01*
X4434586Y-666750D01*
X4425695Y-675894D01*
X4411979Y-680465D01*
X4380229Y-680465D01*
X4473702Y-584962D02*
G01*
X4473702Y-680465D01*
X4531106Y-584962D02*
G01*
X4521961Y-589534D01*
X4512818Y-598423D01*
X4508245Y-607568D01*
X4503674Y-621284D01*
X4503674Y-643889D01*
X4508245Y-657605D01*
X4512818Y-666750D01*
X4521961Y-675894D01*
X4531106Y-680465D01*
X4549140Y-680465D01*
X4558284Y-675894D01*
X4567427Y-666750D01*
X4572000Y-657605D01*
X4576572Y-643889D01*
X4576572Y-621284D01*
X4572000Y-607568D01*
X4567427Y-598423D01*
X4558284Y-589534D01*
X4549140Y-584962D01*
X4531106Y-584962D01*
X4192777Y-838962D02*
G01*
X4183888Y-843534D01*
X4174743Y-852423D01*
X4170172Y-861568D01*
X4165600Y-875284D01*
X4165600Y-897889D01*
X4170172Y-911605D01*
X4174743Y-920750D01*
X4183888Y-929894D01*
X4192777Y-934465D01*
X4211065Y-934465D01*
X4220209Y-929894D01*
X4229354Y-920750D01*
X4233672Y-911605D01*
X4238243Y-897889D01*
X4238243Y-875284D01*
X4233672Y-861568D01*
X4229354Y-852423D01*
X4220209Y-843534D01*
X4211065Y-838962D01*
X4192777Y-838962D01*
X4206493Y-916178D02*
G01*
X4233672Y-943355D01*
X4268215Y-838962D02*
G01*
X4268215Y-934465D01*
X4331970Y-838962D02*
G01*
X4331970Y-934465D01*
X4268215Y-884428D02*
G01*
X4331970Y-884428D01*
X4233672Y-1115568D02*
G01*
X4229354Y-1106423D01*
X4220209Y-1097534D01*
X4211065Y-1092962D01*
X4192777Y-1092962D01*
X4183888Y-1097534D01*
X4174743Y-1106423D01*
X4170172Y-1115568D01*
X4165600Y-1129284D01*
X4165600Y-1151889D01*
X4170172Y-1165605D01*
X4174743Y-1174750D01*
X4183888Y-1183894D01*
X4192777Y-1188465D01*
X4211065Y-1188465D01*
X4220209Y-1183894D01*
X4229354Y-1174750D01*
X4233672Y-1165605D01*
X4233672Y-1151889D01*
X4211065Y-1151889D02*
G01*
X4233672Y-1151889D01*
X4263897Y-1092962D02*
G01*
X4263897Y-1188465D01*
X4263897Y-1092962D02*
G01*
X4327397Y-1188465D01*
X4327397Y-1092962D02*
G01*
X4327397Y-1188465D01*
X4357370Y-1092962D02*
G01*
X4357370Y-1188465D01*
X4357370Y-1092962D02*
G01*
X4389120Y-1092962D01*
X4402836Y-1097534D01*
X4411979Y-1106423D01*
X4416552Y-1115568D01*
X4421124Y-1129284D01*
X4421124Y-1151889D01*
X4416552Y-1165605D01*
X4411979Y-1174750D01*
X4402836Y-1183894D01*
X4389120Y-1188465D01*
X4357370Y-1188465D01*
X4233672Y-1369568D02*
G01*
X4229354Y-1360423D01*
X4220209Y-1351534D01*
X4211065Y-1346962D01*
X4192777Y-1346962D01*
X4183888Y-1351534D01*
X4174743Y-1360423D01*
X4170172Y-1369568D01*
X4165600Y-1383284D01*
X4165600Y-1405889D01*
X4170172Y-1419605D01*
X4174743Y-1428750D01*
X4183888Y-1437894D01*
X4192777Y-1442465D01*
X4211065Y-1442465D01*
X4220209Y-1437894D01*
X4229354Y-1428750D01*
X4233672Y-1419605D01*
X4263897Y-1346962D02*
G01*
X4263897Y-1442465D01*
X4263897Y-1442465D02*
G01*
X4318254Y-1442465D01*
X4348225Y-1346962D02*
G01*
X4348225Y-1442465D01*
X4411979Y-1346962D02*
G01*
X4348225Y-1410462D01*
X4371086Y-1387855D02*
G01*
X4411979Y-1442465D01*
X4229354Y-1614423D02*
G01*
X4220209Y-1605534D01*
X4206493Y-1600962D01*
X4188206Y-1600962D01*
X4174743Y-1605534D01*
X4165600Y-1614423D01*
X4165600Y-1623568D01*
X4170172Y-1632712D01*
X4174743Y-1637284D01*
X4183888Y-1641855D01*
X4211065Y-1651000D01*
X4220209Y-1655318D01*
X4224781Y-1659889D01*
X4229354Y-1669034D01*
X4229354Y-1682750D01*
X4220209Y-1691894D01*
X4206493Y-1696465D01*
X4188206Y-1696465D01*
X4174743Y-1691894D01*
X4165600Y-1682750D01*
X4259325Y-1600962D02*
G01*
X4259325Y-1696465D01*
X4322825Y-1600962D02*
G01*
X4322825Y-1696465D01*
X4259325Y-1646428D02*
G01*
X4322825Y-1646428D01*
X4206493Y-1868423D02*
G01*
X4206493Y-1950465D01*
X4165600Y-1909318D02*
G01*
X4247388Y-1909318D01*
X4331970Y-1854962D02*
G01*
X4286504Y-1854962D01*
X4281931Y-1895855D01*
X4286504Y-1891284D01*
X4300220Y-1886712D01*
X4313681Y-1886712D01*
X4327397Y-1891284D01*
X4336541Y-1900428D01*
X4341113Y-1913889D01*
X4341113Y-1923034D01*
X4336541Y-1936750D01*
X4327397Y-1945894D01*
X4313681Y-1950465D01*
X4300220Y-1950465D01*
X4286504Y-1945894D01*
X4281931Y-1941321D01*
X4277359Y-1932178D01*
X4371086Y-1854962D02*
G01*
X4407408Y-1950465D01*
X4443729Y-1854962D02*
G01*
X4407408Y-1950465D01*
D11*
X1691690Y-1242313D02*
G01*
X1711756Y-1222247D01*
X1739900Y-1222247D01*
X1739900Y-1149502D02*
G01*
X1739900Y-1222247D01*
X2456002Y214807D02*
G01*
X2646603Y214807D01*
X1920341Y298195D02*
G01*
X2003729Y214807D01*
X2456002Y214807D01*
X1752600Y298195D02*
G01*
X1920341Y298195D01*
X3053029Y-75539D02*
G01*
X2957702Y19786D01*
X2646603Y19786D01*
X2267102Y-431800D02*
G01*
X2492247Y-431800D01*
X2641600Y-581152D01*
X3104997Y-983208D02*
G01*
X3060445Y-983208D01*
X2967304Y-1076350D01*
X3104997Y-812800D02*
G01*
X3104997Y-983208D01*
X4826000Y-1143000D02*
G01*
X4666208Y-983208D01*
X3104997Y-983208D01*
X2967304Y-1209090D02*
G01*
X2967304Y-1076350D01*
X2247900Y-1167688D02*
G01*
X2357958Y-1057630D01*
X2357958Y-937539D01*
X2641600Y-653897D01*
X2247900Y-1167688D02*
G01*
X2247900Y-1185875D01*
X2247900Y-1149502D02*
G01*
X2247900Y-1167688D01*
X2247900Y-1185875D02*
G01*
X1916277Y-1185875D01*
X1739900Y-1009497D01*
X2247900Y-1185875D02*
G01*
X2247900Y-1222247D01*
X743102Y-889000D02*
G01*
X815847Y-889000D01*
X815847Y-889000D02*
G01*
X936345Y-1009497D01*
X1739900Y-1009497D01*
X1327302Y-901700D02*
G01*
X1704847Y-901700D01*
X1739900Y-936752D01*
X1255445Y-330200D02*
G01*
X1252677Y-332968D01*
X1252677Y-827074D01*
X1327302Y-901700D01*
X1739900Y-1009497D02*
G01*
X1739900Y-936752D01*
X2641600Y-653897D02*
G01*
X2641600Y-581152D01*
X1343177Y-330200D02*
G01*
X1255445Y-330200D01*
X2967304Y-1275461D02*
G01*
X2301113Y-1275461D01*
X2247900Y-1222247D01*
X2967304Y-1275461D02*
G01*
X2967304Y-1341831D01*
X2967304Y-1209090D02*
G01*
X2967304Y-1275461D01*
X1234922Y-1586407D02*
G01*
X1234922Y-1453642D01*
X1234922Y-1453642D02*
G01*
X2016506Y-1453642D01*
X2247900Y-1222247D01*
X2342997Y-1854200D02*
G01*
X2855366Y-1341831D01*
X2967304Y-1341831D01*
X2419400Y-101625D02*
G01*
X2638018Y-101625D01*
X2646603Y-110210D01*
X2646603Y-240207D02*
G01*
X2785846Y-240207D01*
X2941015Y-260146D02*
G01*
X2941015Y-222910D01*
X2763316Y-45212D01*
X2646603Y-45212D01*
X3733800Y-508863D02*
G01*
X3189731Y-508863D01*
X2941015Y-260146D01*
X3115792Y-1854200D02*
G01*
X3175152Y-1854200D01*
X3357321Y-2036368D01*
X2483002Y-1854200D02*
G01*
X3115792Y-1854200D01*
X3357321Y-2169109D02*
G01*
X3357321Y-2036368D01*
X2646603Y-175209D02*
G01*
X2818993Y-175209D01*
X2877667Y-233883D01*
X2877667Y-286359D01*
X3173349Y-582040D01*
X3832453Y-582040D01*
X4012412Y-762000D01*
X4858207Y-762000D01*
X4940833Y-844626D01*
X4940833Y-1282166D01*
X4826000Y-1397000D01*
X670153Y-406400D02*
G01*
X670153Y-476630D01*
X974826Y-1586407D02*
G01*
X974826Y-1453642D01*
X974826Y-1453642D02*
G01*
X530250Y-1009065D01*
X530250Y-616534D01*
X670153Y-476630D01*
X974826Y-1594865D02*
G01*
X974826Y-1586407D01*
X974826Y-1594865D02*
G01*
X974826Y-1719122D01*
X974826Y-1719122D02*
G01*
X982040Y-1726336D01*
X1903171Y-1726336D01*
X2478811Y-2301976D01*
X4317542Y-2301976D01*
X4714519Y-1905000D01*
X4826000Y-1905000D02*
G01*
X4714519Y-1905000D01*
X1920341Y108204D02*
G01*
X1961946Y149809D01*
X2646603Y149809D01*
X1752600Y108204D02*
G01*
X1584858Y108204D01*
X2247900Y-1009497D02*
G01*
X2041956Y-1009497D01*
X1505712Y-473252D01*
X1505712Y29057D01*
X1584858Y108204D01*
X1752600Y108204D02*
G01*
X1920341Y108204D01*
X4826000Y-381000D02*
G01*
X4230192Y214807D01*
X3220796Y214807D01*
X1603222Y-425195D02*
G01*
X1690954Y-425195D01*
X1690954Y-425195D02*
G01*
X1697558Y-431800D01*
X2127097Y-431800D01*
X1384300Y-425195D02*
G01*
X1599793Y-640689D01*
X1599793Y-662025D01*
X1582648Y-1083208D02*
G01*
X797305Y-1083208D01*
X603097Y-889000D01*
X1384300Y-425195D02*
G01*
X1430934Y-425195D01*
X1343177Y-425195D02*
G01*
X1384300Y-425195D01*
X1187297Y-901700D02*
G01*
X1114552Y-901700D01*
X904646Y-406400D02*
G01*
X904646Y-691794D01*
X1114552Y-901700D01*
X904646Y-371271D02*
G01*
X904646Y-406400D01*
X1343177Y-235204D02*
G01*
X1430934Y-235204D01*
X1430934Y-235204D02*
G01*
X1431061Y-235330D01*
X1431061Y-425069D01*
X1430934Y-425195D01*
X904646Y-336169D02*
G01*
X1005611Y-235204D01*
X1343177Y-235204D01*
X904646Y-371271D02*
G01*
X904646Y-336169D01*
X4826000Y-635000D02*
G01*
X4672380Y-481380D01*
X4672380Y-316611D01*
X4205960Y149809D01*
X3220796Y149809D01*
X2356053Y-235204D02*
G01*
X2378329Y-235204D01*
X2731592Y-588467D01*
X2731592Y-723976D01*
X1603222Y-235204D02*
G01*
X2356053Y-235204D01*
X2646603Y84810D02*
G01*
X2516276Y84810D01*
X2356053Y-75412D01*
X2356053Y-235204D01*
X2731592Y-723976D02*
G01*
X3228924Y-723976D01*
X3317747Y-812800D01*
X2719349Y-793902D02*
G01*
X2731592Y-781659D01*
X2731592Y-723976D01*
X2641600Y-793902D02*
G01*
X2719349Y-793902D01*
X3733800Y-732586D02*
G01*
X3397961Y-732586D01*
X3317747Y-812800D01*
X3245002Y-812800D02*
G01*
X3317747Y-812800D01*
X3733800Y-659536D02*
G01*
X3733800Y-732586D01*
D12*
G01*
X2646603Y279806D03*
G01*
X2646603Y214807D03*
G01*
X2646603Y149809D03*
G01*
X2646603Y84810D03*
G01*
X2646603Y19786D03*
G01*
X2646603Y-45212D03*
G01*
X2646603Y-110210D03*
G01*
X2646603Y-175209D03*
G01*
X2646603Y-240207D03*
G01*
X2646603Y-305206D03*
G01*
X3220796Y279806D03*
G01*
X3220796Y214807D03*
G01*
X3220796Y149809D03*
G01*
X3220796Y84810D03*
G01*
X3220796Y19786D03*
G01*
X3220796Y-45212D03*
G01*
X3220796Y-110210D03*
G01*
X3220796Y-175209D03*
G01*
X3220796Y-240207D03*
G01*
X3220796Y-305206D03*
D13*
G01*
X3245002Y-812800D03*
G01*
X3104997Y-812800D03*
D14*
G01*
X2641600Y-793902D03*
G01*
X2641600Y-653897D03*
G01*
X1739900Y-1149502D03*
G01*
X1739900Y-1009497D03*
G01*
X2247900Y-1009497D03*
G01*
X2247900Y-1149502D03*
D13*
G01*
X603097Y-889000D03*
G01*
X743102Y-889000D03*
G01*
X1187297Y-901700D03*
G01*
X1327302Y-901700D03*
G01*
X2127097Y-431800D03*
G01*
X2267102Y-431800D03*
D15*
G01*
X670153Y-406400D03*
G01*
X904646Y-406400D03*
D16*
G01*
X1603222Y-235204D03*
G01*
X1603222Y-425195D03*
G01*
X1343177Y-425195D03*
G01*
X1343177Y-330200D03*
G01*
X1343177Y-235204D03*
D17*
G01*
X1752600Y108200D03*
G01*
X1752600Y298199D03*
D18*
G01*
X2967304Y-2169109D03*
G01*
X2967304Y-1209090D03*
G01*
X3357321Y-2169109D03*
G01*
X3357321Y-1209090D03*
D19*
G01*
X1234922Y-1586407D03*
G01*
X1169898Y-1586407D03*
G01*
X1104874Y-1586407D03*
G01*
X1039850Y-1586407D03*
G01*
X974826Y-1586407D03*
D20*
G01*
X1504899Y-1893417D03*
G01*
X704900Y-1893417D03*
G01*
X983919Y-1894941D03*
G01*
X1235887Y-1896897D03*
D13*
G01*
X2483002Y-1854200D03*
G01*
X2342997Y-1854200D03*
D21*
G01*
X3733800Y-659524D03*
D22*
G01*
X3733800Y-508863D03*
D23*
G01*
X4826000Y-1905000D03*
D24*
G01*
X4826000Y-1651000D03*
G01*
X4826000Y-1397000D03*
G01*
X4826000Y-1143000D03*
G01*
X4826000Y-889000D03*
G01*
X4826000Y-635000D03*
G01*
X4826000Y-381000D03*
G01*
X4826000Y-127000D03*
D25*
G01*
X1691690Y-1242313D03*
G01*
X2456002Y214807D03*
G01*
X3053029Y-75539D03*
G01*
X2419400Y-101625D03*
G01*
X2785846Y-240207D03*
G01*
X3115792Y-1854200D03*
G01*
X2941015Y-260146D03*
G01*
X1582648Y-1083208D03*
G01*
X1599793Y-662025D03*
M02*
