G04 Layer: TopSilkscreenLayer*
G04 EasyEDA v6.5.43, 2024-08-15 17:33:17*
G04 cb6e2e9fbd21486d88ae5690d2d3dc00,10*
G04 Gerber Generator version 0.2*
G04 Scale: 100 percent, Rotated: No, Reflected: No *
G04 Dimensions in millimeters *
G04 leading zeros omitted , absolute positions ,4 integer and 5 decimal *
%FSLAX45Y45*%
%MOMM*%

%ADD10C,0.1524*%
%ADD11C,0.2540*%
%ADD12C,0.1520*%
%ADD13C,0.1000*%
%ADD14C,0.2032*%
%ADD15C,0.2030*%
%ADD16C,0.3000*%
%ADD17C,0.0155*%

%LPD*%
D10*
X3480815Y12700D02*
G01*
X3402838Y12700D01*
X3387343Y7620D01*
X3376929Y-2794D01*
X3371850Y-18542D01*
X3371850Y-28955D01*
X3376929Y-44450D01*
X3387343Y-54863D01*
X3402838Y-59944D01*
X3480815Y-59944D01*
X3459988Y-94234D02*
G01*
X3465322Y-104647D01*
X3480815Y-120395D01*
X3371850Y-120395D01*
X3227577Y-621792D02*
G01*
X3222243Y-611378D01*
X3211829Y-600963D01*
X3201670Y-595884D01*
X3180841Y-595884D01*
X3170427Y-600963D01*
X3160013Y-611378D01*
X3154679Y-621792D01*
X3149600Y-637539D01*
X3149600Y-663447D01*
X3154679Y-678942D01*
X3160013Y-689355D01*
X3170427Y-699770D01*
X3180841Y-704850D01*
X3201670Y-704850D01*
X3211829Y-699770D01*
X3222243Y-689355D01*
X3227577Y-678942D01*
X3261868Y-616712D02*
G01*
X3272281Y-611378D01*
X3287775Y-595884D01*
X3287775Y-704850D01*
X2832608Y-776478D02*
G01*
X2843022Y-771144D01*
X2853436Y-760729D01*
X2858515Y-750570D01*
X2858515Y-729742D01*
X2853436Y-719328D01*
X2843022Y-708913D01*
X2832608Y-703579D01*
X2816859Y-698500D01*
X2790952Y-698500D01*
X2775458Y-703579D01*
X2765043Y-708913D01*
X2754629Y-719328D01*
X2749550Y-729742D01*
X2749550Y-750570D01*
X2754629Y-760729D01*
X2765043Y-771144D01*
X2775458Y-776478D01*
X2832608Y-815847D02*
G01*
X2837688Y-815847D01*
X2848102Y-821181D01*
X2853436Y-826262D01*
X2858515Y-836676D01*
X2858515Y-857504D01*
X2853436Y-867918D01*
X2848102Y-872997D01*
X2837688Y-878331D01*
X2827274Y-878331D01*
X2816859Y-872997D01*
X2801365Y-862584D01*
X2749550Y-810768D01*
X2749550Y-883412D01*
X1930908Y-1132078D02*
G01*
X1941322Y-1126744D01*
X1951736Y-1116329D01*
X1956815Y-1106170D01*
X1956815Y-1085342D01*
X1951736Y-1074928D01*
X1941322Y-1064513D01*
X1930908Y-1059179D01*
X1915160Y-1054100D01*
X1889252Y-1054100D01*
X1873757Y-1059179D01*
X1863344Y-1064513D01*
X1852929Y-1074928D01*
X1847850Y-1085342D01*
X1847850Y-1106170D01*
X1852929Y-1116329D01*
X1863344Y-1126744D01*
X1873757Y-1132078D01*
X1956815Y-1176781D02*
G01*
X1956815Y-1233931D01*
X1915160Y-1202689D01*
X1915160Y-1218184D01*
X1910079Y-1228597D01*
X1905000Y-1233931D01*
X1889252Y-1239012D01*
X1878837Y-1239012D01*
X1863344Y-1233931D01*
X1852929Y-1223518D01*
X1847850Y-1207770D01*
X1847850Y-1192276D01*
X1852929Y-1176781D01*
X1858010Y-1171447D01*
X1868423Y-1166368D01*
X2056891Y-1026921D02*
G01*
X2046477Y-1032255D01*
X2036063Y-1042670D01*
X2030984Y-1052829D01*
X2030984Y-1073657D01*
X2036063Y-1084071D01*
X2046477Y-1094486D01*
X2056891Y-1099820D01*
X2072640Y-1104900D01*
X2098547Y-1104900D01*
X2114041Y-1099820D01*
X2124456Y-1094486D01*
X2134870Y-1084071D01*
X2139950Y-1073657D01*
X2139950Y-1052829D01*
X2134870Y-1042670D01*
X2124456Y-1032255D01*
X2114041Y-1026921D01*
X2030984Y-940815D02*
G01*
X2103627Y-992631D01*
X2103627Y-914654D01*
X2030984Y-940815D02*
G01*
X2139950Y-940815D01*
X620521Y-1080007D02*
G01*
X625855Y-1090421D01*
X636270Y-1100836D01*
X646429Y-1105915D01*
X667257Y-1105915D01*
X677671Y-1100836D01*
X688086Y-1090421D01*
X693420Y-1080007D01*
X698500Y-1064260D01*
X698500Y-1038352D01*
X693420Y-1022857D01*
X688086Y-1012444D01*
X677671Y-1002029D01*
X667257Y-996950D01*
X646429Y-996950D01*
X636270Y-1002029D01*
X625855Y-1012444D01*
X620521Y-1022857D01*
X524002Y-1105915D02*
G01*
X575818Y-1105915D01*
X581152Y-1059179D01*
X575818Y-1064260D01*
X560323Y-1069594D01*
X544829Y-1069594D01*
X529081Y-1064260D01*
X518668Y-1054100D01*
X513587Y-1038352D01*
X513587Y-1027937D01*
X518668Y-1012444D01*
X529081Y-1002029D01*
X544829Y-996950D01*
X560323Y-996950D01*
X575818Y-1002029D01*
X581152Y-1007110D01*
X586231Y-1017523D01*
X1204721Y-1092707D02*
G01*
X1210055Y-1103121D01*
X1220470Y-1113536D01*
X1230629Y-1118615D01*
X1251457Y-1118615D01*
X1261871Y-1113536D01*
X1272286Y-1103121D01*
X1277620Y-1092707D01*
X1282700Y-1076960D01*
X1282700Y-1051052D01*
X1277620Y-1035557D01*
X1272286Y-1025144D01*
X1261871Y-1014729D01*
X1251457Y-1009650D01*
X1230629Y-1009650D01*
X1220470Y-1014729D01*
X1210055Y-1025144D01*
X1204721Y-1035557D01*
X1108202Y-1103121D02*
G01*
X1113281Y-1113536D01*
X1129029Y-1118615D01*
X1139189Y-1118615D01*
X1154937Y-1113536D01*
X1165352Y-1097787D01*
X1170431Y-1071879D01*
X1170431Y-1045971D01*
X1165352Y-1025144D01*
X1154937Y-1014729D01*
X1139189Y-1009650D01*
X1134110Y-1009650D01*
X1118615Y-1014729D01*
X1108202Y-1025144D01*
X1102868Y-1040637D01*
X1102868Y-1045971D01*
X1108202Y-1061465D01*
X1118615Y-1071879D01*
X1134110Y-1076960D01*
X1139189Y-1076960D01*
X1154937Y-1071879D01*
X1165352Y-1061465D01*
X1170431Y-1045971D01*
X2144522Y-622807D02*
G01*
X2149856Y-633221D01*
X2160270Y-643636D01*
X2170429Y-648715D01*
X2191258Y-648715D01*
X2201672Y-643636D01*
X2212086Y-633221D01*
X2217420Y-622807D01*
X2222500Y-607060D01*
X2222500Y-581152D01*
X2217420Y-565657D01*
X2212086Y-555244D01*
X2201672Y-544829D01*
X2191258Y-539750D01*
X2170429Y-539750D01*
X2160270Y-544829D01*
X2149856Y-555244D01*
X2144522Y-565657D01*
X2037588Y-648715D02*
G01*
X2089404Y-539750D01*
X2110231Y-648715D02*
G01*
X2037588Y-648715D01*
X810298Y-648715D02*
G01*
X810298Y-539750D01*
X810298Y-648715D02*
G01*
X773976Y-648715D01*
X758228Y-643636D01*
X748068Y-633221D01*
X742734Y-622807D01*
X737654Y-607060D01*
X737654Y-581152D01*
X742734Y-565657D01*
X748068Y-555244D01*
X758228Y-544829D01*
X773976Y-539750D01*
X810298Y-539750D01*
X703364Y-627887D02*
G01*
X692950Y-633221D01*
X677202Y-648715D01*
X677202Y-539750D01*
X1479588Y-642391D02*
G01*
X1479588Y-564413D01*
X1474508Y-548919D01*
X1464094Y-538505D01*
X1448346Y-533425D01*
X1437932Y-533425D01*
X1422438Y-538505D01*
X1412024Y-548919D01*
X1406944Y-564413D01*
X1406944Y-642391D01*
X1362240Y-642391D02*
G01*
X1305090Y-642391D01*
X1336078Y-600735D01*
X1320584Y-600735D01*
X1310170Y-595655D01*
X1305090Y-590575D01*
X1299756Y-574827D01*
X1299756Y-564413D01*
X1305090Y-548919D01*
X1315504Y-538505D01*
X1330998Y-533425D01*
X1346492Y-533425D01*
X1362240Y-538505D01*
X1367320Y-543585D01*
X1372654Y-553999D01*
X2045715Y203200D02*
G01*
X1936750Y130555D01*
X2045715Y130555D02*
G01*
X1936750Y203200D01*
X2024888Y96265D02*
G01*
X2030222Y85852D01*
X2045715Y70104D01*
X1936750Y70104D01*
X2716771Y-1689112D02*
G01*
X2825737Y-1689112D01*
X2716771Y-1616468D02*
G01*
X2789415Y-1689112D01*
X2763507Y-1663204D02*
G01*
X2825737Y-1616468D01*
X2716771Y-1582178D02*
G01*
X2825737Y-1582178D01*
X2716771Y-1582178D02*
G01*
X2716771Y-1514614D01*
X2768587Y-1582178D02*
G01*
X2768587Y-1540522D01*
X2825737Y-1582178D02*
G01*
X2825737Y-1514614D01*
X2716771Y-1480324D02*
G01*
X2768587Y-1438668D01*
X2825737Y-1438668D01*
X2716771Y-1397012D02*
G01*
X2768587Y-1438668D01*
X2737599Y-1362722D02*
G01*
X2732265Y-1352562D01*
X2716771Y-1336814D01*
X2825737Y-1336814D01*
X2695943Y-1266202D02*
G01*
X2706357Y-1276616D01*
X2721851Y-1287030D01*
X2742679Y-1297444D01*
X2768587Y-1302524D01*
X2789415Y-1302524D01*
X2815577Y-1297444D01*
X2836151Y-1287030D01*
X2851899Y-1276616D01*
X2862313Y-1266202D01*
X2716771Y-1231912D02*
G01*
X2825737Y-1231912D01*
X2716771Y-1231912D02*
G01*
X2716771Y-1185176D01*
X2721851Y-1169682D01*
X2727185Y-1164348D01*
X2737599Y-1159268D01*
X2748013Y-1159268D01*
X2758427Y-1164348D01*
X2763507Y-1169682D01*
X2768587Y-1185176D01*
X2768587Y-1231912D01*
X2768587Y-1195590D02*
G01*
X2825737Y-1159268D01*
X2716771Y-1124978D02*
G01*
X2825737Y-1124978D01*
X2716771Y-1124978D02*
G01*
X2716771Y-1057414D01*
X2768587Y-1124978D02*
G01*
X2768587Y-1083322D01*
X2825737Y-1124978D02*
G01*
X2825737Y-1057414D01*
X2732265Y-950226D02*
G01*
X2721851Y-960640D01*
X2716771Y-976388D01*
X2716771Y-996962D01*
X2721851Y-1012710D01*
X2732265Y-1023124D01*
X2742679Y-1023124D01*
X2753093Y-1017790D01*
X2758427Y-1012710D01*
X2763507Y-1002296D01*
X2773921Y-971054D01*
X2779001Y-960640D01*
X2784335Y-955560D01*
X2794749Y-950226D01*
X2810243Y-950226D01*
X2820657Y-960640D01*
X2825737Y-976388D01*
X2825737Y-996962D01*
X2820657Y-1012710D01*
X2810243Y-1023124D01*
X2716771Y-915936D02*
G01*
X2825737Y-915936D01*
X2716771Y-915936D02*
G01*
X2716771Y-848372D01*
X2768587Y-915936D02*
G01*
X2768587Y-874534D01*
X2825737Y-915936D02*
G01*
X2825737Y-848372D01*
X2716771Y-777760D02*
G01*
X2825737Y-777760D01*
X2716771Y-814082D02*
G01*
X2716771Y-741438D01*
X2695943Y-707148D02*
G01*
X2706357Y-696734D01*
X2721851Y-686320D01*
X2742679Y-675906D01*
X2768587Y-670826D01*
X2789415Y-670826D01*
X2815577Y-675906D01*
X2836151Y-686320D01*
X2851899Y-696734D01*
X2862313Y-707148D01*
X1132027Y-1736051D02*
G01*
X1132027Y-1814029D01*
X1137107Y-1829523D01*
X1147521Y-1839937D01*
X1163269Y-1845017D01*
X1173683Y-1845017D01*
X1189177Y-1839937D01*
X1199591Y-1829523D01*
X1204671Y-1814029D01*
X1204671Y-1736051D01*
X1311859Y-1751545D02*
G01*
X1301445Y-1741131D01*
X1285697Y-1736051D01*
X1265123Y-1736051D01*
X1249375Y-1741131D01*
X1238961Y-1751545D01*
X1238961Y-1761959D01*
X1244295Y-1772373D01*
X1249375Y-1777707D01*
X1259789Y-1782787D01*
X1291031Y-1793201D01*
X1301445Y-1798281D01*
X1306525Y-1803615D01*
X1311859Y-1814029D01*
X1311859Y-1829523D01*
X1301445Y-1839937D01*
X1285697Y-1845017D01*
X1265123Y-1845017D01*
X1249375Y-1839937D01*
X1238961Y-1829523D01*
X1346149Y-1736051D02*
G01*
X1346149Y-1845017D01*
X1346149Y-1736051D02*
G01*
X1392885Y-1736051D01*
X1408379Y-1741131D01*
X1413713Y-1746465D01*
X1418793Y-1756879D01*
X1418793Y-1767293D01*
X1413713Y-1777707D01*
X1408379Y-1782787D01*
X1392885Y-1787867D01*
X1346149Y-1787867D02*
G01*
X1392885Y-1787867D01*
X1408379Y-1793201D01*
X1413713Y-1798281D01*
X1418793Y-1808695D01*
X1418793Y-1824443D01*
X1413713Y-1834857D01*
X1408379Y-1839937D01*
X1392885Y-1845017D01*
X1346149Y-1845017D01*
X1453083Y-1756879D02*
G01*
X1463497Y-1751545D01*
X1478991Y-1736051D01*
X1478991Y-1845017D01*
X2465577Y-1663192D02*
G01*
X2460243Y-1652778D01*
X2449829Y-1642363D01*
X2439670Y-1637284D01*
X2418841Y-1637284D01*
X2408427Y-1642363D01*
X2398013Y-1652778D01*
X2392679Y-1663192D01*
X2387600Y-1678939D01*
X2387600Y-1704847D01*
X2392679Y-1720342D01*
X2398013Y-1730755D01*
X2408427Y-1741170D01*
X2418841Y-1746250D01*
X2439670Y-1746250D01*
X2449829Y-1741170D01*
X2460243Y-1730755D01*
X2465577Y-1720342D01*
X2525775Y-1637284D02*
G01*
X2510281Y-1642363D01*
X2504947Y-1652778D01*
X2504947Y-1663192D01*
X2510281Y-1673605D01*
X2520695Y-1678939D01*
X2541270Y-1684020D01*
X2557018Y-1689100D01*
X2567431Y-1699513D01*
X2572511Y-1709928D01*
X2572511Y-1725676D01*
X2567431Y-1736089D01*
X2562097Y-1741170D01*
X2546604Y-1746250D01*
X2525775Y-1746250D01*
X2510281Y-1741170D01*
X2504947Y-1736089D01*
X2499868Y-1725676D01*
X2499868Y-1709928D01*
X2504947Y-1699513D01*
X2515361Y-1689100D01*
X2531109Y-1684020D01*
X2551684Y-1678939D01*
X2562097Y-1673605D01*
X2567431Y-1663192D01*
X2567431Y-1652778D01*
X2562097Y-1642363D01*
X2546604Y-1637284D01*
X2525775Y-1637284D01*
X3950715Y-584200D02*
G01*
X3841750Y-584200D01*
X3950715Y-584200D02*
G01*
X3950715Y-630936D01*
X3945636Y-646429D01*
X3940302Y-651763D01*
X3929888Y-656844D01*
X3919474Y-656844D01*
X3909059Y-651763D01*
X3903979Y-646429D01*
X3898900Y-630936D01*
X3898900Y-584200D01*
X3898900Y-620521D02*
G01*
X3841750Y-656844D01*
X3929888Y-691134D02*
G01*
X3935222Y-701547D01*
X3950715Y-717295D01*
X3841750Y-717295D01*
X4558284Y-1370329D02*
G01*
X4641341Y-1370329D01*
X4657090Y-1375663D01*
X4662170Y-1380744D01*
X4667250Y-1391157D01*
X4667250Y-1401571D01*
X4662170Y-1411986D01*
X4657090Y-1417320D01*
X4641341Y-1422400D01*
X4630927Y-1422400D01*
X4579111Y-1336039D02*
G01*
X4573777Y-1325879D01*
X4558284Y-1310131D01*
X4667250Y-1310131D01*
X4570984Y-214629D02*
G01*
X4654041Y-214629D01*
X4669790Y-219963D01*
X4674870Y-225044D01*
X4679950Y-235457D01*
X4679950Y-245871D01*
X4674870Y-256286D01*
X4669790Y-261620D01*
X4654041Y-266700D01*
X4643627Y-266700D01*
X4596891Y-175260D02*
G01*
X4591811Y-175260D01*
X4581397Y-170179D01*
X4576063Y-164845D01*
X4570984Y-154431D01*
X4570984Y-133604D01*
X4576063Y-123189D01*
X4581397Y-118110D01*
X4591811Y-113029D01*
X4602225Y-113029D01*
X4612640Y-118110D01*
X4628134Y-128523D01*
X4679950Y-180339D01*
X4679950Y-107695D01*
G36*
X864920Y-451408D02*
G01*
X864920Y-486664D01*
X895400Y-486664D01*
X895400Y-451408D01*
G37*
G36*
X864920Y-326136D02*
G01*
X864920Y-361391D01*
X895400Y-361391D01*
X895400Y-326136D01*
G37*
X2756560Y319920D02*
G01*
X3110839Y319920D01*
X3110839Y-345320D01*
X2756560Y-345320D01*
X2756560Y319920D01*
D11*
X3314001Y-772822D02*
G01*
X3314001Y-852825D01*
X3203026Y-741837D02*
G01*
X3283023Y-741837D01*
X3203026Y-883803D02*
G01*
X3283023Y-883803D01*
X3145436Y-741255D02*
G01*
X3065437Y-741255D01*
X3034454Y-772238D02*
G01*
X3034454Y-852236D01*
X3145436Y-883216D02*
G01*
X3065437Y-883216D01*
X2681577Y-862901D02*
G01*
X2601574Y-862901D01*
X2712562Y-751926D02*
G01*
X2712562Y-831923D01*
X2570596Y-751926D02*
G01*
X2570596Y-831923D01*
X2713144Y-694336D02*
G01*
X2713144Y-614337D01*
X2682161Y-583354D02*
G01*
X2602163Y-583354D01*
X2571183Y-694336D02*
G01*
X2571183Y-614337D01*
X1779877Y-1218501D02*
G01*
X1699874Y-1218501D01*
X1810862Y-1107526D02*
G01*
X1810862Y-1187523D01*
X1668896Y-1107526D02*
G01*
X1668896Y-1187523D01*
X1811444Y-1049936D02*
G01*
X1811444Y-969937D01*
X1780461Y-938954D02*
G01*
X1700463Y-938954D01*
X1669483Y-1049936D02*
G01*
X1669483Y-969937D01*
X2207922Y-940498D02*
G01*
X2287925Y-940498D01*
X2176937Y-1051473D02*
G01*
X2176937Y-971476D01*
X2318903Y-1051473D02*
G01*
X2318903Y-971476D01*
X2176355Y-1109063D02*
G01*
X2176355Y-1189062D01*
X2207338Y-1220045D02*
G01*
X2287336Y-1220045D01*
X2318316Y-1109063D02*
G01*
X2318316Y-1189062D01*
X534098Y-928977D02*
G01*
X534098Y-848974D01*
X645073Y-959962D02*
G01*
X565076Y-959962D01*
X645073Y-817996D02*
G01*
X565076Y-817996D01*
X702663Y-960544D02*
G01*
X782662Y-960544D01*
X813645Y-929561D02*
G01*
X813645Y-849563D01*
X702663Y-818583D02*
G01*
X782662Y-818583D01*
X1118298Y-941677D02*
G01*
X1118298Y-861674D01*
X1229273Y-972662D02*
G01*
X1149276Y-972662D01*
X1229273Y-830696D02*
G01*
X1149276Y-830696D01*
X1286863Y-973244D02*
G01*
X1366862Y-973244D01*
X1397845Y-942261D02*
G01*
X1397845Y-862263D01*
X1286863Y-831283D02*
G01*
X1366862Y-831283D01*
X2058098Y-471777D02*
G01*
X2058098Y-391774D01*
X2169073Y-502762D02*
G01*
X2089076Y-502762D01*
X2169073Y-360796D02*
G01*
X2089076Y-360796D01*
X2226663Y-503344D02*
G01*
X2306662Y-503344D01*
X2337645Y-472361D02*
G01*
X2337645Y-392363D01*
X2226663Y-361383D02*
G01*
X2306662Y-361383D01*
D12*
X697275Y-333778D02*
G01*
X697275Y-354401D01*
X697275Y-479021D02*
G01*
X697275Y-459399D01*
D10*
X872520Y-479021D02*
G01*
X697275Y-479021D01*
X872520Y-333778D02*
G01*
X697275Y-333778D01*
X832076Y-479021D02*
G01*
X832076Y-333778D01*
D13*
X1383202Y-189788D02*
G01*
X1383202Y-175193D01*
X1383202Y-284787D02*
G01*
X1383202Y-280619D01*
X1383202Y-379780D02*
G01*
X1383202Y-375615D01*
X1383202Y-485195D02*
G01*
X1383202Y-470611D01*
X1563204Y-189788D02*
G01*
X1563204Y-175193D01*
X1563204Y-379780D02*
G01*
X1563204Y-280616D01*
X1563204Y-485195D02*
G01*
X1563204Y-470608D01*
X1563204Y-485195D02*
G01*
X1383202Y-485195D01*
X1563204Y-175193D02*
G01*
X1383202Y-175193D01*
D11*
X1600200Y38100D02*
G01*
X1600200Y368300D01*
X1905000Y38100D02*
G01*
X1905000Y368300D01*
X2862287Y-1989112D02*
G01*
X2862287Y-1389113D01*
X3462261Y-1989112D02*
G01*
X2862262Y-1989112D01*
X3462286Y-1389113D02*
G01*
X3462286Y-1989112D01*
X2862287Y-1389113D02*
G01*
X3462286Y-1389113D01*
X1541983Y-2524798D02*
G01*
X1580692Y-2566835D01*
X1551330Y-2566835D01*
X1520850Y-2533815D01*
X758088Y-2533815D01*
X722528Y-2571915D01*
X706094Y-2571915D01*
X706094Y-2566835D01*
X741984Y-2524798D01*
X742975Y-1974786D02*
G01*
X967308Y-1974786D01*
X1318640Y-1974786D02*
G01*
X1532973Y-1974786D01*
X742975Y-1974786D02*
G01*
X742975Y-2171687D01*
X742975Y-2427922D02*
G01*
X742975Y-2524798D01*
X1532973Y-1974786D02*
G01*
X1532973Y-2171687D01*
X1532973Y-2427922D02*
G01*
X1532973Y-2524798D01*
X743000Y-2490299D02*
G01*
X1532999Y-2490299D01*
X2552001Y-1814222D02*
G01*
X2552001Y-1894225D01*
X2441026Y-1783237D02*
G01*
X2521023Y-1783237D01*
X2441026Y-1925203D02*
G01*
X2521023Y-1925203D01*
X2383436Y-1782655D02*
G01*
X2303437Y-1782655D01*
X2272454Y-1813638D02*
G01*
X2272454Y-1893636D01*
X2383436Y-1924616D02*
G01*
X2303437Y-1924616D01*
D10*
X3667739Y-626821D02*
G01*
X3667739Y-722708D01*
X3799860Y-722708D01*
X3799860Y-626821D01*
X3667739Y-541578D02*
G01*
X3667739Y-445691D01*
X3799860Y-445691D01*
X3799860Y-541578D01*
D14*
X4699000Y-1841500D02*
G01*
X4699000Y-2032000D01*
X4953000Y-2032000D01*
X4953000Y-762000D01*
X4699000Y-762000D01*
D15*
X4699000Y-762000D02*
G01*
X4699000Y-1841500D01*
X4699000Y0D02*
G01*
X4699000Y-317500D01*
D14*
X4699000Y0D02*
G01*
X4953000Y0D01*
X4953000Y-508000D01*
X4699000Y-508000D01*
X4699000Y-317500D01*
D11*
G75*
G01*
X3034449Y-772239D02*
G02*
X3065432Y-741256I30983J0D01*
G75*
G01*
X3065432Y-883222D02*
G02*
X3034449Y-852236I0J30983D01*
G75*
G01*
X3283019Y-741837D02*
G02*
X3314001Y-772823I0J-30983D01*
G75*
G01*
X3314001Y-852820D02*
G02*
X3283019Y-883803I-30982J0D01*
G75*
G01*
X2682161Y-583349D02*
G02*
X2713144Y-614332I0J-30983D01*
G75*
G01*
X2571178Y-614332D02*
G02*
X2602164Y-583349I30983J0D01*
G75*
G01*
X2712563Y-831919D02*
G02*
X2681577Y-862901I-30983J0D01*
G75*
G01*
X2601580Y-862901D02*
G02*
X2570597Y-831919I0J30982D01*
G75*
G01*
X1780461Y-938949D02*
G02*
X1811444Y-969932I0J-30983D01*
G75*
G01*
X1669478Y-969932D02*
G02*
X1700464Y-938949I30983J0D01*
G75*
G01*
X1810863Y-1187519D02*
G02*
X1779877Y-1218501I-30983J0D01*
G75*
G01*
X1699880Y-1218501D02*
G02*
X1668897Y-1187519I0J30982D01*
G75*
G01*
X2207339Y-1220051D02*
G02*
X2176356Y-1189068I0J30983D01*
G75*
G01*
X2318322Y-1189068D02*
G02*
X2287336Y-1220051I-30983J0D01*
G75*
G01*
X2176937Y-971481D02*
G02*
X2207923Y-940499I30983J0D01*
G75*
G01*
X2287920Y-940499D02*
G02*
X2318903Y-971481I0J-30982D01*
G75*
G01*
X813651Y-929561D02*
G02*
X782668Y-960544I-30983J0D01*
G75*
G01*
X782668Y-818578D02*
G02*
X813651Y-849564I0J-30983D01*
G75*
G01*
X565081Y-959963D02*
G02*
X534099Y-928977I0J30983D01*
G75*
G01*
X534099Y-848980D02*
G02*
X565081Y-817997I30982J0D01*
G75*
G01*
X1397851Y-942261D02*
G02*
X1366868Y-973244I-30983J0D01*
G75*
G01*
X1366868Y-831278D02*
G02*
X1397851Y-862264I0J-30983D01*
G75*
G01*
X1149281Y-972663D02*
G02*
X1118299Y-941677I0J30983D01*
G75*
G01*
X1118299Y-861680D02*
G02*
X1149281Y-830697I30982J0D01*
G75*
G01*
X2337651Y-472361D02*
G02*
X2306668Y-503344I-30983J0D01*
G75*
G01*
X2306668Y-361378D02*
G02*
X2337651Y-392364I0J-30983D01*
G75*
G01*
X2089081Y-502763D02*
G02*
X2058099Y-471777I0J30983D01*
G75*
G01*
X2058099Y-391780D02*
G02*
X2089081Y-360797I30982J0D01*
G75*
G01*
X2272449Y-1813639D02*
G02*
X2303432Y-1782656I30983J0D01*
G75*
G01*
X2303432Y-1924622D02*
G02*
X2272449Y-1893636I0J30983D01*
G75*
G01*
X2521019Y-1783237D02*
G02*
X2552001Y-1814223I0J-30983D01*
G75*
G01*
X2552001Y-1894220D02*
G02*
X2521019Y-1925203I-30982J0D01*
D16*
G75*
G01
X2846807Y279806D02*
G03X2846807Y279806I-15011J0D01*
G75*
G01
X2661615Y343230D02*
G03X2661615Y343230I-15011J0D01*
D13*
G75*
G01
X1333525Y-165100D02*
G03X1333525Y-165100I-12700J0D01*
D11*
G75*
G01
X2984500Y-1905025D02*
G03X2984500Y-1905025I-38100J0D01*
G75*
G01
X2984500Y-1473225D02*
G03X2984500Y-1473225I-38100J0D01*
G75*
G01
X3403600Y-1892325D02*
G03X3403600Y-1892325I-38100J0D01*
G75*
G01
X3403600Y-1485925D02*
G03X3403600Y-1485925I-38100J0D01*
G75*
G01
X3340100Y-1689125D02*
G03X3340100Y-1689125I-177800J0D01*
G75*
G01
X3289300Y-1689125D02*
G03X3289300Y-1689125I-127000J0D01*
M02*
