G04 Layer: TopLayer*
G04 EasyEDA v6.5.43, 2024-08-15 17:33:17*
G04 cb6e2e9fbd21486d88ae5690d2d3dc00,10*
G04 Gerber Generator version 0.2*
G04 Scale: 100 percent, Rotated: No, Reflected: No *
G04 Dimensions in millimeters *
G04 leading zeros omitted , absolute positions ,4 integer and 5 decimal *
%FSLAX45Y45*%
%MOMM*%

%AMMACRO1*21,1,$1,$2,0,0,$3*%
%ADD10C,0.1000*%
%ADD11C,0.2540*%
%ADD12O,1.7420082X0.36400740000000004*%
%ADD13R,0.8000X0.9000*%
%ADD14R,0.9000X0.8000*%
%ADD15R,1.0000X0.7500*%
%ADD16R,1.1000X0.6000*%
%ADD17MACRO1,1.5X2.7X90.0000*%
%ADD18R,1.0000X2.0000*%
%ADD19R,0.4500X2.0000*%
%ADD20R,1.9000X2.1000*%
%ADD21MACRO1,0.864X0.8065X0.0000*%
%ADD22R,0.8640X0.8065*%
%ADD23C,1.5748*%
%ADD24R,1.5748X1.5748*%
%ADD25R,1.5748X1.7000*%
%ADD26C,1.7000*%
%ADD27C,0.6100*%
%ADD28C,0.0112*%

%LPD*%
D10*
X4165854Y-103123D02*
G01*
X4156709Y-94234D01*
X4142993Y-89662D01*
X4124706Y-89662D01*
X4111243Y-94234D01*
X4102100Y-103123D01*
X4102100Y-112268D01*
X4106672Y-121412D01*
X4111243Y-125984D01*
X4120388Y-130555D01*
X4147565Y-139700D01*
X4156709Y-144018D01*
X4161281Y-148589D01*
X4165854Y-157734D01*
X4165854Y-171450D01*
X4156709Y-180594D01*
X4142993Y-185165D01*
X4124706Y-185165D01*
X4111243Y-180594D01*
X4102100Y-171450D01*
X4195825Y-89662D02*
G01*
X4218431Y-185165D01*
X4241291Y-89662D02*
G01*
X4218431Y-185165D01*
X4241291Y-89662D02*
G01*
X4263897Y-185165D01*
X4286758Y-89662D02*
G01*
X4263897Y-185165D01*
X4384802Y-112268D02*
G01*
X4380229Y-103123D01*
X4371086Y-94234D01*
X4362195Y-89662D01*
X4343908Y-89662D01*
X4334763Y-94234D01*
X4325620Y-103123D01*
X4321302Y-112268D01*
X4316729Y-125984D01*
X4316729Y-148589D01*
X4321302Y-162305D01*
X4325620Y-171450D01*
X4334763Y-180594D01*
X4343908Y-185165D01*
X4362195Y-185165D01*
X4371086Y-180594D01*
X4380229Y-171450D01*
X4384802Y-162305D01*
X4414774Y-89662D02*
G01*
X4414774Y-185165D01*
X4414774Y-185165D02*
G01*
X4469384Y-185165D01*
X4499356Y-89662D02*
G01*
X4499356Y-185165D01*
X4563109Y-89662D02*
G01*
X4499356Y-153162D01*
X4522215Y-130555D02*
G01*
X4563109Y-185165D01*
X4165854Y-344423D02*
G01*
X4156709Y-335534D01*
X4142993Y-330962D01*
X4124706Y-330962D01*
X4111243Y-335534D01*
X4102100Y-344423D01*
X4102100Y-353568D01*
X4106672Y-362712D01*
X4111243Y-367284D01*
X4120388Y-371855D01*
X4147565Y-381000D01*
X4156709Y-385318D01*
X4161281Y-389889D01*
X4165854Y-399034D01*
X4165854Y-412750D01*
X4156709Y-421894D01*
X4142993Y-426465D01*
X4124706Y-426465D01*
X4111243Y-421894D01*
X4102100Y-412750D01*
X4195825Y-330962D02*
G01*
X4218431Y-426465D01*
X4241291Y-330962D02*
G01*
X4218431Y-426465D01*
X4241291Y-330962D02*
G01*
X4263897Y-426465D01*
X4286758Y-330962D02*
G01*
X4263897Y-426465D01*
X4316729Y-330962D02*
G01*
X4316729Y-426465D01*
X4316729Y-330962D02*
G01*
X4348479Y-330962D01*
X4362195Y-335534D01*
X4371086Y-344423D01*
X4375658Y-353568D01*
X4380229Y-367284D01*
X4380229Y-389889D01*
X4375658Y-403605D01*
X4371086Y-412750D01*
X4362195Y-421894D01*
X4348479Y-426465D01*
X4316729Y-426465D01*
X4410202Y-330962D02*
G01*
X4410202Y-426465D01*
X4467606Y-330962D02*
G01*
X4458461Y-335534D01*
X4449318Y-344423D01*
X4444745Y-353568D01*
X4440174Y-367284D01*
X4440174Y-389889D01*
X4444745Y-403605D01*
X4449318Y-412750D01*
X4458461Y-421894D01*
X4467606Y-426465D01*
X4485640Y-426465D01*
X4494784Y-421894D01*
X4503927Y-412750D01*
X4508500Y-403605D01*
X4513072Y-389889D01*
X4513072Y-367284D01*
X4508500Y-353568D01*
X4503927Y-344423D01*
X4494784Y-335534D01*
X4485640Y-330962D01*
X4467606Y-330962D01*
X4192777Y-838962D02*
G01*
X4183888Y-843534D01*
X4174743Y-852423D01*
X4170172Y-861568D01*
X4165600Y-875284D01*
X4165600Y-897889D01*
X4170172Y-911605D01*
X4174743Y-920750D01*
X4183888Y-929894D01*
X4192777Y-934465D01*
X4211065Y-934465D01*
X4220209Y-929894D01*
X4229354Y-920750D01*
X4233672Y-911605D01*
X4238243Y-897889D01*
X4238243Y-875284D01*
X4233672Y-861568D01*
X4229354Y-852423D01*
X4220209Y-843534D01*
X4211065Y-838962D01*
X4192777Y-838962D01*
X4206493Y-916178D02*
G01*
X4233672Y-943355D01*
X4268215Y-838962D02*
G01*
X4268215Y-934465D01*
X4331970Y-838962D02*
G01*
X4331970Y-934465D01*
X4268215Y-884428D02*
G01*
X4331970Y-884428D01*
X4233672Y-1115568D02*
G01*
X4229354Y-1106423D01*
X4220209Y-1097534D01*
X4211065Y-1092962D01*
X4192777Y-1092962D01*
X4183888Y-1097534D01*
X4174743Y-1106423D01*
X4170172Y-1115568D01*
X4165600Y-1129284D01*
X4165600Y-1151889D01*
X4170172Y-1165605D01*
X4174743Y-1174750D01*
X4183888Y-1183894D01*
X4192777Y-1188465D01*
X4211065Y-1188465D01*
X4220209Y-1183894D01*
X4229354Y-1174750D01*
X4233672Y-1165605D01*
X4233672Y-1151889D01*
X4211065Y-1151889D02*
G01*
X4233672Y-1151889D01*
X4263897Y-1092962D02*
G01*
X4263897Y-1188465D01*
X4263897Y-1092962D02*
G01*
X4327397Y-1188465D01*
X4327397Y-1092962D02*
G01*
X4327397Y-1188465D01*
X4357370Y-1092962D02*
G01*
X4357370Y-1188465D01*
X4357370Y-1092962D02*
G01*
X4389120Y-1092962D01*
X4402836Y-1097534D01*
X4411979Y-1106423D01*
X4416552Y-1115568D01*
X4421124Y-1129284D01*
X4421124Y-1151889D01*
X4416552Y-1165605D01*
X4411979Y-1174750D01*
X4402836Y-1183894D01*
X4389120Y-1188465D01*
X4357370Y-1188465D01*
X4233672Y-1369568D02*
G01*
X4229354Y-1360423D01*
X4220209Y-1351534D01*
X4211065Y-1346962D01*
X4192777Y-1346962D01*
X4183888Y-1351534D01*
X4174743Y-1360423D01*
X4170172Y-1369568D01*
X4165600Y-1383284D01*
X4165600Y-1405889D01*
X4170172Y-1419605D01*
X4174743Y-1428750D01*
X4183888Y-1437894D01*
X4192777Y-1442465D01*
X4211065Y-1442465D01*
X4220209Y-1437894D01*
X4229354Y-1428750D01*
X4233672Y-1419605D01*
X4263897Y-1346962D02*
G01*
X4263897Y-1442465D01*
X4263897Y-1442465D02*
G01*
X4318254Y-1442465D01*
X4348225Y-1346962D02*
G01*
X4348225Y-1442465D01*
X4411979Y-1346962D02*
G01*
X4348225Y-1410462D01*
X4371086Y-1387855D02*
G01*
X4411979Y-1442465D01*
X4229354Y-1614423D02*
G01*
X4220209Y-1605534D01*
X4206493Y-1600962D01*
X4188206Y-1600962D01*
X4174743Y-1605534D01*
X4165600Y-1614423D01*
X4165600Y-1623568D01*
X4170172Y-1632712D01*
X4174743Y-1637284D01*
X4183888Y-1641855D01*
X4211065Y-1651000D01*
X4220209Y-1655318D01*
X4224781Y-1659889D01*
X4229354Y-1669034D01*
X4229354Y-1682750D01*
X4220209Y-1691894D01*
X4206493Y-1696465D01*
X4188206Y-1696465D01*
X4174743Y-1691894D01*
X4165600Y-1682750D01*
X4259325Y-1600962D02*
G01*
X4259325Y-1696465D01*
X4322825Y-1600962D02*
G01*
X4322825Y-1696465D01*
X4259325Y-1646428D02*
G01*
X4322825Y-1646428D01*
X4206493Y-1868423D02*
G01*
X4206493Y-1950465D01*
X4165600Y-1909318D02*
G01*
X4247388Y-1909318D01*
X4331970Y-1854962D02*
G01*
X4286504Y-1854962D01*
X4281931Y-1895855D01*
X4286504Y-1891284D01*
X4300220Y-1886712D01*
X4313681Y-1886712D01*
X4327397Y-1891284D01*
X4336541Y-1900428D01*
X4341113Y-1913889D01*
X4341113Y-1923034D01*
X4336541Y-1936750D01*
X4327397Y-1945894D01*
X4313681Y-1950465D01*
X4300220Y-1950465D01*
X4286504Y-1945894D01*
X4281931Y-1941321D01*
X4277359Y-1932178D01*
X4371086Y-1854962D02*
G01*
X4407408Y-1950465D01*
X4443729Y-1854962D02*
G01*
X4407408Y-1950465D01*
D11*
X3635502Y-548512D02*
G01*
X3071418Y-548512D01*
X2763113Y-240207D01*
X2646603Y-240207D01*
X2483002Y-1854200D02*
G01*
X2555747Y-1854200D01*
X2555747Y-1854200D02*
G01*
X2985947Y-1424000D01*
X3260953Y-1424000D01*
X3260953Y-1424000D02*
G01*
X3359632Y-1424000D01*
X3460165Y-2156434D02*
G01*
X3369995Y-2156434D01*
X3357321Y-2169109D01*
X3685438Y-508863D02*
G01*
X3713861Y-508863D01*
X3811371Y-606374D01*
X3811371Y-740968D01*
X3569157Y-983183D01*
X3386378Y-983183D01*
X3260953Y-1108608D01*
X3260953Y-1424000D01*
X3685438Y-508863D02*
G01*
X3733800Y-508863D01*
X3685438Y-508863D02*
G01*
X3661740Y-485165D01*
X3229178Y-485165D01*
X2789224Y-45212D01*
X2646603Y-45212D01*
X904646Y-371271D02*
G01*
X904646Y-336169D01*
X904646Y-371271D02*
G01*
X904646Y-406400D01*
X1187297Y-901700D02*
G01*
X1114552Y-901700D01*
X904646Y-406400D02*
G01*
X904646Y-476630D01*
X904646Y-788390D02*
G01*
X904646Y-476630D01*
X1114552Y-901700D02*
G01*
X1001242Y-788390D01*
X904646Y-788390D01*
X904646Y-788390D02*
G01*
X703706Y-788390D01*
X603097Y-889000D01*
X904646Y-336169D02*
G01*
X1005611Y-235204D01*
X1343177Y-235204D01*
X1430934Y-235204D02*
G01*
X1431061Y-235330D01*
X1431061Y-425069D01*
X1430934Y-425195D01*
X1343177Y-235204D02*
G01*
X1430934Y-235204D01*
X1343177Y-425195D02*
G01*
X1430934Y-425195D01*
X4826000Y-1905000D02*
G01*
X4714519Y-1905000D01*
X1012926Y-2125522D02*
G01*
X1025677Y-2138273D01*
X2486152Y-2138273D01*
X2607945Y-2016480D01*
X4603038Y-2016480D01*
X4714519Y-1905000D01*
X1012926Y-2001265D02*
G01*
X1012926Y-2125522D01*
X1012926Y-2001265D02*
G01*
X1012926Y-1992807D01*
X1012926Y-1860042D02*
G01*
X530250Y-1377365D01*
X530250Y-616534D01*
X670153Y-476630D01*
X1012926Y-1992807D02*
G01*
X1012926Y-1860042D01*
X670153Y-406400D02*
G01*
X670153Y-476630D01*
X1920341Y108204D02*
G01*
X1961946Y149809D01*
X2646603Y149809D01*
X1836470Y108204D02*
G01*
X1904974Y108204D01*
X1752600Y108204D02*
G01*
X1836470Y108204D01*
X1904974Y108204D02*
G01*
X1920341Y108204D01*
X1904974Y108204D02*
G01*
X2128621Y-115443D01*
X2217343Y-115443D01*
X2247900Y-917371D02*
G01*
X2247900Y-1009497D01*
X4826000Y-127000D02*
G01*
X4484192Y214807D01*
X3220796Y214807D01*
X1690954Y-425195D02*
G01*
X1697558Y-431800D01*
X2127097Y-431800D01*
X1603222Y-425195D02*
G01*
X1690954Y-425195D01*
X4714519Y-381000D02*
G01*
X4603038Y-269519D01*
X3930700Y-269519D01*
X3511372Y149809D01*
X3220796Y149809D01*
X4826000Y-381000D02*
G01*
X4714519Y-381000D01*
X3733800Y-732586D02*
G01*
X3397961Y-732586D01*
X3317747Y-812800D01*
X3733800Y-659536D02*
G01*
X3733800Y-732586D01*
X3245002Y-812800D02*
G01*
X3317747Y-812800D01*
X1603222Y-235204D02*
G01*
X1690954Y-235204D01*
X2641600Y-793902D02*
G01*
X2714802Y-720699D01*
X2719476Y-720699D01*
X2719476Y-720699D02*
G01*
X3225647Y-720699D01*
X3317747Y-812800D01*
X2646603Y84810D02*
G01*
X2569260Y84810D01*
X2378659Y-105790D01*
X2378659Y-213613D01*
X1690954Y-235204D02*
G01*
X1712544Y-213613D01*
X2378659Y-213613D01*
X2378659Y-213613D02*
G01*
X2719476Y-554431D01*
X2719476Y-720699D01*
X2787726Y-175209D02*
G01*
X2646603Y-175209D01*
X2646603Y-110210D02*
G01*
X2508453Y-110210D01*
X2342997Y-1854200D02*
G01*
X2855366Y-1341831D01*
X2967304Y-1341831D01*
X1273022Y-1860042D02*
G01*
X2264409Y-1860042D01*
X2270252Y-1854200D01*
X1273022Y-1992807D02*
G01*
X1273022Y-1860042D01*
X2342997Y-1854200D02*
G01*
X2270252Y-1854200D01*
X2967304Y-1209090D02*
G01*
X2967304Y-1275461D01*
X2967304Y-1275461D02*
G01*
X2967304Y-1341831D01*
X2967304Y-1275461D02*
G01*
X2301113Y-1275461D01*
X2247900Y-1222247D01*
X1343177Y-330200D02*
G01*
X1255445Y-330200D01*
X1739900Y-1009497D02*
G01*
X1739900Y-936752D01*
X1255445Y-330200D02*
G01*
X1252677Y-332968D01*
X1252677Y-827074D01*
X1327302Y-901700D01*
X1327302Y-901700D02*
G01*
X1704847Y-901700D01*
X1739900Y-936752D01*
X815847Y-889000D02*
G01*
X936345Y-1009497D01*
X1739900Y-1009497D01*
X743102Y-889000D02*
G01*
X815847Y-889000D01*
X2247900Y-1185875D02*
G01*
X2247900Y-1222247D01*
X2247900Y-1185875D02*
G01*
X1916277Y-1185875D01*
X1739900Y-1009497D01*
X2247900Y-1149502D02*
G01*
X2247900Y-1167688D01*
X2247900Y-1167688D02*
G01*
X2247900Y-1185875D01*
X3104997Y-812800D02*
G01*
X3032252Y-812800D01*
X3032252Y-812800D02*
G01*
X2965526Y-879525D01*
X2550617Y-879525D01*
X2247900Y-1167688D02*
G01*
X2536063Y-879525D01*
X2550617Y-879525D01*
X2550617Y-879525D02*
G01*
X2550617Y-744880D01*
X2641600Y-653897D01*
X4826000Y-1143000D02*
G01*
X4417390Y-1551609D01*
X3274440Y-1551609D01*
X2893974Y-1932076D01*
X2420874Y-1932076D01*
X2342997Y-1854200D01*
X2641600Y-653897D02*
G01*
X2641600Y-617524D01*
X2641600Y-617524D02*
G01*
X2455875Y-431800D01*
X2267102Y-431800D01*
X3030347Y19786D02*
G01*
X2646603Y19786D01*
X1920341Y298195D02*
G01*
X2003729Y214807D01*
X2646603Y214807D01*
X1836470Y298195D02*
G01*
X1920341Y298195D01*
X1836470Y298195D02*
G01*
X1752600Y298195D01*
X1584858Y298195D02*
G01*
X1584045Y297383D01*
X1584045Y-6527D01*
X1692960Y-115443D01*
X1723923Y-115443D01*
X1739900Y-1149502D02*
G01*
X1662150Y-1149502D01*
X1641449Y-1170203D02*
G01*
X1662150Y-1149502D01*
X1752600Y298195D02*
G01*
X1584858Y298195D01*
D12*
G01*
X2646603Y279806D03*
G01*
X2646603Y214807D03*
G01*
X2646603Y149809D03*
G01*
X2646603Y84810D03*
G01*
X2646603Y19786D03*
G01*
X2646603Y-45212D03*
G01*
X2646603Y-110210D03*
G01*
X2646603Y-175209D03*
G01*
X2646603Y-240207D03*
G01*
X2646603Y-305206D03*
G01*
X3220796Y279806D03*
G01*
X3220796Y214807D03*
G01*
X3220796Y149809D03*
G01*
X3220796Y84810D03*
G01*
X3220796Y19786D03*
G01*
X3220796Y-45212D03*
G01*
X3220796Y-110210D03*
G01*
X3220796Y-175209D03*
G01*
X3220796Y-240207D03*
G01*
X3220796Y-305206D03*
D13*
G01*
X3245002Y-812800D03*
G01*
X3104997Y-812800D03*
D14*
G01*
X2641600Y-793902D03*
G01*
X2641600Y-653897D03*
G01*
X1739900Y-1149502D03*
G01*
X1739900Y-1009497D03*
G01*
X2247900Y-1009497D03*
G01*
X2247900Y-1149502D03*
D13*
G01*
X603097Y-889000D03*
G01*
X743102Y-889000D03*
G01*
X1187297Y-901700D03*
G01*
X1327302Y-901700D03*
G01*
X2127097Y-431800D03*
G01*
X2267102Y-431800D03*
D15*
G01*
X670153Y-406400D03*
G01*
X904646Y-406400D03*
D16*
G01*
X1603222Y-235204D03*
G01*
X1603222Y-425195D03*
G01*
X1343177Y-425195D03*
G01*
X1343177Y-330200D03*
G01*
X1343177Y-235204D03*
D17*
G01*
X1752600Y108200D03*
G01*
X1752600Y298199D03*
D18*
G01*
X2967304Y-2169109D03*
G01*
X2967304Y-1209090D03*
G01*
X3357321Y-2169109D03*
G01*
X3357321Y-1209090D03*
D19*
G01*
X1273022Y-1992807D03*
G01*
X1207998Y-1992807D03*
G01*
X1142974Y-1992807D03*
G01*
X1077950Y-1992807D03*
G01*
X1012926Y-1992807D03*
D20*
G01*
X1542999Y-2299817D03*
G01*
X743000Y-2299817D03*
G01*
X1022019Y-2301341D03*
G01*
X1273987Y-2303297D03*
D13*
G01*
X2483002Y-1854200D03*
G01*
X2342997Y-1854200D03*
D21*
G01*
X3733800Y-659524D03*
D22*
G01*
X3733800Y-508863D03*
D23*
G01*
X4826000Y-889000D03*
G01*
X4826000Y-1143000D03*
G01*
X4826000Y-1397000D03*
G01*
X4826000Y-1651000D03*
D24*
G01*
X4826000Y-1905000D03*
D25*
G01*
X4826000Y-381000D03*
D26*
G01*
X4826000Y-127000D03*
D27*
G01*
X1641449Y-1170203D03*
G01*
X1723923Y-115443D03*
G01*
X3030347Y19786D03*
G01*
X2508453Y-110210D03*
G01*
X2787726Y-175209D03*
G01*
X2247900Y-917371D03*
G01*
X2217343Y-115443D03*
G01*
X3460165Y-2156434D03*
G01*
X3359632Y-1424000D03*
G01*
X3635502Y-548512D03*
M02*
