G04 Layer: BottomLayer*
G04 EasyEDA v6.5.43, 2024-08-15 14:13:16*
G04 cb6e2e9fbd21486d88ae5690d2d3dc00,10*
G04 Gerber Generator version 0.2*
G04 Scale: 100 percent, Rotated: No, Reflected: No *
G04 Dimensions in millimeters *
G04 leading zeros omitted , absolute positions ,4 integer and 5 decimal *
%FSLAX45Y45*%
%MOMM*%

%ADD10C,0.2540*%
%ADD11R,1.5748X1.5748*%
%ADD12C,1.5748*%
%ADD13C,0.6100*%

%LPD*%
D10*
X1691690Y-1242313D02*
G01*
X2482748Y-451256D01*
X2482748Y188061D01*
X2456002Y214807D01*
X4826000Y-1143000D02*
G01*
X4120489Y-1143000D01*
X3053029Y-75539D01*
X4826000Y-1651000D02*
G01*
X4942509Y-1534490D01*
X4942509Y-846937D01*
X4857572Y-762000D01*
X4787011Y-762000D01*
X3740861Y284149D01*
X2425572Y284149D01*
X2382113Y240690D01*
X2382113Y-64338D01*
X2419400Y-101625D01*
X4826000Y-889000D02*
G01*
X3949191Y-12192D01*
X3013862Y-12192D01*
X2785846Y-240207D01*
X2941015Y-260146D02*
G01*
X2941015Y-1679422D01*
X3115792Y-1854200D01*
X1582648Y-1083208D02*
G01*
X1599793Y-1066063D01*
X1599793Y-662025D01*
D11*
G01*
X4826000Y-1905000D03*
D12*
G01*
X4826000Y-1651000D03*
G01*
X4826000Y-1397000D03*
G01*
X4826000Y-1143000D03*
G01*
X4826000Y-889000D03*
G01*
X4826000Y-635000D03*
G01*
X4826000Y-381000D03*
G01*
X4826000Y-127000D03*
D13*
G01*
X1691690Y-1242313D03*
G01*
X2456002Y214807D03*
G01*
X3053029Y-75539D03*
G01*
X2419400Y-101625D03*
G01*
X2785846Y-240207D03*
G01*
X3115792Y-1854200D03*
G01*
X2941015Y-260146D03*
G01*
X1582648Y-1083208D03*
G01*
X1599793Y-662025D03*
M02*
