G04 Layer: BottomLayer*
G04 EasyEDA v6.5.43, 2024-08-15 17:33:17*
G04 cb6e2e9fbd21486d88ae5690d2d3dc00,10*
G04 Gerber Generator version 0.2*
G04 Scale: 100 percent, Rotated: No, Reflected: No *
G04 Dimensions in millimeters *
G04 leading zeros omitted , absolute positions ,4 integer and 5 decimal *
%FSLAX45Y45*%
%MOMM*%

%ADD10C,0.2540*%
%ADD11C,1.5748*%
%ADD12R,1.5748X1.5748*%
%ADD13R,1.5748X1.7000*%
%ADD14C,1.7000*%
%ADD15C,0.6100*%

%LPD*%
D10*
X4826000Y-889000D02*
G01*
X4485513Y-548512D01*
X3635502Y-548512D01*
X3359632Y-1424000D02*
G01*
X3359632Y-2055901D01*
X3460165Y-2156434D01*
X2217343Y-115443D02*
G01*
X2217343Y-886815D01*
X2247900Y-917371D01*
X2787726Y-175209D02*
G01*
X2787726Y-222859D01*
X3961866Y-1397000D01*
X4826000Y-1397000D01*
X4826000Y-1651000D02*
G01*
X4049242Y-1651000D01*
X2508453Y-110210D01*
X3030347Y19786D02*
G01*
X3030347Y-32918D01*
X4140428Y-1143000D01*
X4826000Y-1143000D01*
X1723923Y-115443D02*
G01*
X1723923Y-1087729D01*
X1641449Y-1170203D01*
D11*
G01*
X4826000Y-889000D03*
G01*
X4826000Y-1143000D03*
G01*
X4826000Y-1397000D03*
G01*
X4826000Y-1651000D03*
D12*
G01*
X4826000Y-1905000D03*
D13*
G01*
X4826000Y-381000D03*
D14*
G01*
X4826000Y-127000D03*
D15*
G01*
X1641449Y-1170203D03*
G01*
X1723923Y-115443D03*
G01*
X3030347Y19786D03*
G01*
X2508453Y-110210D03*
G01*
X2787726Y-175209D03*
G01*
X2247900Y-917371D03*
G01*
X2217343Y-115443D03*
G01*
X3460165Y-2156434D03*
G01*
X3359632Y-1424000D03*
G01*
X3635502Y-548512D03*
M02*
