M48
METRIC,LZ,000.000
;FILE_FORMAT=3:3
;TYPE=PLATED
;Layer: PTH_Through
;EasyEDA v6.5.43, 2024-08-21 01:05:30
;cb6e2e9fbd21486d88ae5690d2d3dc00,10
;Gerber Generator version 0.2
;Holesize 1 = 0.310 mm
T01C0.310
;Holesize 2 = 0.501 mm
T02C0.501
;Holesize 3 = 0.701 mm
T03C0.701
;Holesize 4 = 0.800 mm
T04C0.800
;Holesize 5 = 0.889 mm
T05C0.889
;Holesize 6 = 1.000 mm
T06C1.000
%
G05
G90
T01
X289306Y000000
X263906Y000000
X238506Y000000
X200370Y000036
X175006Y000000
X136906Y000000
X111506Y000000
X086106Y000000
X047970Y000000
X022631Y-000061
X093980Y041910
X093980Y038100
X091440Y041910
X091440Y038100
X177800Y059690
T02
X120904Y063500
X158640Y051149
X129286Y055880
T03
X106680Y031920
X106680Y021420
X119380Y031920
X119380Y021420
X132080Y031920
X132080Y021420
X144780Y032047
X144780Y021547
X157480Y031920
X157480Y021420
X170180Y031920
X170180Y021420
X182880Y031920
X182880Y021420
X195580Y031920
X195580Y021420
X208280Y031920
X208280Y021420
X220980Y031920
X220980Y021420
X233680Y031920
X233680Y021420
X246380Y031920
X246380Y021420
X259080Y031920
X259080Y021420
X271780Y031920
X271780Y021420
X284480Y031793
X284480Y021293
X297180Y031920
X297180Y021420
X081280Y021420
X081280Y031920
X068580Y021420
X068580Y031920
X055880Y021420
X055880Y031920
X043180Y021420
X043180Y031920
X030353Y021420
X030353Y031920
X017780Y021420
X017780Y031920
X005080Y021420
X005080Y031920
X093853Y021420
X093853Y031920
T04
X059817Y043220
X059817Y048220
X139150Y043093
X139150Y048093
X234823Y042331
X234823Y047331
T05
X151130Y066040
X148590Y066040
X146050Y066040
X143510Y066040
X140970Y066040
T06
X069850Y049530
X072390Y049530
X074930Y049530
X077470Y049530
X080010Y049530
X082550Y049530
X085090Y049530
X087630Y049530
X087630Y041910
X085090Y041910
X082550Y041910
X080010Y041910
X077470Y041910
X074930Y041910
X072390Y041910
X069850Y041910
X152146Y049657
X154686Y049657
X157226Y049657
X159766Y049657
X162306Y049657
X164846Y049657
X167386Y049657
X169926Y049657
X169926Y042037
X167386Y042037
X164846Y042037
X162306Y042037
X159766Y042037
X157226Y042037
X154686Y042037
X152146Y042037
X242951Y048260
X245491Y048260
X248031Y048260
X250571Y048260
X253111Y048260
X255651Y048260
X258191Y048260
X260731Y048260
X260731Y040640
X258191Y040640
X255651Y040640
X253111Y040640
X250571Y040640
X248031Y040640
X245491Y040640
X242951Y040640
M30
