G04 Layer: TopLayer*
G04 EasyEDA v6.5.43, 2024-08-21 01:05:30*
G04 cb6e2e9fbd21486d88ae5690d2d3dc00,10*
G04 Gerber Generator version 0.2*
G04 Scale: 100 percent, Rotated: No, Reflected: No *
G04 Dimensions in millimeters *
G04 leading zeros omitted , absolute positions ,4 integer and 5 decimal *
%FSLAX45Y45*%
%MOMM*%

%ADD10C,0.1000*%
%ADD11C,0.2540*%
%ADD12R,1.5000X2.3000*%
%ADD13R,0.4900X1.1570*%
%ADD14R,0.4900X1.1750*%
%ADD15C,1.6000*%
%ADD16R,1.6000X1.6000*%
%ADD17C,1.5748*%
%ADD18R,1.5748X1.5748*%
%ADD19C,1.4000*%
%ADD20C,0.7000*%
%ADD21C,0.6200*%
%ADD22C,0.0118*%

%LPD*%
D10*
X13972793Y6894576D02*
G01*
X13972793Y6812534D01*
X13931900Y6853681D02*
G01*
X14013688Y6853681D01*
X14098270Y6908037D02*
G01*
X14052804Y6908037D01*
X14048231Y6867144D01*
X14052804Y6871715D01*
X14066520Y6876287D01*
X14079981Y6876287D01*
X14093697Y6871715D01*
X14102841Y6862571D01*
X14107413Y6849110D01*
X14107413Y6839965D01*
X14102841Y6826250D01*
X14093697Y6817105D01*
X14079981Y6812534D01*
X14066520Y6812534D01*
X14052804Y6817105D01*
X14048231Y6821678D01*
X14043659Y6830821D01*
X14137386Y6908037D02*
G01*
X14173708Y6812534D01*
X14210029Y6908037D02*
G01*
X14173708Y6812534D01*
X14338554Y6894576D02*
G01*
X14329409Y6903465D01*
X14315693Y6908037D01*
X14297406Y6908037D01*
X14283943Y6903465D01*
X14274800Y6894576D01*
X14274800Y6885431D01*
X14279372Y6876287D01*
X14283943Y6871715D01*
X14293088Y6867144D01*
X14320266Y6858000D01*
X14329409Y6853681D01*
X14333981Y6849110D01*
X14338554Y6839965D01*
X14338554Y6826250D01*
X14329409Y6817105D01*
X14315693Y6812534D01*
X14297406Y6812534D01*
X14283943Y6817105D01*
X14274800Y6826250D01*
X14368525Y6908037D02*
G01*
X14368525Y6812534D01*
X14432025Y6908037D02*
G01*
X14432025Y6812534D01*
X14368525Y6862571D02*
G01*
X14432025Y6862571D01*
X14558772Y6885431D02*
G01*
X14554454Y6894576D01*
X14545309Y6903465D01*
X14536166Y6908037D01*
X14517877Y6908037D01*
X14508988Y6903465D01*
X14499843Y6894576D01*
X14495272Y6885431D01*
X14490700Y6871715D01*
X14490700Y6849110D01*
X14495272Y6835394D01*
X14499843Y6826250D01*
X14508988Y6817105D01*
X14517877Y6812534D01*
X14536166Y6812534D01*
X14545309Y6817105D01*
X14554454Y6826250D01*
X14558772Y6835394D01*
X14588997Y6908037D02*
G01*
X14588997Y6812534D01*
X14588997Y6812534D02*
G01*
X14643354Y6812534D01*
X14673325Y6908037D02*
G01*
X14673325Y6812534D01*
X14737079Y6908037D02*
G01*
X14673325Y6844537D01*
X14696186Y6867144D02*
G01*
X14737079Y6812534D01*
X14838172Y6885431D02*
G01*
X14833854Y6894576D01*
X14824709Y6903465D01*
X14815566Y6908037D01*
X14797277Y6908037D01*
X14788388Y6903465D01*
X14779243Y6894576D01*
X14774672Y6885431D01*
X14770100Y6871715D01*
X14770100Y6849110D01*
X14774672Y6835394D01*
X14779243Y6826250D01*
X14788388Y6817105D01*
X14797277Y6812534D01*
X14815566Y6812534D01*
X14824709Y6817105D01*
X14833854Y6826250D01*
X14838172Y6835394D01*
X14838172Y6849110D01*
X14815566Y6849110D02*
G01*
X14838172Y6849110D01*
X14868397Y6908037D02*
G01*
X14868397Y6812534D01*
X14868397Y6908037D02*
G01*
X14931897Y6812534D01*
X14931897Y6908037D02*
G01*
X14931897Y6812534D01*
X14961870Y6908037D02*
G01*
X14961870Y6812534D01*
X14961870Y6908037D02*
G01*
X14993620Y6908037D01*
X15007336Y6903465D01*
X15016479Y6894576D01*
X15021052Y6885431D01*
X15025624Y6871715D01*
X15025624Y6849110D01*
X15021052Y6835394D01*
X15016479Y6826250D01*
X15007336Y6817105D01*
X14993620Y6812534D01*
X14961870Y6812534D01*
X15102077Y6908037D02*
G01*
X15093188Y6903465D01*
X15084043Y6894576D01*
X15079472Y6885431D01*
X15074900Y6871715D01*
X15074900Y6849110D01*
X15079472Y6835394D01*
X15084043Y6826250D01*
X15093188Y6817105D01*
X15102077Y6812534D01*
X15120366Y6812534D01*
X15129509Y6817105D01*
X15138654Y6826250D01*
X15142972Y6835394D01*
X15147543Y6849110D01*
X15147543Y6871715D01*
X15142972Y6885431D01*
X15138654Y6894576D01*
X15129509Y6903465D01*
X15120366Y6908037D01*
X15102077Y6908037D01*
X15115793Y6830821D02*
G01*
X15142972Y6803644D01*
X15177516Y6908037D02*
G01*
X15177516Y6812534D01*
X15241270Y6908037D02*
G01*
X15241270Y6812534D01*
X15177516Y6862571D02*
G01*
X15241270Y6862571D01*
D11*
X11849100Y5931535D02*
G01*
X11849100Y5969000D01*
X13687450Y5940450D01*
X14351000Y6604000D01*
X17437100Y5840933D02*
G01*
X17437100Y5969000D01*
X17437100Y5969000D02*
G01*
X17403495Y5965139D01*
X15243860Y5965139D01*
X14605000Y6604000D01*
X17342104Y6071666D02*
G01*
X17335500Y6350000D01*
X16779595Y6725665D01*
X14302282Y6725665D01*
X14208480Y6631863D01*
X14208480Y6604000D01*
X17780000Y5969000D02*
G01*
X17780000Y6261100D01*
X17754600Y6286500D01*
X17614900Y6286500D01*
X17532095Y6203695D01*
X17532095Y6071666D01*
X17342104Y5588000D02*
G01*
X16557472Y4965700D01*
X16484600Y4965700D01*
X17532095Y5750305D02*
G01*
X17532095Y5588000D01*
X17342104Y5588000D01*
X17342104Y5750305D01*
X15214600Y4203700D02*
G01*
X15101849Y4203700D01*
X7097725Y4191000D02*
G01*
X7097725Y4219194D01*
X7192340Y4313809D01*
X13259612Y4313809D01*
X13390295Y4183126D01*
X15081275Y4183126D01*
X15101849Y4203700D01*
X14478000Y3204692D02*
G01*
X15481300Y3200400D01*
X16484600Y4203700D01*
X16992600Y4203700D02*
G01*
X16992600Y3217392D01*
X17018000Y3191992D01*
X16738600Y4203700D02*
G01*
X16738600Y4182592D01*
X15748000Y3191992D01*
X16230600Y4203700D02*
G01*
X15633217Y3606317D01*
X13622324Y3606317D01*
X13208000Y3191992D01*
X15976600Y4203700D02*
G01*
X15603981Y3831081D01*
X12577089Y3831081D01*
X11938000Y3191992D01*
X10668000Y3192018D02*
G01*
X11425681Y3949700D01*
X15466822Y3949700D01*
X15722600Y4203700D02*
G01*
X15466822Y3949700D01*
X4796993Y0D02*
G01*
X4796993Y307009D01*
X11944095Y5840933D02*
G01*
X11944095Y5750331D01*
X17532095Y5840933D02*
G01*
X17532095Y5750331D01*
X17342104Y5840933D02*
G01*
X17342104Y5750331D01*
X12928600Y5588000D02*
G01*
X11944101Y5588000D01*
X11944101Y5750333D01*
X16484600Y4965700D02*
G01*
X16335425Y5114874D01*
X15863976Y5114874D01*
X11754104Y6117336D02*
G01*
X11754104Y6350000D01*
X8382000Y6350000D01*
X6985000Y4953000D01*
X11944101Y6163157D02*
G01*
X11944101Y6350000D01*
X12090400Y6350000D01*
X11754104Y6163055D02*
G01*
X11754104Y6343904D01*
X12014200Y6604000D01*
X14097000Y6604000D01*
X11754104Y5750305D02*
G01*
X11754104Y5588000D01*
X11944095Y5588000D01*
X11944095Y5750305D01*
X27178000Y3191992D02*
G01*
X26924000Y2937992D01*
X26924000Y-508000D01*
X27207006Y-791006D01*
X27207006Y-1069009D01*
X25908000Y3191992D02*
G01*
X26162000Y2937992D01*
X26162000Y1778000D01*
X25937006Y1553006D01*
X25937006Y1216990D01*
X24638000Y3191992D02*
G01*
X24384000Y2937992D01*
X24384000Y-508000D01*
X24667006Y-791006D01*
X24667006Y-1069009D01*
X23368000Y3191992D02*
G01*
X23114000Y2937992D01*
X23114000Y1778000D01*
X23397006Y1494993D01*
X23397006Y1216990D01*
X22098000Y3191992D02*
G01*
X22352000Y2937992D01*
X22352000Y-508000D01*
X22127006Y-732993D01*
X22127006Y-1069009D01*
X20828000Y3191992D02*
G01*
X21082000Y2937992D01*
X21082000Y-508000D01*
X20857006Y-732993D01*
X20857006Y-1069009D01*
X19558000Y3191992D02*
G01*
X19304000Y2937992D01*
X19304000Y1778000D01*
X19587006Y1494993D01*
X19587006Y1216990D01*
X18288000Y3191992D02*
G01*
X18542000Y2937992D01*
X18542000Y-508000D01*
X18317006Y-732993D01*
X18317006Y-1069009D01*
X17018000Y3192018D02*
G01*
X16764000Y2938018D01*
X16764000Y1778000D01*
X17043400Y1498600D01*
X17043400Y1485900D01*
X17047006Y1482293D01*
X17047006Y1216990D01*
X15748000Y3191992D02*
G01*
X16065500Y2874492D01*
X16065500Y-508000D01*
X15777006Y-796493D01*
X15777006Y-1069009D01*
X14507006Y-1069009D02*
G01*
X14503400Y-1065403D01*
X14503400Y-762000D01*
X14732000Y-533400D01*
X14732000Y2950692D01*
X14478000Y3204692D01*
X13237006Y1216990D02*
G01*
X12877800Y1576196D01*
X12877800Y2959100D01*
X13110692Y3191992D01*
X13208000Y3191992D01*
X11938000Y3192018D02*
G01*
X12035281Y3192018D01*
X12268200Y2959100D01*
X12268200Y-190500D01*
X11963400Y-495300D01*
X11963400Y-508000D01*
X11966956Y-1069086D01*
X25908000Y3191992D02*
G01*
X25908000Y3746500D01*
X25819100Y3835400D01*
X25819100Y4064000D01*
X24638000Y3191992D02*
G01*
X24908992Y3191992D01*
X25565100Y3848100D01*
X25565100Y4064000D01*
X23368000Y3191992D02*
G01*
X23372292Y3191992D01*
X23901400Y3721100D01*
X24968200Y3721100D01*
X25311100Y4064000D01*
X20828000Y3191992D02*
G01*
X21518981Y3882974D01*
X24622074Y3882974D01*
X24803100Y4064000D01*
X22098000Y3191992D02*
G01*
X22707396Y3801389D01*
X24794489Y3801389D01*
X25057100Y4064000D01*
X11754104Y6117412D02*
G01*
X11754104Y6163157D01*
X11754104Y6071666D02*
G01*
X11754104Y6117412D01*
X24295100Y4826000D02*
G01*
X23575187Y4826000D01*
X23482300Y4733112D01*
X14097000Y6604000D02*
G01*
X14208480Y6604000D01*
X11944095Y6071666D02*
G01*
X11944095Y6163157D01*
X6985000Y4191000D02*
G01*
X7097725Y4191000D01*
X24182349Y4064000D02*
G01*
X23892713Y4353636D01*
X15449067Y4353636D01*
X15327325Y4231894D01*
X15327325Y4203700D01*
X15214600Y4203700D02*
G01*
X15327325Y4203700D01*
X24295100Y4064000D02*
G01*
X24182349Y4064000D01*
X11754104Y5840933D02*
G01*
X11754104Y5750331D01*
X11849100Y5840933D02*
G01*
X11849100Y5931535D01*
X24803100Y4826000D02*
G01*
X24681205Y4947894D01*
X23464545Y4947894D01*
X23359363Y4842713D01*
X16353586Y4842713D01*
X16230600Y4965700D01*
X15722600Y4965700D02*
G01*
X15600400Y4843500D01*
X14194307Y4843500D01*
X13959509Y5078298D01*
X8126298Y5078298D01*
X8001000Y4953000D01*
X7747000Y4953000D02*
G01*
X7925866Y5131866D01*
X15751073Y5131866D01*
X15917240Y4965700D01*
X15976600Y4965700D01*
X15976600Y4965700D02*
G01*
X16326205Y4616094D01*
X24847194Y4616094D01*
X25057100Y4826000D01*
X986993Y-1978990D02*
G01*
X990600Y-1982596D01*
X990600Y-2286000D01*
X3530600Y-2286000D01*
X3526993Y-2282393D01*
X3526993Y-1978990D01*
X3530600Y-2286000D02*
G01*
X6070600Y-2286000D01*
X6066993Y-2282393D01*
X6066993Y-1978990D01*
X6070600Y-2286000D02*
G01*
X7340600Y-2286000D01*
X7340600Y-2286000D01*
X7336993Y-1978990D01*
X7340600Y-2286000D02*
G01*
X9880600Y-2286000D01*
X9880600Y-2286000D01*
X9876993Y-1978990D01*
X9880600Y-2286000D02*
G01*
X12420600Y-2286000D01*
X12416993Y-2282393D01*
X12416993Y-1978990D01*
X12420600Y-2286000D02*
G01*
X14960600Y-2286000D01*
X14956993Y-2282393D01*
X14956993Y-1978990D01*
X14960600Y-2286000D02*
G01*
X16217900Y-2286000D01*
X16226993Y-2276906D01*
X16226993Y-1978990D01*
X16217900Y-2286000D02*
G01*
X18770600Y-2286000D01*
X18766993Y-2282393D01*
X18766993Y-1978990D01*
X22580600Y-2286000D02*
G01*
X25133300Y-2286000D01*
X25116993Y-2269693D01*
X25116993Y-1978990D01*
X25126177Y-2286000D02*
G01*
X27660600Y-2286000D01*
X27656993Y-2282393D01*
X27656993Y-1978990D01*
X27660600Y-2286000D02*
G01*
X30200600Y-2286000D01*
X30196993Y-2282393D01*
X30196993Y-1978990D01*
X2256993Y0D02*
G01*
X2263119Y-6126D01*
X2263119Y-2286000D01*
X5981700Y4322063D02*
G01*
X5985763Y4318000D01*
X6350000Y4318000D01*
X6351015Y5332984D01*
X7364984Y5332984D01*
X18770600Y-2286000D02*
G01*
X18783300Y-2286000D01*
X21310600Y-2286000D01*
X21306993Y-2282393D01*
X21306993Y-1991690D01*
X21310600Y-2286000D02*
G01*
X21323300Y-2286000D01*
X22580600Y-2286000D01*
X22576993Y-2282393D01*
X22576993Y-1978990D01*
X508000Y3191992D02*
G01*
X1316507Y4000500D01*
X7429500Y4000500D01*
X7493000Y4064000D01*
X7493000Y4191000D01*
X1777997Y3191992D02*
G01*
X2510304Y3924300D01*
X7620000Y3924300D01*
X7747000Y4051300D01*
X7747000Y4191000D01*
X3035294Y3191992D02*
G01*
X3704102Y3860800D01*
X7848600Y3860800D01*
X8001000Y4013200D01*
X8001000Y4191000D01*
X4317992Y3191992D02*
G01*
X4923299Y3797300D01*
X8102600Y3797300D01*
X8255000Y3949700D01*
X8255000Y4191000D01*
X5575300Y3191992D02*
G01*
X6117107Y3733800D01*
X8407400Y3733800D01*
X8509000Y3835400D01*
X8509000Y4191000D01*
X6870700Y3230092D02*
G01*
X7298207Y3657600D01*
X8750300Y3657600D01*
X8763000Y3670300D01*
X8763000Y4191000D01*
X28448000Y3179292D02*
G01*
X28702000Y2925292D01*
X28702000Y1778000D01*
X28473400Y1778000D01*
X28477006Y1748993D01*
X28477006Y1216990D01*
X29718000Y3192018D02*
G01*
X29705300Y3204718D01*
X29705300Y5080000D01*
X25908000Y5080000D01*
X25819100Y4991100D01*
X25819100Y4826000D01*
X28448000Y3179292D02*
G01*
X28448000Y4813300D01*
X28435300Y4826000D01*
X26073100Y4826000D01*
X26073100Y4064000D02*
G01*
X26945107Y3191992D01*
X27178000Y3191992D01*
X29747006Y-1069009D02*
G01*
X29743400Y-1065403D01*
X29743400Y1663700D01*
X29502100Y1905000D01*
X29502100Y3187700D01*
X29523207Y3191992D01*
X29718000Y3191992D01*
X28926993Y307009D02*
G01*
X28930600Y303403D01*
X28930600Y0D01*
X26390600Y0D02*
G01*
X26386993Y3606D01*
X26386993Y307009D01*
X20036993Y3606D02*
G01*
X20036993Y307009D01*
X17500600Y0D02*
G01*
X17496993Y3606D01*
X17496993Y307009D01*
X11150600Y0D02*
G01*
X11146993Y3606D01*
X11146993Y307009D01*
X8606993Y307009D02*
G01*
X8610600Y303403D01*
X8610600Y0D01*
X2263119Y-6126D02*
G01*
X2256993Y0D01*
X2256993Y307009D01*
X508000Y3191992D02*
G01*
X774700Y2925292D01*
X774700Y-508000D01*
X537006Y-745693D01*
X537006Y-1069009D01*
X1777997Y3191992D02*
G01*
X2032000Y2937990D01*
X2032000Y1778000D01*
X1807006Y1553006D01*
X1807006Y1216990D01*
X4317987Y3191990D02*
G01*
X4572000Y2921000D01*
X4572000Y1778000D01*
X4385081Y1591081D01*
X4385081Y1216990D01*
X3035294Y3191992D02*
G01*
X3302000Y2925287D01*
X3302000Y-508000D01*
X3076981Y-733018D01*
X3076981Y-1069009D01*
X5587989Y3191992D02*
G01*
X5842000Y2937982D01*
X5842000Y-508000D01*
X5617006Y-732993D01*
X5617006Y-1069009D01*
X6857987Y3191992D02*
G01*
X6604000Y2938005D01*
X6604000Y-508000D01*
X6887006Y-791006D01*
X6887006Y-1069009D01*
X8127984Y3191992D02*
G01*
X8382000Y2937977D01*
X8382000Y1778000D01*
X8157006Y1553006D01*
X8157006Y1216990D01*
X9385282Y3191992D02*
G01*
X9652000Y2925274D01*
X9652000Y-508000D01*
X9427006Y-732993D01*
X9427006Y-1069009D01*
X10668000Y3191987D02*
G01*
X10414000Y2937987D01*
X10414000Y1778000D01*
X10697006Y1494993D01*
X10697006Y1216990D01*
X9398000Y4191000D02*
G01*
X9398000Y3810000D01*
X9144000Y4191000D02*
G01*
X9144000Y3810000D01*
X23847043Y307086D02*
G01*
X23848059Y0D01*
X13690600Y0D02*
G01*
X13690600Y0D01*
X13686993Y3606D01*
X13686993Y307009D01*
D12*
G01*
X9877018Y-1069009D03*
G01*
X9876993Y-1978990D03*
G01*
X9427006Y-1069009D03*
G01*
X9427006Y-1978990D03*
G01*
X11147018Y1216990D03*
G01*
X11146993Y307009D03*
G01*
X10697006Y1216990D03*
G01*
X10697006Y307009D03*
G01*
X12417018Y-1069009D03*
G01*
X12416993Y-1978990D03*
G01*
X11967006Y-1069009D03*
G01*
X11967006Y-1978990D03*
G01*
X13687018Y1216990D03*
G01*
X13686993Y307009D03*
G01*
X13237006Y1216990D03*
G01*
X13237006Y307009D03*
G01*
X14957018Y-1069009D03*
G01*
X14956993Y-1978990D03*
G01*
X14507006Y-1069009D03*
G01*
X14507006Y-1978990D03*
G01*
X16227018Y-1069009D03*
G01*
X16226993Y-1978990D03*
G01*
X15777006Y-1069009D03*
G01*
X15777006Y-1978990D03*
G01*
X17497018Y1216990D03*
G01*
X17496993Y307009D03*
G01*
X17047006Y1216990D03*
G01*
X17047006Y307009D03*
G01*
X18767018Y-1069009D03*
G01*
X18766993Y-1978990D03*
G01*
X18317006Y-1069009D03*
G01*
X18317006Y-1978990D03*
G01*
X20037018Y1216990D03*
G01*
X20036993Y307009D03*
G01*
X19587006Y1216990D03*
G01*
X19587006Y307009D03*
G01*
X21307018Y-1069009D03*
G01*
X21306993Y-1978990D03*
G01*
X20857006Y-1069009D03*
G01*
X20857006Y-1978990D03*
G01*
X22577018Y-1069009D03*
G01*
X22576993Y-1978990D03*
G01*
X22127006Y-1069009D03*
G01*
X22127006Y-1978990D03*
G01*
X23847018Y1216990D03*
G01*
X23846993Y307009D03*
G01*
X23397006Y1216990D03*
G01*
X23397006Y307009D03*
G01*
X25117018Y-1069009D03*
G01*
X25116993Y-1978990D03*
G01*
X24667006Y-1069009D03*
G01*
X24667006Y-1978990D03*
G01*
X26387018Y1216990D03*
G01*
X26386993Y307009D03*
G01*
X25937006Y1216990D03*
G01*
X25937006Y307009D03*
G01*
X27657018Y-1069009D03*
G01*
X27656993Y-1978990D03*
G01*
X27207006Y-1069009D03*
G01*
X27207006Y-1978990D03*
G01*
X28927018Y1216990D03*
G01*
X28926993Y307009D03*
G01*
X28477006Y1216990D03*
G01*
X28477006Y307009D03*
G01*
X30197018Y-1069009D03*
G01*
X30196993Y-1978990D03*
G01*
X29747006Y-1069009D03*
G01*
X29747006Y-1978990D03*
G01*
X987018Y-1069009D03*
G01*
X986993Y-1978990D03*
G01*
X537006Y-1069009D03*
G01*
X537006Y-1978990D03*
G01*
X2257018Y1216990D03*
G01*
X2256993Y307009D03*
G01*
X1807006Y1216990D03*
G01*
X1807006Y307009D03*
G01*
X3527018Y-1069009D03*
G01*
X3526993Y-1978990D03*
G01*
X3076981Y-1069009D03*
G01*
X3076981Y-1978990D03*
G01*
X4797018Y1216990D03*
G01*
X4796993Y307009D03*
G01*
X4346981Y1216990D03*
G01*
X4346981Y307009D03*
G01*
X6067018Y-1069009D03*
G01*
X6066993Y-1978990D03*
G01*
X5617006Y-1069009D03*
G01*
X5617006Y-1978990D03*
G01*
X7337018Y-1069009D03*
G01*
X7336993Y-1978990D03*
G01*
X6887006Y-1069009D03*
G01*
X6887006Y-1978990D03*
G01*
X8607018Y1216990D03*
G01*
X8606993Y307009D03*
G01*
X8157006Y1216990D03*
G01*
X8157006Y307009D03*
D13*
G01*
X17342104Y5840933D03*
G01*
X17437100Y5840933D03*
G01*
X17532095Y5840933D03*
D14*
G01*
X17532095Y6071666D03*
G01*
X17342104Y6071666D03*
D13*
G01*
X11754104Y5840933D03*
G01*
X11849100Y5840933D03*
G01*
X11944095Y5840933D03*
D14*
G01*
X11944095Y6071666D03*
G01*
X11754104Y6071666D03*
D15*
G01*
X5981700Y4322013D03*
G01*
X5981700Y4822012D03*
G01*
X13914958Y4309313D03*
G01*
X13914958Y4809312D03*
G01*
X23482300Y4233113D03*
G01*
X23482300Y4733112D03*
G01*
X6985000Y4953000D03*
G01*
X7239000Y4953000D03*
G01*
X7493000Y4953000D03*
G01*
X7747000Y4953000D03*
G01*
X8001000Y4953000D03*
G01*
X8255000Y4953000D03*
G01*
X8509000Y4953000D03*
G01*
X8763000Y4953000D03*
G01*
X8763000Y4191000D03*
G01*
X8509000Y4191000D03*
G01*
X8255000Y4191000D03*
G01*
X8001000Y4191000D03*
G01*
X7747000Y4191000D03*
G01*
X7493000Y4191000D03*
G01*
X7239000Y4191000D03*
D16*
G01*
X6985000Y4191000D03*
D15*
G01*
X15214600Y4965700D03*
G01*
X15468600Y4965700D03*
G01*
X15722600Y4965700D03*
G01*
X15976600Y4965700D03*
G01*
X16230600Y4965700D03*
G01*
X16484600Y4965700D03*
G01*
X16738600Y4965700D03*
G01*
X16992600Y4965700D03*
G01*
X16992600Y4203700D03*
G01*
X16738600Y4203700D03*
G01*
X16484600Y4203700D03*
G01*
X16230600Y4203700D03*
G01*
X15976600Y4203700D03*
G01*
X15722600Y4203700D03*
G01*
X15468600Y4203700D03*
D16*
G01*
X15214600Y4203700D03*
D15*
G01*
X24295100Y4826000D03*
G01*
X24549100Y4826000D03*
G01*
X24803100Y4826000D03*
G01*
X25057100Y4826000D03*
G01*
X25311100Y4826000D03*
G01*
X25565100Y4826000D03*
G01*
X25819100Y4826000D03*
G01*
X26073100Y4826000D03*
G01*
X26073100Y4064000D03*
G01*
X25819100Y4064000D03*
G01*
X25565100Y4064000D03*
G01*
X25311100Y4064000D03*
G01*
X25057100Y4064000D03*
G01*
X24803100Y4064000D03*
G01*
X24549100Y4064000D03*
D16*
G01*
X24295100Y4064000D03*
D17*
G01*
X15113000Y6604000D03*
G01*
X14859000Y6604000D03*
G01*
X14605000Y6604000D03*
G01*
X14351000Y6604000D03*
D18*
G01*
X14097000Y6604000D03*
D19*
G01*
X10668000Y3191992D03*
G01*
X10668000Y2142007D03*
G01*
X11938000Y3191992D03*
G01*
X11938000Y2142007D03*
G01*
X13208000Y3191992D03*
G01*
X13208000Y2142007D03*
G01*
X14478000Y3204692D03*
G01*
X14478000Y2154707D03*
G01*
X15748000Y3191992D03*
G01*
X15748000Y2142007D03*
G01*
X17018000Y3191992D03*
G01*
X17018000Y2142007D03*
G01*
X18288000Y3191992D03*
G01*
X18288000Y2142007D03*
G01*
X19558000Y3191992D03*
G01*
X19558000Y2142007D03*
G01*
X20828000Y3191992D03*
G01*
X20828000Y2142007D03*
G01*
X22098000Y3191992D03*
G01*
X22098000Y2142007D03*
G01*
X23368000Y3191992D03*
G01*
X23368000Y2142007D03*
G01*
X24638000Y3191992D03*
G01*
X24638000Y2142007D03*
G01*
X25908000Y3191992D03*
G01*
X25908000Y2142007D03*
G01*
X27178000Y3191992D03*
G01*
X27178000Y2142007D03*
G01*
X28448000Y3179292D03*
G01*
X28448000Y2129307D03*
G01*
X29718000Y3191992D03*
G01*
X29718000Y2142007D03*
G01*
X8127974Y2141981D03*
G01*
X8127974Y3191992D03*
G01*
X6858000Y2141981D03*
G01*
X6858000Y3191992D03*
G01*
X5588000Y2141981D03*
G01*
X5588000Y3191992D03*
G01*
X4318000Y2141981D03*
G01*
X4318000Y3191992D03*
G01*
X3035300Y2141981D03*
G01*
X3035300Y3191992D03*
G01*
X1778000Y2141981D03*
G01*
X1778000Y3191992D03*
G01*
X508000Y2141981D03*
G01*
X508000Y3191992D03*
G01*
X9385274Y2141981D03*
G01*
X9385274Y3191992D03*
D20*
G01*
X12090400Y6350000D03*
G01*
X15863976Y5114874D03*
G01*
X12928600Y5588000D03*
D21*
G01*
X28930600Y0D03*
G01*
X26390600Y0D03*
G01*
X23850600Y0D03*
G01*
X20036993Y3606D03*
G01*
X17500600Y0D03*
G01*
X13690600Y0D03*
G01*
X11150600Y0D03*
G01*
X8610600Y0D03*
G01*
X4796993Y0D03*
G01*
X2263114Y-6121D03*
G01*
X9398000Y4191000D03*
G01*
X9398000Y3810000D03*
G01*
X9144000Y4191000D03*
G01*
X9144000Y3810000D03*
G01*
X17780000Y5969000D03*
M02*
