G04 Layer: BottomLayer*
G04 EasyEDA v6.5.43, 2024-08-21 17:52:12*
G04 cb6e2e9fbd21486d88ae5690d2d3dc00,10*
G04 Gerber Generator version 0.2*
G04 Scale: 100 percent, Rotated: No, Reflected: No *
G04 Dimensions in millimeters *
G04 leading zeros omitted , absolute positions ,4 integer and 5 decimal *
%FSLAX45Y45*%
%MOMM*%

%ADD10C,0.2540*%
%ADD11C,1.6000*%
%ADD12R,1.6000X1.6000*%
%ADD13C,1.5748*%
%ADD14R,1.5748X1.5748*%
%ADD15C,1.4000*%
%ADD16C,0.9000*%
%ADD17C,0.6200*%

%LPD*%
D10*
X17780000Y5969000D02*
G01*
X17328139Y5969000D01*
X16371727Y5011420D01*
X16371727Y4930193D01*
X15921941Y4480407D01*
X15745307Y4480407D01*
X15468600Y4203700D01*
X11150600Y0D02*
G01*
X8610600Y0D01*
X8509000Y4953000D02*
G01*
X8509000Y5334000D01*
X9398000Y5334000D01*
X9398000Y4191000D01*
X9398000Y3810000D02*
G01*
X9398000Y3810000D01*
X9397956Y3191992D01*
X15468600Y4068876D02*
G01*
X15468600Y4203700D01*
X24549100Y4064000D02*
G01*
X24428602Y3943502D01*
X15593974Y3943502D01*
X15468600Y4068876D01*
X8127984Y3191992D02*
G01*
X8479292Y3543300D01*
X9144000Y3543300D01*
X9144000Y3810000D01*
X25565100Y4826000D02*
G01*
X25692100Y4699025D01*
X25692100Y2345232D01*
X25908000Y2129307D01*
X18173623Y3306368D02*
G01*
X16611600Y4868392D01*
X16611600Y5013477D01*
X16693032Y5094909D01*
X16863390Y5094909D01*
X16992600Y4965700D01*
X18288000Y3191992D02*
G01*
X18173623Y3306368D01*
X19452463Y3191992D02*
G01*
X18512307Y3191992D01*
X16738600Y4965700D01*
X19558000Y3191992D02*
G01*
X19452463Y3191992D01*
X5981700Y4322013D02*
G01*
X7216927Y4322013D01*
X7352156Y4457242D01*
X7352156Y4457242D02*
G01*
X7352156Y5014976D01*
X7288326Y5078806D01*
X7110806Y5078806D01*
X6985000Y4953000D01*
X14097000Y6604000D02*
G01*
X14097000Y6492519D01*
X15214600Y4203700D02*
G01*
X15101849Y4203700D01*
X15101849Y4203700D02*
G01*
X15078633Y4180481D01*
X13865707Y4180481D01*
X12090400Y5955792D01*
X12090400Y6350000D01*
X15113000Y6604000D02*
G01*
X15001392Y6715607D01*
X9255607Y6715607D01*
X7493000Y4953000D01*
X14097000Y6492494D02*
G01*
X13914881Y6310376D01*
X13914881Y4809236D01*
X7239000Y4191000D02*
G01*
X7361123Y4068876D01*
X15468600Y4068876D01*
X28930600Y0D02*
G01*
X26390600Y0D01*
X23850600Y0D02*
G01*
X26390600Y0D01*
X23850600Y0D02*
G01*
X23846993Y3606D01*
X20036993Y3606D01*
X20036993Y3606D02*
G01*
X20033386Y0D01*
X17500600Y0D01*
X17500600Y0D02*
G01*
X13690600Y0D01*
X11150600Y0D02*
G01*
X13690600Y0D01*
X4796993Y0D02*
G01*
X8610600Y0D01*
X2263119Y-6126D02*
G01*
X2269246Y0D01*
X4796993Y0D01*
X15214600Y4965700D02*
G01*
X15058212Y4809312D01*
X13914958Y4809312D01*
X8763000Y4953000D02*
G01*
X8763000Y5207000D01*
X9144000Y5207000D01*
X9144000Y4191000D01*
D11*
G01*
X5981700Y4322013D03*
G01*
X5981700Y4822012D03*
G01*
X13970000Y4322013D03*
G01*
X13970000Y4822012D03*
G01*
X23482300Y4233113D03*
G01*
X23482300Y4733112D03*
G01*
X6985000Y4953000D03*
G01*
X7239000Y4953000D03*
G01*
X7493000Y4953000D03*
G01*
X7747000Y4953000D03*
G01*
X8001000Y4953000D03*
G01*
X8255000Y4953000D03*
G01*
X8509000Y4953000D03*
G01*
X8763000Y4953000D03*
G01*
X8763000Y4191000D03*
G01*
X8509000Y4191000D03*
G01*
X8255000Y4191000D03*
G01*
X8001000Y4191000D03*
G01*
X7747000Y4191000D03*
G01*
X7493000Y4191000D03*
G01*
X7239000Y4191000D03*
D12*
G01*
X6985000Y4191000D03*
D11*
G01*
X15214600Y4965700D03*
G01*
X15468600Y4965700D03*
G01*
X15722600Y4965700D03*
G01*
X15976600Y4965700D03*
G01*
X16230600Y4965700D03*
G01*
X16484600Y4965700D03*
G01*
X16738600Y4965700D03*
G01*
X16992600Y4965700D03*
G01*
X16992600Y4203700D03*
G01*
X16738600Y4203700D03*
G01*
X16484600Y4203700D03*
G01*
X16230600Y4203700D03*
G01*
X15976600Y4203700D03*
G01*
X15722600Y4203700D03*
G01*
X15468600Y4203700D03*
D12*
G01*
X15214600Y4203700D03*
D11*
G01*
X24295100Y4826000D03*
G01*
X24549100Y4826000D03*
G01*
X24803100Y4826000D03*
G01*
X25057100Y4826000D03*
G01*
X25311100Y4826000D03*
G01*
X25565100Y4826000D03*
G01*
X25819100Y4826000D03*
G01*
X26073100Y4826000D03*
G01*
X26073100Y4064000D03*
G01*
X25819100Y4064000D03*
G01*
X25565100Y4064000D03*
G01*
X25311100Y4064000D03*
G01*
X25057100Y4064000D03*
G01*
X24803100Y4064000D03*
G01*
X24549100Y4064000D03*
D12*
G01*
X24295100Y4064000D03*
D13*
G01*
X15113000Y6604000D03*
G01*
X14859000Y6604000D03*
G01*
X14605000Y6604000D03*
G01*
X14351000Y6604000D03*
D14*
G01*
X14097000Y6604000D03*
D15*
G01*
X10668000Y3191992D03*
G01*
X10668000Y2142007D03*
G01*
X11938000Y3191992D03*
G01*
X11938000Y2142007D03*
G01*
X13208000Y3191992D03*
G01*
X13208000Y2142007D03*
G01*
X14478000Y3204692D03*
G01*
X14478000Y2154707D03*
G01*
X15748000Y3191992D03*
G01*
X15748000Y2142007D03*
G01*
X17018000Y3191992D03*
G01*
X17018000Y2142007D03*
G01*
X18288000Y3191992D03*
G01*
X18288000Y2142007D03*
G01*
X19558000Y3191992D03*
G01*
X19558000Y2142007D03*
G01*
X20828000Y3191992D03*
G01*
X20828000Y2142007D03*
G01*
X22098000Y3191992D03*
G01*
X22098000Y2142007D03*
G01*
X23368000Y3191992D03*
G01*
X23368000Y2142007D03*
G01*
X24638000Y3191992D03*
G01*
X24638000Y2142007D03*
G01*
X25907949Y3191992D03*
G01*
X25907949Y2142007D03*
G01*
X27177946Y3191992D03*
G01*
X27177946Y2142007D03*
G01*
X28447944Y3191987D03*
G01*
X28447944Y2142002D03*
G01*
X29717941Y3191987D03*
G01*
X29717941Y2142002D03*
G01*
X8127974Y2141981D03*
G01*
X8127974Y3191992D03*
G01*
X6858000Y2141981D03*
G01*
X6858000Y3191992D03*
G01*
X5588000Y2141981D03*
G01*
X5588000Y3191992D03*
G01*
X4318000Y2141981D03*
G01*
X4318000Y3191992D03*
G01*
X3047994Y2141981D03*
G01*
X3047994Y3191992D03*
G01*
X1778000Y2141981D03*
G01*
X1778000Y3191992D03*
G01*
X508000Y2141981D03*
G01*
X508000Y3191992D03*
G01*
X9397956Y2141981D03*
G01*
X9397956Y3191992D03*
D16*
G01*
X12090400Y6350000D03*
G01*
X28930600Y0D03*
D17*
G01*
X26390600Y0D03*
D16*
G01*
X23850600Y0D03*
G01*
X20036993Y3606D03*
G01*
X17500600Y0D03*
G01*
X13690600Y0D03*
G01*
X11150600Y0D03*
G01*
X8610600Y0D03*
G01*
X4796993Y0D03*
G01*
X2260600Y0D03*
G01*
X9398000Y4191000D03*
G01*
X9398000Y3810000D03*
G01*
X9144000Y4191000D03*
G01*
X9144000Y3810000D03*
G01*
X17780000Y5969000D03*
M02*
