G04 Layer: TopSilkscreenLayer*
G04 EasyEDA v6.5.43, 2024-08-21 01:05:30*
G04 cb6e2e9fbd21486d88ae5690d2d3dc00,10*
G04 Gerber Generator version 0.2*
G04 Scale: 100 percent, Rotated: No, Reflected: No *
G04 Dimensions in millimeters *
G04 leading zeros omitted , absolute positions ,4 integer and 5 decimal *
%FSLAX45Y45*%
%MOMM*%

%ADD10C,0.1524*%
%ADD11C,0.2540*%
%ADD12C,0.2032*%
%ADD13C,0.2030*%
%ADD14C,0.3000*%
%ADD15C,0.0120*%

%LPD*%
D10*
X5739937Y4624532D02*
G01*
X5729546Y4619335D01*
X5719155Y4608944D01*
X5713961Y4598555D01*
X5713961Y4577773D01*
X5719155Y4567382D01*
X5729546Y4556991D01*
X5739937Y4551794D01*
X5755525Y4546600D01*
X5781502Y4546600D01*
X5797087Y4551794D01*
X5807478Y4556991D01*
X5817870Y4567382D01*
X5823064Y4577773D01*
X5823064Y4598555D01*
X5817870Y4608944D01*
X5807478Y4619335D01*
X5797087Y4624532D01*
X5734743Y4658822D02*
G01*
X5729546Y4669213D01*
X5713961Y4684798D01*
X5823064Y4684798D01*
X13673206Y4611832D02*
G01*
X13662814Y4606635D01*
X13652423Y4596244D01*
X13647229Y4585855D01*
X13647229Y4565073D01*
X13652423Y4554682D01*
X13662814Y4544291D01*
X13673206Y4539094D01*
X13688794Y4533900D01*
X13714770Y4533900D01*
X13730356Y4539094D01*
X13740747Y4544291D01*
X13751138Y4554682D01*
X13756332Y4565073D01*
X13756332Y4585855D01*
X13751138Y4596244D01*
X13740747Y4606635D01*
X13730356Y4611832D01*
X13673206Y4651316D02*
G01*
X13668011Y4651316D01*
X13657620Y4656513D01*
X13652423Y4661707D01*
X13647229Y4672098D01*
X13647229Y4692881D01*
X13652423Y4703272D01*
X13657620Y4708466D01*
X13668011Y4713663D01*
X13678402Y4713663D01*
X13688794Y4708466D01*
X13704379Y4698075D01*
X13756332Y4646122D01*
X13756332Y4718857D01*
X10082009Y-1596644D02*
G01*
X10092423Y-1586229D01*
X10097503Y-1570736D01*
X10097503Y-1549907D01*
X10092423Y-1534413D01*
X10082009Y-1524000D01*
X10071595Y-1524000D01*
X10061181Y-1529079D01*
X10055847Y-1534413D01*
X10050767Y-1544828D01*
X10040353Y-1576070D01*
X10035273Y-1586229D01*
X10029939Y-1591563D01*
X10019525Y-1596644D01*
X10004031Y-1596644D01*
X9993617Y-1586229D01*
X9988537Y-1570736D01*
X9988537Y-1549907D01*
X9993617Y-1534413D01*
X10004031Y-1524000D01*
X10097503Y-1630934D02*
G01*
X9988537Y-1657095D01*
X10097503Y-1683004D02*
G01*
X9988537Y-1657095D01*
X10097503Y-1683004D02*
G01*
X9988537Y-1708912D01*
X10097503Y-1734820D02*
G01*
X9988537Y-1708912D01*
X10097503Y-1795271D02*
G01*
X10092423Y-1779523D01*
X10082009Y-1774444D01*
X10071595Y-1774444D01*
X10061181Y-1779523D01*
X10055847Y-1789937D01*
X10050767Y-1810765D01*
X10045687Y-1826260D01*
X10035273Y-1836673D01*
X10024859Y-1842007D01*
X10009111Y-1842007D01*
X9998697Y-1836673D01*
X9993617Y-1831594D01*
X9988537Y-1816100D01*
X9988537Y-1795271D01*
X9993617Y-1779523D01*
X9998697Y-1774444D01*
X10009111Y-1769110D01*
X10024859Y-1769110D01*
X10035273Y-1774444D01*
X10045687Y-1784857D01*
X10050767Y-1800352D01*
X10055847Y-1821179D01*
X10061181Y-1831594D01*
X10071595Y-1836673D01*
X10082009Y-1836673D01*
X10092423Y-1831594D01*
X10097503Y-1816100D01*
X10097503Y-1795271D01*
X11352009Y689355D02*
G01*
X11362423Y699770D01*
X11367503Y715263D01*
X11367503Y736092D01*
X11362423Y751586D01*
X11352009Y762000D01*
X11341595Y762000D01*
X11331181Y756920D01*
X11325847Y751586D01*
X11320767Y741171D01*
X11310353Y709929D01*
X11305273Y699770D01*
X11299939Y694436D01*
X11289525Y689355D01*
X11274031Y689355D01*
X11263617Y699770D01*
X11258537Y715263D01*
X11258537Y736092D01*
X11263617Y751586D01*
X11274031Y762000D01*
X11367503Y655065D02*
G01*
X11258537Y628904D01*
X11367503Y602995D02*
G01*
X11258537Y628904D01*
X11367503Y602995D02*
G01*
X11258537Y577087D01*
X11367503Y551179D02*
G01*
X11258537Y577087D01*
X11331181Y449326D02*
G01*
X11315687Y454405D01*
X11305273Y464820D01*
X11299939Y480313D01*
X11299939Y485647D01*
X11305273Y501142D01*
X11315687Y511555D01*
X11331181Y516889D01*
X11336261Y516889D01*
X11352009Y511555D01*
X11362423Y501142D01*
X11367503Y485647D01*
X11367503Y480313D01*
X11362423Y464820D01*
X11352009Y454405D01*
X11331181Y449326D01*
X11305273Y449326D01*
X11279111Y454405D01*
X11263617Y464820D01*
X11258537Y480313D01*
X11258537Y490728D01*
X11263617Y506476D01*
X11274031Y511555D01*
X12622009Y-1596644D02*
G01*
X12632423Y-1586229D01*
X12637503Y-1570736D01*
X12637503Y-1549907D01*
X12632423Y-1534413D01*
X12622009Y-1524000D01*
X12611595Y-1524000D01*
X12601181Y-1529079D01*
X12595847Y-1534413D01*
X12590767Y-1544828D01*
X12580353Y-1576070D01*
X12575273Y-1586229D01*
X12569939Y-1591563D01*
X12559525Y-1596644D01*
X12544031Y-1596644D01*
X12533617Y-1586229D01*
X12528537Y-1570736D01*
X12528537Y-1549907D01*
X12533617Y-1534413D01*
X12544031Y-1524000D01*
X12637503Y-1630934D02*
G01*
X12528537Y-1657095D01*
X12637503Y-1683004D02*
G01*
X12528537Y-1657095D01*
X12637503Y-1683004D02*
G01*
X12528537Y-1708912D01*
X12637503Y-1734820D02*
G01*
X12528537Y-1708912D01*
X12616675Y-1769110D02*
G01*
X12622009Y-1779523D01*
X12637503Y-1795271D01*
X12528537Y-1795271D01*
X12637503Y-1860550D02*
G01*
X12632423Y-1845055D01*
X12616675Y-1834642D01*
X12590767Y-1829562D01*
X12575273Y-1829562D01*
X12549111Y-1834642D01*
X12533617Y-1845055D01*
X12528537Y-1860550D01*
X12528537Y-1870963D01*
X12533617Y-1886712D01*
X12549111Y-1897126D01*
X12575273Y-1902205D01*
X12590767Y-1902205D01*
X12616675Y-1897126D01*
X12632423Y-1886712D01*
X12637503Y-1870963D01*
X12637503Y-1860550D01*
X13892009Y689355D02*
G01*
X13902423Y699770D01*
X13907503Y715263D01*
X13907503Y736092D01*
X13902423Y751586D01*
X13892009Y762000D01*
X13881595Y762000D01*
X13871181Y756920D01*
X13865847Y751586D01*
X13860767Y741171D01*
X13850353Y709929D01*
X13845273Y699770D01*
X13839939Y694436D01*
X13829525Y689355D01*
X13814031Y689355D01*
X13803617Y699770D01*
X13798537Y715263D01*
X13798537Y736092D01*
X13803617Y751586D01*
X13814031Y762000D01*
X13907503Y655065D02*
G01*
X13798537Y628904D01*
X13907503Y602995D02*
G01*
X13798537Y628904D01*
X13907503Y602995D02*
G01*
X13798537Y577087D01*
X13907503Y551179D02*
G01*
X13798537Y577087D01*
X13886675Y516889D02*
G01*
X13892009Y506476D01*
X13907503Y490728D01*
X13798537Y490728D01*
X13886675Y456437D02*
G01*
X13892009Y446023D01*
X13907503Y430529D01*
X13798537Y430529D01*
X15162009Y-1596644D02*
G01*
X15172423Y-1586229D01*
X15177503Y-1570736D01*
X15177503Y-1549907D01*
X15172423Y-1534413D01*
X15162009Y-1524000D01*
X15151595Y-1524000D01*
X15141181Y-1529079D01*
X15135847Y-1534413D01*
X15130767Y-1544828D01*
X15120353Y-1576070D01*
X15115273Y-1586229D01*
X15109939Y-1591563D01*
X15099525Y-1596644D01*
X15084031Y-1596644D01*
X15073617Y-1586229D01*
X15068537Y-1570736D01*
X15068537Y-1549907D01*
X15073617Y-1534413D01*
X15084031Y-1524000D01*
X15177503Y-1630934D02*
G01*
X15068537Y-1657095D01*
X15177503Y-1683004D02*
G01*
X15068537Y-1657095D01*
X15177503Y-1683004D02*
G01*
X15068537Y-1708912D01*
X15177503Y-1734820D02*
G01*
X15068537Y-1708912D01*
X15156675Y-1769110D02*
G01*
X15162009Y-1779523D01*
X15177503Y-1795271D01*
X15068537Y-1795271D01*
X15151595Y-1834642D02*
G01*
X15156675Y-1834642D01*
X15167089Y-1839976D01*
X15172423Y-1845055D01*
X15177503Y-1855470D01*
X15177503Y-1876297D01*
X15172423Y-1886712D01*
X15167089Y-1891792D01*
X15156675Y-1897126D01*
X15146261Y-1897126D01*
X15135847Y-1891792D01*
X15120353Y-1881378D01*
X15068537Y-1829562D01*
X15068537Y-1902205D01*
X16432009Y-1596644D02*
G01*
X16442423Y-1586229D01*
X16447503Y-1570736D01*
X16447503Y-1549907D01*
X16442423Y-1534413D01*
X16432009Y-1524000D01*
X16421595Y-1524000D01*
X16411181Y-1529079D01*
X16405847Y-1534413D01*
X16400767Y-1544828D01*
X16390353Y-1576070D01*
X16385273Y-1586229D01*
X16379939Y-1591563D01*
X16369525Y-1596644D01*
X16354031Y-1596644D01*
X16343617Y-1586229D01*
X16338537Y-1570736D01*
X16338537Y-1549907D01*
X16343617Y-1534413D01*
X16354031Y-1524000D01*
X16447503Y-1630934D02*
G01*
X16338537Y-1657095D01*
X16447503Y-1683004D02*
G01*
X16338537Y-1657095D01*
X16447503Y-1683004D02*
G01*
X16338537Y-1708912D01*
X16447503Y-1734820D02*
G01*
X16338537Y-1708912D01*
X16426675Y-1769110D02*
G01*
X16432009Y-1779523D01*
X16447503Y-1795271D01*
X16338537Y-1795271D01*
X16447503Y-1839976D02*
G01*
X16447503Y-1897126D01*
X16405847Y-1865884D01*
X16405847Y-1881378D01*
X16400767Y-1891792D01*
X16395687Y-1897126D01*
X16379939Y-1902205D01*
X16369525Y-1902205D01*
X16354031Y-1897126D01*
X16343617Y-1886712D01*
X16338537Y-1870963D01*
X16338537Y-1855470D01*
X16343617Y-1839976D01*
X16348697Y-1834642D01*
X16359111Y-1829562D01*
X17702009Y689355D02*
G01*
X17712423Y699770D01*
X17717503Y715263D01*
X17717503Y736092D01*
X17712423Y751586D01*
X17702009Y762000D01*
X17691595Y762000D01*
X17681181Y756920D01*
X17675847Y751586D01*
X17670767Y741171D01*
X17660353Y709929D01*
X17655273Y699770D01*
X17649939Y694436D01*
X17639525Y689355D01*
X17624031Y689355D01*
X17613617Y699770D01*
X17608537Y715263D01*
X17608537Y736092D01*
X17613617Y751586D01*
X17624031Y762000D01*
X17717503Y655065D02*
G01*
X17608537Y628904D01*
X17717503Y602995D02*
G01*
X17608537Y628904D01*
X17717503Y602995D02*
G01*
X17608537Y577087D01*
X17717503Y551179D02*
G01*
X17608537Y577087D01*
X17696675Y516889D02*
G01*
X17702009Y506476D01*
X17717503Y490728D01*
X17608537Y490728D01*
X17717503Y404621D02*
G01*
X17644859Y456437D01*
X17644859Y378460D01*
X17717503Y404621D02*
G01*
X17608537Y404621D01*
X18972009Y-1596644D02*
G01*
X18982423Y-1586229D01*
X18987503Y-1570736D01*
X18987503Y-1549907D01*
X18982423Y-1534413D01*
X18972009Y-1524000D01*
X18961595Y-1524000D01*
X18951181Y-1529079D01*
X18945847Y-1534413D01*
X18940767Y-1544828D01*
X18930353Y-1576070D01*
X18925273Y-1586229D01*
X18919939Y-1591563D01*
X18909525Y-1596644D01*
X18894031Y-1596644D01*
X18883617Y-1586229D01*
X18878537Y-1570736D01*
X18878537Y-1549907D01*
X18883617Y-1534413D01*
X18894031Y-1524000D01*
X18987503Y-1630934D02*
G01*
X18878537Y-1657095D01*
X18987503Y-1683004D02*
G01*
X18878537Y-1657095D01*
X18987503Y-1683004D02*
G01*
X18878537Y-1708912D01*
X18987503Y-1734820D02*
G01*
X18878537Y-1708912D01*
X18966675Y-1769110D02*
G01*
X18972009Y-1779523D01*
X18987503Y-1795271D01*
X18878537Y-1795271D01*
X18987503Y-1891792D02*
G01*
X18987503Y-1839976D01*
X18940767Y-1834642D01*
X18945847Y-1839976D01*
X18951181Y-1855470D01*
X18951181Y-1870963D01*
X18945847Y-1886712D01*
X18935687Y-1897126D01*
X18919939Y-1902205D01*
X18909525Y-1902205D01*
X18894031Y-1897126D01*
X18883617Y-1886712D01*
X18878537Y-1870963D01*
X18878537Y-1855470D01*
X18883617Y-1839976D01*
X18888697Y-1834642D01*
X18899111Y-1829562D01*
X20242009Y689355D02*
G01*
X20252423Y699770D01*
X20257503Y715263D01*
X20257503Y736092D01*
X20252423Y751586D01*
X20242009Y762000D01*
X20231595Y762000D01*
X20221181Y756920D01*
X20215847Y751586D01*
X20210767Y741171D01*
X20200353Y709929D01*
X20195273Y699770D01*
X20189939Y694436D01*
X20179525Y689355D01*
X20164031Y689355D01*
X20153617Y699770D01*
X20148537Y715263D01*
X20148537Y736092D01*
X20153617Y751586D01*
X20164031Y762000D01*
X20257503Y655065D02*
G01*
X20148537Y628904D01*
X20257503Y602995D02*
G01*
X20148537Y628904D01*
X20257503Y602995D02*
G01*
X20148537Y577087D01*
X20257503Y551179D02*
G01*
X20148537Y577087D01*
X20236675Y516889D02*
G01*
X20242009Y506476D01*
X20257503Y490728D01*
X20148537Y490728D01*
X20242009Y394207D02*
G01*
X20252423Y399287D01*
X20257503Y415036D01*
X20257503Y425450D01*
X20252423Y440944D01*
X20236675Y451357D01*
X20210767Y456437D01*
X20184859Y456437D01*
X20164031Y451357D01*
X20153617Y440944D01*
X20148537Y425450D01*
X20148537Y420115D01*
X20153617Y404621D01*
X20164031Y394207D01*
X20179525Y388873D01*
X20184859Y388873D01*
X20200353Y394207D01*
X20210767Y404621D01*
X20215847Y420115D01*
X20215847Y425450D01*
X20210767Y440944D01*
X20200353Y451357D01*
X20184859Y456437D01*
X21512009Y-1596644D02*
G01*
X21522423Y-1586229D01*
X21527503Y-1570736D01*
X21527503Y-1549907D01*
X21522423Y-1534413D01*
X21512009Y-1524000D01*
X21501595Y-1524000D01*
X21491181Y-1529079D01*
X21485847Y-1534413D01*
X21480767Y-1544828D01*
X21470353Y-1576070D01*
X21465273Y-1586229D01*
X21459939Y-1591563D01*
X21449525Y-1596644D01*
X21434031Y-1596644D01*
X21423617Y-1586229D01*
X21418537Y-1570736D01*
X21418537Y-1549907D01*
X21423617Y-1534413D01*
X21434031Y-1524000D01*
X21527503Y-1630934D02*
G01*
X21418537Y-1657095D01*
X21527503Y-1683004D02*
G01*
X21418537Y-1657095D01*
X21527503Y-1683004D02*
G01*
X21418537Y-1708912D01*
X21527503Y-1734820D02*
G01*
X21418537Y-1708912D01*
X21506675Y-1769110D02*
G01*
X21512009Y-1779523D01*
X21527503Y-1795271D01*
X21418537Y-1795271D01*
X21527503Y-1902205D02*
G01*
X21418537Y-1850389D01*
X21527503Y-1829562D02*
G01*
X21527503Y-1902205D01*
X22782009Y-1596644D02*
G01*
X22792423Y-1586229D01*
X22797503Y-1570736D01*
X22797503Y-1549907D01*
X22792423Y-1534413D01*
X22782009Y-1524000D01*
X22771595Y-1524000D01*
X22761181Y-1529079D01*
X22755847Y-1534413D01*
X22750767Y-1544828D01*
X22740353Y-1576070D01*
X22735273Y-1586229D01*
X22729939Y-1591563D01*
X22719525Y-1596644D01*
X22704031Y-1596644D01*
X22693617Y-1586229D01*
X22688537Y-1570736D01*
X22688537Y-1549907D01*
X22693617Y-1534413D01*
X22704031Y-1524000D01*
X22797503Y-1630934D02*
G01*
X22688537Y-1657095D01*
X22797503Y-1683004D02*
G01*
X22688537Y-1657095D01*
X22797503Y-1683004D02*
G01*
X22688537Y-1708912D01*
X22797503Y-1734820D02*
G01*
X22688537Y-1708912D01*
X22776675Y-1769110D02*
G01*
X22782009Y-1779523D01*
X22797503Y-1795271D01*
X22688537Y-1795271D01*
X22797503Y-1855470D02*
G01*
X22792423Y-1839976D01*
X22782009Y-1834642D01*
X22771595Y-1834642D01*
X22761181Y-1839976D01*
X22755847Y-1850389D01*
X22750767Y-1870963D01*
X22745687Y-1886712D01*
X22735273Y-1897126D01*
X22724859Y-1902205D01*
X22709111Y-1902205D01*
X22698697Y-1897126D01*
X22693617Y-1891792D01*
X22688537Y-1876297D01*
X22688537Y-1855470D01*
X22693617Y-1839976D01*
X22698697Y-1834642D01*
X22709111Y-1829562D01*
X22724859Y-1829562D01*
X22735273Y-1834642D01*
X22745687Y-1845055D01*
X22750767Y-1860550D01*
X22755847Y-1881378D01*
X22761181Y-1891792D01*
X22771595Y-1897126D01*
X22782009Y-1897126D01*
X22792423Y-1891792D01*
X22797503Y-1876297D01*
X22797503Y-1855470D01*
X24052009Y689355D02*
G01*
X24062423Y699770D01*
X24067503Y715263D01*
X24067503Y736092D01*
X24062423Y751586D01*
X24052009Y762000D01*
X24041595Y762000D01*
X24031181Y756920D01*
X24025847Y751586D01*
X24020767Y741171D01*
X24010353Y709929D01*
X24005273Y699770D01*
X23999939Y694436D01*
X23989525Y689355D01*
X23974031Y689355D01*
X23963617Y699770D01*
X23958537Y715263D01*
X23958537Y736092D01*
X23963617Y751586D01*
X23974031Y762000D01*
X24067503Y655065D02*
G01*
X23958537Y628904D01*
X24067503Y602995D02*
G01*
X23958537Y628904D01*
X24067503Y602995D02*
G01*
X23958537Y577087D01*
X24067503Y551179D02*
G01*
X23958537Y577087D01*
X24046675Y516889D02*
G01*
X24052009Y506476D01*
X24067503Y490728D01*
X23958537Y490728D01*
X24031181Y388873D02*
G01*
X24015687Y394207D01*
X24005273Y404621D01*
X23999939Y420115D01*
X23999939Y425450D01*
X24005273Y440944D01*
X24015687Y451357D01*
X24031181Y456437D01*
X24036261Y456437D01*
X24052009Y451357D01*
X24062423Y440944D01*
X24067503Y425450D01*
X24067503Y420115D01*
X24062423Y404621D01*
X24052009Y394207D01*
X24031181Y388873D01*
X24005273Y388873D01*
X23979111Y394207D01*
X23963617Y404621D01*
X23958537Y420115D01*
X23958537Y430529D01*
X23963617Y446023D01*
X23974031Y451357D01*
X25322009Y-1596644D02*
G01*
X25332423Y-1586229D01*
X25337503Y-1570736D01*
X25337503Y-1549907D01*
X25332423Y-1534413D01*
X25322009Y-1524000D01*
X25311595Y-1524000D01*
X25301181Y-1529079D01*
X25295847Y-1534413D01*
X25290767Y-1544828D01*
X25280353Y-1576070D01*
X25275273Y-1586229D01*
X25269939Y-1591563D01*
X25259525Y-1596644D01*
X25244031Y-1596644D01*
X25233617Y-1586229D01*
X25228537Y-1570736D01*
X25228537Y-1549907D01*
X25233617Y-1534413D01*
X25244031Y-1524000D01*
X25337503Y-1630934D02*
G01*
X25228537Y-1657095D01*
X25337503Y-1683004D02*
G01*
X25228537Y-1657095D01*
X25337503Y-1683004D02*
G01*
X25228537Y-1708912D01*
X25337503Y-1734820D02*
G01*
X25228537Y-1708912D01*
X25311595Y-1774444D02*
G01*
X25316675Y-1774444D01*
X25327089Y-1779523D01*
X25332423Y-1784857D01*
X25337503Y-1795271D01*
X25337503Y-1816100D01*
X25332423Y-1826260D01*
X25327089Y-1831594D01*
X25316675Y-1836673D01*
X25306261Y-1836673D01*
X25295847Y-1831594D01*
X25280353Y-1821179D01*
X25228537Y-1769110D01*
X25228537Y-1842007D01*
X25337503Y-1907539D02*
G01*
X25332423Y-1891792D01*
X25316675Y-1881378D01*
X25290767Y-1876297D01*
X25275273Y-1876297D01*
X25249111Y-1881378D01*
X25233617Y-1891792D01*
X25228537Y-1907539D01*
X25228537Y-1917700D01*
X25233617Y-1933447D01*
X25249111Y-1943862D01*
X25275273Y-1948942D01*
X25290767Y-1948942D01*
X25316675Y-1943862D01*
X25332423Y-1933447D01*
X25337503Y-1917700D01*
X25337503Y-1907539D01*
X26592009Y689355D02*
G01*
X26602423Y699770D01*
X26607503Y715263D01*
X26607503Y736092D01*
X26602423Y751586D01*
X26592009Y762000D01*
X26581595Y762000D01*
X26571181Y756920D01*
X26565847Y751586D01*
X26560767Y741171D01*
X26550353Y709929D01*
X26545273Y699770D01*
X26539939Y694436D01*
X26529525Y689355D01*
X26514031Y689355D01*
X26503617Y699770D01*
X26498537Y715263D01*
X26498537Y736092D01*
X26503617Y751586D01*
X26514031Y762000D01*
X26607503Y655065D02*
G01*
X26498537Y628904D01*
X26607503Y602995D02*
G01*
X26498537Y628904D01*
X26607503Y602995D02*
G01*
X26498537Y577087D01*
X26607503Y551179D02*
G01*
X26498537Y577087D01*
X26581595Y511555D02*
G01*
X26586675Y511555D01*
X26597089Y506476D01*
X26602423Y501142D01*
X26607503Y490728D01*
X26607503Y469900D01*
X26602423Y459739D01*
X26597089Y454405D01*
X26586675Y449326D01*
X26576261Y449326D01*
X26565847Y454405D01*
X26550353Y464820D01*
X26498537Y516889D01*
X26498537Y443992D01*
X26586675Y409702D02*
G01*
X26592009Y399287D01*
X26607503Y383794D01*
X26498537Y383794D01*
X27862009Y-1596644D02*
G01*
X27872423Y-1586229D01*
X27877503Y-1570736D01*
X27877503Y-1549907D01*
X27872423Y-1534413D01*
X27862009Y-1524000D01*
X27851595Y-1524000D01*
X27841181Y-1529079D01*
X27835847Y-1534413D01*
X27830767Y-1544828D01*
X27820353Y-1576070D01*
X27815273Y-1586229D01*
X27809939Y-1591563D01*
X27799525Y-1596644D01*
X27784031Y-1596644D01*
X27773617Y-1586229D01*
X27768537Y-1570736D01*
X27768537Y-1549907D01*
X27773617Y-1534413D01*
X27784031Y-1524000D01*
X27877503Y-1630934D02*
G01*
X27768537Y-1657095D01*
X27877503Y-1683004D02*
G01*
X27768537Y-1657095D01*
X27877503Y-1683004D02*
G01*
X27768537Y-1708912D01*
X27877503Y-1734820D02*
G01*
X27768537Y-1708912D01*
X27851595Y-1774444D02*
G01*
X27856675Y-1774444D01*
X27867089Y-1779523D01*
X27872423Y-1784857D01*
X27877503Y-1795271D01*
X27877503Y-1816100D01*
X27872423Y-1826260D01*
X27867089Y-1831594D01*
X27856675Y-1836673D01*
X27846261Y-1836673D01*
X27835847Y-1831594D01*
X27820353Y-1821179D01*
X27768537Y-1769110D01*
X27768537Y-1842007D01*
X27851595Y-1881378D02*
G01*
X27856675Y-1881378D01*
X27867089Y-1886712D01*
X27872423Y-1891792D01*
X27877503Y-1902205D01*
X27877503Y-1923034D01*
X27872423Y-1933447D01*
X27867089Y-1938528D01*
X27856675Y-1943862D01*
X27846261Y-1943862D01*
X27835847Y-1938528D01*
X27820353Y-1928113D01*
X27768537Y-1876297D01*
X27768537Y-1948942D01*
X29132009Y689355D02*
G01*
X29142423Y699770D01*
X29147503Y715263D01*
X29147503Y736092D01*
X29142423Y751586D01*
X29132009Y762000D01*
X29121595Y762000D01*
X29111181Y756920D01*
X29105847Y751586D01*
X29100767Y741171D01*
X29090353Y709929D01*
X29085273Y699770D01*
X29079939Y694436D01*
X29069525Y689355D01*
X29054031Y689355D01*
X29043617Y699770D01*
X29038537Y715263D01*
X29038537Y736092D01*
X29043617Y751586D01*
X29054031Y762000D01*
X29147503Y655065D02*
G01*
X29038537Y628904D01*
X29147503Y602995D02*
G01*
X29038537Y628904D01*
X29147503Y602995D02*
G01*
X29038537Y577087D01*
X29147503Y551179D02*
G01*
X29038537Y577087D01*
X29121595Y511555D02*
G01*
X29126675Y511555D01*
X29137089Y506476D01*
X29142423Y501142D01*
X29147503Y490728D01*
X29147503Y469900D01*
X29142423Y459739D01*
X29137089Y454405D01*
X29126675Y449326D01*
X29116261Y449326D01*
X29105847Y454405D01*
X29090353Y464820D01*
X29038537Y516889D01*
X29038537Y443992D01*
X29147503Y399287D02*
G01*
X29147503Y342137D01*
X29105847Y373379D01*
X29105847Y357886D01*
X29100767Y347471D01*
X29095687Y342137D01*
X29079939Y337057D01*
X29069525Y337057D01*
X29054031Y342137D01*
X29043617Y352552D01*
X29038537Y368300D01*
X29038537Y383794D01*
X29043617Y399287D01*
X29048697Y404621D01*
X29059111Y409702D01*
X30402009Y-1596644D02*
G01*
X30412423Y-1586229D01*
X30417503Y-1570736D01*
X30417503Y-1549907D01*
X30412423Y-1534413D01*
X30402009Y-1524000D01*
X30391595Y-1524000D01*
X30381181Y-1529079D01*
X30375847Y-1534413D01*
X30370767Y-1544828D01*
X30360353Y-1576070D01*
X30355273Y-1586229D01*
X30349939Y-1591563D01*
X30339525Y-1596644D01*
X30324031Y-1596644D01*
X30313617Y-1586229D01*
X30308537Y-1570736D01*
X30308537Y-1549907D01*
X30313617Y-1534413D01*
X30324031Y-1524000D01*
X30417503Y-1630934D02*
G01*
X30308537Y-1657095D01*
X30417503Y-1683004D02*
G01*
X30308537Y-1657095D01*
X30417503Y-1683004D02*
G01*
X30308537Y-1708912D01*
X30417503Y-1734820D02*
G01*
X30308537Y-1708912D01*
X30391595Y-1774444D02*
G01*
X30396675Y-1774444D01*
X30407089Y-1779523D01*
X30412423Y-1784857D01*
X30417503Y-1795271D01*
X30417503Y-1816100D01*
X30412423Y-1826260D01*
X30407089Y-1831594D01*
X30396675Y-1836673D01*
X30386261Y-1836673D01*
X30375847Y-1831594D01*
X30360353Y-1821179D01*
X30308537Y-1769110D01*
X30308537Y-1842007D01*
X30417503Y-1928113D02*
G01*
X30344859Y-1876297D01*
X30344859Y-1954276D01*
X30417503Y-1928113D02*
G01*
X30308537Y-1928113D01*
X1192009Y-1596669D02*
G01*
X1202423Y-1586255D01*
X1207503Y-1570761D01*
X1207503Y-1549933D01*
X1202423Y-1534439D01*
X1192009Y-1524025D01*
X1181595Y-1524025D01*
X1171181Y-1529105D01*
X1165847Y-1534439D01*
X1160767Y-1544853D01*
X1150353Y-1575841D01*
X1145273Y-1586255D01*
X1139939Y-1591589D01*
X1129525Y-1596669D01*
X1114031Y-1596669D01*
X1103617Y-1586255D01*
X1098537Y-1570761D01*
X1098537Y-1549933D01*
X1103617Y-1534439D01*
X1114031Y-1524025D01*
X1207503Y-1630959D02*
G01*
X1098537Y-1657121D01*
X1207503Y-1683029D02*
G01*
X1098537Y-1657121D01*
X1207503Y-1683029D02*
G01*
X1098537Y-1708937D01*
X1207503Y-1734845D02*
G01*
X1098537Y-1708937D01*
X1186675Y-1769135D02*
G01*
X1192009Y-1779549D01*
X1207503Y-1795297D01*
X1098537Y-1795297D01*
X2462009Y689355D02*
G01*
X2472423Y699770D01*
X2477503Y715263D01*
X2477503Y736092D01*
X2472423Y751586D01*
X2462009Y762000D01*
X2451595Y762000D01*
X2441181Y756920D01*
X2435847Y751586D01*
X2430767Y741171D01*
X2420353Y709929D01*
X2415273Y699770D01*
X2409939Y694436D01*
X2399525Y689355D01*
X2384031Y689355D01*
X2373617Y699770D01*
X2368283Y715263D01*
X2368283Y736092D01*
X2373617Y751586D01*
X2384031Y762000D01*
X2477503Y655065D02*
G01*
X2368283Y628904D01*
X2477503Y602995D02*
G01*
X2368283Y628904D01*
X2477503Y602995D02*
G01*
X2368283Y577087D01*
X2477503Y551179D02*
G01*
X2368283Y577087D01*
X2451595Y511555D02*
G01*
X2456675Y511555D01*
X2467089Y506476D01*
X2472423Y501142D01*
X2477503Y490728D01*
X2477503Y469900D01*
X2472423Y459739D01*
X2467089Y454405D01*
X2456675Y449326D01*
X2446261Y449326D01*
X2435847Y454405D01*
X2420353Y464820D01*
X2368283Y516889D01*
X2368283Y443992D01*
X3732009Y-1596644D02*
G01*
X3742423Y-1586229D01*
X3747503Y-1570736D01*
X3747503Y-1549907D01*
X3742423Y-1534413D01*
X3732009Y-1524000D01*
X3721595Y-1524000D01*
X3711181Y-1529079D01*
X3705847Y-1534413D01*
X3700767Y-1544828D01*
X3690353Y-1576070D01*
X3685273Y-1586229D01*
X3679939Y-1591563D01*
X3669525Y-1596644D01*
X3654031Y-1596644D01*
X3643617Y-1586229D01*
X3638283Y-1570736D01*
X3638283Y-1549907D01*
X3643617Y-1534413D01*
X3654031Y-1524000D01*
X3747503Y-1630934D02*
G01*
X3638283Y-1657095D01*
X3747503Y-1683004D02*
G01*
X3638283Y-1657095D01*
X3747503Y-1683004D02*
G01*
X3638283Y-1708912D01*
X3747503Y-1734820D02*
G01*
X3638283Y-1708912D01*
X3747503Y-1779523D02*
G01*
X3747503Y-1836673D01*
X3705847Y-1805686D01*
X3705847Y-1821179D01*
X3700767Y-1831594D01*
X3695433Y-1836673D01*
X3679939Y-1842007D01*
X3669525Y-1842007D01*
X3654031Y-1836673D01*
X3643617Y-1826260D01*
X3638283Y-1810765D01*
X3638283Y-1795271D01*
X3643617Y-1779523D01*
X3648697Y-1774444D01*
X3659111Y-1769110D01*
X5002009Y689355D02*
G01*
X5012423Y699770D01*
X5017503Y715263D01*
X5017503Y736092D01*
X5012423Y751586D01*
X5002009Y762000D01*
X4991595Y762000D01*
X4981181Y756920D01*
X4975847Y751586D01*
X4970767Y741171D01*
X4960353Y709929D01*
X4955273Y699770D01*
X4949939Y694436D01*
X4939525Y689355D01*
X4924031Y689355D01*
X4913617Y699770D01*
X4908283Y715263D01*
X4908283Y736092D01*
X4913617Y751586D01*
X4924031Y762000D01*
X5017503Y655065D02*
G01*
X4908283Y628904D01*
X5017503Y602995D02*
G01*
X4908283Y628904D01*
X5017503Y602995D02*
G01*
X4908283Y577087D01*
X5017503Y551179D02*
G01*
X4908283Y577087D01*
X5017503Y464820D02*
G01*
X4944859Y516889D01*
X4944859Y438912D01*
X5017503Y464820D02*
G01*
X4908283Y464820D01*
X6272009Y-1596644D02*
G01*
X6282423Y-1586229D01*
X6287503Y-1570736D01*
X6287503Y-1549907D01*
X6282423Y-1534413D01*
X6272009Y-1524000D01*
X6261595Y-1524000D01*
X6251181Y-1529079D01*
X6245847Y-1534413D01*
X6240767Y-1544828D01*
X6230353Y-1576070D01*
X6225273Y-1586229D01*
X6219939Y-1591563D01*
X6209525Y-1596644D01*
X6194031Y-1596644D01*
X6183617Y-1586229D01*
X6178283Y-1570736D01*
X6178283Y-1549907D01*
X6183617Y-1534413D01*
X6194031Y-1524000D01*
X6287503Y-1630934D02*
G01*
X6178283Y-1657095D01*
X6287503Y-1683004D02*
G01*
X6178283Y-1657095D01*
X6287503Y-1683004D02*
G01*
X6178283Y-1708912D01*
X6287503Y-1734820D02*
G01*
X6178283Y-1708912D01*
X6287503Y-1831594D02*
G01*
X6287503Y-1779523D01*
X6240767Y-1774444D01*
X6245847Y-1779523D01*
X6251181Y-1795271D01*
X6251181Y-1810765D01*
X6245847Y-1826260D01*
X6235433Y-1836673D01*
X6219939Y-1842007D01*
X6209525Y-1842007D01*
X6194031Y-1836673D01*
X6183617Y-1826260D01*
X6178283Y-1810765D01*
X6178283Y-1795271D01*
X6183617Y-1779523D01*
X6188697Y-1774444D01*
X6199111Y-1769110D01*
X7542009Y-1596644D02*
G01*
X7552423Y-1586229D01*
X7557503Y-1570736D01*
X7557503Y-1549907D01*
X7552423Y-1534413D01*
X7542009Y-1524000D01*
X7531595Y-1524000D01*
X7521181Y-1529079D01*
X7515847Y-1534413D01*
X7510767Y-1544828D01*
X7500353Y-1576070D01*
X7495273Y-1586229D01*
X7489939Y-1591563D01*
X7479525Y-1596644D01*
X7464031Y-1596644D01*
X7453617Y-1586229D01*
X7448283Y-1570736D01*
X7448283Y-1549907D01*
X7453617Y-1534413D01*
X7464031Y-1524000D01*
X7557503Y-1630934D02*
G01*
X7448283Y-1657095D01*
X7557503Y-1683004D02*
G01*
X7448283Y-1657095D01*
X7557503Y-1683004D02*
G01*
X7448283Y-1708912D01*
X7557503Y-1734820D02*
G01*
X7448283Y-1708912D01*
X7542009Y-1831594D02*
G01*
X7552423Y-1826260D01*
X7557503Y-1810765D01*
X7557503Y-1800352D01*
X7552423Y-1784857D01*
X7536675Y-1774444D01*
X7510767Y-1769110D01*
X7484859Y-1769110D01*
X7464031Y-1774444D01*
X7453617Y-1784857D01*
X7448283Y-1800352D01*
X7448283Y-1805686D01*
X7453617Y-1821179D01*
X7464031Y-1831594D01*
X7479525Y-1836673D01*
X7484859Y-1836673D01*
X7500353Y-1831594D01*
X7510767Y-1821179D01*
X7515847Y-1805686D01*
X7515847Y-1800352D01*
X7510767Y-1784857D01*
X7500353Y-1774444D01*
X7484859Y-1769110D01*
X8812009Y689355D02*
G01*
X8822423Y699770D01*
X8827503Y715263D01*
X8827503Y736092D01*
X8822423Y751586D01*
X8812009Y762000D01*
X8801595Y762000D01*
X8791181Y756920D01*
X8785847Y751586D01*
X8780767Y741171D01*
X8770353Y709929D01*
X8765273Y699770D01*
X8759939Y694436D01*
X8749525Y689355D01*
X8734031Y689355D01*
X8723617Y699770D01*
X8718283Y715263D01*
X8718283Y736092D01*
X8723617Y751586D01*
X8734031Y762000D01*
X8827503Y655065D02*
G01*
X8718283Y628904D01*
X8827503Y602995D02*
G01*
X8718283Y628904D01*
X8827503Y602995D02*
G01*
X8718283Y577087D01*
X8827503Y551179D02*
G01*
X8718283Y577087D01*
X8827503Y443992D02*
G01*
X8718283Y496062D01*
X8827503Y516889D02*
G01*
X8827503Y443992D01*
X23240491Y4535678D02*
G01*
X23230077Y4530344D01*
X23219663Y4519929D01*
X23214584Y4509770D01*
X23214584Y4488942D01*
X23219663Y4478528D01*
X23230077Y4468113D01*
X23240491Y4462779D01*
X23256240Y4457700D01*
X23282148Y4457700D01*
X23297641Y4462779D01*
X23308056Y4468113D01*
X23318470Y4478528D01*
X23323550Y4488942D01*
X23323550Y4509770D01*
X23318470Y4519929D01*
X23308056Y4530344D01*
X23297641Y4535678D01*
X23230077Y4632197D02*
G01*
X23219663Y4627118D01*
X23214584Y4611370D01*
X23214584Y4601210D01*
X23219663Y4585462D01*
X23235411Y4575047D01*
X23261320Y4569968D01*
X23287227Y4569968D01*
X23308056Y4575047D01*
X23318470Y4585462D01*
X23323550Y4601210D01*
X23323550Y4606289D01*
X23318470Y4621784D01*
X23308056Y4632197D01*
X23292561Y4637531D01*
X23287227Y4637531D01*
X23271734Y4632197D01*
X23261320Y4621784D01*
X23256240Y4606289D01*
X23256240Y4601210D01*
X23261320Y4585462D01*
X23271734Y4575047D01*
X23287227Y4569968D01*
X7862163Y5191937D02*
G01*
X7862163Y5113959D01*
X7867243Y5098465D01*
X7877657Y5088051D01*
X7893405Y5082971D01*
X7903819Y5082971D01*
X7919313Y5088051D01*
X7929727Y5098465D01*
X7934807Y5113959D01*
X7934807Y5191937D01*
X7969097Y5171109D02*
G01*
X7979511Y5176443D01*
X7995259Y5191937D01*
X7995259Y5082971D01*
X16091763Y5204637D02*
G01*
X16091763Y5126659D01*
X16096843Y5111165D01*
X16107257Y5100751D01*
X16123005Y5095671D01*
X16133419Y5095671D01*
X16148913Y5100751D01*
X16159327Y5111165D01*
X16164407Y5126659D01*
X16164407Y5204637D01*
X16204031Y5178729D02*
G01*
X16204031Y5183809D01*
X16209111Y5194223D01*
X16214445Y5199557D01*
X16224859Y5204637D01*
X16245433Y5204637D01*
X16255847Y5199557D01*
X16261181Y5194223D01*
X16266261Y5183809D01*
X16266261Y5173395D01*
X16261181Y5162981D01*
X16250767Y5147487D01*
X16198697Y5095671D01*
X16271595Y5095671D01*
X25172263Y5064937D02*
G01*
X25172263Y4986959D01*
X25177343Y4971465D01*
X25187757Y4961051D01*
X25203505Y4955971D01*
X25213919Y4955971D01*
X25229413Y4961051D01*
X25239827Y4971465D01*
X25244907Y4986959D01*
X25244907Y5064937D01*
X25289611Y5064937D02*
G01*
X25346761Y5064937D01*
X25315773Y5023281D01*
X25331267Y5023281D01*
X25341681Y5018201D01*
X25346761Y5013121D01*
X25352095Y4997373D01*
X25352095Y4986959D01*
X25346761Y4971465D01*
X25336347Y4961051D01*
X25320853Y4955971D01*
X25305359Y4955971D01*
X25289611Y4961051D01*
X25284531Y4966131D01*
X25279197Y4976545D01*
X17411700Y6274815D02*
G01*
X17411700Y6165850D01*
X17411700Y6274815D02*
G01*
X17458436Y6274815D01*
X17473929Y6269736D01*
X17479263Y6264402D01*
X17484343Y6253987D01*
X17484343Y6243573D01*
X17479263Y6233160D01*
X17473929Y6228079D01*
X17458436Y6223000D01*
X17411700Y6223000D02*
G01*
X17458436Y6223000D01*
X17473929Y6217665D01*
X17479263Y6212586D01*
X17484343Y6202171D01*
X17484343Y6186423D01*
X17479263Y6176010D01*
X17473929Y6170929D01*
X17458436Y6165850D01*
X17411700Y6165850D01*
X17518634Y6253987D02*
G01*
X17529048Y6259321D01*
X17544795Y6274815D01*
X17544795Y6165850D01*
X17579086Y6129273D02*
G01*
X17672558Y6129273D01*
X17784825Y6248907D02*
G01*
X17779491Y6259321D01*
X17769077Y6269736D01*
X17758663Y6274815D01*
X17738090Y6274815D01*
X17727675Y6269736D01*
X17717261Y6259321D01*
X17711927Y6248907D01*
X17706848Y6233160D01*
X17706848Y6207252D01*
X17711927Y6191757D01*
X17717261Y6181344D01*
X17727675Y6170929D01*
X17738090Y6165850D01*
X17758663Y6165850D01*
X17769077Y6170929D01*
X17779491Y6181344D01*
X17784825Y6191757D01*
X17819116Y6274815D02*
G01*
X17819116Y6165850D01*
X17819116Y6165850D02*
G01*
X17881345Y6165850D01*
X17915636Y6274815D02*
G01*
X17915636Y6165850D01*
X17988279Y6274815D02*
G01*
X17915636Y6202171D01*
X17941543Y6228079D02*
G01*
X17988279Y6165850D01*
X11823700Y6274815D02*
G01*
X11823700Y6165850D01*
X11823700Y6274815D02*
G01*
X11870436Y6274815D01*
X11885929Y6269736D01*
X11891263Y6264402D01*
X11896343Y6253987D01*
X11896343Y6243573D01*
X11891263Y6233160D01*
X11885929Y6228079D01*
X11870436Y6223000D01*
X11823700Y6223000D02*
G01*
X11870436Y6223000D01*
X11885929Y6217665D01*
X11891263Y6212586D01*
X11896343Y6202171D01*
X11896343Y6186423D01*
X11891263Y6176010D01*
X11885929Y6170929D01*
X11870436Y6165850D01*
X11823700Y6165850D01*
X11935968Y6248907D02*
G01*
X11935968Y6253987D01*
X11941047Y6264402D01*
X11946381Y6269736D01*
X11956795Y6274815D01*
X11977370Y6274815D01*
X11987784Y6269736D01*
X11993118Y6264402D01*
X11998197Y6253987D01*
X11998197Y6243573D01*
X11993118Y6233160D01*
X11982704Y6217665D01*
X11930634Y6165850D01*
X12003531Y6165850D01*
X12037822Y6129273D02*
G01*
X12131293Y6129273D01*
X12238227Y6259321D02*
G01*
X12227813Y6269736D01*
X12212320Y6274815D01*
X12191491Y6274815D01*
X12175997Y6269736D01*
X12165584Y6259321D01*
X12165584Y6248907D01*
X12170663Y6238494D01*
X12175997Y6233160D01*
X12186411Y6228079D01*
X12217400Y6217665D01*
X12227813Y6212586D01*
X12233147Y6207252D01*
X12238227Y6196837D01*
X12238227Y6181344D01*
X12227813Y6170929D01*
X12212320Y6165850D01*
X12191491Y6165850D01*
X12175997Y6170929D01*
X12165584Y6181344D01*
X12272518Y6274815D02*
G01*
X12272518Y6165850D01*
X12345415Y6274815D02*
G01*
X12345415Y6165850D01*
X12272518Y6223000D02*
G01*
X12345415Y6223000D01*
X14579600Y6871715D02*
G01*
X14579600Y6762750D01*
X14652243Y6871715D02*
G01*
X14652243Y6762750D01*
X14579600Y6819900D02*
G01*
X14652243Y6819900D01*
X14686534Y6850887D02*
G01*
X14696947Y6856221D01*
X14712695Y6871715D01*
X14712695Y6762750D01*
X10400261Y2666994D02*
G01*
X10509364Y2666994D01*
X10400261Y2666994D02*
G01*
X10400261Y2713753D01*
X10405455Y2729339D01*
X10410652Y2734536D01*
X10421043Y2739730D01*
X10431434Y2739730D01*
X10441825Y2734536D01*
X10447020Y2729339D01*
X10452214Y2713753D01*
X10452214Y2666994D01*
X10452214Y2703362D02*
G01*
X10509364Y2739730D01*
X10436628Y2841561D02*
G01*
X10452214Y2836367D01*
X10462605Y2825976D01*
X10467802Y2810390D01*
X10467802Y2805193D01*
X10462605Y2789608D01*
X10452214Y2779217D01*
X10436628Y2774020D01*
X10431434Y2774020D01*
X10415846Y2779217D01*
X10405455Y2789608D01*
X10400261Y2805193D01*
X10400261Y2810390D01*
X10405455Y2825976D01*
X10415846Y2836367D01*
X10436628Y2841561D01*
X10462605Y2841561D01*
X10488584Y2836367D01*
X10504170Y2825976D01*
X10509364Y2810390D01*
X10509364Y2799999D01*
X10504170Y2784411D01*
X10493778Y2779217D01*
X11670261Y2667000D02*
G01*
X11779364Y2667000D01*
X11670261Y2667000D02*
G01*
X11670261Y2713758D01*
X11675455Y2729344D01*
X11680652Y2734541D01*
X11691043Y2739735D01*
X11701434Y2739735D01*
X11711825Y2734541D01*
X11717020Y2729344D01*
X11722214Y2713758D01*
X11722214Y2667000D01*
X11722214Y2703367D02*
G01*
X11779364Y2739735D01*
X11691043Y2774025D02*
G01*
X11685846Y2784416D01*
X11670261Y2800004D01*
X11779364Y2800004D01*
X11670261Y2865465D02*
G01*
X11675455Y2849879D01*
X11691043Y2839488D01*
X11717020Y2834294D01*
X11732605Y2834294D01*
X11758584Y2839488D01*
X11774170Y2849879D01*
X11779364Y2865465D01*
X11779364Y2875856D01*
X11774170Y2891444D01*
X11758584Y2901835D01*
X11732605Y2907029D01*
X11717020Y2907029D01*
X11691043Y2901835D01*
X11675455Y2891444D01*
X11670261Y2875856D01*
X11670261Y2865465D01*
X12940261Y2667000D02*
G01*
X13049364Y2667000D01*
X12940261Y2667000D02*
G01*
X12940261Y2713758D01*
X12945455Y2729344D01*
X12950652Y2734541D01*
X12961043Y2739735D01*
X12971434Y2739735D01*
X12981825Y2734541D01*
X12987020Y2729344D01*
X12992214Y2713758D01*
X12992214Y2667000D01*
X12992214Y2703367D02*
G01*
X13049364Y2739735D01*
X12961043Y2774025D02*
G01*
X12955846Y2784416D01*
X12940261Y2800004D01*
X13049364Y2800004D01*
X12961043Y2834294D02*
G01*
X12955846Y2844685D01*
X12940261Y2860271D01*
X13049364Y2860271D01*
X14210261Y2679694D02*
G01*
X14319364Y2679694D01*
X14210261Y2679694D02*
G01*
X14210261Y2726453D01*
X14215455Y2742039D01*
X14220652Y2747236D01*
X14231043Y2752430D01*
X14241434Y2752430D01*
X14251825Y2747236D01*
X14257020Y2742039D01*
X14262214Y2726453D01*
X14262214Y2679694D01*
X14262214Y2716062D02*
G01*
X14319364Y2752430D01*
X14231043Y2786720D02*
G01*
X14225846Y2797111D01*
X14210261Y2812699D01*
X14319364Y2812699D01*
X14236237Y2852183D02*
G01*
X14231043Y2852183D01*
X14220652Y2857380D01*
X14215455Y2862574D01*
X14210261Y2872966D01*
X14210261Y2893748D01*
X14215455Y2904139D01*
X14220652Y2909333D01*
X14231043Y2914530D01*
X14241434Y2914530D01*
X14251825Y2909333D01*
X14267411Y2898942D01*
X14319364Y2846989D01*
X14319364Y2919724D01*
X15480261Y2667000D02*
G01*
X15589364Y2667000D01*
X15480261Y2667000D02*
G01*
X15480261Y2713758D01*
X15485455Y2729344D01*
X15490652Y2734541D01*
X15501043Y2739735D01*
X15511434Y2739735D01*
X15521825Y2734541D01*
X15527020Y2729344D01*
X15532214Y2713758D01*
X15532214Y2667000D01*
X15532214Y2703367D02*
G01*
X15589364Y2739735D01*
X15501043Y2774025D02*
G01*
X15495846Y2784416D01*
X15480261Y2800004D01*
X15589364Y2800004D01*
X15480261Y2844685D02*
G01*
X15480261Y2901835D01*
X15521825Y2870662D01*
X15521825Y2886247D01*
X15527020Y2896638D01*
X15532214Y2901835D01*
X15547802Y2907029D01*
X15558193Y2907029D01*
X15573778Y2901835D01*
X15584170Y2891444D01*
X15589364Y2875856D01*
X15589364Y2860271D01*
X15584170Y2844685D01*
X15578975Y2839488D01*
X15568584Y2834294D01*
X16757525Y2675788D02*
G01*
X16866628Y2675788D01*
X16757525Y2675788D02*
G01*
X16757525Y2722547D01*
X16762719Y2738132D01*
X16767916Y2743329D01*
X16778307Y2748523D01*
X16788698Y2748523D01*
X16799090Y2743329D01*
X16804284Y2738132D01*
X16809478Y2722547D01*
X16809478Y2675788D01*
X16809478Y2712156D02*
G01*
X16866628Y2748523D01*
X16778307Y2782813D02*
G01*
X16773110Y2793204D01*
X16757525Y2808792D01*
X16866628Y2808792D01*
X16757525Y2895036D02*
G01*
X16830260Y2843082D01*
X16830260Y2921012D01*
X16757525Y2895036D02*
G01*
X16866628Y2895036D01*
X18555738Y2667005D02*
G01*
X18446635Y2667005D01*
X18555738Y2667005D02*
G01*
X18555738Y2620246D01*
X18550544Y2604660D01*
X18545347Y2599463D01*
X18534956Y2594269D01*
X18524565Y2594269D01*
X18514174Y2599463D01*
X18508979Y2604660D01*
X18503785Y2620246D01*
X18503785Y2667005D01*
X18503785Y2630637D02*
G01*
X18446635Y2594269D01*
X18534956Y2559979D02*
G01*
X18540153Y2549588D01*
X18555738Y2534000D01*
X18446635Y2534000D01*
X18555738Y2437366D02*
G01*
X18555738Y2489319D01*
X18508979Y2494516D01*
X18514174Y2489319D01*
X18519371Y2473733D01*
X18519371Y2458148D01*
X18514174Y2442560D01*
X18503785Y2432169D01*
X18488197Y2426975D01*
X18477806Y2426975D01*
X18462221Y2432169D01*
X18451829Y2442560D01*
X18446635Y2458148D01*
X18446635Y2473733D01*
X18451829Y2489319D01*
X18457024Y2494516D01*
X18467415Y2499710D01*
X19825738Y2667000D02*
G01*
X19716635Y2667000D01*
X19825738Y2667000D02*
G01*
X19825738Y2620241D01*
X19820544Y2604655D01*
X19815347Y2599458D01*
X19804956Y2594264D01*
X19794565Y2594264D01*
X19784174Y2599458D01*
X19778979Y2604655D01*
X19773785Y2620241D01*
X19773785Y2667000D01*
X19773785Y2630632D02*
G01*
X19716635Y2594264D01*
X19804956Y2559974D02*
G01*
X19810153Y2549583D01*
X19825738Y2533995D01*
X19716635Y2533995D01*
X19810153Y2437361D02*
G01*
X19820544Y2442555D01*
X19825738Y2458143D01*
X19825738Y2468534D01*
X19820544Y2484120D01*
X19804956Y2494511D01*
X19778979Y2499705D01*
X19753003Y2499705D01*
X19732221Y2494511D01*
X19721829Y2484120D01*
X19716635Y2468534D01*
X19716635Y2463337D01*
X19721829Y2447752D01*
X19732221Y2437361D01*
X19747806Y2432164D01*
X19753003Y2432164D01*
X19768588Y2437361D01*
X19778979Y2447752D01*
X19784174Y2463337D01*
X19784174Y2468534D01*
X19778979Y2484120D01*
X19768588Y2494511D01*
X19753003Y2499705D01*
X21095738Y2667000D02*
G01*
X20986635Y2667000D01*
X21095738Y2667000D02*
G01*
X21095738Y2620241D01*
X21090544Y2604655D01*
X21085347Y2599458D01*
X21074956Y2594264D01*
X21064565Y2594264D01*
X21054174Y2599458D01*
X21048979Y2604655D01*
X21043785Y2620241D01*
X21043785Y2667000D01*
X21043785Y2630632D02*
G01*
X20986635Y2594264D01*
X21074956Y2559974D02*
G01*
X21080153Y2549583D01*
X21095738Y2533995D01*
X20986635Y2533995D01*
X21095738Y2426970D02*
G01*
X20986635Y2478925D01*
X21095738Y2499705D02*
G01*
X21095738Y2426970D01*
X22365738Y2667000D02*
G01*
X22256635Y2667000D01*
X22365738Y2667000D02*
G01*
X22365738Y2620241D01*
X22360544Y2604655D01*
X22355347Y2599458D01*
X22344956Y2594264D01*
X22334565Y2594264D01*
X22324174Y2599458D01*
X22318979Y2604655D01*
X22313785Y2620241D01*
X22313785Y2667000D01*
X22313785Y2630632D02*
G01*
X22256635Y2594264D01*
X22344956Y2559974D02*
G01*
X22350153Y2549583D01*
X22365738Y2533995D01*
X22256635Y2533995D01*
X22365738Y2473728D02*
G01*
X22360544Y2489314D01*
X22350153Y2494511D01*
X22339762Y2494511D01*
X22329371Y2489314D01*
X22324174Y2478925D01*
X22318979Y2458143D01*
X22313785Y2442555D01*
X22303394Y2432164D01*
X22293003Y2426970D01*
X22277415Y2426970D01*
X22267024Y2432164D01*
X22261829Y2437361D01*
X22256635Y2452946D01*
X22256635Y2473728D01*
X22261829Y2489314D01*
X22267024Y2494511D01*
X22277415Y2499705D01*
X22293003Y2499705D01*
X22303394Y2494511D01*
X22313785Y2484120D01*
X22318979Y2468534D01*
X22324174Y2447752D01*
X22329371Y2437361D01*
X22339762Y2432164D01*
X22350153Y2432164D01*
X22360544Y2437361D01*
X22365738Y2452946D01*
X22365738Y2473728D01*
X23635738Y2667000D02*
G01*
X23526635Y2667000D01*
X23635738Y2667000D02*
G01*
X23635738Y2620241D01*
X23630544Y2604655D01*
X23625347Y2599458D01*
X23614956Y2594264D01*
X23604565Y2594264D01*
X23594174Y2599458D01*
X23588979Y2604655D01*
X23583785Y2620241D01*
X23583785Y2667000D01*
X23583785Y2630632D02*
G01*
X23526635Y2594264D01*
X23614956Y2559974D02*
G01*
X23620153Y2549583D01*
X23635738Y2533995D01*
X23526635Y2533995D01*
X23599371Y2432164D02*
G01*
X23583785Y2437361D01*
X23573394Y2447752D01*
X23568197Y2463337D01*
X23568197Y2468534D01*
X23573394Y2484120D01*
X23583785Y2494511D01*
X23599371Y2499705D01*
X23604565Y2499705D01*
X23620153Y2494511D01*
X23630544Y2484120D01*
X23635738Y2468534D01*
X23635738Y2463337D01*
X23630544Y2447752D01*
X23620153Y2437361D01*
X23599371Y2432164D01*
X23573394Y2432164D01*
X23547415Y2437361D01*
X23531829Y2447752D01*
X23526635Y2463337D01*
X23526635Y2473728D01*
X23531829Y2489314D01*
X23542221Y2494511D01*
X24905738Y2667000D02*
G01*
X24796635Y2667000D01*
X24905738Y2667000D02*
G01*
X24905738Y2620241D01*
X24900544Y2604655D01*
X24895347Y2599458D01*
X24884956Y2594264D01*
X24874565Y2594264D01*
X24864174Y2599458D01*
X24858979Y2604655D01*
X24853785Y2620241D01*
X24853785Y2667000D01*
X24853785Y2630632D02*
G01*
X24796635Y2594264D01*
X24879762Y2554777D02*
G01*
X24884956Y2554777D01*
X24895347Y2549583D01*
X24900544Y2544386D01*
X24905738Y2533995D01*
X24905738Y2513215D01*
X24900544Y2502824D01*
X24895347Y2497627D01*
X24884956Y2492433D01*
X24874565Y2492433D01*
X24864174Y2497627D01*
X24848588Y2508018D01*
X24796635Y2559974D01*
X24796635Y2487236D01*
X24905738Y2421775D02*
G01*
X24900544Y2437361D01*
X24884956Y2447752D01*
X24858979Y2452946D01*
X24843394Y2452946D01*
X24817415Y2447752D01*
X24801829Y2437361D01*
X24796635Y2421775D01*
X24796635Y2411384D01*
X24801829Y2395796D01*
X24817415Y2385405D01*
X24843394Y2380211D01*
X24858979Y2380211D01*
X24884956Y2385405D01*
X24900544Y2395796D01*
X24905738Y2411384D01*
X24905738Y2421775D01*
X26175738Y2667000D02*
G01*
X26066635Y2667000D01*
X26175738Y2667000D02*
G01*
X26175738Y2620241D01*
X26170544Y2604655D01*
X26165347Y2599458D01*
X26154956Y2594264D01*
X26144565Y2594264D01*
X26134174Y2599458D01*
X26128979Y2604655D01*
X26123785Y2620241D01*
X26123785Y2667000D01*
X26123785Y2630632D02*
G01*
X26066635Y2594264D01*
X26149762Y2554777D02*
G01*
X26154956Y2554777D01*
X26165347Y2549583D01*
X26170544Y2544386D01*
X26175738Y2533995D01*
X26175738Y2513215D01*
X26170544Y2502824D01*
X26165347Y2497627D01*
X26154956Y2492433D01*
X26144565Y2492433D01*
X26134174Y2497627D01*
X26118588Y2508018D01*
X26066635Y2559974D01*
X26066635Y2487236D01*
X26154956Y2452946D02*
G01*
X26160153Y2442555D01*
X26175738Y2426970D01*
X26066635Y2426970D01*
X27445738Y2667000D02*
G01*
X27336635Y2667000D01*
X27445738Y2667000D02*
G01*
X27445738Y2620241D01*
X27440544Y2604655D01*
X27435347Y2599458D01*
X27424956Y2594264D01*
X27414565Y2594264D01*
X27404174Y2599458D01*
X27398979Y2604655D01*
X27393785Y2620241D01*
X27393785Y2667000D01*
X27393785Y2630632D02*
G01*
X27336635Y2594264D01*
X27419762Y2554777D02*
G01*
X27424956Y2554777D01*
X27435347Y2549583D01*
X27440544Y2544386D01*
X27445738Y2533995D01*
X27445738Y2513215D01*
X27440544Y2502824D01*
X27435347Y2497627D01*
X27424956Y2492433D01*
X27414565Y2492433D01*
X27404174Y2497627D01*
X27388588Y2508018D01*
X27336635Y2559974D01*
X27336635Y2487236D01*
X27419762Y2447752D02*
G01*
X27424956Y2447752D01*
X27435347Y2442555D01*
X27440544Y2437361D01*
X27445738Y2426970D01*
X27445738Y2406187D01*
X27440544Y2395796D01*
X27435347Y2390602D01*
X27424956Y2385405D01*
X27414565Y2385405D01*
X27404174Y2390602D01*
X27388588Y2400993D01*
X27336635Y2452946D01*
X27336635Y2380211D01*
X28715738Y2654300D02*
G01*
X28606635Y2654300D01*
X28715738Y2654300D02*
G01*
X28715738Y2607541D01*
X28710544Y2591955D01*
X28705347Y2586758D01*
X28694956Y2581564D01*
X28684565Y2581564D01*
X28674174Y2586758D01*
X28668979Y2591955D01*
X28663785Y2607541D01*
X28663785Y2654300D01*
X28663785Y2617932D02*
G01*
X28606635Y2581564D01*
X28689762Y2542077D02*
G01*
X28694956Y2542077D01*
X28705347Y2536883D01*
X28710544Y2531686D01*
X28715738Y2521295D01*
X28715738Y2500515D01*
X28710544Y2490124D01*
X28705347Y2484927D01*
X28694956Y2479733D01*
X28684565Y2479733D01*
X28674174Y2484927D01*
X28658588Y2495318D01*
X28606635Y2547274D01*
X28606635Y2474536D01*
X28715738Y2429855D02*
G01*
X28715738Y2372705D01*
X28674174Y2403878D01*
X28674174Y2388293D01*
X28668979Y2377902D01*
X28663785Y2372705D01*
X28648197Y2367511D01*
X28637806Y2367511D01*
X28622221Y2372705D01*
X28611829Y2383096D01*
X28606635Y2398684D01*
X28606635Y2414270D01*
X28611829Y2429855D01*
X28617024Y2435052D01*
X28627415Y2440246D01*
X29985738Y2667000D02*
G01*
X29876635Y2667000D01*
X29985738Y2667000D02*
G01*
X29985738Y2620241D01*
X29980544Y2604655D01*
X29975347Y2599458D01*
X29964956Y2594264D01*
X29954565Y2594264D01*
X29944174Y2599458D01*
X29938979Y2604655D01*
X29933785Y2620241D01*
X29933785Y2667000D01*
X29933785Y2630632D02*
G01*
X29876635Y2594264D01*
X29959762Y2554777D02*
G01*
X29964956Y2554777D01*
X29975347Y2549583D01*
X29980544Y2544386D01*
X29985738Y2533995D01*
X29985738Y2513215D01*
X29980544Y2502824D01*
X29975347Y2497627D01*
X29964956Y2492433D01*
X29954565Y2492433D01*
X29944174Y2497627D01*
X29928588Y2508018D01*
X29876635Y2559974D01*
X29876635Y2487236D01*
X29985738Y2400993D02*
G01*
X29913003Y2452946D01*
X29913003Y2375014D01*
X29985738Y2400993D02*
G01*
X29876635Y2400993D01*
X7860284Y2667000D02*
G01*
X7969250Y2667000D01*
X7860284Y2667000D02*
G01*
X7860284Y2713736D01*
X7865363Y2729229D01*
X7870697Y2734563D01*
X7881111Y2739644D01*
X7891525Y2739644D01*
X7901940Y2734563D01*
X7907020Y2729229D01*
X7912100Y2713736D01*
X7912100Y2667000D01*
X7912100Y2703321D02*
G01*
X7969250Y2739644D01*
X7860284Y2846831D02*
G01*
X7969250Y2794762D01*
X7860284Y2773934D02*
G01*
X7860284Y2846831D01*
X6590284Y2667000D02*
G01*
X6699250Y2667000D01*
X6590284Y2667000D02*
G01*
X6590284Y2713736D01*
X6595363Y2729229D01*
X6600697Y2734563D01*
X6611111Y2739644D01*
X6621525Y2739644D01*
X6631940Y2734563D01*
X6637020Y2729229D01*
X6642100Y2713736D01*
X6642100Y2667000D01*
X6642100Y2703321D02*
G01*
X6699250Y2739644D01*
X6605777Y2836418D02*
G01*
X6595363Y2831084D01*
X6590284Y2815589D01*
X6590284Y2805176D01*
X6595363Y2789681D01*
X6611111Y2779268D01*
X6637020Y2773934D01*
X6662927Y2773934D01*
X6683756Y2779268D01*
X6694170Y2789681D01*
X6699250Y2805176D01*
X6699250Y2810510D01*
X6694170Y2826004D01*
X6683756Y2836418D01*
X6668261Y2841497D01*
X6662927Y2841497D01*
X6647434Y2836418D01*
X6637020Y2826004D01*
X6631940Y2810510D01*
X6631940Y2805176D01*
X6637020Y2789681D01*
X6647434Y2779268D01*
X6662927Y2773934D01*
X5320284Y2667000D02*
G01*
X5429250Y2667000D01*
X5320284Y2667000D02*
G01*
X5320284Y2713736D01*
X5325363Y2729229D01*
X5330697Y2734563D01*
X5341111Y2739644D01*
X5351525Y2739644D01*
X5361940Y2734563D01*
X5367020Y2729229D01*
X5372100Y2713736D01*
X5372100Y2667000D01*
X5372100Y2703321D02*
G01*
X5429250Y2739644D01*
X5320284Y2836418D02*
G01*
X5320284Y2784347D01*
X5367020Y2779268D01*
X5361940Y2784347D01*
X5356606Y2800095D01*
X5356606Y2815589D01*
X5361940Y2831084D01*
X5372100Y2841497D01*
X5387847Y2846831D01*
X5398261Y2846831D01*
X5413756Y2841497D01*
X5424170Y2831084D01*
X5429250Y2815589D01*
X5429250Y2800095D01*
X5424170Y2784347D01*
X5419090Y2779268D01*
X5408675Y2773934D01*
X4050284Y2667000D02*
G01*
X4159250Y2667000D01*
X4050284Y2667000D02*
G01*
X4050284Y2713736D01*
X4055363Y2729229D01*
X4060697Y2734563D01*
X4071111Y2739644D01*
X4081525Y2739644D01*
X4091940Y2734563D01*
X4097020Y2729229D01*
X4102100Y2713736D01*
X4102100Y2667000D01*
X4102100Y2703321D02*
G01*
X4159250Y2739644D01*
X4050284Y2826004D02*
G01*
X4122927Y2773934D01*
X4122927Y2851912D01*
X4050284Y2826004D02*
G01*
X4159250Y2826004D01*
X2767584Y2667000D02*
G01*
X2876550Y2667000D01*
X2767584Y2667000D02*
G01*
X2767584Y2713736D01*
X2772663Y2729229D01*
X2777997Y2734563D01*
X2788411Y2739644D01*
X2798825Y2739644D01*
X2809240Y2734563D01*
X2814320Y2729229D01*
X2819400Y2713736D01*
X2819400Y2667000D01*
X2819400Y2703321D02*
G01*
X2876550Y2739644D01*
X2767584Y2784347D02*
G01*
X2767584Y2841497D01*
X2809240Y2810510D01*
X2809240Y2826004D01*
X2814320Y2836418D01*
X2819400Y2841497D01*
X2835147Y2846831D01*
X2845561Y2846831D01*
X2861056Y2841497D01*
X2871470Y2831084D01*
X2876550Y2815589D01*
X2876550Y2800095D01*
X2871470Y2784347D01*
X2866390Y2779268D01*
X2855975Y2773934D01*
X1510284Y2667000D02*
G01*
X1619250Y2667000D01*
X1510284Y2667000D02*
G01*
X1510284Y2713736D01*
X1515363Y2729229D01*
X1520697Y2734563D01*
X1531112Y2739644D01*
X1541526Y2739644D01*
X1551939Y2734563D01*
X1557020Y2729229D01*
X1562100Y2713736D01*
X1562100Y2667000D01*
X1562100Y2703321D02*
G01*
X1619250Y2739644D01*
X1536192Y2779268D02*
G01*
X1531112Y2779268D01*
X1520697Y2784347D01*
X1515363Y2789681D01*
X1510284Y2800095D01*
X1510284Y2820670D01*
X1515363Y2831084D01*
X1520697Y2836418D01*
X1531112Y2841497D01*
X1541526Y2841497D01*
X1551939Y2836418D01*
X1567434Y2826004D01*
X1619250Y2773934D01*
X1619250Y2846831D01*
X240284Y2667000D02*
G01*
X349250Y2667000D01*
X240284Y2667000D02*
G01*
X240284Y2713736D01*
X245363Y2729229D01*
X250697Y2734563D01*
X261112Y2739644D01*
X271526Y2739644D01*
X281939Y2734563D01*
X287020Y2729229D01*
X292100Y2713736D01*
X292100Y2667000D01*
X292100Y2703321D02*
G01*
X349250Y2739644D01*
X261112Y2773934D02*
G01*
X255778Y2784347D01*
X240284Y2800095D01*
X349250Y2800095D01*
X9117584Y2667000D02*
G01*
X9226550Y2667000D01*
X9117584Y2667000D02*
G01*
X9117584Y2713736D01*
X9122663Y2729229D01*
X9127997Y2734563D01*
X9138411Y2739644D01*
X9148825Y2739644D01*
X9159240Y2734563D01*
X9164320Y2729229D01*
X9169400Y2713736D01*
X9169400Y2667000D01*
X9169400Y2703321D02*
G01*
X9226550Y2739644D01*
X9117584Y2800095D02*
G01*
X9122663Y2784347D01*
X9133077Y2779268D01*
X9143491Y2779268D01*
X9153906Y2784347D01*
X9159240Y2794762D01*
X9164320Y2815589D01*
X9169400Y2831084D01*
X9179813Y2841497D01*
X9190227Y2846831D01*
X9205975Y2846831D01*
X9216390Y2841497D01*
X9221470Y2836418D01*
X9226550Y2820670D01*
X9226550Y2800095D01*
X9221470Y2784347D01*
X9216390Y2779268D01*
X9205975Y2773934D01*
X9190227Y2773934D01*
X9179813Y2779268D01*
X9169400Y2789681D01*
X9164320Y2805176D01*
X9159240Y2826004D01*
X9153906Y2836418D01*
X9143491Y2841497D01*
X9133077Y2841497D01*
X9122663Y2836418D01*
X9117584Y2820670D01*
X9117584Y2800095D01*
D11*
X5856706Y4212005D02*
G01*
X6106693Y4212005D01*
X5856706Y4212005D02*
G01*
X5856706Y4931994D01*
X6106693Y4931994D02*
G01*
X5856706Y4931994D01*
X6106693Y4931994D02*
G01*
X6106693Y4212005D01*
X13789974Y4199305D02*
G01*
X14039961Y4199305D01*
X13789974Y4199305D02*
G01*
X13789974Y4919294D01*
X14039961Y4919294D02*
G01*
X13789974Y4919294D01*
X14039961Y4919294D02*
G01*
X14039961Y4199305D01*
X9951986Y-1224000D02*
G01*
X9951986Y-1823999D01*
X9351987Y-1823999D01*
X9351987Y-1224000D01*
X9951986Y-1224000D01*
X11221986Y1061999D02*
G01*
X11221986Y462000D01*
X10621987Y462000D01*
X10621987Y1061999D01*
X11221986Y1061999D01*
X12491986Y-1224000D02*
G01*
X12491986Y-1823999D01*
X11891987Y-1823999D01*
X11891987Y-1224000D01*
X12491986Y-1224000D01*
X13761986Y1061999D02*
G01*
X13761986Y462000D01*
X13161987Y462000D01*
X13161987Y1061999D01*
X13761986Y1061999D01*
X15031986Y-1224000D02*
G01*
X15031986Y-1823999D01*
X14431987Y-1823999D01*
X14431987Y-1224000D01*
X15031986Y-1224000D01*
X16301986Y-1224000D02*
G01*
X16301986Y-1823999D01*
X15701987Y-1823999D01*
X15701987Y-1224000D01*
X16301986Y-1224000D01*
X17571986Y1061999D02*
G01*
X17571986Y462000D01*
X16971987Y462000D01*
X16971987Y1061999D01*
X17571986Y1061999D01*
X18841986Y-1224000D02*
G01*
X18841986Y-1823999D01*
X18241987Y-1823999D01*
X18241987Y-1224000D01*
X18841986Y-1224000D01*
X20111986Y1061999D02*
G01*
X20111986Y462000D01*
X19511987Y462000D01*
X19511987Y1061999D01*
X20111986Y1061999D01*
X21381986Y-1224000D02*
G01*
X21381986Y-1823999D01*
X20781987Y-1823999D01*
X20781987Y-1224000D01*
X21381986Y-1224000D01*
X22651986Y-1224000D02*
G01*
X22651986Y-1823999D01*
X22051987Y-1823999D01*
X22051987Y-1224000D01*
X22651986Y-1224000D01*
X23921986Y1061999D02*
G01*
X23921986Y462000D01*
X23321987Y462000D01*
X23321987Y1061999D01*
X23921986Y1061999D01*
X25191986Y-1224000D02*
G01*
X25191986Y-1823999D01*
X24591987Y-1823999D01*
X24591987Y-1224000D01*
X25191986Y-1224000D01*
X26461986Y1061999D02*
G01*
X26461986Y462000D01*
X25861987Y462000D01*
X25861987Y1061999D01*
X26461986Y1061999D01*
X27731986Y-1224000D02*
G01*
X27731986Y-1823999D01*
X27131987Y-1823999D01*
X27131987Y-1224000D01*
X27731986Y-1224000D01*
X29001986Y1061999D02*
G01*
X29001986Y462000D01*
X28401987Y462000D01*
X28401987Y1061999D01*
X29001986Y1061999D01*
X30271986Y-1224000D02*
G01*
X30271986Y-1823999D01*
X29671987Y-1823999D01*
X29671987Y-1224000D01*
X30271986Y-1224000D01*
X1061986Y-1224000D02*
G01*
X1061986Y-1823999D01*
X461987Y-1823999D01*
X461987Y-1224000D01*
X1061986Y-1224000D01*
X2331986Y1061999D02*
G01*
X2331986Y462000D01*
X1731987Y462000D01*
X1731987Y1061999D01*
X2331986Y1061999D01*
X3601986Y-1224000D02*
G01*
X3601986Y-1823999D01*
X3001987Y-1823999D01*
X3001987Y-1224000D01*
X3601986Y-1224000D01*
X4871986Y1061999D02*
G01*
X4871986Y462000D01*
X4271987Y462000D01*
X4271987Y1061999D01*
X4871986Y1061999D01*
X6141986Y-1224000D02*
G01*
X6141986Y-1823999D01*
X5541987Y-1823999D01*
X5541987Y-1224000D01*
X6141986Y-1224000D01*
X7411986Y-1224000D02*
G01*
X7411986Y-1823999D01*
X6811987Y-1823999D01*
X6811987Y-1224000D01*
X7411986Y-1224000D01*
X8681986Y1061999D02*
G01*
X8681986Y462000D01*
X8081987Y462000D01*
X8081987Y1061999D01*
X8681986Y1061999D01*
X23357306Y4123105D02*
G01*
X23607293Y4123105D01*
X23357306Y4123105D02*
G01*
X23357306Y4843094D01*
X23607293Y4843094D02*
G01*
X23357306Y4843094D01*
X23607293Y4843094D02*
G01*
X23607293Y4123105D01*
X6873994Y4671821D02*
G01*
X6873994Y4891811D01*
X6873994Y4252013D02*
G01*
X6873994Y4472002D01*
X8873987Y4891989D02*
G01*
X6873994Y4891989D01*
X8873987Y4252013D02*
G01*
X6873994Y4252013D01*
X8873987Y4252013D02*
G01*
X8873987Y4891989D01*
X15103594Y4684521D02*
G01*
X15103594Y4904511D01*
X15103594Y4264713D02*
G01*
X15103594Y4484702D01*
X17103587Y4904689D02*
G01*
X15103594Y4904689D01*
X17103587Y4264713D02*
G01*
X15103594Y4264713D01*
X17103587Y4264713D02*
G01*
X17103587Y4904689D01*
X24184094Y4544821D02*
G01*
X24184094Y4764811D01*
X24184094Y4125013D02*
G01*
X24184094Y4345002D01*
X26184087Y4764989D02*
G01*
X24184094Y4764989D01*
X26184087Y4125013D02*
G01*
X24184094Y4125013D01*
X26184087Y4125013D02*
G01*
X26184087Y4764989D01*
D10*
X17284479Y5871179D02*
G01*
X17284479Y6041420D01*
X17589720Y5871179D02*
G01*
X17589720Y6041420D01*
X17484740Y6041420D02*
G01*
X17389459Y6041420D01*
X11696479Y5871179D02*
G01*
X11696479Y6041420D01*
X12001720Y5871179D02*
G01*
X12001720Y6041420D01*
X11896740Y6041420D02*
G01*
X11801459Y6041420D01*
D12*
X14160500Y6731000D02*
G01*
X13970000Y6731000D01*
X13970000Y6477000D01*
X15240000Y6477000D01*
X15240000Y6731000D01*
D13*
X15240000Y6731000D02*
G01*
X14160500Y6731000D01*
D11*
X10668000Y3098878D02*
G01*
X10668000Y2992000D01*
X10667596Y2341999D02*
G01*
X10667596Y2235121D01*
X10552998Y2992000D02*
G01*
X10783001Y2992000D01*
X10783001Y2992000D02*
G01*
X10783001Y2341999D01*
X10779998Y2341999D02*
G01*
X10556001Y2341999D01*
X10552998Y2341999D02*
G01*
X10552998Y2992000D01*
X11938000Y3098883D02*
G01*
X11938000Y2992005D01*
X11937596Y2342004D02*
G01*
X11937596Y2235126D01*
X11822998Y2992005D02*
G01*
X12053001Y2992005D01*
X12053001Y2992005D02*
G01*
X12053001Y2342004D01*
X12049998Y2342004D02*
G01*
X11826001Y2342004D01*
X11822998Y2342004D02*
G01*
X11822998Y2992005D01*
X13208000Y3098883D02*
G01*
X13208000Y2992005D01*
X13207596Y2342004D02*
G01*
X13207596Y2235126D01*
X13092998Y2992005D02*
G01*
X13323001Y2992005D01*
X13323001Y2992005D02*
G01*
X13323001Y2342004D01*
X13319998Y2342004D02*
G01*
X13096001Y2342004D01*
X13092998Y2342004D02*
G01*
X13092998Y2992005D01*
X14478000Y3111578D02*
G01*
X14478000Y3004700D01*
X14477596Y2354699D02*
G01*
X14477596Y2247821D01*
X14362998Y3004700D02*
G01*
X14593001Y3004700D01*
X14593001Y3004700D02*
G01*
X14593001Y2354699D01*
X14589998Y2354699D02*
G01*
X14366001Y2354699D01*
X14362998Y2354699D02*
G01*
X14362998Y3004700D01*
X15748000Y3098883D02*
G01*
X15748000Y2992005D01*
X15747596Y2342004D02*
G01*
X15747596Y2235126D01*
X15632998Y2992005D02*
G01*
X15863001Y2992005D01*
X15863001Y2992005D02*
G01*
X15863001Y2342004D01*
X15859998Y2342004D02*
G01*
X15636001Y2342004D01*
X15632998Y2342004D02*
G01*
X15632998Y2992005D01*
X17018000Y3098883D02*
G01*
X17018000Y2992005D01*
X17017596Y2342004D02*
G01*
X17017596Y2235126D01*
X16902998Y2992005D02*
G01*
X17133001Y2992005D01*
X17133001Y2992005D02*
G01*
X17133001Y2342004D01*
X17129998Y2342004D02*
G01*
X16906001Y2342004D01*
X16902998Y2342004D02*
G01*
X16902998Y2992005D01*
X18288000Y3098883D02*
G01*
X18288000Y2992005D01*
X18287596Y2342004D02*
G01*
X18287596Y2235126D01*
X18172998Y2992005D02*
G01*
X18403001Y2992005D01*
X18403001Y2992005D02*
G01*
X18403001Y2342004D01*
X18399998Y2342004D02*
G01*
X18176001Y2342004D01*
X18172998Y2342004D02*
G01*
X18172998Y2992005D01*
X19558000Y3098878D02*
G01*
X19558000Y2992000D01*
X19557596Y2341999D02*
G01*
X19557596Y2235121D01*
X19442998Y2992000D02*
G01*
X19673001Y2992000D01*
X19673001Y2992000D02*
G01*
X19673001Y2341999D01*
X19669998Y2341999D02*
G01*
X19446001Y2341999D01*
X19442998Y2341999D02*
G01*
X19442998Y2992000D01*
X20828000Y3098878D02*
G01*
X20828000Y2992000D01*
X20827596Y2341999D02*
G01*
X20827596Y2235121D01*
X20712998Y2992000D02*
G01*
X20943001Y2992000D01*
X20943001Y2992000D02*
G01*
X20943001Y2341999D01*
X20939998Y2341999D02*
G01*
X20716001Y2341999D01*
X20712998Y2341999D02*
G01*
X20712998Y2992000D01*
X22098000Y3098878D02*
G01*
X22098000Y2992000D01*
X22097596Y2341999D02*
G01*
X22097596Y2235121D01*
X21982998Y2992000D02*
G01*
X22213001Y2992000D01*
X22213001Y2992000D02*
G01*
X22213001Y2341999D01*
X22209998Y2341999D02*
G01*
X21986001Y2341999D01*
X21982998Y2341999D02*
G01*
X21982998Y2992000D01*
X23368000Y3098878D02*
G01*
X23368000Y2992000D01*
X23367596Y2341999D02*
G01*
X23367596Y2235121D01*
X23252998Y2992000D02*
G01*
X23483001Y2992000D01*
X23483001Y2992000D02*
G01*
X23483001Y2341999D01*
X23479998Y2341999D02*
G01*
X23256001Y2341999D01*
X23252998Y2341999D02*
G01*
X23252998Y2992000D01*
X24638000Y3098878D02*
G01*
X24638000Y2992000D01*
X24637596Y2341999D02*
G01*
X24637596Y2235121D01*
X24522998Y2992000D02*
G01*
X24753001Y2992000D01*
X24753001Y2992000D02*
G01*
X24753001Y2341999D01*
X24749998Y2341999D02*
G01*
X24526001Y2341999D01*
X24522998Y2341999D02*
G01*
X24522998Y2992000D01*
X25908000Y3098878D02*
G01*
X25908000Y2992000D01*
X25907596Y2341999D02*
G01*
X25907596Y2235121D01*
X25792998Y2992000D02*
G01*
X26023001Y2992000D01*
X26023001Y2992000D02*
G01*
X26023001Y2341999D01*
X26019998Y2341999D02*
G01*
X25796001Y2341999D01*
X25792998Y2341999D02*
G01*
X25792998Y2992000D01*
X27178000Y3098878D02*
G01*
X27178000Y2992000D01*
X27177596Y2341999D02*
G01*
X27177596Y2235121D01*
X27062998Y2992000D02*
G01*
X27293001Y2992000D01*
X27293001Y2992000D02*
G01*
X27293001Y2341999D01*
X27289998Y2341999D02*
G01*
X27066001Y2341999D01*
X27062998Y2341999D02*
G01*
X27062998Y2992000D01*
X28448000Y3086178D02*
G01*
X28448000Y2979300D01*
X28447596Y2329299D02*
G01*
X28447596Y2222421D01*
X28332998Y2979300D02*
G01*
X28563001Y2979300D01*
X28563001Y2979300D02*
G01*
X28563001Y2329299D01*
X28559998Y2329299D02*
G01*
X28336001Y2329299D01*
X28332998Y2329299D02*
G01*
X28332998Y2979300D01*
X29718000Y3098878D02*
G01*
X29718000Y2992000D01*
X29717596Y2341999D02*
G01*
X29717596Y2235121D01*
X29602998Y2992000D02*
G01*
X29833001Y2992000D01*
X29833001Y2992000D02*
G01*
X29833001Y2341999D01*
X29829998Y2341999D02*
G01*
X29606001Y2341999D01*
X29602998Y2341999D02*
G01*
X29602998Y2992000D01*
X8128000Y2235121D02*
G01*
X8128000Y2341999D01*
X8128403Y2992000D02*
G01*
X8128403Y3098878D01*
X8243001Y2341999D02*
G01*
X8012998Y2341999D01*
X8012998Y2341999D02*
G01*
X8012998Y2992000D01*
X8016001Y2992000D02*
G01*
X8239998Y2992000D01*
X8243001Y2992000D02*
G01*
X8243001Y2341999D01*
X6858000Y2235121D02*
G01*
X6858000Y2341999D01*
X6858403Y2992000D02*
G01*
X6858403Y3098878D01*
X6973001Y2341999D02*
G01*
X6742998Y2341999D01*
X6742998Y2341999D02*
G01*
X6742998Y2992000D01*
X6746001Y2992000D02*
G01*
X6969998Y2992000D01*
X6973001Y2992000D02*
G01*
X6973001Y2341999D01*
X5588000Y2235121D02*
G01*
X5588000Y2341999D01*
X5588403Y2992000D02*
G01*
X5588403Y3098878D01*
X5703001Y2341999D02*
G01*
X5472998Y2341999D01*
X5472998Y2341999D02*
G01*
X5472998Y2992000D01*
X5476001Y2992000D02*
G01*
X5699998Y2992000D01*
X5703001Y2992000D02*
G01*
X5703001Y2341999D01*
X4318000Y2235121D02*
G01*
X4318000Y2341999D01*
X4318403Y2992000D02*
G01*
X4318403Y3098878D01*
X4433001Y2341999D02*
G01*
X4202998Y2341999D01*
X4202998Y2341999D02*
G01*
X4202998Y2992000D01*
X4206001Y2992000D02*
G01*
X4429998Y2992000D01*
X4433001Y2992000D02*
G01*
X4433001Y2341999D01*
X3035300Y2235121D02*
G01*
X3035300Y2341999D01*
X3035703Y2992000D02*
G01*
X3035703Y3098878D01*
X3150301Y2341999D02*
G01*
X2920298Y2341999D01*
X2920298Y2341999D02*
G01*
X2920298Y2992000D01*
X2923301Y2992000D02*
G01*
X3147298Y2992000D01*
X3150301Y2992000D02*
G01*
X3150301Y2341999D01*
X1778000Y2235121D02*
G01*
X1778000Y2341999D01*
X1778403Y2992000D02*
G01*
X1778403Y3098878D01*
X1893001Y2341999D02*
G01*
X1662998Y2341999D01*
X1662998Y2341999D02*
G01*
X1662998Y2992000D01*
X1666001Y2992000D02*
G01*
X1889998Y2992000D01*
X1893001Y2992000D02*
G01*
X1893001Y2341999D01*
X508000Y2235121D02*
G01*
X508000Y2341999D01*
X508403Y2992000D02*
G01*
X508403Y3098878D01*
X623001Y2341999D02*
G01*
X392998Y2341999D01*
X392998Y2341999D02*
G01*
X392998Y2992000D01*
X396001Y2992000D02*
G01*
X619998Y2992000D01*
X623001Y2992000D02*
G01*
X623001Y2341999D01*
X9385300Y2235121D02*
G01*
X9385300Y2341999D01*
X9385703Y2992000D02*
G01*
X9385703Y3098878D01*
X9500301Y2341999D02*
G01*
X9270298Y2341999D01*
X9270298Y2341999D02*
G01*
X9270298Y2992000D01*
X9273301Y2992000D02*
G01*
X9497298Y2992000D01*
X9500301Y2992000D02*
G01*
X9500301Y2341999D01*
G75*
G01*
X6873994Y4672000D02*
G02*
X6878996Y4472003I2501J-99999D01*
G75*
G01*
X15103594Y4684700D02*
G02*
X15108596Y4484703I2501J-99999D01*
G75*
G01*
X24184094Y4545000D02*
G02*
X24189096Y4345003I2501J-99999D01*
G75*
G01
X9804933Y-1524000D02*
G03X9804933Y-1524000I-152933J0D01*
G75*
G01
X9499600Y-1727200D02*
G03X9499600Y-1727200I-50800J0D01*
G75*
G01
X9499600Y-1320800D02*
G03X9499600Y-1320800I-50800J0D01*
G75*
G01
X9906000Y-1727200D02*
G03X9906000Y-1727200I-50800J0D01*
G75*
G01
X9905848Y-1321003D02*
G03X9905848Y-1321003I-50800J0D01*
G75*
G01
X11074933Y762000D02*
G03X11074933Y762000I-152933J0D01*
G75*
G01
X10769600Y558800D02*
G03X10769600Y558800I-50800J0D01*
G75*
G01
X10769600Y965200D02*
G03X10769600Y965200I-50800J0D01*
G75*
G01
X11176000Y558800D02*
G03X11176000Y558800I-50800J0D01*
G75*
G01
X11175848Y964997D02*
G03X11175848Y964997I-50800J0D01*
G75*
G01
X12344933Y-1524000D02*
G03X12344933Y-1524000I-152933J0D01*
G75*
G01
X12039600Y-1727200D02*
G03X12039600Y-1727200I-50800J0D01*
G75*
G01
X12039600Y-1320800D02*
G03X12039600Y-1320800I-50800J0D01*
G75*
G01
X12446000Y-1727200D02*
G03X12446000Y-1727200I-50800J0D01*
G75*
G01
X12445848Y-1321003D02*
G03X12445848Y-1321003I-50800J0D01*
G75*
G01
X13614933Y762000D02*
G03X13614933Y762000I-152933J0D01*
G75*
G01
X13309600Y558800D02*
G03X13309600Y558800I-50800J0D01*
G75*
G01
X13309600Y965200D02*
G03X13309600Y965200I-50800J0D01*
G75*
G01
X13716000Y558800D02*
G03X13716000Y558800I-50800J0D01*
G75*
G01
X13715848Y964997D02*
G03X13715848Y964997I-50800J0D01*
G75*
G01
X14884933Y-1524000D02*
G03X14884933Y-1524000I-152933J0D01*
G75*
G01
X14579600Y-1727200D02*
G03X14579600Y-1727200I-50800J0D01*
G75*
G01
X14579600Y-1320800D02*
G03X14579600Y-1320800I-50800J0D01*
G75*
G01
X14986000Y-1727200D02*
G03X14986000Y-1727200I-50800J0D01*
G75*
G01
X14985848Y-1321003D02*
G03X14985848Y-1321003I-50800J0D01*
G75*
G01
X16154933Y-1524000D02*
G03X16154933Y-1524000I-152933J0D01*
G75*
G01
X15849600Y-1727200D02*
G03X15849600Y-1727200I-50800J0D01*
G75*
G01
X15849600Y-1320800D02*
G03X15849600Y-1320800I-50800J0D01*
G75*
G01
X16256000Y-1727200D02*
G03X16256000Y-1727200I-50800J0D01*
G75*
G01
X16255848Y-1321003D02*
G03X16255848Y-1321003I-50800J0D01*
G75*
G01
X17424933Y762000D02*
G03X17424933Y762000I-152933J0D01*
G75*
G01
X17119600Y558800D02*
G03X17119600Y558800I-50800J0D01*
G75*
G01
X17119600Y965200D02*
G03X17119600Y965200I-50800J0D01*
G75*
G01
X17526000Y558800D02*
G03X17526000Y558800I-50800J0D01*
G75*
G01
X17525848Y964997D02*
G03X17525848Y964997I-50800J0D01*
G75*
G01
X18694933Y-1524000D02*
G03X18694933Y-1524000I-152933J0D01*
G75*
G01
X18389600Y-1727200D02*
G03X18389600Y-1727200I-50800J0D01*
G75*
G01
X18389600Y-1320800D02*
G03X18389600Y-1320800I-50800J0D01*
G75*
G01
X18796000Y-1727200D02*
G03X18796000Y-1727200I-50800J0D01*
G75*
G01
X18795848Y-1321003D02*
G03X18795848Y-1321003I-50800J0D01*
G75*
G01
X19964933Y762000D02*
G03X19964933Y762000I-152933J0D01*
G75*
G01
X19659600Y558800D02*
G03X19659600Y558800I-50800J0D01*
G75*
G01
X19659600Y965200D02*
G03X19659600Y965200I-50800J0D01*
G75*
G01
X20066000Y558800D02*
G03X20066000Y558800I-50800J0D01*
G75*
G01
X20065848Y964997D02*
G03X20065848Y964997I-50800J0D01*
G75*
G01
X21234933Y-1524000D02*
G03X21234933Y-1524000I-152933J0D01*
G75*
G01
X20929600Y-1727200D02*
G03X20929600Y-1727200I-50800J0D01*
G75*
G01
X20929600Y-1320800D02*
G03X20929600Y-1320800I-50800J0D01*
G75*
G01
X21336000Y-1727200D02*
G03X21336000Y-1727200I-50800J0D01*
G75*
G01
X21335848Y-1321003D02*
G03X21335848Y-1321003I-50800J0D01*
G75*
G01
X22504933Y-1524000D02*
G03X22504933Y-1524000I-152933J0D01*
G75*
G01
X22199600Y-1727200D02*
G03X22199600Y-1727200I-50800J0D01*
G75*
G01
X22199600Y-1320800D02*
G03X22199600Y-1320800I-50800J0D01*
G75*
G01
X22606000Y-1727200D02*
G03X22606000Y-1727200I-50800J0D01*
G75*
G01
X22605848Y-1321003D02*
G03X22605848Y-1321003I-50800J0D01*
G75*
G01
X23774933Y762000D02*
G03X23774933Y762000I-152933J0D01*
G75*
G01
X23469600Y558800D02*
G03X23469600Y558800I-50800J0D01*
G75*
G01
X23469600Y965200D02*
G03X23469600Y965200I-50800J0D01*
G75*
G01
X23876000Y558800D02*
G03X23876000Y558800I-50800J0D01*
G75*
G01
X23875848Y964997D02*
G03X23875848Y964997I-50800J0D01*
G75*
G01
X25044933Y-1524000D02*
G03X25044933Y-1524000I-152933J0D01*
G75*
G01
X24739600Y-1727200D02*
G03X24739600Y-1727200I-50800J0D01*
G75*
G01
X24739600Y-1320800D02*
G03X24739600Y-1320800I-50800J0D01*
G75*
G01
X25146000Y-1727200D02*
G03X25146000Y-1727200I-50800J0D01*
G75*
G01
X25145848Y-1321003D02*
G03X25145848Y-1321003I-50800J0D01*
G75*
G01
X26314933Y762000D02*
G03X26314933Y762000I-152933J0D01*
G75*
G01
X26009600Y558800D02*
G03X26009600Y558800I-50800J0D01*
G75*
G01
X26009600Y965200D02*
G03X26009600Y965200I-50800J0D01*
G75*
G01
X26416000Y558800D02*
G03X26416000Y558800I-50800J0D01*
G75*
G01
X26415848Y964997D02*
G03X26415848Y964997I-50800J0D01*
G75*
G01
X27584933Y-1524000D02*
G03X27584933Y-1524000I-152933J0D01*
G75*
G01
X27279600Y-1727200D02*
G03X27279600Y-1727200I-50800J0D01*
G75*
G01
X27279600Y-1320800D02*
G03X27279600Y-1320800I-50800J0D01*
G75*
G01
X27686000Y-1727200D02*
G03X27686000Y-1727200I-50800J0D01*
G75*
G01
X27685848Y-1321003D02*
G03X27685848Y-1321003I-50800J0D01*
G75*
G01
X28854933Y762000D02*
G03X28854933Y762000I-152933J0D01*
G75*
G01
X28549600Y558800D02*
G03X28549600Y558800I-50800J0D01*
G75*
G01
X28549600Y965200D02*
G03X28549600Y965200I-50800J0D01*
G75*
G01
X28956000Y558800D02*
G03X28956000Y558800I-50800J0D01*
G75*
G01
X28955848Y964997D02*
G03X28955848Y964997I-50800J0D01*
G75*
G01
X30124933Y-1524000D02*
G03X30124933Y-1524000I-152933J0D01*
G75*
G01
X29819600Y-1727200D02*
G03X29819600Y-1727200I-50800J0D01*
G75*
G01
X29819600Y-1320800D02*
G03X29819600Y-1320800I-50800J0D01*
G75*
G01
X30226000Y-1727200D02*
G03X30226000Y-1727200I-50800J0D01*
G75*
G01
X30225848Y-1321003D02*
G03X30225848Y-1321003I-50800J0D01*
G75*
G01
X914933Y-1524000D02*
G03X914933Y-1524000I-152933J0D01*
G75*
G01
X609600Y-1727200D02*
G03X609600Y-1727200I-50800J0D01*
G75*
G01
X609600Y-1320800D02*
G03X609600Y-1320800I-50800J0D01*
G75*
G01
X1016000Y-1727200D02*
G03X1016000Y-1727200I-50800J0D01*
G75*
G01
X1015848Y-1321003D02*
G03X1015848Y-1321003I-50800J0D01*
G75*
G01
X2184933Y762000D02*
G03X2184933Y762000I-152933J0D01*
G75*
G01
X1879600Y558800D02*
G03X1879600Y558800I-50800J0D01*
G75*
G01
X1879600Y965200D02*
G03X1879600Y965200I-50800J0D01*
G75*
G01
X2286000Y558800D02*
G03X2286000Y558800I-50800J0D01*
G75*
G01
X2285822Y964997D02*
G03X2285822Y964997I-50800J0D01*
G75*
G01
X3454933Y-1524000D02*
G03X3454933Y-1524000I-152933J0D01*
G75*
G01
X3149600Y-1727200D02*
G03X3149600Y-1727200I-50800J0D01*
G75*
G01
X3149600Y-1320800D02*
G03X3149600Y-1320800I-50800J0D01*
G75*
G01
X3556000Y-1727200D02*
G03X3556000Y-1727200I-50800J0D01*
G75*
G01
X3555822Y-1321003D02*
G03X3555822Y-1321003I-50800J0D01*
G75*
G01
X4724933Y762000D02*
G03X4724933Y762000I-152933J0D01*
G75*
G01
X4419600Y558800D02*
G03X4419600Y558800I-50800J0D01*
G75*
G01
X4419600Y965200D02*
G03X4419600Y965200I-50800J0D01*
G75*
G01
X4826000Y558800D02*
G03X4826000Y558800I-50800J0D01*
G75*
G01
X4825848Y964997D02*
G03X4825848Y964997I-50800J0D01*
G75*
G01
X5994933Y-1524000D02*
G03X5994933Y-1524000I-152933J0D01*
G75*
G01
X5689600Y-1727200D02*
G03X5689600Y-1727200I-50800J0D01*
G75*
G01
X5689600Y-1320800D02*
G03X5689600Y-1320800I-50800J0D01*
G75*
G01
X6096000Y-1727200D02*
G03X6096000Y-1727200I-50800J0D01*
G75*
G01
X6095848Y-1321003D02*
G03X6095848Y-1321003I-50800J0D01*
G75*
G01
X7264933Y-1524000D02*
G03X7264933Y-1524000I-152933J0D01*
G75*
G01
X6959600Y-1727200D02*
G03X6959600Y-1727200I-50800J0D01*
G75*
G01
X6959600Y-1320800D02*
G03X6959600Y-1320800I-50800J0D01*
G75*
G01
X7366000Y-1727200D02*
G03X7366000Y-1727200I-50800J0D01*
G75*
G01
X7365848Y-1321003D02*
G03X7365848Y-1321003I-50800J0D01*
G75*
G01
X8534933Y762000D02*
G03X8534933Y762000I-152933J0D01*
G75*
G01
X8229600Y558800D02*
G03X8229600Y558800I-50800J0D01*
G75*
G01
X8229600Y965200D02*
G03X8229600Y965200I-50800J0D01*
G75*
G01
X8636000Y558800D02*
G03X8636000Y558800I-50800J0D01*
G75*
G01
X8635848Y964997D02*
G03X8635848Y964997I-50800J0D01*
D14*
G75*
G01
X17287011Y5842000D02*
G03X17287011Y5842000I-15011J0D01*
G75*
G01
X11699011Y5842000D02*
G03X11699011Y5842000I-15011J0D01*
M02*
