G04 Layer: TopSolderMaskLayer*
G04 EasyEDA v6.5.43, 2024-08-21 01:05:30*
G04 cb6e2e9fbd21486d88ae5690d2d3dc00,10*
G04 Gerber Generator version 0.2*
G04 Scale: 100 percent, Rotated: No, Reflected: No *
G04 Dimensions in millimeters *
G04 leading zeros omitted , absolute positions ,4 integer and 5 decimal *
%FSLAX45Y45*%
%MOMM*%

%AMMACRO1*4,1,8,-0.7711,-1.2008,-0.8008,-1.171,-0.8008,1.1711,-0.7711,1.2008,0.771,1.2008,0.8008,1.1711,0.8008,-1.171,0.771,-1.2008,-0.7711,-1.2008,0*%
%AMMACRO2*4,1,8,-0.8211,-0.8508,-0.8508,-0.821,-0.8508,0.8211,-0.8211,0.8508,0.821,0.8508,0.8508,0.8211,0.8508,-0.821,0.821,-0.8508,-0.8211,-0.8508,0*%
%AMMACRO3*4,1,8,-0.2661,-0.6293,-0.2958,-0.5995,-0.2958,0.5996,-0.2661,0.6293,0.266,0.6293,0.2958,0.5996,0.2958,-0.5995,0.266,-0.6293,-0.2661,-0.6293,0*%
%AMMACRO4*4,1,8,-0.2661,-0.6383,-0.2958,-0.6085,-0.2958,0.6086,-0.2661,0.6383,0.266,0.6383,0.2958,0.6086,0.2958,-0.6085,0.266,-0.6383,-0.2661,-0.6383,0*%
%AMMACRO5*4,1,8,-0.8085,-0.8382,-0.8382,-0.8084,-0.8382,0.8085,-0.8085,0.8382,0.8084,0.8382,0.8382,0.8085,0.8382,-0.8084,0.8084,-0.8382,-0.8085,-0.8382,0*%
%ADD10C,1.7000*%
%ADD11MACRO1*%
%ADD12C,1.7016*%
%ADD13MACRO2*%
%ADD14MACRO3*%
%ADD15MACRO4*%
%ADD16C,1.6764*%
%ADD17MACRO5*%
%ADD18C,1.5016*%
%ADD19C,1.5020*%

%LPD*%
D10*
G01*
X5981700Y4322013D03*
G01*
X5981700Y4822012D03*
G01*
X13914958Y4309313D03*
G01*
X13914958Y4809312D03*
D11*
G01*
X9877005Y-1069009D03*
G01*
X9876980Y-1978990D03*
G01*
X9426994Y-1069009D03*
G01*
X9426994Y-1978990D03*
G01*
X11147005Y1216990D03*
G01*
X11146980Y307009D03*
G01*
X10696994Y1216990D03*
G01*
X10696994Y307009D03*
G01*
X12417005Y-1069009D03*
G01*
X12416980Y-1978990D03*
G01*
X11966994Y-1069009D03*
G01*
X11966994Y-1978990D03*
G01*
X13687005Y1216990D03*
G01*
X13686980Y307009D03*
G01*
X13236994Y1216990D03*
G01*
X13236994Y307009D03*
G01*
X14957005Y-1069009D03*
G01*
X14956980Y-1978990D03*
G01*
X14506994Y-1069009D03*
G01*
X14506994Y-1978990D03*
G01*
X16227005Y-1069009D03*
G01*
X16226980Y-1978990D03*
G01*
X15776994Y-1069009D03*
G01*
X15776994Y-1978990D03*
G01*
X17497005Y1216990D03*
G01*
X17496980Y307009D03*
G01*
X17046994Y1216990D03*
G01*
X17046994Y307009D03*
G01*
X18767005Y-1069009D03*
G01*
X18766980Y-1978990D03*
G01*
X18316994Y-1069009D03*
G01*
X18316994Y-1978990D03*
G01*
X20037005Y1216990D03*
G01*
X20036980Y307009D03*
G01*
X19586994Y1216990D03*
G01*
X19586994Y307009D03*
G01*
X21307005Y-1069009D03*
G01*
X21306980Y-1978990D03*
G01*
X20856994Y-1069009D03*
G01*
X20856994Y-1978990D03*
G01*
X22577005Y-1069009D03*
G01*
X22576980Y-1978990D03*
G01*
X22126994Y-1069009D03*
G01*
X22126994Y-1978990D03*
G01*
X23847005Y1216990D03*
G01*
X23846980Y307009D03*
G01*
X23396994Y1216990D03*
G01*
X23396994Y307009D03*
G01*
X25117005Y-1069009D03*
G01*
X25116980Y-1978990D03*
G01*
X24666994Y-1069009D03*
G01*
X24666994Y-1978990D03*
G01*
X26387005Y1216990D03*
G01*
X26386980Y307009D03*
G01*
X25936994Y1216990D03*
G01*
X25936994Y307009D03*
G01*
X27657005Y-1069009D03*
G01*
X27656980Y-1978990D03*
G01*
X27206994Y-1069009D03*
G01*
X27206994Y-1978990D03*
G01*
X28927005Y1216990D03*
G01*
X28926980Y307009D03*
G01*
X28476994Y1216990D03*
G01*
X28476994Y307009D03*
G01*
X30197005Y-1069009D03*
G01*
X30196980Y-1978990D03*
G01*
X29746994Y-1069009D03*
G01*
X29746994Y-1978990D03*
G01*
X987005Y-1069009D03*
G01*
X986980Y-1978990D03*
G01*
X536994Y-1069009D03*
G01*
X536994Y-1978990D03*
G01*
X2257005Y1216990D03*
G01*
X2256980Y307009D03*
G01*
X1806994Y1216990D03*
G01*
X1806994Y307009D03*
G01*
X3527005Y-1069009D03*
G01*
X3526980Y-1978990D03*
G01*
X3076994Y-1069009D03*
G01*
X3076994Y-1978990D03*
G01*
X4797005Y1216990D03*
G01*
X4796980Y307009D03*
G01*
X4346994Y1216990D03*
G01*
X4346994Y307009D03*
G01*
X6067005Y-1069009D03*
G01*
X6066980Y-1978990D03*
G01*
X5616994Y-1069009D03*
G01*
X5616994Y-1978990D03*
G01*
X7337005Y-1069009D03*
G01*
X7336980Y-1978990D03*
G01*
X6886994Y-1069009D03*
G01*
X6886994Y-1978990D03*
G01*
X8607005Y1216990D03*
G01*
X8606980Y307009D03*
G01*
X8156994Y1216990D03*
G01*
X8156994Y307009D03*
D10*
G01*
X23482300Y4233113D03*
G01*
X23482300Y4733112D03*
D12*
G01*
X6985000Y4953000D03*
G01*
X7239000Y4953000D03*
G01*
X7493000Y4953000D03*
G01*
X7747000Y4953000D03*
G01*
X8001000Y4953000D03*
G01*
X8255000Y4953000D03*
G01*
X8509000Y4953000D03*
G01*
X8763000Y4953000D03*
G01*
X8763000Y4191000D03*
G01*
X8509000Y4191000D03*
G01*
X8255000Y4191000D03*
G01*
X8001000Y4191000D03*
G01*
X7747000Y4191000D03*
G01*
X7493000Y4191000D03*
G01*
X7239000Y4191000D03*
D13*
G01*
X6984992Y4191002D03*
D12*
G01*
X15214600Y4965700D03*
G01*
X15468600Y4965700D03*
G01*
X15722600Y4965700D03*
G01*
X15976600Y4965700D03*
G01*
X16230600Y4965700D03*
G01*
X16484600Y4965700D03*
G01*
X16738600Y4965700D03*
G01*
X16992600Y4965700D03*
G01*
X16992600Y4203700D03*
G01*
X16738600Y4203700D03*
G01*
X16484600Y4203700D03*
G01*
X16230600Y4203700D03*
G01*
X15976600Y4203700D03*
G01*
X15722600Y4203700D03*
G01*
X15468600Y4203700D03*
D13*
G01*
X15214592Y4203702D03*
D12*
G01*
X24295100Y4826000D03*
G01*
X24549100Y4826000D03*
G01*
X24803100Y4826000D03*
G01*
X25057100Y4826000D03*
G01*
X25311100Y4826000D03*
G01*
X25565100Y4826000D03*
G01*
X25819100Y4826000D03*
G01*
X26073100Y4826000D03*
G01*
X26073100Y4064000D03*
G01*
X25819100Y4064000D03*
G01*
X25565100Y4064000D03*
G01*
X25311100Y4064000D03*
G01*
X25057100Y4064000D03*
G01*
X24803100Y4064000D03*
G01*
X24549100Y4064000D03*
D13*
G01*
X24295092Y4064002D03*
D14*
G01*
X17342104Y5840933D03*
G01*
X17437100Y5840933D03*
G01*
X17532095Y5840933D03*
D15*
G01*
X17532095Y6071666D03*
G01*
X17342104Y6071666D03*
D14*
G01*
X11754104Y5840933D03*
G01*
X11849100Y5840933D03*
G01*
X11944095Y5840933D03*
D15*
G01*
X11944095Y6071666D03*
G01*
X11754104Y6071666D03*
D16*
G01*
X15113000Y6604000D03*
G01*
X14859000Y6604000D03*
G01*
X14605000Y6604000D03*
G01*
X14351000Y6604000D03*
D17*
G01*
X14097000Y6604000D03*
D18*
G01*
X10668000Y3191992D03*
G01*
X10668000Y2142007D03*
G01*
X11938000Y3191992D03*
G01*
X11938000Y2142007D03*
G01*
X13208000Y3191992D03*
G01*
X13208000Y2142007D03*
G01*
X14478000Y3204692D03*
G01*
X14478000Y2154707D03*
G01*
X15748000Y3191992D03*
G01*
X15748000Y2142007D03*
G01*
X17018000Y3191992D03*
G01*
X17018000Y2142007D03*
G01*
X18288000Y3191992D03*
G01*
X18288000Y2142007D03*
G01*
X19558000Y3191992D03*
G01*
X19558000Y2142007D03*
G01*
X20828000Y3191992D03*
G01*
X20828000Y2142007D03*
G01*
X22098000Y3191992D03*
G01*
X22098000Y2142007D03*
G01*
X23368000Y3191992D03*
G01*
X23368000Y2142007D03*
G01*
X24638000Y3191992D03*
G01*
X24638000Y2142007D03*
G01*
X25908000Y3191992D03*
G01*
X25908000Y2142007D03*
G01*
X27178000Y3191992D03*
G01*
X27178000Y2142007D03*
G01*
X28448000Y3179292D03*
G01*
X28448000Y2129307D03*
G01*
X29718000Y3191992D03*
G01*
X29718000Y2142007D03*
D19*
G01*
X8127974Y2141981D03*
G01*
X8127974Y3191992D03*
G01*
X6858000Y2141981D03*
G01*
X6858000Y3191992D03*
G01*
X5588000Y2141981D03*
G01*
X5588000Y3191992D03*
G01*
X4318000Y2141981D03*
G01*
X4318000Y3191992D03*
G01*
X3035300Y2141981D03*
G01*
X3035300Y3191992D03*
G01*
X1778000Y2141981D03*
G01*
X1778000Y3191992D03*
G01*
X508000Y2141981D03*
G01*
X508000Y3191992D03*
G01*
X9385274Y2141981D03*
G01*
X9385274Y3191992D03*
M02*
