G04 Layer: TopSilkscreenLayer*
G04 EasyEDA v6.5.43, 2024-08-21 17:52:12*
G04 cb6e2e9fbd21486d88ae5690d2d3dc00,10*
G04 Gerber Generator version 0.2*
G04 Scale: 100 percent, Rotated: No, Reflected: No *
G04 Dimensions in millimeters *
G04 leading zeros omitted , absolute positions ,4 integer and 5 decimal *
%FSLAX45Y45*%
%MOMM*%

%ADD10C,0.1000*%
%ADD11C,0.1524*%
%ADD12C,0.2540*%
%ADD13C,0.2032*%
%ADD14C,0.2030*%
%ADD15C,0.3000*%
%ADD16C,0.0111*%

%LPD*%
D10*
X13972793Y6983476D02*
G01*
X13972793Y6901434D01*
X13931900Y6942581D02*
G01*
X14013688Y6942581D01*
X14098270Y6996937D02*
G01*
X14052804Y6996937D01*
X14048231Y6956044D01*
X14052804Y6960615D01*
X14066520Y6965187D01*
X14079981Y6965187D01*
X14093697Y6960615D01*
X14102841Y6951471D01*
X14107413Y6938010D01*
X14107413Y6928865D01*
X14102841Y6915150D01*
X14093697Y6906005D01*
X14079981Y6901434D01*
X14066520Y6901434D01*
X14052804Y6906005D01*
X14048231Y6910578D01*
X14043659Y6919721D01*
X14137386Y6996937D02*
G01*
X14173708Y6901434D01*
X14210029Y6996937D02*
G01*
X14173708Y6901434D01*
X14338554Y6983476D02*
G01*
X14329409Y6992365D01*
X14315693Y6996937D01*
X14297406Y6996937D01*
X14283943Y6992365D01*
X14274800Y6983476D01*
X14274800Y6974331D01*
X14279372Y6965187D01*
X14283943Y6960615D01*
X14293088Y6956044D01*
X14320266Y6946900D01*
X14329409Y6942581D01*
X14333981Y6938010D01*
X14338554Y6928865D01*
X14338554Y6915150D01*
X14329409Y6906005D01*
X14315693Y6901434D01*
X14297406Y6901434D01*
X14283943Y6906005D01*
X14274800Y6915150D01*
X14368525Y6996937D02*
G01*
X14368525Y6901434D01*
X14432025Y6996937D02*
G01*
X14432025Y6901434D01*
X14368525Y6951471D02*
G01*
X14432025Y6951471D01*
X14558772Y6974331D02*
G01*
X14554454Y6983476D01*
X14545309Y6992365D01*
X14536166Y6996937D01*
X14517877Y6996937D01*
X14508988Y6992365D01*
X14499843Y6983476D01*
X14495272Y6974331D01*
X14490700Y6960615D01*
X14490700Y6938010D01*
X14495272Y6924294D01*
X14499843Y6915150D01*
X14508988Y6906005D01*
X14517877Y6901434D01*
X14536166Y6901434D01*
X14545309Y6906005D01*
X14554454Y6915150D01*
X14558772Y6924294D01*
X14588997Y6996937D02*
G01*
X14588997Y6901434D01*
X14588997Y6901434D02*
G01*
X14643354Y6901434D01*
X14673325Y6996937D02*
G01*
X14673325Y6901434D01*
X14737079Y6996937D02*
G01*
X14673325Y6933437D01*
X14696186Y6956044D02*
G01*
X14737079Y6901434D01*
X14838172Y6974331D02*
G01*
X14833854Y6983476D01*
X14824709Y6992365D01*
X14815566Y6996937D01*
X14797277Y6996937D01*
X14788388Y6992365D01*
X14779243Y6983476D01*
X14774672Y6974331D01*
X14770100Y6960615D01*
X14770100Y6938010D01*
X14774672Y6924294D01*
X14779243Y6915150D01*
X14788388Y6906005D01*
X14797277Y6901434D01*
X14815566Y6901434D01*
X14824709Y6906005D01*
X14833854Y6915150D01*
X14838172Y6924294D01*
X14838172Y6938010D01*
X14815566Y6938010D02*
G01*
X14838172Y6938010D01*
X14868397Y6996937D02*
G01*
X14868397Y6901434D01*
X14868397Y6996937D02*
G01*
X14931897Y6901434D01*
X14931897Y6996937D02*
G01*
X14931897Y6901434D01*
X14961870Y6996937D02*
G01*
X14961870Y6901434D01*
X14961870Y6996937D02*
G01*
X14993620Y6996937D01*
X15007336Y6992365D01*
X15016479Y6983476D01*
X15021052Y6974331D01*
X15025624Y6960615D01*
X15025624Y6938010D01*
X15021052Y6924294D01*
X15016479Y6915150D01*
X15007336Y6906005D01*
X14993620Y6901434D01*
X14961870Y6901434D01*
X15102077Y6996937D02*
G01*
X15093188Y6992365D01*
X15084043Y6983476D01*
X15079472Y6974331D01*
X15074900Y6960615D01*
X15074900Y6938010D01*
X15079472Y6924294D01*
X15084043Y6915150D01*
X15093188Y6906005D01*
X15102077Y6901434D01*
X15120366Y6901434D01*
X15129509Y6906005D01*
X15138654Y6915150D01*
X15142972Y6924294D01*
X15147543Y6938010D01*
X15147543Y6960615D01*
X15142972Y6974331D01*
X15138654Y6983476D01*
X15129509Y6992365D01*
X15120366Y6996937D01*
X15102077Y6996937D01*
X15115793Y6919721D02*
G01*
X15142972Y6892544D01*
X15177516Y6996937D02*
G01*
X15177516Y6901434D01*
X15241270Y6996937D02*
G01*
X15241270Y6901434D01*
X15177516Y6951471D02*
G01*
X15241270Y6951471D01*
D11*
X5739937Y4624532D02*
G01*
X5729546Y4619335D01*
X5719155Y4608944D01*
X5713961Y4598555D01*
X5713961Y4577773D01*
X5719155Y4567382D01*
X5729546Y4556991D01*
X5739937Y4551794D01*
X5755525Y4546600D01*
X5781502Y4546600D01*
X5797087Y4551794D01*
X5807478Y4556991D01*
X5817870Y4567382D01*
X5823064Y4577773D01*
X5823064Y4598555D01*
X5817870Y4608944D01*
X5807478Y4619335D01*
X5797087Y4624532D01*
X5734743Y4658822D02*
G01*
X5729546Y4669213D01*
X5713961Y4684798D01*
X5823064Y4684798D01*
X13728237Y4624532D02*
G01*
X13717846Y4619335D01*
X13707455Y4608944D01*
X13702261Y4598555D01*
X13702261Y4577773D01*
X13707455Y4567382D01*
X13717846Y4556991D01*
X13728237Y4551794D01*
X13743825Y4546600D01*
X13769802Y4546600D01*
X13785387Y4551794D01*
X13795778Y4556991D01*
X13806170Y4567382D01*
X13811364Y4577773D01*
X13811364Y4598555D01*
X13806170Y4608944D01*
X13795778Y4619335D01*
X13785387Y4624532D01*
X13728237Y4664016D02*
G01*
X13723043Y4664016D01*
X13712652Y4669213D01*
X13707455Y4674407D01*
X13702261Y4684798D01*
X13702261Y4705581D01*
X13707455Y4715972D01*
X13712652Y4721166D01*
X13723043Y4726363D01*
X13733434Y4726363D01*
X13743825Y4721166D01*
X13759411Y4710775D01*
X13811364Y4658822D01*
X13811364Y4731557D01*
X10082009Y-1596644D02*
G01*
X10092423Y-1586229D01*
X10097503Y-1570736D01*
X10097503Y-1549907D01*
X10092423Y-1534413D01*
X10082009Y-1524000D01*
X10071595Y-1524000D01*
X10061181Y-1529079D01*
X10055847Y-1534413D01*
X10050767Y-1544828D01*
X10040353Y-1576070D01*
X10035273Y-1586229D01*
X10029939Y-1591563D01*
X10019525Y-1596644D01*
X10004031Y-1596644D01*
X9993617Y-1586229D01*
X9988537Y-1570736D01*
X9988537Y-1549907D01*
X9993617Y-1534413D01*
X10004031Y-1524000D01*
X10097503Y-1630934D02*
G01*
X9988537Y-1657095D01*
X10097503Y-1683004D02*
G01*
X9988537Y-1657095D01*
X10097503Y-1683004D02*
G01*
X9988537Y-1708912D01*
X10097503Y-1734820D02*
G01*
X9988537Y-1708912D01*
X10097503Y-1795271D02*
G01*
X10092423Y-1779523D01*
X10082009Y-1774444D01*
X10071595Y-1774444D01*
X10061181Y-1779523D01*
X10055847Y-1789937D01*
X10050767Y-1810765D01*
X10045687Y-1826260D01*
X10035273Y-1836673D01*
X10024859Y-1842007D01*
X10009111Y-1842007D01*
X9998697Y-1836673D01*
X9993617Y-1831594D01*
X9988537Y-1816100D01*
X9988537Y-1795271D01*
X9993617Y-1779523D01*
X9998697Y-1774444D01*
X10009111Y-1769110D01*
X10024859Y-1769110D01*
X10035273Y-1774444D01*
X10045687Y-1784857D01*
X10050767Y-1800352D01*
X10055847Y-1821179D01*
X10061181Y-1831594D01*
X10071595Y-1836673D01*
X10082009Y-1836673D01*
X10092423Y-1831594D01*
X10097503Y-1816100D01*
X10097503Y-1795271D01*
X11352009Y689355D02*
G01*
X11362423Y699770D01*
X11367503Y715263D01*
X11367503Y736092D01*
X11362423Y751586D01*
X11352009Y762000D01*
X11341595Y762000D01*
X11331181Y756920D01*
X11325847Y751586D01*
X11320767Y741171D01*
X11310353Y709929D01*
X11305273Y699770D01*
X11299939Y694436D01*
X11289525Y689355D01*
X11274031Y689355D01*
X11263617Y699770D01*
X11258537Y715263D01*
X11258537Y736092D01*
X11263617Y751586D01*
X11274031Y762000D01*
X11367503Y655065D02*
G01*
X11258537Y628904D01*
X11367503Y602995D02*
G01*
X11258537Y628904D01*
X11367503Y602995D02*
G01*
X11258537Y577087D01*
X11367503Y551179D02*
G01*
X11258537Y577087D01*
X11331181Y449326D02*
G01*
X11315687Y454405D01*
X11305273Y464820D01*
X11299939Y480313D01*
X11299939Y485647D01*
X11305273Y501142D01*
X11315687Y511555D01*
X11331181Y516889D01*
X11336261Y516889D01*
X11352009Y511555D01*
X11362423Y501142D01*
X11367503Y485647D01*
X11367503Y480313D01*
X11362423Y464820D01*
X11352009Y454405D01*
X11331181Y449326D01*
X11305273Y449326D01*
X11279111Y454405D01*
X11263617Y464820D01*
X11258537Y480313D01*
X11258537Y490728D01*
X11263617Y506476D01*
X11274031Y511555D01*
X12622009Y-1596644D02*
G01*
X12632423Y-1586229D01*
X12637503Y-1570736D01*
X12637503Y-1549907D01*
X12632423Y-1534413D01*
X12622009Y-1524000D01*
X12611595Y-1524000D01*
X12601181Y-1529079D01*
X12595847Y-1534413D01*
X12590767Y-1544828D01*
X12580353Y-1576070D01*
X12575273Y-1586229D01*
X12569939Y-1591563D01*
X12559525Y-1596644D01*
X12544031Y-1596644D01*
X12533617Y-1586229D01*
X12528537Y-1570736D01*
X12528537Y-1549907D01*
X12533617Y-1534413D01*
X12544031Y-1524000D01*
X12637503Y-1630934D02*
G01*
X12528537Y-1657095D01*
X12637503Y-1683004D02*
G01*
X12528537Y-1657095D01*
X12637503Y-1683004D02*
G01*
X12528537Y-1708912D01*
X12637503Y-1734820D02*
G01*
X12528537Y-1708912D01*
X12616675Y-1769110D02*
G01*
X12622009Y-1779523D01*
X12637503Y-1795271D01*
X12528537Y-1795271D01*
X12637503Y-1860550D02*
G01*
X12632423Y-1845055D01*
X12616675Y-1834642D01*
X12590767Y-1829562D01*
X12575273Y-1829562D01*
X12549111Y-1834642D01*
X12533617Y-1845055D01*
X12528537Y-1860550D01*
X12528537Y-1870963D01*
X12533617Y-1886712D01*
X12549111Y-1897126D01*
X12575273Y-1902205D01*
X12590767Y-1902205D01*
X12616675Y-1897126D01*
X12632423Y-1886712D01*
X12637503Y-1870963D01*
X12637503Y-1860550D01*
X13892009Y689355D02*
G01*
X13902423Y699770D01*
X13907503Y715263D01*
X13907503Y736092D01*
X13902423Y751586D01*
X13892009Y762000D01*
X13881595Y762000D01*
X13871181Y756920D01*
X13865847Y751586D01*
X13860767Y741171D01*
X13850353Y709929D01*
X13845273Y699770D01*
X13839939Y694436D01*
X13829525Y689355D01*
X13814031Y689355D01*
X13803617Y699770D01*
X13798537Y715263D01*
X13798537Y736092D01*
X13803617Y751586D01*
X13814031Y762000D01*
X13907503Y655065D02*
G01*
X13798537Y628904D01*
X13907503Y602995D02*
G01*
X13798537Y628904D01*
X13907503Y602995D02*
G01*
X13798537Y577087D01*
X13907503Y551179D02*
G01*
X13798537Y577087D01*
X13886675Y516889D02*
G01*
X13892009Y506476D01*
X13907503Y490728D01*
X13798537Y490728D01*
X13886675Y456437D02*
G01*
X13892009Y446023D01*
X13907503Y430529D01*
X13798537Y430529D01*
X15162009Y-1596644D02*
G01*
X15172423Y-1586229D01*
X15177503Y-1570736D01*
X15177503Y-1549907D01*
X15172423Y-1534413D01*
X15162009Y-1524000D01*
X15151595Y-1524000D01*
X15141181Y-1529079D01*
X15135847Y-1534413D01*
X15130767Y-1544828D01*
X15120353Y-1576070D01*
X15115273Y-1586229D01*
X15109939Y-1591563D01*
X15099525Y-1596644D01*
X15084031Y-1596644D01*
X15073617Y-1586229D01*
X15068537Y-1570736D01*
X15068537Y-1549907D01*
X15073617Y-1534413D01*
X15084031Y-1524000D01*
X15177503Y-1630934D02*
G01*
X15068537Y-1657095D01*
X15177503Y-1683004D02*
G01*
X15068537Y-1657095D01*
X15177503Y-1683004D02*
G01*
X15068537Y-1708912D01*
X15177503Y-1734820D02*
G01*
X15068537Y-1708912D01*
X15156675Y-1769110D02*
G01*
X15162009Y-1779523D01*
X15177503Y-1795271D01*
X15068537Y-1795271D01*
X15151595Y-1834642D02*
G01*
X15156675Y-1834642D01*
X15167089Y-1839976D01*
X15172423Y-1845055D01*
X15177503Y-1855470D01*
X15177503Y-1876297D01*
X15172423Y-1886712D01*
X15167089Y-1891792D01*
X15156675Y-1897126D01*
X15146261Y-1897126D01*
X15135847Y-1891792D01*
X15120353Y-1881378D01*
X15068537Y-1829562D01*
X15068537Y-1902205D01*
X16432009Y-1596644D02*
G01*
X16442423Y-1586229D01*
X16447503Y-1570736D01*
X16447503Y-1549907D01*
X16442423Y-1534413D01*
X16432009Y-1524000D01*
X16421595Y-1524000D01*
X16411181Y-1529079D01*
X16405847Y-1534413D01*
X16400767Y-1544828D01*
X16390353Y-1576070D01*
X16385273Y-1586229D01*
X16379939Y-1591563D01*
X16369525Y-1596644D01*
X16354031Y-1596644D01*
X16343617Y-1586229D01*
X16338537Y-1570736D01*
X16338537Y-1549907D01*
X16343617Y-1534413D01*
X16354031Y-1524000D01*
X16447503Y-1630934D02*
G01*
X16338537Y-1657095D01*
X16447503Y-1683004D02*
G01*
X16338537Y-1657095D01*
X16447503Y-1683004D02*
G01*
X16338537Y-1708912D01*
X16447503Y-1734820D02*
G01*
X16338537Y-1708912D01*
X16426675Y-1769110D02*
G01*
X16432009Y-1779523D01*
X16447503Y-1795271D01*
X16338537Y-1795271D01*
X16447503Y-1839976D02*
G01*
X16447503Y-1897126D01*
X16405847Y-1865884D01*
X16405847Y-1881378D01*
X16400767Y-1891792D01*
X16395687Y-1897126D01*
X16379939Y-1902205D01*
X16369525Y-1902205D01*
X16354031Y-1897126D01*
X16343617Y-1886712D01*
X16338537Y-1870963D01*
X16338537Y-1855470D01*
X16343617Y-1839976D01*
X16348697Y-1834642D01*
X16359111Y-1829562D01*
X17702009Y689355D02*
G01*
X17712423Y699770D01*
X17717503Y715263D01*
X17717503Y736092D01*
X17712423Y751586D01*
X17702009Y762000D01*
X17691595Y762000D01*
X17681181Y756920D01*
X17675847Y751586D01*
X17670767Y741171D01*
X17660353Y709929D01*
X17655273Y699770D01*
X17649939Y694436D01*
X17639525Y689355D01*
X17624031Y689355D01*
X17613617Y699770D01*
X17608537Y715263D01*
X17608537Y736092D01*
X17613617Y751586D01*
X17624031Y762000D01*
X17717503Y655065D02*
G01*
X17608537Y628904D01*
X17717503Y602995D02*
G01*
X17608537Y628904D01*
X17717503Y602995D02*
G01*
X17608537Y577087D01*
X17717503Y551179D02*
G01*
X17608537Y577087D01*
X17696675Y516889D02*
G01*
X17702009Y506476D01*
X17717503Y490728D01*
X17608537Y490728D01*
X17717503Y404621D02*
G01*
X17644859Y456437D01*
X17644859Y378460D01*
X17717503Y404621D02*
G01*
X17608537Y404621D01*
X18972009Y-1596644D02*
G01*
X18982423Y-1586229D01*
X18987503Y-1570736D01*
X18987503Y-1549907D01*
X18982423Y-1534413D01*
X18972009Y-1524000D01*
X18961595Y-1524000D01*
X18951181Y-1529079D01*
X18945847Y-1534413D01*
X18940767Y-1544828D01*
X18930353Y-1576070D01*
X18925273Y-1586229D01*
X18919939Y-1591563D01*
X18909525Y-1596644D01*
X18894031Y-1596644D01*
X18883617Y-1586229D01*
X18878537Y-1570736D01*
X18878537Y-1549907D01*
X18883617Y-1534413D01*
X18894031Y-1524000D01*
X18987503Y-1630934D02*
G01*
X18878537Y-1657095D01*
X18987503Y-1683004D02*
G01*
X18878537Y-1657095D01*
X18987503Y-1683004D02*
G01*
X18878537Y-1708912D01*
X18987503Y-1734820D02*
G01*
X18878537Y-1708912D01*
X18966675Y-1769110D02*
G01*
X18972009Y-1779523D01*
X18987503Y-1795271D01*
X18878537Y-1795271D01*
X18987503Y-1891792D02*
G01*
X18987503Y-1839976D01*
X18940767Y-1834642D01*
X18945847Y-1839976D01*
X18951181Y-1855470D01*
X18951181Y-1870963D01*
X18945847Y-1886712D01*
X18935687Y-1897126D01*
X18919939Y-1902205D01*
X18909525Y-1902205D01*
X18894031Y-1897126D01*
X18883617Y-1886712D01*
X18878537Y-1870963D01*
X18878537Y-1855470D01*
X18883617Y-1839976D01*
X18888697Y-1834642D01*
X18899111Y-1829562D01*
X20242009Y689355D02*
G01*
X20252423Y699770D01*
X20257503Y715263D01*
X20257503Y736092D01*
X20252423Y751586D01*
X20242009Y762000D01*
X20231595Y762000D01*
X20221181Y756920D01*
X20215847Y751586D01*
X20210767Y741171D01*
X20200353Y709929D01*
X20195273Y699770D01*
X20189939Y694436D01*
X20179525Y689355D01*
X20164031Y689355D01*
X20153617Y699770D01*
X20148537Y715263D01*
X20148537Y736092D01*
X20153617Y751586D01*
X20164031Y762000D01*
X20257503Y655065D02*
G01*
X20148537Y628904D01*
X20257503Y602995D02*
G01*
X20148537Y628904D01*
X20257503Y602995D02*
G01*
X20148537Y577087D01*
X20257503Y551179D02*
G01*
X20148537Y577087D01*
X20236675Y516889D02*
G01*
X20242009Y506476D01*
X20257503Y490728D01*
X20148537Y490728D01*
X20242009Y394207D02*
G01*
X20252423Y399287D01*
X20257503Y415036D01*
X20257503Y425450D01*
X20252423Y440944D01*
X20236675Y451357D01*
X20210767Y456437D01*
X20184859Y456437D01*
X20164031Y451357D01*
X20153617Y440944D01*
X20148537Y425450D01*
X20148537Y420115D01*
X20153617Y404621D01*
X20164031Y394207D01*
X20179525Y388873D01*
X20184859Y388873D01*
X20200353Y394207D01*
X20210767Y404621D01*
X20215847Y420115D01*
X20215847Y425450D01*
X20210767Y440944D01*
X20200353Y451357D01*
X20184859Y456437D01*
X21512009Y-1596644D02*
G01*
X21522423Y-1586229D01*
X21527503Y-1570736D01*
X21527503Y-1549907D01*
X21522423Y-1534413D01*
X21512009Y-1524000D01*
X21501595Y-1524000D01*
X21491181Y-1529079D01*
X21485847Y-1534413D01*
X21480767Y-1544828D01*
X21470353Y-1576070D01*
X21465273Y-1586229D01*
X21459939Y-1591563D01*
X21449525Y-1596644D01*
X21434031Y-1596644D01*
X21423617Y-1586229D01*
X21418537Y-1570736D01*
X21418537Y-1549907D01*
X21423617Y-1534413D01*
X21434031Y-1524000D01*
X21527503Y-1630934D02*
G01*
X21418537Y-1657095D01*
X21527503Y-1683004D02*
G01*
X21418537Y-1657095D01*
X21527503Y-1683004D02*
G01*
X21418537Y-1708912D01*
X21527503Y-1734820D02*
G01*
X21418537Y-1708912D01*
X21506675Y-1769110D02*
G01*
X21512009Y-1779523D01*
X21527503Y-1795271D01*
X21418537Y-1795271D01*
X21527503Y-1902205D02*
G01*
X21418537Y-1850389D01*
X21527503Y-1829562D02*
G01*
X21527503Y-1902205D01*
X22782009Y-1596644D02*
G01*
X22792423Y-1586229D01*
X22797503Y-1570736D01*
X22797503Y-1549907D01*
X22792423Y-1534413D01*
X22782009Y-1524000D01*
X22771595Y-1524000D01*
X22761181Y-1529079D01*
X22755847Y-1534413D01*
X22750767Y-1544828D01*
X22740353Y-1576070D01*
X22735273Y-1586229D01*
X22729939Y-1591563D01*
X22719525Y-1596644D01*
X22704031Y-1596644D01*
X22693617Y-1586229D01*
X22688537Y-1570736D01*
X22688537Y-1549907D01*
X22693617Y-1534413D01*
X22704031Y-1524000D01*
X22797503Y-1630934D02*
G01*
X22688537Y-1657095D01*
X22797503Y-1683004D02*
G01*
X22688537Y-1657095D01*
X22797503Y-1683004D02*
G01*
X22688537Y-1708912D01*
X22797503Y-1734820D02*
G01*
X22688537Y-1708912D01*
X22776675Y-1769110D02*
G01*
X22782009Y-1779523D01*
X22797503Y-1795271D01*
X22688537Y-1795271D01*
X22797503Y-1855470D02*
G01*
X22792423Y-1839976D01*
X22782009Y-1834642D01*
X22771595Y-1834642D01*
X22761181Y-1839976D01*
X22755847Y-1850389D01*
X22750767Y-1870963D01*
X22745687Y-1886712D01*
X22735273Y-1897126D01*
X22724859Y-1902205D01*
X22709111Y-1902205D01*
X22698697Y-1897126D01*
X22693617Y-1891792D01*
X22688537Y-1876297D01*
X22688537Y-1855470D01*
X22693617Y-1839976D01*
X22698697Y-1834642D01*
X22709111Y-1829562D01*
X22724859Y-1829562D01*
X22735273Y-1834642D01*
X22745687Y-1845055D01*
X22750767Y-1860550D01*
X22755847Y-1881378D01*
X22761181Y-1891792D01*
X22771595Y-1897126D01*
X22782009Y-1897126D01*
X22792423Y-1891792D01*
X22797503Y-1876297D01*
X22797503Y-1855470D01*
X24052009Y689355D02*
G01*
X24062423Y699770D01*
X24067503Y715263D01*
X24067503Y736092D01*
X24062423Y751586D01*
X24052009Y762000D01*
X24041595Y762000D01*
X24031181Y756920D01*
X24025847Y751586D01*
X24020767Y741171D01*
X24010353Y709929D01*
X24005273Y699770D01*
X23999939Y694436D01*
X23989525Y689355D01*
X23974031Y689355D01*
X23963617Y699770D01*
X23958537Y715263D01*
X23958537Y736092D01*
X23963617Y751586D01*
X23974031Y762000D01*
X24067503Y655065D02*
G01*
X23958537Y628904D01*
X24067503Y602995D02*
G01*
X23958537Y628904D01*
X24067503Y602995D02*
G01*
X23958537Y577087D01*
X24067503Y551179D02*
G01*
X23958537Y577087D01*
X24046675Y516889D02*
G01*
X24052009Y506476D01*
X24067503Y490728D01*
X23958537Y490728D01*
X24031181Y388873D02*
G01*
X24015687Y394207D01*
X24005273Y404621D01*
X23999939Y420115D01*
X23999939Y425450D01*
X24005273Y440944D01*
X24015687Y451357D01*
X24031181Y456437D01*
X24036261Y456437D01*
X24052009Y451357D01*
X24062423Y440944D01*
X24067503Y425450D01*
X24067503Y420115D01*
X24062423Y404621D01*
X24052009Y394207D01*
X24031181Y388873D01*
X24005273Y388873D01*
X23979111Y394207D01*
X23963617Y404621D01*
X23958537Y420115D01*
X23958537Y430529D01*
X23963617Y446023D01*
X23974031Y451357D01*
X25322009Y-1596644D02*
G01*
X25332423Y-1586229D01*
X25337503Y-1570736D01*
X25337503Y-1549907D01*
X25332423Y-1534413D01*
X25322009Y-1524000D01*
X25311595Y-1524000D01*
X25301181Y-1529079D01*
X25295847Y-1534413D01*
X25290767Y-1544828D01*
X25280353Y-1576070D01*
X25275273Y-1586229D01*
X25269939Y-1591563D01*
X25259525Y-1596644D01*
X25244031Y-1596644D01*
X25233617Y-1586229D01*
X25228537Y-1570736D01*
X25228537Y-1549907D01*
X25233617Y-1534413D01*
X25244031Y-1524000D01*
X25337503Y-1630934D02*
G01*
X25228537Y-1657095D01*
X25337503Y-1683004D02*
G01*
X25228537Y-1657095D01*
X25337503Y-1683004D02*
G01*
X25228537Y-1708912D01*
X25337503Y-1734820D02*
G01*
X25228537Y-1708912D01*
X25311595Y-1774444D02*
G01*
X25316675Y-1774444D01*
X25327089Y-1779523D01*
X25332423Y-1784857D01*
X25337503Y-1795271D01*
X25337503Y-1816100D01*
X25332423Y-1826260D01*
X25327089Y-1831594D01*
X25316675Y-1836673D01*
X25306261Y-1836673D01*
X25295847Y-1831594D01*
X25280353Y-1821179D01*
X25228537Y-1769110D01*
X25228537Y-1842007D01*
X25337503Y-1907539D02*
G01*
X25332423Y-1891792D01*
X25316675Y-1881378D01*
X25290767Y-1876297D01*
X25275273Y-1876297D01*
X25249111Y-1881378D01*
X25233617Y-1891792D01*
X25228537Y-1907539D01*
X25228537Y-1917700D01*
X25233617Y-1933447D01*
X25249111Y-1943862D01*
X25275273Y-1948942D01*
X25290767Y-1948942D01*
X25316675Y-1943862D01*
X25332423Y-1933447D01*
X25337503Y-1917700D01*
X25337503Y-1907539D01*
X26591955Y689355D02*
G01*
X26602369Y699770D01*
X26607449Y715263D01*
X26607449Y736092D01*
X26602369Y751586D01*
X26591955Y762000D01*
X26581541Y762000D01*
X26571127Y756920D01*
X26565793Y751586D01*
X26560713Y741171D01*
X26550299Y709929D01*
X26545219Y699770D01*
X26539885Y694436D01*
X26529471Y689355D01*
X26513977Y689355D01*
X26503563Y699770D01*
X26498483Y715263D01*
X26498483Y736092D01*
X26503563Y751586D01*
X26513977Y762000D01*
X26607449Y655065D02*
G01*
X26498483Y628904D01*
X26607449Y602995D02*
G01*
X26498483Y628904D01*
X26607449Y602995D02*
G01*
X26498483Y577087D01*
X26607449Y551179D02*
G01*
X26498483Y577087D01*
X26581541Y511555D02*
G01*
X26586621Y511555D01*
X26597035Y506476D01*
X26602369Y501142D01*
X26607449Y490728D01*
X26607449Y469900D01*
X26602369Y459739D01*
X26597035Y454405D01*
X26586621Y449326D01*
X26576207Y449326D01*
X26565793Y454405D01*
X26550299Y464820D01*
X26498483Y516889D01*
X26498483Y443992D01*
X26586621Y409702D02*
G01*
X26591955Y399287D01*
X26607449Y383794D01*
X26498483Y383794D01*
X27861953Y-1596644D02*
G01*
X27872367Y-1586229D01*
X27877447Y-1570736D01*
X27877447Y-1549907D01*
X27872367Y-1534413D01*
X27861953Y-1524000D01*
X27851539Y-1524000D01*
X27841125Y-1529079D01*
X27835791Y-1534413D01*
X27830711Y-1544828D01*
X27820297Y-1576070D01*
X27815217Y-1586229D01*
X27809883Y-1591563D01*
X27799469Y-1596644D01*
X27783975Y-1596644D01*
X27773561Y-1586229D01*
X27768481Y-1570736D01*
X27768481Y-1549907D01*
X27773561Y-1534413D01*
X27783975Y-1524000D01*
X27877447Y-1630934D02*
G01*
X27768481Y-1657095D01*
X27877447Y-1683004D02*
G01*
X27768481Y-1657095D01*
X27877447Y-1683004D02*
G01*
X27768481Y-1708912D01*
X27877447Y-1734820D02*
G01*
X27768481Y-1708912D01*
X27851539Y-1774444D02*
G01*
X27856619Y-1774444D01*
X27867033Y-1779523D01*
X27872367Y-1784857D01*
X27877447Y-1795271D01*
X27877447Y-1816100D01*
X27872367Y-1826260D01*
X27867033Y-1831594D01*
X27856619Y-1836673D01*
X27846205Y-1836673D01*
X27835791Y-1831594D01*
X27820297Y-1821179D01*
X27768481Y-1769110D01*
X27768481Y-1842007D01*
X27851539Y-1881378D02*
G01*
X27856619Y-1881378D01*
X27867033Y-1886712D01*
X27872367Y-1891792D01*
X27877447Y-1902205D01*
X27877447Y-1923034D01*
X27872367Y-1933447D01*
X27867033Y-1938528D01*
X27856619Y-1943862D01*
X27846205Y-1943862D01*
X27835791Y-1938528D01*
X27820297Y-1928113D01*
X27768481Y-1876297D01*
X27768481Y-1948942D01*
X29131950Y689355D02*
G01*
X29142364Y699770D01*
X29147444Y715263D01*
X29147444Y736092D01*
X29142364Y751586D01*
X29131950Y762000D01*
X29121536Y762000D01*
X29111122Y756920D01*
X29105788Y751586D01*
X29100708Y741171D01*
X29090294Y709929D01*
X29085214Y699770D01*
X29079880Y694436D01*
X29069466Y689355D01*
X29053972Y689355D01*
X29043558Y699770D01*
X29038478Y715263D01*
X29038478Y736092D01*
X29043558Y751586D01*
X29053972Y762000D01*
X29147444Y655065D02*
G01*
X29038478Y628904D01*
X29147444Y602995D02*
G01*
X29038478Y628904D01*
X29147444Y602995D02*
G01*
X29038478Y577087D01*
X29147444Y551179D02*
G01*
X29038478Y577087D01*
X29121536Y511555D02*
G01*
X29126616Y511555D01*
X29137030Y506476D01*
X29142364Y501142D01*
X29147444Y490728D01*
X29147444Y469900D01*
X29142364Y459739D01*
X29137030Y454405D01*
X29126616Y449326D01*
X29116202Y449326D01*
X29105788Y454405D01*
X29090294Y464820D01*
X29038478Y516889D01*
X29038478Y443992D01*
X29147444Y399287D02*
G01*
X29147444Y342137D01*
X29105788Y373379D01*
X29105788Y357886D01*
X29100708Y347471D01*
X29095628Y342137D01*
X29079880Y337057D01*
X29069466Y337057D01*
X29053972Y342137D01*
X29043558Y352552D01*
X29038478Y368300D01*
X29038478Y383794D01*
X29043558Y399287D01*
X29048638Y404621D01*
X29059052Y409702D01*
X30401948Y-1596644D02*
G01*
X30412362Y-1586229D01*
X30417442Y-1570736D01*
X30417442Y-1549907D01*
X30412362Y-1534413D01*
X30401948Y-1524000D01*
X30391534Y-1524000D01*
X30381120Y-1529079D01*
X30375786Y-1534413D01*
X30370706Y-1544828D01*
X30360292Y-1576070D01*
X30355212Y-1586229D01*
X30349878Y-1591563D01*
X30339464Y-1596644D01*
X30323970Y-1596644D01*
X30313556Y-1586229D01*
X30308476Y-1570736D01*
X30308476Y-1549907D01*
X30313556Y-1534413D01*
X30323970Y-1524000D01*
X30417442Y-1630934D02*
G01*
X30308476Y-1657095D01*
X30417442Y-1683004D02*
G01*
X30308476Y-1657095D01*
X30417442Y-1683004D02*
G01*
X30308476Y-1708912D01*
X30417442Y-1734820D02*
G01*
X30308476Y-1708912D01*
X30391534Y-1774444D02*
G01*
X30396614Y-1774444D01*
X30407028Y-1779523D01*
X30412362Y-1784857D01*
X30417442Y-1795271D01*
X30417442Y-1816100D01*
X30412362Y-1826260D01*
X30407028Y-1831594D01*
X30396614Y-1836673D01*
X30386200Y-1836673D01*
X30375786Y-1831594D01*
X30360292Y-1821179D01*
X30308476Y-1769110D01*
X30308476Y-1842007D01*
X30417442Y-1928113D02*
G01*
X30344798Y-1876297D01*
X30344798Y-1954276D01*
X30417442Y-1928113D02*
G01*
X30308476Y-1928113D01*
X1192009Y-1596669D02*
G01*
X1202423Y-1586255D01*
X1207503Y-1570761D01*
X1207503Y-1549933D01*
X1202423Y-1534439D01*
X1192009Y-1524025D01*
X1181595Y-1524025D01*
X1171181Y-1529105D01*
X1165847Y-1534439D01*
X1160767Y-1544853D01*
X1150353Y-1575841D01*
X1145273Y-1586255D01*
X1139939Y-1591589D01*
X1129525Y-1596669D01*
X1114031Y-1596669D01*
X1103617Y-1586255D01*
X1098537Y-1570761D01*
X1098537Y-1549933D01*
X1103617Y-1534439D01*
X1114031Y-1524025D01*
X1207503Y-1630959D02*
G01*
X1098537Y-1657121D01*
X1207503Y-1683029D02*
G01*
X1098537Y-1657121D01*
X1207503Y-1683029D02*
G01*
X1098537Y-1708937D01*
X1207503Y-1734845D02*
G01*
X1098537Y-1708937D01*
X1186675Y-1769135D02*
G01*
X1192009Y-1779549D01*
X1207503Y-1795297D01*
X1098537Y-1795297D01*
X2462009Y689355D02*
G01*
X2472423Y699770D01*
X2477503Y715263D01*
X2477503Y736092D01*
X2472423Y751586D01*
X2462009Y762000D01*
X2451595Y762000D01*
X2441181Y756920D01*
X2435847Y751586D01*
X2430767Y741171D01*
X2420353Y709929D01*
X2415273Y699770D01*
X2409939Y694436D01*
X2399525Y689355D01*
X2384031Y689355D01*
X2373617Y699770D01*
X2368283Y715263D01*
X2368283Y736092D01*
X2373617Y751586D01*
X2384031Y762000D01*
X2477503Y655065D02*
G01*
X2368283Y628904D01*
X2477503Y602995D02*
G01*
X2368283Y628904D01*
X2477503Y602995D02*
G01*
X2368283Y577087D01*
X2477503Y551179D02*
G01*
X2368283Y577087D01*
X2451595Y511555D02*
G01*
X2456675Y511555D01*
X2467089Y506476D01*
X2472423Y501142D01*
X2477503Y490728D01*
X2477503Y469900D01*
X2472423Y459739D01*
X2467089Y454405D01*
X2456675Y449326D01*
X2446261Y449326D01*
X2435847Y454405D01*
X2420353Y464820D01*
X2368283Y516889D01*
X2368283Y443992D01*
X3732009Y-1596644D02*
G01*
X3742423Y-1586229D01*
X3747503Y-1570736D01*
X3747503Y-1549907D01*
X3742423Y-1534413D01*
X3732009Y-1524000D01*
X3721595Y-1524000D01*
X3711181Y-1529079D01*
X3705847Y-1534413D01*
X3700767Y-1544828D01*
X3690353Y-1576070D01*
X3685273Y-1586229D01*
X3679939Y-1591563D01*
X3669525Y-1596644D01*
X3654031Y-1596644D01*
X3643617Y-1586229D01*
X3638283Y-1570736D01*
X3638283Y-1549907D01*
X3643617Y-1534413D01*
X3654031Y-1524000D01*
X3747503Y-1630934D02*
G01*
X3638283Y-1657095D01*
X3747503Y-1683004D02*
G01*
X3638283Y-1657095D01*
X3747503Y-1683004D02*
G01*
X3638283Y-1708912D01*
X3747503Y-1734820D02*
G01*
X3638283Y-1708912D01*
X3747503Y-1779523D02*
G01*
X3747503Y-1836673D01*
X3705847Y-1805686D01*
X3705847Y-1821179D01*
X3700767Y-1831594D01*
X3695433Y-1836673D01*
X3679939Y-1842007D01*
X3669525Y-1842007D01*
X3654031Y-1836673D01*
X3643617Y-1826260D01*
X3638283Y-1810765D01*
X3638283Y-1795271D01*
X3643617Y-1779523D01*
X3648697Y-1774444D01*
X3659111Y-1769110D01*
X5002009Y689355D02*
G01*
X5012423Y699770D01*
X5017503Y715263D01*
X5017503Y736092D01*
X5012423Y751586D01*
X5002009Y762000D01*
X4991595Y762000D01*
X4981181Y756920D01*
X4975847Y751586D01*
X4970767Y741171D01*
X4960353Y709929D01*
X4955273Y699770D01*
X4949939Y694436D01*
X4939525Y689355D01*
X4924031Y689355D01*
X4913617Y699770D01*
X4908283Y715263D01*
X4908283Y736092D01*
X4913617Y751586D01*
X4924031Y762000D01*
X5017503Y655065D02*
G01*
X4908283Y628904D01*
X5017503Y602995D02*
G01*
X4908283Y628904D01*
X5017503Y602995D02*
G01*
X4908283Y577087D01*
X5017503Y551179D02*
G01*
X4908283Y577087D01*
X5017503Y464820D02*
G01*
X4944859Y516889D01*
X4944859Y438912D01*
X5017503Y464820D02*
G01*
X4908283Y464820D01*
X6272009Y-1596644D02*
G01*
X6282423Y-1586229D01*
X6287503Y-1570736D01*
X6287503Y-1549907D01*
X6282423Y-1534413D01*
X6272009Y-1524000D01*
X6261595Y-1524000D01*
X6251181Y-1529079D01*
X6245847Y-1534413D01*
X6240767Y-1544828D01*
X6230353Y-1576070D01*
X6225273Y-1586229D01*
X6219939Y-1591563D01*
X6209525Y-1596644D01*
X6194031Y-1596644D01*
X6183617Y-1586229D01*
X6178283Y-1570736D01*
X6178283Y-1549907D01*
X6183617Y-1534413D01*
X6194031Y-1524000D01*
X6287503Y-1630934D02*
G01*
X6178283Y-1657095D01*
X6287503Y-1683004D02*
G01*
X6178283Y-1657095D01*
X6287503Y-1683004D02*
G01*
X6178283Y-1708912D01*
X6287503Y-1734820D02*
G01*
X6178283Y-1708912D01*
X6287503Y-1831594D02*
G01*
X6287503Y-1779523D01*
X6240767Y-1774444D01*
X6245847Y-1779523D01*
X6251181Y-1795271D01*
X6251181Y-1810765D01*
X6245847Y-1826260D01*
X6235433Y-1836673D01*
X6219939Y-1842007D01*
X6209525Y-1842007D01*
X6194031Y-1836673D01*
X6183617Y-1826260D01*
X6178283Y-1810765D01*
X6178283Y-1795271D01*
X6183617Y-1779523D01*
X6188697Y-1774444D01*
X6199111Y-1769110D01*
X7542009Y-1596644D02*
G01*
X7552423Y-1586229D01*
X7557503Y-1570736D01*
X7557503Y-1549907D01*
X7552423Y-1534413D01*
X7542009Y-1524000D01*
X7531595Y-1524000D01*
X7521181Y-1529079D01*
X7515847Y-1534413D01*
X7510767Y-1544828D01*
X7500353Y-1576070D01*
X7495273Y-1586229D01*
X7489939Y-1591563D01*
X7479525Y-1596644D01*
X7464031Y-1596644D01*
X7453617Y-1586229D01*
X7448283Y-1570736D01*
X7448283Y-1549907D01*
X7453617Y-1534413D01*
X7464031Y-1524000D01*
X7557503Y-1630934D02*
G01*
X7448283Y-1657095D01*
X7557503Y-1683004D02*
G01*
X7448283Y-1657095D01*
X7557503Y-1683004D02*
G01*
X7448283Y-1708912D01*
X7557503Y-1734820D02*
G01*
X7448283Y-1708912D01*
X7542009Y-1831594D02*
G01*
X7552423Y-1826260D01*
X7557503Y-1810765D01*
X7557503Y-1800352D01*
X7552423Y-1784857D01*
X7536675Y-1774444D01*
X7510767Y-1769110D01*
X7484859Y-1769110D01*
X7464031Y-1774444D01*
X7453617Y-1784857D01*
X7448283Y-1800352D01*
X7448283Y-1805686D01*
X7453617Y-1821179D01*
X7464031Y-1831594D01*
X7479525Y-1836673D01*
X7484859Y-1836673D01*
X7500353Y-1831594D01*
X7510767Y-1821179D01*
X7515847Y-1805686D01*
X7515847Y-1800352D01*
X7510767Y-1784857D01*
X7500353Y-1774444D01*
X7484859Y-1769110D01*
X8812009Y689355D02*
G01*
X8822423Y699770D01*
X8827503Y715263D01*
X8827503Y736092D01*
X8822423Y751586D01*
X8812009Y762000D01*
X8801595Y762000D01*
X8791181Y756920D01*
X8785847Y751586D01*
X8780767Y741171D01*
X8770353Y709929D01*
X8765273Y699770D01*
X8759939Y694436D01*
X8749525Y689355D01*
X8734031Y689355D01*
X8723617Y699770D01*
X8718283Y715263D01*
X8718283Y736092D01*
X8723617Y751586D01*
X8734031Y762000D01*
X8827503Y655065D02*
G01*
X8718283Y628904D01*
X8827503Y602995D02*
G01*
X8718283Y628904D01*
X8827503Y602995D02*
G01*
X8718283Y577087D01*
X8827503Y551179D02*
G01*
X8718283Y577087D01*
X8827503Y443992D02*
G01*
X8718283Y496062D01*
X8827503Y516889D02*
G01*
X8827503Y443992D01*
X23240491Y4535678D02*
G01*
X23230077Y4530344D01*
X23219663Y4519929D01*
X23214584Y4509770D01*
X23214584Y4488942D01*
X23219663Y4478528D01*
X23230077Y4468113D01*
X23240491Y4462779D01*
X23256240Y4457700D01*
X23282148Y4457700D01*
X23297641Y4462779D01*
X23308056Y4468113D01*
X23318470Y4478528D01*
X23323550Y4488942D01*
X23323550Y4509770D01*
X23318470Y4519929D01*
X23308056Y4530344D01*
X23297641Y4535678D01*
X23230077Y4632197D02*
G01*
X23219663Y4627118D01*
X23214584Y4611370D01*
X23214584Y4601210D01*
X23219663Y4585462D01*
X23235411Y4575047D01*
X23261320Y4569968D01*
X23287227Y4569968D01*
X23308056Y4575047D01*
X23318470Y4585462D01*
X23323550Y4601210D01*
X23323550Y4606289D01*
X23318470Y4621784D01*
X23308056Y4632197D01*
X23292561Y4637531D01*
X23287227Y4637531D01*
X23271734Y4632197D01*
X23261320Y4621784D01*
X23256240Y4606289D01*
X23256240Y4601210D01*
X23261320Y4585462D01*
X23271734Y4575047D01*
X23287227Y4569968D01*
X7862163Y5191937D02*
G01*
X7862163Y5113959D01*
X7867243Y5098465D01*
X7877657Y5088051D01*
X7893405Y5082971D01*
X7903819Y5082971D01*
X7919313Y5088051D01*
X7929727Y5098465D01*
X7934807Y5113959D01*
X7934807Y5191937D01*
X7969097Y5171109D02*
G01*
X7979511Y5176443D01*
X7995259Y5191937D01*
X7995259Y5082971D01*
X16091763Y5204637D02*
G01*
X16091763Y5126659D01*
X16096843Y5111165D01*
X16107257Y5100751D01*
X16123005Y5095671D01*
X16133419Y5095671D01*
X16148913Y5100751D01*
X16159327Y5111165D01*
X16164407Y5126659D01*
X16164407Y5204637D01*
X16204031Y5178729D02*
G01*
X16204031Y5183809D01*
X16209111Y5194223D01*
X16214445Y5199557D01*
X16224859Y5204637D01*
X16245433Y5204637D01*
X16255847Y5199557D01*
X16261181Y5194223D01*
X16266261Y5183809D01*
X16266261Y5173395D01*
X16261181Y5162981D01*
X16250767Y5147487D01*
X16198697Y5095671D01*
X16271595Y5095671D01*
X25172263Y5064937D02*
G01*
X25172263Y4986959D01*
X25177343Y4971465D01*
X25187757Y4961051D01*
X25203505Y4955971D01*
X25213919Y4955971D01*
X25229413Y4961051D01*
X25239827Y4971465D01*
X25244907Y4986959D01*
X25244907Y5064937D01*
X25289611Y5064937D02*
G01*
X25346761Y5064937D01*
X25315773Y5023281D01*
X25331267Y5023281D01*
X25341681Y5018201D01*
X25346761Y5013121D01*
X25352095Y4997373D01*
X25352095Y4986959D01*
X25346761Y4971465D01*
X25336347Y4961051D01*
X25320853Y4955971D01*
X25305359Y4955971D01*
X25289611Y4961051D01*
X25284531Y4966131D01*
X25279197Y4976545D01*
X17411700Y6318504D02*
G01*
X17411700Y6209537D01*
X17411700Y6318504D02*
G01*
X17458436Y6318504D01*
X17473929Y6313423D01*
X17479263Y6308089D01*
X17484343Y6297676D01*
X17484343Y6287262D01*
X17479263Y6276847D01*
X17473929Y6271768D01*
X17458436Y6266687D01*
X17411700Y6266687D02*
G01*
X17458436Y6266687D01*
X17473929Y6261354D01*
X17479263Y6256273D01*
X17484343Y6245860D01*
X17484343Y6230112D01*
X17479263Y6219697D01*
X17473929Y6214618D01*
X17458436Y6209537D01*
X17411700Y6209537D01*
X17518634Y6297676D02*
G01*
X17529048Y6303010D01*
X17544795Y6318504D01*
X17544795Y6209537D01*
X17579086Y6172962D02*
G01*
X17672558Y6172962D01*
X17784825Y6292595D02*
G01*
X17779491Y6303010D01*
X17769077Y6313423D01*
X17758663Y6318504D01*
X17738090Y6318504D01*
X17727675Y6313423D01*
X17717261Y6303010D01*
X17711927Y6292595D01*
X17706848Y6276847D01*
X17706848Y6250939D01*
X17711927Y6235445D01*
X17717261Y6225031D01*
X17727675Y6214618D01*
X17738090Y6209537D01*
X17758663Y6209537D01*
X17769077Y6214618D01*
X17779491Y6225031D01*
X17784825Y6235445D01*
X17819116Y6318504D02*
G01*
X17819116Y6209537D01*
X17819116Y6209537D02*
G01*
X17881345Y6209537D01*
X17915636Y6318504D02*
G01*
X17915636Y6209537D01*
X17988279Y6318504D02*
G01*
X17915636Y6245860D01*
X17941543Y6271768D02*
G01*
X17988279Y6209537D01*
X11774576Y6318504D02*
G01*
X11774576Y6209537D01*
X11774576Y6318504D02*
G01*
X11821312Y6318504D01*
X11836806Y6313423D01*
X11842140Y6308089D01*
X11847220Y6297676D01*
X11847220Y6287262D01*
X11842140Y6276847D01*
X11836806Y6271768D01*
X11821312Y6266687D01*
X11774576Y6266687D02*
G01*
X11821312Y6266687D01*
X11836806Y6261354D01*
X11842140Y6256273D01*
X11847220Y6245860D01*
X11847220Y6230112D01*
X11842140Y6219697D01*
X11836806Y6214618D01*
X11821312Y6209537D01*
X11774576Y6209537D01*
X11886844Y6292595D02*
G01*
X11886844Y6297676D01*
X11891924Y6308089D01*
X11897258Y6313423D01*
X11907672Y6318504D01*
X11928246Y6318504D01*
X11938660Y6313423D01*
X11943994Y6308089D01*
X11949074Y6297676D01*
X11949074Y6287262D01*
X11943994Y6276847D01*
X11933580Y6261354D01*
X11881510Y6209537D01*
X11954408Y6209537D01*
X11988698Y6172962D02*
G01*
X12082170Y6172962D01*
X12189104Y6303010D02*
G01*
X12178690Y6313423D01*
X12163196Y6318504D01*
X12142368Y6318504D01*
X12126874Y6313423D01*
X12116460Y6303010D01*
X12116460Y6292595D01*
X12121540Y6282181D01*
X12126874Y6276847D01*
X12137288Y6271768D01*
X12168276Y6261354D01*
X12178690Y6256273D01*
X12184024Y6250939D01*
X12189104Y6240526D01*
X12189104Y6225031D01*
X12178690Y6214618D01*
X12163196Y6209537D01*
X12142368Y6209537D01*
X12126874Y6214618D01*
X12116460Y6225031D01*
X12223394Y6318504D02*
G01*
X12223394Y6209537D01*
X12296292Y6318504D02*
G01*
X12296292Y6209537D01*
X12223394Y6266687D02*
G01*
X12296292Y6266687D01*
X14579600Y6871715D02*
G01*
X14579600Y6762750D01*
X14652243Y6871715D02*
G01*
X14652243Y6762750D01*
X14579600Y6819900D02*
G01*
X14652243Y6819900D01*
X14686534Y6850887D02*
G01*
X14696947Y6856221D01*
X14712695Y6871715D01*
X14712695Y6762750D01*
X10400261Y2666994D02*
G01*
X10509364Y2666994D01*
X10400261Y2666994D02*
G01*
X10400261Y2713753D01*
X10405455Y2729339D01*
X10410652Y2734536D01*
X10421043Y2739730D01*
X10431434Y2739730D01*
X10441825Y2734536D01*
X10447020Y2729339D01*
X10452214Y2713753D01*
X10452214Y2666994D01*
X10452214Y2703362D02*
G01*
X10509364Y2739730D01*
X10436628Y2841561D02*
G01*
X10452214Y2836367D01*
X10462605Y2825976D01*
X10467802Y2810390D01*
X10467802Y2805193D01*
X10462605Y2789608D01*
X10452214Y2779217D01*
X10436628Y2774020D01*
X10431434Y2774020D01*
X10415846Y2779217D01*
X10405455Y2789608D01*
X10400261Y2805193D01*
X10400261Y2810390D01*
X10405455Y2825976D01*
X10415846Y2836367D01*
X10436628Y2841561D01*
X10462605Y2841561D01*
X10488584Y2836367D01*
X10504170Y2825976D01*
X10509364Y2810390D01*
X10509364Y2799999D01*
X10504170Y2784411D01*
X10493778Y2779217D01*
X11670261Y2667000D02*
G01*
X11779364Y2667000D01*
X11670261Y2667000D02*
G01*
X11670261Y2713758D01*
X11675455Y2729344D01*
X11680652Y2734541D01*
X11691043Y2739735D01*
X11701434Y2739735D01*
X11711825Y2734541D01*
X11717020Y2729344D01*
X11722214Y2713758D01*
X11722214Y2667000D01*
X11722214Y2703367D02*
G01*
X11779364Y2739735D01*
X11691043Y2774025D02*
G01*
X11685846Y2784416D01*
X11670261Y2800004D01*
X11779364Y2800004D01*
X11670261Y2865465D02*
G01*
X11675455Y2849879D01*
X11691043Y2839488D01*
X11717020Y2834294D01*
X11732605Y2834294D01*
X11758584Y2839488D01*
X11774170Y2849879D01*
X11779364Y2865465D01*
X11779364Y2875856D01*
X11774170Y2891444D01*
X11758584Y2901835D01*
X11732605Y2907029D01*
X11717020Y2907029D01*
X11691043Y2901835D01*
X11675455Y2891444D01*
X11670261Y2875856D01*
X11670261Y2865465D01*
X12940261Y2667000D02*
G01*
X13049364Y2667000D01*
X12940261Y2667000D02*
G01*
X12940261Y2713758D01*
X12945455Y2729344D01*
X12950652Y2734541D01*
X12961043Y2739735D01*
X12971434Y2739735D01*
X12981825Y2734541D01*
X12987020Y2729344D01*
X12992214Y2713758D01*
X12992214Y2667000D01*
X12992214Y2703367D02*
G01*
X13049364Y2739735D01*
X12961043Y2774025D02*
G01*
X12955846Y2784416D01*
X12940261Y2800004D01*
X13049364Y2800004D01*
X12961043Y2834294D02*
G01*
X12955846Y2844685D01*
X12940261Y2860271D01*
X13049364Y2860271D01*
X14210261Y2679694D02*
G01*
X14319364Y2679694D01*
X14210261Y2679694D02*
G01*
X14210261Y2726453D01*
X14215455Y2742039D01*
X14220652Y2747236D01*
X14231043Y2752430D01*
X14241434Y2752430D01*
X14251825Y2747236D01*
X14257020Y2742039D01*
X14262214Y2726453D01*
X14262214Y2679694D01*
X14262214Y2716062D02*
G01*
X14319364Y2752430D01*
X14231043Y2786720D02*
G01*
X14225846Y2797111D01*
X14210261Y2812699D01*
X14319364Y2812699D01*
X14236237Y2852183D02*
G01*
X14231043Y2852183D01*
X14220652Y2857380D01*
X14215455Y2862574D01*
X14210261Y2872966D01*
X14210261Y2893748D01*
X14215455Y2904139D01*
X14220652Y2909333D01*
X14231043Y2914530D01*
X14241434Y2914530D01*
X14251825Y2909333D01*
X14267411Y2898942D01*
X14319364Y2846989D01*
X14319364Y2919724D01*
X15480261Y2667000D02*
G01*
X15589364Y2667000D01*
X15480261Y2667000D02*
G01*
X15480261Y2713758D01*
X15485455Y2729344D01*
X15490652Y2734541D01*
X15501043Y2739735D01*
X15511434Y2739735D01*
X15521825Y2734541D01*
X15527020Y2729344D01*
X15532214Y2713758D01*
X15532214Y2667000D01*
X15532214Y2703367D02*
G01*
X15589364Y2739735D01*
X15501043Y2774025D02*
G01*
X15495846Y2784416D01*
X15480261Y2800004D01*
X15589364Y2800004D01*
X15480261Y2844685D02*
G01*
X15480261Y2901835D01*
X15521825Y2870662D01*
X15521825Y2886247D01*
X15527020Y2896638D01*
X15532214Y2901835D01*
X15547802Y2907029D01*
X15558193Y2907029D01*
X15573778Y2901835D01*
X15584170Y2891444D01*
X15589364Y2875856D01*
X15589364Y2860271D01*
X15584170Y2844685D01*
X15578975Y2839488D01*
X15568584Y2834294D01*
X16757525Y2675788D02*
G01*
X16866628Y2675788D01*
X16757525Y2675788D02*
G01*
X16757525Y2722547D01*
X16762719Y2738132D01*
X16767916Y2743329D01*
X16778307Y2748523D01*
X16788698Y2748523D01*
X16799090Y2743329D01*
X16804284Y2738132D01*
X16809478Y2722547D01*
X16809478Y2675788D01*
X16809478Y2712156D02*
G01*
X16866628Y2748523D01*
X16778307Y2782813D02*
G01*
X16773110Y2793204D01*
X16757525Y2808792D01*
X16866628Y2808792D01*
X16757525Y2895036D02*
G01*
X16830260Y2843082D01*
X16830260Y2921012D01*
X16757525Y2895036D02*
G01*
X16866628Y2895036D01*
X18555738Y2667005D02*
G01*
X18446635Y2667005D01*
X18555738Y2667005D02*
G01*
X18555738Y2620246D01*
X18550544Y2604660D01*
X18545347Y2599463D01*
X18534956Y2594269D01*
X18524565Y2594269D01*
X18514174Y2599463D01*
X18508979Y2604660D01*
X18503785Y2620246D01*
X18503785Y2667005D01*
X18503785Y2630637D02*
G01*
X18446635Y2594269D01*
X18534956Y2559979D02*
G01*
X18540153Y2549588D01*
X18555738Y2534000D01*
X18446635Y2534000D01*
X18555738Y2437366D02*
G01*
X18555738Y2489319D01*
X18508979Y2494516D01*
X18514174Y2489319D01*
X18519371Y2473733D01*
X18519371Y2458148D01*
X18514174Y2442560D01*
X18503785Y2432169D01*
X18488197Y2426975D01*
X18477806Y2426975D01*
X18462221Y2432169D01*
X18451829Y2442560D01*
X18446635Y2458148D01*
X18446635Y2473733D01*
X18451829Y2489319D01*
X18457024Y2494516D01*
X18467415Y2499710D01*
X19825738Y2667000D02*
G01*
X19716635Y2667000D01*
X19825738Y2667000D02*
G01*
X19825738Y2620241D01*
X19820544Y2604655D01*
X19815347Y2599458D01*
X19804956Y2594264D01*
X19794565Y2594264D01*
X19784174Y2599458D01*
X19778979Y2604655D01*
X19773785Y2620241D01*
X19773785Y2667000D01*
X19773785Y2630632D02*
G01*
X19716635Y2594264D01*
X19804956Y2559974D02*
G01*
X19810153Y2549583D01*
X19825738Y2533995D01*
X19716635Y2533995D01*
X19810153Y2437361D02*
G01*
X19820544Y2442555D01*
X19825738Y2458143D01*
X19825738Y2468534D01*
X19820544Y2484120D01*
X19804956Y2494511D01*
X19778979Y2499705D01*
X19753003Y2499705D01*
X19732221Y2494511D01*
X19721829Y2484120D01*
X19716635Y2468534D01*
X19716635Y2463337D01*
X19721829Y2447752D01*
X19732221Y2437361D01*
X19747806Y2432164D01*
X19753003Y2432164D01*
X19768588Y2437361D01*
X19778979Y2447752D01*
X19784174Y2463337D01*
X19784174Y2468534D01*
X19778979Y2484120D01*
X19768588Y2494511D01*
X19753003Y2499705D01*
X21095738Y2667000D02*
G01*
X20986635Y2667000D01*
X21095738Y2667000D02*
G01*
X21095738Y2620241D01*
X21090544Y2604655D01*
X21085347Y2599458D01*
X21074956Y2594264D01*
X21064565Y2594264D01*
X21054174Y2599458D01*
X21048979Y2604655D01*
X21043785Y2620241D01*
X21043785Y2667000D01*
X21043785Y2630632D02*
G01*
X20986635Y2594264D01*
X21074956Y2559974D02*
G01*
X21080153Y2549583D01*
X21095738Y2533995D01*
X20986635Y2533995D01*
X21095738Y2426970D02*
G01*
X20986635Y2478925D01*
X21095738Y2499705D02*
G01*
X21095738Y2426970D01*
X22365738Y2667000D02*
G01*
X22256635Y2667000D01*
X22365738Y2667000D02*
G01*
X22365738Y2620241D01*
X22360544Y2604655D01*
X22355347Y2599458D01*
X22344956Y2594264D01*
X22334565Y2594264D01*
X22324174Y2599458D01*
X22318979Y2604655D01*
X22313785Y2620241D01*
X22313785Y2667000D01*
X22313785Y2630632D02*
G01*
X22256635Y2594264D01*
X22344956Y2559974D02*
G01*
X22350153Y2549583D01*
X22365738Y2533995D01*
X22256635Y2533995D01*
X22365738Y2473728D02*
G01*
X22360544Y2489314D01*
X22350153Y2494511D01*
X22339762Y2494511D01*
X22329371Y2489314D01*
X22324174Y2478925D01*
X22318979Y2458143D01*
X22313785Y2442555D01*
X22303394Y2432164D01*
X22293003Y2426970D01*
X22277415Y2426970D01*
X22267024Y2432164D01*
X22261829Y2437361D01*
X22256635Y2452946D01*
X22256635Y2473728D01*
X22261829Y2489314D01*
X22267024Y2494511D01*
X22277415Y2499705D01*
X22293003Y2499705D01*
X22303394Y2494511D01*
X22313785Y2484120D01*
X22318979Y2468534D01*
X22324174Y2447752D01*
X22329371Y2437361D01*
X22339762Y2432164D01*
X22350153Y2432164D01*
X22360544Y2437361D01*
X22365738Y2452946D01*
X22365738Y2473728D01*
X23635738Y2667000D02*
G01*
X23526635Y2667000D01*
X23635738Y2667000D02*
G01*
X23635738Y2620241D01*
X23630544Y2604655D01*
X23625347Y2599458D01*
X23614956Y2594264D01*
X23604565Y2594264D01*
X23594174Y2599458D01*
X23588979Y2604655D01*
X23583785Y2620241D01*
X23583785Y2667000D01*
X23583785Y2630632D02*
G01*
X23526635Y2594264D01*
X23614956Y2559974D02*
G01*
X23620153Y2549583D01*
X23635738Y2533995D01*
X23526635Y2533995D01*
X23599371Y2432164D02*
G01*
X23583785Y2437361D01*
X23573394Y2447752D01*
X23568197Y2463337D01*
X23568197Y2468534D01*
X23573394Y2484120D01*
X23583785Y2494511D01*
X23599371Y2499705D01*
X23604565Y2499705D01*
X23620153Y2494511D01*
X23630544Y2484120D01*
X23635738Y2468534D01*
X23635738Y2463337D01*
X23630544Y2447752D01*
X23620153Y2437361D01*
X23599371Y2432164D01*
X23573394Y2432164D01*
X23547415Y2437361D01*
X23531829Y2447752D01*
X23526635Y2463337D01*
X23526635Y2473728D01*
X23531829Y2489314D01*
X23542221Y2494511D01*
X24905738Y2667000D02*
G01*
X24796635Y2667000D01*
X24905738Y2667000D02*
G01*
X24905738Y2620241D01*
X24900544Y2604655D01*
X24895347Y2599458D01*
X24884956Y2594264D01*
X24874565Y2594264D01*
X24864174Y2599458D01*
X24858979Y2604655D01*
X24853785Y2620241D01*
X24853785Y2667000D01*
X24853785Y2630632D02*
G01*
X24796635Y2594264D01*
X24879762Y2554777D02*
G01*
X24884956Y2554777D01*
X24895347Y2549583D01*
X24900544Y2544386D01*
X24905738Y2533995D01*
X24905738Y2513215D01*
X24900544Y2502824D01*
X24895347Y2497627D01*
X24884956Y2492433D01*
X24874565Y2492433D01*
X24864174Y2497627D01*
X24848588Y2508018D01*
X24796635Y2559974D01*
X24796635Y2487236D01*
X24905738Y2421775D02*
G01*
X24900544Y2437361D01*
X24884956Y2447752D01*
X24858979Y2452946D01*
X24843394Y2452946D01*
X24817415Y2447752D01*
X24801829Y2437361D01*
X24796635Y2421775D01*
X24796635Y2411384D01*
X24801829Y2395796D01*
X24817415Y2385405D01*
X24843394Y2380211D01*
X24858979Y2380211D01*
X24884956Y2385405D01*
X24900544Y2395796D01*
X24905738Y2411384D01*
X24905738Y2421775D01*
X26175688Y2667000D02*
G01*
X26066584Y2667000D01*
X26175688Y2667000D02*
G01*
X26175688Y2620241D01*
X26170493Y2604655D01*
X26165296Y2599458D01*
X26154905Y2594264D01*
X26144514Y2594264D01*
X26134123Y2599458D01*
X26128929Y2604655D01*
X26123734Y2620241D01*
X26123734Y2667000D01*
X26123734Y2630632D02*
G01*
X26066584Y2594264D01*
X26149711Y2554777D02*
G01*
X26154905Y2554777D01*
X26165296Y2549583D01*
X26170493Y2544386D01*
X26175688Y2533995D01*
X26175688Y2513215D01*
X26170493Y2502824D01*
X26165296Y2497627D01*
X26154905Y2492433D01*
X26144514Y2492433D01*
X26134123Y2497627D01*
X26118538Y2508018D01*
X26066584Y2559974D01*
X26066584Y2487236D01*
X26154905Y2452946D02*
G01*
X26160102Y2442555D01*
X26175688Y2426970D01*
X26066584Y2426970D01*
X27445685Y2667000D02*
G01*
X27336582Y2667000D01*
X27445685Y2667000D02*
G01*
X27445685Y2620241D01*
X27440491Y2604655D01*
X27435294Y2599458D01*
X27424903Y2594264D01*
X27414512Y2594264D01*
X27404120Y2599458D01*
X27398926Y2604655D01*
X27393732Y2620241D01*
X27393732Y2667000D01*
X27393732Y2630632D02*
G01*
X27336582Y2594264D01*
X27419708Y2554777D02*
G01*
X27424903Y2554777D01*
X27435294Y2549583D01*
X27440491Y2544386D01*
X27445685Y2533995D01*
X27445685Y2513215D01*
X27440491Y2502824D01*
X27435294Y2497627D01*
X27424903Y2492433D01*
X27414512Y2492433D01*
X27404120Y2497627D01*
X27388535Y2508018D01*
X27336582Y2559974D01*
X27336582Y2487236D01*
X27419708Y2447752D02*
G01*
X27424903Y2447752D01*
X27435294Y2442555D01*
X27440491Y2437361D01*
X27445685Y2426970D01*
X27445685Y2406187D01*
X27440491Y2395796D01*
X27435294Y2390602D01*
X27424903Y2385405D01*
X27414512Y2385405D01*
X27404120Y2390602D01*
X27388535Y2400993D01*
X27336582Y2452946D01*
X27336582Y2380211D01*
X28715682Y2666994D02*
G01*
X28606579Y2666994D01*
X28715682Y2666994D02*
G01*
X28715682Y2620236D01*
X28710488Y2604650D01*
X28705291Y2599453D01*
X28694900Y2594259D01*
X28684509Y2594259D01*
X28674118Y2599453D01*
X28668924Y2604650D01*
X28663729Y2620236D01*
X28663729Y2666994D01*
X28663729Y2630627D02*
G01*
X28606579Y2594259D01*
X28689706Y2554772D02*
G01*
X28694900Y2554772D01*
X28705291Y2549578D01*
X28710488Y2544381D01*
X28715682Y2533990D01*
X28715682Y2513210D01*
X28710488Y2502819D01*
X28705291Y2497622D01*
X28694900Y2492428D01*
X28684509Y2492428D01*
X28674118Y2497622D01*
X28658532Y2508013D01*
X28606579Y2559969D01*
X28606579Y2487231D01*
X28715682Y2442550D02*
G01*
X28715682Y2385400D01*
X28674118Y2416573D01*
X28674118Y2400988D01*
X28668924Y2390597D01*
X28663729Y2385400D01*
X28648141Y2380206D01*
X28637750Y2380206D01*
X28622165Y2385400D01*
X28611774Y2395791D01*
X28606579Y2411379D01*
X28606579Y2426964D01*
X28611774Y2442550D01*
X28616968Y2447747D01*
X28627359Y2452941D01*
X29985680Y2666994D02*
G01*
X29876577Y2666994D01*
X29985680Y2666994D02*
G01*
X29985680Y2620236D01*
X29980486Y2604650D01*
X29975289Y2599453D01*
X29964898Y2594259D01*
X29954507Y2594259D01*
X29944115Y2599453D01*
X29938921Y2604650D01*
X29933727Y2620236D01*
X29933727Y2666994D01*
X29933727Y2630627D02*
G01*
X29876577Y2594259D01*
X29959703Y2554772D02*
G01*
X29964898Y2554772D01*
X29975289Y2549578D01*
X29980486Y2544381D01*
X29985680Y2533990D01*
X29985680Y2513210D01*
X29980486Y2502819D01*
X29975289Y2497622D01*
X29964898Y2492428D01*
X29954507Y2492428D01*
X29944115Y2497622D01*
X29928530Y2508013D01*
X29876577Y2559969D01*
X29876577Y2487231D01*
X29985680Y2400988D02*
G01*
X29912945Y2452941D01*
X29912945Y2375009D01*
X29985680Y2400988D02*
G01*
X29876577Y2400988D01*
X7860284Y2667000D02*
G01*
X7969250Y2667000D01*
X7860284Y2667000D02*
G01*
X7860284Y2713736D01*
X7865363Y2729229D01*
X7870697Y2734563D01*
X7881111Y2739644D01*
X7891525Y2739644D01*
X7901940Y2734563D01*
X7907020Y2729229D01*
X7912100Y2713736D01*
X7912100Y2667000D01*
X7912100Y2703321D02*
G01*
X7969250Y2739644D01*
X7860284Y2846831D02*
G01*
X7969250Y2794762D01*
X7860284Y2773934D02*
G01*
X7860284Y2846831D01*
X6590284Y2667000D02*
G01*
X6699250Y2667000D01*
X6590284Y2667000D02*
G01*
X6590284Y2713736D01*
X6595363Y2729229D01*
X6600697Y2734563D01*
X6611111Y2739644D01*
X6621525Y2739644D01*
X6631940Y2734563D01*
X6637020Y2729229D01*
X6642100Y2713736D01*
X6642100Y2667000D01*
X6642100Y2703321D02*
G01*
X6699250Y2739644D01*
X6605777Y2836418D02*
G01*
X6595363Y2831084D01*
X6590284Y2815589D01*
X6590284Y2805176D01*
X6595363Y2789681D01*
X6611111Y2779268D01*
X6637020Y2773934D01*
X6662927Y2773934D01*
X6683756Y2779268D01*
X6694170Y2789681D01*
X6699250Y2805176D01*
X6699250Y2810510D01*
X6694170Y2826004D01*
X6683756Y2836418D01*
X6668261Y2841497D01*
X6662927Y2841497D01*
X6647434Y2836418D01*
X6637020Y2826004D01*
X6631940Y2810510D01*
X6631940Y2805176D01*
X6637020Y2789681D01*
X6647434Y2779268D01*
X6662927Y2773934D01*
X5320284Y2667000D02*
G01*
X5429250Y2667000D01*
X5320284Y2667000D02*
G01*
X5320284Y2713736D01*
X5325363Y2729229D01*
X5330697Y2734563D01*
X5341111Y2739644D01*
X5351525Y2739644D01*
X5361940Y2734563D01*
X5367020Y2729229D01*
X5372100Y2713736D01*
X5372100Y2667000D01*
X5372100Y2703321D02*
G01*
X5429250Y2739644D01*
X5320284Y2836418D02*
G01*
X5320284Y2784347D01*
X5367020Y2779268D01*
X5361940Y2784347D01*
X5356606Y2800095D01*
X5356606Y2815589D01*
X5361940Y2831084D01*
X5372100Y2841497D01*
X5387847Y2846831D01*
X5398261Y2846831D01*
X5413756Y2841497D01*
X5424170Y2831084D01*
X5429250Y2815589D01*
X5429250Y2800095D01*
X5424170Y2784347D01*
X5419090Y2779268D01*
X5408675Y2773934D01*
X4050284Y2667000D02*
G01*
X4159250Y2667000D01*
X4050284Y2667000D02*
G01*
X4050284Y2713736D01*
X4055363Y2729229D01*
X4060697Y2734563D01*
X4071111Y2739644D01*
X4081525Y2739644D01*
X4091940Y2734563D01*
X4097020Y2729229D01*
X4102100Y2713736D01*
X4102100Y2667000D01*
X4102100Y2703321D02*
G01*
X4159250Y2739644D01*
X4050284Y2826004D02*
G01*
X4122927Y2773934D01*
X4122927Y2851912D01*
X4050284Y2826004D02*
G01*
X4159250Y2826004D01*
X2780278Y2667000D02*
G01*
X2889244Y2667000D01*
X2780278Y2667000D02*
G01*
X2780278Y2713736D01*
X2785358Y2729229D01*
X2790692Y2734563D01*
X2801106Y2739644D01*
X2811520Y2739644D01*
X2821934Y2734563D01*
X2827014Y2729229D01*
X2832094Y2713736D01*
X2832094Y2667000D01*
X2832094Y2703321D02*
G01*
X2889244Y2739644D01*
X2780278Y2784347D02*
G01*
X2780278Y2841497D01*
X2821934Y2810510D01*
X2821934Y2826004D01*
X2827014Y2836418D01*
X2832094Y2841497D01*
X2847842Y2846831D01*
X2858256Y2846831D01*
X2873750Y2841497D01*
X2884164Y2831084D01*
X2889244Y2815589D01*
X2889244Y2800095D01*
X2884164Y2784347D01*
X2879084Y2779268D01*
X2868670Y2773934D01*
X1510284Y2667000D02*
G01*
X1619250Y2667000D01*
X1510284Y2667000D02*
G01*
X1510284Y2713736D01*
X1515363Y2729229D01*
X1520697Y2734563D01*
X1531112Y2739644D01*
X1541526Y2739644D01*
X1551939Y2734563D01*
X1557020Y2729229D01*
X1562100Y2713736D01*
X1562100Y2667000D01*
X1562100Y2703321D02*
G01*
X1619250Y2739644D01*
X1536192Y2779268D02*
G01*
X1531112Y2779268D01*
X1520697Y2784347D01*
X1515363Y2789681D01*
X1510284Y2800095D01*
X1510284Y2820670D01*
X1515363Y2831084D01*
X1520697Y2836418D01*
X1531112Y2841497D01*
X1541526Y2841497D01*
X1551939Y2836418D01*
X1567434Y2826004D01*
X1619250Y2773934D01*
X1619250Y2846831D01*
X240284Y2667000D02*
G01*
X349250Y2667000D01*
X240284Y2667000D02*
G01*
X240284Y2713736D01*
X245363Y2729229D01*
X250697Y2734563D01*
X261112Y2739644D01*
X271526Y2739644D01*
X281939Y2734563D01*
X287020Y2729229D01*
X292100Y2713736D01*
X292100Y2667000D01*
X292100Y2703321D02*
G01*
X349250Y2739644D01*
X261112Y2773934D02*
G01*
X255778Y2784347D01*
X240284Y2800095D01*
X349250Y2800095D01*
X9130266Y2667000D02*
G01*
X9239232Y2667000D01*
X9130266Y2667000D02*
G01*
X9130266Y2713736D01*
X9135346Y2729229D01*
X9140680Y2734563D01*
X9151094Y2739644D01*
X9161508Y2739644D01*
X9171922Y2734563D01*
X9177002Y2729229D01*
X9182082Y2713736D01*
X9182082Y2667000D01*
X9182082Y2703321D02*
G01*
X9239232Y2739644D01*
X9130266Y2800095D02*
G01*
X9135346Y2784347D01*
X9145760Y2779268D01*
X9156174Y2779268D01*
X9166588Y2784347D01*
X9171922Y2794762D01*
X9177002Y2815589D01*
X9182082Y2831084D01*
X9192496Y2841497D01*
X9202910Y2846831D01*
X9218658Y2846831D01*
X9229072Y2841497D01*
X9234152Y2836418D01*
X9239232Y2820670D01*
X9239232Y2800095D01*
X9234152Y2784347D01*
X9229072Y2779268D01*
X9218658Y2773934D01*
X9202910Y2773934D01*
X9192496Y2779268D01*
X9182082Y2789681D01*
X9177002Y2805176D01*
X9171922Y2826004D01*
X9166588Y2836418D01*
X9156174Y2841497D01*
X9145760Y2841497D01*
X9135346Y2836418D01*
X9130266Y2820670D01*
X9130266Y2800095D01*
D12*
X5856706Y4212005D02*
G01*
X6106693Y4212005D01*
X5856706Y4212005D02*
G01*
X5856706Y4931994D01*
X6106693Y4931994D02*
G01*
X5856706Y4931994D01*
X6106693Y4931994D02*
G01*
X6106693Y4212005D01*
X13845006Y4212005D02*
G01*
X14094993Y4212005D01*
X13845006Y4212005D02*
G01*
X13845006Y4931994D01*
X14094993Y4931994D02*
G01*
X13845006Y4931994D01*
X14094993Y4931994D02*
G01*
X14094993Y4212005D01*
X9951986Y-1224000D02*
G01*
X9951986Y-1823999D01*
X9351987Y-1823999D01*
X9351987Y-1224000D01*
X9951986Y-1224000D01*
X11221986Y1061999D02*
G01*
X11221986Y462000D01*
X10621987Y462000D01*
X10621987Y1061999D01*
X11221986Y1061999D01*
X12491986Y-1224000D02*
G01*
X12491986Y-1823999D01*
X11891987Y-1823999D01*
X11891987Y-1224000D01*
X12491986Y-1224000D01*
X13761986Y1061999D02*
G01*
X13761986Y462000D01*
X13161987Y462000D01*
X13161987Y1061999D01*
X13761986Y1061999D01*
X15031986Y-1224000D02*
G01*
X15031986Y-1823999D01*
X14431987Y-1823999D01*
X14431987Y-1224000D01*
X15031986Y-1224000D01*
X16301986Y-1224000D02*
G01*
X16301986Y-1823999D01*
X15701987Y-1823999D01*
X15701987Y-1224000D01*
X16301986Y-1224000D01*
X17571986Y1061999D02*
G01*
X17571986Y462000D01*
X16971987Y462000D01*
X16971987Y1061999D01*
X17571986Y1061999D01*
X18841986Y-1224000D02*
G01*
X18841986Y-1823999D01*
X18241987Y-1823999D01*
X18241987Y-1224000D01*
X18841986Y-1224000D01*
X20111986Y1061999D02*
G01*
X20111986Y462000D01*
X19511987Y462000D01*
X19511987Y1061999D01*
X20111986Y1061999D01*
X21381986Y-1224000D02*
G01*
X21381986Y-1823999D01*
X20781987Y-1823999D01*
X20781987Y-1224000D01*
X21381986Y-1224000D01*
X22651986Y-1224000D02*
G01*
X22651986Y-1823999D01*
X22051987Y-1823999D01*
X22051987Y-1224000D01*
X22651986Y-1224000D01*
X23921986Y1061999D02*
G01*
X23921986Y462000D01*
X23321987Y462000D01*
X23321987Y1061999D01*
X23921986Y1061999D01*
X25191986Y-1224000D02*
G01*
X25191986Y-1823999D01*
X24591987Y-1823999D01*
X24591987Y-1224000D01*
X25191986Y-1224000D01*
X26461933Y1061999D02*
G01*
X26461933Y462000D01*
X25861934Y462000D01*
X25861934Y1061999D01*
X26461933Y1061999D01*
X27731930Y-1224000D02*
G01*
X27731930Y-1823999D01*
X27131932Y-1823999D01*
X27131932Y-1224000D01*
X27731930Y-1224000D01*
X29001928Y1061999D02*
G01*
X29001928Y462000D01*
X28401929Y462000D01*
X28401929Y1061999D01*
X29001928Y1061999D01*
X30271925Y-1224000D02*
G01*
X30271925Y-1823999D01*
X29671926Y-1823999D01*
X29671926Y-1224000D01*
X30271925Y-1224000D01*
X1061986Y-1224000D02*
G01*
X1061986Y-1823999D01*
X461987Y-1823999D01*
X461987Y-1224000D01*
X1061986Y-1224000D01*
X2331986Y1061999D02*
G01*
X2331986Y462000D01*
X1731987Y462000D01*
X1731987Y1061999D01*
X2331986Y1061999D01*
X3601986Y-1224000D02*
G01*
X3601986Y-1823999D01*
X3001987Y-1823999D01*
X3001987Y-1224000D01*
X3601986Y-1224000D01*
X4871986Y1061999D02*
G01*
X4871986Y462000D01*
X4271987Y462000D01*
X4271987Y1061999D01*
X4871986Y1061999D01*
X6141986Y-1224000D02*
G01*
X6141986Y-1823999D01*
X5541987Y-1823999D01*
X5541987Y-1224000D01*
X6141986Y-1224000D01*
X7411986Y-1224000D02*
G01*
X7411986Y-1823999D01*
X6811987Y-1823999D01*
X6811987Y-1224000D01*
X7411986Y-1224000D01*
X8681986Y1061999D02*
G01*
X8681986Y462000D01*
X8081987Y462000D01*
X8081987Y1061999D01*
X8681986Y1061999D01*
X23357306Y4123105D02*
G01*
X23607293Y4123105D01*
X23357306Y4123105D02*
G01*
X23357306Y4843094D01*
X23607293Y4843094D02*
G01*
X23357306Y4843094D01*
X23607293Y4843094D02*
G01*
X23607293Y4123105D01*
X6873994Y4671821D02*
G01*
X6873994Y4891811D01*
X6873994Y4252013D02*
G01*
X6873994Y4472002D01*
X8873987Y4891989D02*
G01*
X6873994Y4891989D01*
X8873987Y4252013D02*
G01*
X6873994Y4252013D01*
X8873987Y4252013D02*
G01*
X8873987Y4891989D01*
X15103594Y4684521D02*
G01*
X15103594Y4904511D01*
X15103594Y4264713D02*
G01*
X15103594Y4484702D01*
X17103587Y4904689D02*
G01*
X15103594Y4904689D01*
X17103587Y4264713D02*
G01*
X15103594Y4264713D01*
X17103587Y4264713D02*
G01*
X17103587Y4904689D01*
X24184094Y4544821D02*
G01*
X24184094Y4764811D01*
X24184094Y4125013D02*
G01*
X24184094Y4345002D01*
X26184087Y4764989D02*
G01*
X24184094Y4764989D01*
X26184087Y4125013D02*
G01*
X24184094Y4125013D01*
X26184087Y4125013D02*
G01*
X26184087Y4764989D01*
D11*
X17284479Y5914867D02*
G01*
X17284479Y6085108D01*
X17589720Y5914867D02*
G01*
X17589720Y6085108D01*
X17484740Y6085108D02*
G01*
X17389459Y6085108D01*
X11647355Y5914867D02*
G01*
X11647355Y6085108D01*
X11952597Y5914867D02*
G01*
X11952597Y6085108D01*
X11847616Y6085108D02*
G01*
X11752336Y6085108D01*
D13*
X14160500Y6731000D02*
G01*
X13970000Y6731000D01*
X13970000Y6477000D01*
X15240000Y6477000D01*
X15240000Y6731000D01*
D14*
X15240000Y6731000D02*
G01*
X14160500Y6731000D01*
D12*
X10668000Y3098878D02*
G01*
X10668000Y2992000D01*
X10667596Y2341999D02*
G01*
X10667596Y2235121D01*
X10552998Y2992000D02*
G01*
X10783001Y2992000D01*
X10783001Y2992000D02*
G01*
X10783001Y2341999D01*
X10779998Y2341999D02*
G01*
X10556001Y2341999D01*
X10552998Y2341999D02*
G01*
X10552998Y2992000D01*
X11938000Y3098883D02*
G01*
X11938000Y2992005D01*
X11937596Y2342004D02*
G01*
X11937596Y2235126D01*
X11822998Y2992005D02*
G01*
X12053001Y2992005D01*
X12053001Y2992005D02*
G01*
X12053001Y2342004D01*
X12049998Y2342004D02*
G01*
X11826001Y2342004D01*
X11822998Y2342004D02*
G01*
X11822998Y2992005D01*
X13208000Y3098883D02*
G01*
X13208000Y2992005D01*
X13207596Y2342004D02*
G01*
X13207596Y2235126D01*
X13092998Y2992005D02*
G01*
X13323001Y2992005D01*
X13323001Y2992005D02*
G01*
X13323001Y2342004D01*
X13319998Y2342004D02*
G01*
X13096001Y2342004D01*
X13092998Y2342004D02*
G01*
X13092998Y2992005D01*
X14478000Y3111578D02*
G01*
X14478000Y3004700D01*
X14477596Y2354699D02*
G01*
X14477596Y2247821D01*
X14362998Y3004700D02*
G01*
X14593001Y3004700D01*
X14593001Y3004700D02*
G01*
X14593001Y2354699D01*
X14589998Y2354699D02*
G01*
X14366001Y2354699D01*
X14362998Y2354699D02*
G01*
X14362998Y3004700D01*
X15748000Y3098883D02*
G01*
X15748000Y2992005D01*
X15747596Y2342004D02*
G01*
X15747596Y2235126D01*
X15632998Y2992005D02*
G01*
X15863001Y2992005D01*
X15863001Y2992005D02*
G01*
X15863001Y2342004D01*
X15859998Y2342004D02*
G01*
X15636001Y2342004D01*
X15632998Y2342004D02*
G01*
X15632998Y2992005D01*
X17018000Y3098883D02*
G01*
X17018000Y2992005D01*
X17017596Y2342004D02*
G01*
X17017596Y2235126D01*
X16902998Y2992005D02*
G01*
X17133001Y2992005D01*
X17133001Y2992005D02*
G01*
X17133001Y2342004D01*
X17129998Y2342004D02*
G01*
X16906001Y2342004D01*
X16902998Y2342004D02*
G01*
X16902998Y2992005D01*
X18288000Y3098883D02*
G01*
X18288000Y2992005D01*
X18287596Y2342004D02*
G01*
X18287596Y2235126D01*
X18172998Y2992005D02*
G01*
X18403001Y2992005D01*
X18403001Y2992005D02*
G01*
X18403001Y2342004D01*
X18399998Y2342004D02*
G01*
X18176001Y2342004D01*
X18172998Y2342004D02*
G01*
X18172998Y2992005D01*
X19558000Y3098878D02*
G01*
X19558000Y2992000D01*
X19557596Y2341999D02*
G01*
X19557596Y2235121D01*
X19442998Y2992000D02*
G01*
X19673001Y2992000D01*
X19673001Y2992000D02*
G01*
X19673001Y2341999D01*
X19669998Y2341999D02*
G01*
X19446001Y2341999D01*
X19442998Y2341999D02*
G01*
X19442998Y2992000D01*
X20828000Y3098878D02*
G01*
X20828000Y2992000D01*
X20827596Y2341999D02*
G01*
X20827596Y2235121D01*
X20712998Y2992000D02*
G01*
X20943001Y2992000D01*
X20943001Y2992000D02*
G01*
X20943001Y2341999D01*
X20939998Y2341999D02*
G01*
X20716001Y2341999D01*
X20712998Y2341999D02*
G01*
X20712998Y2992000D01*
X22098000Y3098878D02*
G01*
X22098000Y2992000D01*
X22097596Y2341999D02*
G01*
X22097596Y2235121D01*
X21982998Y2992000D02*
G01*
X22213001Y2992000D01*
X22213001Y2992000D02*
G01*
X22213001Y2341999D01*
X22209998Y2341999D02*
G01*
X21986001Y2341999D01*
X21982998Y2341999D02*
G01*
X21982998Y2992000D01*
X23368000Y3098878D02*
G01*
X23368000Y2992000D01*
X23367596Y2341999D02*
G01*
X23367596Y2235121D01*
X23252998Y2992000D02*
G01*
X23483001Y2992000D01*
X23483001Y2992000D02*
G01*
X23483001Y2341999D01*
X23479998Y2341999D02*
G01*
X23256001Y2341999D01*
X23252998Y2341999D02*
G01*
X23252998Y2992000D01*
X24638000Y3098878D02*
G01*
X24638000Y2992000D01*
X24637596Y2341999D02*
G01*
X24637596Y2235121D01*
X24522998Y2992000D02*
G01*
X24753001Y2992000D01*
X24753001Y2992000D02*
G01*
X24753001Y2341999D01*
X24749998Y2341999D02*
G01*
X24526001Y2341999D01*
X24522998Y2341999D02*
G01*
X24522998Y2992000D01*
X25907949Y3098878D02*
G01*
X25907949Y2992000D01*
X25907545Y2341999D02*
G01*
X25907545Y2235121D01*
X25792948Y2992000D02*
G01*
X26022950Y2992000D01*
X26022950Y2992000D02*
G01*
X26022950Y2341999D01*
X26019947Y2341999D02*
G01*
X25795950Y2341999D01*
X25792948Y2341999D02*
G01*
X25792948Y2992000D01*
X27177946Y3098878D02*
G01*
X27177946Y2992000D01*
X27177542Y2341999D02*
G01*
X27177542Y2235121D01*
X27062945Y2992000D02*
G01*
X27292947Y2992000D01*
X27292947Y2992000D02*
G01*
X27292947Y2341999D01*
X27289945Y2341999D02*
G01*
X27065947Y2341999D01*
X27062945Y2341999D02*
G01*
X27062945Y2992000D01*
X28447944Y3098873D02*
G01*
X28447944Y2991995D01*
X28447540Y2341994D02*
G01*
X28447540Y2235116D01*
X28332943Y2991995D02*
G01*
X28562945Y2991995D01*
X28562945Y2991995D02*
G01*
X28562945Y2341994D01*
X28559942Y2341994D02*
G01*
X28335945Y2341994D01*
X28332943Y2341994D02*
G01*
X28332943Y2991995D01*
X29717941Y3098873D02*
G01*
X29717941Y2991995D01*
X29717537Y2341994D02*
G01*
X29717537Y2235116D01*
X29602940Y2991995D02*
G01*
X29832942Y2991995D01*
X29832942Y2991995D02*
G01*
X29832942Y2341994D01*
X29829940Y2341994D02*
G01*
X29605942Y2341994D01*
X29602940Y2341994D02*
G01*
X29602940Y2991995D01*
X8128000Y2235121D02*
G01*
X8128000Y2341999D01*
X8128403Y2992000D02*
G01*
X8128403Y3098878D01*
X8243001Y2341999D02*
G01*
X8012998Y2341999D01*
X8012998Y2341999D02*
G01*
X8012998Y2992000D01*
X8016001Y2992000D02*
G01*
X8239998Y2992000D01*
X8243001Y2992000D02*
G01*
X8243001Y2341999D01*
X6858000Y2235121D02*
G01*
X6858000Y2341999D01*
X6858403Y2992000D02*
G01*
X6858403Y3098878D01*
X6973001Y2341999D02*
G01*
X6742998Y2341999D01*
X6742998Y2341999D02*
G01*
X6742998Y2992000D01*
X6746001Y2992000D02*
G01*
X6969998Y2992000D01*
X6973001Y2992000D02*
G01*
X6973001Y2341999D01*
X5588000Y2235121D02*
G01*
X5588000Y2341999D01*
X5588403Y2992000D02*
G01*
X5588403Y3098878D01*
X5703001Y2341999D02*
G01*
X5472998Y2341999D01*
X5472998Y2341999D02*
G01*
X5472998Y2992000D01*
X5476001Y2992000D02*
G01*
X5699998Y2992000D01*
X5703001Y2992000D02*
G01*
X5703001Y2341999D01*
X4318000Y2235121D02*
G01*
X4318000Y2341999D01*
X4318403Y2992000D02*
G01*
X4318403Y3098878D01*
X4433001Y2341999D02*
G01*
X4202998Y2341999D01*
X4202998Y2341999D02*
G01*
X4202998Y2992000D01*
X4206001Y2992000D02*
G01*
X4429998Y2992000D01*
X4433001Y2992000D02*
G01*
X4433001Y2341999D01*
X3047994Y2235121D02*
G01*
X3047994Y2341999D01*
X3048398Y2992000D02*
G01*
X3048398Y3098878D01*
X3162995Y2341999D02*
G01*
X2932993Y2341999D01*
X2932993Y2341999D02*
G01*
X2932993Y2992000D01*
X2935996Y2992000D02*
G01*
X3159993Y2992000D01*
X3162995Y2992000D02*
G01*
X3162995Y2341999D01*
X1778000Y2235121D02*
G01*
X1778000Y2341999D01*
X1778403Y2992000D02*
G01*
X1778403Y3098878D01*
X1893001Y2341999D02*
G01*
X1662998Y2341999D01*
X1662998Y2341999D02*
G01*
X1662998Y2992000D01*
X1666001Y2992000D02*
G01*
X1889998Y2992000D01*
X1893001Y2992000D02*
G01*
X1893001Y2341999D01*
X508000Y2235121D02*
G01*
X508000Y2341999D01*
X508403Y2992000D02*
G01*
X508403Y3098878D01*
X623001Y2341999D02*
G01*
X392998Y2341999D01*
X392998Y2341999D02*
G01*
X392998Y2992000D01*
X396001Y2992000D02*
G01*
X619998Y2992000D01*
X623001Y2992000D02*
G01*
X623001Y2341999D01*
X9397982Y2235121D02*
G01*
X9397982Y2341999D01*
X9398386Y2992000D02*
G01*
X9398386Y3098878D01*
X9512983Y2341999D02*
G01*
X9282981Y2341999D01*
X9282981Y2341999D02*
G01*
X9282981Y2992000D01*
X9285983Y2992000D02*
G01*
X9509980Y2992000D01*
X9512983Y2992000D02*
G01*
X9512983Y2341999D01*
G75*
G01*
X6873994Y4672000D02*
G02*
X6878996Y4472003I2501J-99999D01*
G75*
G01*
X15103594Y4684700D02*
G02*
X15108596Y4484703I2501J-99999D01*
G75*
G01*
X24184094Y4545000D02*
G02*
X24189096Y4345003I2501J-99999D01*
G75*
G01
X9804933Y-1524000D02*
G03X9804933Y-1524000I-152933J0D01*
G75*
G01
X9499600Y-1727200D02*
G03X9499600Y-1727200I-50800J0D01*
G75*
G01
X9499600Y-1320800D02*
G03X9499600Y-1320800I-50800J0D01*
G75*
G01
X9906000Y-1727200D02*
G03X9906000Y-1727200I-50800J0D01*
G75*
G01
X9905848Y-1321003D02*
G03X9905848Y-1321003I-50800J0D01*
G75*
G01
X11074933Y762000D02*
G03X11074933Y762000I-152933J0D01*
G75*
G01
X10769600Y558800D02*
G03X10769600Y558800I-50800J0D01*
G75*
G01
X10769600Y965200D02*
G03X10769600Y965200I-50800J0D01*
G75*
G01
X11176000Y558800D02*
G03X11176000Y558800I-50800J0D01*
G75*
G01
X11175848Y964997D02*
G03X11175848Y964997I-50800J0D01*
G75*
G01
X12344933Y-1524000D02*
G03X12344933Y-1524000I-152933J0D01*
G75*
G01
X12039600Y-1727200D02*
G03X12039600Y-1727200I-50800J0D01*
G75*
G01
X12039600Y-1320800D02*
G03X12039600Y-1320800I-50800J0D01*
G75*
G01
X12446000Y-1727200D02*
G03X12446000Y-1727200I-50800J0D01*
G75*
G01
X12445848Y-1321003D02*
G03X12445848Y-1321003I-50800J0D01*
G75*
G01
X13614933Y762000D02*
G03X13614933Y762000I-152933J0D01*
G75*
G01
X13309600Y558800D02*
G03X13309600Y558800I-50800J0D01*
G75*
G01
X13309600Y965200D02*
G03X13309600Y965200I-50800J0D01*
G75*
G01
X13716000Y558800D02*
G03X13716000Y558800I-50800J0D01*
G75*
G01
X13715848Y964997D02*
G03X13715848Y964997I-50800J0D01*
G75*
G01
X14884933Y-1524000D02*
G03X14884933Y-1524000I-152933J0D01*
G75*
G01
X14579600Y-1727200D02*
G03X14579600Y-1727200I-50800J0D01*
G75*
G01
X14579600Y-1320800D02*
G03X14579600Y-1320800I-50800J0D01*
G75*
G01
X14986000Y-1727200D02*
G03X14986000Y-1727200I-50800J0D01*
G75*
G01
X14985848Y-1321003D02*
G03X14985848Y-1321003I-50800J0D01*
G75*
G01
X16154933Y-1524000D02*
G03X16154933Y-1524000I-152933J0D01*
G75*
G01
X15849600Y-1727200D02*
G03X15849600Y-1727200I-50800J0D01*
G75*
G01
X15849600Y-1320800D02*
G03X15849600Y-1320800I-50800J0D01*
G75*
G01
X16256000Y-1727200D02*
G03X16256000Y-1727200I-50800J0D01*
G75*
G01
X16255848Y-1321003D02*
G03X16255848Y-1321003I-50800J0D01*
G75*
G01
X17424933Y762000D02*
G03X17424933Y762000I-152933J0D01*
G75*
G01
X17119600Y558800D02*
G03X17119600Y558800I-50800J0D01*
G75*
G01
X17119600Y965200D02*
G03X17119600Y965200I-50800J0D01*
G75*
G01
X17526000Y558800D02*
G03X17526000Y558800I-50800J0D01*
G75*
G01
X17525848Y964997D02*
G03X17525848Y964997I-50800J0D01*
G75*
G01
X18694933Y-1524000D02*
G03X18694933Y-1524000I-152933J0D01*
G75*
G01
X18389600Y-1727200D02*
G03X18389600Y-1727200I-50800J0D01*
G75*
G01
X18389600Y-1320800D02*
G03X18389600Y-1320800I-50800J0D01*
G75*
G01
X18796000Y-1727200D02*
G03X18796000Y-1727200I-50800J0D01*
G75*
G01
X18795848Y-1321003D02*
G03X18795848Y-1321003I-50800J0D01*
G75*
G01
X19964933Y762000D02*
G03X19964933Y762000I-152933J0D01*
G75*
G01
X19659600Y558800D02*
G03X19659600Y558800I-50800J0D01*
G75*
G01
X19659600Y965200D02*
G03X19659600Y965200I-50800J0D01*
G75*
G01
X20066000Y558800D02*
G03X20066000Y558800I-50800J0D01*
G75*
G01
X20065848Y964997D02*
G03X20065848Y964997I-50800J0D01*
G75*
G01
X21234933Y-1524000D02*
G03X21234933Y-1524000I-152933J0D01*
G75*
G01
X20929600Y-1727200D02*
G03X20929600Y-1727200I-50800J0D01*
G75*
G01
X20929600Y-1320800D02*
G03X20929600Y-1320800I-50800J0D01*
G75*
G01
X21336000Y-1727200D02*
G03X21336000Y-1727200I-50800J0D01*
G75*
G01
X21335848Y-1321003D02*
G03X21335848Y-1321003I-50800J0D01*
G75*
G01
X22504933Y-1524000D02*
G03X22504933Y-1524000I-152933J0D01*
G75*
G01
X22199600Y-1727200D02*
G03X22199600Y-1727200I-50800J0D01*
G75*
G01
X22199600Y-1320800D02*
G03X22199600Y-1320800I-50800J0D01*
G75*
G01
X22606000Y-1727200D02*
G03X22606000Y-1727200I-50800J0D01*
G75*
G01
X22605848Y-1321003D02*
G03X22605848Y-1321003I-50800J0D01*
G75*
G01
X23774933Y762000D02*
G03X23774933Y762000I-152933J0D01*
G75*
G01
X23469600Y558800D02*
G03X23469600Y558800I-50800J0D01*
G75*
G01
X23469600Y965200D02*
G03X23469600Y965200I-50800J0D01*
G75*
G01
X23876000Y558800D02*
G03X23876000Y558800I-50800J0D01*
G75*
G01
X23875848Y964997D02*
G03X23875848Y964997I-50800J0D01*
G75*
G01
X25044933Y-1524000D02*
G03X25044933Y-1524000I-152933J0D01*
G75*
G01
X24739600Y-1727200D02*
G03X24739600Y-1727200I-50800J0D01*
G75*
G01
X24739600Y-1320800D02*
G03X24739600Y-1320800I-50800J0D01*
G75*
G01
X25146000Y-1727200D02*
G03X25146000Y-1727200I-50800J0D01*
G75*
G01
X25145848Y-1321003D02*
G03X25145848Y-1321003I-50800J0D01*
G75*
G01
X26314880Y762000D02*
G03X26314880Y762000I-152933J0D01*
G75*
G01
X26009547Y558800D02*
G03X26009547Y558800I-50800J0D01*
G75*
G01
X26009547Y965200D02*
G03X26009547Y965200I-50800J0D01*
G75*
G01
X26415947Y558800D02*
G03X26415947Y558800I-50800J0D01*
G75*
G01
X26415794Y964997D02*
G03X26415794Y964997I-50800J0D01*
G75*
G01
X27584878Y-1524000D02*
G03X27584878Y-1524000I-152933J0D01*
G75*
G01
X27279544Y-1727200D02*
G03X27279544Y-1727200I-50800J0D01*
G75*
G01
X27279544Y-1320800D02*
G03X27279544Y-1320800I-50800J0D01*
G75*
G01
X27685944Y-1727200D02*
G03X27685944Y-1727200I-50800J0D01*
G75*
G01
X27685792Y-1321003D02*
G03X27685792Y-1321003I-50800J0D01*
G75*
G01
X28854875Y762000D02*
G03X28854875Y762000I-152933J0D01*
G75*
G01
X28549542Y558800D02*
G03X28549542Y558800I-50800J0D01*
G75*
G01
X28549542Y965200D02*
G03X28549542Y965200I-50800J0D01*
G75*
G01
X28955942Y558800D02*
G03X28955942Y558800I-50800J0D01*
G75*
G01
X28955789Y964997D02*
G03X28955789Y964997I-50800J0D01*
G75*
G01
X30124872Y-1524000D02*
G03X30124872Y-1524000I-152933J0D01*
G75*
G01
X29819539Y-1727200D02*
G03X29819539Y-1727200I-50800J0D01*
G75*
G01
X29819539Y-1320800D02*
G03X29819539Y-1320800I-50800J0D01*
G75*
G01
X30225939Y-1727200D02*
G03X30225939Y-1727200I-50800J0D01*
G75*
G01
X30225787Y-1321003D02*
G03X30225787Y-1321003I-50800J0D01*
G75*
G01
X914933Y-1524000D02*
G03X914933Y-1524000I-152933J0D01*
G75*
G01
X609600Y-1727200D02*
G03X609600Y-1727200I-50800J0D01*
G75*
G01
X609600Y-1320800D02*
G03X609600Y-1320800I-50800J0D01*
G75*
G01
X1016000Y-1727200D02*
G03X1016000Y-1727200I-50800J0D01*
G75*
G01
X1015848Y-1321003D02*
G03X1015848Y-1321003I-50800J0D01*
G75*
G01
X2184933Y762000D02*
G03X2184933Y762000I-152933J0D01*
G75*
G01
X1879600Y558800D02*
G03X1879600Y558800I-50800J0D01*
G75*
G01
X1879600Y965200D02*
G03X1879600Y965200I-50800J0D01*
G75*
G01
X2286000Y558800D02*
G03X2286000Y558800I-50800J0D01*
G75*
G01
X2285822Y964997D02*
G03X2285822Y964997I-50800J0D01*
G75*
G01
X3454933Y-1524000D02*
G03X3454933Y-1524000I-152933J0D01*
G75*
G01
X3149600Y-1727200D02*
G03X3149600Y-1727200I-50800J0D01*
G75*
G01
X3149600Y-1320800D02*
G03X3149600Y-1320800I-50800J0D01*
G75*
G01
X3556000Y-1727200D02*
G03X3556000Y-1727200I-50800J0D01*
G75*
G01
X3555822Y-1321003D02*
G03X3555822Y-1321003I-50800J0D01*
G75*
G01
X4724933Y762000D02*
G03X4724933Y762000I-152933J0D01*
G75*
G01
X4419600Y558800D02*
G03X4419600Y558800I-50800J0D01*
G75*
G01
X4419600Y965200D02*
G03X4419600Y965200I-50800J0D01*
G75*
G01
X4826000Y558800D02*
G03X4826000Y558800I-50800J0D01*
G75*
G01
X4825848Y964997D02*
G03X4825848Y964997I-50800J0D01*
G75*
G01
X5994933Y-1524000D02*
G03X5994933Y-1524000I-152933J0D01*
G75*
G01
X5689600Y-1727200D02*
G03X5689600Y-1727200I-50800J0D01*
G75*
G01
X5689600Y-1320800D02*
G03X5689600Y-1320800I-50800J0D01*
G75*
G01
X6096000Y-1727200D02*
G03X6096000Y-1727200I-50800J0D01*
G75*
G01
X6095848Y-1321003D02*
G03X6095848Y-1321003I-50800J0D01*
G75*
G01
X7264933Y-1524000D02*
G03X7264933Y-1524000I-152933J0D01*
G75*
G01
X6959600Y-1727200D02*
G03X6959600Y-1727200I-50800J0D01*
G75*
G01
X6959600Y-1320800D02*
G03X6959600Y-1320800I-50800J0D01*
G75*
G01
X7366000Y-1727200D02*
G03X7366000Y-1727200I-50800J0D01*
G75*
G01
X7365848Y-1321003D02*
G03X7365848Y-1321003I-50800J0D01*
G75*
G01
X8534933Y762000D02*
G03X8534933Y762000I-152933J0D01*
G75*
G01
X8229600Y558800D02*
G03X8229600Y558800I-50800J0D01*
G75*
G01
X8229600Y965200D02*
G03X8229600Y965200I-50800J0D01*
G75*
G01
X8636000Y558800D02*
G03X8636000Y558800I-50800J0D01*
G75*
G01
X8635848Y964997D02*
G03X8635848Y964997I-50800J0D01*
D15*
G75*
G01
X17287011Y5885688D02*
G03X17287011Y5885688I-15011J0D01*
G75*
G01
X11649888Y5885688D02*
G03X11649888Y5885688I-15011J0D01*
M02*
