G04 Layer: TopPasteMaskLayer*
G04 EasyEDA v6.5.43, 2024-08-21 16:11:37*
G04 cb6e2e9fbd21486d88ae5690d2d3dc00,10*
G04 Gerber Generator version 0.2*
G04 Scale: 100 percent, Rotated: No, Reflected: No *
G04 Dimensions in millimeters *
G04 leading zeros omitted , absolute positions ,4 integer and 5 decimal *
%FSLAX45Y45*%
%MOMM*%

%AMMACRO1*21,1,$1,$2,0,0,$3*%
%ADD10O,0.36400740000000004X1.7420082*%
%ADD11R,0.9000X0.8000*%
%ADD12R,1.0000X0.7500*%
%ADD13R,0.6000X1.1000*%
%ADD14MACRO1,1.5001X2.7X0.0000*%
%ADD15R,2.0000X0.4500*%
%ADD16MACRO1,2.1001X1.8999X0.0000*%
%ADD17R,2.1000X1.9000*%
%ADD18R,0.8000X0.9000*%
%ADD19R,1.5000X4.0000*%
%ADD20R,1.0000X2.0000*%

%LPD*%
G36*
X2547518Y1569008D02*
G01*
X2542489Y1563979D01*
X2542489Y1484020D01*
X2547518Y1478991D01*
X2627477Y1478991D01*
X2632506Y1484020D01*
X2632506Y1506778D01*
X2595524Y1506778D01*
X2595524Y1539798D01*
X2632506Y1539798D01*
X2632506Y1563979D01*
X2627477Y1569008D01*
G37*
G36*
X2706522Y1569008D02*
G01*
X2701493Y1563979D01*
X2701493Y1541221D01*
X2738526Y1541221D01*
X2738526Y1508201D01*
X2701493Y1508201D01*
X2701493Y1484020D01*
X2706522Y1478991D01*
X2786481Y1478991D01*
X2791510Y1484020D01*
X2791510Y1563979D01*
X2786481Y1569008D01*
G37*
D10*
G01*
X3399990Y2506903D03*
G01*
X3464989Y2506903D03*
G01*
X3529987Y2506903D03*
G01*
X3594986Y2506903D03*
G01*
X3660010Y2506903D03*
G01*
X3725009Y2506903D03*
G01*
X3790007Y2506903D03*
G01*
X3855006Y2506903D03*
G01*
X3920004Y2506903D03*
G01*
X3985003Y2506903D03*
G01*
X3399990Y3081096D03*
G01*
X3464989Y3081096D03*
G01*
X3529987Y3081096D03*
G01*
X3594986Y3081096D03*
G01*
X3660010Y3081096D03*
G01*
X3725009Y3081096D03*
G01*
X3790007Y3081096D03*
G01*
X3855006Y3081096D03*
G01*
X3920004Y3081096D03*
G01*
X3985003Y3081096D03*
D11*
G01*
X2540000Y2229002D03*
G01*
X2540000Y2088997D03*
G01*
X2032000Y2229002D03*
G01*
X2032000Y2088997D03*
G01*
X3124202Y2108200D03*
G01*
X3124202Y1968195D03*
G01*
X3886202Y2108200D03*
G01*
X3886202Y1968195D03*
G01*
X1016000Y2229002D03*
G01*
X1016000Y2088997D03*
G01*
X1524000Y2229002D03*
G01*
X1524000Y2088997D03*
G01*
X508000Y2229002D03*
G01*
X508000Y2088997D03*
D12*
G01*
X898753Y2794000D03*
G01*
X1133246Y2794000D03*
D13*
G01*
X1556004Y2962122D03*
G01*
X1745995Y2962122D03*
G01*
X1745995Y2702077D03*
G01*
X1651000Y2702077D03*
G01*
X1556004Y2702077D03*
D14*
G01*
X3600196Y2108200D03*
G01*
X3410203Y2108200D03*
D15*
G01*
X521792Y2968777D03*
G01*
X521792Y3033801D03*
G01*
X521792Y3098825D03*
G01*
X521792Y3163849D03*
G01*
X521792Y3228873D03*
D16*
G01*
X214807Y2698800D03*
D17*
G01*
X214782Y3498799D03*
G01*
X213258Y3219780D03*
G01*
X211302Y2967812D03*
D18*
G01*
X2737002Y762000D03*
G01*
X2596997Y762000D03*
D19*
G01*
X5339082Y1162050D03*
G01*
X4643122Y1162050D03*
G01*
X5140962Y361950D03*
D20*
G01*
X3700221Y1203909D03*
G01*
X3700221Y243890D03*
G01*
X3310204Y1203909D03*
G01*
X3310204Y243890D03*
M02*
