G04 Layer: TopPasteMaskLayer*
G04 EasyEDA v6.5.43, 2024-08-21 00:37:48*
G04 cb6e2e9fbd21486d88ae5690d2d3dc00,10*
G04 Gerber Generator version 0.2*
G04 Scale: 100 percent, Rotated: No, Reflected: No *
G04 Dimensions in millimeters *
G04 leading zeros omitted , absolute positions ,4 integer and 5 decimal *
%FSLAX45Y45*%
%MOMM*%

%AMMACRO1*21,1,$1,$2,0,0,$3*%
%ADD10O,0.36400740000000004X1.7420082*%
%ADD11R,0.9000X0.8000*%
%ADD12R,1.0000X0.7500*%
%ADD13R,0.6000X1.1000*%
%ADD14MACRO1,1.4999X2.7X0.0000*%
%ADD15MACRO1,1.5001X2.7X0.0000*%
%ADD16R,0.4500X2.0000*%
%ADD17R,1.9000X2.1000*%
%ADD18R,0.8000X0.9000*%
%ADD19R,1.5000X4.0000*%
%ADD20R,1.0000X2.0000*%

%LPD*%
G36*
X2547518Y1569008D02*
G01*
X2542489Y1563979D01*
X2542489Y1484020D01*
X2547518Y1478991D01*
X2627477Y1478991D01*
X2632506Y1484020D01*
X2632506Y1506778D01*
X2595524Y1506778D01*
X2595524Y1539798D01*
X2632506Y1539798D01*
X2632506Y1563979D01*
X2627477Y1569008D01*
G37*
G36*
X2706522Y1569008D02*
G01*
X2701493Y1563979D01*
X2701493Y1541221D01*
X2738526Y1541221D01*
X2738526Y1508201D01*
X2701493Y1508201D01*
X2701493Y1484020D01*
X2706522Y1478991D01*
X2786481Y1478991D01*
X2791510Y1484020D01*
X2791510Y1563979D01*
X2786481Y1569008D01*
G37*
D10*
G01*
X3085693Y2519603D03*
G01*
X3150692Y2519603D03*
G01*
X3215690Y2519603D03*
G01*
X3280689Y2519603D03*
G01*
X3345713Y2519603D03*
G01*
X3410711Y2519603D03*
G01*
X3475710Y2519603D03*
G01*
X3540709Y2519603D03*
G01*
X3605707Y2519603D03*
G01*
X3670706Y2519603D03*
G01*
X3085693Y3093796D03*
G01*
X3150692Y3093796D03*
G01*
X3215690Y3093796D03*
G01*
X3280689Y3093796D03*
G01*
X3345713Y3093796D03*
G01*
X3410711Y3093796D03*
G01*
X3475710Y3093796D03*
G01*
X3540709Y3093796D03*
G01*
X3605707Y3093796D03*
G01*
X3670706Y3093796D03*
D11*
G01*
X2540000Y2229002D03*
G01*
X2540000Y2088997D03*
G01*
X2032000Y2229002D03*
G01*
X2032000Y2088997D03*
G01*
X3124200Y1847697D03*
G01*
X3124200Y1987702D03*
G01*
X4140200Y1847697D03*
G01*
X4140200Y1987702D03*
G01*
X1016000Y2229002D03*
G01*
X1016000Y2088997D03*
G01*
X1524000Y2229002D03*
G01*
X1524000Y2088997D03*
G01*
X508000Y2229002D03*
G01*
X508000Y2088997D03*
D12*
G01*
X898753Y2794000D03*
G01*
X1133246Y2794000D03*
D13*
G01*
X1556004Y2962122D03*
G01*
X1745995Y2962122D03*
G01*
X1745995Y2702077D03*
G01*
X1651000Y2702077D03*
G01*
X1556004Y2702077D03*
D14*
G01*
X3727208Y1917700D03*
D15*
G01*
X3537203Y1917700D03*
D16*
G01*
X2035022Y610692D03*
G01*
X1969998Y610692D03*
G01*
X1904974Y610692D03*
G01*
X1839950Y610692D03*
G01*
X1774926Y610692D03*
D17*
G01*
X2304973Y303682D03*
G01*
X1505000Y303682D03*
G01*
X1784019Y302158D03*
G01*
X2035987Y300202D03*
D18*
G01*
X2737002Y762000D03*
G01*
X2596997Y762000D03*
D19*
G01*
X490220Y869950D03*
G01*
X1186179Y869950D03*
G01*
X688339Y1670050D03*
D20*
G01*
X3700221Y1203909D03*
G01*
X3700221Y243890D03*
G01*
X3310204Y1203909D03*
G01*
X3310204Y243890D03*
M02*
