G04 Layer: TopLayer*
G04 EasyEDA v6.5.43, 2024-08-21 16:11:37*
G04 cb6e2e9fbd21486d88ae5690d2d3dc00,10*
G04 Gerber Generator version 0.2*
G04 Scale: 100 percent, Rotated: No, Reflected: No *
G04 Dimensions in millimeters *
G04 leading zeros omitted , absolute positions ,4 integer and 5 decimal *
%FSLAX45Y45*%
%MOMM*%

%AMMACRO1*21,1,$1,$2,0,0,$3*%
%ADD10C,0.2540*%
%ADD11O,0.36400740000000004X1.7420082*%
%ADD12R,0.9000X0.8000*%
%ADD13R,1.0000X0.7500*%
%ADD14R,0.6000X1.1000*%
%ADD15MACRO1,1.5X2.7X0.0000*%
%ADD16R,2.0000X0.4500*%
%ADD17R,2.1000X1.9000*%
%ADD18R,0.8000X0.9000*%
%ADD19MACRO1,0.864X0.8065X-90.0000*%
%ADD20R,1.5000X4.0000*%
%ADD21R,1.0000X2.0000*%
%ADD22C,1.5748*%
%ADD23R,1.5748X1.5748*%
%ADD24R,1.7000X1.5748*%
%ADD25C,1.7000*%
%ADD26C,2.5000*%

%LPD*%
D10*
X1524005Y3822700D02*
G01*
X1524005Y3581405D01*
X1168400Y3228893D01*
X1168400Y3228893D01*
X521792Y3228875D01*
X3790007Y3081096D02*
G01*
X3790007Y3251200D01*
X5084577Y3243579D01*
X1556004Y2962147D02*
G01*
X1556004Y2870200D01*
X1752600Y2870200D01*
X2032000Y2590800D01*
X2032000Y2229104D01*
X898753Y2794000D02*
G01*
X898753Y3228873D01*
X2540005Y3822700D02*
G01*
X2540005Y3213094D01*
X2933700Y2819400D01*
X3911600Y2819400D01*
X3920004Y2810995D01*
X3920004Y2506903D01*
X2032005Y3822700D02*
G01*
X2032005Y3644894D01*
X2908300Y2768600D01*
X3848100Y2768600D01*
X3855006Y2761693D01*
X3855006Y2506903D01*
X1778005Y3822700D02*
G01*
X2882905Y2717800D01*
X3784600Y2717800D01*
X3790007Y2712392D01*
X3790007Y2506903D01*
X3594986Y2506903D02*
G01*
X3594986Y2667000D01*
X2819400Y2667000D01*
X2540000Y2387600D01*
X2540000Y2229002D01*
X3725011Y2506903D02*
G01*
X3725011Y2369743D01*
X3967556Y2369743D01*
X4076700Y2260600D01*
X4076700Y1854200D01*
X3746500Y1524000D01*
X2742336Y1524000D01*
X3529987Y2506903D02*
G01*
X3529992Y2324100D01*
X3822700Y2324100D01*
X3886200Y2260600D01*
X3886200Y2108200D01*
X3464989Y2506903D02*
G01*
X3464991Y2324100D01*
X3187700Y2324100D01*
X3124200Y2260600D01*
X3124200Y2108200D01*
X3600188Y2108200D02*
G01*
X3886200Y2108200D01*
X3124200Y2108200D02*
G01*
X3410198Y2108200D01*
X1745995Y2962122D02*
G01*
X1745995Y3124200D01*
X1231900Y3124200D01*
X1016000Y2908300D01*
X1016000Y2552700D01*
X692302Y2229002D01*
X508000Y2229002D01*
X762000Y3822700D02*
G01*
X762000Y4165600D01*
X2768600Y4152900D01*
X3533190Y3388309D01*
X3533190Y3081096D01*
X3468192Y3081096D02*
G01*
X3468192Y3262807D01*
X2667000Y4064000D01*
X1257305Y4064000D01*
X1016005Y3822700D01*
X1524000Y2374900D02*
G01*
X1524000Y2362934D01*
X1524000Y2229002D01*
X1016000Y2229002D02*
G01*
X1016000Y2374900D01*
X1524000Y2374900D01*
X1524000Y2603500D01*
X2742336Y1524000D02*
G01*
X2737002Y1518665D01*
X2737002Y762000D01*
X3310204Y1203909D02*
G01*
X3310204Y1524000D01*
X4643120Y1162050D02*
G01*
X4819650Y1162050D01*
X5140959Y810260D01*
X5140959Y361950D01*
X5084569Y2794000D02*
G01*
X5511800Y2366769D01*
X5511800Y508000D01*
X5365750Y361950D01*
X5140962Y361950D01*
X2596997Y760653D02*
G01*
X2596997Y762000D01*
X3310204Y1203909D02*
G01*
X3310204Y1270279D01*
X2032000Y2229002D02*
G01*
X2540000Y2229002D01*
X2591688Y1524000D02*
G01*
X2591688Y1854200D01*
X2768600Y1854200D01*
X2768600Y2222500D01*
X2762097Y2229002D01*
X2540000Y2229002D01*
X1745995Y2702077D02*
G01*
X1745995Y2603500D01*
X1524000Y2603500D01*
X1133246Y2794000D02*
G01*
X1270000Y2794000D01*
X1270000Y2603500D01*
X1524000Y2603500D01*
X1556004Y2702077D02*
G01*
X1556004Y2603500D01*
D11*
G01*
X3399990Y2506903D03*
G01*
X3464989Y2506903D03*
G01*
X3529987Y2506903D03*
G01*
X3594986Y2506903D03*
G01*
X3660010Y2506903D03*
G01*
X3725009Y2506903D03*
G01*
X3790007Y2506903D03*
G01*
X3855006Y2506903D03*
G01*
X3920004Y2506903D03*
G01*
X3985003Y2506903D03*
G01*
X3399990Y3081096D03*
G01*
X3464989Y3081096D03*
G01*
X3529987Y3081096D03*
G01*
X3594986Y3081096D03*
G01*
X3660010Y3081096D03*
G01*
X3725009Y3081096D03*
G01*
X3790007Y3081096D03*
G01*
X3855006Y3081096D03*
G01*
X3920004Y3081096D03*
G01*
X3985003Y3081096D03*
D12*
G01*
X2540000Y2229002D03*
G01*
X2540000Y2088997D03*
G01*
X2032000Y2229002D03*
G01*
X2032000Y2088997D03*
G01*
X3124202Y2108200D03*
G01*
X3124202Y1968195D03*
G01*
X3886202Y2108200D03*
G01*
X3886202Y1968195D03*
G01*
X1016000Y2229002D03*
G01*
X1016000Y2088997D03*
G01*
X1524000Y2229002D03*
G01*
X1524000Y2088997D03*
G01*
X508000Y2229002D03*
G01*
X508000Y2088997D03*
D13*
G01*
X898753Y2794000D03*
G01*
X1133246Y2794000D03*
D14*
G01*
X1556004Y2962122D03*
G01*
X1745995Y2962122D03*
G01*
X1745995Y2702077D03*
G01*
X1651000Y2702077D03*
G01*
X1556004Y2702077D03*
D15*
G01*
X3600199Y2108200D03*
G01*
X3410200Y2108200D03*
D16*
G01*
X521792Y2968777D03*
G01*
X521792Y3033801D03*
G01*
X521792Y3098825D03*
G01*
X521792Y3163849D03*
G01*
X521792Y3228873D03*
D17*
G01*
X214782Y2698826D03*
G01*
X214782Y3498799D03*
G01*
X213258Y3219780D03*
G01*
X211302Y2967812D03*
D18*
G01*
X2737002Y762000D03*
G01*
X2596997Y762000D03*
D19*
G01*
X2591677Y1524000D03*
G01*
X2742327Y1524000D03*
D20*
G01*
X5339082Y1162050D03*
G01*
X4643122Y1162050D03*
G01*
X5140962Y361950D03*
D21*
G01*
X3700221Y1203909D03*
G01*
X3700221Y243890D03*
G01*
X3310204Y1203909D03*
G01*
X3310204Y243890D03*
D22*
G01*
X2540005Y3822700D03*
G01*
X2286005Y3822700D03*
G01*
X2032005Y3822700D03*
G01*
X1778005Y3822700D03*
D23*
G01*
X1524005Y3822700D03*
D24*
G01*
X762005Y3822700D03*
D25*
G01*
X1016005Y3822700D03*
D26*
G01*
X5084569Y2794000D03*
G01*
X5084569Y3293871D03*
G01*
X5084569Y2293873D03*
M02*
