G04 Layer: TopSolderMaskLayer*
G04 EasyEDA v6.5.43, 2024-08-21 00:37:48*
G04 cb6e2e9fbd21486d88ae5690d2d3dc00,10*
G04 Gerber Generator version 0.2*
G04 Scale: 100 percent, Rotated: No, Reflected: No *
G04 Dimensions in millimeters *
G04 leading zeros omitted , absolute positions ,4 integer and 5 decimal *
%FSLAX45Y45*%
%MOMM*%

%AMMACRO1*4,1,8,-0.4712,-0.4508,-0.5009,-0.4209,-0.5009,0.4211,-0.4712,0.4508,0.4709,0.4508,0.5009,0.4211,0.5009,-0.4209,0.4709,-0.4508,-0.4712,-0.4508,0*%
%AMMACRO2*4,1,8,-0.5211,-0.4257,-0.5508,-0.3957,-0.5508,0.396,-0.5211,0.4257,0.5208,0.4257,0.5508,0.396,0.5508,-0.3957,0.5208,-0.4257,-0.5211,-0.4257,0*%
%AMMACRO3*4,1,8,-0.3211,-0.6008,-0.3508,-0.5709,-0.3508,0.5711,-0.3211,0.6008,0.3208,0.6008,0.3508,0.5711,0.3508,-0.5709,0.3208,-0.6008,-0.3211,-0.6008,0*%
%AMMACRO4*4,1,8,-0.771,-1.4008,-0.8007,-1.3708,-0.8007,1.3711,-0.771,1.4008,0.7708,1.4008,0.8007,1.3711,0.8007,-1.3708,0.7708,-1.4008,-0.771,-1.4008,0*%
%AMMACRO5*4,1,8,-0.7711,-1.4008,-0.8009,-1.3708,-0.8009,1.3711,-0.7711,1.4008,0.7709,1.4008,0.8009,1.3711,0.8009,-1.3708,0.7709,-1.4008,-0.7711,-1.4008,0*%
%AMMACRO6*4,1,8,-0.2461,-1.0508,-0.2758,-1.0208,-0.2758,1.0211,-0.2461,1.0508,0.2459,1.0508,0.2758,1.0211,0.2758,-1.0208,0.2459,-1.0508,-0.2461,-1.0508,0*%
%AMMACRO7*4,1,8,-0.9712,-1.1008,-1.0009,-1.0709,-1.0009,1.0711,-0.9712,1.1008,0.9709,1.1008,1.0009,1.0711,1.0009,-1.0709,0.9709,-1.1008,-0.9712,-1.1008,0*%
%AMMACRO8*4,1,8,-0.971,-1.1008,-1.0008,-1.0709,-1.0008,1.0711,-0.971,1.1008,0.9708,1.1008,1.0008,1.0711,1.0008,-1.0709,0.9708,-1.1008,-0.971,-1.1008,0*%
%AMMACRO9*4,1,8,-0.4211,-0.5009,-0.4509,-0.4709,-0.4509,0.4712,-0.4211,0.5009,0.4209,0.5009,0.4509,0.4712,0.4509,-0.4709,0.4209,-0.5009,-0.4211,-0.5009,0*%
%AMMACRO10*4,1,8,-0.4243,-0.4829,-0.454,-0.4529,-0.454,0.4531,-0.4243,0.4829,0.4241,0.4829,0.454,0.4531,0.454,-0.4529,0.4241,-0.4829,-0.4243,-0.4829,0*%
%AMMACRO11*4,1,8,-0.8085,-0.8382,-0.8382,-0.8082,-0.8382,0.8085,-0.8085,0.8382,0.8082,0.8382,0.8382,0.8085,0.8382,-0.8082,0.8082,-0.8382,-0.8085,-0.8382,0*%
%AMMACRO12*4,1,8,-0.8711,-0.8382,-0.9008,-0.8082,-0.9008,0.8085,-0.8711,0.8382,0.8708,0.8382,0.9008,0.8085,0.9008,-0.8082,0.8708,-0.8382,-0.8711,-0.8382,0*%
%AMMACRO13*4,1,8,-0.7711,-2.0508,-0.8009,-2.0208,-0.8009,2.0211,-0.7711,2.0508,0.7709,2.0508,0.8009,2.0211,0.8009,-2.0208,0.7709,-2.0508,-0.7711,-2.0508,0*%
%AMMACRO14*4,1,8,-0.5211,-1.0508,-0.5508,-1.0208,-0.5508,1.0211,-0.5211,1.0508,0.5208,1.0508,0.5508,1.0211,0.5508,-1.0208,0.5208,-1.0508,-0.5211,-1.0508,0*%
%ADD10O,0.4656074X1.8436082*%
%ADD11MACRO1*%
%ADD12MACRO2*%
%ADD13MACRO3*%
%ADD14MACRO4*%
%ADD15MACRO5*%
%ADD16MACRO6*%
%ADD17MACRO7*%
%ADD18MACRO8*%
%ADD19MACRO9*%
%ADD20MACRO10*%
%ADD21C,1.6764*%
%ADD22MACRO11*%
%ADD23MACRO12*%
%ADD24C,1.8016*%
%ADD25MACRO13*%
%ADD26MACRO14*%
%ADD27C,2.6016*%

%LPD*%
D10*
G01*
X3085693Y2519603D03*
G01*
X3150692Y2519603D03*
G01*
X3215690Y2519603D03*
G01*
X3280689Y2519603D03*
G01*
X3345713Y2519603D03*
G01*
X3410711Y2519603D03*
G01*
X3475710Y2519603D03*
G01*
X3540709Y2519603D03*
G01*
X3605707Y2519603D03*
G01*
X3670706Y2519603D03*
G01*
X3085693Y3093796D03*
G01*
X3150692Y3093796D03*
G01*
X3215690Y3093796D03*
G01*
X3280689Y3093796D03*
G01*
X3345713Y3093796D03*
G01*
X3410711Y3093796D03*
G01*
X3475710Y3093796D03*
G01*
X3540709Y3093796D03*
G01*
X3605707Y3093796D03*
G01*
X3670706Y3093796D03*
D11*
G01*
X2540000Y2229002D03*
G01*
X2540000Y2088997D03*
G01*
X2032000Y2229002D03*
G01*
X2032000Y2088997D03*
G01*
X3124200Y1847697D03*
G01*
X3124200Y1987702D03*
G01*
X4140200Y1847697D03*
G01*
X4140200Y1987702D03*
G01*
X1016000Y2229002D03*
G01*
X1016000Y2088997D03*
G01*
X1524000Y2229002D03*
G01*
X1524000Y2088997D03*
G01*
X508000Y2229002D03*
G01*
X508000Y2088997D03*
D12*
G01*
X898740Y2794000D03*
G01*
X1133259Y2794000D03*
D13*
G01*
X1556003Y2962109D03*
G01*
X1745996Y2962109D03*
G01*
X1745996Y2702090D03*
G01*
X1651000Y2702090D03*
G01*
X1556003Y2702090D03*
D14*
G01*
X3727208Y1917700D03*
D15*
G01*
X3537203Y1917700D03*
D16*
G01*
X2035022Y610692D03*
G01*
X1969998Y610692D03*
G01*
X1904974Y610692D03*
G01*
X1839950Y610692D03*
G01*
X1774926Y610692D03*
D17*
G01*
X2304986Y303682D03*
D18*
G01*
X1505000Y303682D03*
G01*
X1784019Y302158D03*
G01*
X2035987Y300202D03*
D19*
G01*
X2737002Y762000D03*
G01*
X2596997Y762000D03*
D20*
G01*
X2591676Y1524000D03*
G01*
X2742323Y1524000D03*
D21*
G01*
X1524000Y3822700D03*
G01*
X1778000Y3822700D03*
G01*
X2032000Y3822700D03*
G01*
X2286000Y3822700D03*
D22*
G01*
X2540000Y3822700D03*
D23*
G01*
X1016012Y3822700D03*
D24*
G01*
X762000Y3822700D03*
D25*
G01*
X490219Y869950D03*
G01*
X1186180Y869950D03*
G01*
X688340Y1670050D03*
D26*
G01*
X3700208Y1203909D03*
G01*
X3700208Y243890D03*
G01*
X3310191Y1203909D03*
G01*
X3310191Y243890D03*
D27*
G01*
X5071872Y2032000D03*
G01*
X5071872Y2531871D03*
G01*
X5071872Y1531873D03*
M02*
