G04 Layer: BottomLayer*
G04 EasyEDA v6.5.40, 2024-08-14 22:01:03*
G04 cb6e2e9fbd21486d88ae5690d2d3dc00,10*
G04 Gerber Generator version 0.2*
G04 Scale: 100 percent, Rotated: No, Reflected: No *
G04 Dimensions in millimeters *
G04 leading zeros omitted , absolute positions ,4 integer and 5 decimal *
%FSLAX45Y45*%
%MOMM*%

%ADD10C,0.2540*%
%ADD11R,1.5748X1.5748*%
%ADD12C,1.5748*%
%ADD13C,0.6100*%

%LPD*%
D10*
X1872742Y-1727301D02*
G01*
X3361080Y-238963D01*
X3361080Y-175209D01*
X4826000Y-889000D02*
G01*
X4019524Y-889000D01*
X3627577Y-497052D01*
X4826000Y-1651000D02*
G01*
X4946980Y-1530019D01*
X4946980Y-844321D01*
X4864658Y-762000D01*
X4110126Y-762000D01*
X3458336Y-110210D01*
X3080156Y-110210D01*
X4826000Y-1143000D02*
G01*
X3640607Y-1143000D01*
X3421735Y-1361871D01*
X3421735Y-1361871D02*
G01*
X2978277Y-918413D01*
X2978277Y-866775D01*
X1167155Y-1434947D02*
G01*
X1883105Y-1434947D01*
X3081604Y-236448D01*
X1955368Y216077D02*
G01*
X1643430Y-95859D01*
X1643430Y-1149502D01*
D11*
G01*
X4826000Y-1905000D03*
D12*
G01*
X4826000Y-1651000D03*
G01*
X4826000Y-1397000D03*
G01*
X4826000Y-1143000D03*
G01*
X4826000Y-889000D03*
G01*
X4826000Y-635000D03*
G01*
X4826000Y-381000D03*
G01*
X4826000Y-127000D03*
D13*
G01*
X1643430Y-1149502D03*
G01*
X1955368Y216077D03*
G01*
X1167155Y-1434947D03*
G01*
X3081604Y-236448D03*
G01*
X2978277Y-866775D03*
G01*
X3421735Y-1361871D03*
G01*
X3080156Y-110210D03*
G01*
X3627577Y-497052D03*
G01*
X1872742Y-1727301D03*
G01*
X3361080Y-175209D03*
M02*
