G04 Layer: TopSolderMaskLayer*
G04 EasyEDA v6.5.40, 2024-08-14 22:01:03*
G04 cb6e2e9fbd21486d88ae5690d2d3dc00,10*
G04 Gerber Generator version 0.2*
G04 Scale: 100 percent, Rotated: No, Reflected: No *
G04 Dimensions in millimeters *
G04 leading zeros omitted , absolute positions ,4 integer and 5 decimal *
%FSLAX45Y45*%
%MOMM*%

%AMMACRO1*1,1,$1,$2,$3*1,1,$1,$4,$5*1,1,$1,0-$2,0-$3*1,1,$1,0-$4,0-$5*20,1,$1,$2,$3,$4,$5,0*20,1,$1,$4,$5,0-$2,0-$3,0*20,1,$1,0-$2,0-$3,0-$4,0-$5,0*20,1,$1,0-$4,0-$5,$2,$3,0*4,1,4,$2,$3,$4,$5,0-$2,0-$3,0-$4,0-$5,$2,$3,0*%
%ADD10O,1.8436082X0.4656074*%
%ADD11MACRO1,0.1016X-0.4X0.45X0.4X0.45*%
%ADD12MACRO1,0.1016X0.45X0.4X0.45X-0.4*%
%ADD13R,1.0016X0.9016*%
%ADD14MACRO1,0.1016X0.4X-0.45X-0.4X-0.45*%
%ADD15MACRO1,0.1016X0.5X-0.375X-0.5X-0.375*%
%ADD16MACRO1,0.1016X0.55X-0.3X-0.55X-0.3*%
%ADD17MACRO1,0.1016X1.35X-0.75X1.35X0.75*%
%ADD18R,1.1016X2.1016*%
%ADD19MACRO1,0.1016X0.225X1X0.225X-1*%
%ADD20R,2.0016X2.2016*%
%ADD21MACRO1,0.1016X-0.432X0.4032X0.432X0.4032*%
%ADD22MACRO1,0.1016X-0.432X-0.4032X0.432X-0.4032*%
%ADD23R,1.3516X1.1016*%
%ADD24R,1.6764X1.6764*%
%ADD25C,1.6764*%

%LPD*%
D10*
G01*
X2646603Y279806D03*
G01*
X2646603Y214807D03*
G01*
X2646603Y149809D03*
G01*
X2646603Y84810D03*
G01*
X2646603Y19786D03*
G01*
X2646603Y-45212D03*
G01*
X2646603Y-110210D03*
G01*
X2646603Y-175209D03*
G01*
X2646603Y-240207D03*
G01*
X2646603Y-305206D03*
G01*
X3220796Y279806D03*
G01*
X3220796Y214807D03*
G01*
X3220796Y149809D03*
G01*
X3220796Y84810D03*
G01*
X3220796Y19786D03*
G01*
X3220796Y-45212D03*
G01*
X3220796Y-110210D03*
G01*
X3220796Y-175209D03*
G01*
X3220796Y-240207D03*
G01*
X3220796Y-305206D03*
D11*
G01*
X3244999Y-812800D03*
G01*
X3105000Y-812800D03*
D12*
G01*
X2641600Y-793899D03*
G01*
X2641600Y-653900D03*
G01*
X1739900Y-1149499D03*
G01*
X1739900Y-1009500D03*
D13*
G01*
X2247900Y-1009497D03*
G01*
X2247900Y-1149502D03*
D14*
G01*
X603100Y-889000D03*
G01*
X743099Y-889000D03*
G01*
X1187300Y-901700D03*
G01*
X1327299Y-901700D03*
G01*
X2127100Y-431800D03*
G01*
X2267099Y-431800D03*
D15*
G01*
X670144Y-406400D03*
G01*
X904650Y-406400D03*
D16*
G01*
X1603211Y-235203D03*
G01*
X1603211Y-425196D03*
G01*
X1343188Y-425196D03*
G01*
X1343188Y-330200D03*
G01*
X1343188Y-235203D03*
D17*
G01*
X1752600Y108200D03*
G01*
X1752600Y298199D03*
D18*
G01*
X2967304Y-2169109D03*
G01*
X2967304Y-1209090D03*
G01*
X3357321Y-2169109D03*
G01*
X3357321Y-1209090D03*
D19*
G01*
X1234922Y-1586395D03*
G01*
X1169898Y-1586395D03*
G01*
X1104874Y-1586395D03*
G01*
X1039850Y-1586395D03*
G01*
X974826Y-1586395D03*
D20*
G01*
X1504899Y-1893417D03*
G01*
X704900Y-1893417D03*
G01*
X983919Y-1894941D03*
G01*
X1235887Y-1896897D03*
D11*
G01*
X2482999Y-1854200D03*
G01*
X2343000Y-1854200D03*
D21*
G01*
X3733800Y-659524D03*
D22*
G01*
X3733800Y-508875D03*
D23*
G01*
X3695710Y-1418102D03*
G01*
X3695710Y-1198087D03*
D21*
G01*
X520700Y-1472324D03*
D22*
G01*
X520700Y-1321675D03*
D24*
G01*
X4826000Y-1905000D03*
D25*
G01*
X4826000Y-1651000D03*
G01*
X4826000Y-1397000D03*
G01*
X4826000Y-1143000D03*
G01*
X4826000Y-889000D03*
G01*
X4826000Y-635000D03*
G01*
X4826000Y-381000D03*
G01*
X4826000Y-127000D03*
M02*
