G04 Layer: TopLayer*
G04 EasyEDA v6.5.40, 2024-08-14 22:01:03*
G04 cb6e2e9fbd21486d88ae5690d2d3dc00,10*
G04 Gerber Generator version 0.2*
G04 Scale: 100 percent, Rotated: No, Reflected: No *
G04 Dimensions in millimeters *
G04 leading zeros omitted , absolute positions ,4 integer and 5 decimal *
%FSLAX45Y45*%
%MOMM*%

%AMMACRO1*21,1,$1,$2,0,0,$3*%
%ADD10C,0.2032*%
%ADD11C,0.2540*%
%ADD12O,1.7420082X0.36400740000000004*%
%ADD13R,0.8000X0.9000*%
%ADD14R,0.9000X0.8000*%
%ADD15R,1.0000X0.7500*%
%ADD16R,1.1000X0.6000*%
%ADD17MACRO1,1.5X2.7X90.0000*%
%ADD18R,1.0000X2.0000*%
%ADD19R,0.4500X2.0000*%
%ADD20R,1.9000X2.1000*%
%ADD21MACRO1,0.864X0.8065X0.0000*%
%ADD22R,0.8640X0.8065*%
%ADD23R,1.2500X1.0000*%
%ADD24R,1.5748X1.5748*%
%ADD25C,1.5748*%
%ADD26C,0.6100*%
%ADD27C,0.0199*%

%LPD*%
D10*
X4229354Y-344423D02*
G01*
X4220209Y-335534D01*
X4206493Y-330962D01*
X4188206Y-330962D01*
X4174743Y-335534D01*
X4165600Y-344423D01*
X4165600Y-353568D01*
X4170172Y-362712D01*
X4174743Y-367284D01*
X4183888Y-371855D01*
X4211065Y-381000D01*
X4220209Y-385318D01*
X4224781Y-389889D01*
X4229354Y-399034D01*
X4229354Y-412750D01*
X4220209Y-421894D01*
X4206493Y-426465D01*
X4188206Y-426465D01*
X4174743Y-421894D01*
X4165600Y-412750D01*
X4259325Y-330962D02*
G01*
X4281931Y-426465D01*
X4304791Y-330962D02*
G01*
X4281931Y-426465D01*
X4304791Y-330962D02*
G01*
X4327397Y-426465D01*
X4350258Y-330962D02*
G01*
X4327397Y-426465D01*
X4448302Y-353568D02*
G01*
X4443729Y-344423D01*
X4434586Y-335534D01*
X4425695Y-330962D01*
X4407408Y-330962D01*
X4398263Y-335534D01*
X4389120Y-344423D01*
X4384802Y-353568D01*
X4380229Y-367284D01*
X4380229Y-389889D01*
X4384802Y-403605D01*
X4389120Y-412750D01*
X4398263Y-421894D01*
X4407408Y-426465D01*
X4425695Y-426465D01*
X4434586Y-421894D01*
X4443729Y-412750D01*
X4448302Y-403605D01*
X4478274Y-330962D02*
G01*
X4478274Y-426465D01*
X4478274Y-426465D02*
G01*
X4532884Y-426465D01*
X4562856Y-330962D02*
G01*
X4562856Y-426465D01*
X4626609Y-330962D02*
G01*
X4562856Y-394462D01*
X4585715Y-371855D02*
G01*
X4626609Y-426465D01*
X4229354Y-598423D02*
G01*
X4220209Y-589534D01*
X4206493Y-584962D01*
X4188206Y-584962D01*
X4174743Y-589534D01*
X4165600Y-598423D01*
X4165600Y-607568D01*
X4170172Y-616712D01*
X4174743Y-621284D01*
X4183888Y-625855D01*
X4211065Y-635000D01*
X4220209Y-639318D01*
X4224781Y-643889D01*
X4229354Y-653034D01*
X4229354Y-666750D01*
X4220209Y-675894D01*
X4206493Y-680465D01*
X4188206Y-680465D01*
X4174743Y-675894D01*
X4165600Y-666750D01*
X4259325Y-584962D02*
G01*
X4281931Y-680465D01*
X4304791Y-584962D02*
G01*
X4281931Y-680465D01*
X4304791Y-584962D02*
G01*
X4327397Y-680465D01*
X4350258Y-584962D02*
G01*
X4327397Y-680465D01*
X4380229Y-584962D02*
G01*
X4380229Y-680465D01*
X4380229Y-584962D02*
G01*
X4411979Y-584962D01*
X4425695Y-589534D01*
X4434586Y-598423D01*
X4439158Y-607568D01*
X4443729Y-621284D01*
X4443729Y-643889D01*
X4439158Y-657605D01*
X4434586Y-666750D01*
X4425695Y-675894D01*
X4411979Y-680465D01*
X4380229Y-680465D01*
X4473702Y-584962D02*
G01*
X4473702Y-680465D01*
X4531106Y-584962D02*
G01*
X4521961Y-589534D01*
X4512818Y-598423D01*
X4508245Y-607568D01*
X4503674Y-621284D01*
X4503674Y-643889D01*
X4508245Y-657605D01*
X4512818Y-666750D01*
X4521961Y-675894D01*
X4531106Y-680465D01*
X4549140Y-680465D01*
X4558284Y-675894D01*
X4567427Y-666750D01*
X4572000Y-657605D01*
X4576572Y-643889D01*
X4576572Y-621284D01*
X4572000Y-607568D01*
X4567427Y-598423D01*
X4558284Y-589534D01*
X4549140Y-584962D01*
X4531106Y-584962D01*
X4192777Y-838962D02*
G01*
X4183888Y-843534D01*
X4174743Y-852423D01*
X4170172Y-861568D01*
X4165600Y-875284D01*
X4165600Y-897889D01*
X4170172Y-911605D01*
X4174743Y-920750D01*
X4183888Y-929894D01*
X4192777Y-934465D01*
X4211065Y-934465D01*
X4220209Y-929894D01*
X4229354Y-920750D01*
X4233672Y-911605D01*
X4238243Y-897889D01*
X4238243Y-875284D01*
X4233672Y-861568D01*
X4229354Y-852423D01*
X4220209Y-843534D01*
X4211065Y-838962D01*
X4192777Y-838962D01*
X4206493Y-916178D02*
G01*
X4233672Y-943355D01*
X4268215Y-838962D02*
G01*
X4268215Y-934465D01*
X4331970Y-838962D02*
G01*
X4331970Y-934465D01*
X4268215Y-884428D02*
G01*
X4331970Y-884428D01*
X4233672Y-1115568D02*
G01*
X4229354Y-1106423D01*
X4220209Y-1097534D01*
X4211065Y-1092962D01*
X4192777Y-1092962D01*
X4183888Y-1097534D01*
X4174743Y-1106423D01*
X4170172Y-1115568D01*
X4165600Y-1129284D01*
X4165600Y-1151889D01*
X4170172Y-1165605D01*
X4174743Y-1174750D01*
X4183888Y-1183894D01*
X4192777Y-1188465D01*
X4211065Y-1188465D01*
X4220209Y-1183894D01*
X4229354Y-1174750D01*
X4233672Y-1165605D01*
X4233672Y-1151889D01*
X4211065Y-1151889D02*
G01*
X4233672Y-1151889D01*
X4263897Y-1092962D02*
G01*
X4263897Y-1188465D01*
X4263897Y-1092962D02*
G01*
X4327397Y-1188465D01*
X4327397Y-1092962D02*
G01*
X4327397Y-1188465D01*
X4357370Y-1092962D02*
G01*
X4357370Y-1188465D01*
X4357370Y-1092962D02*
G01*
X4389120Y-1092962D01*
X4402836Y-1097534D01*
X4411979Y-1106423D01*
X4416552Y-1115568D01*
X4421124Y-1129284D01*
X4421124Y-1151889D01*
X4416552Y-1165605D01*
X4411979Y-1174750D01*
X4402836Y-1183894D01*
X4389120Y-1188465D01*
X4357370Y-1188465D01*
X4233672Y-1369568D02*
G01*
X4229354Y-1360423D01*
X4220209Y-1351534D01*
X4211065Y-1346962D01*
X4192777Y-1346962D01*
X4183888Y-1351534D01*
X4174743Y-1360423D01*
X4170172Y-1369568D01*
X4165600Y-1383284D01*
X4165600Y-1405889D01*
X4170172Y-1419605D01*
X4174743Y-1428750D01*
X4183888Y-1437894D01*
X4192777Y-1442465D01*
X4211065Y-1442465D01*
X4220209Y-1437894D01*
X4229354Y-1428750D01*
X4233672Y-1419605D01*
X4263897Y-1346962D02*
G01*
X4263897Y-1442465D01*
X4263897Y-1442465D02*
G01*
X4318254Y-1442465D01*
X4348225Y-1346962D02*
G01*
X4348225Y-1442465D01*
X4411979Y-1346962D02*
G01*
X4348225Y-1410462D01*
X4371086Y-1387855D02*
G01*
X4411979Y-1442465D01*
X4229354Y-1614423D02*
G01*
X4220209Y-1605534D01*
X4206493Y-1600962D01*
X4188206Y-1600962D01*
X4174743Y-1605534D01*
X4165600Y-1614423D01*
X4165600Y-1623568D01*
X4170172Y-1632712D01*
X4174743Y-1637284D01*
X4183888Y-1641855D01*
X4211065Y-1651000D01*
X4220209Y-1655318D01*
X4224781Y-1659889D01*
X4229354Y-1669034D01*
X4229354Y-1682750D01*
X4220209Y-1691894D01*
X4206493Y-1696465D01*
X4188206Y-1696465D01*
X4174743Y-1691894D01*
X4165600Y-1682750D01*
X4259325Y-1600962D02*
G01*
X4259325Y-1696465D01*
X4322825Y-1600962D02*
G01*
X4322825Y-1696465D01*
X4259325Y-1646428D02*
G01*
X4322825Y-1646428D01*
X4206493Y-1868423D02*
G01*
X4206493Y-1950465D01*
X4165600Y-1909318D02*
G01*
X4247388Y-1909318D01*
X4331970Y-1854962D02*
G01*
X4286504Y-1854962D01*
X4281931Y-1895855D01*
X4286504Y-1891284D01*
X4300220Y-1886712D01*
X4313681Y-1886712D01*
X4327397Y-1891284D01*
X4336541Y-1900428D01*
X4341113Y-1913889D01*
X4341113Y-1923034D01*
X4336541Y-1936750D01*
X4327397Y-1945894D01*
X4313681Y-1950465D01*
X4300220Y-1950465D01*
X4286504Y-1945894D01*
X4281931Y-1941321D01*
X4277359Y-1932178D01*
X4371086Y-1854962D02*
G01*
X4407408Y-1950465D01*
X4443729Y-1854962D02*
G01*
X4407408Y-1950465D01*
D11*
X3733800Y-732586D02*
G01*
X3397961Y-732586D01*
X3317747Y-812800D01*
X3733800Y-659536D02*
G01*
X3733800Y-732586D01*
X3245002Y-812800D02*
G01*
X3317747Y-812800D01*
X2641600Y-793902D02*
G01*
X2719349Y-793902D01*
X2356332Y-235204D02*
G01*
X2356332Y-114731D01*
X2555875Y84810D01*
X2646603Y84810D01*
X1603222Y-235204D02*
G01*
X2356332Y-235204D01*
X2356332Y-235204D02*
G01*
X2787370Y-666242D01*
X2787370Y-725881D01*
X2719349Y-793902D02*
G01*
X2787370Y-725881D01*
X2787370Y-725881D02*
G01*
X3230829Y-725881D01*
X3317747Y-812800D01*
X520700Y-1321663D02*
G01*
X596645Y-1321663D01*
X596645Y-1321663D02*
G01*
X2626893Y-1321663D01*
X2972181Y-976376D01*
X3081426Y-976376D01*
X3245002Y-812800D01*
X1039850Y-1586407D02*
G01*
X1039850Y-1719117D01*
X1039850Y-1719120D01*
X1039850Y-1719122D02*
G01*
X1048029Y-1727301D01*
X1872742Y-1727301D01*
X3220796Y-175209D02*
G01*
X3361080Y-175209D01*
X2646603Y-240207D02*
G01*
X2837484Y-240207D01*
X3094329Y-497052D01*
X3627577Y-497052D01*
X2646603Y-110210D02*
G01*
X3080156Y-110210D01*
X2342997Y-1854200D02*
G01*
X2270252Y-1854200D01*
X1234922Y-1586407D02*
G01*
X1234922Y-1453644D01*
X1234920Y-1453642D01*
X1343177Y-330200D02*
G01*
X1430934Y-330200D01*
X743102Y-889000D02*
G01*
X815847Y-889000D01*
X2247900Y-1082370D02*
G01*
X2247900Y-1149502D01*
X2247900Y-1082370D02*
G01*
X1812772Y-1082370D01*
X1739900Y-1009497D01*
X2641600Y-653897D02*
G01*
X2552471Y-743026D01*
X2552471Y-866775D01*
X3104997Y-812800D02*
G01*
X3032252Y-812800D01*
X2552471Y-866775D02*
G01*
X2336876Y-1082370D01*
X2247900Y-1082370D01*
X2967304Y-1209090D02*
G01*
X2967304Y-1341831D01*
X2270252Y-1854200D02*
G01*
X2270252Y-1453642D01*
X2270252Y-1453642D02*
G01*
X2855493Y-1453642D01*
X2967304Y-1341831D01*
X815847Y-889000D02*
G01*
X906424Y-979576D01*
X1249426Y-979576D01*
X1327302Y-901700D01*
X1234922Y-1453642D02*
G01*
X2270252Y-1453642D01*
X1327302Y-901700D02*
G01*
X1363675Y-901700D01*
X1739900Y-1009497D02*
G01*
X1739900Y-936752D01*
X1433347Y-901700D02*
G01*
X1433347Y-332612D01*
X1430934Y-330200D01*
X1363675Y-901700D02*
G01*
X1433347Y-901700D01*
X1433347Y-901700D02*
G01*
X1704847Y-901700D01*
X1739900Y-936752D01*
X2339847Y-431800D02*
G01*
X2561945Y-653897D01*
X2641600Y-653897D01*
X2267102Y-431800D02*
G01*
X2339847Y-431800D01*
X2646603Y19786D02*
G01*
X2736545Y19786D01*
X2780893Y64135D01*
X2780893Y296824D01*
X2671648Y406069D01*
X1592122Y406069D01*
X1457756Y271703D01*
X1457756Y-303377D01*
X1430934Y-330200D01*
X3421735Y-1361871D02*
G01*
X2987344Y-1361871D01*
X2967304Y-1341831D01*
X3032252Y-812800D02*
G01*
X2978277Y-866775D01*
X2978277Y-866775D02*
G01*
X2552471Y-866775D01*
X4826000Y-635000D02*
G01*
X4669790Y-478789D01*
X4669790Y-289229D01*
X4230750Y149809D01*
X3220796Y149809D01*
X904646Y-406400D02*
G01*
X987399Y-406400D01*
X1343177Y-235204D02*
G01*
X1255445Y-235204D01*
X1142136Y-406400D02*
G01*
X987399Y-406400D01*
X1142136Y-406400D02*
G01*
X1142136Y-348513D01*
X1255445Y-235204D01*
X1343177Y-425195D02*
G01*
X1187297Y-425195D01*
X1187297Y-425195D02*
G01*
X1160932Y-425195D01*
X1142136Y-406400D01*
X603097Y-889000D02*
G01*
X680973Y-811123D01*
X1187297Y-811123D01*
X1187297Y-901700D02*
G01*
X1187297Y-811123D01*
X1187297Y-811123D02*
G01*
X1187297Y-425195D01*
X1603222Y-425195D02*
G01*
X2047747Y-425195D01*
X2054352Y-431800D01*
X2127097Y-431800D02*
G01*
X2054352Y-431800D01*
X4826000Y-381000D02*
G01*
X4230192Y214807D01*
X3220796Y214807D01*
X1836470Y108204D02*
G01*
X1920341Y108204D01*
X1836470Y108204D02*
G01*
X1752600Y108204D01*
X1584858Y108204D02*
G01*
X1503324Y26670D01*
X1503324Y-463295D01*
X2049525Y-1009497D01*
X2247900Y-1009497D01*
X1752600Y108204D02*
G01*
X1584858Y108204D01*
X1920341Y108204D02*
G01*
X1961946Y149809D01*
X2646603Y149809D01*
X1104874Y-1586407D02*
G01*
X1104874Y-1453642D01*
X1104874Y-1453642D01*
X3220796Y-240207D02*
G01*
X3085363Y-240207D01*
X3081604Y-236448D01*
X520700Y-1472336D02*
G01*
X520700Y-1399260D01*
X520700Y-1399260D02*
G01*
X1050493Y-1399260D01*
X1104874Y-1453642D01*
X1104874Y-1453642D02*
G01*
X1123569Y-1434947D01*
X1167155Y-1434947D01*
X4826000Y-1905000D02*
G01*
X4714519Y-1905000D01*
X974826Y-1586407D02*
G01*
X974826Y-1453644D01*
X974824Y-1453642D01*
X670153Y-406400D02*
G01*
X670153Y-476630D01*
X816355Y-1567179D02*
G01*
X475818Y-1567179D01*
X444627Y-1535988D01*
X444627Y-702157D01*
X670153Y-476630D01*
X4714519Y-1905000D02*
G01*
X4317542Y-2301976D01*
X1137945Y-2301976D01*
X832738Y-1996770D01*
X832738Y-1774799D01*
X816355Y-1758416D01*
X816355Y-1567179D01*
X816355Y-1567179D02*
G01*
X929894Y-1453642D01*
X974826Y-1453642D01*
X2646603Y-175209D02*
G01*
X2928518Y-175209D01*
X3165322Y-412013D01*
X3789222Y-412013D01*
X4169283Y-792073D01*
X4352137Y-792073D01*
X4683607Y-1123543D01*
X4683607Y-1254607D01*
X4826000Y-1397000D01*
X2483002Y-1854200D02*
G01*
X2519451Y-1854200D01*
X3357321Y-2169109D02*
G01*
X3357321Y-2036216D01*
X3600297Y-1418107D02*
G01*
X3600297Y-1429207D01*
X3175304Y-1854200D01*
X2519451Y-1854200D02*
G01*
X3175304Y-1854200D01*
X3175304Y-1854200D02*
G01*
X3357321Y-2036216D01*
X3695700Y-1418107D02*
G01*
X3600297Y-1418107D01*
X3809898Y-508863D02*
G01*
X3873982Y-572947D01*
X3873982Y-1198371D01*
X3737152Y-1335201D01*
X3695700Y-1335201D01*
X3733800Y-508863D02*
G01*
X3809898Y-508863D01*
X3695700Y-1418107D02*
G01*
X3695700Y-1335201D01*
X2646603Y-45212D02*
G01*
X2569616Y-45212D01*
X2516200Y-98628D01*
X2516200Y-321157D01*
X2777109Y-582066D01*
X3786860Y-582066D01*
X3818559Y-613765D01*
X3818559Y-992479D01*
X3695700Y-1115339D01*
X3695700Y-1198092D02*
G01*
X3695700Y-1115339D01*
X1836470Y298195D02*
G01*
X1920341Y298195D01*
X1836470Y298195D02*
G01*
X1752600Y298195D01*
X1739900Y-1149502D02*
G01*
X1662150Y-1149502D01*
X2646603Y214807D02*
G01*
X1956638Y214807D01*
X1955368Y216077D01*
X1920341Y298195D02*
G01*
X1955368Y263169D01*
X1955368Y216077D01*
X1662150Y-1149502D02*
G01*
X1643430Y-1149502D01*
D12*
G01*
X2646603Y279806D03*
G01*
X2646603Y214807D03*
G01*
X2646603Y149809D03*
G01*
X2646603Y84810D03*
G01*
X2646603Y19786D03*
G01*
X2646603Y-45212D03*
G01*
X2646603Y-110210D03*
G01*
X2646603Y-175209D03*
G01*
X2646603Y-240207D03*
G01*
X2646603Y-305206D03*
G01*
X3220796Y279806D03*
G01*
X3220796Y214807D03*
G01*
X3220796Y149809D03*
G01*
X3220796Y84810D03*
G01*
X3220796Y19786D03*
G01*
X3220796Y-45212D03*
G01*
X3220796Y-110210D03*
G01*
X3220796Y-175209D03*
G01*
X3220796Y-240207D03*
G01*
X3220796Y-305206D03*
D13*
G01*
X3245002Y-812800D03*
G01*
X3104997Y-812800D03*
D14*
G01*
X2641600Y-793902D03*
G01*
X2641600Y-653897D03*
G01*
X1739900Y-1149502D03*
G01*
X1739900Y-1009497D03*
G01*
X2247900Y-1009497D03*
G01*
X2247900Y-1149502D03*
D13*
G01*
X603097Y-889000D03*
G01*
X743102Y-889000D03*
G01*
X1187297Y-901700D03*
G01*
X1327302Y-901700D03*
G01*
X2127097Y-431800D03*
G01*
X2267102Y-431800D03*
D15*
G01*
X670153Y-406400D03*
G01*
X904646Y-406400D03*
D16*
G01*
X1603222Y-235204D03*
G01*
X1603222Y-425195D03*
G01*
X1343177Y-425195D03*
G01*
X1343177Y-330200D03*
G01*
X1343177Y-235204D03*
D17*
G01*
X1752600Y108200D03*
G01*
X1752600Y298199D03*
D18*
G01*
X2967304Y-2169109D03*
G01*
X2967304Y-1209090D03*
G01*
X3357321Y-2169109D03*
G01*
X3357321Y-1209090D03*
D19*
G01*
X1234922Y-1586407D03*
G01*
X1169898Y-1586407D03*
G01*
X1104874Y-1586407D03*
G01*
X1039850Y-1586407D03*
G01*
X974826Y-1586407D03*
D20*
G01*
X1504899Y-1893417D03*
G01*
X704900Y-1893417D03*
G01*
X983919Y-1894941D03*
G01*
X1235887Y-1896897D03*
D13*
G01*
X2483002Y-1854200D03*
G01*
X2342997Y-1854200D03*
D21*
G01*
X3733800Y-659524D03*
D22*
G01*
X3733800Y-508863D03*
D23*
G01*
X3695710Y-1418102D03*
G01*
X3695710Y-1198087D03*
D21*
G01*
X520700Y-1472324D03*
D22*
G01*
X520700Y-1321663D03*
D24*
G01*
X4826000Y-1905000D03*
D25*
G01*
X4826000Y-1651000D03*
G01*
X4826000Y-1397000D03*
G01*
X4826000Y-1143000D03*
G01*
X4826000Y-889000D03*
G01*
X4826000Y-635000D03*
G01*
X4826000Y-381000D03*
G01*
X4826000Y-127000D03*
D26*
G01*
X1643430Y-1149502D03*
G01*
X1955368Y216077D03*
G01*
X1167155Y-1434947D03*
G01*
X3081604Y-236448D03*
G01*
X2978277Y-866775D03*
G01*
X3421735Y-1361871D03*
G01*
X3080156Y-110210D03*
G01*
X3627577Y-497052D03*
G01*
X1872742Y-1727301D03*
G01*
X3361080Y-175209D03*
M02*
